M48
; DRILL file {KiCad (5.1.9-0-10_14)} date Tuesday, February 02, 2021 at 06:14:27 AM
; FORMAT={-:-/ absolute / metric / decimal}
; #@! TF.CreationDate,2021-02-02T06:14:27+09:00
; #@! TF.GenerationSoftware,Kicad,Pcbnew,(5.1.9-0-10_14)
FMAT,2
METRIC
T1C2.200
T2C2.400
T3C2.600
%
G90
G05
T1
X34.85Y-24.75
X34.85Y-28.45
X34.85Y-48.85
X34.85Y-114.65
X50.05Y-114.65
X117.65Y-114.65
X127.25Y-24.75
X127.25Y-28.45
X174.85Y-24.75
X174.85Y-28.45
X174.85Y-48.85
X174.85Y-63.45
X174.85Y-114.65
X214.85Y-114.65
X222.45Y-24.75
X222.45Y-28.45
X274.65Y-51.85
X299.65Y-24.75
X299.65Y-114.65
X314.85Y-24.75
X314.85Y-28.45
X314.85Y-48.85
X314.85Y-114.65
T2
X57.55Y-50.45
T2
G00X159.15Y-69.55
M15
G01X161.95Y-69.55
M16
G05
G00X221.45Y-107.75
M15
G01X224.25Y-107.75
M16
G05
G00X291.0Y-50.45
M15
G01X293.8Y-50.45
M16
G05
T3
G00X34.85Y-79.05
M15
G01X36.25Y-79.05
M16
G05
G00X313.45Y-79.05
M15
G01X314.85Y-79.05
M16
G05
T0
M30
