%TF.GenerationSoftware,KiCad,Pcbnew,(5.1.9-0-10_14)*%
%TF.CreationDate,2021-02-02T06:14:29+09:00*%
%TF.ProjectId,Bottom_Plate_for_Jones_and_Unison,426f7474-6f6d-45f5-906c-6174655f666f,rev?*%
%TF.SameCoordinates,Original*%
%TF.FileFunction,Copper,L1,Top*%
%TF.FilePolarity,Positive*%
%FSLAX46Y46*%
G04 Gerber Fmt 4.6, Leading zero omitted, Abs format (unit mm)*
G04 Created by KiCad (PCBNEW (5.1.9-0-10_14)) date 2021-02-02 06:14:29*
%MOMM*%
%LPD*%
G01*
G04 APERTURE LIST*
%TA.AperFunction,NonConductor*%
%ADD10C,0.254000*%
%TD*%
%TA.AperFunction,NonConductor*%
%ADD11C,0.100000*%
%TD*%
G04 APERTURE END LIST*
D10*
X316565000Y-115111612D02*
X316538168Y-115385262D01*
X316469843Y-115611565D01*
X316358864Y-115820288D01*
X316209458Y-116003477D01*
X316027314Y-116154159D01*
X315819377Y-116266591D01*
X315593552Y-116336496D01*
X315322353Y-116365000D01*
X315121430Y-116365000D01*
X315356081Y-116318325D01*
X315671831Y-116187537D01*
X315955998Y-115997663D01*
X316197663Y-115755998D01*
X316387537Y-115471831D01*
X316518325Y-115156081D01*
X316565000Y-114921430D01*
X316565000Y-115111612D01*
%TA.AperFunction,NonConductor*%
D11*
G36*
X316565000Y-115111612D02*
G01*
X316538168Y-115385262D01*
X316469843Y-115611565D01*
X316358864Y-115820288D01*
X316209458Y-116003477D01*
X316027314Y-116154159D01*
X315819377Y-116266591D01*
X315593552Y-116336496D01*
X315322353Y-116365000D01*
X315121430Y-116365000D01*
X315356081Y-116318325D01*
X315671831Y-116187537D01*
X315955998Y-115997663D01*
X316197663Y-115755998D01*
X316387537Y-115471831D01*
X316518325Y-115156081D01*
X316565000Y-114921430D01*
X316565000Y-115111612D01*
G37*
%TD.AperFunction*%
D10*
X33181675Y-115156081D02*
X33312463Y-115471831D01*
X33502337Y-115755998D01*
X33744002Y-115997663D01*
X34028169Y-116187537D01*
X34343919Y-116318325D01*
X34578570Y-116365000D01*
X34388388Y-116365000D01*
X34114738Y-116338168D01*
X33888435Y-116269843D01*
X33679712Y-116158864D01*
X33496523Y-116009458D01*
X33345841Y-115827314D01*
X33233409Y-115619377D01*
X33163504Y-115393552D01*
X33135000Y-115122353D01*
X33135000Y-114921430D01*
X33181675Y-115156081D01*
%TA.AperFunction,NonConductor*%
D11*
G36*
X33181675Y-115156081D02*
G01*
X33312463Y-115471831D01*
X33502337Y-115755998D01*
X33744002Y-115997663D01*
X34028169Y-116187537D01*
X34343919Y-116318325D01*
X34578570Y-116365000D01*
X34388388Y-116365000D01*
X34114738Y-116338168D01*
X33888435Y-116269843D01*
X33679712Y-116158864D01*
X33496523Y-116009458D01*
X33345841Y-115827314D01*
X33233409Y-115619377D01*
X33163504Y-115393552D01*
X33135000Y-115122353D01*
X33135000Y-114921430D01*
X33181675Y-115156081D01*
G37*
%TD.AperFunction*%
D10*
X126144002Y-23402337D02*
X125902337Y-23644002D01*
X125712463Y-23928169D01*
X125581675Y-24243919D01*
X125515000Y-24579117D01*
X125515000Y-24920883D01*
X125581675Y-25256081D01*
X125712463Y-25571831D01*
X125902337Y-25855998D01*
X126144002Y-26097663D01*
X126428169Y-26287537D01*
X126743919Y-26418325D01*
X127079117Y-26485000D01*
X127420883Y-26485000D01*
X127756081Y-26418325D01*
X128071831Y-26287537D01*
X128355998Y-26097663D01*
X128597663Y-25855998D01*
X128787537Y-25571831D01*
X128918325Y-25256081D01*
X128985000Y-24920883D01*
X128985000Y-24579117D01*
X128918325Y-24243919D01*
X128787537Y-23928169D01*
X128597663Y-23644002D01*
X128355998Y-23402337D01*
X128255221Y-23335000D01*
X173844779Y-23335000D01*
X173744002Y-23402337D01*
X173502337Y-23644002D01*
X173312463Y-23928169D01*
X173181675Y-24243919D01*
X173115000Y-24579117D01*
X173115000Y-24920883D01*
X173181675Y-25256081D01*
X173312463Y-25571831D01*
X173502337Y-25855998D01*
X173744002Y-26097663D01*
X174028169Y-26287537D01*
X174343919Y-26418325D01*
X174679117Y-26485000D01*
X175020883Y-26485000D01*
X175356081Y-26418325D01*
X175671831Y-26287537D01*
X175955998Y-26097663D01*
X176197663Y-25855998D01*
X176387537Y-25571831D01*
X176518325Y-25256081D01*
X176585000Y-24920883D01*
X176585000Y-24579117D01*
X176518325Y-24243919D01*
X176387537Y-23928169D01*
X176197663Y-23644002D01*
X175955998Y-23402337D01*
X175855221Y-23335000D01*
X221444779Y-23335000D01*
X221344002Y-23402337D01*
X221102337Y-23644002D01*
X220912463Y-23928169D01*
X220781675Y-24243919D01*
X220715000Y-24579117D01*
X220715000Y-24920883D01*
X220781675Y-25256081D01*
X220912463Y-25571831D01*
X221102337Y-25855998D01*
X221344002Y-26097663D01*
X221628169Y-26287537D01*
X221943919Y-26418325D01*
X222279117Y-26485000D01*
X222620883Y-26485000D01*
X222956081Y-26418325D01*
X223271831Y-26287537D01*
X223555998Y-26097663D01*
X223797663Y-25855998D01*
X223987537Y-25571831D01*
X224118325Y-25256081D01*
X224185000Y-24920883D01*
X224185000Y-24579117D01*
X224118325Y-24243919D01*
X223987537Y-23928169D01*
X223797663Y-23644002D01*
X223555998Y-23402337D01*
X223455221Y-23335000D01*
X298644779Y-23335000D01*
X298544002Y-23402337D01*
X298302337Y-23644002D01*
X298112463Y-23928169D01*
X297981675Y-24243919D01*
X297915000Y-24579117D01*
X297915000Y-24920883D01*
X297981675Y-25256081D01*
X298112463Y-25571831D01*
X298302337Y-25855998D01*
X298544002Y-26097663D01*
X298828169Y-26287537D01*
X299143919Y-26418325D01*
X299479117Y-26485000D01*
X299820883Y-26485000D01*
X300156081Y-26418325D01*
X300471831Y-26287537D01*
X300755998Y-26097663D01*
X300997663Y-25855998D01*
X301187537Y-25571831D01*
X301318325Y-25256081D01*
X301385000Y-24920883D01*
X301385000Y-24579117D01*
X301318325Y-24243919D01*
X301187537Y-23928169D01*
X300997663Y-23644002D01*
X300755998Y-23402337D01*
X300655221Y-23335000D01*
X313844779Y-23335000D01*
X313744002Y-23402337D01*
X313502337Y-23644002D01*
X313312463Y-23928169D01*
X313181675Y-24243919D01*
X313115000Y-24579117D01*
X313115000Y-24920883D01*
X313181675Y-25256081D01*
X313312463Y-25571831D01*
X313502337Y-25855998D01*
X313744002Y-26097663D01*
X314028169Y-26287537D01*
X314343919Y-26418325D01*
X314679117Y-26485000D01*
X315020883Y-26485000D01*
X315356081Y-26418325D01*
X315671831Y-26287537D01*
X315955998Y-26097663D01*
X316197663Y-25855998D01*
X316387537Y-25571831D01*
X316518325Y-25256081D01*
X316565001Y-25021425D01*
X316565001Y-28178575D01*
X316518325Y-27943919D01*
X316387537Y-27628169D01*
X316197663Y-27344002D01*
X315955998Y-27102337D01*
X315671831Y-26912463D01*
X315356081Y-26781675D01*
X315020883Y-26715000D01*
X314679117Y-26715000D01*
X314343919Y-26781675D01*
X314028169Y-26912463D01*
X313744002Y-27102337D01*
X313502337Y-27344002D01*
X313312463Y-27628169D01*
X313181675Y-27943919D01*
X313115000Y-28279117D01*
X313115000Y-28620883D01*
X313181675Y-28956081D01*
X313312463Y-29271831D01*
X313502337Y-29555998D01*
X313744002Y-29797663D01*
X314028169Y-29987537D01*
X314343919Y-30118325D01*
X314679117Y-30185000D01*
X315020883Y-30185000D01*
X315356081Y-30118325D01*
X315671831Y-29987537D01*
X315955998Y-29797663D01*
X316197663Y-29555998D01*
X316387537Y-29271831D01*
X316518325Y-28956081D01*
X316565001Y-28721425D01*
X316565001Y-48578574D01*
X316518325Y-48343919D01*
X316387537Y-48028169D01*
X316197663Y-47744002D01*
X315955998Y-47502337D01*
X315671831Y-47312463D01*
X315356081Y-47181675D01*
X315020883Y-47115000D01*
X314679117Y-47115000D01*
X314343919Y-47181675D01*
X314028169Y-47312463D01*
X313744002Y-47502337D01*
X313502337Y-47744002D01*
X313312463Y-48028169D01*
X313181675Y-48343919D01*
X313115000Y-48679117D01*
X313115000Y-49020883D01*
X313181675Y-49356081D01*
X313312463Y-49671831D01*
X313502337Y-49955998D01*
X313744002Y-50197663D01*
X314028169Y-50387537D01*
X314343919Y-50518325D01*
X314679117Y-50585000D01*
X315020883Y-50585000D01*
X315356081Y-50518325D01*
X315671831Y-50387537D01*
X315955998Y-50197663D01*
X316197663Y-49955998D01*
X316387537Y-49671831D01*
X316518325Y-49356081D01*
X316565001Y-49121426D01*
X316565000Y-78153719D01*
X316466678Y-77969770D01*
X316224872Y-77675128D01*
X315930230Y-77433322D01*
X315594075Y-77253644D01*
X315229326Y-77142998D01*
X314945055Y-77115000D01*
X313354945Y-77115000D01*
X313070674Y-77142998D01*
X312705925Y-77253644D01*
X312369770Y-77433322D01*
X312075128Y-77675128D01*
X311833322Y-77969770D01*
X311653644Y-78305925D01*
X311542998Y-78670674D01*
X311505638Y-79050000D01*
X311542998Y-79429326D01*
X311653644Y-79794075D01*
X311833322Y-80130230D01*
X312075128Y-80424872D01*
X312369770Y-80666678D01*
X312705925Y-80846356D01*
X313070674Y-80957002D01*
X313354945Y-80985000D01*
X314945055Y-80985000D01*
X315229326Y-80957002D01*
X315594075Y-80846356D01*
X315930230Y-80666678D01*
X316224872Y-80424872D01*
X316466678Y-80130230D01*
X316565000Y-79946281D01*
X316565000Y-114378570D01*
X316518325Y-114143919D01*
X316387537Y-113828169D01*
X316197663Y-113544002D01*
X315955998Y-113302337D01*
X315671831Y-113112463D01*
X315356081Y-112981675D01*
X315020883Y-112915000D01*
X314679117Y-112915000D01*
X314343919Y-112981675D01*
X314028169Y-113112463D01*
X313744002Y-113302337D01*
X313502337Y-113544002D01*
X313312463Y-113828169D01*
X313181675Y-114143919D01*
X313115000Y-114479117D01*
X313115000Y-114820883D01*
X313181675Y-115156081D01*
X313312463Y-115471831D01*
X313502337Y-115755998D01*
X313744002Y-115997663D01*
X314028169Y-116187537D01*
X314343919Y-116318325D01*
X314578570Y-116365000D01*
X299921430Y-116365000D01*
X300156081Y-116318325D01*
X300471831Y-116187537D01*
X300755998Y-115997663D01*
X300997663Y-115755998D01*
X301187537Y-115471831D01*
X301318325Y-115156081D01*
X301385000Y-114820883D01*
X301385000Y-114479117D01*
X301318325Y-114143919D01*
X301187537Y-113828169D01*
X300997663Y-113544002D01*
X300755998Y-113302337D01*
X300471831Y-113112463D01*
X300156081Y-112981675D01*
X299820883Y-112915000D01*
X299479117Y-112915000D01*
X299143919Y-112981675D01*
X298828169Y-113112463D01*
X298544002Y-113302337D01*
X298302337Y-113544002D01*
X298112463Y-113828169D01*
X297981675Y-114143919D01*
X297915000Y-114479117D01*
X297915000Y-114820883D01*
X297981675Y-115156081D01*
X298112463Y-115471831D01*
X298302337Y-115755998D01*
X298544002Y-115997663D01*
X298828169Y-116187537D01*
X299143919Y-116318325D01*
X299378570Y-116365000D01*
X215121430Y-116365000D01*
X215356081Y-116318325D01*
X215671831Y-116187537D01*
X215955998Y-115997663D01*
X216197663Y-115755998D01*
X216387537Y-115471831D01*
X216518325Y-115156081D01*
X216585000Y-114820883D01*
X216585000Y-114479117D01*
X216518325Y-114143919D01*
X216387537Y-113828169D01*
X216197663Y-113544002D01*
X215955998Y-113302337D01*
X215671831Y-113112463D01*
X215356081Y-112981675D01*
X215020883Y-112915000D01*
X214679117Y-112915000D01*
X214343919Y-112981675D01*
X214028169Y-113112463D01*
X213744002Y-113302337D01*
X213502337Y-113544002D01*
X213312463Y-113828169D01*
X213181675Y-114143919D01*
X213115000Y-114479117D01*
X213115000Y-114820883D01*
X213181675Y-115156081D01*
X213312463Y-115471831D01*
X213502337Y-115755998D01*
X213744002Y-115997663D01*
X214028169Y-116187537D01*
X214343919Y-116318325D01*
X214578570Y-116365000D01*
X175121430Y-116365000D01*
X175356081Y-116318325D01*
X175671831Y-116187537D01*
X175955998Y-115997663D01*
X176197663Y-115755998D01*
X176387537Y-115471831D01*
X176518325Y-115156081D01*
X176585000Y-114820883D01*
X176585000Y-114479117D01*
X176518325Y-114143919D01*
X176387537Y-113828169D01*
X176197663Y-113544002D01*
X175955998Y-113302337D01*
X175671831Y-113112463D01*
X175356081Y-112981675D01*
X175020883Y-112915000D01*
X174679117Y-112915000D01*
X174343919Y-112981675D01*
X174028169Y-113112463D01*
X173744002Y-113302337D01*
X173502337Y-113544002D01*
X173312463Y-113828169D01*
X173181675Y-114143919D01*
X173115000Y-114479117D01*
X173115000Y-114820883D01*
X173181675Y-115156081D01*
X173312463Y-115471831D01*
X173502337Y-115755998D01*
X173744002Y-115997663D01*
X174028169Y-116187537D01*
X174343919Y-116318325D01*
X174578570Y-116365000D01*
X117921430Y-116365000D01*
X118156081Y-116318325D01*
X118471831Y-116187537D01*
X118755998Y-115997663D01*
X118997663Y-115755998D01*
X119187537Y-115471831D01*
X119318325Y-115156081D01*
X119385000Y-114820883D01*
X119385000Y-114479117D01*
X119318325Y-114143919D01*
X119187537Y-113828169D01*
X118997663Y-113544002D01*
X118755998Y-113302337D01*
X118471831Y-113112463D01*
X118156081Y-112981675D01*
X117820883Y-112915000D01*
X117479117Y-112915000D01*
X117143919Y-112981675D01*
X116828169Y-113112463D01*
X116544002Y-113302337D01*
X116302337Y-113544002D01*
X116112463Y-113828169D01*
X115981675Y-114143919D01*
X115915000Y-114479117D01*
X115915000Y-114820883D01*
X115981675Y-115156081D01*
X116112463Y-115471831D01*
X116302337Y-115755998D01*
X116544002Y-115997663D01*
X116828169Y-116187537D01*
X117143919Y-116318325D01*
X117378570Y-116365000D01*
X50321430Y-116365000D01*
X50556081Y-116318325D01*
X50871831Y-116187537D01*
X51155998Y-115997663D01*
X51397663Y-115755998D01*
X51587537Y-115471831D01*
X51718325Y-115156081D01*
X51785000Y-114820883D01*
X51785000Y-114479117D01*
X51718325Y-114143919D01*
X51587537Y-113828169D01*
X51397663Y-113544002D01*
X51155998Y-113302337D01*
X50871831Y-113112463D01*
X50556081Y-112981675D01*
X50220883Y-112915000D01*
X49879117Y-112915000D01*
X49543919Y-112981675D01*
X49228169Y-113112463D01*
X48944002Y-113302337D01*
X48702337Y-113544002D01*
X48512463Y-113828169D01*
X48381675Y-114143919D01*
X48315000Y-114479117D01*
X48315000Y-114820883D01*
X48381675Y-115156081D01*
X48512463Y-115471831D01*
X48702337Y-115755998D01*
X48944002Y-115997663D01*
X49228169Y-116187537D01*
X49543919Y-116318325D01*
X49778570Y-116365000D01*
X35121430Y-116365000D01*
X35356081Y-116318325D01*
X35671831Y-116187537D01*
X35955998Y-115997663D01*
X36197663Y-115755998D01*
X36387537Y-115471831D01*
X36518325Y-115156081D01*
X36585000Y-114820883D01*
X36585000Y-114479117D01*
X36518325Y-114143919D01*
X36387537Y-113828169D01*
X36197663Y-113544002D01*
X35955998Y-113302337D01*
X35671831Y-113112463D01*
X35356081Y-112981675D01*
X35020883Y-112915000D01*
X34679117Y-112915000D01*
X34343919Y-112981675D01*
X34028169Y-113112463D01*
X33744002Y-113302337D01*
X33502337Y-113544002D01*
X33312463Y-113828169D01*
X33181675Y-114143919D01*
X33135000Y-114378570D01*
X33135000Y-107750000D01*
X219606122Y-107750000D01*
X219641552Y-108109723D01*
X219746479Y-108455622D01*
X219916871Y-108774404D01*
X220146181Y-109053819D01*
X220425596Y-109283129D01*
X220744378Y-109453521D01*
X221090277Y-109558448D01*
X221359861Y-109585000D01*
X224340139Y-109585000D01*
X224609723Y-109558448D01*
X224955622Y-109453521D01*
X225274404Y-109283129D01*
X225553819Y-109053819D01*
X225783129Y-108774404D01*
X225953521Y-108455622D01*
X226058448Y-108109723D01*
X226093878Y-107750000D01*
X226058448Y-107390277D01*
X225953521Y-107044378D01*
X225783129Y-106725596D01*
X225553819Y-106446181D01*
X225274404Y-106216871D01*
X224955622Y-106046479D01*
X224609723Y-105941552D01*
X224340139Y-105915000D01*
X221359861Y-105915000D01*
X221090277Y-105941552D01*
X220744378Y-106046479D01*
X220425596Y-106216871D01*
X220146181Y-106446181D01*
X219916871Y-106725596D01*
X219746479Y-107044378D01*
X219641552Y-107390277D01*
X219606122Y-107750000D01*
X33135000Y-107750000D01*
X33135000Y-79946282D01*
X33233322Y-80130230D01*
X33475128Y-80424872D01*
X33769770Y-80666678D01*
X34105925Y-80846356D01*
X34470674Y-80957002D01*
X34754945Y-80985000D01*
X36345055Y-80985000D01*
X36629326Y-80957002D01*
X36994075Y-80846356D01*
X37330230Y-80666678D01*
X37624872Y-80424872D01*
X37866678Y-80130230D01*
X38046356Y-79794075D01*
X38157002Y-79429326D01*
X38194362Y-79050000D01*
X38157002Y-78670674D01*
X38046356Y-78305925D01*
X37866678Y-77969770D01*
X37624872Y-77675128D01*
X37330230Y-77433322D01*
X36994075Y-77253644D01*
X36629326Y-77142998D01*
X36345055Y-77115000D01*
X34754945Y-77115000D01*
X34470674Y-77142998D01*
X34105925Y-77253644D01*
X33769770Y-77433322D01*
X33475128Y-77675128D01*
X33233322Y-77969770D01*
X33135000Y-78153718D01*
X33135000Y-69550000D01*
X157306122Y-69550000D01*
X157341552Y-69909723D01*
X157446479Y-70255622D01*
X157616871Y-70574404D01*
X157846181Y-70853819D01*
X158125596Y-71083129D01*
X158444378Y-71253521D01*
X158790277Y-71358448D01*
X159059861Y-71385000D01*
X162040139Y-71385000D01*
X162309723Y-71358448D01*
X162655622Y-71253521D01*
X162974404Y-71083129D01*
X163253819Y-70853819D01*
X163483129Y-70574404D01*
X163653521Y-70255622D01*
X163758448Y-69909723D01*
X163793878Y-69550000D01*
X163758448Y-69190277D01*
X163653521Y-68844378D01*
X163483129Y-68525596D01*
X163253819Y-68246181D01*
X162974404Y-68016871D01*
X162655622Y-67846479D01*
X162309723Y-67741552D01*
X162040139Y-67715000D01*
X159059861Y-67715000D01*
X158790277Y-67741552D01*
X158444378Y-67846479D01*
X158125596Y-68016871D01*
X157846181Y-68246181D01*
X157616871Y-68525596D01*
X157446479Y-68844378D01*
X157341552Y-69190277D01*
X157306122Y-69550000D01*
X33135000Y-69550000D01*
X33135000Y-63279117D01*
X173115000Y-63279117D01*
X173115000Y-63620883D01*
X173181675Y-63956081D01*
X173312463Y-64271831D01*
X173502337Y-64555998D01*
X173744002Y-64797663D01*
X174028169Y-64987537D01*
X174343919Y-65118325D01*
X174679117Y-65185000D01*
X175020883Y-65185000D01*
X175356081Y-65118325D01*
X175671831Y-64987537D01*
X175955998Y-64797663D01*
X176197663Y-64555998D01*
X176387537Y-64271831D01*
X176518325Y-63956081D01*
X176585000Y-63620883D01*
X176585000Y-63279117D01*
X176518325Y-62943919D01*
X176387537Y-62628169D01*
X176197663Y-62344002D01*
X175955998Y-62102337D01*
X175671831Y-61912463D01*
X175356081Y-61781675D01*
X175020883Y-61715000D01*
X174679117Y-61715000D01*
X174343919Y-61781675D01*
X174028169Y-61912463D01*
X173744002Y-62102337D01*
X173502337Y-62344002D01*
X173312463Y-62628169D01*
X173181675Y-62943919D01*
X173115000Y-63279117D01*
X33135000Y-63279117D01*
X33135000Y-49121430D01*
X33181675Y-49356081D01*
X33312463Y-49671831D01*
X33502337Y-49955998D01*
X33744002Y-50197663D01*
X34028169Y-50387537D01*
X34343919Y-50518325D01*
X34679117Y-50585000D01*
X35020883Y-50585000D01*
X35356081Y-50518325D01*
X35671831Y-50387537D01*
X35848833Y-50269268D01*
X55715000Y-50269268D01*
X55715000Y-50630732D01*
X55785518Y-50985250D01*
X55923844Y-51319199D01*
X56124662Y-51619744D01*
X56380256Y-51875338D01*
X56680801Y-52076156D01*
X57014750Y-52214482D01*
X57369268Y-52285000D01*
X57730732Y-52285000D01*
X58085250Y-52214482D01*
X58419199Y-52076156D01*
X58719744Y-51875338D01*
X58915965Y-51679117D01*
X272915000Y-51679117D01*
X272915000Y-52020883D01*
X272981675Y-52356081D01*
X273112463Y-52671831D01*
X273302337Y-52955998D01*
X273544002Y-53197663D01*
X273828169Y-53387537D01*
X274143919Y-53518325D01*
X274479117Y-53585000D01*
X274820883Y-53585000D01*
X275156081Y-53518325D01*
X275471831Y-53387537D01*
X275755998Y-53197663D01*
X275997663Y-52955998D01*
X276187537Y-52671831D01*
X276318325Y-52356081D01*
X276385000Y-52020883D01*
X276385000Y-51679117D01*
X276318325Y-51343919D01*
X276187537Y-51028169D01*
X275997663Y-50744002D01*
X275755998Y-50502337D01*
X275677671Y-50450000D01*
X289156122Y-50450000D01*
X289191552Y-50809723D01*
X289296479Y-51155622D01*
X289466871Y-51474404D01*
X289696181Y-51753819D01*
X289975596Y-51983129D01*
X290294378Y-52153521D01*
X290640277Y-52258448D01*
X290909861Y-52285000D01*
X293890139Y-52285000D01*
X294159723Y-52258448D01*
X294505622Y-52153521D01*
X294824404Y-51983129D01*
X295103819Y-51753819D01*
X295333129Y-51474404D01*
X295503521Y-51155622D01*
X295608448Y-50809723D01*
X295643878Y-50450000D01*
X295608448Y-50090277D01*
X295503521Y-49744378D01*
X295333129Y-49425596D01*
X295103819Y-49146181D01*
X294824404Y-48916871D01*
X294505622Y-48746479D01*
X294159723Y-48641552D01*
X293890139Y-48615000D01*
X290909861Y-48615000D01*
X290640277Y-48641552D01*
X290294378Y-48746479D01*
X289975596Y-48916871D01*
X289696181Y-49146181D01*
X289466871Y-49425596D01*
X289296479Y-49744378D01*
X289191552Y-50090277D01*
X289156122Y-50450000D01*
X275677671Y-50450000D01*
X275471831Y-50312463D01*
X275156081Y-50181675D01*
X274820883Y-50115000D01*
X274479117Y-50115000D01*
X274143919Y-50181675D01*
X273828169Y-50312463D01*
X273544002Y-50502337D01*
X273302337Y-50744002D01*
X273112463Y-51028169D01*
X272981675Y-51343919D01*
X272915000Y-51679117D01*
X58915965Y-51679117D01*
X58975338Y-51619744D01*
X59176156Y-51319199D01*
X59314482Y-50985250D01*
X59385000Y-50630732D01*
X59385000Y-50269268D01*
X59314482Y-49914750D01*
X59176156Y-49580801D01*
X58975338Y-49280256D01*
X58719744Y-49024662D01*
X58419199Y-48823844D01*
X58085250Y-48685518D01*
X58053070Y-48679117D01*
X173115000Y-48679117D01*
X173115000Y-49020883D01*
X173181675Y-49356081D01*
X173312463Y-49671831D01*
X173502337Y-49955998D01*
X173744002Y-50197663D01*
X174028169Y-50387537D01*
X174343919Y-50518325D01*
X174679117Y-50585000D01*
X175020883Y-50585000D01*
X175356081Y-50518325D01*
X175671831Y-50387537D01*
X175955998Y-50197663D01*
X176197663Y-49955998D01*
X176387537Y-49671831D01*
X176518325Y-49356081D01*
X176585000Y-49020883D01*
X176585000Y-48679117D01*
X176518325Y-48343919D01*
X176387537Y-48028169D01*
X176197663Y-47744002D01*
X175955998Y-47502337D01*
X175671831Y-47312463D01*
X175356081Y-47181675D01*
X175020883Y-47115000D01*
X174679117Y-47115000D01*
X174343919Y-47181675D01*
X174028169Y-47312463D01*
X173744002Y-47502337D01*
X173502337Y-47744002D01*
X173312463Y-48028169D01*
X173181675Y-48343919D01*
X173115000Y-48679117D01*
X58053070Y-48679117D01*
X57730732Y-48615000D01*
X57369268Y-48615000D01*
X57014750Y-48685518D01*
X56680801Y-48823844D01*
X56380256Y-49024662D01*
X56124662Y-49280256D01*
X55923844Y-49580801D01*
X55785518Y-49914750D01*
X55715000Y-50269268D01*
X35848833Y-50269268D01*
X35955998Y-50197663D01*
X36197663Y-49955998D01*
X36387537Y-49671831D01*
X36518325Y-49356081D01*
X36585000Y-49020883D01*
X36585000Y-48679117D01*
X36518325Y-48343919D01*
X36387537Y-48028169D01*
X36197663Y-47744002D01*
X35955998Y-47502337D01*
X35671831Y-47312463D01*
X35356081Y-47181675D01*
X35020883Y-47115000D01*
X34679117Y-47115000D01*
X34343919Y-47181675D01*
X34028169Y-47312463D01*
X33744002Y-47502337D01*
X33502337Y-47744002D01*
X33312463Y-48028169D01*
X33181675Y-48343919D01*
X33135000Y-48578570D01*
X33135000Y-28721430D01*
X33181675Y-28956081D01*
X33312463Y-29271831D01*
X33502337Y-29555998D01*
X33744002Y-29797663D01*
X34028169Y-29987537D01*
X34343919Y-30118325D01*
X34679117Y-30185000D01*
X35020883Y-30185000D01*
X35356081Y-30118325D01*
X35671831Y-29987537D01*
X35955998Y-29797663D01*
X36197663Y-29555998D01*
X36387537Y-29271831D01*
X36518325Y-28956081D01*
X36585000Y-28620883D01*
X36585000Y-28279117D01*
X125515000Y-28279117D01*
X125515000Y-28620883D01*
X125581675Y-28956081D01*
X125712463Y-29271831D01*
X125902337Y-29555998D01*
X126144002Y-29797663D01*
X126428169Y-29987537D01*
X126743919Y-30118325D01*
X127079117Y-30185000D01*
X127420883Y-30185000D01*
X127756081Y-30118325D01*
X128071831Y-29987537D01*
X128355998Y-29797663D01*
X128597663Y-29555998D01*
X128787537Y-29271831D01*
X128918325Y-28956081D01*
X128985000Y-28620883D01*
X128985000Y-28279117D01*
X173115000Y-28279117D01*
X173115000Y-28620883D01*
X173181675Y-28956081D01*
X173312463Y-29271831D01*
X173502337Y-29555998D01*
X173744002Y-29797663D01*
X174028169Y-29987537D01*
X174343919Y-30118325D01*
X174679117Y-30185000D01*
X175020883Y-30185000D01*
X175356081Y-30118325D01*
X175671831Y-29987537D01*
X175955998Y-29797663D01*
X176197663Y-29555998D01*
X176387537Y-29271831D01*
X176518325Y-28956081D01*
X176585000Y-28620883D01*
X176585000Y-28279117D01*
X220715000Y-28279117D01*
X220715000Y-28620883D01*
X220781675Y-28956081D01*
X220912463Y-29271831D01*
X221102337Y-29555998D01*
X221344002Y-29797663D01*
X221628169Y-29987537D01*
X221943919Y-30118325D01*
X222279117Y-30185000D01*
X222620883Y-30185000D01*
X222956081Y-30118325D01*
X223271831Y-29987537D01*
X223555998Y-29797663D01*
X223797663Y-29555998D01*
X223987537Y-29271831D01*
X224118325Y-28956081D01*
X224185000Y-28620883D01*
X224185000Y-28279117D01*
X224118325Y-27943919D01*
X223987537Y-27628169D01*
X223797663Y-27344002D01*
X223555998Y-27102337D01*
X223271831Y-26912463D01*
X222956081Y-26781675D01*
X222620883Y-26715000D01*
X222279117Y-26715000D01*
X221943919Y-26781675D01*
X221628169Y-26912463D01*
X221344002Y-27102337D01*
X221102337Y-27344002D01*
X220912463Y-27628169D01*
X220781675Y-27943919D01*
X220715000Y-28279117D01*
X176585000Y-28279117D01*
X176518325Y-27943919D01*
X176387537Y-27628169D01*
X176197663Y-27344002D01*
X175955998Y-27102337D01*
X175671831Y-26912463D01*
X175356081Y-26781675D01*
X175020883Y-26715000D01*
X174679117Y-26715000D01*
X174343919Y-26781675D01*
X174028169Y-26912463D01*
X173744002Y-27102337D01*
X173502337Y-27344002D01*
X173312463Y-27628169D01*
X173181675Y-27943919D01*
X173115000Y-28279117D01*
X128985000Y-28279117D01*
X128918325Y-27943919D01*
X128787537Y-27628169D01*
X128597663Y-27344002D01*
X128355998Y-27102337D01*
X128071831Y-26912463D01*
X127756081Y-26781675D01*
X127420883Y-26715000D01*
X127079117Y-26715000D01*
X126743919Y-26781675D01*
X126428169Y-26912463D01*
X126144002Y-27102337D01*
X125902337Y-27344002D01*
X125712463Y-27628169D01*
X125581675Y-27943919D01*
X125515000Y-28279117D01*
X36585000Y-28279117D01*
X36518325Y-27943919D01*
X36387537Y-27628169D01*
X36197663Y-27344002D01*
X35955998Y-27102337D01*
X35671831Y-26912463D01*
X35356081Y-26781675D01*
X35020883Y-26715000D01*
X34679117Y-26715000D01*
X34343919Y-26781675D01*
X34028169Y-26912463D01*
X33744002Y-27102337D01*
X33502337Y-27344002D01*
X33312463Y-27628169D01*
X33181675Y-27943919D01*
X33135000Y-28178570D01*
X33135000Y-25021430D01*
X33181675Y-25256081D01*
X33312463Y-25571831D01*
X33502337Y-25855998D01*
X33744002Y-26097663D01*
X34028169Y-26287537D01*
X34343919Y-26418325D01*
X34679117Y-26485000D01*
X35020883Y-26485000D01*
X35356081Y-26418325D01*
X35671831Y-26287537D01*
X35955998Y-26097663D01*
X36197663Y-25855998D01*
X36387537Y-25571831D01*
X36518325Y-25256081D01*
X36585000Y-24920883D01*
X36585000Y-24579117D01*
X36518325Y-24243919D01*
X36387537Y-23928169D01*
X36197663Y-23644002D01*
X35955998Y-23402337D01*
X35855221Y-23335000D01*
X126244779Y-23335000D01*
X126144002Y-23402337D01*
%TA.AperFunction,NonConductor*%
D11*
G36*
X126144002Y-23402337D02*
G01*
X125902337Y-23644002D01*
X125712463Y-23928169D01*
X125581675Y-24243919D01*
X125515000Y-24579117D01*
X125515000Y-24920883D01*
X125581675Y-25256081D01*
X125712463Y-25571831D01*
X125902337Y-25855998D01*
X126144002Y-26097663D01*
X126428169Y-26287537D01*
X126743919Y-26418325D01*
X127079117Y-26485000D01*
X127420883Y-26485000D01*
X127756081Y-26418325D01*
X128071831Y-26287537D01*
X128355998Y-26097663D01*
X128597663Y-25855998D01*
X128787537Y-25571831D01*
X128918325Y-25256081D01*
X128985000Y-24920883D01*
X128985000Y-24579117D01*
X128918325Y-24243919D01*
X128787537Y-23928169D01*
X128597663Y-23644002D01*
X128355998Y-23402337D01*
X128255221Y-23335000D01*
X173844779Y-23335000D01*
X173744002Y-23402337D01*
X173502337Y-23644002D01*
X173312463Y-23928169D01*
X173181675Y-24243919D01*
X173115000Y-24579117D01*
X173115000Y-24920883D01*
X173181675Y-25256081D01*
X173312463Y-25571831D01*
X173502337Y-25855998D01*
X173744002Y-26097663D01*
X174028169Y-26287537D01*
X174343919Y-26418325D01*
X174679117Y-26485000D01*
X175020883Y-26485000D01*
X175356081Y-26418325D01*
X175671831Y-26287537D01*
X175955998Y-26097663D01*
X176197663Y-25855998D01*
X176387537Y-25571831D01*
X176518325Y-25256081D01*
X176585000Y-24920883D01*
X176585000Y-24579117D01*
X176518325Y-24243919D01*
X176387537Y-23928169D01*
X176197663Y-23644002D01*
X175955998Y-23402337D01*
X175855221Y-23335000D01*
X221444779Y-23335000D01*
X221344002Y-23402337D01*
X221102337Y-23644002D01*
X220912463Y-23928169D01*
X220781675Y-24243919D01*
X220715000Y-24579117D01*
X220715000Y-24920883D01*
X220781675Y-25256081D01*
X220912463Y-25571831D01*
X221102337Y-25855998D01*
X221344002Y-26097663D01*
X221628169Y-26287537D01*
X221943919Y-26418325D01*
X222279117Y-26485000D01*
X222620883Y-26485000D01*
X222956081Y-26418325D01*
X223271831Y-26287537D01*
X223555998Y-26097663D01*
X223797663Y-25855998D01*
X223987537Y-25571831D01*
X224118325Y-25256081D01*
X224185000Y-24920883D01*
X224185000Y-24579117D01*
X224118325Y-24243919D01*
X223987537Y-23928169D01*
X223797663Y-23644002D01*
X223555998Y-23402337D01*
X223455221Y-23335000D01*
X298644779Y-23335000D01*
X298544002Y-23402337D01*
X298302337Y-23644002D01*
X298112463Y-23928169D01*
X297981675Y-24243919D01*
X297915000Y-24579117D01*
X297915000Y-24920883D01*
X297981675Y-25256081D01*
X298112463Y-25571831D01*
X298302337Y-25855998D01*
X298544002Y-26097663D01*
X298828169Y-26287537D01*
X299143919Y-26418325D01*
X299479117Y-26485000D01*
X299820883Y-26485000D01*
X300156081Y-26418325D01*
X300471831Y-26287537D01*
X300755998Y-26097663D01*
X300997663Y-25855998D01*
X301187537Y-25571831D01*
X301318325Y-25256081D01*
X301385000Y-24920883D01*
X301385000Y-24579117D01*
X301318325Y-24243919D01*
X301187537Y-23928169D01*
X300997663Y-23644002D01*
X300755998Y-23402337D01*
X300655221Y-23335000D01*
X313844779Y-23335000D01*
X313744002Y-23402337D01*
X313502337Y-23644002D01*
X313312463Y-23928169D01*
X313181675Y-24243919D01*
X313115000Y-24579117D01*
X313115000Y-24920883D01*
X313181675Y-25256081D01*
X313312463Y-25571831D01*
X313502337Y-25855998D01*
X313744002Y-26097663D01*
X314028169Y-26287537D01*
X314343919Y-26418325D01*
X314679117Y-26485000D01*
X315020883Y-26485000D01*
X315356081Y-26418325D01*
X315671831Y-26287537D01*
X315955998Y-26097663D01*
X316197663Y-25855998D01*
X316387537Y-25571831D01*
X316518325Y-25256081D01*
X316565001Y-25021425D01*
X316565001Y-28178575D01*
X316518325Y-27943919D01*
X316387537Y-27628169D01*
X316197663Y-27344002D01*
X315955998Y-27102337D01*
X315671831Y-26912463D01*
X315356081Y-26781675D01*
X315020883Y-26715000D01*
X314679117Y-26715000D01*
X314343919Y-26781675D01*
X314028169Y-26912463D01*
X313744002Y-27102337D01*
X313502337Y-27344002D01*
X313312463Y-27628169D01*
X313181675Y-27943919D01*
X313115000Y-28279117D01*
X313115000Y-28620883D01*
X313181675Y-28956081D01*
X313312463Y-29271831D01*
X313502337Y-29555998D01*
X313744002Y-29797663D01*
X314028169Y-29987537D01*
X314343919Y-30118325D01*
X314679117Y-30185000D01*
X315020883Y-30185000D01*
X315356081Y-30118325D01*
X315671831Y-29987537D01*
X315955998Y-29797663D01*
X316197663Y-29555998D01*
X316387537Y-29271831D01*
X316518325Y-28956081D01*
X316565001Y-28721425D01*
X316565001Y-48578574D01*
X316518325Y-48343919D01*
X316387537Y-48028169D01*
X316197663Y-47744002D01*
X315955998Y-47502337D01*
X315671831Y-47312463D01*
X315356081Y-47181675D01*
X315020883Y-47115000D01*
X314679117Y-47115000D01*
X314343919Y-47181675D01*
X314028169Y-47312463D01*
X313744002Y-47502337D01*
X313502337Y-47744002D01*
X313312463Y-48028169D01*
X313181675Y-48343919D01*
X313115000Y-48679117D01*
X313115000Y-49020883D01*
X313181675Y-49356081D01*
X313312463Y-49671831D01*
X313502337Y-49955998D01*
X313744002Y-50197663D01*
X314028169Y-50387537D01*
X314343919Y-50518325D01*
X314679117Y-50585000D01*
X315020883Y-50585000D01*
X315356081Y-50518325D01*
X315671831Y-50387537D01*
X315955998Y-50197663D01*
X316197663Y-49955998D01*
X316387537Y-49671831D01*
X316518325Y-49356081D01*
X316565001Y-49121426D01*
X316565000Y-78153719D01*
X316466678Y-77969770D01*
X316224872Y-77675128D01*
X315930230Y-77433322D01*
X315594075Y-77253644D01*
X315229326Y-77142998D01*
X314945055Y-77115000D01*
X313354945Y-77115000D01*
X313070674Y-77142998D01*
X312705925Y-77253644D01*
X312369770Y-77433322D01*
X312075128Y-77675128D01*
X311833322Y-77969770D01*
X311653644Y-78305925D01*
X311542998Y-78670674D01*
X311505638Y-79050000D01*
X311542998Y-79429326D01*
X311653644Y-79794075D01*
X311833322Y-80130230D01*
X312075128Y-80424872D01*
X312369770Y-80666678D01*
X312705925Y-80846356D01*
X313070674Y-80957002D01*
X313354945Y-80985000D01*
X314945055Y-80985000D01*
X315229326Y-80957002D01*
X315594075Y-80846356D01*
X315930230Y-80666678D01*
X316224872Y-80424872D01*
X316466678Y-80130230D01*
X316565000Y-79946281D01*
X316565000Y-114378570D01*
X316518325Y-114143919D01*
X316387537Y-113828169D01*
X316197663Y-113544002D01*
X315955998Y-113302337D01*
X315671831Y-113112463D01*
X315356081Y-112981675D01*
X315020883Y-112915000D01*
X314679117Y-112915000D01*
X314343919Y-112981675D01*
X314028169Y-113112463D01*
X313744002Y-113302337D01*
X313502337Y-113544002D01*
X313312463Y-113828169D01*
X313181675Y-114143919D01*
X313115000Y-114479117D01*
X313115000Y-114820883D01*
X313181675Y-115156081D01*
X313312463Y-115471831D01*
X313502337Y-115755998D01*
X313744002Y-115997663D01*
X314028169Y-116187537D01*
X314343919Y-116318325D01*
X314578570Y-116365000D01*
X299921430Y-116365000D01*
X300156081Y-116318325D01*
X300471831Y-116187537D01*
X300755998Y-115997663D01*
X300997663Y-115755998D01*
X301187537Y-115471831D01*
X301318325Y-115156081D01*
X301385000Y-114820883D01*
X301385000Y-114479117D01*
X301318325Y-114143919D01*
X301187537Y-113828169D01*
X300997663Y-113544002D01*
X300755998Y-113302337D01*
X300471831Y-113112463D01*
X300156081Y-112981675D01*
X299820883Y-112915000D01*
X299479117Y-112915000D01*
X299143919Y-112981675D01*
X298828169Y-113112463D01*
X298544002Y-113302337D01*
X298302337Y-113544002D01*
X298112463Y-113828169D01*
X297981675Y-114143919D01*
X297915000Y-114479117D01*
X297915000Y-114820883D01*
X297981675Y-115156081D01*
X298112463Y-115471831D01*
X298302337Y-115755998D01*
X298544002Y-115997663D01*
X298828169Y-116187537D01*
X299143919Y-116318325D01*
X299378570Y-116365000D01*
X215121430Y-116365000D01*
X215356081Y-116318325D01*
X215671831Y-116187537D01*
X215955998Y-115997663D01*
X216197663Y-115755998D01*
X216387537Y-115471831D01*
X216518325Y-115156081D01*
X216585000Y-114820883D01*
X216585000Y-114479117D01*
X216518325Y-114143919D01*
X216387537Y-113828169D01*
X216197663Y-113544002D01*
X215955998Y-113302337D01*
X215671831Y-113112463D01*
X215356081Y-112981675D01*
X215020883Y-112915000D01*
X214679117Y-112915000D01*
X214343919Y-112981675D01*
X214028169Y-113112463D01*
X213744002Y-113302337D01*
X213502337Y-113544002D01*
X213312463Y-113828169D01*
X213181675Y-114143919D01*
X213115000Y-114479117D01*
X213115000Y-114820883D01*
X213181675Y-115156081D01*
X213312463Y-115471831D01*
X213502337Y-115755998D01*
X213744002Y-115997663D01*
X214028169Y-116187537D01*
X214343919Y-116318325D01*
X214578570Y-116365000D01*
X175121430Y-116365000D01*
X175356081Y-116318325D01*
X175671831Y-116187537D01*
X175955998Y-115997663D01*
X176197663Y-115755998D01*
X176387537Y-115471831D01*
X176518325Y-115156081D01*
X176585000Y-114820883D01*
X176585000Y-114479117D01*
X176518325Y-114143919D01*
X176387537Y-113828169D01*
X176197663Y-113544002D01*
X175955998Y-113302337D01*
X175671831Y-113112463D01*
X175356081Y-112981675D01*
X175020883Y-112915000D01*
X174679117Y-112915000D01*
X174343919Y-112981675D01*
X174028169Y-113112463D01*
X173744002Y-113302337D01*
X173502337Y-113544002D01*
X173312463Y-113828169D01*
X173181675Y-114143919D01*
X173115000Y-114479117D01*
X173115000Y-114820883D01*
X173181675Y-115156081D01*
X173312463Y-115471831D01*
X173502337Y-115755998D01*
X173744002Y-115997663D01*
X174028169Y-116187537D01*
X174343919Y-116318325D01*
X174578570Y-116365000D01*
X117921430Y-116365000D01*
X118156081Y-116318325D01*
X118471831Y-116187537D01*
X118755998Y-115997663D01*
X118997663Y-115755998D01*
X119187537Y-115471831D01*
X119318325Y-115156081D01*
X119385000Y-114820883D01*
X119385000Y-114479117D01*
X119318325Y-114143919D01*
X119187537Y-113828169D01*
X118997663Y-113544002D01*
X118755998Y-113302337D01*
X118471831Y-113112463D01*
X118156081Y-112981675D01*
X117820883Y-112915000D01*
X117479117Y-112915000D01*
X117143919Y-112981675D01*
X116828169Y-113112463D01*
X116544002Y-113302337D01*
X116302337Y-113544002D01*
X116112463Y-113828169D01*
X115981675Y-114143919D01*
X115915000Y-114479117D01*
X115915000Y-114820883D01*
X115981675Y-115156081D01*
X116112463Y-115471831D01*
X116302337Y-115755998D01*
X116544002Y-115997663D01*
X116828169Y-116187537D01*
X117143919Y-116318325D01*
X117378570Y-116365000D01*
X50321430Y-116365000D01*
X50556081Y-116318325D01*
X50871831Y-116187537D01*
X51155998Y-115997663D01*
X51397663Y-115755998D01*
X51587537Y-115471831D01*
X51718325Y-115156081D01*
X51785000Y-114820883D01*
X51785000Y-114479117D01*
X51718325Y-114143919D01*
X51587537Y-113828169D01*
X51397663Y-113544002D01*
X51155998Y-113302337D01*
X50871831Y-113112463D01*
X50556081Y-112981675D01*
X50220883Y-112915000D01*
X49879117Y-112915000D01*
X49543919Y-112981675D01*
X49228169Y-113112463D01*
X48944002Y-113302337D01*
X48702337Y-113544002D01*
X48512463Y-113828169D01*
X48381675Y-114143919D01*
X48315000Y-114479117D01*
X48315000Y-114820883D01*
X48381675Y-115156081D01*
X48512463Y-115471831D01*
X48702337Y-115755998D01*
X48944002Y-115997663D01*
X49228169Y-116187537D01*
X49543919Y-116318325D01*
X49778570Y-116365000D01*
X35121430Y-116365000D01*
X35356081Y-116318325D01*
X35671831Y-116187537D01*
X35955998Y-115997663D01*
X36197663Y-115755998D01*
X36387537Y-115471831D01*
X36518325Y-115156081D01*
X36585000Y-114820883D01*
X36585000Y-114479117D01*
X36518325Y-114143919D01*
X36387537Y-113828169D01*
X36197663Y-113544002D01*
X35955998Y-113302337D01*
X35671831Y-113112463D01*
X35356081Y-112981675D01*
X35020883Y-112915000D01*
X34679117Y-112915000D01*
X34343919Y-112981675D01*
X34028169Y-113112463D01*
X33744002Y-113302337D01*
X33502337Y-113544002D01*
X33312463Y-113828169D01*
X33181675Y-114143919D01*
X33135000Y-114378570D01*
X33135000Y-107750000D01*
X219606122Y-107750000D01*
X219641552Y-108109723D01*
X219746479Y-108455622D01*
X219916871Y-108774404D01*
X220146181Y-109053819D01*
X220425596Y-109283129D01*
X220744378Y-109453521D01*
X221090277Y-109558448D01*
X221359861Y-109585000D01*
X224340139Y-109585000D01*
X224609723Y-109558448D01*
X224955622Y-109453521D01*
X225274404Y-109283129D01*
X225553819Y-109053819D01*
X225783129Y-108774404D01*
X225953521Y-108455622D01*
X226058448Y-108109723D01*
X226093878Y-107750000D01*
X226058448Y-107390277D01*
X225953521Y-107044378D01*
X225783129Y-106725596D01*
X225553819Y-106446181D01*
X225274404Y-106216871D01*
X224955622Y-106046479D01*
X224609723Y-105941552D01*
X224340139Y-105915000D01*
X221359861Y-105915000D01*
X221090277Y-105941552D01*
X220744378Y-106046479D01*
X220425596Y-106216871D01*
X220146181Y-106446181D01*
X219916871Y-106725596D01*
X219746479Y-107044378D01*
X219641552Y-107390277D01*
X219606122Y-107750000D01*
X33135000Y-107750000D01*
X33135000Y-79946282D01*
X33233322Y-80130230D01*
X33475128Y-80424872D01*
X33769770Y-80666678D01*
X34105925Y-80846356D01*
X34470674Y-80957002D01*
X34754945Y-80985000D01*
X36345055Y-80985000D01*
X36629326Y-80957002D01*
X36994075Y-80846356D01*
X37330230Y-80666678D01*
X37624872Y-80424872D01*
X37866678Y-80130230D01*
X38046356Y-79794075D01*
X38157002Y-79429326D01*
X38194362Y-79050000D01*
X38157002Y-78670674D01*
X38046356Y-78305925D01*
X37866678Y-77969770D01*
X37624872Y-77675128D01*
X37330230Y-77433322D01*
X36994075Y-77253644D01*
X36629326Y-77142998D01*
X36345055Y-77115000D01*
X34754945Y-77115000D01*
X34470674Y-77142998D01*
X34105925Y-77253644D01*
X33769770Y-77433322D01*
X33475128Y-77675128D01*
X33233322Y-77969770D01*
X33135000Y-78153718D01*
X33135000Y-69550000D01*
X157306122Y-69550000D01*
X157341552Y-69909723D01*
X157446479Y-70255622D01*
X157616871Y-70574404D01*
X157846181Y-70853819D01*
X158125596Y-71083129D01*
X158444378Y-71253521D01*
X158790277Y-71358448D01*
X159059861Y-71385000D01*
X162040139Y-71385000D01*
X162309723Y-71358448D01*
X162655622Y-71253521D01*
X162974404Y-71083129D01*
X163253819Y-70853819D01*
X163483129Y-70574404D01*
X163653521Y-70255622D01*
X163758448Y-69909723D01*
X163793878Y-69550000D01*
X163758448Y-69190277D01*
X163653521Y-68844378D01*
X163483129Y-68525596D01*
X163253819Y-68246181D01*
X162974404Y-68016871D01*
X162655622Y-67846479D01*
X162309723Y-67741552D01*
X162040139Y-67715000D01*
X159059861Y-67715000D01*
X158790277Y-67741552D01*
X158444378Y-67846479D01*
X158125596Y-68016871D01*
X157846181Y-68246181D01*
X157616871Y-68525596D01*
X157446479Y-68844378D01*
X157341552Y-69190277D01*
X157306122Y-69550000D01*
X33135000Y-69550000D01*
X33135000Y-63279117D01*
X173115000Y-63279117D01*
X173115000Y-63620883D01*
X173181675Y-63956081D01*
X173312463Y-64271831D01*
X173502337Y-64555998D01*
X173744002Y-64797663D01*
X174028169Y-64987537D01*
X174343919Y-65118325D01*
X174679117Y-65185000D01*
X175020883Y-65185000D01*
X175356081Y-65118325D01*
X175671831Y-64987537D01*
X175955998Y-64797663D01*
X176197663Y-64555998D01*
X176387537Y-64271831D01*
X176518325Y-63956081D01*
X176585000Y-63620883D01*
X176585000Y-63279117D01*
X176518325Y-62943919D01*
X176387537Y-62628169D01*
X176197663Y-62344002D01*
X175955998Y-62102337D01*
X175671831Y-61912463D01*
X175356081Y-61781675D01*
X175020883Y-61715000D01*
X174679117Y-61715000D01*
X174343919Y-61781675D01*
X174028169Y-61912463D01*
X173744002Y-62102337D01*
X173502337Y-62344002D01*
X173312463Y-62628169D01*
X173181675Y-62943919D01*
X173115000Y-63279117D01*
X33135000Y-63279117D01*
X33135000Y-49121430D01*
X33181675Y-49356081D01*
X33312463Y-49671831D01*
X33502337Y-49955998D01*
X33744002Y-50197663D01*
X34028169Y-50387537D01*
X34343919Y-50518325D01*
X34679117Y-50585000D01*
X35020883Y-50585000D01*
X35356081Y-50518325D01*
X35671831Y-50387537D01*
X35848833Y-50269268D01*
X55715000Y-50269268D01*
X55715000Y-50630732D01*
X55785518Y-50985250D01*
X55923844Y-51319199D01*
X56124662Y-51619744D01*
X56380256Y-51875338D01*
X56680801Y-52076156D01*
X57014750Y-52214482D01*
X57369268Y-52285000D01*
X57730732Y-52285000D01*
X58085250Y-52214482D01*
X58419199Y-52076156D01*
X58719744Y-51875338D01*
X58915965Y-51679117D01*
X272915000Y-51679117D01*
X272915000Y-52020883D01*
X272981675Y-52356081D01*
X273112463Y-52671831D01*
X273302337Y-52955998D01*
X273544002Y-53197663D01*
X273828169Y-53387537D01*
X274143919Y-53518325D01*
X274479117Y-53585000D01*
X274820883Y-53585000D01*
X275156081Y-53518325D01*
X275471831Y-53387537D01*
X275755998Y-53197663D01*
X275997663Y-52955998D01*
X276187537Y-52671831D01*
X276318325Y-52356081D01*
X276385000Y-52020883D01*
X276385000Y-51679117D01*
X276318325Y-51343919D01*
X276187537Y-51028169D01*
X275997663Y-50744002D01*
X275755998Y-50502337D01*
X275677671Y-50450000D01*
X289156122Y-50450000D01*
X289191552Y-50809723D01*
X289296479Y-51155622D01*
X289466871Y-51474404D01*
X289696181Y-51753819D01*
X289975596Y-51983129D01*
X290294378Y-52153521D01*
X290640277Y-52258448D01*
X290909861Y-52285000D01*
X293890139Y-52285000D01*
X294159723Y-52258448D01*
X294505622Y-52153521D01*
X294824404Y-51983129D01*
X295103819Y-51753819D01*
X295333129Y-51474404D01*
X295503521Y-51155622D01*
X295608448Y-50809723D01*
X295643878Y-50450000D01*
X295608448Y-50090277D01*
X295503521Y-49744378D01*
X295333129Y-49425596D01*
X295103819Y-49146181D01*
X294824404Y-48916871D01*
X294505622Y-48746479D01*
X294159723Y-48641552D01*
X293890139Y-48615000D01*
X290909861Y-48615000D01*
X290640277Y-48641552D01*
X290294378Y-48746479D01*
X289975596Y-48916871D01*
X289696181Y-49146181D01*
X289466871Y-49425596D01*
X289296479Y-49744378D01*
X289191552Y-50090277D01*
X289156122Y-50450000D01*
X275677671Y-50450000D01*
X275471831Y-50312463D01*
X275156081Y-50181675D01*
X274820883Y-50115000D01*
X274479117Y-50115000D01*
X274143919Y-50181675D01*
X273828169Y-50312463D01*
X273544002Y-50502337D01*
X273302337Y-50744002D01*
X273112463Y-51028169D01*
X272981675Y-51343919D01*
X272915000Y-51679117D01*
X58915965Y-51679117D01*
X58975338Y-51619744D01*
X59176156Y-51319199D01*
X59314482Y-50985250D01*
X59385000Y-50630732D01*
X59385000Y-50269268D01*
X59314482Y-49914750D01*
X59176156Y-49580801D01*
X58975338Y-49280256D01*
X58719744Y-49024662D01*
X58419199Y-48823844D01*
X58085250Y-48685518D01*
X58053070Y-48679117D01*
X173115000Y-48679117D01*
X173115000Y-49020883D01*
X173181675Y-49356081D01*
X173312463Y-49671831D01*
X173502337Y-49955998D01*
X173744002Y-50197663D01*
X174028169Y-50387537D01*
X174343919Y-50518325D01*
X174679117Y-50585000D01*
X175020883Y-50585000D01*
X175356081Y-50518325D01*
X175671831Y-50387537D01*
X175955998Y-50197663D01*
X176197663Y-49955998D01*
X176387537Y-49671831D01*
X176518325Y-49356081D01*
X176585000Y-49020883D01*
X176585000Y-48679117D01*
X176518325Y-48343919D01*
X176387537Y-48028169D01*
X176197663Y-47744002D01*
X175955998Y-47502337D01*
X175671831Y-47312463D01*
X175356081Y-47181675D01*
X175020883Y-47115000D01*
X174679117Y-47115000D01*
X174343919Y-47181675D01*
X174028169Y-47312463D01*
X173744002Y-47502337D01*
X173502337Y-47744002D01*
X173312463Y-48028169D01*
X173181675Y-48343919D01*
X173115000Y-48679117D01*
X58053070Y-48679117D01*
X57730732Y-48615000D01*
X57369268Y-48615000D01*
X57014750Y-48685518D01*
X56680801Y-48823844D01*
X56380256Y-49024662D01*
X56124662Y-49280256D01*
X55923844Y-49580801D01*
X55785518Y-49914750D01*
X55715000Y-50269268D01*
X35848833Y-50269268D01*
X35955998Y-50197663D01*
X36197663Y-49955998D01*
X36387537Y-49671831D01*
X36518325Y-49356081D01*
X36585000Y-49020883D01*
X36585000Y-48679117D01*
X36518325Y-48343919D01*
X36387537Y-48028169D01*
X36197663Y-47744002D01*
X35955998Y-47502337D01*
X35671831Y-47312463D01*
X35356081Y-47181675D01*
X35020883Y-47115000D01*
X34679117Y-47115000D01*
X34343919Y-47181675D01*
X34028169Y-47312463D01*
X33744002Y-47502337D01*
X33502337Y-47744002D01*
X33312463Y-48028169D01*
X33181675Y-48343919D01*
X33135000Y-48578570D01*
X33135000Y-28721430D01*
X33181675Y-28956081D01*
X33312463Y-29271831D01*
X33502337Y-29555998D01*
X33744002Y-29797663D01*
X34028169Y-29987537D01*
X34343919Y-30118325D01*
X34679117Y-30185000D01*
X35020883Y-30185000D01*
X35356081Y-30118325D01*
X35671831Y-29987537D01*
X35955998Y-29797663D01*
X36197663Y-29555998D01*
X36387537Y-29271831D01*
X36518325Y-28956081D01*
X36585000Y-28620883D01*
X36585000Y-28279117D01*
X125515000Y-28279117D01*
X125515000Y-28620883D01*
X125581675Y-28956081D01*
X125712463Y-29271831D01*
X125902337Y-29555998D01*
X126144002Y-29797663D01*
X126428169Y-29987537D01*
X126743919Y-30118325D01*
X127079117Y-30185000D01*
X127420883Y-30185000D01*
X127756081Y-30118325D01*
X128071831Y-29987537D01*
X128355998Y-29797663D01*
X128597663Y-29555998D01*
X128787537Y-29271831D01*
X128918325Y-28956081D01*
X128985000Y-28620883D01*
X128985000Y-28279117D01*
X173115000Y-28279117D01*
X173115000Y-28620883D01*
X173181675Y-28956081D01*
X173312463Y-29271831D01*
X173502337Y-29555998D01*
X173744002Y-29797663D01*
X174028169Y-29987537D01*
X174343919Y-30118325D01*
X174679117Y-30185000D01*
X175020883Y-30185000D01*
X175356081Y-30118325D01*
X175671831Y-29987537D01*
X175955998Y-29797663D01*
X176197663Y-29555998D01*
X176387537Y-29271831D01*
X176518325Y-28956081D01*
X176585000Y-28620883D01*
X176585000Y-28279117D01*
X220715000Y-28279117D01*
X220715000Y-28620883D01*
X220781675Y-28956081D01*
X220912463Y-29271831D01*
X221102337Y-29555998D01*
X221344002Y-29797663D01*
X221628169Y-29987537D01*
X221943919Y-30118325D01*
X222279117Y-30185000D01*
X222620883Y-30185000D01*
X222956081Y-30118325D01*
X223271831Y-29987537D01*
X223555998Y-29797663D01*
X223797663Y-29555998D01*
X223987537Y-29271831D01*
X224118325Y-28956081D01*
X224185000Y-28620883D01*
X224185000Y-28279117D01*
X224118325Y-27943919D01*
X223987537Y-27628169D01*
X223797663Y-27344002D01*
X223555998Y-27102337D01*
X223271831Y-26912463D01*
X222956081Y-26781675D01*
X222620883Y-26715000D01*
X222279117Y-26715000D01*
X221943919Y-26781675D01*
X221628169Y-26912463D01*
X221344002Y-27102337D01*
X221102337Y-27344002D01*
X220912463Y-27628169D01*
X220781675Y-27943919D01*
X220715000Y-28279117D01*
X176585000Y-28279117D01*
X176518325Y-27943919D01*
X176387537Y-27628169D01*
X176197663Y-27344002D01*
X175955998Y-27102337D01*
X175671831Y-26912463D01*
X175356081Y-26781675D01*
X175020883Y-26715000D01*
X174679117Y-26715000D01*
X174343919Y-26781675D01*
X174028169Y-26912463D01*
X173744002Y-27102337D01*
X173502337Y-27344002D01*
X173312463Y-27628169D01*
X173181675Y-27943919D01*
X173115000Y-28279117D01*
X128985000Y-28279117D01*
X128918325Y-27943919D01*
X128787537Y-27628169D01*
X128597663Y-27344002D01*
X128355998Y-27102337D01*
X128071831Y-26912463D01*
X127756081Y-26781675D01*
X127420883Y-26715000D01*
X127079117Y-26715000D01*
X126743919Y-26781675D01*
X126428169Y-26912463D01*
X126144002Y-27102337D01*
X125902337Y-27344002D01*
X125712463Y-27628169D01*
X125581675Y-27943919D01*
X125515000Y-28279117D01*
X36585000Y-28279117D01*
X36518325Y-27943919D01*
X36387537Y-27628169D01*
X36197663Y-27344002D01*
X35955998Y-27102337D01*
X35671831Y-26912463D01*
X35356081Y-26781675D01*
X35020883Y-26715000D01*
X34679117Y-26715000D01*
X34343919Y-26781675D01*
X34028169Y-26912463D01*
X33744002Y-27102337D01*
X33502337Y-27344002D01*
X33312463Y-27628169D01*
X33181675Y-27943919D01*
X33135000Y-28178570D01*
X33135000Y-25021430D01*
X33181675Y-25256081D01*
X33312463Y-25571831D01*
X33502337Y-25855998D01*
X33744002Y-26097663D01*
X34028169Y-26287537D01*
X34343919Y-26418325D01*
X34679117Y-26485000D01*
X35020883Y-26485000D01*
X35356081Y-26418325D01*
X35671831Y-26287537D01*
X35955998Y-26097663D01*
X36197663Y-25855998D01*
X36387537Y-25571831D01*
X36518325Y-25256081D01*
X36585000Y-24920883D01*
X36585000Y-24579117D01*
X36518325Y-24243919D01*
X36387537Y-23928169D01*
X36197663Y-23644002D01*
X35955998Y-23402337D01*
X35855221Y-23335000D01*
X126244779Y-23335000D01*
X126144002Y-23402337D01*
G37*
%TD.AperFunction*%
D10*
X33156236Y-24371811D02*
X33161832Y-24314740D01*
X33178704Y-24258857D01*
X33156236Y-24371811D01*
%TA.AperFunction,NonConductor*%
D11*
G36*
X33156236Y-24371811D02*
G01*
X33161832Y-24314740D01*
X33178704Y-24258857D01*
X33156236Y-24371811D01*
G37*
%TD.AperFunction*%
D10*
X316536496Y-24306447D02*
X316542919Y-24367561D01*
X316520456Y-24254631D01*
X316536496Y-24306447D01*
%TA.AperFunction,NonConductor*%
D11*
G36*
X316536496Y-24306447D02*
G01*
X316542919Y-24367561D01*
X316520456Y-24254631D01*
X316536496Y-24306447D01*
G37*
%TD.AperFunction*%
D10*
X316466592Y-24080624D02*
X316513635Y-24232595D01*
X316398597Y-23954870D01*
X316466592Y-24080624D01*
%TA.AperFunction,NonConductor*%
D11*
G36*
X316466592Y-24080624D02*
G01*
X316513635Y-24232595D01*
X316398597Y-23954870D01*
X316466592Y-24080624D01*
G37*
%TD.AperFunction*%
D10*
X33187350Y-24230217D02*
X33230158Y-24088432D01*
X33302209Y-23952924D01*
X33187350Y-24230217D01*
%TA.AperFunction,NonConductor*%
D11*
G36*
X33187350Y-24230217D02*
G01*
X33230158Y-24088432D01*
X33302209Y-23952924D01*
X33187350Y-24230217D01*
G37*
%TD.AperFunction*%
D10*
X33326705Y-23906855D02*
X33341137Y-23879712D01*
X33361630Y-23854585D01*
X33326705Y-23906855D01*
%TA.AperFunction,NonConductor*%
D11*
G36*
X33326705Y-23906855D02*
G01*
X33341137Y-23879712D01*
X33361630Y-23854585D01*
X33326705Y-23906855D01*
G37*
%TD.AperFunction*%
D10*
X316354162Y-23872688D02*
X316369836Y-23901677D01*
X316334945Y-23849459D01*
X316354162Y-23872688D01*
%TA.AperFunction,NonConductor*%
D11*
G36*
X316354162Y-23872688D02*
G01*
X316369836Y-23901677D01*
X316334945Y-23849459D01*
X316354162Y-23872688D01*
G37*
%TD.AperFunction*%
M02*
