<?xml version="1.0" standalone="no"?>
 <!DOCTYPE svg PUBLIC "-//W3C//DTD SVG 1.1//EN" 
 "http://www.w3.org/Graphics/SVG/1.1/DTD/svg11.dtd"> 
<svg
  xmlns:svg="http://www.w3.org/2000/svg"
  xmlns="http://www.w3.org/2000/svg"
  xmlns:xlink="http://www.w3.org/1999/xlink"
  version="1.1"
  width="29.949140cm" height="4.498340cm" viewBox="0 0 117910 17710">
<title>SVG Picture created as Unison_Plate_Mid-brd.svg date 2021/01/10 15:45:08 </title>
  <desc>Picture generated by PCBNEW </desc>
<g style="fill:#000000; fill-opacity:1;stroke:#000000; stroke-opacity:1;
stroke-linecap:round; stroke-linejoin:round;"
 transform="translate(0 0) scale(1 1)">
</g>
<g style="fill:#000000; fill-opacity:0.0; 
stroke:#000000; stroke-width:-0.000393701; stroke-opacity:1; 
stroke-linecap:round; stroke-linejoin:round;">
<g >
</g>
<g style="fill:#848400; fill-opacity:0.0; 
stroke:#848400; stroke-width:-0.000393701; stroke-opacity:1; 
stroke-linecap:round; stroke-linejoin:round;">
</g>
<g style="fill:#848400; fill-opacity:1.0; 
stroke:#848400; stroke-width:0; stroke-opacity:1; 
stroke-linecap:round; stroke-linejoin:round;">
<circle cx="58031.5" cy="14330.7" r="421.26" /> 
</g>
<g style="fill:#848400; fill-opacity:1.0; 
stroke:#848400; stroke-width:39.3701; stroke-opacity:1; 
stroke-linecap:round; stroke-linejoin:round;">
</g>
<g >
</g>
<g style="fill:#848400; fill-opacity:1.0; 
stroke:#848400; stroke-width:39.3701; stroke-opacity:1; 
stroke-linecap:round; stroke-linejoin:round;">
</g>
<g style="fill:#848400; fill-opacity:1.0; 
stroke:#848400; stroke-width:0; stroke-opacity:1; 
stroke-linecap:round; stroke-linejoin:round;">
<circle cx="58031.5" cy="4960.63" r="421.26" /> 
</g>
<g style="fill:#848400; fill-opacity:1.0; 
stroke:#848400; stroke-width:39.3701; stroke-opacity:1; 
stroke-linecap:round; stroke-linejoin:round;">
</g>
<g >
</g>
<g style="fill:#848400; fill-opacity:1.0; 
stroke:#848400; stroke-width:39.3701; stroke-opacity:1; 
stroke-linecap:round; stroke-linejoin:round;">
</g>
<g style="fill:#848400; fill-opacity:1.0; 
stroke:#848400; stroke-width:0; stroke-opacity:1; 
stroke-linecap:round; stroke-linejoin:round;">
<circle cx="113150" cy="14330.7" r="421.26" /> 
</g>
<g style="fill:#848400; fill-opacity:1.0; 
stroke:#848400; stroke-width:39.3701; stroke-opacity:1; 
stroke-linecap:round; stroke-linejoin:round;">
</g>
<g >
</g>
<g style="fill:#848400; fill-opacity:1.0; 
stroke:#848400; stroke-width:39.3701; stroke-opacity:1; 
stroke-linecap:round; stroke-linejoin:round;">
</g>
<g style="fill:#848400; fill-opacity:1.0; 
stroke:#848400; stroke-width:0; stroke-opacity:1; 
stroke-linecap:round; stroke-linejoin:round;">
<circle cx="113150" cy="4960.63" r="421.26" /> 
</g>
<g style="fill:#848400; fill-opacity:1.0; 
stroke:#848400; stroke-width:39.3701; stroke-opacity:1; 
stroke-linecap:round; stroke-linejoin:round;">
</g>
<g >
</g>
<g style="fill:#848400; fill-opacity:1.0; 
stroke:#848400; stroke-width:39.3701; stroke-opacity:1; 
stroke-linecap:round; stroke-linejoin:round;">
</g>
<g style="fill:#848400; fill-opacity:1.0; 
stroke:#848400; stroke-width:0; stroke-opacity:1; 
stroke-linecap:round; stroke-linejoin:round;">
<circle cx="2913.39" cy="4960.63" r="421.26" /> 
</g>
<g style="fill:#848400; fill-opacity:1.0; 
stroke:#848400; stroke-width:39.3701; stroke-opacity:1; 
stroke-linecap:round; stroke-linejoin:round;">
</g>
<g >
</g>
<g style="fill:#848400; fill-opacity:1.0; 
stroke:#848400; stroke-width:39.3701; stroke-opacity:1; 
stroke-linecap:round; stroke-linejoin:round;">
</g>
<g style="fill:#848400; fill-opacity:1.0; 
stroke:#848400; stroke-width:0; stroke-opacity:1; 
stroke-linecap:round; stroke-linejoin:round;">
<circle cx="2913.39" cy="14330.7" r="421.26" /> 
</g>
<g style="fill:#848400; fill-opacity:1.0; 
stroke:#848400; stroke-width:39.3701; stroke-opacity:1; 
stroke-linecap:round; stroke-linejoin:round;">
</g>
<g >
</g>
<g >
</g>
<g >
</g>
</g>
<g style="fill:#000000; fill-opacity:1.0; 
stroke:#000000; stroke-width:39.3701; stroke-opacity:1; 
stroke-linecap:round; stroke-linejoin:round;">
</g>
<g style="fill:#008400; fill-opacity:1.0; 
stroke:#008400; stroke-width:39.3701; stroke-opacity:1; 
stroke-linecap:round; stroke-linejoin:round;">
</g>
<g style="fill:#008400; fill-opacity:0.0; 
stroke:#008400; stroke-width:59.0551; stroke-opacity:1; 
stroke-linecap:round; stroke-linejoin:round;">
<circle cx="18346.5" cy="9606.3" r="1771.65" /> 
<circle cx="104331" cy="9606.3" r="1771.65" /> 
<circle cx="91102.4" cy="9606.3" r="1771.65" /> 
<circle cx="77874" cy="9606.3" r="1771.65" /> 
<circle cx="64645.7" cy="9606.3" r="1771.65" /> 
<path d="M18346 9409
L18346 9803
" />
<path d="M18149 9606
L18543 9606
" />
<path d="M104330 9409
L104330 9803
" />
<path d="M104133 9606
L104527 9606
" />
<path d="M91102 9409
L91102 9803
" />
<path d="M90905 9606
L91299 9606
" />
<path d="M77874 9409
L77874 9803
" />
<path d="M77677 9606
L78070 9606
" />
<path d="M64645 9409
L64645 9803
" />
<path d="M64448 9606
L64842 9606
" />
<g >
</g>
<g >
</g>
<g >
</g>
<g >
</g>
<g >
</g>
<g >
</g>
<g >
</g>
</g>
<g style="fill:#000000; fill-opacity:0.0; 
stroke:#000000; stroke-width:59.0551; stroke-opacity:1; 
stroke-linecap:round; stroke-linejoin:round;">
</g>
<g style="fill:#C2C200; fill-opacity:0.0; 
stroke:#C2C200; stroke-width:59.0551; stroke-opacity:1; 
stroke-linecap:round; stroke-linejoin:round;">
</g>
<g style="fill:#C2C200; fill-opacity:0.0; 
stroke:#C2C200; stroke-width:19.685; stroke-opacity:1; 
stroke-linecap:round; stroke-linejoin:round;">
<circle cx="5118.11" cy="9606.3" r="2362.2" /> 
<path d="M54724 12913
L28267 12913
" />
<path d="M28267 6299
L54724 6299
" />
<path d="M54724 6299
L54724 12913
" />
<path d="M28267 6299
L28267 12913
" />
<path d="M21102 12165
L15590 12165
" />
<path d="M21102 7047
L21102 12165
" />
<path d="M15590 7047
L21102 7047
" />
<path d="M15590 12165
L15590 7047
" />
<path d="M107086 12165
L101574 12165
" />
<path d="M107086 7047
L107086 12165
" />
<path d="M101574 7047
L107086 7047
" />
<path d="M101574 12165
L101574 7047
" />
<path d="M93858 12165
L88346 12165
" />
<path d="M93858 7047
L93858 12165
" />
<path d="M88346 7047
L93858 7047
" />
<path d="M88346 12165
L88346 7047
" />
<path d="M80629 12165
L75118 12165
" />
<path d="M80629 7047
L80629 12165
" />
<path d="M75118 7047
L80629 7047
" />
<path d="M75118 12165
L75118 7047
" />
<path d="M67401 12165
L61889 12165
" />
<path d="M67401 7047
L67401 12165
" />
<path d="M61889 7047
L67401 7047
" />
<path d="M61889 12165
L61889 7047
" />
<circle cx="100512" cy="6299.21" r="673.907" /> 
<circle cx="87283.5" cy="6299.21" r="673.907" /> 
<circle cx="74055.1" cy="6299.21" r="673.907" /> 
<circle cx="60826.8" cy="6299.21" r="673.907" /> 
<circle cx="27027.6" cy="6299.21" r="673.907" /> 
<circle cx="24960.6" cy="6299.21" r="673.907" /> 
<circle cx="22893.7" cy="6299.21" r="673.907" /> 
<circle cx="14527.6" cy="6299.21" r="673.907" /> 
<path d="M1929 14527
L1929 4763
" />
<path d="M113346 15314
L2716 15314
" />
<path d="M114133 4763
L114133 14527
" />
<path d="M2716 3976
L113346 3976
" />
<path d="M114134 4763.78 A787.402 787.402 0.0 0 0 113346 3976.38" />
<path d="M113346 15315 A787.402 787.402 0.0 0 0 114134 14527.6" />
<path d="M1929.13 14527.6 A787.402 787.402 0.0 0 0 2716.54 15315" />
<path d="M2716.54 3976.38 A787.402 787.402 0.0 0 0 1929.13 4763.78" />
<g >
</g>
<g >
</g>
<g >
</g>
<g >
</g>
<g >
</g>
<g >
</g>
<g >
</g>
</g> 
</svg>
