<?xml version="1.0" standalone="no"?>
 <!DOCTYPE svg PUBLIC "-//W3C//DTD SVG 1.1//EN" 
 "http://www.w3.org/Graphics/SVG/1.1/DTD/svg11.dtd"> 
<svg
  xmlns:svg="http://www.w3.org/2000/svg"
  xmlns="http://www.w3.org/2000/svg"
  xmlns:xlink="http://www.w3.org/1999/xlink"
  version="1.1"
  width="32.966660cm" height="16.383000cm" viewBox="0 0 129790 64500">
<title>SVG Picture created as Unison_Plate_Mid-brd.svg date 2021/01/31 13:13:14 </title>
  <desc>Picture generated by PCBNEW </desc>
<g style="fill:#000000; fill-opacity:1;stroke:#000000; stroke-opacity:1;
stroke-linecap:round; stroke-linejoin:round;"
 transform="translate(0 0) scale(1 1)">
</g>
<g style="fill:#000000; fill-opacity:0.0; 
stroke:#000000; stroke-width:-0.000393701; stroke-opacity:1; 
stroke-linecap:round; stroke-linejoin:round;">
</g>
<g style="fill:#008400; fill-opacity:0.0; 
stroke:#008400; stroke-width:-0.000393701; stroke-opacity:1; 
stroke-linecap:round; stroke-linejoin:round;">
</g>
<g style="fill:#008400; fill-opacity:0.0; 
stroke:#008400; stroke-width:59.0551; stroke-opacity:1; 
stroke-linecap:round; stroke-linejoin:round;">
<circle cx="8750" cy="10364.2" r="413.386" /> 
</g>
<g style="fill:#008400; fill-opacity:0.0; 
stroke:#008400; stroke-width:19.685; stroke-opacity:1; 
stroke-linecap:round; stroke-linejoin:round;">
<path d="M119183 4773
L8553 4773
" />
</g>
<g style="fill:#008400; fill-opacity:0.0; 
stroke:#008400; stroke-width:59.0551; stroke-opacity:1; 
stroke-linecap:round; stroke-linejoin:round;">
<circle cx="118986" cy="10364.2" r="413.386" /> 
<circle cx="63868.1" cy="10364.2" r="413.386" /> 
<circle cx="40206.7" cy="2332.68" r="590.551" /> 
<circle cx="20364.2" cy="2332.68" r="590.551" /> 
<circle cx="29222.4" cy="2332.68" r="590.551" /> 
<circle cx="79891.7" cy="2332.68" r="590.551" /> 
<circle cx="45128" cy="2332.68" r="413.386" /> 
<circle cx="82608.3" cy="2332.68" r="413.386" /> 
<circle cx="63868.1" cy="2332.68" r="413.386" /> 
<circle cx="93120.1" cy="2332.68" r="590.551" /> 
</g>
<g style="fill:#008400; fill-opacity:0.0; 
stroke:#008400; stroke-width:19.685; stroke-opacity:1; 
stroke-linecap:round; stroke-linejoin:round;">
<path d="M8553.15 9.84291 A787.402 787.402 0.0 0 0 7765.75 797.244" />
<path d="M7765.75 10442.9 A787.402 787.402 0.0 0 0 8553.15 11230.3" />
<path d="M119183 11230.3 A787.402 787.402 0.0 0 0 119970 10442.9" />
<path d="M119970 797.244 A787.402 787.402 0.0 0 0 119183 9.84291" />
<path d="M8553 9
L119183 9
" />
<path d="M119970 797
L119970 10442
" />
<path d="M119183 11230
L8553 11230
" />
<path d="M7765 10442
L7765 797
" />
</g>
<g style="fill:#008400; fill-opacity:0.0; 
stroke:#008400; stroke-width:59.0551; stroke-opacity:1; 
stroke-linecap:round; stroke-linejoin:round;">
<path d="M33946.9 8789.37 A314.961 314.961 0.0 0 0 34261.8 9104.33" />
<circle cx="118986" cy="2332.68" r="413.386" /> 
</g>
<g style="fill:#008400; fill-opacity:0.0; 
stroke:#008400; stroke-width:19.685; stroke-opacity:1; 
stroke-linecap:round; stroke-linejoin:round;">
<path d="M7765.75 3986.22 A787.402 787.402 0.0 0 0 8553.15 4773.62" />
</g>
<g style="fill:#008400; fill-opacity:0.0; 
stroke:#008400; stroke-width:59.0551; stroke-opacity:1; 
stroke-linecap:round; stroke-linejoin:round;">
<path d="M34261 9104
L60403 9104
" />
</g>
<g style="fill:#008400; fill-opacity:0.0; 
stroke:#008400; stroke-width:19.685; stroke-opacity:1; 
stroke-linecap:round; stroke-linejoin:round;">
<path d="M119183 4773.62 A787.402 787.402 0.0 0 0 119970 3986.22" />
</g>
<g style="fill:#008400; fill-opacity:0.0; 
stroke:#008400; stroke-width:59.0551; stroke-opacity:1; 
stroke-linecap:round; stroke-linejoin:round;">
<circle cx="8750" cy="2332.68" r="413.386" /> 
<circle cx="8750" cy="875.985" r="413.386" /> 
<path d="M60403.5 9104.33 A314.961 314.961 0.0 0 0 60718.5 8789.37" />
<circle cx="24183.1" cy="5639.76" r="2165.35" /> 
<circle cx="110167" cy="5639.76" r="2165.35" /> 
<circle cx="70482.3" cy="5639.76" r="2165.35" /> 
<circle cx="53435" cy="2332.68" r="590.551" /> 
<path d="M60718 8789
L60718 2490
" />
<path d="M60718.5 2490.16 A314.961 314.961 0.0 0 0 60403.5 2175.2" />
<path d="M34261.8 2175.2 A314.961 314.961 0.0 0 0 33946.9 2490.16" />
<circle cx="106348" cy="2332.68" r="590.551" /> 
<circle cx="63868.1" cy="875.985" r="413.386" /> 
<path d="M60403 2175
L34261 2175
" />
<path d="M33946 2490
L33946 8789
" />
<circle cx="66663.4" cy="2332.68" r="590.551" /> 
<circle cx="118986" cy="875.985" r="413.386" /> 
<circle cx="83710.6" cy="5639.76" r="2165.35" /> 
<circle cx="32372" cy="2332.68" r="590.551" /> 
<circle cx="96939" cy="5639.76" r="2165.35" /> 
<circle cx="20226.4" cy="26604.3" r="590.551" /> 
<circle cx="29084.6" cy="26604.3" r="590.551" /> 
<circle cx="32234.3" cy="26604.3" r="590.551" /> 
<circle cx="40068.9" cy="26604.3" r="590.551" /> 
<circle cx="53297.2" cy="26604.3" r="590.551" /> 
<circle cx="66525.6" cy="26604.3" r="590.551" /> 
<circle cx="79753.9" cy="26604.3" r="590.551" /> 
<circle cx="92982.3" cy="26604.3" r="590.551" /> 
</g>
<g style="fill:#008400; fill-opacity:0.0; 
stroke:#008400; stroke-width:19.685; stroke-opacity:1; 
stroke-linecap:round; stroke-linejoin:round;">
<path d="M7627.95 28257.9 A787.402 787.402 0.0 0 0 8415.35 29045.3" />
<path d="M119045 29045.3 A787.402 787.402 0.0 0 0 119833 28257.9" />
<path d="M119045 29045
L8415 29045
" />
</g>
<g style="fill:#008400; fill-opacity:0.0; 
stroke:#008400; stroke-width:59.0551; stroke-opacity:1; 
stroke-linecap:round; stroke-linejoin:round;">
<circle cx="63730.3" cy="34635.8" r="413.386" /> 
<circle cx="118848" cy="34635.8" r="413.386" /> 
<circle cx="118848" cy="26604.3" r="413.386" /> 
<circle cx="118848" cy="25147.6" r="413.386" /> 
<circle cx="82470.5" cy="26604.3" r="413.386" /> 
<circle cx="63730.3" cy="26604.3" r="413.386" /> 
<circle cx="63730.3" cy="25147.6" r="413.386" /> 
<circle cx="44990.2" cy="26604.3" r="413.386" /> 
<circle cx="8612.21" cy="34635.8" r="413.386" /> 
<circle cx="8612.21" cy="26604.3" r="413.386" /> 
<circle cx="8612.21" cy="25147.6" r="413.386" /> 
<circle cx="106211" cy="26604.3" r="590.551" /> 
<circle cx="110030" cy="29911.4" r="2165.35" /> 
<circle cx="96801.2" cy="29911.4" r="2165.35" /> 
<circle cx="83572.8" cy="29911.4" r="2165.35" /> 
<circle cx="70344.5" cy="29911.4" r="2165.35" /> 
<circle cx="24045.3" cy="29911.4" r="2165.35" /> 
<path d="M33809.1 33061 A314.961 314.961 0.0 0 0 34124 33376" />
<path d="M34124 26446.9 A314.961 314.961 0.0 0 0 33809.1 26761.8" />
<path d="M60580.7 26761.8 A314.961 314.961 0.0 0 0 60265.7 26446.9" />
<path d="M60265.7 33376 A314.961 314.961 0.0 0 0 60580.7 33061" />
<path d="M33809 26761
L33809 33061
" />
<path d="M60265 26446
L34124 26446
" />
<path d="M60580 33061
L60580 26761
" />
<path d="M34124 33375
L60265 33375
" />
</g>
<g style="fill:#008400; fill-opacity:0.0; 
stroke:#008400; stroke-width:19.685; stroke-opacity:1; 
stroke-linecap:round; stroke-linejoin:round;">
<path d="M8415.35 24281.5 A787.402 787.402 0.0 0 0 7627.95 25068.9" />
<path d="M7627.95 34714.6 A787.402 787.402 0.0 0 0 8415.35 35502" />
<path d="M119045 35502 A787.402 787.402 0.0 0 0 119833 34714.6" />
<path d="M119833 25068.9 A787.402 787.402 0.0 0 0 119045 24281.5" />
<path d="M8415 24281
L119045 24281
" />
<path d="M119832 25068
L119832 34714
" />
<path d="M119045 35501
L8415 35501
" />
<path d="M7627 34714
L7627 25068
" />
<g >
</g>
<g >
</g>
<g >
</g>
<g >
</g>
<g >
</g>
<g >
</g>
<g >
</g>
<g >
</g>
<g >
</g>
<g >
</g>
<g >
</g>
<g >
</g>
<g >
</g>
<g >
</g>
<g >
</g>
<g >
</g>
<g >
</g>
<g >
</g>
<g >
</g>
<g >
</g>
<g >
</g>
<g >
</g>
<g >
</g>
<g >
</g>
<g >
</g>
<g >
</g>
<g >
</g>
<g >
</g>
<g >
</g>
<g >
</g>
<g >
</g>
<g >
</g>
<g >
</g>
<g >
</g>
<g >
</g>
<g >
</g>
<g >
</g>
<g >
</g>
<g >
</g>
<g >
</g>
<g >
</g>
<g >
</g>
<g >
</g>
<g >
</g>
<g >
</g>
<g >
</g>
<g >
</g>
<g >
</g>
<g >
</g>
<g >
</g>
<g >
</g>
<g >
</g>
<g >
</g>
<g >
</g>
<g >
</g>
<g >
</g>
<g >
</g>
<g >
</g>
<g >
</g>
<g >
</g>
<g >
</g>
<g >
</g>
<g >
</g>
<g >
</g>
<g >
</g>
<g >
</g>
<g >
</g>
<g >
</g>
<g >
</g>
<g >
</g>
<g >
</g>
<g >
</g>
<g >
</g>
<g >
</g>
<g >
</g>
<g >
</g>
<g >
</g>
<g >
</g>
<g >
</g>
<g >
</g>
<g >
</g>
<g >
</g>
<g >
</g>
<g >
</g>
<g >
</g>
<g >
</g>
<g >
</g>
<g >
</g>
<g >
</g>
<g >
</g>
<g >
</g>
<g >
</g>
<g >
</g>
<g >
</g>
<g >
</g>
<g >
</g>
<g >
</g>
<g >
</g>
<g >
</g>
<g >
</g>
<g >
</g>
<g >
</g>
<g >
</g>
<g >
</g>
<g >
</g>
<g >
</g>
<g >
</g>
<g >
</g>
<g >
</g>
<g >
</g>
<g >
</g>
<g >
</g>
<g >
</g>
<g >
</g>
<g >
</g>
<g >
</g>
<g >
</g>
<g >
</g>
<g >
</g>
<g >
</g>
<g >
</g>
<g >
</g>
<g >
</g>
<g >
</g>
<g >
</g>
<g >
</g>
<g >
</g>
<g >
</g>
<g >
</g>
<g >
</g>
<g >
</g>
<g >
</g>
<g >
</g>
<g >
</g>
<g >
</g>
<g >
</g>
<g >
</g>
<g >
</g>
<g >
</g>
<g >
</g>
<g >
</g>
<g >
</g>
<g >
</g>
<g >
</g>
<g >
</g>
<g >
</g>
<g >
</g>
<g >
</g>
<g >
</g>
<g >
</g>
<g >
</g>
<g >
</g>
<g >
</g>
<g >
</g>
<g >
</g>
<g >
</g>
<g >
</g>
<g >
</g>
<g >
</g>
<g >
</g>
<g >
</g>
<g >
</g>
<g >
</g>
<g >
</g>
<g >
</g>
<g >
</g>
<g >
</g>
<g >
</g>
<g >
</g>
<g >
</g>
<g >
</g>
<g >
</g>
<g >
</g>
<g >
</g>
<g >
</g>
<g >
</g>
<g >
</g>
<g >
</g>
<g >
</g>
<g >
</g>
<g >
</g>
<g >
</g>
<g >
</g>
<g >
</g>
<g >
</g>
<g >
</g>
<g >
</g>
<g >
</g>
<g >
</g>
<g >
</g>
<g >
</g>
<g >
</g>
<g >
</g>
<g >
</g>
<g >
</g>
<g >
</g>
<g >
</g>
<g >
</g>
<g >
</g>
<g >
</g>
<g >
</g>
<g >
</g>
<g >
</g>
<g >
</g>
<g >
</g>
<g >
</g>
<g >
</g>
<g >
</g>
<g >
</g>
<g >
</g>
<g >
</g>
<g >
</g>
<g >
</g>
<g >
</g>
<g >
</g>
<g >
</g>
<g >
</g>
<g >
</g>
<g >
</g>
<g >
</g>
<g >
</g>
<g >
</g>
<g >
</g>
<g >
</g>
<g >
</g>
<g >
</g>
<g >
</g>
<g >
</g>
<g >
</g>
<g >
</g>
<g >
</g>
<g >
</g>
<g >
</g>
<g >
</g>
<g >
</g>
<g >
</g>
<g >
</g>
<g >
</g>
<g >
</g>
<g >
</g>
<g >
</g>
<g >
</g>
<g >
</g>
<g >
</g>
<g >
</g>
<g >
</g>
<g >
</g>
<g >
</g>
<g >
</g>
<g >
</g>
<g >
</g>
<g >
</g>
<g >
</g>
<g >
</g>
<g >
</g>
<g >
</g>
<g >
</g>
<g >
</g>
<g >
</g>
<g >
</g>
<g >
</g>
<g >
</g>
<g >
</g>
<g >
</g>
<g >
</g>
<g >
</g>
<g >
</g>
<g >
</g>
<g >
</g>
<g >
</g>
<g >
</g>
<g >
</g>
<g >
</g>
<g >
</g>
<g >
</g>
<g >
</g>
<g >
</g>
<g >
</g>
<g >
</g>
<g >
</g>
<g >
</g>
<g >
</g>
<g >
</g>
<g >
</g>
<g >
</g>
</g> 
</svg>
