%TF.GenerationSoftware,KiCad,Pcbnew,(5.1.9-0-10_14)*%
%TF.CreationDate,2021-01-31T13:09:17+09:00*%
%TF.ProjectId,Unison_Plate_Mid,556e6973-6f6e-45f5-906c-6174655f4d69,rev?*%
%TF.SameCoordinates,Original*%
%TF.FileFunction,Legend,Bot*%
%TF.FilePolarity,Positive*%
%FSLAX46Y46*%
G04 Gerber Fmt 4.6, Leading zero omitted, Abs format (unit mm)*
G04 Created by KiCad (PCBNEW (5.1.9-0-10_14)) date 2021-01-31 13:09:17*
%MOMM*%
%LPD*%
G01*
G04 APERTURE LIST*
%ADD10C,0.150000*%
%ADD11C,0.200000*%
G04 APERTURE END LIST*
D10*
X296819047Y-42352380D02*
X296819047Y-43066666D01*
X296866666Y-43209523D01*
X296961904Y-43304761D01*
X297104761Y-43352380D01*
X297200000Y-43352380D01*
X295866666Y-43352380D02*
X296342857Y-43352380D01*
X296342857Y-42352380D01*
X294961904Y-43257142D02*
X295009523Y-43304761D01*
X295152380Y-43352380D01*
X295247619Y-43352380D01*
X295390476Y-43304761D01*
X295485714Y-43209523D01*
X295533333Y-43114285D01*
X295580952Y-42923809D01*
X295580952Y-42780952D01*
X295533333Y-42590476D01*
X295485714Y-42495238D01*
X295390476Y-42400000D01*
X295247619Y-42352380D01*
X295152380Y-42352380D01*
X295009523Y-42400000D01*
X294961904Y-42447619D01*
X294247619Y-42352380D02*
X294247619Y-43066666D01*
X294295238Y-43209523D01*
X294390476Y-43304761D01*
X294533333Y-43352380D01*
X294628571Y-43352380D01*
X293295238Y-43352380D02*
X293771428Y-43352380D01*
X293771428Y-42352380D01*
X292390476Y-43257142D02*
X292438095Y-43304761D01*
X292580952Y-43352380D01*
X292676190Y-43352380D01*
X292819047Y-43304761D01*
X292914285Y-43209523D01*
X292961904Y-43114285D01*
X293009523Y-42923809D01*
X293009523Y-42780952D01*
X292961904Y-42590476D01*
X292914285Y-42495238D01*
X292819047Y-42400000D01*
X292676190Y-42352380D01*
X292580952Y-42352380D01*
X292438095Y-42400000D01*
X292390476Y-42447619D01*
X291676190Y-42352380D02*
X291676190Y-43066666D01*
X291723809Y-43209523D01*
X291819047Y-43304761D01*
X291961904Y-43352380D01*
X292057142Y-43352380D01*
X290723809Y-43352380D02*
X291200000Y-43352380D01*
X291200000Y-42352380D01*
X289819047Y-43257142D02*
X289866666Y-43304761D01*
X290009523Y-43352380D01*
X290104761Y-43352380D01*
X290247619Y-43304761D01*
X290342857Y-43209523D01*
X290390476Y-43114285D01*
X290438095Y-42923809D01*
X290438095Y-42780952D01*
X290390476Y-42590476D01*
X290342857Y-42495238D01*
X290247619Y-42400000D01*
X290104761Y-42352380D01*
X290009523Y-42352380D01*
X289866666Y-42400000D01*
X289819047Y-42447619D01*
X289104761Y-42352380D02*
X289104761Y-43066666D01*
X289152380Y-43209523D01*
X289247619Y-43304761D01*
X289390476Y-43352380D01*
X289485714Y-43352380D01*
X288152380Y-43352380D02*
X288628571Y-43352380D01*
X288628571Y-42352380D01*
X287247619Y-43257142D02*
X287295238Y-43304761D01*
X287438095Y-43352380D01*
X287533333Y-43352380D01*
X287676190Y-43304761D01*
X287771428Y-43209523D01*
X287819047Y-43114285D01*
X287866666Y-42923809D01*
X287866666Y-42780952D01*
X287819047Y-42590476D01*
X287771428Y-42495238D01*
X287676190Y-42400000D01*
X287533333Y-42352380D01*
X287438095Y-42352380D01*
X287295238Y-42400000D01*
X287247619Y-42447619D01*
D11*
X297012857Y-18853571D02*
X297012857Y-20067857D01*
X296941428Y-20210714D01*
X296870000Y-20282142D01*
X296727142Y-20353571D01*
X296441428Y-20353571D01*
X296298571Y-20282142D01*
X296227142Y-20210714D01*
X296155714Y-20067857D01*
X296155714Y-18853571D01*
X295441428Y-19353571D02*
X295441428Y-20353571D01*
X295441428Y-19496428D02*
X295370000Y-19425000D01*
X295227142Y-19353571D01*
X295012857Y-19353571D01*
X294870000Y-19425000D01*
X294798571Y-19567857D01*
X294798571Y-20353571D01*
X294084285Y-20353571D02*
X294084285Y-19353571D01*
X294084285Y-18853571D02*
X294155714Y-18925000D01*
X294084285Y-18996428D01*
X294012857Y-18925000D01*
X294084285Y-18853571D01*
X294084285Y-18996428D01*
X293441428Y-20282142D02*
X293298571Y-20353571D01*
X293012857Y-20353571D01*
X292870000Y-20282142D01*
X292798571Y-20139285D01*
X292798571Y-20067857D01*
X292870000Y-19925000D01*
X293012857Y-19853571D01*
X293227142Y-19853571D01*
X293370000Y-19782142D01*
X293441428Y-19639285D01*
X293441428Y-19567857D01*
X293370000Y-19425000D01*
X293227142Y-19353571D01*
X293012857Y-19353571D01*
X292870000Y-19425000D01*
X291941428Y-20353571D02*
X292084285Y-20282142D01*
X292155714Y-20210714D01*
X292227142Y-20067857D01*
X292227142Y-19639285D01*
X292155714Y-19496428D01*
X292084285Y-19425000D01*
X291941428Y-19353571D01*
X291727142Y-19353571D01*
X291584285Y-19425000D01*
X291512857Y-19496428D01*
X291441428Y-19639285D01*
X291441428Y-20067857D01*
X291512857Y-20210714D01*
X291584285Y-20282142D01*
X291727142Y-20353571D01*
X291941428Y-20353571D01*
X290798571Y-19353571D02*
X290798571Y-20353571D01*
X290798571Y-19496428D02*
X290727142Y-19425000D01*
X290584285Y-19353571D01*
X290370000Y-19353571D01*
X290227142Y-19425000D01*
X290155714Y-19567857D01*
X290155714Y-20353571D01*
X288298571Y-20353571D02*
X288298571Y-18853571D01*
X287798571Y-19925000D01*
X287298571Y-18853571D01*
X287298571Y-20353571D01*
X286584285Y-20353571D02*
X286584285Y-19353571D01*
X286584285Y-18853571D02*
X286655714Y-18925000D01*
X286584285Y-18996428D01*
X286512857Y-18925000D01*
X286584285Y-18853571D01*
X286584285Y-18996428D01*
X285227142Y-20353571D02*
X285227142Y-18853571D01*
X285227142Y-20282142D02*
X285370000Y-20353571D01*
X285655714Y-20353571D01*
X285798571Y-20282142D01*
X285870000Y-20210714D01*
X285941428Y-20067857D01*
X285941428Y-19639285D01*
X285870000Y-19496428D01*
X285798571Y-19425000D01*
X285655714Y-19353571D01*
X285370000Y-19353571D01*
X285227142Y-19425000D01*
X283370000Y-20353571D02*
X283370000Y-18853571D01*
X282798571Y-18853571D01*
X282655714Y-18925000D01*
X282584285Y-18996428D01*
X282512857Y-19139285D01*
X282512857Y-19353571D01*
X282584285Y-19496428D01*
X282655714Y-19567857D01*
X282798571Y-19639285D01*
X283370000Y-19639285D01*
X281655714Y-20353571D02*
X281798571Y-20282142D01*
X281870000Y-20139285D01*
X281870000Y-18853571D01*
X280441428Y-20353571D02*
X280441428Y-19567857D01*
X280512857Y-19425000D01*
X280655714Y-19353571D01*
X280941428Y-19353571D01*
X281084285Y-19425000D01*
X280441428Y-20282142D02*
X280584285Y-20353571D01*
X280941428Y-20353571D01*
X281084285Y-20282142D01*
X281155714Y-20139285D01*
X281155714Y-19996428D01*
X281084285Y-19853571D01*
X280941428Y-19782142D01*
X280584285Y-19782142D01*
X280441428Y-19710714D01*
X279941428Y-19353571D02*
X279370000Y-19353571D01*
X279727142Y-18853571D02*
X279727142Y-20139285D01*
X279655714Y-20282142D01*
X279512857Y-20353571D01*
X279370000Y-20353571D01*
X278298571Y-20282142D02*
X278441428Y-20353571D01*
X278727142Y-20353571D01*
X278870000Y-20282142D01*
X278941428Y-20139285D01*
X278941428Y-19567857D01*
X278870000Y-19425000D01*
X278727142Y-19353571D01*
X278441428Y-19353571D01*
X278298571Y-19425000D01*
X278227142Y-19567857D01*
X278227142Y-19710714D01*
X278941428Y-19853571D01*
X277155714Y-20925000D02*
X277227142Y-20853571D01*
X277370000Y-20639285D01*
X277441428Y-20496428D01*
X277512857Y-20282142D01*
X277584285Y-19925000D01*
X277584285Y-19639285D01*
X277512857Y-19282142D01*
X277441428Y-19067857D01*
X277370000Y-18925000D01*
X277227142Y-18710714D01*
X277155714Y-18639285D01*
X276655714Y-19925000D02*
X275941428Y-19925000D01*
X276798571Y-20353571D02*
X276298571Y-18853571D01*
X275798571Y-20353571D01*
X275441428Y-20925000D02*
X275370000Y-20853571D01*
X275227142Y-20639285D01*
X275155714Y-20496428D01*
X275084285Y-20282142D01*
X275012857Y-19925000D01*
X275012857Y-19639285D01*
X275084285Y-19282142D01*
X275155714Y-19067857D01*
X275227142Y-18925000D01*
X275370000Y-18710714D01*
X275441428Y-18639285D01*
X273298571Y-19353571D02*
X272941428Y-20353571D01*
X272584285Y-19353571D01*
X271727142Y-18853571D02*
X271584285Y-18853571D01*
X271441428Y-18925000D01*
X271370000Y-18996428D01*
X271298571Y-19139285D01*
X271227142Y-19425000D01*
X271227142Y-19782142D01*
X271298571Y-20067857D01*
X271370000Y-20210714D01*
X271441428Y-20282142D01*
X271584285Y-20353571D01*
X271727142Y-20353571D01*
X271870000Y-20282142D01*
X271941428Y-20210714D01*
X272012857Y-20067857D01*
X272084285Y-19782142D01*
X272084285Y-19425000D01*
X272012857Y-19139285D01*
X271941428Y-18996428D01*
X271870000Y-18925000D01*
X271727142Y-18853571D01*
X269941428Y-19353571D02*
X269941428Y-20353571D01*
X270298571Y-18782142D02*
X270655714Y-19853571D01*
X269727142Y-19853571D01*
X296084285Y-22089285D02*
X296155714Y-22017857D01*
X296298571Y-21946428D01*
X296441428Y-21946428D01*
X296584285Y-22017857D01*
X296655714Y-22089285D01*
X296727142Y-22232142D01*
X296727142Y-22375000D01*
X296655714Y-22517857D01*
X296584285Y-22589285D01*
X296441428Y-22660714D01*
X296298571Y-22660714D01*
X296155714Y-22589285D01*
X296084285Y-22517857D01*
X296084285Y-21946428D02*
X296084285Y-22517857D01*
X296012857Y-22589285D01*
X295941428Y-22589285D01*
X295798571Y-22517857D01*
X295727142Y-22375000D01*
X295727142Y-22017857D01*
X295870000Y-21803571D01*
X296084285Y-21660714D01*
X296370000Y-21589285D01*
X296655714Y-21660714D01*
X296870000Y-21803571D01*
X297012857Y-22017857D01*
X297084285Y-22303571D01*
X297012857Y-22589285D01*
X296870000Y-22803571D01*
X296655714Y-22946428D01*
X296370000Y-23017857D01*
X296084285Y-22946428D01*
X295870000Y-22803571D01*
X295084285Y-21803571D02*
X295084285Y-23089285D01*
X295155714Y-23232142D01*
X295298571Y-23303571D01*
X295370000Y-23303571D01*
X295084285Y-21303571D02*
X295155714Y-21375000D01*
X295084285Y-21446428D01*
X295012857Y-21375000D01*
X295084285Y-21303571D01*
X295084285Y-21446428D01*
X294370000Y-21803571D02*
X294370000Y-23303571D01*
X294370000Y-21875000D02*
X294227142Y-21803571D01*
X293941428Y-21803571D01*
X293798571Y-21875000D01*
X293727142Y-21946428D01*
X293655714Y-22089285D01*
X293655714Y-22517857D01*
X293727142Y-22660714D01*
X293798571Y-22732142D01*
X293941428Y-22803571D01*
X294227142Y-22803571D01*
X294370000Y-22732142D01*
X293084285Y-22732142D02*
X292941428Y-22803571D01*
X292655714Y-22803571D01*
X292512857Y-22732142D01*
X292441428Y-22589285D01*
X292441428Y-22517857D01*
X292512857Y-22375000D01*
X292655714Y-22303571D01*
X292870000Y-22303571D01*
X293012857Y-22232142D01*
X293084285Y-22089285D01*
X293084285Y-22017857D01*
X293012857Y-21875000D01*
X292870000Y-21803571D01*
X292655714Y-21803571D01*
X292512857Y-21875000D01*
X291798571Y-22803571D02*
X291798571Y-21303571D01*
X291655714Y-22232142D02*
X291227142Y-22803571D01*
X291227142Y-21803571D02*
X291798571Y-22375000D01*
X290012857Y-22732142D02*
X290155714Y-22803571D01*
X290441428Y-22803571D01*
X290584285Y-22732142D01*
X290655714Y-22589285D01*
X290655714Y-22017857D01*
X290584285Y-21875000D01*
X290441428Y-21803571D01*
X290155714Y-21803571D01*
X290012857Y-21875000D01*
X289941428Y-22017857D01*
X289941428Y-22160714D01*
X290655714Y-22303571D01*
X289298571Y-21803571D02*
X289298571Y-22803571D01*
X289298571Y-21946428D02*
X289227142Y-21875000D01*
X289084285Y-21803571D01*
X288870000Y-21803571D01*
X288727142Y-21875000D01*
X288655714Y-22017857D01*
X288655714Y-22803571D01*
X287941428Y-21803571D02*
X287941428Y-22803571D01*
X287941428Y-21946428D02*
X287870000Y-21875000D01*
X287727142Y-21803571D01*
X287512857Y-21803571D01*
X287370000Y-21875000D01*
X287298571Y-22017857D01*
X287298571Y-22803571D01*
M02*
