%TF.GenerationSoftware,KiCad,Pcbnew,(5.1.9-0-10_14)*%
%TF.CreationDate,2021-01-10T14:49:55+09:00*%
%TF.ProjectId,Unison_Plate_Mid,556e6973-6f6e-45f5-906c-6174655f4d69,rev?*%
%TF.SameCoordinates,Original*%
%TF.FileFunction,Copper,L1,Top*%
%TF.FilePolarity,Positive*%
%FSLAX46Y46*%
G04 Gerber Fmt 4.6, Leading zero omitted, Abs format (unit mm)*
G04 Created by KiCad (PCBNEW (5.1.9-0-10_14)) date 2021-01-10 14:49:55*
%MOMM*%
%LPD*%
G01*
G04 APERTURE LIST*
%TA.AperFunction,NonConductor*%
%ADD10C,0.254000*%
%TD*%
%TA.AperFunction,NonConductor*%
%ADD11C,0.100000*%
%TD*%
G04 APERTURE END LIST*
D10*
X300259659Y-16988625D02*
X300509429Y-17064035D01*
X300739792Y-17186522D01*
X300941980Y-17351422D01*
X301108286Y-17552450D01*
X301232378Y-17781954D01*
X301309531Y-18031195D01*
X301340000Y-18321089D01*
X301340001Y-43067711D01*
X301311375Y-43359660D01*
X301235965Y-43609429D01*
X301113477Y-43839794D01*
X300948579Y-44041979D01*
X300747546Y-44208288D01*
X300518046Y-44332378D01*
X300268805Y-44409531D01*
X299978911Y-44440000D01*
X19032279Y-44440000D01*
X18740340Y-44411375D01*
X18490571Y-44335965D01*
X18260206Y-44213477D01*
X18058021Y-44048579D01*
X17891712Y-43847546D01*
X17767622Y-43618046D01*
X17690469Y-43368805D01*
X17660000Y-43078911D01*
X17660000Y-42432072D01*
X17795000Y-42432072D01*
X17795000Y-42767928D01*
X17860522Y-43097330D01*
X17989048Y-43407620D01*
X18175640Y-43686874D01*
X18413126Y-43924360D01*
X18692380Y-44110952D01*
X19002670Y-44239478D01*
X19332072Y-44305000D01*
X19667928Y-44305000D01*
X19997330Y-44239478D01*
X20307620Y-44110952D01*
X20586874Y-43924360D01*
X20824360Y-43686874D01*
X21010952Y-43407620D01*
X21139478Y-43097330D01*
X21205000Y-42767928D01*
X21205000Y-42432072D01*
X157795000Y-42432072D01*
X157795000Y-42767928D01*
X157860522Y-43097330D01*
X157989048Y-43407620D01*
X158175640Y-43686874D01*
X158413126Y-43924360D01*
X158692380Y-44110952D01*
X159002670Y-44239478D01*
X159332072Y-44305000D01*
X159667928Y-44305000D01*
X159997330Y-44239478D01*
X160307620Y-44110952D01*
X160586874Y-43924360D01*
X160824360Y-43686874D01*
X161010952Y-43407620D01*
X161139478Y-43097330D01*
X161205000Y-42767928D01*
X161205000Y-42432072D01*
X297795000Y-42432072D01*
X297795000Y-42767928D01*
X297860522Y-43097330D01*
X297989048Y-43407620D01*
X298175640Y-43686874D01*
X298413126Y-43924360D01*
X298692380Y-44110952D01*
X299002670Y-44239478D01*
X299332072Y-44305000D01*
X299667928Y-44305000D01*
X299997330Y-44239478D01*
X300307620Y-44110952D01*
X300586874Y-43924360D01*
X300824360Y-43686874D01*
X301010952Y-43407620D01*
X301139478Y-43097330D01*
X301205000Y-42767928D01*
X301205000Y-42432072D01*
X301139478Y-42102670D01*
X301010952Y-41792380D01*
X300824360Y-41513126D01*
X300586874Y-41275640D01*
X300307620Y-41089048D01*
X299997330Y-40960522D01*
X299667928Y-40895000D01*
X299332072Y-40895000D01*
X299002670Y-40960522D01*
X298692380Y-41089048D01*
X298413126Y-41275640D01*
X298175640Y-41513126D01*
X297989048Y-41792380D01*
X297860522Y-42102670D01*
X297795000Y-42432072D01*
X161205000Y-42432072D01*
X161139478Y-42102670D01*
X161010952Y-41792380D01*
X160824360Y-41513126D01*
X160586874Y-41275640D01*
X160307620Y-41089048D01*
X159997330Y-40960522D01*
X159667928Y-40895000D01*
X159332072Y-40895000D01*
X159002670Y-40960522D01*
X158692380Y-41089048D01*
X158413126Y-41275640D01*
X158175640Y-41513126D01*
X157989048Y-41792380D01*
X157860522Y-42102670D01*
X157795000Y-42432072D01*
X21205000Y-42432072D01*
X21139478Y-42102670D01*
X21010952Y-41792380D01*
X20824360Y-41513126D01*
X20586874Y-41275640D01*
X20307620Y-41089048D01*
X19997330Y-40960522D01*
X19667928Y-40895000D01*
X19332072Y-40895000D01*
X19002670Y-40960522D01*
X18692380Y-41089048D01*
X18413126Y-41275640D01*
X18175640Y-41513126D01*
X17989048Y-41792380D01*
X17860522Y-42102670D01*
X17795000Y-42432072D01*
X17660000Y-42432072D01*
X17660000Y-30048370D01*
X18442816Y-30048370D01*
X18442816Y-31151630D01*
X18624406Y-32239843D01*
X18982634Y-33283325D01*
X19507728Y-34253614D01*
X20185364Y-35124241D01*
X20997059Y-35871459D01*
X21920671Y-36474885D01*
X22931008Y-36918059D01*
X24000508Y-37188894D01*
X25100000Y-37280000D01*
X26199492Y-37188894D01*
X27268992Y-36918059D01*
X28279329Y-36474885D01*
X29202941Y-35871459D01*
X30014636Y-35124241D01*
X30692272Y-34253614D01*
X31217366Y-33283325D01*
X31575594Y-32239843D01*
X31757184Y-31151630D01*
X31757184Y-30048370D01*
X31575594Y-28960157D01*
X31217366Y-27916675D01*
X30692272Y-26946386D01*
X30014636Y-26075759D01*
X29202941Y-25328541D01*
X28279329Y-24725115D01*
X27268992Y-24281941D01*
X26199492Y-24011106D01*
X25100000Y-23920000D01*
X24000508Y-24011106D01*
X22931008Y-24281941D01*
X21920671Y-24725115D01*
X20997059Y-25328541D01*
X20185364Y-26075759D01*
X19507728Y-26946386D01*
X18982634Y-27916675D01*
X18624406Y-28960157D01*
X18442816Y-30048370D01*
X17660000Y-30048370D01*
X17660000Y-21965570D01*
X46619793Y-21965570D01*
X46619793Y-22434430D01*
X46711263Y-22894281D01*
X46890688Y-23327451D01*
X47151172Y-23717294D01*
X47482706Y-24048828D01*
X47872549Y-24309312D01*
X48305719Y-24488737D01*
X48765570Y-24580207D01*
X49234430Y-24580207D01*
X49694281Y-24488737D01*
X50127451Y-24309312D01*
X50440709Y-24100000D01*
X51036807Y-24100000D01*
X51040001Y-24132429D01*
X51040000Y-37067581D01*
X51036807Y-37100000D01*
X51049550Y-37229383D01*
X51087290Y-37353793D01*
X51148575Y-37468450D01*
X51231052Y-37568948D01*
X51331550Y-37651425D01*
X51446207Y-37712710D01*
X51570617Y-37750450D01*
X51700000Y-37763193D01*
X51732419Y-37760000D01*
X65667581Y-37760000D01*
X65700000Y-37763193D01*
X65732419Y-37760000D01*
X65829383Y-37750450D01*
X65953793Y-37712710D01*
X66068450Y-37651425D01*
X66168948Y-37568948D01*
X66251425Y-37468450D01*
X66312710Y-37353793D01*
X66350450Y-37229383D01*
X66363193Y-37100000D01*
X66360000Y-37067581D01*
X66360000Y-24132419D01*
X66363193Y-24100000D01*
X66350450Y-23970617D01*
X66312710Y-23846207D01*
X66251425Y-23731550D01*
X66168948Y-23631052D01*
X66068450Y-23548575D01*
X65953793Y-23487290D01*
X65829383Y-23449550D01*
X65732419Y-23440000D01*
X65700000Y-23436807D01*
X65667581Y-23440000D01*
X51732419Y-23440000D01*
X51700000Y-23436807D01*
X51667581Y-23440000D01*
X51570617Y-23449550D01*
X51446207Y-23487290D01*
X51331550Y-23548575D01*
X51231052Y-23631052D01*
X51148575Y-23731550D01*
X51087290Y-23846207D01*
X51049550Y-23970617D01*
X51036807Y-24100000D01*
X50440709Y-24100000D01*
X50517294Y-24048828D01*
X50848828Y-23717294D01*
X51109312Y-23327451D01*
X51288737Y-22894281D01*
X51380207Y-22434430D01*
X51380207Y-21965570D01*
X67869793Y-21965570D01*
X67869793Y-22434430D01*
X67961263Y-22894281D01*
X68140688Y-23327451D01*
X68401172Y-23717294D01*
X68732706Y-24048828D01*
X69122549Y-24309312D01*
X69555719Y-24488737D01*
X70015570Y-24580207D01*
X70484430Y-24580207D01*
X70944281Y-24488737D01*
X71377451Y-24309312D01*
X71767294Y-24048828D01*
X72098828Y-23717294D01*
X72359312Y-23327451D01*
X72538737Y-22894281D01*
X72630207Y-22434430D01*
X72630207Y-21965570D01*
X73119793Y-21965570D01*
X73119793Y-22434430D01*
X73211263Y-22894281D01*
X73390688Y-23327451D01*
X73651172Y-23717294D01*
X73982706Y-24048828D01*
X74372549Y-24309312D01*
X74805719Y-24488737D01*
X75265570Y-24580207D01*
X75734430Y-24580207D01*
X76194281Y-24488737D01*
X76627451Y-24309312D01*
X77017294Y-24048828D01*
X77348828Y-23717294D01*
X77609312Y-23327451D01*
X77788737Y-22894281D01*
X77880207Y-22434430D01*
X77880207Y-21965570D01*
X78369793Y-21965570D01*
X78369793Y-22434430D01*
X78461263Y-22894281D01*
X78640688Y-23327451D01*
X78901172Y-23717294D01*
X79232706Y-24048828D01*
X79622549Y-24309312D01*
X80055719Y-24488737D01*
X80515570Y-24580207D01*
X80984430Y-24580207D01*
X81444281Y-24488737D01*
X81877451Y-24309312D01*
X82267294Y-24048828D01*
X82598828Y-23717294D01*
X82859312Y-23327451D01*
X83038737Y-22894281D01*
X83130207Y-22434430D01*
X83130207Y-22200000D01*
X83236807Y-22200000D01*
X83240000Y-22232419D01*
X83240001Y-38967571D01*
X83236807Y-39000000D01*
X83249550Y-39129383D01*
X83287290Y-39253793D01*
X83348575Y-39368450D01*
X83431052Y-39468948D01*
X83531550Y-39551425D01*
X83646207Y-39612710D01*
X83770617Y-39650450D01*
X83867581Y-39660000D01*
X83900000Y-39663193D01*
X83932419Y-39660000D01*
X151067581Y-39660000D01*
X151100000Y-39663193D01*
X151132419Y-39660000D01*
X151229383Y-39650450D01*
X151353793Y-39612710D01*
X151468450Y-39551425D01*
X151568948Y-39468948D01*
X151651425Y-39368450D01*
X151712710Y-39253793D01*
X151750450Y-39129383D01*
X151763193Y-39000000D01*
X151760000Y-38967581D01*
X151760000Y-22232419D01*
X151763193Y-22200000D01*
X151750450Y-22070617D01*
X151718584Y-21965570D01*
X164219793Y-21965570D01*
X164219793Y-22434430D01*
X164311263Y-22894281D01*
X164490688Y-23327451D01*
X164751172Y-23717294D01*
X165082706Y-24048828D01*
X165472549Y-24309312D01*
X165905719Y-24488737D01*
X166365570Y-24580207D01*
X166834430Y-24580207D01*
X167294281Y-24488737D01*
X167727451Y-24309312D01*
X168040709Y-24100000D01*
X168636807Y-24100000D01*
X168640001Y-24132429D01*
X168640000Y-37067581D01*
X168636807Y-37100000D01*
X168649550Y-37229383D01*
X168687290Y-37353793D01*
X168748575Y-37468450D01*
X168831052Y-37568948D01*
X168931550Y-37651425D01*
X169046207Y-37712710D01*
X169170617Y-37750450D01*
X169300000Y-37763193D01*
X169332419Y-37760000D01*
X183267581Y-37760000D01*
X183300000Y-37763193D01*
X183332419Y-37760000D01*
X183429383Y-37750450D01*
X183553793Y-37712710D01*
X183668450Y-37651425D01*
X183768948Y-37568948D01*
X183851425Y-37468450D01*
X183912710Y-37353793D01*
X183950450Y-37229383D01*
X183963193Y-37100000D01*
X183960000Y-37067581D01*
X183960000Y-24132419D01*
X183963193Y-24100000D01*
X183950450Y-23970617D01*
X183912710Y-23846207D01*
X183851425Y-23731550D01*
X183768948Y-23631052D01*
X183668450Y-23548575D01*
X183553793Y-23487290D01*
X183429383Y-23449550D01*
X183332419Y-23440000D01*
X183300000Y-23436807D01*
X183267581Y-23440000D01*
X169332419Y-23440000D01*
X169300000Y-23436807D01*
X169267581Y-23440000D01*
X169170617Y-23449550D01*
X169046207Y-23487290D01*
X168931550Y-23548575D01*
X168831052Y-23631052D01*
X168748575Y-23731550D01*
X168687290Y-23846207D01*
X168649550Y-23970617D01*
X168636807Y-24100000D01*
X168040709Y-24100000D01*
X168117294Y-24048828D01*
X168448828Y-23717294D01*
X168709312Y-23327451D01*
X168888737Y-22894281D01*
X168980207Y-22434430D01*
X168980207Y-21965570D01*
X197819793Y-21965570D01*
X197819793Y-22434430D01*
X197911263Y-22894281D01*
X198090688Y-23327451D01*
X198351172Y-23717294D01*
X198682706Y-24048828D01*
X199072549Y-24309312D01*
X199505719Y-24488737D01*
X199965570Y-24580207D01*
X200434430Y-24580207D01*
X200894281Y-24488737D01*
X201327451Y-24309312D01*
X201640709Y-24100000D01*
X202236807Y-24100000D01*
X202240001Y-24132429D01*
X202240000Y-37067581D01*
X202236807Y-37100000D01*
X202249550Y-37229383D01*
X202287290Y-37353793D01*
X202348575Y-37468450D01*
X202431052Y-37568948D01*
X202531550Y-37651425D01*
X202646207Y-37712710D01*
X202770617Y-37750450D01*
X202900000Y-37763193D01*
X202932419Y-37760000D01*
X216867581Y-37760000D01*
X216900000Y-37763193D01*
X216932419Y-37760000D01*
X217029383Y-37750450D01*
X217153793Y-37712710D01*
X217268450Y-37651425D01*
X217368948Y-37568948D01*
X217451425Y-37468450D01*
X217512710Y-37353793D01*
X217550450Y-37229383D01*
X217563193Y-37100000D01*
X217560000Y-37067581D01*
X217560000Y-24132419D01*
X217563193Y-24100000D01*
X217550450Y-23970617D01*
X217512710Y-23846207D01*
X217451425Y-23731550D01*
X217368948Y-23631052D01*
X217268450Y-23548575D01*
X217153793Y-23487290D01*
X217029383Y-23449550D01*
X216932419Y-23440000D01*
X216900000Y-23436807D01*
X216867581Y-23440000D01*
X202932419Y-23440000D01*
X202900000Y-23436807D01*
X202867581Y-23440000D01*
X202770617Y-23449550D01*
X202646207Y-23487290D01*
X202531550Y-23548575D01*
X202431052Y-23631052D01*
X202348575Y-23731550D01*
X202287290Y-23846207D01*
X202249550Y-23970617D01*
X202236807Y-24100000D01*
X201640709Y-24100000D01*
X201717294Y-24048828D01*
X202048828Y-23717294D01*
X202309312Y-23327451D01*
X202488737Y-22894281D01*
X202580207Y-22434430D01*
X202580207Y-21965570D01*
X231419793Y-21965570D01*
X231419793Y-22434430D01*
X231511263Y-22894281D01*
X231690688Y-23327451D01*
X231951172Y-23717294D01*
X232282706Y-24048828D01*
X232672549Y-24309312D01*
X233105719Y-24488737D01*
X233565570Y-24580207D01*
X234034430Y-24580207D01*
X234494281Y-24488737D01*
X234927451Y-24309312D01*
X235240709Y-24100000D01*
X235836807Y-24100000D01*
X235840001Y-24132429D01*
X235840000Y-37067581D01*
X235836807Y-37100000D01*
X235849550Y-37229383D01*
X235887290Y-37353793D01*
X235948575Y-37468450D01*
X236031052Y-37568948D01*
X236131550Y-37651425D01*
X236246207Y-37712710D01*
X236370617Y-37750450D01*
X236500000Y-37763193D01*
X236532419Y-37760000D01*
X250467581Y-37760000D01*
X250500000Y-37763193D01*
X250532419Y-37760000D01*
X250629383Y-37750450D01*
X250753793Y-37712710D01*
X250868450Y-37651425D01*
X250968948Y-37568948D01*
X251051425Y-37468450D01*
X251112710Y-37353793D01*
X251150450Y-37229383D01*
X251163193Y-37100000D01*
X251160000Y-37067581D01*
X251160000Y-24132419D01*
X251163193Y-24100000D01*
X251150450Y-23970617D01*
X251112710Y-23846207D01*
X251051425Y-23731550D01*
X250968948Y-23631052D01*
X250868450Y-23548575D01*
X250753793Y-23487290D01*
X250629383Y-23449550D01*
X250532419Y-23440000D01*
X250500000Y-23436807D01*
X250467581Y-23440000D01*
X236532419Y-23440000D01*
X236500000Y-23436807D01*
X236467581Y-23440000D01*
X236370617Y-23449550D01*
X236246207Y-23487290D01*
X236131550Y-23548575D01*
X236031052Y-23631052D01*
X235948575Y-23731550D01*
X235887290Y-23846207D01*
X235849550Y-23970617D01*
X235836807Y-24100000D01*
X235240709Y-24100000D01*
X235317294Y-24048828D01*
X235648828Y-23717294D01*
X235909312Y-23327451D01*
X236088737Y-22894281D01*
X236180207Y-22434430D01*
X236180207Y-21965570D01*
X265019793Y-21965570D01*
X265019793Y-22434430D01*
X265111263Y-22894281D01*
X265290688Y-23327451D01*
X265551172Y-23717294D01*
X265882706Y-24048828D01*
X266272549Y-24309312D01*
X266705719Y-24488737D01*
X267165570Y-24580207D01*
X267634430Y-24580207D01*
X268094281Y-24488737D01*
X268527451Y-24309312D01*
X268840709Y-24100000D01*
X269436807Y-24100000D01*
X269440001Y-24132429D01*
X269440000Y-37067581D01*
X269436807Y-37100000D01*
X269449550Y-37229383D01*
X269487290Y-37353793D01*
X269548575Y-37468450D01*
X269631052Y-37568948D01*
X269731550Y-37651425D01*
X269846207Y-37712710D01*
X269970617Y-37750450D01*
X270100000Y-37763193D01*
X270132419Y-37760000D01*
X284067581Y-37760000D01*
X284100000Y-37763193D01*
X284132419Y-37760000D01*
X284229383Y-37750450D01*
X284353793Y-37712710D01*
X284468450Y-37651425D01*
X284568948Y-37568948D01*
X284651425Y-37468450D01*
X284712710Y-37353793D01*
X284750450Y-37229383D01*
X284763193Y-37100000D01*
X284760000Y-37067581D01*
X284760000Y-24132419D01*
X284763193Y-24100000D01*
X284750450Y-23970617D01*
X284712710Y-23846207D01*
X284651425Y-23731550D01*
X284568948Y-23631052D01*
X284468450Y-23548575D01*
X284353793Y-23487290D01*
X284229383Y-23449550D01*
X284132419Y-23440000D01*
X284100000Y-23436807D01*
X284067581Y-23440000D01*
X270132419Y-23440000D01*
X270100000Y-23436807D01*
X270067581Y-23440000D01*
X269970617Y-23449550D01*
X269846207Y-23487290D01*
X269731550Y-23548575D01*
X269631052Y-23631052D01*
X269548575Y-23731550D01*
X269487290Y-23846207D01*
X269449550Y-23970617D01*
X269436807Y-24100000D01*
X268840709Y-24100000D01*
X268917294Y-24048828D01*
X269248828Y-23717294D01*
X269509312Y-23327451D01*
X269688737Y-22894281D01*
X269780207Y-22434430D01*
X269780207Y-21965570D01*
X269688737Y-21505719D01*
X269509312Y-21072549D01*
X269248828Y-20682706D01*
X268917294Y-20351172D01*
X268527451Y-20090688D01*
X268094281Y-19911263D01*
X267634430Y-19819793D01*
X267165570Y-19819793D01*
X266705719Y-19911263D01*
X266272549Y-20090688D01*
X265882706Y-20351172D01*
X265551172Y-20682706D01*
X265290688Y-21072549D01*
X265111263Y-21505719D01*
X265019793Y-21965570D01*
X236180207Y-21965570D01*
X236088737Y-21505719D01*
X235909312Y-21072549D01*
X235648828Y-20682706D01*
X235317294Y-20351172D01*
X234927451Y-20090688D01*
X234494281Y-19911263D01*
X234034430Y-19819793D01*
X233565570Y-19819793D01*
X233105719Y-19911263D01*
X232672549Y-20090688D01*
X232282706Y-20351172D01*
X231951172Y-20682706D01*
X231690688Y-21072549D01*
X231511263Y-21505719D01*
X231419793Y-21965570D01*
X202580207Y-21965570D01*
X202488737Y-21505719D01*
X202309312Y-21072549D01*
X202048828Y-20682706D01*
X201717294Y-20351172D01*
X201327451Y-20090688D01*
X200894281Y-19911263D01*
X200434430Y-19819793D01*
X199965570Y-19819793D01*
X199505719Y-19911263D01*
X199072549Y-20090688D01*
X198682706Y-20351172D01*
X198351172Y-20682706D01*
X198090688Y-21072549D01*
X197911263Y-21505719D01*
X197819793Y-21965570D01*
X168980207Y-21965570D01*
X168888737Y-21505719D01*
X168709312Y-21072549D01*
X168448828Y-20682706D01*
X168117294Y-20351172D01*
X167727451Y-20090688D01*
X167294281Y-19911263D01*
X166834430Y-19819793D01*
X166365570Y-19819793D01*
X165905719Y-19911263D01*
X165472549Y-20090688D01*
X165082706Y-20351172D01*
X164751172Y-20682706D01*
X164490688Y-21072549D01*
X164311263Y-21505719D01*
X164219793Y-21965570D01*
X151718584Y-21965570D01*
X151712710Y-21946207D01*
X151651425Y-21831550D01*
X151568948Y-21731052D01*
X151468450Y-21648575D01*
X151353793Y-21587290D01*
X151229383Y-21549550D01*
X151132419Y-21540000D01*
X151100000Y-21536807D01*
X151067581Y-21540000D01*
X83932419Y-21540000D01*
X83900000Y-21536807D01*
X83867581Y-21540000D01*
X83770617Y-21549550D01*
X83646207Y-21587290D01*
X83531550Y-21648575D01*
X83431052Y-21731052D01*
X83348575Y-21831550D01*
X83287290Y-21946207D01*
X83249550Y-22070617D01*
X83236807Y-22200000D01*
X83130207Y-22200000D01*
X83130207Y-21965570D01*
X83038737Y-21505719D01*
X82859312Y-21072549D01*
X82598828Y-20682706D01*
X82267294Y-20351172D01*
X81877451Y-20090688D01*
X81444281Y-19911263D01*
X80984430Y-19819793D01*
X80515570Y-19819793D01*
X80055719Y-19911263D01*
X79622549Y-20090688D01*
X79232706Y-20351172D01*
X78901172Y-20682706D01*
X78640688Y-21072549D01*
X78461263Y-21505719D01*
X78369793Y-21965570D01*
X77880207Y-21965570D01*
X77788737Y-21505719D01*
X77609312Y-21072549D01*
X77348828Y-20682706D01*
X77017294Y-20351172D01*
X76627451Y-20090688D01*
X76194281Y-19911263D01*
X75734430Y-19819793D01*
X75265570Y-19819793D01*
X74805719Y-19911263D01*
X74372549Y-20090688D01*
X73982706Y-20351172D01*
X73651172Y-20682706D01*
X73390688Y-21072549D01*
X73211263Y-21505719D01*
X73119793Y-21965570D01*
X72630207Y-21965570D01*
X72538737Y-21505719D01*
X72359312Y-21072549D01*
X72098828Y-20682706D01*
X71767294Y-20351172D01*
X71377451Y-20090688D01*
X70944281Y-19911263D01*
X70484430Y-19819793D01*
X70015570Y-19819793D01*
X69555719Y-19911263D01*
X69122549Y-20090688D01*
X68732706Y-20351172D01*
X68401172Y-20682706D01*
X68140688Y-21072549D01*
X67961263Y-21505719D01*
X67869793Y-21965570D01*
X51380207Y-21965570D01*
X51288737Y-21505719D01*
X51109312Y-21072549D01*
X50848828Y-20682706D01*
X50517294Y-20351172D01*
X50127451Y-20090688D01*
X49694281Y-19911263D01*
X49234430Y-19819793D01*
X48765570Y-19819793D01*
X48305719Y-19911263D01*
X47872549Y-20090688D01*
X47482706Y-20351172D01*
X47151172Y-20682706D01*
X46890688Y-21072549D01*
X46711263Y-21505719D01*
X46619793Y-21965570D01*
X17660000Y-21965570D01*
X17660000Y-18632072D01*
X17795000Y-18632072D01*
X17795000Y-18967928D01*
X17860522Y-19297330D01*
X17989048Y-19607620D01*
X18175640Y-19886874D01*
X18413126Y-20124360D01*
X18692380Y-20310952D01*
X19002670Y-20439478D01*
X19332072Y-20505000D01*
X19667928Y-20505000D01*
X19997330Y-20439478D01*
X20307620Y-20310952D01*
X20586874Y-20124360D01*
X20824360Y-19886874D01*
X21010952Y-19607620D01*
X21139478Y-19297330D01*
X21205000Y-18967928D01*
X21205000Y-18632072D01*
X157795000Y-18632072D01*
X157795000Y-18967928D01*
X157860522Y-19297330D01*
X157989048Y-19607620D01*
X158175640Y-19886874D01*
X158413126Y-20124360D01*
X158692380Y-20310952D01*
X159002670Y-20439478D01*
X159332072Y-20505000D01*
X159667928Y-20505000D01*
X159997330Y-20439478D01*
X160307620Y-20310952D01*
X160586874Y-20124360D01*
X160824360Y-19886874D01*
X161010952Y-19607620D01*
X161139478Y-19297330D01*
X161205000Y-18967928D01*
X161205000Y-18632072D01*
X297795000Y-18632072D01*
X297795000Y-18967928D01*
X297860522Y-19297330D01*
X297989048Y-19607620D01*
X298175640Y-19886874D01*
X298413126Y-20124360D01*
X298692380Y-20310952D01*
X299002670Y-20439478D01*
X299332072Y-20505000D01*
X299667928Y-20505000D01*
X299997330Y-20439478D01*
X300307620Y-20310952D01*
X300586874Y-20124360D01*
X300824360Y-19886874D01*
X301010952Y-19607620D01*
X301139478Y-19297330D01*
X301205000Y-18967928D01*
X301205000Y-18632072D01*
X301139478Y-18302670D01*
X301010952Y-17992380D01*
X300824360Y-17713126D01*
X300586874Y-17475640D01*
X300307620Y-17289048D01*
X299997330Y-17160522D01*
X299667928Y-17095000D01*
X299332072Y-17095000D01*
X299002670Y-17160522D01*
X298692380Y-17289048D01*
X298413126Y-17475640D01*
X298175640Y-17713126D01*
X297989048Y-17992380D01*
X297860522Y-18302670D01*
X297795000Y-18632072D01*
X161205000Y-18632072D01*
X161139478Y-18302670D01*
X161010952Y-17992380D01*
X160824360Y-17713126D01*
X160586874Y-17475640D01*
X160307620Y-17289048D01*
X159997330Y-17160522D01*
X159667928Y-17095000D01*
X159332072Y-17095000D01*
X159002670Y-17160522D01*
X158692380Y-17289048D01*
X158413126Y-17475640D01*
X158175640Y-17713126D01*
X157989048Y-17992380D01*
X157860522Y-18302670D01*
X157795000Y-18632072D01*
X21205000Y-18632072D01*
X21139478Y-18302670D01*
X21010952Y-17992380D01*
X20824360Y-17713126D01*
X20586874Y-17475640D01*
X20307620Y-17289048D01*
X19997330Y-17160522D01*
X19667928Y-17095000D01*
X19332072Y-17095000D01*
X19002670Y-17160522D01*
X18692380Y-17289048D01*
X18413126Y-17475640D01*
X18175640Y-17713126D01*
X17989048Y-17992380D01*
X17860522Y-18302670D01*
X17795000Y-18632072D01*
X17660000Y-18632072D01*
X17660000Y-18332279D01*
X17688625Y-18040341D01*
X17764035Y-17790571D01*
X17886522Y-17560208D01*
X18051422Y-17358020D01*
X18252450Y-17191714D01*
X18481954Y-17067622D01*
X18731195Y-16990469D01*
X19021088Y-16960000D01*
X299967721Y-16960000D01*
X300259659Y-16988625D01*
%TA.AperFunction,NonConductor*%
D11*
G36*
X300259659Y-16988625D02*
G01*
X300509429Y-17064035D01*
X300739792Y-17186522D01*
X300941980Y-17351422D01*
X301108286Y-17552450D01*
X301232378Y-17781954D01*
X301309531Y-18031195D01*
X301340000Y-18321089D01*
X301340001Y-43067711D01*
X301311375Y-43359660D01*
X301235965Y-43609429D01*
X301113477Y-43839794D01*
X300948579Y-44041979D01*
X300747546Y-44208288D01*
X300518046Y-44332378D01*
X300268805Y-44409531D01*
X299978911Y-44440000D01*
X19032279Y-44440000D01*
X18740340Y-44411375D01*
X18490571Y-44335965D01*
X18260206Y-44213477D01*
X18058021Y-44048579D01*
X17891712Y-43847546D01*
X17767622Y-43618046D01*
X17690469Y-43368805D01*
X17660000Y-43078911D01*
X17660000Y-42432072D01*
X17795000Y-42432072D01*
X17795000Y-42767928D01*
X17860522Y-43097330D01*
X17989048Y-43407620D01*
X18175640Y-43686874D01*
X18413126Y-43924360D01*
X18692380Y-44110952D01*
X19002670Y-44239478D01*
X19332072Y-44305000D01*
X19667928Y-44305000D01*
X19997330Y-44239478D01*
X20307620Y-44110952D01*
X20586874Y-43924360D01*
X20824360Y-43686874D01*
X21010952Y-43407620D01*
X21139478Y-43097330D01*
X21205000Y-42767928D01*
X21205000Y-42432072D01*
X157795000Y-42432072D01*
X157795000Y-42767928D01*
X157860522Y-43097330D01*
X157989048Y-43407620D01*
X158175640Y-43686874D01*
X158413126Y-43924360D01*
X158692380Y-44110952D01*
X159002670Y-44239478D01*
X159332072Y-44305000D01*
X159667928Y-44305000D01*
X159997330Y-44239478D01*
X160307620Y-44110952D01*
X160586874Y-43924360D01*
X160824360Y-43686874D01*
X161010952Y-43407620D01*
X161139478Y-43097330D01*
X161205000Y-42767928D01*
X161205000Y-42432072D01*
X297795000Y-42432072D01*
X297795000Y-42767928D01*
X297860522Y-43097330D01*
X297989048Y-43407620D01*
X298175640Y-43686874D01*
X298413126Y-43924360D01*
X298692380Y-44110952D01*
X299002670Y-44239478D01*
X299332072Y-44305000D01*
X299667928Y-44305000D01*
X299997330Y-44239478D01*
X300307620Y-44110952D01*
X300586874Y-43924360D01*
X300824360Y-43686874D01*
X301010952Y-43407620D01*
X301139478Y-43097330D01*
X301205000Y-42767928D01*
X301205000Y-42432072D01*
X301139478Y-42102670D01*
X301010952Y-41792380D01*
X300824360Y-41513126D01*
X300586874Y-41275640D01*
X300307620Y-41089048D01*
X299997330Y-40960522D01*
X299667928Y-40895000D01*
X299332072Y-40895000D01*
X299002670Y-40960522D01*
X298692380Y-41089048D01*
X298413126Y-41275640D01*
X298175640Y-41513126D01*
X297989048Y-41792380D01*
X297860522Y-42102670D01*
X297795000Y-42432072D01*
X161205000Y-42432072D01*
X161139478Y-42102670D01*
X161010952Y-41792380D01*
X160824360Y-41513126D01*
X160586874Y-41275640D01*
X160307620Y-41089048D01*
X159997330Y-40960522D01*
X159667928Y-40895000D01*
X159332072Y-40895000D01*
X159002670Y-40960522D01*
X158692380Y-41089048D01*
X158413126Y-41275640D01*
X158175640Y-41513126D01*
X157989048Y-41792380D01*
X157860522Y-42102670D01*
X157795000Y-42432072D01*
X21205000Y-42432072D01*
X21139478Y-42102670D01*
X21010952Y-41792380D01*
X20824360Y-41513126D01*
X20586874Y-41275640D01*
X20307620Y-41089048D01*
X19997330Y-40960522D01*
X19667928Y-40895000D01*
X19332072Y-40895000D01*
X19002670Y-40960522D01*
X18692380Y-41089048D01*
X18413126Y-41275640D01*
X18175640Y-41513126D01*
X17989048Y-41792380D01*
X17860522Y-42102670D01*
X17795000Y-42432072D01*
X17660000Y-42432072D01*
X17660000Y-30048370D01*
X18442816Y-30048370D01*
X18442816Y-31151630D01*
X18624406Y-32239843D01*
X18982634Y-33283325D01*
X19507728Y-34253614D01*
X20185364Y-35124241D01*
X20997059Y-35871459D01*
X21920671Y-36474885D01*
X22931008Y-36918059D01*
X24000508Y-37188894D01*
X25100000Y-37280000D01*
X26199492Y-37188894D01*
X27268992Y-36918059D01*
X28279329Y-36474885D01*
X29202941Y-35871459D01*
X30014636Y-35124241D01*
X30692272Y-34253614D01*
X31217366Y-33283325D01*
X31575594Y-32239843D01*
X31757184Y-31151630D01*
X31757184Y-30048370D01*
X31575594Y-28960157D01*
X31217366Y-27916675D01*
X30692272Y-26946386D01*
X30014636Y-26075759D01*
X29202941Y-25328541D01*
X28279329Y-24725115D01*
X27268992Y-24281941D01*
X26199492Y-24011106D01*
X25100000Y-23920000D01*
X24000508Y-24011106D01*
X22931008Y-24281941D01*
X21920671Y-24725115D01*
X20997059Y-25328541D01*
X20185364Y-26075759D01*
X19507728Y-26946386D01*
X18982634Y-27916675D01*
X18624406Y-28960157D01*
X18442816Y-30048370D01*
X17660000Y-30048370D01*
X17660000Y-21965570D01*
X46619793Y-21965570D01*
X46619793Y-22434430D01*
X46711263Y-22894281D01*
X46890688Y-23327451D01*
X47151172Y-23717294D01*
X47482706Y-24048828D01*
X47872549Y-24309312D01*
X48305719Y-24488737D01*
X48765570Y-24580207D01*
X49234430Y-24580207D01*
X49694281Y-24488737D01*
X50127451Y-24309312D01*
X50440709Y-24100000D01*
X51036807Y-24100000D01*
X51040001Y-24132429D01*
X51040000Y-37067581D01*
X51036807Y-37100000D01*
X51049550Y-37229383D01*
X51087290Y-37353793D01*
X51148575Y-37468450D01*
X51231052Y-37568948D01*
X51331550Y-37651425D01*
X51446207Y-37712710D01*
X51570617Y-37750450D01*
X51700000Y-37763193D01*
X51732419Y-37760000D01*
X65667581Y-37760000D01*
X65700000Y-37763193D01*
X65732419Y-37760000D01*
X65829383Y-37750450D01*
X65953793Y-37712710D01*
X66068450Y-37651425D01*
X66168948Y-37568948D01*
X66251425Y-37468450D01*
X66312710Y-37353793D01*
X66350450Y-37229383D01*
X66363193Y-37100000D01*
X66360000Y-37067581D01*
X66360000Y-24132419D01*
X66363193Y-24100000D01*
X66350450Y-23970617D01*
X66312710Y-23846207D01*
X66251425Y-23731550D01*
X66168948Y-23631052D01*
X66068450Y-23548575D01*
X65953793Y-23487290D01*
X65829383Y-23449550D01*
X65732419Y-23440000D01*
X65700000Y-23436807D01*
X65667581Y-23440000D01*
X51732419Y-23440000D01*
X51700000Y-23436807D01*
X51667581Y-23440000D01*
X51570617Y-23449550D01*
X51446207Y-23487290D01*
X51331550Y-23548575D01*
X51231052Y-23631052D01*
X51148575Y-23731550D01*
X51087290Y-23846207D01*
X51049550Y-23970617D01*
X51036807Y-24100000D01*
X50440709Y-24100000D01*
X50517294Y-24048828D01*
X50848828Y-23717294D01*
X51109312Y-23327451D01*
X51288737Y-22894281D01*
X51380207Y-22434430D01*
X51380207Y-21965570D01*
X67869793Y-21965570D01*
X67869793Y-22434430D01*
X67961263Y-22894281D01*
X68140688Y-23327451D01*
X68401172Y-23717294D01*
X68732706Y-24048828D01*
X69122549Y-24309312D01*
X69555719Y-24488737D01*
X70015570Y-24580207D01*
X70484430Y-24580207D01*
X70944281Y-24488737D01*
X71377451Y-24309312D01*
X71767294Y-24048828D01*
X72098828Y-23717294D01*
X72359312Y-23327451D01*
X72538737Y-22894281D01*
X72630207Y-22434430D01*
X72630207Y-21965570D01*
X73119793Y-21965570D01*
X73119793Y-22434430D01*
X73211263Y-22894281D01*
X73390688Y-23327451D01*
X73651172Y-23717294D01*
X73982706Y-24048828D01*
X74372549Y-24309312D01*
X74805719Y-24488737D01*
X75265570Y-24580207D01*
X75734430Y-24580207D01*
X76194281Y-24488737D01*
X76627451Y-24309312D01*
X77017294Y-24048828D01*
X77348828Y-23717294D01*
X77609312Y-23327451D01*
X77788737Y-22894281D01*
X77880207Y-22434430D01*
X77880207Y-21965570D01*
X78369793Y-21965570D01*
X78369793Y-22434430D01*
X78461263Y-22894281D01*
X78640688Y-23327451D01*
X78901172Y-23717294D01*
X79232706Y-24048828D01*
X79622549Y-24309312D01*
X80055719Y-24488737D01*
X80515570Y-24580207D01*
X80984430Y-24580207D01*
X81444281Y-24488737D01*
X81877451Y-24309312D01*
X82267294Y-24048828D01*
X82598828Y-23717294D01*
X82859312Y-23327451D01*
X83038737Y-22894281D01*
X83130207Y-22434430D01*
X83130207Y-22200000D01*
X83236807Y-22200000D01*
X83240000Y-22232419D01*
X83240001Y-38967571D01*
X83236807Y-39000000D01*
X83249550Y-39129383D01*
X83287290Y-39253793D01*
X83348575Y-39368450D01*
X83431052Y-39468948D01*
X83531550Y-39551425D01*
X83646207Y-39612710D01*
X83770617Y-39650450D01*
X83867581Y-39660000D01*
X83900000Y-39663193D01*
X83932419Y-39660000D01*
X151067581Y-39660000D01*
X151100000Y-39663193D01*
X151132419Y-39660000D01*
X151229383Y-39650450D01*
X151353793Y-39612710D01*
X151468450Y-39551425D01*
X151568948Y-39468948D01*
X151651425Y-39368450D01*
X151712710Y-39253793D01*
X151750450Y-39129383D01*
X151763193Y-39000000D01*
X151760000Y-38967581D01*
X151760000Y-22232419D01*
X151763193Y-22200000D01*
X151750450Y-22070617D01*
X151718584Y-21965570D01*
X164219793Y-21965570D01*
X164219793Y-22434430D01*
X164311263Y-22894281D01*
X164490688Y-23327451D01*
X164751172Y-23717294D01*
X165082706Y-24048828D01*
X165472549Y-24309312D01*
X165905719Y-24488737D01*
X166365570Y-24580207D01*
X166834430Y-24580207D01*
X167294281Y-24488737D01*
X167727451Y-24309312D01*
X168040709Y-24100000D01*
X168636807Y-24100000D01*
X168640001Y-24132429D01*
X168640000Y-37067581D01*
X168636807Y-37100000D01*
X168649550Y-37229383D01*
X168687290Y-37353793D01*
X168748575Y-37468450D01*
X168831052Y-37568948D01*
X168931550Y-37651425D01*
X169046207Y-37712710D01*
X169170617Y-37750450D01*
X169300000Y-37763193D01*
X169332419Y-37760000D01*
X183267581Y-37760000D01*
X183300000Y-37763193D01*
X183332419Y-37760000D01*
X183429383Y-37750450D01*
X183553793Y-37712710D01*
X183668450Y-37651425D01*
X183768948Y-37568948D01*
X183851425Y-37468450D01*
X183912710Y-37353793D01*
X183950450Y-37229383D01*
X183963193Y-37100000D01*
X183960000Y-37067581D01*
X183960000Y-24132419D01*
X183963193Y-24100000D01*
X183950450Y-23970617D01*
X183912710Y-23846207D01*
X183851425Y-23731550D01*
X183768948Y-23631052D01*
X183668450Y-23548575D01*
X183553793Y-23487290D01*
X183429383Y-23449550D01*
X183332419Y-23440000D01*
X183300000Y-23436807D01*
X183267581Y-23440000D01*
X169332419Y-23440000D01*
X169300000Y-23436807D01*
X169267581Y-23440000D01*
X169170617Y-23449550D01*
X169046207Y-23487290D01*
X168931550Y-23548575D01*
X168831052Y-23631052D01*
X168748575Y-23731550D01*
X168687290Y-23846207D01*
X168649550Y-23970617D01*
X168636807Y-24100000D01*
X168040709Y-24100000D01*
X168117294Y-24048828D01*
X168448828Y-23717294D01*
X168709312Y-23327451D01*
X168888737Y-22894281D01*
X168980207Y-22434430D01*
X168980207Y-21965570D01*
X197819793Y-21965570D01*
X197819793Y-22434430D01*
X197911263Y-22894281D01*
X198090688Y-23327451D01*
X198351172Y-23717294D01*
X198682706Y-24048828D01*
X199072549Y-24309312D01*
X199505719Y-24488737D01*
X199965570Y-24580207D01*
X200434430Y-24580207D01*
X200894281Y-24488737D01*
X201327451Y-24309312D01*
X201640709Y-24100000D01*
X202236807Y-24100000D01*
X202240001Y-24132429D01*
X202240000Y-37067581D01*
X202236807Y-37100000D01*
X202249550Y-37229383D01*
X202287290Y-37353793D01*
X202348575Y-37468450D01*
X202431052Y-37568948D01*
X202531550Y-37651425D01*
X202646207Y-37712710D01*
X202770617Y-37750450D01*
X202900000Y-37763193D01*
X202932419Y-37760000D01*
X216867581Y-37760000D01*
X216900000Y-37763193D01*
X216932419Y-37760000D01*
X217029383Y-37750450D01*
X217153793Y-37712710D01*
X217268450Y-37651425D01*
X217368948Y-37568948D01*
X217451425Y-37468450D01*
X217512710Y-37353793D01*
X217550450Y-37229383D01*
X217563193Y-37100000D01*
X217560000Y-37067581D01*
X217560000Y-24132419D01*
X217563193Y-24100000D01*
X217550450Y-23970617D01*
X217512710Y-23846207D01*
X217451425Y-23731550D01*
X217368948Y-23631052D01*
X217268450Y-23548575D01*
X217153793Y-23487290D01*
X217029383Y-23449550D01*
X216932419Y-23440000D01*
X216900000Y-23436807D01*
X216867581Y-23440000D01*
X202932419Y-23440000D01*
X202900000Y-23436807D01*
X202867581Y-23440000D01*
X202770617Y-23449550D01*
X202646207Y-23487290D01*
X202531550Y-23548575D01*
X202431052Y-23631052D01*
X202348575Y-23731550D01*
X202287290Y-23846207D01*
X202249550Y-23970617D01*
X202236807Y-24100000D01*
X201640709Y-24100000D01*
X201717294Y-24048828D01*
X202048828Y-23717294D01*
X202309312Y-23327451D01*
X202488737Y-22894281D01*
X202580207Y-22434430D01*
X202580207Y-21965570D01*
X231419793Y-21965570D01*
X231419793Y-22434430D01*
X231511263Y-22894281D01*
X231690688Y-23327451D01*
X231951172Y-23717294D01*
X232282706Y-24048828D01*
X232672549Y-24309312D01*
X233105719Y-24488737D01*
X233565570Y-24580207D01*
X234034430Y-24580207D01*
X234494281Y-24488737D01*
X234927451Y-24309312D01*
X235240709Y-24100000D01*
X235836807Y-24100000D01*
X235840001Y-24132429D01*
X235840000Y-37067581D01*
X235836807Y-37100000D01*
X235849550Y-37229383D01*
X235887290Y-37353793D01*
X235948575Y-37468450D01*
X236031052Y-37568948D01*
X236131550Y-37651425D01*
X236246207Y-37712710D01*
X236370617Y-37750450D01*
X236500000Y-37763193D01*
X236532419Y-37760000D01*
X250467581Y-37760000D01*
X250500000Y-37763193D01*
X250532419Y-37760000D01*
X250629383Y-37750450D01*
X250753793Y-37712710D01*
X250868450Y-37651425D01*
X250968948Y-37568948D01*
X251051425Y-37468450D01*
X251112710Y-37353793D01*
X251150450Y-37229383D01*
X251163193Y-37100000D01*
X251160000Y-37067581D01*
X251160000Y-24132419D01*
X251163193Y-24100000D01*
X251150450Y-23970617D01*
X251112710Y-23846207D01*
X251051425Y-23731550D01*
X250968948Y-23631052D01*
X250868450Y-23548575D01*
X250753793Y-23487290D01*
X250629383Y-23449550D01*
X250532419Y-23440000D01*
X250500000Y-23436807D01*
X250467581Y-23440000D01*
X236532419Y-23440000D01*
X236500000Y-23436807D01*
X236467581Y-23440000D01*
X236370617Y-23449550D01*
X236246207Y-23487290D01*
X236131550Y-23548575D01*
X236031052Y-23631052D01*
X235948575Y-23731550D01*
X235887290Y-23846207D01*
X235849550Y-23970617D01*
X235836807Y-24100000D01*
X235240709Y-24100000D01*
X235317294Y-24048828D01*
X235648828Y-23717294D01*
X235909312Y-23327451D01*
X236088737Y-22894281D01*
X236180207Y-22434430D01*
X236180207Y-21965570D01*
X265019793Y-21965570D01*
X265019793Y-22434430D01*
X265111263Y-22894281D01*
X265290688Y-23327451D01*
X265551172Y-23717294D01*
X265882706Y-24048828D01*
X266272549Y-24309312D01*
X266705719Y-24488737D01*
X267165570Y-24580207D01*
X267634430Y-24580207D01*
X268094281Y-24488737D01*
X268527451Y-24309312D01*
X268840709Y-24100000D01*
X269436807Y-24100000D01*
X269440001Y-24132429D01*
X269440000Y-37067581D01*
X269436807Y-37100000D01*
X269449550Y-37229383D01*
X269487290Y-37353793D01*
X269548575Y-37468450D01*
X269631052Y-37568948D01*
X269731550Y-37651425D01*
X269846207Y-37712710D01*
X269970617Y-37750450D01*
X270100000Y-37763193D01*
X270132419Y-37760000D01*
X284067581Y-37760000D01*
X284100000Y-37763193D01*
X284132419Y-37760000D01*
X284229383Y-37750450D01*
X284353793Y-37712710D01*
X284468450Y-37651425D01*
X284568948Y-37568948D01*
X284651425Y-37468450D01*
X284712710Y-37353793D01*
X284750450Y-37229383D01*
X284763193Y-37100000D01*
X284760000Y-37067581D01*
X284760000Y-24132419D01*
X284763193Y-24100000D01*
X284750450Y-23970617D01*
X284712710Y-23846207D01*
X284651425Y-23731550D01*
X284568948Y-23631052D01*
X284468450Y-23548575D01*
X284353793Y-23487290D01*
X284229383Y-23449550D01*
X284132419Y-23440000D01*
X284100000Y-23436807D01*
X284067581Y-23440000D01*
X270132419Y-23440000D01*
X270100000Y-23436807D01*
X270067581Y-23440000D01*
X269970617Y-23449550D01*
X269846207Y-23487290D01*
X269731550Y-23548575D01*
X269631052Y-23631052D01*
X269548575Y-23731550D01*
X269487290Y-23846207D01*
X269449550Y-23970617D01*
X269436807Y-24100000D01*
X268840709Y-24100000D01*
X268917294Y-24048828D01*
X269248828Y-23717294D01*
X269509312Y-23327451D01*
X269688737Y-22894281D01*
X269780207Y-22434430D01*
X269780207Y-21965570D01*
X269688737Y-21505719D01*
X269509312Y-21072549D01*
X269248828Y-20682706D01*
X268917294Y-20351172D01*
X268527451Y-20090688D01*
X268094281Y-19911263D01*
X267634430Y-19819793D01*
X267165570Y-19819793D01*
X266705719Y-19911263D01*
X266272549Y-20090688D01*
X265882706Y-20351172D01*
X265551172Y-20682706D01*
X265290688Y-21072549D01*
X265111263Y-21505719D01*
X265019793Y-21965570D01*
X236180207Y-21965570D01*
X236088737Y-21505719D01*
X235909312Y-21072549D01*
X235648828Y-20682706D01*
X235317294Y-20351172D01*
X234927451Y-20090688D01*
X234494281Y-19911263D01*
X234034430Y-19819793D01*
X233565570Y-19819793D01*
X233105719Y-19911263D01*
X232672549Y-20090688D01*
X232282706Y-20351172D01*
X231951172Y-20682706D01*
X231690688Y-21072549D01*
X231511263Y-21505719D01*
X231419793Y-21965570D01*
X202580207Y-21965570D01*
X202488737Y-21505719D01*
X202309312Y-21072549D01*
X202048828Y-20682706D01*
X201717294Y-20351172D01*
X201327451Y-20090688D01*
X200894281Y-19911263D01*
X200434430Y-19819793D01*
X199965570Y-19819793D01*
X199505719Y-19911263D01*
X199072549Y-20090688D01*
X198682706Y-20351172D01*
X198351172Y-20682706D01*
X198090688Y-21072549D01*
X197911263Y-21505719D01*
X197819793Y-21965570D01*
X168980207Y-21965570D01*
X168888737Y-21505719D01*
X168709312Y-21072549D01*
X168448828Y-20682706D01*
X168117294Y-20351172D01*
X167727451Y-20090688D01*
X167294281Y-19911263D01*
X166834430Y-19819793D01*
X166365570Y-19819793D01*
X165905719Y-19911263D01*
X165472549Y-20090688D01*
X165082706Y-20351172D01*
X164751172Y-20682706D01*
X164490688Y-21072549D01*
X164311263Y-21505719D01*
X164219793Y-21965570D01*
X151718584Y-21965570D01*
X151712710Y-21946207D01*
X151651425Y-21831550D01*
X151568948Y-21731052D01*
X151468450Y-21648575D01*
X151353793Y-21587290D01*
X151229383Y-21549550D01*
X151132419Y-21540000D01*
X151100000Y-21536807D01*
X151067581Y-21540000D01*
X83932419Y-21540000D01*
X83900000Y-21536807D01*
X83867581Y-21540000D01*
X83770617Y-21549550D01*
X83646207Y-21587290D01*
X83531550Y-21648575D01*
X83431052Y-21731052D01*
X83348575Y-21831550D01*
X83287290Y-21946207D01*
X83249550Y-22070617D01*
X83236807Y-22200000D01*
X83130207Y-22200000D01*
X83130207Y-21965570D01*
X83038737Y-21505719D01*
X82859312Y-21072549D01*
X82598828Y-20682706D01*
X82267294Y-20351172D01*
X81877451Y-20090688D01*
X81444281Y-19911263D01*
X80984430Y-19819793D01*
X80515570Y-19819793D01*
X80055719Y-19911263D01*
X79622549Y-20090688D01*
X79232706Y-20351172D01*
X78901172Y-20682706D01*
X78640688Y-21072549D01*
X78461263Y-21505719D01*
X78369793Y-21965570D01*
X77880207Y-21965570D01*
X77788737Y-21505719D01*
X77609312Y-21072549D01*
X77348828Y-20682706D01*
X77017294Y-20351172D01*
X76627451Y-20090688D01*
X76194281Y-19911263D01*
X75734430Y-19819793D01*
X75265570Y-19819793D01*
X74805719Y-19911263D01*
X74372549Y-20090688D01*
X73982706Y-20351172D01*
X73651172Y-20682706D01*
X73390688Y-21072549D01*
X73211263Y-21505719D01*
X73119793Y-21965570D01*
X72630207Y-21965570D01*
X72538737Y-21505719D01*
X72359312Y-21072549D01*
X72098828Y-20682706D01*
X71767294Y-20351172D01*
X71377451Y-20090688D01*
X70944281Y-19911263D01*
X70484430Y-19819793D01*
X70015570Y-19819793D01*
X69555719Y-19911263D01*
X69122549Y-20090688D01*
X68732706Y-20351172D01*
X68401172Y-20682706D01*
X68140688Y-21072549D01*
X67961263Y-21505719D01*
X67869793Y-21965570D01*
X51380207Y-21965570D01*
X51288737Y-21505719D01*
X51109312Y-21072549D01*
X50848828Y-20682706D01*
X50517294Y-20351172D01*
X50127451Y-20090688D01*
X49694281Y-19911263D01*
X49234430Y-19819793D01*
X48765570Y-19819793D01*
X48305719Y-19911263D01*
X47872549Y-20090688D01*
X47482706Y-20351172D01*
X47151172Y-20682706D01*
X46890688Y-21072549D01*
X46711263Y-21505719D01*
X46619793Y-21965570D01*
X17660000Y-21965570D01*
X17660000Y-18632072D01*
X17795000Y-18632072D01*
X17795000Y-18967928D01*
X17860522Y-19297330D01*
X17989048Y-19607620D01*
X18175640Y-19886874D01*
X18413126Y-20124360D01*
X18692380Y-20310952D01*
X19002670Y-20439478D01*
X19332072Y-20505000D01*
X19667928Y-20505000D01*
X19997330Y-20439478D01*
X20307620Y-20310952D01*
X20586874Y-20124360D01*
X20824360Y-19886874D01*
X21010952Y-19607620D01*
X21139478Y-19297330D01*
X21205000Y-18967928D01*
X21205000Y-18632072D01*
X157795000Y-18632072D01*
X157795000Y-18967928D01*
X157860522Y-19297330D01*
X157989048Y-19607620D01*
X158175640Y-19886874D01*
X158413126Y-20124360D01*
X158692380Y-20310952D01*
X159002670Y-20439478D01*
X159332072Y-20505000D01*
X159667928Y-20505000D01*
X159997330Y-20439478D01*
X160307620Y-20310952D01*
X160586874Y-20124360D01*
X160824360Y-19886874D01*
X161010952Y-19607620D01*
X161139478Y-19297330D01*
X161205000Y-18967928D01*
X161205000Y-18632072D01*
X297795000Y-18632072D01*
X297795000Y-18967928D01*
X297860522Y-19297330D01*
X297989048Y-19607620D01*
X298175640Y-19886874D01*
X298413126Y-20124360D01*
X298692380Y-20310952D01*
X299002670Y-20439478D01*
X299332072Y-20505000D01*
X299667928Y-20505000D01*
X299997330Y-20439478D01*
X300307620Y-20310952D01*
X300586874Y-20124360D01*
X300824360Y-19886874D01*
X301010952Y-19607620D01*
X301139478Y-19297330D01*
X301205000Y-18967928D01*
X301205000Y-18632072D01*
X301139478Y-18302670D01*
X301010952Y-17992380D01*
X300824360Y-17713126D01*
X300586874Y-17475640D01*
X300307620Y-17289048D01*
X299997330Y-17160522D01*
X299667928Y-17095000D01*
X299332072Y-17095000D01*
X299002670Y-17160522D01*
X298692380Y-17289048D01*
X298413126Y-17475640D01*
X298175640Y-17713126D01*
X297989048Y-17992380D01*
X297860522Y-18302670D01*
X297795000Y-18632072D01*
X161205000Y-18632072D01*
X161139478Y-18302670D01*
X161010952Y-17992380D01*
X160824360Y-17713126D01*
X160586874Y-17475640D01*
X160307620Y-17289048D01*
X159997330Y-17160522D01*
X159667928Y-17095000D01*
X159332072Y-17095000D01*
X159002670Y-17160522D01*
X158692380Y-17289048D01*
X158413126Y-17475640D01*
X158175640Y-17713126D01*
X157989048Y-17992380D01*
X157860522Y-18302670D01*
X157795000Y-18632072D01*
X21205000Y-18632072D01*
X21139478Y-18302670D01*
X21010952Y-17992380D01*
X20824360Y-17713126D01*
X20586874Y-17475640D01*
X20307620Y-17289048D01*
X19997330Y-17160522D01*
X19667928Y-17095000D01*
X19332072Y-17095000D01*
X19002670Y-17160522D01*
X18692380Y-17289048D01*
X18413126Y-17475640D01*
X18175640Y-17713126D01*
X17989048Y-17992380D01*
X17860522Y-18302670D01*
X17795000Y-18632072D01*
X17660000Y-18632072D01*
X17660000Y-18332279D01*
X17688625Y-18040341D01*
X17764035Y-17790571D01*
X17886522Y-17560208D01*
X18051422Y-17358020D01*
X18252450Y-17191714D01*
X18481954Y-17067622D01*
X18731195Y-16990469D01*
X19021088Y-16960000D01*
X299967721Y-16960000D01*
X300259659Y-16988625D01*
G37*
%TD.AperFunction*%
M02*
