%TF.GenerationSoftware,KiCad,Pcbnew,(5.1.9-0-10_14)*%
%TF.CreationDate,2021-01-31T13:09:17+09:00*%
%TF.ProjectId,Unison_Plate_Mid,556e6973-6f6e-45f5-906c-6174655f4d69,rev?*%
%TF.SameCoordinates,Original*%
%TF.FileFunction,Copper,L1,Top*%
%TF.FilePolarity,Positive*%
%FSLAX46Y46*%
G04 Gerber Fmt 4.6, Leading zero omitted, Abs format (unit mm)*
G04 Created by KiCad (PCBNEW (5.1.9-0-10_14)) date 2021-01-31 13:09:17*
%MOMM*%
%LPD*%
G01*
G04 APERTURE LIST*
%TA.AperFunction,NonConductor*%
%ADD10C,0.254000*%
%TD*%
%TA.AperFunction,NonConductor*%
%ADD11C,0.100000*%
%TD*%
G04 APERTURE END LIST*
D10*
X158420780Y-17424041D02*
X158174041Y-17670780D01*
X157980180Y-17960914D01*
X157846646Y-18283293D01*
X157778571Y-18625529D01*
X157778571Y-18974471D01*
X157846646Y-19316707D01*
X157980180Y-19639086D01*
X158174041Y-19929220D01*
X158420780Y-20175959D01*
X158710914Y-20369820D01*
X159033293Y-20503354D01*
X159375529Y-20571429D01*
X159724471Y-20571429D01*
X160066707Y-20503354D01*
X160389086Y-20369820D01*
X160679220Y-20175959D01*
X160925959Y-19929220D01*
X161119820Y-19639086D01*
X161253354Y-19316707D01*
X161321429Y-18974471D01*
X161321429Y-18625529D01*
X161253354Y-18283293D01*
X161119820Y-17960914D01*
X160925959Y-17670780D01*
X160679220Y-17424041D01*
X160433715Y-17260000D01*
X298666285Y-17260000D01*
X298420780Y-17424041D01*
X298174041Y-17670780D01*
X297980180Y-17960914D01*
X297846646Y-18283293D01*
X297778571Y-18625529D01*
X297778571Y-18974471D01*
X297846646Y-19316707D01*
X297980180Y-19639086D01*
X298174041Y-19929220D01*
X298420780Y-20175959D01*
X298710914Y-20369820D01*
X299033293Y-20503354D01*
X299375529Y-20571429D01*
X299724471Y-20571429D01*
X300066707Y-20503354D01*
X300389086Y-20369820D01*
X300679220Y-20175959D01*
X300925959Y-19929220D01*
X301119820Y-19639086D01*
X301253354Y-19316707D01*
X301321429Y-18974471D01*
X301321429Y-18625529D01*
X301253354Y-18283293D01*
X301119820Y-17960914D01*
X300925959Y-17670780D01*
X300687096Y-17431917D01*
X300789792Y-17486522D01*
X300991980Y-17651422D01*
X301158286Y-17852450D01*
X301282378Y-18081954D01*
X301359531Y-18331195D01*
X301390000Y-18621089D01*
X301390001Y-43067711D01*
X301361375Y-43359660D01*
X301285965Y-43609429D01*
X301163477Y-43839794D01*
X300998579Y-44041979D01*
X300797546Y-44208288D01*
X300687259Y-44267920D01*
X300925959Y-44029220D01*
X301119820Y-43739086D01*
X301253354Y-43416707D01*
X301321429Y-43074471D01*
X301321429Y-42725529D01*
X301253354Y-42383293D01*
X301119820Y-42060914D01*
X300925959Y-41770780D01*
X300679220Y-41524041D01*
X300389086Y-41330180D01*
X300066707Y-41196646D01*
X299724471Y-41128571D01*
X299375529Y-41128571D01*
X299033293Y-41196646D01*
X298710914Y-41330180D01*
X298420780Y-41524041D01*
X298174041Y-41770780D01*
X297980180Y-42060914D01*
X297846646Y-42383293D01*
X297778571Y-42725529D01*
X297778571Y-43074471D01*
X297846646Y-43416707D01*
X297980180Y-43739086D01*
X298174041Y-44029220D01*
X298420780Y-44275959D01*
X298666285Y-44440000D01*
X160433715Y-44440000D01*
X160679220Y-44275959D01*
X160925959Y-44029220D01*
X161119820Y-43739086D01*
X161253354Y-43416707D01*
X161321429Y-43074471D01*
X161321429Y-42725529D01*
X161253354Y-42383293D01*
X161119820Y-42060914D01*
X160925959Y-41770780D01*
X160679220Y-41524041D01*
X160389086Y-41330180D01*
X160066707Y-41196646D01*
X159724471Y-41128571D01*
X159375529Y-41128571D01*
X159033293Y-41196646D01*
X158710914Y-41330180D01*
X158420780Y-41524041D01*
X158174041Y-41770780D01*
X157980180Y-42060914D01*
X157846646Y-42383293D01*
X157778571Y-42725529D01*
X157778571Y-43074471D01*
X157846646Y-43416707D01*
X157980180Y-43739086D01*
X158174041Y-44029220D01*
X158420780Y-44275959D01*
X158666285Y-44440000D01*
X20433715Y-44440000D01*
X20679220Y-44275959D01*
X20925959Y-44029220D01*
X21119820Y-43739086D01*
X21253354Y-43416707D01*
X21321429Y-43074471D01*
X21321429Y-42725529D01*
X21253354Y-42383293D01*
X21119820Y-42060914D01*
X20925959Y-41770780D01*
X20679220Y-41524041D01*
X20389086Y-41330180D01*
X20066707Y-41196646D01*
X19724471Y-41128571D01*
X19375529Y-41128571D01*
X19033293Y-41196646D01*
X18710914Y-41330180D01*
X18420780Y-41524041D01*
X18174041Y-41770780D01*
X17980180Y-42060914D01*
X17846646Y-42383293D01*
X17778571Y-42725529D01*
X17778571Y-43074471D01*
X17846646Y-43416707D01*
X17980180Y-43739086D01*
X18174041Y-44029220D01*
X18412904Y-44268083D01*
X18310206Y-44213477D01*
X18108021Y-44048579D01*
X17941712Y-43847546D01*
X17817622Y-43618046D01*
X17740469Y-43368805D01*
X17710000Y-43078911D01*
X17710000Y-30900000D01*
X52520000Y-30900000D01*
X52609613Y-31952875D01*
X52875874Y-32975461D01*
X53311122Y-33938339D01*
X53902837Y-34813811D01*
X54633996Y-35576688D01*
X55483566Y-36205027D01*
X56427104Y-36680749D01*
X57437468Y-36990169D01*
X58485591Y-37124387D01*
X59541321Y-37079540D01*
X60574286Y-36856919D01*
X61554769Y-36462928D01*
X62454565Y-35908902D01*
X63247786Y-35210779D01*
X63911615Y-34388643D01*
X64426953Y-33466145D01*
X64778976Y-32469823D01*
X64957556Y-31428341D01*
X64957556Y-30371659D01*
X64778976Y-29330177D01*
X64426953Y-28333855D01*
X63911615Y-27411357D01*
X63247786Y-26589221D01*
X62454565Y-25891098D01*
X61554769Y-25337072D01*
X60574286Y-24943081D01*
X59541321Y-24720460D01*
X58485591Y-24675613D01*
X57437468Y-24809831D01*
X56427104Y-25119251D01*
X55483566Y-25594973D01*
X54633996Y-26223312D01*
X53902837Y-26986189D01*
X53311122Y-27861661D01*
X52875874Y-28824539D01*
X52609613Y-29847125D01*
X52520000Y-30900000D01*
X17710000Y-30900000D01*
X17710000Y-22281422D01*
X46830738Y-22281422D01*
X46830738Y-22718578D01*
X46916023Y-23147335D01*
X47083316Y-23551215D01*
X47326187Y-23914697D01*
X47635303Y-24223813D01*
X47998785Y-24466684D01*
X48402665Y-24633977D01*
X48831422Y-24719262D01*
X49268578Y-24719262D01*
X49697335Y-24633977D01*
X50101215Y-24466684D01*
X50464697Y-24223813D01*
X50773813Y-23914697D01*
X51016684Y-23551215D01*
X51183977Y-23147335D01*
X51269262Y-22718578D01*
X51269262Y-22281422D01*
X69330738Y-22281422D01*
X69330738Y-22718578D01*
X69416023Y-23147335D01*
X69583316Y-23551215D01*
X69826187Y-23914697D01*
X70135303Y-24223813D01*
X70498785Y-24466684D01*
X70902665Y-24633977D01*
X71331422Y-24719262D01*
X71768578Y-24719262D01*
X72197335Y-24633977D01*
X72601215Y-24466684D01*
X72964697Y-24223813D01*
X73273813Y-23914697D01*
X73516684Y-23551215D01*
X73683977Y-23147335D01*
X73769262Y-22718578D01*
X73769262Y-22281422D01*
X77330738Y-22281422D01*
X77330738Y-22718578D01*
X77416023Y-23147335D01*
X77583316Y-23551215D01*
X77826187Y-23914697D01*
X78135303Y-24223813D01*
X78498785Y-24466684D01*
X78902665Y-24633977D01*
X79331422Y-24719262D01*
X79768578Y-24719262D01*
X80197335Y-24633977D01*
X80601215Y-24466684D01*
X80964697Y-24223813D01*
X81273813Y-23914697D01*
X81516684Y-23551215D01*
X81683977Y-23147335D01*
X81740112Y-22865124D01*
X82840000Y-22865124D01*
X82840001Y-38934877D01*
X82842975Y-38965073D01*
X82842941Y-38969938D01*
X82843909Y-38979803D01*
X82860230Y-39135080D01*
X82873166Y-39198097D01*
X82885226Y-39261322D01*
X82888092Y-39270811D01*
X82888093Y-39270817D01*
X82888095Y-39270822D01*
X82934260Y-39419962D01*
X82959199Y-39479290D01*
X82983305Y-39538954D01*
X82987959Y-39547707D01*
X83062220Y-39685049D01*
X83098190Y-39738375D01*
X83133439Y-39792242D01*
X83139705Y-39799924D01*
X83239228Y-39920227D01*
X83284885Y-39965566D01*
X83329915Y-40011549D01*
X83337553Y-40017868D01*
X83458547Y-40116548D01*
X83512105Y-40152132D01*
X83565241Y-40188515D01*
X83573962Y-40193230D01*
X83711819Y-40266530D01*
X83771285Y-40291040D01*
X83830463Y-40316403D01*
X83839933Y-40319334D01*
X83989402Y-40364461D01*
X84052503Y-40376955D01*
X84115469Y-40390339D01*
X84125328Y-40391375D01*
X84280209Y-40406561D01*
X84315123Y-40410000D01*
X150784877Y-40410000D01*
X150815083Y-40407025D01*
X150819938Y-40407059D01*
X150829803Y-40406091D01*
X150985080Y-40389770D01*
X151048097Y-40376834D01*
X151111322Y-40364774D01*
X151120812Y-40361908D01*
X151120817Y-40361907D01*
X151120822Y-40361905D01*
X151269962Y-40315740D01*
X151329290Y-40290801D01*
X151388954Y-40266695D01*
X151397707Y-40262041D01*
X151535049Y-40187780D01*
X151588375Y-40151810D01*
X151642242Y-40116561D01*
X151649924Y-40110295D01*
X151770227Y-40010772D01*
X151815566Y-39965115D01*
X151861549Y-39920085D01*
X151867868Y-39912447D01*
X151966548Y-39791453D01*
X152002132Y-39737895D01*
X152038515Y-39684759D01*
X152043230Y-39676038D01*
X152116530Y-39538181D01*
X152141040Y-39478715D01*
X152166403Y-39419537D01*
X152169334Y-39410067D01*
X152214461Y-39260598D01*
X152226955Y-39197497D01*
X152240339Y-39134531D01*
X152241375Y-39124672D01*
X152256611Y-38969285D01*
X152260000Y-38934877D01*
X152260000Y-30900000D01*
X170120000Y-30900000D01*
X170209613Y-31952875D01*
X170475874Y-32975461D01*
X170911122Y-33938339D01*
X171502837Y-34813811D01*
X172233996Y-35576688D01*
X173083566Y-36205027D01*
X174027104Y-36680749D01*
X175037468Y-36990169D01*
X176085591Y-37124387D01*
X177141321Y-37079540D01*
X178174286Y-36856919D01*
X179154769Y-36462928D01*
X180054565Y-35908902D01*
X180847786Y-35210779D01*
X181511615Y-34388643D01*
X182026953Y-33466145D01*
X182378976Y-32469823D01*
X182557556Y-31428341D01*
X182557556Y-30900000D01*
X203720000Y-30900000D01*
X203809613Y-31952875D01*
X204075874Y-32975461D01*
X204511122Y-33938339D01*
X205102837Y-34813811D01*
X205833996Y-35576688D01*
X206683566Y-36205027D01*
X207627104Y-36680749D01*
X208637468Y-36990169D01*
X209685591Y-37124387D01*
X210741321Y-37079540D01*
X211774286Y-36856919D01*
X212754769Y-36462928D01*
X213654565Y-35908902D01*
X214447786Y-35210779D01*
X215111615Y-34388643D01*
X215626953Y-33466145D01*
X215978976Y-32469823D01*
X216157556Y-31428341D01*
X216157556Y-30900000D01*
X237320000Y-30900000D01*
X237409613Y-31952875D01*
X237675874Y-32975461D01*
X238111122Y-33938339D01*
X238702837Y-34813811D01*
X239433996Y-35576688D01*
X240283566Y-36205027D01*
X241227104Y-36680749D01*
X242237468Y-36990169D01*
X243285591Y-37124387D01*
X244341321Y-37079540D01*
X245374286Y-36856919D01*
X246354769Y-36462928D01*
X247254565Y-35908902D01*
X248047786Y-35210779D01*
X248711615Y-34388643D01*
X249226953Y-33466145D01*
X249578976Y-32469823D01*
X249757556Y-31428341D01*
X249757556Y-30900000D01*
X270920000Y-30900000D01*
X271009613Y-31952875D01*
X271275874Y-32975461D01*
X271711122Y-33938339D01*
X272302837Y-34813811D01*
X273033996Y-35576688D01*
X273883566Y-36205027D01*
X274827104Y-36680749D01*
X275837468Y-36990169D01*
X276885591Y-37124387D01*
X277941321Y-37079540D01*
X278974286Y-36856919D01*
X279954769Y-36462928D01*
X280854565Y-35908902D01*
X281647786Y-35210779D01*
X282311615Y-34388643D01*
X282826953Y-33466145D01*
X283178976Y-32469823D01*
X283357556Y-31428341D01*
X283357556Y-30371659D01*
X283178976Y-29330177D01*
X282826953Y-28333855D01*
X282311615Y-27411357D01*
X281647786Y-26589221D01*
X280854565Y-25891098D01*
X279954769Y-25337072D01*
X278974286Y-24943081D01*
X277941321Y-24720460D01*
X276885591Y-24675613D01*
X275837468Y-24809831D01*
X274827104Y-25119251D01*
X273883566Y-25594973D01*
X273033996Y-26223312D01*
X272302837Y-26986189D01*
X271711122Y-27861661D01*
X271275874Y-28824539D01*
X271009613Y-29847125D01*
X270920000Y-30900000D01*
X249757556Y-30900000D01*
X249757556Y-30371659D01*
X249578976Y-29330177D01*
X249226953Y-28333855D01*
X248711615Y-27411357D01*
X248047786Y-26589221D01*
X247254565Y-25891098D01*
X246354769Y-25337072D01*
X245374286Y-24943081D01*
X244341321Y-24720460D01*
X243285591Y-24675613D01*
X242237468Y-24809831D01*
X241227104Y-25119251D01*
X240283566Y-25594973D01*
X239433996Y-26223312D01*
X238702837Y-26986189D01*
X238111122Y-27861661D01*
X237675874Y-28824539D01*
X237409613Y-29847125D01*
X237320000Y-30900000D01*
X216157556Y-30900000D01*
X216157556Y-30371659D01*
X215978976Y-29330177D01*
X215626953Y-28333855D01*
X215111615Y-27411357D01*
X214447786Y-26589221D01*
X213654565Y-25891098D01*
X212754769Y-25337072D01*
X211774286Y-24943081D01*
X210741321Y-24720460D01*
X209685591Y-24675613D01*
X208637468Y-24809831D01*
X207627104Y-25119251D01*
X206683566Y-25594973D01*
X205833996Y-26223312D01*
X205102837Y-26986189D01*
X204511122Y-27861661D01*
X204075874Y-28824539D01*
X203809613Y-29847125D01*
X203720000Y-30900000D01*
X182557556Y-30900000D01*
X182557556Y-30371659D01*
X182378976Y-29330177D01*
X182026953Y-28333855D01*
X181511615Y-27411357D01*
X180847786Y-26589221D01*
X180054565Y-25891098D01*
X179154769Y-25337072D01*
X178174286Y-24943081D01*
X177141321Y-24720460D01*
X176085591Y-24675613D01*
X175037468Y-24809831D01*
X174027104Y-25119251D01*
X173083566Y-25594973D01*
X172233996Y-26223312D01*
X171502837Y-26986189D01*
X170911122Y-27861661D01*
X170475874Y-28824539D01*
X170209613Y-29847125D01*
X170120000Y-30900000D01*
X152260000Y-30900000D01*
X152260000Y-22865123D01*
X152257025Y-22834917D01*
X152257059Y-22830062D01*
X152256091Y-22820196D01*
X152239770Y-22664920D01*
X152226834Y-22601903D01*
X152214774Y-22538678D01*
X152211908Y-22529188D01*
X152211907Y-22529183D01*
X152211905Y-22529178D01*
X152165739Y-22380038D01*
X152140814Y-22320743D01*
X152124928Y-22281422D01*
X164430738Y-22281422D01*
X164430738Y-22718578D01*
X164516023Y-23147335D01*
X164683316Y-23551215D01*
X164926187Y-23914697D01*
X165235303Y-24223813D01*
X165598785Y-24466684D01*
X166002665Y-24633977D01*
X166431422Y-24719262D01*
X166868578Y-24719262D01*
X167297335Y-24633977D01*
X167701215Y-24466684D01*
X168064697Y-24223813D01*
X168373813Y-23914697D01*
X168616684Y-23551215D01*
X168783977Y-23147335D01*
X168869262Y-22718578D01*
X168869262Y-22281422D01*
X198030738Y-22281422D01*
X198030738Y-22718578D01*
X198116023Y-23147335D01*
X198283316Y-23551215D01*
X198526187Y-23914697D01*
X198835303Y-24223813D01*
X199198785Y-24466684D01*
X199602665Y-24633977D01*
X200031422Y-24719262D01*
X200468578Y-24719262D01*
X200897335Y-24633977D01*
X201301215Y-24466684D01*
X201664697Y-24223813D01*
X201973813Y-23914697D01*
X202216684Y-23551215D01*
X202383977Y-23147335D01*
X202469262Y-22718578D01*
X202469262Y-22281422D01*
X231630738Y-22281422D01*
X231630738Y-22718578D01*
X231716023Y-23147335D01*
X231883316Y-23551215D01*
X232126187Y-23914697D01*
X232435303Y-24223813D01*
X232798785Y-24466684D01*
X233202665Y-24633977D01*
X233631422Y-24719262D01*
X234068578Y-24719262D01*
X234497335Y-24633977D01*
X234901215Y-24466684D01*
X235264697Y-24223813D01*
X235573813Y-23914697D01*
X235816684Y-23551215D01*
X235983977Y-23147335D01*
X236069262Y-22718578D01*
X236069262Y-22281422D01*
X265230738Y-22281422D01*
X265230738Y-22718578D01*
X265316023Y-23147335D01*
X265483316Y-23551215D01*
X265726187Y-23914697D01*
X266035303Y-24223813D01*
X266398785Y-24466684D01*
X266802665Y-24633977D01*
X267231422Y-24719262D01*
X267668578Y-24719262D01*
X268097335Y-24633977D01*
X268501215Y-24466684D01*
X268864697Y-24223813D01*
X269173813Y-23914697D01*
X269416684Y-23551215D01*
X269583977Y-23147335D01*
X269669262Y-22718578D01*
X269669262Y-22281422D01*
X269583977Y-21852665D01*
X269416684Y-21448785D01*
X269173813Y-21085303D01*
X268864697Y-20776187D01*
X268501215Y-20533316D01*
X268097335Y-20366023D01*
X267668578Y-20280738D01*
X267231422Y-20280738D01*
X266802665Y-20366023D01*
X266398785Y-20533316D01*
X266035303Y-20776187D01*
X265726187Y-21085303D01*
X265483316Y-21448785D01*
X265316023Y-21852665D01*
X265230738Y-22281422D01*
X236069262Y-22281422D01*
X235983977Y-21852665D01*
X235816684Y-21448785D01*
X235573813Y-21085303D01*
X235264697Y-20776187D01*
X234901215Y-20533316D01*
X234497335Y-20366023D01*
X234068578Y-20280738D01*
X233631422Y-20280738D01*
X233202665Y-20366023D01*
X232798785Y-20533316D01*
X232435303Y-20776187D01*
X232126187Y-21085303D01*
X231883316Y-21448785D01*
X231716023Y-21852665D01*
X231630738Y-22281422D01*
X202469262Y-22281422D01*
X202383977Y-21852665D01*
X202216684Y-21448785D01*
X201973813Y-21085303D01*
X201664697Y-20776187D01*
X201301215Y-20533316D01*
X200897335Y-20366023D01*
X200468578Y-20280738D01*
X200031422Y-20280738D01*
X199602665Y-20366023D01*
X199198785Y-20533316D01*
X198835303Y-20776187D01*
X198526187Y-21085303D01*
X198283316Y-21448785D01*
X198116023Y-21852665D01*
X198030738Y-22281422D01*
X168869262Y-22281422D01*
X168783977Y-21852665D01*
X168616684Y-21448785D01*
X168373813Y-21085303D01*
X168064697Y-20776187D01*
X167701215Y-20533316D01*
X167297335Y-20366023D01*
X166868578Y-20280738D01*
X166431422Y-20280738D01*
X166002665Y-20366023D01*
X165598785Y-20533316D01*
X165235303Y-20776187D01*
X164926187Y-21085303D01*
X164683316Y-21448785D01*
X164516023Y-21852665D01*
X164430738Y-22281422D01*
X152124928Y-22281422D01*
X152116695Y-22261046D01*
X152112041Y-22252293D01*
X152037780Y-22114951D01*
X152001792Y-22061598D01*
X151966560Y-22007758D01*
X151960295Y-22000075D01*
X151860772Y-21879773D01*
X151815118Y-21834436D01*
X151770085Y-21788450D01*
X151762453Y-21782137D01*
X151762449Y-21782133D01*
X151762445Y-21782130D01*
X151641453Y-21683452D01*
X151587888Y-21647864D01*
X151534759Y-21611485D01*
X151526041Y-21606772D01*
X151526033Y-21606768D01*
X151388181Y-21533470D01*
X151328715Y-21508960D01*
X151269537Y-21483597D01*
X151260067Y-21480666D01*
X151110598Y-21435539D01*
X151047483Y-21423042D01*
X150984530Y-21409661D01*
X150974671Y-21408625D01*
X150819792Y-21393439D01*
X150784877Y-21390000D01*
X84315123Y-21390000D01*
X84284917Y-21392975D01*
X84280062Y-21392941D01*
X84270196Y-21393909D01*
X84114920Y-21410230D01*
X84051903Y-21423166D01*
X83988678Y-21435226D01*
X83979188Y-21438092D01*
X83979183Y-21438093D01*
X83979178Y-21438095D01*
X83830038Y-21484261D01*
X83770743Y-21509186D01*
X83711046Y-21533305D01*
X83702293Y-21537959D01*
X83564951Y-21612220D01*
X83511598Y-21648208D01*
X83457758Y-21683440D01*
X83450075Y-21689705D01*
X83329773Y-21789228D01*
X83284436Y-21834882D01*
X83238450Y-21879915D01*
X83232137Y-21887547D01*
X83232133Y-21887551D01*
X83232132Y-21887553D01*
X83133452Y-22008547D01*
X83097864Y-22062112D01*
X83061485Y-22115241D01*
X83056771Y-22123962D01*
X82983470Y-22261819D01*
X82958960Y-22321285D01*
X82933597Y-22380463D01*
X82930666Y-22389933D01*
X82885539Y-22539402D01*
X82873042Y-22602517D01*
X82859661Y-22665470D01*
X82858625Y-22675329D01*
X82843453Y-22830062D01*
X82840000Y-22865124D01*
X81740112Y-22865124D01*
X81769262Y-22718578D01*
X81769262Y-22281422D01*
X81683977Y-21852665D01*
X81516684Y-21448785D01*
X81273813Y-21085303D01*
X80964697Y-20776187D01*
X80601215Y-20533316D01*
X80197335Y-20366023D01*
X79768578Y-20280738D01*
X79331422Y-20280738D01*
X78902665Y-20366023D01*
X78498785Y-20533316D01*
X78135303Y-20776187D01*
X77826187Y-21085303D01*
X77583316Y-21448785D01*
X77416023Y-21852665D01*
X77330738Y-22281422D01*
X73769262Y-22281422D01*
X73683977Y-21852665D01*
X73516684Y-21448785D01*
X73273813Y-21085303D01*
X72964697Y-20776187D01*
X72601215Y-20533316D01*
X72197335Y-20366023D01*
X71768578Y-20280738D01*
X71331422Y-20280738D01*
X70902665Y-20366023D01*
X70498785Y-20533316D01*
X70135303Y-20776187D01*
X69826187Y-21085303D01*
X69583316Y-21448785D01*
X69416023Y-21852665D01*
X69330738Y-22281422D01*
X51269262Y-22281422D01*
X51183977Y-21852665D01*
X51016684Y-21448785D01*
X50773813Y-21085303D01*
X50464697Y-20776187D01*
X50101215Y-20533316D01*
X49697335Y-20366023D01*
X49268578Y-20280738D01*
X48831422Y-20280738D01*
X48402665Y-20366023D01*
X47998785Y-20533316D01*
X47635303Y-20776187D01*
X47326187Y-21085303D01*
X47083316Y-21448785D01*
X46916023Y-21852665D01*
X46830738Y-22281422D01*
X17710000Y-22281422D01*
X17710000Y-18632279D01*
X17738625Y-18340341D01*
X17814035Y-18090571D01*
X17936522Y-17860208D01*
X18101422Y-17658020D01*
X18302450Y-17491714D01*
X18412740Y-17432081D01*
X18174041Y-17670780D01*
X17980180Y-17960914D01*
X17846646Y-18283293D01*
X17778571Y-18625529D01*
X17778571Y-18974471D01*
X17846646Y-19316707D01*
X17980180Y-19639086D01*
X18174041Y-19929220D01*
X18420780Y-20175959D01*
X18710914Y-20369820D01*
X19033293Y-20503354D01*
X19375529Y-20571429D01*
X19724471Y-20571429D01*
X20066707Y-20503354D01*
X20389086Y-20369820D01*
X20679220Y-20175959D01*
X20925959Y-19929220D01*
X21119820Y-19639086D01*
X21253354Y-19316707D01*
X21321429Y-18974471D01*
X21321429Y-18625529D01*
X21253354Y-18283293D01*
X21119820Y-17960914D01*
X20925959Y-17670780D01*
X20679220Y-17424041D01*
X20433715Y-17260000D01*
X158666285Y-17260000D01*
X158420780Y-17424041D01*
%TA.AperFunction,NonConductor*%
D11*
G36*
X158420780Y-17424041D02*
G01*
X158174041Y-17670780D01*
X157980180Y-17960914D01*
X157846646Y-18283293D01*
X157778571Y-18625529D01*
X157778571Y-18974471D01*
X157846646Y-19316707D01*
X157980180Y-19639086D01*
X158174041Y-19929220D01*
X158420780Y-20175959D01*
X158710914Y-20369820D01*
X159033293Y-20503354D01*
X159375529Y-20571429D01*
X159724471Y-20571429D01*
X160066707Y-20503354D01*
X160389086Y-20369820D01*
X160679220Y-20175959D01*
X160925959Y-19929220D01*
X161119820Y-19639086D01*
X161253354Y-19316707D01*
X161321429Y-18974471D01*
X161321429Y-18625529D01*
X161253354Y-18283293D01*
X161119820Y-17960914D01*
X160925959Y-17670780D01*
X160679220Y-17424041D01*
X160433715Y-17260000D01*
X298666285Y-17260000D01*
X298420780Y-17424041D01*
X298174041Y-17670780D01*
X297980180Y-17960914D01*
X297846646Y-18283293D01*
X297778571Y-18625529D01*
X297778571Y-18974471D01*
X297846646Y-19316707D01*
X297980180Y-19639086D01*
X298174041Y-19929220D01*
X298420780Y-20175959D01*
X298710914Y-20369820D01*
X299033293Y-20503354D01*
X299375529Y-20571429D01*
X299724471Y-20571429D01*
X300066707Y-20503354D01*
X300389086Y-20369820D01*
X300679220Y-20175959D01*
X300925959Y-19929220D01*
X301119820Y-19639086D01*
X301253354Y-19316707D01*
X301321429Y-18974471D01*
X301321429Y-18625529D01*
X301253354Y-18283293D01*
X301119820Y-17960914D01*
X300925959Y-17670780D01*
X300687096Y-17431917D01*
X300789792Y-17486522D01*
X300991980Y-17651422D01*
X301158286Y-17852450D01*
X301282378Y-18081954D01*
X301359531Y-18331195D01*
X301390000Y-18621089D01*
X301390001Y-43067711D01*
X301361375Y-43359660D01*
X301285965Y-43609429D01*
X301163477Y-43839794D01*
X300998579Y-44041979D01*
X300797546Y-44208288D01*
X300687259Y-44267920D01*
X300925959Y-44029220D01*
X301119820Y-43739086D01*
X301253354Y-43416707D01*
X301321429Y-43074471D01*
X301321429Y-42725529D01*
X301253354Y-42383293D01*
X301119820Y-42060914D01*
X300925959Y-41770780D01*
X300679220Y-41524041D01*
X300389086Y-41330180D01*
X300066707Y-41196646D01*
X299724471Y-41128571D01*
X299375529Y-41128571D01*
X299033293Y-41196646D01*
X298710914Y-41330180D01*
X298420780Y-41524041D01*
X298174041Y-41770780D01*
X297980180Y-42060914D01*
X297846646Y-42383293D01*
X297778571Y-42725529D01*
X297778571Y-43074471D01*
X297846646Y-43416707D01*
X297980180Y-43739086D01*
X298174041Y-44029220D01*
X298420780Y-44275959D01*
X298666285Y-44440000D01*
X160433715Y-44440000D01*
X160679220Y-44275959D01*
X160925959Y-44029220D01*
X161119820Y-43739086D01*
X161253354Y-43416707D01*
X161321429Y-43074471D01*
X161321429Y-42725529D01*
X161253354Y-42383293D01*
X161119820Y-42060914D01*
X160925959Y-41770780D01*
X160679220Y-41524041D01*
X160389086Y-41330180D01*
X160066707Y-41196646D01*
X159724471Y-41128571D01*
X159375529Y-41128571D01*
X159033293Y-41196646D01*
X158710914Y-41330180D01*
X158420780Y-41524041D01*
X158174041Y-41770780D01*
X157980180Y-42060914D01*
X157846646Y-42383293D01*
X157778571Y-42725529D01*
X157778571Y-43074471D01*
X157846646Y-43416707D01*
X157980180Y-43739086D01*
X158174041Y-44029220D01*
X158420780Y-44275959D01*
X158666285Y-44440000D01*
X20433715Y-44440000D01*
X20679220Y-44275959D01*
X20925959Y-44029220D01*
X21119820Y-43739086D01*
X21253354Y-43416707D01*
X21321429Y-43074471D01*
X21321429Y-42725529D01*
X21253354Y-42383293D01*
X21119820Y-42060914D01*
X20925959Y-41770780D01*
X20679220Y-41524041D01*
X20389086Y-41330180D01*
X20066707Y-41196646D01*
X19724471Y-41128571D01*
X19375529Y-41128571D01*
X19033293Y-41196646D01*
X18710914Y-41330180D01*
X18420780Y-41524041D01*
X18174041Y-41770780D01*
X17980180Y-42060914D01*
X17846646Y-42383293D01*
X17778571Y-42725529D01*
X17778571Y-43074471D01*
X17846646Y-43416707D01*
X17980180Y-43739086D01*
X18174041Y-44029220D01*
X18412904Y-44268083D01*
X18310206Y-44213477D01*
X18108021Y-44048579D01*
X17941712Y-43847546D01*
X17817622Y-43618046D01*
X17740469Y-43368805D01*
X17710000Y-43078911D01*
X17710000Y-30900000D01*
X52520000Y-30900000D01*
X52609613Y-31952875D01*
X52875874Y-32975461D01*
X53311122Y-33938339D01*
X53902837Y-34813811D01*
X54633996Y-35576688D01*
X55483566Y-36205027D01*
X56427104Y-36680749D01*
X57437468Y-36990169D01*
X58485591Y-37124387D01*
X59541321Y-37079540D01*
X60574286Y-36856919D01*
X61554769Y-36462928D01*
X62454565Y-35908902D01*
X63247786Y-35210779D01*
X63911615Y-34388643D01*
X64426953Y-33466145D01*
X64778976Y-32469823D01*
X64957556Y-31428341D01*
X64957556Y-30371659D01*
X64778976Y-29330177D01*
X64426953Y-28333855D01*
X63911615Y-27411357D01*
X63247786Y-26589221D01*
X62454565Y-25891098D01*
X61554769Y-25337072D01*
X60574286Y-24943081D01*
X59541321Y-24720460D01*
X58485591Y-24675613D01*
X57437468Y-24809831D01*
X56427104Y-25119251D01*
X55483566Y-25594973D01*
X54633996Y-26223312D01*
X53902837Y-26986189D01*
X53311122Y-27861661D01*
X52875874Y-28824539D01*
X52609613Y-29847125D01*
X52520000Y-30900000D01*
X17710000Y-30900000D01*
X17710000Y-22281422D01*
X46830738Y-22281422D01*
X46830738Y-22718578D01*
X46916023Y-23147335D01*
X47083316Y-23551215D01*
X47326187Y-23914697D01*
X47635303Y-24223813D01*
X47998785Y-24466684D01*
X48402665Y-24633977D01*
X48831422Y-24719262D01*
X49268578Y-24719262D01*
X49697335Y-24633977D01*
X50101215Y-24466684D01*
X50464697Y-24223813D01*
X50773813Y-23914697D01*
X51016684Y-23551215D01*
X51183977Y-23147335D01*
X51269262Y-22718578D01*
X51269262Y-22281422D01*
X69330738Y-22281422D01*
X69330738Y-22718578D01*
X69416023Y-23147335D01*
X69583316Y-23551215D01*
X69826187Y-23914697D01*
X70135303Y-24223813D01*
X70498785Y-24466684D01*
X70902665Y-24633977D01*
X71331422Y-24719262D01*
X71768578Y-24719262D01*
X72197335Y-24633977D01*
X72601215Y-24466684D01*
X72964697Y-24223813D01*
X73273813Y-23914697D01*
X73516684Y-23551215D01*
X73683977Y-23147335D01*
X73769262Y-22718578D01*
X73769262Y-22281422D01*
X77330738Y-22281422D01*
X77330738Y-22718578D01*
X77416023Y-23147335D01*
X77583316Y-23551215D01*
X77826187Y-23914697D01*
X78135303Y-24223813D01*
X78498785Y-24466684D01*
X78902665Y-24633977D01*
X79331422Y-24719262D01*
X79768578Y-24719262D01*
X80197335Y-24633977D01*
X80601215Y-24466684D01*
X80964697Y-24223813D01*
X81273813Y-23914697D01*
X81516684Y-23551215D01*
X81683977Y-23147335D01*
X81740112Y-22865124D01*
X82840000Y-22865124D01*
X82840001Y-38934877D01*
X82842975Y-38965073D01*
X82842941Y-38969938D01*
X82843909Y-38979803D01*
X82860230Y-39135080D01*
X82873166Y-39198097D01*
X82885226Y-39261322D01*
X82888092Y-39270811D01*
X82888093Y-39270817D01*
X82888095Y-39270822D01*
X82934260Y-39419962D01*
X82959199Y-39479290D01*
X82983305Y-39538954D01*
X82987959Y-39547707D01*
X83062220Y-39685049D01*
X83098190Y-39738375D01*
X83133439Y-39792242D01*
X83139705Y-39799924D01*
X83239228Y-39920227D01*
X83284885Y-39965566D01*
X83329915Y-40011549D01*
X83337553Y-40017868D01*
X83458547Y-40116548D01*
X83512105Y-40152132D01*
X83565241Y-40188515D01*
X83573962Y-40193230D01*
X83711819Y-40266530D01*
X83771285Y-40291040D01*
X83830463Y-40316403D01*
X83839933Y-40319334D01*
X83989402Y-40364461D01*
X84052503Y-40376955D01*
X84115469Y-40390339D01*
X84125328Y-40391375D01*
X84280209Y-40406561D01*
X84315123Y-40410000D01*
X150784877Y-40410000D01*
X150815083Y-40407025D01*
X150819938Y-40407059D01*
X150829803Y-40406091D01*
X150985080Y-40389770D01*
X151048097Y-40376834D01*
X151111322Y-40364774D01*
X151120812Y-40361908D01*
X151120817Y-40361907D01*
X151120822Y-40361905D01*
X151269962Y-40315740D01*
X151329290Y-40290801D01*
X151388954Y-40266695D01*
X151397707Y-40262041D01*
X151535049Y-40187780D01*
X151588375Y-40151810D01*
X151642242Y-40116561D01*
X151649924Y-40110295D01*
X151770227Y-40010772D01*
X151815566Y-39965115D01*
X151861549Y-39920085D01*
X151867868Y-39912447D01*
X151966548Y-39791453D01*
X152002132Y-39737895D01*
X152038515Y-39684759D01*
X152043230Y-39676038D01*
X152116530Y-39538181D01*
X152141040Y-39478715D01*
X152166403Y-39419537D01*
X152169334Y-39410067D01*
X152214461Y-39260598D01*
X152226955Y-39197497D01*
X152240339Y-39134531D01*
X152241375Y-39124672D01*
X152256611Y-38969285D01*
X152260000Y-38934877D01*
X152260000Y-30900000D01*
X170120000Y-30900000D01*
X170209613Y-31952875D01*
X170475874Y-32975461D01*
X170911122Y-33938339D01*
X171502837Y-34813811D01*
X172233996Y-35576688D01*
X173083566Y-36205027D01*
X174027104Y-36680749D01*
X175037468Y-36990169D01*
X176085591Y-37124387D01*
X177141321Y-37079540D01*
X178174286Y-36856919D01*
X179154769Y-36462928D01*
X180054565Y-35908902D01*
X180847786Y-35210779D01*
X181511615Y-34388643D01*
X182026953Y-33466145D01*
X182378976Y-32469823D01*
X182557556Y-31428341D01*
X182557556Y-30900000D01*
X203720000Y-30900000D01*
X203809613Y-31952875D01*
X204075874Y-32975461D01*
X204511122Y-33938339D01*
X205102837Y-34813811D01*
X205833996Y-35576688D01*
X206683566Y-36205027D01*
X207627104Y-36680749D01*
X208637468Y-36990169D01*
X209685591Y-37124387D01*
X210741321Y-37079540D01*
X211774286Y-36856919D01*
X212754769Y-36462928D01*
X213654565Y-35908902D01*
X214447786Y-35210779D01*
X215111615Y-34388643D01*
X215626953Y-33466145D01*
X215978976Y-32469823D01*
X216157556Y-31428341D01*
X216157556Y-30900000D01*
X237320000Y-30900000D01*
X237409613Y-31952875D01*
X237675874Y-32975461D01*
X238111122Y-33938339D01*
X238702837Y-34813811D01*
X239433996Y-35576688D01*
X240283566Y-36205027D01*
X241227104Y-36680749D01*
X242237468Y-36990169D01*
X243285591Y-37124387D01*
X244341321Y-37079540D01*
X245374286Y-36856919D01*
X246354769Y-36462928D01*
X247254565Y-35908902D01*
X248047786Y-35210779D01*
X248711615Y-34388643D01*
X249226953Y-33466145D01*
X249578976Y-32469823D01*
X249757556Y-31428341D01*
X249757556Y-30900000D01*
X270920000Y-30900000D01*
X271009613Y-31952875D01*
X271275874Y-32975461D01*
X271711122Y-33938339D01*
X272302837Y-34813811D01*
X273033996Y-35576688D01*
X273883566Y-36205027D01*
X274827104Y-36680749D01*
X275837468Y-36990169D01*
X276885591Y-37124387D01*
X277941321Y-37079540D01*
X278974286Y-36856919D01*
X279954769Y-36462928D01*
X280854565Y-35908902D01*
X281647786Y-35210779D01*
X282311615Y-34388643D01*
X282826953Y-33466145D01*
X283178976Y-32469823D01*
X283357556Y-31428341D01*
X283357556Y-30371659D01*
X283178976Y-29330177D01*
X282826953Y-28333855D01*
X282311615Y-27411357D01*
X281647786Y-26589221D01*
X280854565Y-25891098D01*
X279954769Y-25337072D01*
X278974286Y-24943081D01*
X277941321Y-24720460D01*
X276885591Y-24675613D01*
X275837468Y-24809831D01*
X274827104Y-25119251D01*
X273883566Y-25594973D01*
X273033996Y-26223312D01*
X272302837Y-26986189D01*
X271711122Y-27861661D01*
X271275874Y-28824539D01*
X271009613Y-29847125D01*
X270920000Y-30900000D01*
X249757556Y-30900000D01*
X249757556Y-30371659D01*
X249578976Y-29330177D01*
X249226953Y-28333855D01*
X248711615Y-27411357D01*
X248047786Y-26589221D01*
X247254565Y-25891098D01*
X246354769Y-25337072D01*
X245374286Y-24943081D01*
X244341321Y-24720460D01*
X243285591Y-24675613D01*
X242237468Y-24809831D01*
X241227104Y-25119251D01*
X240283566Y-25594973D01*
X239433996Y-26223312D01*
X238702837Y-26986189D01*
X238111122Y-27861661D01*
X237675874Y-28824539D01*
X237409613Y-29847125D01*
X237320000Y-30900000D01*
X216157556Y-30900000D01*
X216157556Y-30371659D01*
X215978976Y-29330177D01*
X215626953Y-28333855D01*
X215111615Y-27411357D01*
X214447786Y-26589221D01*
X213654565Y-25891098D01*
X212754769Y-25337072D01*
X211774286Y-24943081D01*
X210741321Y-24720460D01*
X209685591Y-24675613D01*
X208637468Y-24809831D01*
X207627104Y-25119251D01*
X206683566Y-25594973D01*
X205833996Y-26223312D01*
X205102837Y-26986189D01*
X204511122Y-27861661D01*
X204075874Y-28824539D01*
X203809613Y-29847125D01*
X203720000Y-30900000D01*
X182557556Y-30900000D01*
X182557556Y-30371659D01*
X182378976Y-29330177D01*
X182026953Y-28333855D01*
X181511615Y-27411357D01*
X180847786Y-26589221D01*
X180054565Y-25891098D01*
X179154769Y-25337072D01*
X178174286Y-24943081D01*
X177141321Y-24720460D01*
X176085591Y-24675613D01*
X175037468Y-24809831D01*
X174027104Y-25119251D01*
X173083566Y-25594973D01*
X172233996Y-26223312D01*
X171502837Y-26986189D01*
X170911122Y-27861661D01*
X170475874Y-28824539D01*
X170209613Y-29847125D01*
X170120000Y-30900000D01*
X152260000Y-30900000D01*
X152260000Y-22865123D01*
X152257025Y-22834917D01*
X152257059Y-22830062D01*
X152256091Y-22820196D01*
X152239770Y-22664920D01*
X152226834Y-22601903D01*
X152214774Y-22538678D01*
X152211908Y-22529188D01*
X152211907Y-22529183D01*
X152211905Y-22529178D01*
X152165739Y-22380038D01*
X152140814Y-22320743D01*
X152124928Y-22281422D01*
X164430738Y-22281422D01*
X164430738Y-22718578D01*
X164516023Y-23147335D01*
X164683316Y-23551215D01*
X164926187Y-23914697D01*
X165235303Y-24223813D01*
X165598785Y-24466684D01*
X166002665Y-24633977D01*
X166431422Y-24719262D01*
X166868578Y-24719262D01*
X167297335Y-24633977D01*
X167701215Y-24466684D01*
X168064697Y-24223813D01*
X168373813Y-23914697D01*
X168616684Y-23551215D01*
X168783977Y-23147335D01*
X168869262Y-22718578D01*
X168869262Y-22281422D01*
X198030738Y-22281422D01*
X198030738Y-22718578D01*
X198116023Y-23147335D01*
X198283316Y-23551215D01*
X198526187Y-23914697D01*
X198835303Y-24223813D01*
X199198785Y-24466684D01*
X199602665Y-24633977D01*
X200031422Y-24719262D01*
X200468578Y-24719262D01*
X200897335Y-24633977D01*
X201301215Y-24466684D01*
X201664697Y-24223813D01*
X201973813Y-23914697D01*
X202216684Y-23551215D01*
X202383977Y-23147335D01*
X202469262Y-22718578D01*
X202469262Y-22281422D01*
X231630738Y-22281422D01*
X231630738Y-22718578D01*
X231716023Y-23147335D01*
X231883316Y-23551215D01*
X232126187Y-23914697D01*
X232435303Y-24223813D01*
X232798785Y-24466684D01*
X233202665Y-24633977D01*
X233631422Y-24719262D01*
X234068578Y-24719262D01*
X234497335Y-24633977D01*
X234901215Y-24466684D01*
X235264697Y-24223813D01*
X235573813Y-23914697D01*
X235816684Y-23551215D01*
X235983977Y-23147335D01*
X236069262Y-22718578D01*
X236069262Y-22281422D01*
X265230738Y-22281422D01*
X265230738Y-22718578D01*
X265316023Y-23147335D01*
X265483316Y-23551215D01*
X265726187Y-23914697D01*
X266035303Y-24223813D01*
X266398785Y-24466684D01*
X266802665Y-24633977D01*
X267231422Y-24719262D01*
X267668578Y-24719262D01*
X268097335Y-24633977D01*
X268501215Y-24466684D01*
X268864697Y-24223813D01*
X269173813Y-23914697D01*
X269416684Y-23551215D01*
X269583977Y-23147335D01*
X269669262Y-22718578D01*
X269669262Y-22281422D01*
X269583977Y-21852665D01*
X269416684Y-21448785D01*
X269173813Y-21085303D01*
X268864697Y-20776187D01*
X268501215Y-20533316D01*
X268097335Y-20366023D01*
X267668578Y-20280738D01*
X267231422Y-20280738D01*
X266802665Y-20366023D01*
X266398785Y-20533316D01*
X266035303Y-20776187D01*
X265726187Y-21085303D01*
X265483316Y-21448785D01*
X265316023Y-21852665D01*
X265230738Y-22281422D01*
X236069262Y-22281422D01*
X235983977Y-21852665D01*
X235816684Y-21448785D01*
X235573813Y-21085303D01*
X235264697Y-20776187D01*
X234901215Y-20533316D01*
X234497335Y-20366023D01*
X234068578Y-20280738D01*
X233631422Y-20280738D01*
X233202665Y-20366023D01*
X232798785Y-20533316D01*
X232435303Y-20776187D01*
X232126187Y-21085303D01*
X231883316Y-21448785D01*
X231716023Y-21852665D01*
X231630738Y-22281422D01*
X202469262Y-22281422D01*
X202383977Y-21852665D01*
X202216684Y-21448785D01*
X201973813Y-21085303D01*
X201664697Y-20776187D01*
X201301215Y-20533316D01*
X200897335Y-20366023D01*
X200468578Y-20280738D01*
X200031422Y-20280738D01*
X199602665Y-20366023D01*
X199198785Y-20533316D01*
X198835303Y-20776187D01*
X198526187Y-21085303D01*
X198283316Y-21448785D01*
X198116023Y-21852665D01*
X198030738Y-22281422D01*
X168869262Y-22281422D01*
X168783977Y-21852665D01*
X168616684Y-21448785D01*
X168373813Y-21085303D01*
X168064697Y-20776187D01*
X167701215Y-20533316D01*
X167297335Y-20366023D01*
X166868578Y-20280738D01*
X166431422Y-20280738D01*
X166002665Y-20366023D01*
X165598785Y-20533316D01*
X165235303Y-20776187D01*
X164926187Y-21085303D01*
X164683316Y-21448785D01*
X164516023Y-21852665D01*
X164430738Y-22281422D01*
X152124928Y-22281422D01*
X152116695Y-22261046D01*
X152112041Y-22252293D01*
X152037780Y-22114951D01*
X152001792Y-22061598D01*
X151966560Y-22007758D01*
X151960295Y-22000075D01*
X151860772Y-21879773D01*
X151815118Y-21834436D01*
X151770085Y-21788450D01*
X151762453Y-21782137D01*
X151762449Y-21782133D01*
X151762445Y-21782130D01*
X151641453Y-21683452D01*
X151587888Y-21647864D01*
X151534759Y-21611485D01*
X151526041Y-21606772D01*
X151526033Y-21606768D01*
X151388181Y-21533470D01*
X151328715Y-21508960D01*
X151269537Y-21483597D01*
X151260067Y-21480666D01*
X151110598Y-21435539D01*
X151047483Y-21423042D01*
X150984530Y-21409661D01*
X150974671Y-21408625D01*
X150819792Y-21393439D01*
X150784877Y-21390000D01*
X84315123Y-21390000D01*
X84284917Y-21392975D01*
X84280062Y-21392941D01*
X84270196Y-21393909D01*
X84114920Y-21410230D01*
X84051903Y-21423166D01*
X83988678Y-21435226D01*
X83979188Y-21438092D01*
X83979183Y-21438093D01*
X83979178Y-21438095D01*
X83830038Y-21484261D01*
X83770743Y-21509186D01*
X83711046Y-21533305D01*
X83702293Y-21537959D01*
X83564951Y-21612220D01*
X83511598Y-21648208D01*
X83457758Y-21683440D01*
X83450075Y-21689705D01*
X83329773Y-21789228D01*
X83284436Y-21834882D01*
X83238450Y-21879915D01*
X83232137Y-21887547D01*
X83232133Y-21887551D01*
X83232132Y-21887553D01*
X83133452Y-22008547D01*
X83097864Y-22062112D01*
X83061485Y-22115241D01*
X83056771Y-22123962D01*
X82983470Y-22261819D01*
X82958960Y-22321285D01*
X82933597Y-22380463D01*
X82930666Y-22389933D01*
X82885539Y-22539402D01*
X82873042Y-22602517D01*
X82859661Y-22665470D01*
X82858625Y-22675329D01*
X82843453Y-22830062D01*
X82840000Y-22865124D01*
X81740112Y-22865124D01*
X81769262Y-22718578D01*
X81769262Y-22281422D01*
X81683977Y-21852665D01*
X81516684Y-21448785D01*
X81273813Y-21085303D01*
X80964697Y-20776187D01*
X80601215Y-20533316D01*
X80197335Y-20366023D01*
X79768578Y-20280738D01*
X79331422Y-20280738D01*
X78902665Y-20366023D01*
X78498785Y-20533316D01*
X78135303Y-20776187D01*
X77826187Y-21085303D01*
X77583316Y-21448785D01*
X77416023Y-21852665D01*
X77330738Y-22281422D01*
X73769262Y-22281422D01*
X73683977Y-21852665D01*
X73516684Y-21448785D01*
X73273813Y-21085303D01*
X72964697Y-20776187D01*
X72601215Y-20533316D01*
X72197335Y-20366023D01*
X71768578Y-20280738D01*
X71331422Y-20280738D01*
X70902665Y-20366023D01*
X70498785Y-20533316D01*
X70135303Y-20776187D01*
X69826187Y-21085303D01*
X69583316Y-21448785D01*
X69416023Y-21852665D01*
X69330738Y-22281422D01*
X51269262Y-22281422D01*
X51183977Y-21852665D01*
X51016684Y-21448785D01*
X50773813Y-21085303D01*
X50464697Y-20776187D01*
X50101215Y-20533316D01*
X49697335Y-20366023D01*
X49268578Y-20280738D01*
X48831422Y-20280738D01*
X48402665Y-20366023D01*
X47998785Y-20533316D01*
X47635303Y-20776187D01*
X47326187Y-21085303D01*
X47083316Y-21448785D01*
X46916023Y-21852665D01*
X46830738Y-22281422D01*
X17710000Y-22281422D01*
X17710000Y-18632279D01*
X17738625Y-18340341D01*
X17814035Y-18090571D01*
X17936522Y-17860208D01*
X18101422Y-17658020D01*
X18302450Y-17491714D01*
X18412740Y-17432081D01*
X18174041Y-17670780D01*
X17980180Y-17960914D01*
X17846646Y-18283293D01*
X17778571Y-18625529D01*
X17778571Y-18974471D01*
X17846646Y-19316707D01*
X17980180Y-19639086D01*
X18174041Y-19929220D01*
X18420780Y-20175959D01*
X18710914Y-20369820D01*
X19033293Y-20503354D01*
X19375529Y-20571429D01*
X19724471Y-20571429D01*
X20066707Y-20503354D01*
X20389086Y-20369820D01*
X20679220Y-20175959D01*
X20925959Y-19929220D01*
X21119820Y-19639086D01*
X21253354Y-19316707D01*
X21321429Y-18974471D01*
X21321429Y-18625529D01*
X21253354Y-18283293D01*
X21119820Y-17960914D01*
X20925959Y-17670780D01*
X20679220Y-17424041D01*
X20433715Y-17260000D01*
X158666285Y-17260000D01*
X158420780Y-17424041D01*
G37*
%TD.AperFunction*%
M02*
