%TF.GenerationSoftware,KiCad,Pcbnew,(5.1.9-0-10_14)*%
%TF.CreationDate,2021-01-10T14:58:04+09:00*%
%TF.ProjectId,Unison,556e6973-6f6e-42e6-9b69-6361645f7063,v01_1AU*%
%TF.SameCoordinates,Original*%
%TF.FileFunction,Legend,Bot*%
%TF.FilePolarity,Positive*%
%FSLAX46Y46*%
G04 Gerber Fmt 4.6, Leading zero omitted, Abs format (unit mm)*
G04 Created by KiCad (PCBNEW (5.1.9-0-10_14)) date 2021-01-10 14:58:04*
%MOMM*%
%LPD*%
G01*
G04 APERTURE LIST*
%ADD10C,0.150000*%
%ADD11C,0.200000*%
%ADD12C,0.120000*%
%ADD13C,0.203200*%
%ADD14C,0.254000*%
%ADD15C,0.050000*%
G04 APERTURE END LIST*
D10*
X294219047Y-26352380D02*
X294219047Y-27066666D01*
X294266666Y-27209523D01*
X294361904Y-27304761D01*
X294504761Y-27352380D01*
X294600000Y-27352380D01*
X293266666Y-27352380D02*
X293742857Y-27352380D01*
X293742857Y-26352380D01*
X292361904Y-27257142D02*
X292409523Y-27304761D01*
X292552380Y-27352380D01*
X292647619Y-27352380D01*
X292790476Y-27304761D01*
X292885714Y-27209523D01*
X292933333Y-27114285D01*
X292980952Y-26923809D01*
X292980952Y-26780952D01*
X292933333Y-26590476D01*
X292885714Y-26495238D01*
X292790476Y-26400000D01*
X292647619Y-26352380D01*
X292552380Y-26352380D01*
X292409523Y-26400000D01*
X292361904Y-26447619D01*
X291647619Y-26352380D02*
X291647619Y-27066666D01*
X291695238Y-27209523D01*
X291790476Y-27304761D01*
X291933333Y-27352380D01*
X292028571Y-27352380D01*
X290695238Y-27352380D02*
X291171428Y-27352380D01*
X291171428Y-26352380D01*
X289790476Y-27257142D02*
X289838095Y-27304761D01*
X289980952Y-27352380D01*
X290076190Y-27352380D01*
X290219047Y-27304761D01*
X290314285Y-27209523D01*
X290361904Y-27114285D01*
X290409523Y-26923809D01*
X290409523Y-26780952D01*
X290361904Y-26590476D01*
X290314285Y-26495238D01*
X290219047Y-26400000D01*
X290076190Y-26352380D01*
X289980952Y-26352380D01*
X289838095Y-26400000D01*
X289790476Y-26447619D01*
X289076190Y-26352380D02*
X289076190Y-27066666D01*
X289123809Y-27209523D01*
X289219047Y-27304761D01*
X289361904Y-27352380D01*
X289457142Y-27352380D01*
X288123809Y-27352380D02*
X288600000Y-27352380D01*
X288600000Y-26352380D01*
X287219047Y-27257142D02*
X287266666Y-27304761D01*
X287409523Y-27352380D01*
X287504761Y-27352380D01*
X287647619Y-27304761D01*
X287742857Y-27209523D01*
X287790476Y-27114285D01*
X287838095Y-26923809D01*
X287838095Y-26780952D01*
X287790476Y-26590476D01*
X287742857Y-26495238D01*
X287647619Y-26400000D01*
X287504761Y-26352380D01*
X287409523Y-26352380D01*
X287266666Y-26400000D01*
X287219047Y-26447619D01*
X286504761Y-26352380D02*
X286504761Y-27066666D01*
X286552380Y-27209523D01*
X286647619Y-27304761D01*
X286790476Y-27352380D01*
X286885714Y-27352380D01*
X285552380Y-27352380D02*
X286028571Y-27352380D01*
X286028571Y-26352380D01*
X284647619Y-27257142D02*
X284695238Y-27304761D01*
X284838095Y-27352380D01*
X284933333Y-27352380D01*
X285076190Y-27304761D01*
X285171428Y-27209523D01*
X285219047Y-27114285D01*
X285266666Y-26923809D01*
X285266666Y-26780952D01*
X285219047Y-26590476D01*
X285171428Y-26495238D01*
X285076190Y-26400000D01*
X284933333Y-26352380D01*
X284838095Y-26352380D01*
X284695238Y-26400000D01*
X284647619Y-26447619D01*
D11*
X294412857Y-19353571D02*
X294412857Y-20567857D01*
X294341428Y-20710714D01*
X294270000Y-20782142D01*
X294127142Y-20853571D01*
X293841428Y-20853571D01*
X293698571Y-20782142D01*
X293627142Y-20710714D01*
X293555714Y-20567857D01*
X293555714Y-19353571D01*
X292841428Y-19853571D02*
X292841428Y-20853571D01*
X292841428Y-19996428D02*
X292770000Y-19925000D01*
X292627142Y-19853571D01*
X292412857Y-19853571D01*
X292270000Y-19925000D01*
X292198571Y-20067857D01*
X292198571Y-20853571D01*
X291484285Y-20853571D02*
X291484285Y-19853571D01*
X291484285Y-19353571D02*
X291555714Y-19425000D01*
X291484285Y-19496428D01*
X291412857Y-19425000D01*
X291484285Y-19353571D01*
X291484285Y-19496428D01*
X290841428Y-20782142D02*
X290698571Y-20853571D01*
X290412857Y-20853571D01*
X290270000Y-20782142D01*
X290198571Y-20639285D01*
X290198571Y-20567857D01*
X290270000Y-20425000D01*
X290412857Y-20353571D01*
X290627142Y-20353571D01*
X290770000Y-20282142D01*
X290841428Y-20139285D01*
X290841428Y-20067857D01*
X290770000Y-19925000D01*
X290627142Y-19853571D01*
X290412857Y-19853571D01*
X290270000Y-19925000D01*
X289341428Y-20853571D02*
X289484285Y-20782142D01*
X289555714Y-20710714D01*
X289627142Y-20567857D01*
X289627142Y-20139285D01*
X289555714Y-19996428D01*
X289484285Y-19925000D01*
X289341428Y-19853571D01*
X289127142Y-19853571D01*
X288984285Y-19925000D01*
X288912857Y-19996428D01*
X288841428Y-20139285D01*
X288841428Y-20567857D01*
X288912857Y-20710714D01*
X288984285Y-20782142D01*
X289127142Y-20853571D01*
X289341428Y-20853571D01*
X288198571Y-19853571D02*
X288198571Y-20853571D01*
X288198571Y-19996428D02*
X288127142Y-19925000D01*
X287984285Y-19853571D01*
X287770000Y-19853571D01*
X287627142Y-19925000D01*
X287555714Y-20067857D01*
X287555714Y-20853571D01*
X285841428Y-19853571D02*
X285484285Y-20853571D01*
X285127142Y-19853571D01*
X284270000Y-19353571D02*
X284127142Y-19353571D01*
X283984285Y-19425000D01*
X283912857Y-19496428D01*
X283841428Y-19639285D01*
X283770000Y-19925000D01*
X283770000Y-20282142D01*
X283841428Y-20567857D01*
X283912857Y-20710714D01*
X283984285Y-20782142D01*
X284127142Y-20853571D01*
X284270000Y-20853571D01*
X284412857Y-20782142D01*
X284484285Y-20710714D01*
X284555714Y-20567857D01*
X284627142Y-20282142D01*
X284627142Y-19925000D01*
X284555714Y-19639285D01*
X284484285Y-19496428D01*
X284412857Y-19425000D01*
X284270000Y-19353571D01*
X283270000Y-19353571D02*
X282341428Y-19353571D01*
X282841428Y-19925000D01*
X282627142Y-19925000D01*
X282484285Y-19996428D01*
X282412857Y-20067857D01*
X282341428Y-20210714D01*
X282341428Y-20567857D01*
X282412857Y-20710714D01*
X282484285Y-20782142D01*
X282627142Y-20853571D01*
X283055714Y-20853571D01*
X283198571Y-20782142D01*
X283270000Y-20710714D01*
X282055714Y-20996428D02*
X280912857Y-20996428D01*
X280627142Y-20425000D02*
X279912857Y-20425000D01*
X280770000Y-20853571D02*
X280270000Y-19353571D01*
X279770000Y-20853571D01*
X279270000Y-19353571D02*
X279270000Y-20567857D01*
X279198571Y-20710714D01*
X279127142Y-20782142D01*
X278984285Y-20853571D01*
X278698571Y-20853571D01*
X278555714Y-20782142D01*
X278484285Y-20710714D01*
X278412857Y-20567857D01*
X278412857Y-19353571D01*
X293484285Y-22589285D02*
X293555714Y-22517857D01*
X293698571Y-22446428D01*
X293841428Y-22446428D01*
X293984285Y-22517857D01*
X294055714Y-22589285D01*
X294127142Y-22732142D01*
X294127142Y-22875000D01*
X294055714Y-23017857D01*
X293984285Y-23089285D01*
X293841428Y-23160714D01*
X293698571Y-23160714D01*
X293555714Y-23089285D01*
X293484285Y-23017857D01*
X293484285Y-22446428D02*
X293484285Y-23017857D01*
X293412857Y-23089285D01*
X293341428Y-23089285D01*
X293198571Y-23017857D01*
X293127142Y-22875000D01*
X293127142Y-22517857D01*
X293270000Y-22303571D01*
X293484285Y-22160714D01*
X293770000Y-22089285D01*
X294055714Y-22160714D01*
X294270000Y-22303571D01*
X294412857Y-22517857D01*
X294484285Y-22803571D01*
X294412857Y-23089285D01*
X294270000Y-23303571D01*
X294055714Y-23446428D01*
X293770000Y-23517857D01*
X293484285Y-23446428D01*
X293270000Y-23303571D01*
X292484285Y-22303571D02*
X292484285Y-23589285D01*
X292555714Y-23732142D01*
X292698571Y-23803571D01*
X292770000Y-23803571D01*
X292484285Y-21803571D02*
X292555714Y-21875000D01*
X292484285Y-21946428D01*
X292412857Y-21875000D01*
X292484285Y-21803571D01*
X292484285Y-21946428D01*
X291770000Y-22303571D02*
X291770000Y-23803571D01*
X291770000Y-22375000D02*
X291627142Y-22303571D01*
X291341428Y-22303571D01*
X291198571Y-22375000D01*
X291127142Y-22446428D01*
X291055714Y-22589285D01*
X291055714Y-23017857D01*
X291127142Y-23160714D01*
X291198571Y-23232142D01*
X291341428Y-23303571D01*
X291627142Y-23303571D01*
X291770000Y-23232142D01*
X290484285Y-23232142D02*
X290341428Y-23303571D01*
X290055714Y-23303571D01*
X289912857Y-23232142D01*
X289841428Y-23089285D01*
X289841428Y-23017857D01*
X289912857Y-22875000D01*
X290055714Y-22803571D01*
X290270000Y-22803571D01*
X290412857Y-22732142D01*
X290484285Y-22589285D01*
X290484285Y-22517857D01*
X290412857Y-22375000D01*
X290270000Y-22303571D01*
X290055714Y-22303571D01*
X289912857Y-22375000D01*
X289198571Y-23303571D02*
X289198571Y-21803571D01*
X289055714Y-22732142D02*
X288627142Y-23303571D01*
X288627142Y-22303571D02*
X289198571Y-22875000D01*
X287412857Y-23232142D02*
X287555714Y-23303571D01*
X287841428Y-23303571D01*
X287984285Y-23232142D01*
X288055714Y-23089285D01*
X288055714Y-22517857D01*
X287984285Y-22375000D01*
X287841428Y-22303571D01*
X287555714Y-22303571D01*
X287412857Y-22375000D01*
X287341428Y-22517857D01*
X287341428Y-22660714D01*
X288055714Y-22803571D01*
X286698571Y-22303571D02*
X286698571Y-23303571D01*
X286698571Y-22446428D02*
X286627142Y-22375000D01*
X286484285Y-22303571D01*
X286270000Y-22303571D01*
X286127142Y-22375000D01*
X286055714Y-22517857D01*
X286055714Y-23303571D01*
X285341428Y-22303571D02*
X285341428Y-23303571D01*
X285341428Y-22446428D02*
X285270000Y-22375000D01*
X285127142Y-22303571D01*
X284912857Y-22303571D01*
X284770000Y-22375000D01*
X284698571Y-22517857D01*
X284698571Y-23303571D01*
D12*
%TO.C,R7*%
X38527064Y-25365000D02*
X38072936Y-25365000D01*
X38527064Y-26835000D02*
X38072936Y-26835000D01*
%TO.C,D102*%
X32900000Y-25400000D02*
X35300000Y-25400000D01*
X35300000Y-28500000D02*
X32350000Y-28500000D01*
%TO.C,C3*%
X111695543Y-40465010D02*
X112065010Y-40095543D01*
X112734990Y-41504457D02*
X113104457Y-41134990D01*
D13*
%TO.C,U1*%
X100511775Y-49600000D02*
X107300000Y-56388225D01*
X107300000Y-56388225D02*
X114088225Y-49600000D01*
X114088225Y-49600000D02*
X107300000Y-42811775D01*
X107300000Y-42811775D02*
X100511775Y-49600000D01*
D14*
X101925846Y-49600000D02*
G75*
G03*
X101925846Y-49600000I-282700J0D01*
G01*
D12*
%TO.C,Y1*%
X119100179Y-43718198D02*
X115918198Y-46900179D01*
X115918198Y-46900179D02*
X112099821Y-43081802D01*
D10*
%TO.C,L7*%
X233312786Y-19562061D02*
X233312786Y-19862061D01*
X233012786Y-19562061D02*
X233312786Y-19562061D01*
X233312786Y-19862061D02*
X233012786Y-19562061D01*
D12*
%TO.C,D94*%
X285150000Y-94800000D02*
X285150000Y-96800000D01*
X285150000Y-96800000D02*
X281250000Y-96800000D01*
X285150000Y-94800000D02*
X281250000Y-94800000D01*
%TO.C,C1*%
X119765000Y-49338748D02*
X119765000Y-49861252D01*
X121235000Y-49338748D02*
X121235000Y-49861252D01*
%TO.C,C2*%
X118834990Y-47004457D02*
X119204457Y-46634990D01*
X117795543Y-45965010D02*
X118165010Y-45595543D01*
%TO.C,C4*%
X105395543Y-60134990D02*
X105765010Y-60504457D01*
X106434990Y-59095543D02*
X106804457Y-59465010D01*
%TO.C,C5*%
X101634990Y-43604457D02*
X102004457Y-43234990D01*
X100595543Y-42565010D02*
X100965010Y-42195543D01*
%TO.C,C6*%
X99465010Y-40695543D02*
X99095543Y-41065010D01*
X100504457Y-41734990D02*
X100134990Y-42104457D01*
%TO.C,C7*%
X97535000Y-50861252D02*
X97535000Y-50338748D01*
X96065000Y-50861252D02*
X96065000Y-50338748D01*
%TO.C,D1*%
X19450000Y-31200000D02*
X19450000Y-29200000D01*
X19450000Y-29200000D02*
X23350000Y-29200000D01*
X19450000Y-31200000D02*
X23350000Y-31200000D01*
%TO.C,D2*%
X22000000Y-23250000D02*
X20000000Y-23250000D01*
X20000000Y-23250000D02*
X20000000Y-19350000D01*
X22000000Y-23250000D02*
X22000000Y-19350000D01*
%TO.C,D3*%
X19450000Y-34000000D02*
X19450000Y-32000000D01*
X19450000Y-32000000D02*
X23350000Y-32000000D01*
X19450000Y-34000000D02*
X23350000Y-34000000D01*
%TO.C,D4*%
X19250000Y-50400000D02*
X19250000Y-48400000D01*
X19250000Y-48400000D02*
X23150000Y-48400000D01*
X19250000Y-50400000D02*
X23150000Y-50400000D01*
%TO.C,D5*%
X19250000Y-66800000D02*
X19250000Y-64800000D01*
X19250000Y-64800000D02*
X23150000Y-64800000D01*
X19250000Y-66800000D02*
X23150000Y-66800000D01*
%TO.C,D6*%
X19050000Y-83200000D02*
X19050000Y-81200000D01*
X19050000Y-81200000D02*
X22950000Y-81200000D01*
X19050000Y-83200000D02*
X22950000Y-83200000D01*
%TO.C,D7*%
X19250000Y-99600000D02*
X19250000Y-97600000D01*
X19250000Y-97600000D02*
X23150000Y-97600000D01*
X19250000Y-99600000D02*
X23150000Y-99600000D01*
%TO.C,D9*%
X36050000Y-34000000D02*
X36050000Y-32000000D01*
X36050000Y-32000000D02*
X39950000Y-32000000D01*
X36050000Y-34000000D02*
X39950000Y-34000000D01*
%TO.C,D10*%
X35050000Y-50400000D02*
X35050000Y-48400000D01*
X35050000Y-48400000D02*
X38950000Y-48400000D01*
X35050000Y-50400000D02*
X38950000Y-50400000D01*
%TO.C,D11*%
X31850000Y-66800000D02*
X31850000Y-64800000D01*
X31850000Y-64800000D02*
X35750000Y-64800000D01*
X31850000Y-66800000D02*
X35750000Y-66800000D01*
%TO.C,D12*%
X36250000Y-83200000D02*
X36250000Y-81200000D01*
X36250000Y-81200000D02*
X40150000Y-81200000D01*
X36250000Y-83200000D02*
X40150000Y-83200000D01*
%TO.C,D13*%
X36250000Y-99600000D02*
X36250000Y-97600000D01*
X36250000Y-97600000D02*
X40150000Y-97600000D01*
X36250000Y-99600000D02*
X40150000Y-99600000D01*
%TO.C,D14*%
X61450000Y-47600000D02*
X61450000Y-45600000D01*
X61450000Y-45600000D02*
X65350000Y-45600000D01*
X61450000Y-47600000D02*
X65350000Y-47600000D01*
%TO.C,D15*%
X51650000Y-34600000D02*
X51650000Y-32600000D01*
X51650000Y-32600000D02*
X55550000Y-32600000D01*
X51650000Y-34600000D02*
X55550000Y-34600000D01*
%TO.C,D16*%
X61450000Y-50400000D02*
X61450000Y-48400000D01*
X61450000Y-48400000D02*
X65350000Y-48400000D01*
X61450000Y-50400000D02*
X65350000Y-50400000D01*
%TO.C,D17*%
X52850000Y-66800000D02*
X52850000Y-64800000D01*
X52850000Y-64800000D02*
X56750000Y-64800000D01*
X52850000Y-66800000D02*
X56750000Y-66800000D01*
%TO.C,D18*%
X52850000Y-83200000D02*
X52850000Y-81200000D01*
X52850000Y-81200000D02*
X56750000Y-81200000D01*
X52850000Y-83200000D02*
X56750000Y-83200000D01*
%TO.C,D19*%
X52850000Y-99600000D02*
X52850000Y-97600000D01*
X52850000Y-97600000D02*
X56750000Y-97600000D01*
X52850000Y-99600000D02*
X56750000Y-99600000D01*
%TO.C,D20*%
X69650000Y-34000000D02*
X69650000Y-32000000D01*
X69650000Y-32000000D02*
X73550000Y-32000000D01*
X69650000Y-34000000D02*
X73550000Y-34000000D01*
%TO.C,D21*%
X69850000Y-50400000D02*
X69850000Y-48400000D01*
X69850000Y-48400000D02*
X73750000Y-48400000D01*
X69850000Y-50400000D02*
X73750000Y-50400000D01*
%TO.C,D22*%
X69850000Y-66800000D02*
X69850000Y-64800000D01*
X69850000Y-64800000D02*
X73750000Y-64800000D01*
X69850000Y-66800000D02*
X73750000Y-66800000D01*
%TO.C,D23*%
X69450000Y-83200000D02*
X69450000Y-81200000D01*
X69450000Y-81200000D02*
X73350000Y-81200000D01*
X69450000Y-83200000D02*
X73350000Y-83200000D01*
%TO.C,D24*%
X68650000Y-99900000D02*
X68650000Y-97900000D01*
X68650000Y-97900000D02*
X72550000Y-97900000D01*
X68650000Y-99900000D02*
X72550000Y-99900000D01*
%TO.C,D25*%
X69850000Y-64000000D02*
X69850000Y-62000000D01*
X69850000Y-62000000D02*
X73750000Y-62000000D01*
X69850000Y-64000000D02*
X73750000Y-64000000D01*
%TO.C,D26*%
X86650000Y-27400000D02*
X86650000Y-25400000D01*
X86650000Y-25400000D02*
X90550000Y-25400000D01*
X86650000Y-27400000D02*
X90550000Y-27400000D01*
%TO.C,D27*%
X87250000Y-50400000D02*
X87250000Y-48400000D01*
X87250000Y-48400000D02*
X91150000Y-48400000D01*
X87250000Y-50400000D02*
X91150000Y-50400000D01*
%TO.C,D28*%
X90450000Y-66800000D02*
X90450000Y-64800000D01*
X90450000Y-64800000D02*
X94350000Y-64800000D01*
X90450000Y-66800000D02*
X94350000Y-66800000D01*
%TO.C,D29*%
X86250000Y-83200000D02*
X86250000Y-81200000D01*
X86250000Y-81200000D02*
X90150000Y-81200000D01*
X86250000Y-83200000D02*
X90150000Y-83200000D01*
%TO.C,D30*%
X82550000Y-99600000D02*
X82550000Y-97600000D01*
X82550000Y-97600000D02*
X86450000Y-97600000D01*
X82550000Y-99600000D02*
X86450000Y-99600000D01*
%TO.C,D31*%
X103450000Y-27600000D02*
X103450000Y-25600000D01*
X103450000Y-25600000D02*
X107350000Y-25600000D01*
X103450000Y-27600000D02*
X107350000Y-27600000D01*
%TO.C,D32*%
X123250000Y-50400000D02*
X123250000Y-48400000D01*
X123250000Y-48400000D02*
X127150000Y-48400000D01*
X123250000Y-50400000D02*
X127150000Y-50400000D01*
%TO.C,D33*%
X111450000Y-66800000D02*
X111450000Y-64800000D01*
X111450000Y-64800000D02*
X115350000Y-64800000D01*
X111450000Y-66800000D02*
X115350000Y-66800000D01*
%TO.C,D34*%
X103450000Y-83200000D02*
X103450000Y-81200000D01*
X103450000Y-81200000D02*
X107350000Y-81200000D01*
X103450000Y-83200000D02*
X107350000Y-83200000D01*
%TO.C,D35*%
X103050000Y-99600000D02*
X103050000Y-97600000D01*
X103050000Y-97600000D02*
X106950000Y-97600000D01*
X103050000Y-99600000D02*
X106950000Y-99600000D01*
%TO.C,D36*%
X119450000Y-80400000D02*
X119450000Y-78400000D01*
X119450000Y-78400000D02*
X123350000Y-78400000D01*
X119450000Y-80400000D02*
X123350000Y-80400000D01*
%TO.C,D37*%
X120050000Y-27600000D02*
X120050000Y-25600000D01*
X120050000Y-25600000D02*
X123950000Y-25600000D01*
X120050000Y-27600000D02*
X123950000Y-27600000D01*
%TO.C,D38*%
X128650000Y-50400000D02*
X128650000Y-48400000D01*
X128650000Y-48400000D02*
X132550000Y-48400000D01*
X128650000Y-50400000D02*
X132550000Y-50400000D01*
%TO.C,D39*%
X128250000Y-66800000D02*
X128250000Y-64800000D01*
X128250000Y-64800000D02*
X132150000Y-64800000D01*
X128250000Y-66800000D02*
X132150000Y-66800000D01*
%TO.C,D40*%
X119450000Y-83200000D02*
X119450000Y-81200000D01*
X119450000Y-81200000D02*
X123350000Y-81200000D01*
X119450000Y-83200000D02*
X123350000Y-83200000D01*
%TO.C,D41*%
X120250000Y-99600000D02*
X120250000Y-97600000D01*
X120250000Y-97600000D02*
X124150000Y-97600000D01*
X120250000Y-99600000D02*
X124150000Y-99600000D01*
%TO.C,D42*%
X136850000Y-27600000D02*
X136850000Y-25600000D01*
X136850000Y-25600000D02*
X140750000Y-25600000D01*
X136850000Y-27600000D02*
X140750000Y-27600000D01*
%TO.C,D43*%
X145250000Y-50400000D02*
X145250000Y-48400000D01*
X145250000Y-48400000D02*
X149150000Y-48400000D01*
X145250000Y-50400000D02*
X149150000Y-50400000D01*
%TO.C,D44*%
X154050000Y-66800000D02*
X154050000Y-64800000D01*
X154050000Y-64800000D02*
X157950000Y-64800000D01*
X154050000Y-66800000D02*
X157950000Y-66800000D01*
%TO.C,D45*%
X136650000Y-83200000D02*
X136650000Y-81200000D01*
X136650000Y-81200000D02*
X140550000Y-81200000D01*
X136650000Y-83200000D02*
X140550000Y-83200000D01*
%TO.C,D46*%
X132450000Y-99600000D02*
X132450000Y-97600000D01*
X132450000Y-97600000D02*
X136350000Y-97600000D01*
X132450000Y-99600000D02*
X136350000Y-99600000D01*
%TO.C,D47*%
X153850000Y-97000000D02*
X153850000Y-95000000D01*
X153850000Y-95000000D02*
X157750000Y-95000000D01*
X153850000Y-97000000D02*
X157750000Y-97000000D01*
%TO.C,D48*%
X153650000Y-34000000D02*
X153650000Y-32000000D01*
X153650000Y-32000000D02*
X157550000Y-32000000D01*
X153650000Y-34000000D02*
X157550000Y-34000000D01*
%TO.C,D49*%
X162050000Y-50400000D02*
X162050000Y-48400000D01*
X162050000Y-48400000D02*
X165950000Y-48400000D01*
X162050000Y-50400000D02*
X165950000Y-50400000D01*
%TO.C,D50*%
X161850000Y-66800000D02*
X161850000Y-64800000D01*
X161850000Y-64800000D02*
X165750000Y-64800000D01*
X161850000Y-66800000D02*
X165750000Y-66800000D01*
%TO.C,D51*%
X153450000Y-83200000D02*
X153450000Y-81200000D01*
X153450000Y-81200000D02*
X157350000Y-81200000D01*
X153450000Y-83200000D02*
X157350000Y-83200000D01*
%TO.C,D52*%
X153850000Y-99600000D02*
X153850000Y-97600000D01*
X153850000Y-97600000D02*
X157750000Y-97600000D01*
X153850000Y-99600000D02*
X157750000Y-99600000D01*
%TO.C,D54*%
X169350000Y-34400000D02*
X169350000Y-32400000D01*
X169350000Y-32400000D02*
X173250000Y-32400000D01*
X169350000Y-34400000D02*
X173250000Y-34400000D01*
%TO.C,D55*%
X178850000Y-50400000D02*
X178850000Y-48400000D01*
X178850000Y-48400000D02*
X182750000Y-48400000D01*
X178850000Y-50400000D02*
X182750000Y-50400000D01*
%TO.C,D56*%
X178850000Y-66800000D02*
X178850000Y-64800000D01*
X178850000Y-64800000D02*
X182750000Y-64800000D01*
X178850000Y-66800000D02*
X182750000Y-66800000D01*
%TO.C,D57*%
X170450000Y-83200000D02*
X170450000Y-81200000D01*
X170450000Y-81200000D02*
X174350000Y-81200000D01*
X170450000Y-83200000D02*
X174350000Y-83200000D01*
%TO.C,D58*%
X166050000Y-99600000D02*
X166050000Y-97600000D01*
X166050000Y-97600000D02*
X169950000Y-97600000D01*
X166050000Y-99600000D02*
X169950000Y-99600000D01*
%TO.C,D59*%
X187250000Y-31200000D02*
X187250000Y-29200000D01*
X187250000Y-29200000D02*
X191150000Y-29200000D01*
X187250000Y-31200000D02*
X191150000Y-31200000D01*
%TO.C,D60*%
X187250000Y-34000000D02*
X187250000Y-32000000D01*
X187250000Y-32000000D02*
X191150000Y-32000000D01*
X187250000Y-34000000D02*
X191150000Y-34000000D01*
%TO.C,D61*%
X195650000Y-50400000D02*
X195650000Y-48400000D01*
X195650000Y-48400000D02*
X199550000Y-48400000D01*
X195650000Y-50400000D02*
X199550000Y-50400000D01*
%TO.C,D62*%
X195650000Y-66800000D02*
X195650000Y-64800000D01*
X195650000Y-64800000D02*
X199550000Y-64800000D01*
X195650000Y-66800000D02*
X199550000Y-66800000D01*
%TO.C,D63*%
X187250000Y-83200000D02*
X187250000Y-81200000D01*
X187250000Y-81200000D02*
X191150000Y-81200000D01*
X187250000Y-83200000D02*
X191150000Y-83200000D01*
%TO.C,D64*%
X185650000Y-99600000D02*
X185650000Y-97600000D01*
X185650000Y-97600000D02*
X189550000Y-97600000D01*
X185650000Y-99600000D02*
X189550000Y-99600000D01*
%TO.C,D66*%
X202950000Y-34400000D02*
X202950000Y-32400000D01*
X202950000Y-32400000D02*
X206850000Y-32400000D01*
X202950000Y-34400000D02*
X206850000Y-34400000D01*
%TO.C,D67*%
X212450000Y-50400000D02*
X212450000Y-48400000D01*
X212450000Y-48400000D02*
X216350000Y-48400000D01*
X212450000Y-50400000D02*
X216350000Y-50400000D01*
%TO.C,D68*%
X212450000Y-66800000D02*
X212450000Y-64800000D01*
X212450000Y-64800000D02*
X216350000Y-64800000D01*
X212450000Y-66800000D02*
X216350000Y-66800000D01*
%TO.C,D69*%
X204050000Y-83200000D02*
X204050000Y-81200000D01*
X204050000Y-81200000D02*
X207950000Y-81200000D01*
X204050000Y-83200000D02*
X207950000Y-83200000D01*
%TO.C,D70*%
X197250000Y-99600000D02*
X197250000Y-97600000D01*
X197250000Y-97600000D02*
X201150000Y-97600000D01*
X197250000Y-99600000D02*
X201150000Y-99600000D01*
%TO.C,D71*%
X229050000Y-47600000D02*
X229050000Y-45600000D01*
X229050000Y-45600000D02*
X232950000Y-45600000D01*
X229050000Y-47600000D02*
X232950000Y-47600000D01*
%TO.C,D72*%
X220850000Y-34000000D02*
X220850000Y-32000000D01*
X220850000Y-32000000D02*
X224750000Y-32000000D01*
X220850000Y-34000000D02*
X224750000Y-34000000D01*
%TO.C,D73*%
X229050000Y-50400000D02*
X229050000Y-48400000D01*
X229050000Y-48400000D02*
X232950000Y-48400000D01*
X229050000Y-50400000D02*
X232950000Y-50400000D01*
%TO.C,D74*%
X229250000Y-66800000D02*
X229250000Y-64800000D01*
X229250000Y-64800000D02*
X233150000Y-64800000D01*
X229250000Y-66800000D02*
X233150000Y-66800000D01*
%TO.C,D75*%
X220850000Y-83200000D02*
X220850000Y-81200000D01*
X220850000Y-81200000D02*
X224750000Y-81200000D01*
X220850000Y-83200000D02*
X224750000Y-83200000D01*
%TO.C,D76*%
X220650000Y-99600000D02*
X220650000Y-97600000D01*
X220650000Y-97600000D02*
X224550000Y-97600000D01*
X220650000Y-99600000D02*
X224550000Y-99600000D01*
%TO.C,D78*%
X236650000Y-34400000D02*
X236650000Y-32400000D01*
X236650000Y-32400000D02*
X240550000Y-32400000D01*
X236650000Y-34400000D02*
X240550000Y-34400000D01*
%TO.C,D79*%
X246250000Y-50400000D02*
X246250000Y-48400000D01*
X246250000Y-48400000D02*
X250150000Y-48400000D01*
X246250000Y-50400000D02*
X250150000Y-50400000D01*
%TO.C,D80*%
X246250000Y-66800000D02*
X246250000Y-64800000D01*
X246250000Y-64800000D02*
X250150000Y-64800000D01*
X246250000Y-66800000D02*
X250150000Y-66800000D01*
%TO.C,D81*%
X237850000Y-83200000D02*
X237850000Y-81200000D01*
X237850000Y-81200000D02*
X241750000Y-81200000D01*
X237850000Y-83200000D02*
X241750000Y-83200000D01*
%TO.C,D82*%
X233250000Y-99600000D02*
X233250000Y-97600000D01*
X233250000Y-97600000D02*
X237150000Y-97600000D01*
X233250000Y-99600000D02*
X237150000Y-99600000D01*
%TO.C,D83*%
X263050000Y-64000000D02*
X263050000Y-62000000D01*
X263050000Y-62000000D02*
X266950000Y-62000000D01*
X263050000Y-64000000D02*
X266950000Y-64000000D01*
%TO.C,D84*%
X254450000Y-34000000D02*
X254450000Y-32000000D01*
X254450000Y-32000000D02*
X258350000Y-32000000D01*
X254450000Y-34000000D02*
X258350000Y-34000000D01*
%TO.C,D85*%
X263050000Y-50400000D02*
X263050000Y-48400000D01*
X263050000Y-48400000D02*
X266950000Y-48400000D01*
X263050000Y-50400000D02*
X266950000Y-50400000D01*
%TO.C,D86*%
X263050000Y-66800000D02*
X263050000Y-64800000D01*
X263050000Y-64800000D02*
X266950000Y-64800000D01*
X263050000Y-66800000D02*
X266950000Y-66800000D01*
%TO.C,D87*%
X254450000Y-83200000D02*
X254450000Y-81200000D01*
X254450000Y-81200000D02*
X258350000Y-81200000D01*
X254450000Y-83200000D02*
X258350000Y-83200000D01*
%TO.C,D88*%
X254750000Y-99600000D02*
X254750000Y-97600000D01*
X254750000Y-97600000D02*
X258650000Y-97600000D01*
X254750000Y-99600000D02*
X258650000Y-99600000D01*
%TO.C,D90*%
X270150000Y-34400000D02*
X270150000Y-32400000D01*
X270150000Y-32400000D02*
X274050000Y-32400000D01*
X270150000Y-34400000D02*
X274050000Y-34400000D01*
%TO.C,D91*%
X271250000Y-83200000D02*
X271250000Y-81200000D01*
X271250000Y-81200000D02*
X275150000Y-81200000D01*
X271250000Y-83200000D02*
X275150000Y-83200000D01*
%TO.C,D92*%
X271050000Y-99600000D02*
X271050000Y-97600000D01*
X271050000Y-97600000D02*
X274950000Y-97600000D01*
X271050000Y-99600000D02*
X274950000Y-99600000D01*
%TO.C,D93*%
X281250000Y-86000000D02*
X281250000Y-84000000D01*
X281250000Y-84000000D02*
X285150000Y-84000000D01*
X281250000Y-86000000D02*
X285150000Y-86000000D01*
%TO.C,D95*%
X283850000Y-34000000D02*
X283850000Y-32000000D01*
X283850000Y-32000000D02*
X287750000Y-32000000D01*
X283850000Y-34000000D02*
X287750000Y-34000000D01*
%TO.C,D96*%
X283850000Y-50400000D02*
X283850000Y-48400000D01*
X283850000Y-48400000D02*
X287750000Y-48400000D01*
X283850000Y-50400000D02*
X287750000Y-50400000D01*
%TO.C,D97*%
X283650000Y-66800000D02*
X283650000Y-64800000D01*
X283650000Y-64800000D02*
X287550000Y-64800000D01*
X283650000Y-66800000D02*
X287550000Y-66800000D01*
%TO.C,D98*%
X281250000Y-83200000D02*
X281250000Y-81200000D01*
X281250000Y-81200000D02*
X285150000Y-81200000D01*
X281250000Y-83200000D02*
X285150000Y-83200000D01*
%TO.C,D99*%
X280650000Y-99600000D02*
X280650000Y-97600000D01*
X280650000Y-97600000D02*
X284550000Y-97600000D01*
X280650000Y-99600000D02*
X284550000Y-99600000D01*
%TO.C,F1*%
X42960000Y-21452064D02*
X42960000Y-20247936D01*
X41140000Y-21452064D02*
X41140000Y-20247936D01*
%TO.C,JP_LED2*%
X84200000Y-21050000D02*
X82200000Y-21050000D01*
X84200000Y-25150000D02*
X84200000Y-21050000D01*
X82200000Y-25150000D02*
X84200000Y-25150000D01*
X82200000Y-21050000D02*
X82200000Y-25150000D01*
D10*
%TO.C,L1*%
X69762786Y-19562061D02*
X69762786Y-19862061D01*
X69462786Y-19562061D02*
X69762786Y-19562061D01*
X69762786Y-19862061D02*
X69462786Y-19562061D01*
%TO.C,L2*%
X75012786Y-19562061D02*
X75012786Y-19862061D01*
X74712786Y-19562061D02*
X75012786Y-19562061D01*
X75012786Y-19862061D02*
X74712786Y-19562061D01*
%TO.C,L3*%
X80262786Y-19562061D02*
X80262786Y-19862061D01*
X79962786Y-19562061D02*
X80262786Y-19562061D01*
X80262786Y-19862061D02*
X79962786Y-19562061D01*
%TO.C,L4*%
X48512786Y-19562061D02*
X48512786Y-19862061D01*
X48212786Y-19562061D02*
X48512786Y-19562061D01*
X48512786Y-19862061D02*
X48212786Y-19562061D01*
%TO.C,L5*%
X166112786Y-19562061D02*
X166112786Y-19862061D01*
X165812786Y-19562061D02*
X166112786Y-19562061D01*
X166112786Y-19862061D02*
X165812786Y-19562061D01*
%TO.C,L6*%
X199712786Y-19562061D02*
X199712786Y-19862061D01*
X199412786Y-19562061D02*
X199712786Y-19562061D01*
X199712786Y-19862061D02*
X199412786Y-19562061D01*
D12*
%TO.C,R1*%
X23327064Y-24665000D02*
X22872936Y-24665000D01*
X23327064Y-26135000D02*
X22872936Y-26135000D01*
%TO.C,R4*%
X33872936Y-64035000D02*
X34327064Y-64035000D01*
X33872936Y-62565000D02*
X34327064Y-62565000D01*
%TO.C,R5*%
X24772936Y-19635000D02*
X25227064Y-19635000D01*
X24772936Y-18165000D02*
X25227064Y-18165000D01*
%TO.C,R6*%
X24772936Y-21935000D02*
X25227064Y-21935000D01*
X24772936Y-20465000D02*
X25227064Y-20465000D01*
%TO.C,R8*%
X38527064Y-27615000D02*
X38072936Y-27615000D01*
X38527064Y-29085000D02*
X38072936Y-29085000D01*
%TO.C,R9*%
X103912611Y-61652058D02*
X104233728Y-61973175D01*
X104952058Y-60612611D02*
X105273175Y-60933728D01*
%TO.C,ResetSW1*%
X38380000Y-64160000D02*
X38380000Y-66240000D01*
X42550000Y-67920000D02*
X43040000Y-67430000D01*
X43820000Y-64160000D02*
X43820000Y-66240000D01*
X39650000Y-67920000D02*
X39160000Y-67430000D01*
X39650000Y-67920000D02*
X42550000Y-67920000D01*
X39650000Y-62480000D02*
X39160000Y-62970000D01*
X39650000Y-62480000D02*
X42550000Y-62480000D01*
X42550000Y-62480000D02*
X43040000Y-62970000D01*
D11*
%TO.C,J1*%
X28925000Y-22885000D02*
X37875000Y-22885000D01*
X28925000Y-16575000D02*
X28925000Y-16225000D01*
X28925000Y-16225000D02*
X37875000Y-16225000D01*
X37875000Y-16225000D02*
X37875000Y-16575000D01*
D10*
%TO.C,L8*%
X266912786Y-19862061D02*
X266612786Y-19562061D01*
X266612786Y-19562061D02*
X266912786Y-19562061D01*
X266912786Y-19562061D02*
X266912786Y-19862061D01*
%TO.C,R7*%
X41866666Y-26652380D02*
X42200000Y-26176190D01*
X42438095Y-26652380D02*
X42438095Y-25652380D01*
X42057142Y-25652380D01*
X41961904Y-25700000D01*
X41914285Y-25747619D01*
X41866666Y-25842857D01*
X41866666Y-25985714D01*
X41914285Y-26080952D01*
X41961904Y-26128571D01*
X42057142Y-26176190D01*
X42438095Y-26176190D01*
X41533333Y-25652380D02*
X40866666Y-25652380D01*
X41295238Y-26652380D01*
%TO.C,D102*%
X35810476Y-30252380D02*
X35810476Y-29252380D01*
X35572380Y-29252380D01*
X35429523Y-29300000D01*
X35334285Y-29395238D01*
X35286666Y-29490476D01*
X35239047Y-29680952D01*
X35239047Y-29823809D01*
X35286666Y-30014285D01*
X35334285Y-30109523D01*
X35429523Y-30204761D01*
X35572380Y-30252380D01*
X35810476Y-30252380D01*
X34286666Y-30252380D02*
X34858095Y-30252380D01*
X34572380Y-30252380D02*
X34572380Y-29252380D01*
X34667619Y-29395238D01*
X34762857Y-29490476D01*
X34858095Y-29538095D01*
X33667619Y-29252380D02*
X33572380Y-29252380D01*
X33477142Y-29300000D01*
X33429523Y-29347619D01*
X33381904Y-29442857D01*
X33334285Y-29633333D01*
X33334285Y-29871428D01*
X33381904Y-30061904D01*
X33429523Y-30157142D01*
X33477142Y-30204761D01*
X33572380Y-30252380D01*
X33667619Y-30252380D01*
X33762857Y-30204761D01*
X33810476Y-30157142D01*
X33858095Y-30061904D01*
X33905714Y-29871428D01*
X33905714Y-29633333D01*
X33858095Y-29442857D01*
X33810476Y-29347619D01*
X33762857Y-29300000D01*
X33667619Y-29252380D01*
X32953333Y-29347619D02*
X32905714Y-29300000D01*
X32810476Y-29252380D01*
X32572380Y-29252380D01*
X32477142Y-29300000D01*
X32429523Y-29347619D01*
X32381904Y-29442857D01*
X32381904Y-29538095D01*
X32429523Y-29680952D01*
X33000952Y-30252380D01*
X32381904Y-30252380D01*
%TO.C,C3*%
X110870389Y-40534687D02*
X110937732Y-40534687D01*
X111072419Y-40467343D01*
X111139763Y-40400000D01*
X111207106Y-40265312D01*
X111207106Y-40130625D01*
X111173435Y-40029610D01*
X111072419Y-39861251D01*
X110971404Y-39760236D01*
X110803045Y-39659221D01*
X110702030Y-39625549D01*
X110567343Y-39625549D01*
X110432656Y-39692893D01*
X110365312Y-39760236D01*
X110297969Y-39894923D01*
X110297969Y-39962267D01*
X109994923Y-40130625D02*
X109557190Y-40568358D01*
X110062267Y-40602030D01*
X109961251Y-40703045D01*
X109927580Y-40804061D01*
X109927580Y-40871404D01*
X109961251Y-40972419D01*
X110129610Y-41140778D01*
X110230625Y-41174450D01*
X110297969Y-41174450D01*
X110398984Y-41140778D01*
X110601015Y-40938748D01*
X110634687Y-40837732D01*
X110634687Y-40770389D01*
%TO.C,U1*%
D15*
X103796361Y-56012132D02*
X102994973Y-56813519D01*
X102853552Y-56860660D01*
X102759271Y-56860660D01*
X102617850Y-56813519D01*
X102429288Y-56624957D01*
X102382147Y-56483536D01*
X102382147Y-56389255D01*
X102429288Y-56247834D01*
X103230676Y-55446446D01*
X101250777Y-55446446D02*
X101816462Y-56012132D01*
X101533619Y-55729289D02*
X102523569Y-54739339D01*
X102476428Y-54975042D01*
X102476428Y-55163603D01*
X102523569Y-55305025D01*
%TO.C,Y1*%
D10*
X118053553Y-41519881D02*
X117716835Y-41856599D01*
X118659644Y-41385194D02*
X118053553Y-41519881D01*
X118188240Y-40913790D01*
X116875042Y-41014805D02*
X117279103Y-41418866D01*
X117077072Y-41216835D02*
X117784179Y-40509729D01*
X117750507Y-40678087D01*
X117750507Y-40812774D01*
X117784179Y-40913790D01*
%TO.C,D94*%
X284114285Y-94252380D02*
X284114285Y-93252380D01*
X283876190Y-93252380D01*
X283733333Y-93300000D01*
X283638095Y-93395238D01*
X283590476Y-93490476D01*
X283542857Y-93680952D01*
X283542857Y-93823809D01*
X283590476Y-94014285D01*
X283638095Y-94109523D01*
X283733333Y-94204761D01*
X283876190Y-94252380D01*
X284114285Y-94252380D01*
X283066666Y-94252380D02*
X282876190Y-94252380D01*
X282780952Y-94204761D01*
X282733333Y-94157142D01*
X282638095Y-94014285D01*
X282590476Y-93823809D01*
X282590476Y-93442857D01*
X282638095Y-93347619D01*
X282685714Y-93300000D01*
X282780952Y-93252380D01*
X282971428Y-93252380D01*
X283066666Y-93300000D01*
X283114285Y-93347619D01*
X283161904Y-93442857D01*
X283161904Y-93680952D01*
X283114285Y-93776190D01*
X283066666Y-93823809D01*
X282971428Y-93871428D01*
X282780952Y-93871428D01*
X282685714Y-93823809D01*
X282638095Y-93776190D01*
X282590476Y-93680952D01*
X281733333Y-93585714D02*
X281733333Y-94252380D01*
X281971428Y-93204761D02*
X282209523Y-93919047D01*
X281590476Y-93919047D01*
%TO.C,C1*%
X122557142Y-49433333D02*
X122604761Y-49385714D01*
X122652380Y-49242857D01*
X122652380Y-49147619D01*
X122604761Y-49004761D01*
X122509523Y-48909523D01*
X122414285Y-48861904D01*
X122223809Y-48814285D01*
X122080952Y-48814285D01*
X121890476Y-48861904D01*
X121795238Y-48909523D01*
X121700000Y-49004761D01*
X121652380Y-49147619D01*
X121652380Y-49242857D01*
X121700000Y-49385714D01*
X121747619Y-49433333D01*
X122652380Y-50385714D02*
X122652380Y-49814285D01*
X122652380Y-50100000D02*
X121652380Y-50100000D01*
X121795238Y-50004761D01*
X121890476Y-49909523D01*
X121938095Y-49814285D01*
%TO.C,C2*%
X121070389Y-44334687D02*
X121137732Y-44334687D01*
X121272419Y-44267343D01*
X121339763Y-44200000D01*
X121407106Y-44065312D01*
X121407106Y-43930625D01*
X121373435Y-43829610D01*
X121272419Y-43661251D01*
X121171404Y-43560236D01*
X121003045Y-43459221D01*
X120902030Y-43425549D01*
X120767343Y-43425549D01*
X120632656Y-43492893D01*
X120565312Y-43560236D01*
X120497969Y-43694923D01*
X120497969Y-43762267D01*
X120228595Y-44031641D02*
X120161251Y-44031641D01*
X120060236Y-44065312D01*
X119891877Y-44233671D01*
X119858206Y-44334687D01*
X119858206Y-44402030D01*
X119891877Y-44503045D01*
X119959221Y-44570389D01*
X120093908Y-44637732D01*
X120902030Y-44637732D01*
X120464297Y-45075465D01*
%TO.C,C4*%
X107965312Y-62370388D02*
X107965312Y-62437731D01*
X108032656Y-62572418D01*
X108100000Y-62639762D01*
X108234687Y-62707105D01*
X108369374Y-62707105D01*
X108470389Y-62673434D01*
X108638748Y-62572418D01*
X108739763Y-62471403D01*
X108840778Y-62303044D01*
X108874450Y-62202029D01*
X108874450Y-62067342D01*
X108807106Y-61932655D01*
X108739763Y-61865311D01*
X108605076Y-61797968D01*
X108537732Y-61797968D01*
X107763282Y-61360235D02*
X107291877Y-61831640D01*
X108201015Y-61259220D02*
X107864297Y-61932655D01*
X107426564Y-61494922D01*
%TO.C,C5*%
X99670389Y-45134687D02*
X99737732Y-45134687D01*
X99872419Y-45067343D01*
X99939763Y-45000000D01*
X100007106Y-44865312D01*
X100007106Y-44730625D01*
X99973435Y-44629610D01*
X99872419Y-44461251D01*
X99771404Y-44360236D01*
X99603045Y-44259221D01*
X99502030Y-44225549D01*
X99367343Y-44225549D01*
X99232656Y-44292893D01*
X99165312Y-44360236D01*
X99097969Y-44494923D01*
X99097969Y-44562267D01*
X98390862Y-45134687D02*
X98727580Y-44797969D01*
X99097969Y-45101015D01*
X99030625Y-45101015D01*
X98929610Y-45134687D01*
X98761251Y-45303045D01*
X98727580Y-45404061D01*
X98727580Y-45471404D01*
X98761251Y-45572419D01*
X98929610Y-45740778D01*
X99030625Y-45774450D01*
X99097969Y-45774450D01*
X99198984Y-45740778D01*
X99367343Y-45572419D01*
X99401015Y-45471404D01*
X99401015Y-45404061D01*
%TO.C,C6*%
X98070389Y-43534687D02*
X98137732Y-43534687D01*
X98272419Y-43467343D01*
X98339763Y-43400000D01*
X98407106Y-43265312D01*
X98407106Y-43130625D01*
X98373435Y-43029610D01*
X98272419Y-42861251D01*
X98171404Y-42760236D01*
X98003045Y-42659221D01*
X97902030Y-42625549D01*
X97767343Y-42625549D01*
X97632656Y-42692893D01*
X97565312Y-42760236D01*
X97497969Y-42894923D01*
X97497969Y-42962267D01*
X96824534Y-43501015D02*
X96959221Y-43366328D01*
X97060236Y-43332656D01*
X97127580Y-43332656D01*
X97295938Y-43366328D01*
X97464297Y-43467343D01*
X97733671Y-43736717D01*
X97767343Y-43837732D01*
X97767343Y-43905076D01*
X97733671Y-44006091D01*
X97598984Y-44140778D01*
X97497969Y-44174450D01*
X97430625Y-44174450D01*
X97329610Y-44140778D01*
X97161251Y-43972419D01*
X97127580Y-43871404D01*
X97127580Y-43804061D01*
X97161251Y-43703045D01*
X97295938Y-43568358D01*
X97396954Y-43534687D01*
X97464297Y-43534687D01*
X97565312Y-43568358D01*
%TO.C,C7*%
X98057142Y-47633333D02*
X98104761Y-47585714D01*
X98152380Y-47442857D01*
X98152380Y-47347619D01*
X98104761Y-47204761D01*
X98009523Y-47109523D01*
X97914285Y-47061904D01*
X97723809Y-47014285D01*
X97580952Y-47014285D01*
X97390476Y-47061904D01*
X97295238Y-47109523D01*
X97200000Y-47204761D01*
X97152380Y-47347619D01*
X97152380Y-47442857D01*
X97200000Y-47585714D01*
X97247619Y-47633333D01*
X97152380Y-47966666D02*
X97152380Y-48633333D01*
X98152380Y-48204761D01*
%TO.C,D1*%
X22438095Y-28852380D02*
X22438095Y-27852380D01*
X22200000Y-27852380D01*
X22057142Y-27900000D01*
X21961904Y-27995238D01*
X21914285Y-28090476D01*
X21866666Y-28280952D01*
X21866666Y-28423809D01*
X21914285Y-28614285D01*
X21961904Y-28709523D01*
X22057142Y-28804761D01*
X22200000Y-28852380D01*
X22438095Y-28852380D01*
X20914285Y-28852380D02*
X21485714Y-28852380D01*
X21200000Y-28852380D02*
X21200000Y-27852380D01*
X21295238Y-27995238D01*
X21390476Y-28090476D01*
X21485714Y-28138095D01*
%TO.C,D2*%
X19752380Y-20661904D02*
X18752380Y-20661904D01*
X18752380Y-20900000D01*
X18800000Y-21042857D01*
X18895238Y-21138095D01*
X18990476Y-21185714D01*
X19180952Y-21233333D01*
X19323809Y-21233333D01*
X19514285Y-21185714D01*
X19609523Y-21138095D01*
X19704761Y-21042857D01*
X19752380Y-20900000D01*
X19752380Y-20661904D01*
X18847619Y-21614285D02*
X18800000Y-21661904D01*
X18752380Y-21757142D01*
X18752380Y-21995238D01*
X18800000Y-22090476D01*
X18847619Y-22138095D01*
X18942857Y-22185714D01*
X19038095Y-22185714D01*
X19180952Y-22138095D01*
X19752380Y-21566666D01*
X19752380Y-22185714D01*
%TO.C,D3*%
X22438095Y-35452380D02*
X22438095Y-34452380D01*
X22200000Y-34452380D01*
X22057142Y-34500000D01*
X21961904Y-34595238D01*
X21914285Y-34690476D01*
X21866666Y-34880952D01*
X21866666Y-35023809D01*
X21914285Y-35214285D01*
X21961904Y-35309523D01*
X22057142Y-35404761D01*
X22200000Y-35452380D01*
X22438095Y-35452380D01*
X21533333Y-34452380D02*
X20914285Y-34452380D01*
X21247619Y-34833333D01*
X21104761Y-34833333D01*
X21009523Y-34880952D01*
X20961904Y-34928571D01*
X20914285Y-35023809D01*
X20914285Y-35261904D01*
X20961904Y-35357142D01*
X21009523Y-35404761D01*
X21104761Y-35452380D01*
X21390476Y-35452380D01*
X21485714Y-35404761D01*
X21533333Y-35357142D01*
%TO.C,D4*%
X22438095Y-51852380D02*
X22438095Y-50852380D01*
X22200000Y-50852380D01*
X22057142Y-50900000D01*
X21961904Y-50995238D01*
X21914285Y-51090476D01*
X21866666Y-51280952D01*
X21866666Y-51423809D01*
X21914285Y-51614285D01*
X21961904Y-51709523D01*
X22057142Y-51804761D01*
X22200000Y-51852380D01*
X22438095Y-51852380D01*
X21009523Y-51185714D02*
X21009523Y-51852380D01*
X21247619Y-50804761D02*
X21485714Y-51519047D01*
X20866666Y-51519047D01*
%TO.C,D5*%
X22238095Y-68252380D02*
X22238095Y-67252380D01*
X22000000Y-67252380D01*
X21857142Y-67300000D01*
X21761904Y-67395238D01*
X21714285Y-67490476D01*
X21666666Y-67680952D01*
X21666666Y-67823809D01*
X21714285Y-68014285D01*
X21761904Y-68109523D01*
X21857142Y-68204761D01*
X22000000Y-68252380D01*
X22238095Y-68252380D01*
X20761904Y-67252380D02*
X21238095Y-67252380D01*
X21285714Y-67728571D01*
X21238095Y-67680952D01*
X21142857Y-67633333D01*
X20904761Y-67633333D01*
X20809523Y-67680952D01*
X20761904Y-67728571D01*
X20714285Y-67823809D01*
X20714285Y-68061904D01*
X20761904Y-68157142D01*
X20809523Y-68204761D01*
X20904761Y-68252380D01*
X21142857Y-68252380D01*
X21238095Y-68204761D01*
X21285714Y-68157142D01*
%TO.C,D6*%
X22438095Y-84652380D02*
X22438095Y-83652380D01*
X22200000Y-83652380D01*
X22057142Y-83700000D01*
X21961904Y-83795238D01*
X21914285Y-83890476D01*
X21866666Y-84080952D01*
X21866666Y-84223809D01*
X21914285Y-84414285D01*
X21961904Y-84509523D01*
X22057142Y-84604761D01*
X22200000Y-84652380D01*
X22438095Y-84652380D01*
X21009523Y-83652380D02*
X21200000Y-83652380D01*
X21295238Y-83700000D01*
X21342857Y-83747619D01*
X21438095Y-83890476D01*
X21485714Y-84080952D01*
X21485714Y-84461904D01*
X21438095Y-84557142D01*
X21390476Y-84604761D01*
X21295238Y-84652380D01*
X21104761Y-84652380D01*
X21009523Y-84604761D01*
X20961904Y-84557142D01*
X20914285Y-84461904D01*
X20914285Y-84223809D01*
X20961904Y-84128571D01*
X21009523Y-84080952D01*
X21104761Y-84033333D01*
X21295238Y-84033333D01*
X21390476Y-84080952D01*
X21438095Y-84128571D01*
X21485714Y-84223809D01*
%TO.C,D7*%
X22238095Y-101052380D02*
X22238095Y-100052380D01*
X22000000Y-100052380D01*
X21857142Y-100100000D01*
X21761904Y-100195238D01*
X21714285Y-100290476D01*
X21666666Y-100480952D01*
X21666666Y-100623809D01*
X21714285Y-100814285D01*
X21761904Y-100909523D01*
X21857142Y-101004761D01*
X22000000Y-101052380D01*
X22238095Y-101052380D01*
X21333333Y-100052380D02*
X20666666Y-100052380D01*
X21095238Y-101052380D01*
%TO.C,D9*%
X39038095Y-35452380D02*
X39038095Y-34452380D01*
X38800000Y-34452380D01*
X38657142Y-34500000D01*
X38561904Y-34595238D01*
X38514285Y-34690476D01*
X38466666Y-34880952D01*
X38466666Y-35023809D01*
X38514285Y-35214285D01*
X38561904Y-35309523D01*
X38657142Y-35404761D01*
X38800000Y-35452380D01*
X39038095Y-35452380D01*
X37990476Y-35452380D02*
X37800000Y-35452380D01*
X37704761Y-35404761D01*
X37657142Y-35357142D01*
X37561904Y-35214285D01*
X37514285Y-35023809D01*
X37514285Y-34642857D01*
X37561904Y-34547619D01*
X37609523Y-34500000D01*
X37704761Y-34452380D01*
X37895238Y-34452380D01*
X37990476Y-34500000D01*
X38038095Y-34547619D01*
X38085714Y-34642857D01*
X38085714Y-34880952D01*
X38038095Y-34976190D01*
X37990476Y-35023809D01*
X37895238Y-35071428D01*
X37704761Y-35071428D01*
X37609523Y-35023809D01*
X37561904Y-34976190D01*
X37514285Y-34880952D01*
%TO.C,D10*%
X40914285Y-51652380D02*
X40914285Y-50652380D01*
X40676190Y-50652380D01*
X40533333Y-50700000D01*
X40438095Y-50795238D01*
X40390476Y-50890476D01*
X40342857Y-51080952D01*
X40342857Y-51223809D01*
X40390476Y-51414285D01*
X40438095Y-51509523D01*
X40533333Y-51604761D01*
X40676190Y-51652380D01*
X40914285Y-51652380D01*
X39390476Y-51652380D02*
X39961904Y-51652380D01*
X39676190Y-51652380D02*
X39676190Y-50652380D01*
X39771428Y-50795238D01*
X39866666Y-50890476D01*
X39961904Y-50938095D01*
X38771428Y-50652380D02*
X38676190Y-50652380D01*
X38580952Y-50700000D01*
X38533333Y-50747619D01*
X38485714Y-50842857D01*
X38438095Y-51033333D01*
X38438095Y-51271428D01*
X38485714Y-51461904D01*
X38533333Y-51557142D01*
X38580952Y-51604761D01*
X38676190Y-51652380D01*
X38771428Y-51652380D01*
X38866666Y-51604761D01*
X38914285Y-51557142D01*
X38961904Y-51461904D01*
X39009523Y-51271428D01*
X39009523Y-51033333D01*
X38961904Y-50842857D01*
X38914285Y-50747619D01*
X38866666Y-50700000D01*
X38771428Y-50652380D01*
%TO.C,D11*%
X35314285Y-68252380D02*
X35314285Y-67252380D01*
X35076190Y-67252380D01*
X34933333Y-67300000D01*
X34838095Y-67395238D01*
X34790476Y-67490476D01*
X34742857Y-67680952D01*
X34742857Y-67823809D01*
X34790476Y-68014285D01*
X34838095Y-68109523D01*
X34933333Y-68204761D01*
X35076190Y-68252380D01*
X35314285Y-68252380D01*
X33790476Y-68252380D02*
X34361904Y-68252380D01*
X34076190Y-68252380D02*
X34076190Y-67252380D01*
X34171428Y-67395238D01*
X34266666Y-67490476D01*
X34361904Y-67538095D01*
X32838095Y-68252380D02*
X33409523Y-68252380D01*
X33123809Y-68252380D02*
X33123809Y-67252380D01*
X33219047Y-67395238D01*
X33314285Y-67490476D01*
X33409523Y-67538095D01*
%TO.C,D12*%
X40314285Y-84652380D02*
X40314285Y-83652380D01*
X40076190Y-83652380D01*
X39933333Y-83700000D01*
X39838095Y-83795238D01*
X39790476Y-83890476D01*
X39742857Y-84080952D01*
X39742857Y-84223809D01*
X39790476Y-84414285D01*
X39838095Y-84509523D01*
X39933333Y-84604761D01*
X40076190Y-84652380D01*
X40314285Y-84652380D01*
X38790476Y-84652380D02*
X39361904Y-84652380D01*
X39076190Y-84652380D02*
X39076190Y-83652380D01*
X39171428Y-83795238D01*
X39266666Y-83890476D01*
X39361904Y-83938095D01*
X38409523Y-83747619D02*
X38361904Y-83700000D01*
X38266666Y-83652380D01*
X38028571Y-83652380D01*
X37933333Y-83700000D01*
X37885714Y-83747619D01*
X37838095Y-83842857D01*
X37838095Y-83938095D01*
X37885714Y-84080952D01*
X38457142Y-84652380D01*
X37838095Y-84652380D01*
%TO.C,D13*%
X40114285Y-101052380D02*
X40114285Y-100052380D01*
X39876190Y-100052380D01*
X39733333Y-100100000D01*
X39638095Y-100195238D01*
X39590476Y-100290476D01*
X39542857Y-100480952D01*
X39542857Y-100623809D01*
X39590476Y-100814285D01*
X39638095Y-100909523D01*
X39733333Y-101004761D01*
X39876190Y-101052380D01*
X40114285Y-101052380D01*
X38590476Y-101052380D02*
X39161904Y-101052380D01*
X38876190Y-101052380D02*
X38876190Y-100052380D01*
X38971428Y-100195238D01*
X39066666Y-100290476D01*
X39161904Y-100338095D01*
X38257142Y-100052380D02*
X37638095Y-100052380D01*
X37971428Y-100433333D01*
X37828571Y-100433333D01*
X37733333Y-100480952D01*
X37685714Y-100528571D01*
X37638095Y-100623809D01*
X37638095Y-100861904D01*
X37685714Y-100957142D01*
X37733333Y-101004761D01*
X37828571Y-101052380D01*
X38114285Y-101052380D01*
X38209523Y-101004761D01*
X38257142Y-100957142D01*
%TO.C,D14*%
X65314285Y-45052380D02*
X65314285Y-44052380D01*
X65076190Y-44052380D01*
X64933333Y-44100000D01*
X64838095Y-44195238D01*
X64790476Y-44290476D01*
X64742857Y-44480952D01*
X64742857Y-44623809D01*
X64790476Y-44814285D01*
X64838095Y-44909523D01*
X64933333Y-45004761D01*
X65076190Y-45052380D01*
X65314285Y-45052380D01*
X63790476Y-45052380D02*
X64361904Y-45052380D01*
X64076190Y-45052380D02*
X64076190Y-44052380D01*
X64171428Y-44195238D01*
X64266666Y-44290476D01*
X64361904Y-44338095D01*
X62933333Y-44385714D02*
X62933333Y-45052380D01*
X63171428Y-44004761D02*
X63409523Y-44719047D01*
X62790476Y-44719047D01*
%TO.C,D15*%
X55914285Y-36052380D02*
X55914285Y-35052380D01*
X55676190Y-35052380D01*
X55533333Y-35100000D01*
X55438095Y-35195238D01*
X55390476Y-35290476D01*
X55342857Y-35480952D01*
X55342857Y-35623809D01*
X55390476Y-35814285D01*
X55438095Y-35909523D01*
X55533333Y-36004761D01*
X55676190Y-36052380D01*
X55914285Y-36052380D01*
X54390476Y-36052380D02*
X54961904Y-36052380D01*
X54676190Y-36052380D02*
X54676190Y-35052380D01*
X54771428Y-35195238D01*
X54866666Y-35290476D01*
X54961904Y-35338095D01*
X53485714Y-35052380D02*
X53961904Y-35052380D01*
X54009523Y-35528571D01*
X53961904Y-35480952D01*
X53866666Y-35433333D01*
X53628571Y-35433333D01*
X53533333Y-35480952D01*
X53485714Y-35528571D01*
X53438095Y-35623809D01*
X53438095Y-35861904D01*
X53485714Y-35957142D01*
X53533333Y-36004761D01*
X53628571Y-36052380D01*
X53866666Y-36052380D01*
X53961904Y-36004761D01*
X54009523Y-35957142D01*
%TO.C,D16*%
X65314285Y-51852380D02*
X65314285Y-50852380D01*
X65076190Y-50852380D01*
X64933333Y-50900000D01*
X64838095Y-50995238D01*
X64790476Y-51090476D01*
X64742857Y-51280952D01*
X64742857Y-51423809D01*
X64790476Y-51614285D01*
X64838095Y-51709523D01*
X64933333Y-51804761D01*
X65076190Y-51852380D01*
X65314285Y-51852380D01*
X63790476Y-51852380D02*
X64361904Y-51852380D01*
X64076190Y-51852380D02*
X64076190Y-50852380D01*
X64171428Y-50995238D01*
X64266666Y-51090476D01*
X64361904Y-51138095D01*
X62933333Y-50852380D02*
X63123809Y-50852380D01*
X63219047Y-50900000D01*
X63266666Y-50947619D01*
X63361904Y-51090476D01*
X63409523Y-51280952D01*
X63409523Y-51661904D01*
X63361904Y-51757142D01*
X63314285Y-51804761D01*
X63219047Y-51852380D01*
X63028571Y-51852380D01*
X62933333Y-51804761D01*
X62885714Y-51757142D01*
X62838095Y-51661904D01*
X62838095Y-51423809D01*
X62885714Y-51328571D01*
X62933333Y-51280952D01*
X63028571Y-51233333D01*
X63219047Y-51233333D01*
X63314285Y-51280952D01*
X63361904Y-51328571D01*
X63409523Y-51423809D01*
%TO.C,D17*%
X56714285Y-68252380D02*
X56714285Y-67252380D01*
X56476190Y-67252380D01*
X56333333Y-67300000D01*
X56238095Y-67395238D01*
X56190476Y-67490476D01*
X56142857Y-67680952D01*
X56142857Y-67823809D01*
X56190476Y-68014285D01*
X56238095Y-68109523D01*
X56333333Y-68204761D01*
X56476190Y-68252380D01*
X56714285Y-68252380D01*
X55190476Y-68252380D02*
X55761904Y-68252380D01*
X55476190Y-68252380D02*
X55476190Y-67252380D01*
X55571428Y-67395238D01*
X55666666Y-67490476D01*
X55761904Y-67538095D01*
X54857142Y-67252380D02*
X54190476Y-67252380D01*
X54619047Y-68252380D01*
%TO.C,D18*%
X56914285Y-84652380D02*
X56914285Y-83652380D01*
X56676190Y-83652380D01*
X56533333Y-83700000D01*
X56438095Y-83795238D01*
X56390476Y-83890476D01*
X56342857Y-84080952D01*
X56342857Y-84223809D01*
X56390476Y-84414285D01*
X56438095Y-84509523D01*
X56533333Y-84604761D01*
X56676190Y-84652380D01*
X56914285Y-84652380D01*
X55390476Y-84652380D02*
X55961904Y-84652380D01*
X55676190Y-84652380D02*
X55676190Y-83652380D01*
X55771428Y-83795238D01*
X55866666Y-83890476D01*
X55961904Y-83938095D01*
X54819047Y-84080952D02*
X54914285Y-84033333D01*
X54961904Y-83985714D01*
X55009523Y-83890476D01*
X55009523Y-83842857D01*
X54961904Y-83747619D01*
X54914285Y-83700000D01*
X54819047Y-83652380D01*
X54628571Y-83652380D01*
X54533333Y-83700000D01*
X54485714Y-83747619D01*
X54438095Y-83842857D01*
X54438095Y-83890476D01*
X54485714Y-83985714D01*
X54533333Y-84033333D01*
X54628571Y-84080952D01*
X54819047Y-84080952D01*
X54914285Y-84128571D01*
X54961904Y-84176190D01*
X55009523Y-84271428D01*
X55009523Y-84461904D01*
X54961904Y-84557142D01*
X54914285Y-84604761D01*
X54819047Y-84652380D01*
X54628571Y-84652380D01*
X54533333Y-84604761D01*
X54485714Y-84557142D01*
X54438095Y-84461904D01*
X54438095Y-84271428D01*
X54485714Y-84176190D01*
X54533333Y-84128571D01*
X54628571Y-84080952D01*
%TO.C,D19*%
X56314285Y-97052380D02*
X56314285Y-96052380D01*
X56076190Y-96052380D01*
X55933333Y-96100000D01*
X55838095Y-96195238D01*
X55790476Y-96290476D01*
X55742857Y-96480952D01*
X55742857Y-96623809D01*
X55790476Y-96814285D01*
X55838095Y-96909523D01*
X55933333Y-97004761D01*
X56076190Y-97052380D01*
X56314285Y-97052380D01*
X54790476Y-97052380D02*
X55361904Y-97052380D01*
X55076190Y-97052380D02*
X55076190Y-96052380D01*
X55171428Y-96195238D01*
X55266666Y-96290476D01*
X55361904Y-96338095D01*
X54314285Y-97052380D02*
X54123809Y-97052380D01*
X54028571Y-97004761D01*
X53980952Y-96957142D01*
X53885714Y-96814285D01*
X53838095Y-96623809D01*
X53838095Y-96242857D01*
X53885714Y-96147619D01*
X53933333Y-96100000D01*
X54028571Y-96052380D01*
X54219047Y-96052380D01*
X54314285Y-96100000D01*
X54361904Y-96147619D01*
X54409523Y-96242857D01*
X54409523Y-96480952D01*
X54361904Y-96576190D01*
X54314285Y-96623809D01*
X54219047Y-96671428D01*
X54028571Y-96671428D01*
X53933333Y-96623809D01*
X53885714Y-96576190D01*
X53838095Y-96480952D01*
%TO.C,D20*%
X73914285Y-35452380D02*
X73914285Y-34452380D01*
X73676190Y-34452380D01*
X73533333Y-34500000D01*
X73438095Y-34595238D01*
X73390476Y-34690476D01*
X73342857Y-34880952D01*
X73342857Y-35023809D01*
X73390476Y-35214285D01*
X73438095Y-35309523D01*
X73533333Y-35404761D01*
X73676190Y-35452380D01*
X73914285Y-35452380D01*
X72961904Y-34547619D02*
X72914285Y-34500000D01*
X72819047Y-34452380D01*
X72580952Y-34452380D01*
X72485714Y-34500000D01*
X72438095Y-34547619D01*
X72390476Y-34642857D01*
X72390476Y-34738095D01*
X72438095Y-34880952D01*
X73009523Y-35452380D01*
X72390476Y-35452380D01*
X71771428Y-34452380D02*
X71676190Y-34452380D01*
X71580952Y-34500000D01*
X71533333Y-34547619D01*
X71485714Y-34642857D01*
X71438095Y-34833333D01*
X71438095Y-35071428D01*
X71485714Y-35261904D01*
X71533333Y-35357142D01*
X71580952Y-35404761D01*
X71676190Y-35452380D01*
X71771428Y-35452380D01*
X71866666Y-35404761D01*
X71914285Y-35357142D01*
X71961904Y-35261904D01*
X72009523Y-35071428D01*
X72009523Y-34833333D01*
X71961904Y-34642857D01*
X71914285Y-34547619D01*
X71866666Y-34500000D01*
X71771428Y-34452380D01*
%TO.C,D21*%
X73714285Y-51852380D02*
X73714285Y-50852380D01*
X73476190Y-50852380D01*
X73333333Y-50900000D01*
X73238095Y-50995238D01*
X73190476Y-51090476D01*
X73142857Y-51280952D01*
X73142857Y-51423809D01*
X73190476Y-51614285D01*
X73238095Y-51709523D01*
X73333333Y-51804761D01*
X73476190Y-51852380D01*
X73714285Y-51852380D01*
X72761904Y-50947619D02*
X72714285Y-50900000D01*
X72619047Y-50852380D01*
X72380952Y-50852380D01*
X72285714Y-50900000D01*
X72238095Y-50947619D01*
X72190476Y-51042857D01*
X72190476Y-51138095D01*
X72238095Y-51280952D01*
X72809523Y-51852380D01*
X72190476Y-51852380D01*
X71238095Y-51852380D02*
X71809523Y-51852380D01*
X71523809Y-51852380D02*
X71523809Y-50852380D01*
X71619047Y-50995238D01*
X71714285Y-51090476D01*
X71809523Y-51138095D01*
%TO.C,D22*%
X73714285Y-68252380D02*
X73714285Y-67252380D01*
X73476190Y-67252380D01*
X73333333Y-67300000D01*
X73238095Y-67395238D01*
X73190476Y-67490476D01*
X73142857Y-67680952D01*
X73142857Y-67823809D01*
X73190476Y-68014285D01*
X73238095Y-68109523D01*
X73333333Y-68204761D01*
X73476190Y-68252380D01*
X73714285Y-68252380D01*
X72761904Y-67347619D02*
X72714285Y-67300000D01*
X72619047Y-67252380D01*
X72380952Y-67252380D01*
X72285714Y-67300000D01*
X72238095Y-67347619D01*
X72190476Y-67442857D01*
X72190476Y-67538095D01*
X72238095Y-67680952D01*
X72809523Y-68252380D01*
X72190476Y-68252380D01*
X71809523Y-67347619D02*
X71761904Y-67300000D01*
X71666666Y-67252380D01*
X71428571Y-67252380D01*
X71333333Y-67300000D01*
X71285714Y-67347619D01*
X71238095Y-67442857D01*
X71238095Y-67538095D01*
X71285714Y-67680952D01*
X71857142Y-68252380D01*
X71238095Y-68252380D01*
%TO.C,D23*%
X73714285Y-84652380D02*
X73714285Y-83652380D01*
X73476190Y-83652380D01*
X73333333Y-83700000D01*
X73238095Y-83795238D01*
X73190476Y-83890476D01*
X73142857Y-84080952D01*
X73142857Y-84223809D01*
X73190476Y-84414285D01*
X73238095Y-84509523D01*
X73333333Y-84604761D01*
X73476190Y-84652380D01*
X73714285Y-84652380D01*
X72761904Y-83747619D02*
X72714285Y-83700000D01*
X72619047Y-83652380D01*
X72380952Y-83652380D01*
X72285714Y-83700000D01*
X72238095Y-83747619D01*
X72190476Y-83842857D01*
X72190476Y-83938095D01*
X72238095Y-84080952D01*
X72809523Y-84652380D01*
X72190476Y-84652380D01*
X71857142Y-83652380D02*
X71238095Y-83652380D01*
X71571428Y-84033333D01*
X71428571Y-84033333D01*
X71333333Y-84080952D01*
X71285714Y-84128571D01*
X71238095Y-84223809D01*
X71238095Y-84461904D01*
X71285714Y-84557142D01*
X71333333Y-84604761D01*
X71428571Y-84652380D01*
X71714285Y-84652380D01*
X71809523Y-84604761D01*
X71857142Y-84557142D01*
%TO.C,D24*%
X68314285Y-99452380D02*
X68314285Y-98452380D01*
X68076190Y-98452380D01*
X67933333Y-98500000D01*
X67838095Y-98595238D01*
X67790476Y-98690476D01*
X67742857Y-98880952D01*
X67742857Y-99023809D01*
X67790476Y-99214285D01*
X67838095Y-99309523D01*
X67933333Y-99404761D01*
X68076190Y-99452380D01*
X68314285Y-99452380D01*
X67361904Y-98547619D02*
X67314285Y-98500000D01*
X67219047Y-98452380D01*
X66980952Y-98452380D01*
X66885714Y-98500000D01*
X66838095Y-98547619D01*
X66790476Y-98642857D01*
X66790476Y-98738095D01*
X66838095Y-98880952D01*
X67409523Y-99452380D01*
X66790476Y-99452380D01*
X65933333Y-98785714D02*
X65933333Y-99452380D01*
X66171428Y-98404761D02*
X66409523Y-99119047D01*
X65790476Y-99119047D01*
%TO.C,D25*%
X73714285Y-61652380D02*
X73714285Y-60652380D01*
X73476190Y-60652380D01*
X73333333Y-60700000D01*
X73238095Y-60795238D01*
X73190476Y-60890476D01*
X73142857Y-61080952D01*
X73142857Y-61223809D01*
X73190476Y-61414285D01*
X73238095Y-61509523D01*
X73333333Y-61604761D01*
X73476190Y-61652380D01*
X73714285Y-61652380D01*
X72761904Y-60747619D02*
X72714285Y-60700000D01*
X72619047Y-60652380D01*
X72380952Y-60652380D01*
X72285714Y-60700000D01*
X72238095Y-60747619D01*
X72190476Y-60842857D01*
X72190476Y-60938095D01*
X72238095Y-61080952D01*
X72809523Y-61652380D01*
X72190476Y-61652380D01*
X71285714Y-60652380D02*
X71761904Y-60652380D01*
X71809523Y-61128571D01*
X71761904Y-61080952D01*
X71666666Y-61033333D01*
X71428571Y-61033333D01*
X71333333Y-61080952D01*
X71285714Y-61128571D01*
X71238095Y-61223809D01*
X71238095Y-61461904D01*
X71285714Y-61557142D01*
X71333333Y-61604761D01*
X71428571Y-61652380D01*
X71666666Y-61652380D01*
X71761904Y-61604761D01*
X71809523Y-61557142D01*
%TO.C,D26*%
X90514285Y-28852380D02*
X90514285Y-27852380D01*
X90276190Y-27852380D01*
X90133333Y-27900000D01*
X90038095Y-27995238D01*
X89990476Y-28090476D01*
X89942857Y-28280952D01*
X89942857Y-28423809D01*
X89990476Y-28614285D01*
X90038095Y-28709523D01*
X90133333Y-28804761D01*
X90276190Y-28852380D01*
X90514285Y-28852380D01*
X89561904Y-27947619D02*
X89514285Y-27900000D01*
X89419047Y-27852380D01*
X89180952Y-27852380D01*
X89085714Y-27900000D01*
X89038095Y-27947619D01*
X88990476Y-28042857D01*
X88990476Y-28138095D01*
X89038095Y-28280952D01*
X89609523Y-28852380D01*
X88990476Y-28852380D01*
X88133333Y-27852380D02*
X88323809Y-27852380D01*
X88419047Y-27900000D01*
X88466666Y-27947619D01*
X88561904Y-28090476D01*
X88609523Y-28280952D01*
X88609523Y-28661904D01*
X88561904Y-28757142D01*
X88514285Y-28804761D01*
X88419047Y-28852380D01*
X88228571Y-28852380D01*
X88133333Y-28804761D01*
X88085714Y-28757142D01*
X88038095Y-28661904D01*
X88038095Y-28423809D01*
X88085714Y-28328571D01*
X88133333Y-28280952D01*
X88228571Y-28233333D01*
X88419047Y-28233333D01*
X88514285Y-28280952D01*
X88561904Y-28328571D01*
X88609523Y-28423809D01*
%TO.C,D27*%
X90714285Y-48052380D02*
X90714285Y-47052380D01*
X90476190Y-47052380D01*
X90333333Y-47100000D01*
X90238095Y-47195238D01*
X90190476Y-47290476D01*
X90142857Y-47480952D01*
X90142857Y-47623809D01*
X90190476Y-47814285D01*
X90238095Y-47909523D01*
X90333333Y-48004761D01*
X90476190Y-48052380D01*
X90714285Y-48052380D01*
X89761904Y-47147619D02*
X89714285Y-47100000D01*
X89619047Y-47052380D01*
X89380952Y-47052380D01*
X89285714Y-47100000D01*
X89238095Y-47147619D01*
X89190476Y-47242857D01*
X89190476Y-47338095D01*
X89238095Y-47480952D01*
X89809523Y-48052380D01*
X89190476Y-48052380D01*
X88857142Y-47052380D02*
X88190476Y-47052380D01*
X88619047Y-48052380D01*
%TO.C,D28*%
X95114285Y-64452380D02*
X95114285Y-63452380D01*
X94876190Y-63452380D01*
X94733333Y-63500000D01*
X94638095Y-63595238D01*
X94590476Y-63690476D01*
X94542857Y-63880952D01*
X94542857Y-64023809D01*
X94590476Y-64214285D01*
X94638095Y-64309523D01*
X94733333Y-64404761D01*
X94876190Y-64452380D01*
X95114285Y-64452380D01*
X94161904Y-63547619D02*
X94114285Y-63500000D01*
X94019047Y-63452380D01*
X93780952Y-63452380D01*
X93685714Y-63500000D01*
X93638095Y-63547619D01*
X93590476Y-63642857D01*
X93590476Y-63738095D01*
X93638095Y-63880952D01*
X94209523Y-64452380D01*
X93590476Y-64452380D01*
X93019047Y-63880952D02*
X93114285Y-63833333D01*
X93161904Y-63785714D01*
X93209523Y-63690476D01*
X93209523Y-63642857D01*
X93161904Y-63547619D01*
X93114285Y-63500000D01*
X93019047Y-63452380D01*
X92828571Y-63452380D01*
X92733333Y-63500000D01*
X92685714Y-63547619D01*
X92638095Y-63642857D01*
X92638095Y-63690476D01*
X92685714Y-63785714D01*
X92733333Y-63833333D01*
X92828571Y-63880952D01*
X93019047Y-63880952D01*
X93114285Y-63928571D01*
X93161904Y-63976190D01*
X93209523Y-64071428D01*
X93209523Y-64261904D01*
X93161904Y-64357142D01*
X93114285Y-64404761D01*
X93019047Y-64452380D01*
X92828571Y-64452380D01*
X92733333Y-64404761D01*
X92685714Y-64357142D01*
X92638095Y-64261904D01*
X92638095Y-64071428D01*
X92685714Y-63976190D01*
X92733333Y-63928571D01*
X92828571Y-63880952D01*
%TO.C,D29*%
X90314285Y-84652380D02*
X90314285Y-83652380D01*
X90076190Y-83652380D01*
X89933333Y-83700000D01*
X89838095Y-83795238D01*
X89790476Y-83890476D01*
X89742857Y-84080952D01*
X89742857Y-84223809D01*
X89790476Y-84414285D01*
X89838095Y-84509523D01*
X89933333Y-84604761D01*
X90076190Y-84652380D01*
X90314285Y-84652380D01*
X89361904Y-83747619D02*
X89314285Y-83700000D01*
X89219047Y-83652380D01*
X88980952Y-83652380D01*
X88885714Y-83700000D01*
X88838095Y-83747619D01*
X88790476Y-83842857D01*
X88790476Y-83938095D01*
X88838095Y-84080952D01*
X89409523Y-84652380D01*
X88790476Y-84652380D01*
X88314285Y-84652380D02*
X88123809Y-84652380D01*
X88028571Y-84604761D01*
X87980952Y-84557142D01*
X87885714Y-84414285D01*
X87838095Y-84223809D01*
X87838095Y-83842857D01*
X87885714Y-83747619D01*
X87933333Y-83700000D01*
X88028571Y-83652380D01*
X88219047Y-83652380D01*
X88314285Y-83700000D01*
X88361904Y-83747619D01*
X88409523Y-83842857D01*
X88409523Y-84080952D01*
X88361904Y-84176190D01*
X88314285Y-84223809D01*
X88219047Y-84271428D01*
X88028571Y-84271428D01*
X87933333Y-84223809D01*
X87885714Y-84176190D01*
X87838095Y-84080952D01*
%TO.C,D30*%
X86014285Y-97252380D02*
X86014285Y-96252380D01*
X85776190Y-96252380D01*
X85633333Y-96300000D01*
X85538095Y-96395238D01*
X85490476Y-96490476D01*
X85442857Y-96680952D01*
X85442857Y-96823809D01*
X85490476Y-97014285D01*
X85538095Y-97109523D01*
X85633333Y-97204761D01*
X85776190Y-97252380D01*
X86014285Y-97252380D01*
X85109523Y-96252380D02*
X84490476Y-96252380D01*
X84823809Y-96633333D01*
X84680952Y-96633333D01*
X84585714Y-96680952D01*
X84538095Y-96728571D01*
X84490476Y-96823809D01*
X84490476Y-97061904D01*
X84538095Y-97157142D01*
X84585714Y-97204761D01*
X84680952Y-97252380D01*
X84966666Y-97252380D01*
X85061904Y-97204761D01*
X85109523Y-97157142D01*
X83871428Y-96252380D02*
X83776190Y-96252380D01*
X83680952Y-96300000D01*
X83633333Y-96347619D01*
X83585714Y-96442857D01*
X83538095Y-96633333D01*
X83538095Y-96871428D01*
X83585714Y-97061904D01*
X83633333Y-97157142D01*
X83680952Y-97204761D01*
X83776190Y-97252380D01*
X83871428Y-97252380D01*
X83966666Y-97204761D01*
X84014285Y-97157142D01*
X84061904Y-97061904D01*
X84109523Y-96871428D01*
X84109523Y-96633333D01*
X84061904Y-96442857D01*
X84014285Y-96347619D01*
X83966666Y-96300000D01*
X83871428Y-96252380D01*
%TO.C,D31*%
X107314285Y-29052380D02*
X107314285Y-28052380D01*
X107076190Y-28052380D01*
X106933333Y-28100000D01*
X106838095Y-28195238D01*
X106790476Y-28290476D01*
X106742857Y-28480952D01*
X106742857Y-28623809D01*
X106790476Y-28814285D01*
X106838095Y-28909523D01*
X106933333Y-29004761D01*
X107076190Y-29052380D01*
X107314285Y-29052380D01*
X106409523Y-28052380D02*
X105790476Y-28052380D01*
X106123809Y-28433333D01*
X105980952Y-28433333D01*
X105885714Y-28480952D01*
X105838095Y-28528571D01*
X105790476Y-28623809D01*
X105790476Y-28861904D01*
X105838095Y-28957142D01*
X105885714Y-29004761D01*
X105980952Y-29052380D01*
X106266666Y-29052380D01*
X106361904Y-29004761D01*
X106409523Y-28957142D01*
X104838095Y-29052380D02*
X105409523Y-29052380D01*
X105123809Y-29052380D02*
X105123809Y-28052380D01*
X105219047Y-28195238D01*
X105314285Y-28290476D01*
X105409523Y-28338095D01*
%TO.C,D32*%
X126714285Y-51852380D02*
X126714285Y-50852380D01*
X126476190Y-50852380D01*
X126333333Y-50900000D01*
X126238095Y-50995238D01*
X126190476Y-51090476D01*
X126142857Y-51280952D01*
X126142857Y-51423809D01*
X126190476Y-51614285D01*
X126238095Y-51709523D01*
X126333333Y-51804761D01*
X126476190Y-51852380D01*
X126714285Y-51852380D01*
X125809523Y-50852380D02*
X125190476Y-50852380D01*
X125523809Y-51233333D01*
X125380952Y-51233333D01*
X125285714Y-51280952D01*
X125238095Y-51328571D01*
X125190476Y-51423809D01*
X125190476Y-51661904D01*
X125238095Y-51757142D01*
X125285714Y-51804761D01*
X125380952Y-51852380D01*
X125666666Y-51852380D01*
X125761904Y-51804761D01*
X125809523Y-51757142D01*
X124809523Y-50947619D02*
X124761904Y-50900000D01*
X124666666Y-50852380D01*
X124428571Y-50852380D01*
X124333333Y-50900000D01*
X124285714Y-50947619D01*
X124238095Y-51042857D01*
X124238095Y-51138095D01*
X124285714Y-51280952D01*
X124857142Y-51852380D01*
X124238095Y-51852380D01*
%TO.C,D33*%
X115514285Y-68252380D02*
X115514285Y-67252380D01*
X115276190Y-67252380D01*
X115133333Y-67300000D01*
X115038095Y-67395238D01*
X114990476Y-67490476D01*
X114942857Y-67680952D01*
X114942857Y-67823809D01*
X114990476Y-68014285D01*
X115038095Y-68109523D01*
X115133333Y-68204761D01*
X115276190Y-68252380D01*
X115514285Y-68252380D01*
X114609523Y-67252380D02*
X113990476Y-67252380D01*
X114323809Y-67633333D01*
X114180952Y-67633333D01*
X114085714Y-67680952D01*
X114038095Y-67728571D01*
X113990476Y-67823809D01*
X113990476Y-68061904D01*
X114038095Y-68157142D01*
X114085714Y-68204761D01*
X114180952Y-68252380D01*
X114466666Y-68252380D01*
X114561904Y-68204761D01*
X114609523Y-68157142D01*
X113657142Y-67252380D02*
X113038095Y-67252380D01*
X113371428Y-67633333D01*
X113228571Y-67633333D01*
X113133333Y-67680952D01*
X113085714Y-67728571D01*
X113038095Y-67823809D01*
X113038095Y-68061904D01*
X113085714Y-68157142D01*
X113133333Y-68204761D01*
X113228571Y-68252380D01*
X113514285Y-68252380D01*
X113609523Y-68204761D01*
X113657142Y-68157142D01*
%TO.C,D34*%
X107314285Y-84652380D02*
X107314285Y-83652380D01*
X107076190Y-83652380D01*
X106933333Y-83700000D01*
X106838095Y-83795238D01*
X106790476Y-83890476D01*
X106742857Y-84080952D01*
X106742857Y-84223809D01*
X106790476Y-84414285D01*
X106838095Y-84509523D01*
X106933333Y-84604761D01*
X107076190Y-84652380D01*
X107314285Y-84652380D01*
X106409523Y-83652380D02*
X105790476Y-83652380D01*
X106123809Y-84033333D01*
X105980952Y-84033333D01*
X105885714Y-84080952D01*
X105838095Y-84128571D01*
X105790476Y-84223809D01*
X105790476Y-84461904D01*
X105838095Y-84557142D01*
X105885714Y-84604761D01*
X105980952Y-84652380D01*
X106266666Y-84652380D01*
X106361904Y-84604761D01*
X106409523Y-84557142D01*
X104933333Y-83985714D02*
X104933333Y-84652380D01*
X105171428Y-83604761D02*
X105409523Y-84319047D01*
X104790476Y-84319047D01*
%TO.C,D35*%
X106514285Y-97252380D02*
X106514285Y-96252380D01*
X106276190Y-96252380D01*
X106133333Y-96300000D01*
X106038095Y-96395238D01*
X105990476Y-96490476D01*
X105942857Y-96680952D01*
X105942857Y-96823809D01*
X105990476Y-97014285D01*
X106038095Y-97109523D01*
X106133333Y-97204761D01*
X106276190Y-97252380D01*
X106514285Y-97252380D01*
X105609523Y-96252380D02*
X104990476Y-96252380D01*
X105323809Y-96633333D01*
X105180952Y-96633333D01*
X105085714Y-96680952D01*
X105038095Y-96728571D01*
X104990476Y-96823809D01*
X104990476Y-97061904D01*
X105038095Y-97157142D01*
X105085714Y-97204761D01*
X105180952Y-97252380D01*
X105466666Y-97252380D01*
X105561904Y-97204761D01*
X105609523Y-97157142D01*
X104085714Y-96252380D02*
X104561904Y-96252380D01*
X104609523Y-96728571D01*
X104561904Y-96680952D01*
X104466666Y-96633333D01*
X104228571Y-96633333D01*
X104133333Y-96680952D01*
X104085714Y-96728571D01*
X104038095Y-96823809D01*
X104038095Y-97061904D01*
X104085714Y-97157142D01*
X104133333Y-97204761D01*
X104228571Y-97252380D01*
X104466666Y-97252380D01*
X104561904Y-97204761D01*
X104609523Y-97157142D01*
%TO.C,D36*%
X123914285Y-78052380D02*
X123914285Y-77052380D01*
X123676190Y-77052380D01*
X123533333Y-77100000D01*
X123438095Y-77195238D01*
X123390476Y-77290476D01*
X123342857Y-77480952D01*
X123342857Y-77623809D01*
X123390476Y-77814285D01*
X123438095Y-77909523D01*
X123533333Y-78004761D01*
X123676190Y-78052380D01*
X123914285Y-78052380D01*
X123009523Y-77052380D02*
X122390476Y-77052380D01*
X122723809Y-77433333D01*
X122580952Y-77433333D01*
X122485714Y-77480952D01*
X122438095Y-77528571D01*
X122390476Y-77623809D01*
X122390476Y-77861904D01*
X122438095Y-77957142D01*
X122485714Y-78004761D01*
X122580952Y-78052380D01*
X122866666Y-78052380D01*
X122961904Y-78004761D01*
X123009523Y-77957142D01*
X121533333Y-77052380D02*
X121723809Y-77052380D01*
X121819047Y-77100000D01*
X121866666Y-77147619D01*
X121961904Y-77290476D01*
X122009523Y-77480952D01*
X122009523Y-77861904D01*
X121961904Y-77957142D01*
X121914285Y-78004761D01*
X121819047Y-78052380D01*
X121628571Y-78052380D01*
X121533333Y-78004761D01*
X121485714Y-77957142D01*
X121438095Y-77861904D01*
X121438095Y-77623809D01*
X121485714Y-77528571D01*
X121533333Y-77480952D01*
X121628571Y-77433333D01*
X121819047Y-77433333D01*
X121914285Y-77480952D01*
X121961904Y-77528571D01*
X122009523Y-77623809D01*
%TO.C,D37*%
X124114285Y-29052380D02*
X124114285Y-28052380D01*
X123876190Y-28052380D01*
X123733333Y-28100000D01*
X123638095Y-28195238D01*
X123590476Y-28290476D01*
X123542857Y-28480952D01*
X123542857Y-28623809D01*
X123590476Y-28814285D01*
X123638095Y-28909523D01*
X123733333Y-29004761D01*
X123876190Y-29052380D01*
X124114285Y-29052380D01*
X123209523Y-28052380D02*
X122590476Y-28052380D01*
X122923809Y-28433333D01*
X122780952Y-28433333D01*
X122685714Y-28480952D01*
X122638095Y-28528571D01*
X122590476Y-28623809D01*
X122590476Y-28861904D01*
X122638095Y-28957142D01*
X122685714Y-29004761D01*
X122780952Y-29052380D01*
X123066666Y-29052380D01*
X123161904Y-29004761D01*
X123209523Y-28957142D01*
X122257142Y-28052380D02*
X121590476Y-28052380D01*
X122019047Y-29052380D01*
%TO.C,D38*%
X132314285Y-51852380D02*
X132314285Y-50852380D01*
X132076190Y-50852380D01*
X131933333Y-50900000D01*
X131838095Y-50995238D01*
X131790476Y-51090476D01*
X131742857Y-51280952D01*
X131742857Y-51423809D01*
X131790476Y-51614285D01*
X131838095Y-51709523D01*
X131933333Y-51804761D01*
X132076190Y-51852380D01*
X132314285Y-51852380D01*
X131409523Y-50852380D02*
X130790476Y-50852380D01*
X131123809Y-51233333D01*
X130980952Y-51233333D01*
X130885714Y-51280952D01*
X130838095Y-51328571D01*
X130790476Y-51423809D01*
X130790476Y-51661904D01*
X130838095Y-51757142D01*
X130885714Y-51804761D01*
X130980952Y-51852380D01*
X131266666Y-51852380D01*
X131361904Y-51804761D01*
X131409523Y-51757142D01*
X130219047Y-51280952D02*
X130314285Y-51233333D01*
X130361904Y-51185714D01*
X130409523Y-51090476D01*
X130409523Y-51042857D01*
X130361904Y-50947619D01*
X130314285Y-50900000D01*
X130219047Y-50852380D01*
X130028571Y-50852380D01*
X129933333Y-50900000D01*
X129885714Y-50947619D01*
X129838095Y-51042857D01*
X129838095Y-51090476D01*
X129885714Y-51185714D01*
X129933333Y-51233333D01*
X130028571Y-51280952D01*
X130219047Y-51280952D01*
X130314285Y-51328571D01*
X130361904Y-51376190D01*
X130409523Y-51471428D01*
X130409523Y-51661904D01*
X130361904Y-51757142D01*
X130314285Y-51804761D01*
X130219047Y-51852380D01*
X130028571Y-51852380D01*
X129933333Y-51804761D01*
X129885714Y-51757142D01*
X129838095Y-51661904D01*
X129838095Y-51471428D01*
X129885714Y-51376190D01*
X129933333Y-51328571D01*
X130028571Y-51280952D01*
%TO.C,D39*%
X132314285Y-68252380D02*
X132314285Y-67252380D01*
X132076190Y-67252380D01*
X131933333Y-67300000D01*
X131838095Y-67395238D01*
X131790476Y-67490476D01*
X131742857Y-67680952D01*
X131742857Y-67823809D01*
X131790476Y-68014285D01*
X131838095Y-68109523D01*
X131933333Y-68204761D01*
X132076190Y-68252380D01*
X132314285Y-68252380D01*
X131409523Y-67252380D02*
X130790476Y-67252380D01*
X131123809Y-67633333D01*
X130980952Y-67633333D01*
X130885714Y-67680952D01*
X130838095Y-67728571D01*
X130790476Y-67823809D01*
X130790476Y-68061904D01*
X130838095Y-68157142D01*
X130885714Y-68204761D01*
X130980952Y-68252380D01*
X131266666Y-68252380D01*
X131361904Y-68204761D01*
X131409523Y-68157142D01*
X130314285Y-68252380D02*
X130123809Y-68252380D01*
X130028571Y-68204761D01*
X129980952Y-68157142D01*
X129885714Y-68014285D01*
X129838095Y-67823809D01*
X129838095Y-67442857D01*
X129885714Y-67347619D01*
X129933333Y-67300000D01*
X130028571Y-67252380D01*
X130219047Y-67252380D01*
X130314285Y-67300000D01*
X130361904Y-67347619D01*
X130409523Y-67442857D01*
X130409523Y-67680952D01*
X130361904Y-67776190D01*
X130314285Y-67823809D01*
X130219047Y-67871428D01*
X130028571Y-67871428D01*
X129933333Y-67823809D01*
X129885714Y-67776190D01*
X129838095Y-67680952D01*
%TO.C,D40*%
X123914285Y-84652380D02*
X123914285Y-83652380D01*
X123676190Y-83652380D01*
X123533333Y-83700000D01*
X123438095Y-83795238D01*
X123390476Y-83890476D01*
X123342857Y-84080952D01*
X123342857Y-84223809D01*
X123390476Y-84414285D01*
X123438095Y-84509523D01*
X123533333Y-84604761D01*
X123676190Y-84652380D01*
X123914285Y-84652380D01*
X122485714Y-83985714D02*
X122485714Y-84652380D01*
X122723809Y-83604761D02*
X122961904Y-84319047D01*
X122342857Y-84319047D01*
X121771428Y-83652380D02*
X121676190Y-83652380D01*
X121580952Y-83700000D01*
X121533333Y-83747619D01*
X121485714Y-83842857D01*
X121438095Y-84033333D01*
X121438095Y-84271428D01*
X121485714Y-84461904D01*
X121533333Y-84557142D01*
X121580952Y-84604761D01*
X121676190Y-84652380D01*
X121771428Y-84652380D01*
X121866666Y-84604761D01*
X121914285Y-84557142D01*
X121961904Y-84461904D01*
X122009523Y-84271428D01*
X122009523Y-84033333D01*
X121961904Y-83842857D01*
X121914285Y-83747619D01*
X121866666Y-83700000D01*
X121771428Y-83652380D01*
%TO.C,D41*%
X124114285Y-101052380D02*
X124114285Y-100052380D01*
X123876190Y-100052380D01*
X123733333Y-100100000D01*
X123638095Y-100195238D01*
X123590476Y-100290476D01*
X123542857Y-100480952D01*
X123542857Y-100623809D01*
X123590476Y-100814285D01*
X123638095Y-100909523D01*
X123733333Y-101004761D01*
X123876190Y-101052380D01*
X124114285Y-101052380D01*
X122685714Y-100385714D02*
X122685714Y-101052380D01*
X122923809Y-100004761D02*
X123161904Y-100719047D01*
X122542857Y-100719047D01*
X121638095Y-101052380D02*
X122209523Y-101052380D01*
X121923809Y-101052380D02*
X121923809Y-100052380D01*
X122019047Y-100195238D01*
X122114285Y-100290476D01*
X122209523Y-100338095D01*
%TO.C,D42*%
X141114285Y-29052380D02*
X141114285Y-28052380D01*
X140876190Y-28052380D01*
X140733333Y-28100000D01*
X140638095Y-28195238D01*
X140590476Y-28290476D01*
X140542857Y-28480952D01*
X140542857Y-28623809D01*
X140590476Y-28814285D01*
X140638095Y-28909523D01*
X140733333Y-29004761D01*
X140876190Y-29052380D01*
X141114285Y-29052380D01*
X139685714Y-28385714D02*
X139685714Y-29052380D01*
X139923809Y-28004761D02*
X140161904Y-28719047D01*
X139542857Y-28719047D01*
X139209523Y-28147619D02*
X139161904Y-28100000D01*
X139066666Y-28052380D01*
X138828571Y-28052380D01*
X138733333Y-28100000D01*
X138685714Y-28147619D01*
X138638095Y-28242857D01*
X138638095Y-28338095D01*
X138685714Y-28480952D01*
X139257142Y-29052380D01*
X138638095Y-29052380D01*
%TO.C,D43*%
X149314285Y-51852380D02*
X149314285Y-50852380D01*
X149076190Y-50852380D01*
X148933333Y-50900000D01*
X148838095Y-50995238D01*
X148790476Y-51090476D01*
X148742857Y-51280952D01*
X148742857Y-51423809D01*
X148790476Y-51614285D01*
X148838095Y-51709523D01*
X148933333Y-51804761D01*
X149076190Y-51852380D01*
X149314285Y-51852380D01*
X147885714Y-51185714D02*
X147885714Y-51852380D01*
X148123809Y-50804761D02*
X148361904Y-51519047D01*
X147742857Y-51519047D01*
X147457142Y-50852380D02*
X146838095Y-50852380D01*
X147171428Y-51233333D01*
X147028571Y-51233333D01*
X146933333Y-51280952D01*
X146885714Y-51328571D01*
X146838095Y-51423809D01*
X146838095Y-51661904D01*
X146885714Y-51757142D01*
X146933333Y-51804761D01*
X147028571Y-51852380D01*
X147314285Y-51852380D01*
X147409523Y-51804761D01*
X147457142Y-51757142D01*
%TO.C,D44*%
X157514285Y-68252380D02*
X157514285Y-67252380D01*
X157276190Y-67252380D01*
X157133333Y-67300000D01*
X157038095Y-67395238D01*
X156990476Y-67490476D01*
X156942857Y-67680952D01*
X156942857Y-67823809D01*
X156990476Y-68014285D01*
X157038095Y-68109523D01*
X157133333Y-68204761D01*
X157276190Y-68252380D01*
X157514285Y-68252380D01*
X156085714Y-67585714D02*
X156085714Y-68252380D01*
X156323809Y-67204761D02*
X156561904Y-67919047D01*
X155942857Y-67919047D01*
X155133333Y-67585714D02*
X155133333Y-68252380D01*
X155371428Y-67204761D02*
X155609523Y-67919047D01*
X154990476Y-67919047D01*
%TO.C,D45*%
X140714285Y-84652380D02*
X140714285Y-83652380D01*
X140476190Y-83652380D01*
X140333333Y-83700000D01*
X140238095Y-83795238D01*
X140190476Y-83890476D01*
X140142857Y-84080952D01*
X140142857Y-84223809D01*
X140190476Y-84414285D01*
X140238095Y-84509523D01*
X140333333Y-84604761D01*
X140476190Y-84652380D01*
X140714285Y-84652380D01*
X139285714Y-83985714D02*
X139285714Y-84652380D01*
X139523809Y-83604761D02*
X139761904Y-84319047D01*
X139142857Y-84319047D01*
X138285714Y-83652380D02*
X138761904Y-83652380D01*
X138809523Y-84128571D01*
X138761904Y-84080952D01*
X138666666Y-84033333D01*
X138428571Y-84033333D01*
X138333333Y-84080952D01*
X138285714Y-84128571D01*
X138238095Y-84223809D01*
X138238095Y-84461904D01*
X138285714Y-84557142D01*
X138333333Y-84604761D01*
X138428571Y-84652380D01*
X138666666Y-84652380D01*
X138761904Y-84604761D01*
X138809523Y-84557142D01*
%TO.C,D46*%
X136114285Y-97252380D02*
X136114285Y-96252380D01*
X135876190Y-96252380D01*
X135733333Y-96300000D01*
X135638095Y-96395238D01*
X135590476Y-96490476D01*
X135542857Y-96680952D01*
X135542857Y-96823809D01*
X135590476Y-97014285D01*
X135638095Y-97109523D01*
X135733333Y-97204761D01*
X135876190Y-97252380D01*
X136114285Y-97252380D01*
X134685714Y-96585714D02*
X134685714Y-97252380D01*
X134923809Y-96204761D02*
X135161904Y-96919047D01*
X134542857Y-96919047D01*
X133733333Y-96252380D02*
X133923809Y-96252380D01*
X134019047Y-96300000D01*
X134066666Y-96347619D01*
X134161904Y-96490476D01*
X134209523Y-96680952D01*
X134209523Y-97061904D01*
X134161904Y-97157142D01*
X134114285Y-97204761D01*
X134019047Y-97252380D01*
X133828571Y-97252380D01*
X133733333Y-97204761D01*
X133685714Y-97157142D01*
X133638095Y-97061904D01*
X133638095Y-96823809D01*
X133685714Y-96728571D01*
X133733333Y-96680952D01*
X133828571Y-96633333D01*
X134019047Y-96633333D01*
X134114285Y-96680952D01*
X134161904Y-96728571D01*
X134209523Y-96823809D01*
%TO.C,D47*%
X157714285Y-94652380D02*
X157714285Y-93652380D01*
X157476190Y-93652380D01*
X157333333Y-93700000D01*
X157238095Y-93795238D01*
X157190476Y-93890476D01*
X157142857Y-94080952D01*
X157142857Y-94223809D01*
X157190476Y-94414285D01*
X157238095Y-94509523D01*
X157333333Y-94604761D01*
X157476190Y-94652380D01*
X157714285Y-94652380D01*
X156285714Y-93985714D02*
X156285714Y-94652380D01*
X156523809Y-93604761D02*
X156761904Y-94319047D01*
X156142857Y-94319047D01*
X155857142Y-93652380D02*
X155190476Y-93652380D01*
X155619047Y-94652380D01*
%TO.C,D48*%
X157714285Y-35452380D02*
X157714285Y-34452380D01*
X157476190Y-34452380D01*
X157333333Y-34500000D01*
X157238095Y-34595238D01*
X157190476Y-34690476D01*
X157142857Y-34880952D01*
X157142857Y-35023809D01*
X157190476Y-35214285D01*
X157238095Y-35309523D01*
X157333333Y-35404761D01*
X157476190Y-35452380D01*
X157714285Y-35452380D01*
X156285714Y-34785714D02*
X156285714Y-35452380D01*
X156523809Y-34404761D02*
X156761904Y-35119047D01*
X156142857Y-35119047D01*
X155619047Y-34880952D02*
X155714285Y-34833333D01*
X155761904Y-34785714D01*
X155809523Y-34690476D01*
X155809523Y-34642857D01*
X155761904Y-34547619D01*
X155714285Y-34500000D01*
X155619047Y-34452380D01*
X155428571Y-34452380D01*
X155333333Y-34500000D01*
X155285714Y-34547619D01*
X155238095Y-34642857D01*
X155238095Y-34690476D01*
X155285714Y-34785714D01*
X155333333Y-34833333D01*
X155428571Y-34880952D01*
X155619047Y-34880952D01*
X155714285Y-34928571D01*
X155761904Y-34976190D01*
X155809523Y-35071428D01*
X155809523Y-35261904D01*
X155761904Y-35357142D01*
X155714285Y-35404761D01*
X155619047Y-35452380D01*
X155428571Y-35452380D01*
X155333333Y-35404761D01*
X155285714Y-35357142D01*
X155238095Y-35261904D01*
X155238095Y-35071428D01*
X155285714Y-34976190D01*
X155333333Y-34928571D01*
X155428571Y-34880952D01*
%TO.C,D49*%
X166114285Y-51852380D02*
X166114285Y-50852380D01*
X165876190Y-50852380D01*
X165733333Y-50900000D01*
X165638095Y-50995238D01*
X165590476Y-51090476D01*
X165542857Y-51280952D01*
X165542857Y-51423809D01*
X165590476Y-51614285D01*
X165638095Y-51709523D01*
X165733333Y-51804761D01*
X165876190Y-51852380D01*
X166114285Y-51852380D01*
X164685714Y-51185714D02*
X164685714Y-51852380D01*
X164923809Y-50804761D02*
X165161904Y-51519047D01*
X164542857Y-51519047D01*
X164114285Y-51852380D02*
X163923809Y-51852380D01*
X163828571Y-51804761D01*
X163780952Y-51757142D01*
X163685714Y-51614285D01*
X163638095Y-51423809D01*
X163638095Y-51042857D01*
X163685714Y-50947619D01*
X163733333Y-50900000D01*
X163828571Y-50852380D01*
X164019047Y-50852380D01*
X164114285Y-50900000D01*
X164161904Y-50947619D01*
X164209523Y-51042857D01*
X164209523Y-51280952D01*
X164161904Y-51376190D01*
X164114285Y-51423809D01*
X164019047Y-51471428D01*
X163828571Y-51471428D01*
X163733333Y-51423809D01*
X163685714Y-51376190D01*
X163638095Y-51280952D01*
%TO.C,D50*%
X165914285Y-68252380D02*
X165914285Y-67252380D01*
X165676190Y-67252380D01*
X165533333Y-67300000D01*
X165438095Y-67395238D01*
X165390476Y-67490476D01*
X165342857Y-67680952D01*
X165342857Y-67823809D01*
X165390476Y-68014285D01*
X165438095Y-68109523D01*
X165533333Y-68204761D01*
X165676190Y-68252380D01*
X165914285Y-68252380D01*
X164438095Y-67252380D02*
X164914285Y-67252380D01*
X164961904Y-67728571D01*
X164914285Y-67680952D01*
X164819047Y-67633333D01*
X164580952Y-67633333D01*
X164485714Y-67680952D01*
X164438095Y-67728571D01*
X164390476Y-67823809D01*
X164390476Y-68061904D01*
X164438095Y-68157142D01*
X164485714Y-68204761D01*
X164580952Y-68252380D01*
X164819047Y-68252380D01*
X164914285Y-68204761D01*
X164961904Y-68157142D01*
X163771428Y-67252380D02*
X163676190Y-67252380D01*
X163580952Y-67300000D01*
X163533333Y-67347619D01*
X163485714Y-67442857D01*
X163438095Y-67633333D01*
X163438095Y-67871428D01*
X163485714Y-68061904D01*
X163533333Y-68157142D01*
X163580952Y-68204761D01*
X163676190Y-68252380D01*
X163771428Y-68252380D01*
X163866666Y-68204761D01*
X163914285Y-68157142D01*
X163961904Y-68061904D01*
X164009523Y-67871428D01*
X164009523Y-67633333D01*
X163961904Y-67442857D01*
X163914285Y-67347619D01*
X163866666Y-67300000D01*
X163771428Y-67252380D01*
%TO.C,D51*%
X157514285Y-84652380D02*
X157514285Y-83652380D01*
X157276190Y-83652380D01*
X157133333Y-83700000D01*
X157038095Y-83795238D01*
X156990476Y-83890476D01*
X156942857Y-84080952D01*
X156942857Y-84223809D01*
X156990476Y-84414285D01*
X157038095Y-84509523D01*
X157133333Y-84604761D01*
X157276190Y-84652380D01*
X157514285Y-84652380D01*
X156038095Y-83652380D02*
X156514285Y-83652380D01*
X156561904Y-84128571D01*
X156514285Y-84080952D01*
X156419047Y-84033333D01*
X156180952Y-84033333D01*
X156085714Y-84080952D01*
X156038095Y-84128571D01*
X155990476Y-84223809D01*
X155990476Y-84461904D01*
X156038095Y-84557142D01*
X156085714Y-84604761D01*
X156180952Y-84652380D01*
X156419047Y-84652380D01*
X156514285Y-84604761D01*
X156561904Y-84557142D01*
X155038095Y-84652380D02*
X155609523Y-84652380D01*
X155323809Y-84652380D02*
X155323809Y-83652380D01*
X155419047Y-83795238D01*
X155514285Y-83890476D01*
X155609523Y-83938095D01*
%TO.C,D52*%
X157714285Y-101052380D02*
X157714285Y-100052380D01*
X157476190Y-100052380D01*
X157333333Y-100100000D01*
X157238095Y-100195238D01*
X157190476Y-100290476D01*
X157142857Y-100480952D01*
X157142857Y-100623809D01*
X157190476Y-100814285D01*
X157238095Y-100909523D01*
X157333333Y-101004761D01*
X157476190Y-101052380D01*
X157714285Y-101052380D01*
X156238095Y-100052380D02*
X156714285Y-100052380D01*
X156761904Y-100528571D01*
X156714285Y-100480952D01*
X156619047Y-100433333D01*
X156380952Y-100433333D01*
X156285714Y-100480952D01*
X156238095Y-100528571D01*
X156190476Y-100623809D01*
X156190476Y-100861904D01*
X156238095Y-100957142D01*
X156285714Y-101004761D01*
X156380952Y-101052380D01*
X156619047Y-101052380D01*
X156714285Y-101004761D01*
X156761904Y-100957142D01*
X155809523Y-100147619D02*
X155761904Y-100100000D01*
X155666666Y-100052380D01*
X155428571Y-100052380D01*
X155333333Y-100100000D01*
X155285714Y-100147619D01*
X155238095Y-100242857D01*
X155238095Y-100338095D01*
X155285714Y-100480952D01*
X155857142Y-101052380D01*
X155238095Y-101052380D01*
%TO.C,D54*%
X173414285Y-35852380D02*
X173414285Y-34852380D01*
X173176190Y-34852380D01*
X173033333Y-34900000D01*
X172938095Y-34995238D01*
X172890476Y-35090476D01*
X172842857Y-35280952D01*
X172842857Y-35423809D01*
X172890476Y-35614285D01*
X172938095Y-35709523D01*
X173033333Y-35804761D01*
X173176190Y-35852380D01*
X173414285Y-35852380D01*
X171938095Y-34852380D02*
X172414285Y-34852380D01*
X172461904Y-35328571D01*
X172414285Y-35280952D01*
X172319047Y-35233333D01*
X172080952Y-35233333D01*
X171985714Y-35280952D01*
X171938095Y-35328571D01*
X171890476Y-35423809D01*
X171890476Y-35661904D01*
X171938095Y-35757142D01*
X171985714Y-35804761D01*
X172080952Y-35852380D01*
X172319047Y-35852380D01*
X172414285Y-35804761D01*
X172461904Y-35757142D01*
X171033333Y-35185714D02*
X171033333Y-35852380D01*
X171271428Y-34804761D02*
X171509523Y-35519047D01*
X170890476Y-35519047D01*
%TO.C,D55*%
X182914285Y-51852380D02*
X182914285Y-50852380D01*
X182676190Y-50852380D01*
X182533333Y-50900000D01*
X182438095Y-50995238D01*
X182390476Y-51090476D01*
X182342857Y-51280952D01*
X182342857Y-51423809D01*
X182390476Y-51614285D01*
X182438095Y-51709523D01*
X182533333Y-51804761D01*
X182676190Y-51852380D01*
X182914285Y-51852380D01*
X181438095Y-50852380D02*
X181914285Y-50852380D01*
X181961904Y-51328571D01*
X181914285Y-51280952D01*
X181819047Y-51233333D01*
X181580952Y-51233333D01*
X181485714Y-51280952D01*
X181438095Y-51328571D01*
X181390476Y-51423809D01*
X181390476Y-51661904D01*
X181438095Y-51757142D01*
X181485714Y-51804761D01*
X181580952Y-51852380D01*
X181819047Y-51852380D01*
X181914285Y-51804761D01*
X181961904Y-51757142D01*
X180485714Y-50852380D02*
X180961904Y-50852380D01*
X181009523Y-51328571D01*
X180961904Y-51280952D01*
X180866666Y-51233333D01*
X180628571Y-51233333D01*
X180533333Y-51280952D01*
X180485714Y-51328571D01*
X180438095Y-51423809D01*
X180438095Y-51661904D01*
X180485714Y-51757142D01*
X180533333Y-51804761D01*
X180628571Y-51852380D01*
X180866666Y-51852380D01*
X180961904Y-51804761D01*
X181009523Y-51757142D01*
%TO.C,D56*%
X182914285Y-68252380D02*
X182914285Y-67252380D01*
X182676190Y-67252380D01*
X182533333Y-67300000D01*
X182438095Y-67395238D01*
X182390476Y-67490476D01*
X182342857Y-67680952D01*
X182342857Y-67823809D01*
X182390476Y-68014285D01*
X182438095Y-68109523D01*
X182533333Y-68204761D01*
X182676190Y-68252380D01*
X182914285Y-68252380D01*
X181438095Y-67252380D02*
X181914285Y-67252380D01*
X181961904Y-67728571D01*
X181914285Y-67680952D01*
X181819047Y-67633333D01*
X181580952Y-67633333D01*
X181485714Y-67680952D01*
X181438095Y-67728571D01*
X181390476Y-67823809D01*
X181390476Y-68061904D01*
X181438095Y-68157142D01*
X181485714Y-68204761D01*
X181580952Y-68252380D01*
X181819047Y-68252380D01*
X181914285Y-68204761D01*
X181961904Y-68157142D01*
X180533333Y-67252380D02*
X180723809Y-67252380D01*
X180819047Y-67300000D01*
X180866666Y-67347619D01*
X180961904Y-67490476D01*
X181009523Y-67680952D01*
X181009523Y-68061904D01*
X180961904Y-68157142D01*
X180914285Y-68204761D01*
X180819047Y-68252380D01*
X180628571Y-68252380D01*
X180533333Y-68204761D01*
X180485714Y-68157142D01*
X180438095Y-68061904D01*
X180438095Y-67823809D01*
X180485714Y-67728571D01*
X180533333Y-67680952D01*
X180628571Y-67633333D01*
X180819047Y-67633333D01*
X180914285Y-67680952D01*
X180961904Y-67728571D01*
X181009523Y-67823809D01*
%TO.C,D57*%
X174314285Y-84652380D02*
X174314285Y-83652380D01*
X174076190Y-83652380D01*
X173933333Y-83700000D01*
X173838095Y-83795238D01*
X173790476Y-83890476D01*
X173742857Y-84080952D01*
X173742857Y-84223809D01*
X173790476Y-84414285D01*
X173838095Y-84509523D01*
X173933333Y-84604761D01*
X174076190Y-84652380D01*
X174314285Y-84652380D01*
X172838095Y-83652380D02*
X173314285Y-83652380D01*
X173361904Y-84128571D01*
X173314285Y-84080952D01*
X173219047Y-84033333D01*
X172980952Y-84033333D01*
X172885714Y-84080952D01*
X172838095Y-84128571D01*
X172790476Y-84223809D01*
X172790476Y-84461904D01*
X172838095Y-84557142D01*
X172885714Y-84604761D01*
X172980952Y-84652380D01*
X173219047Y-84652380D01*
X173314285Y-84604761D01*
X173361904Y-84557142D01*
X172457142Y-83652380D02*
X171790476Y-83652380D01*
X172219047Y-84652380D01*
%TO.C,D58*%
X169514285Y-97252380D02*
X169514285Y-96252380D01*
X169276190Y-96252380D01*
X169133333Y-96300000D01*
X169038095Y-96395238D01*
X168990476Y-96490476D01*
X168942857Y-96680952D01*
X168942857Y-96823809D01*
X168990476Y-97014285D01*
X169038095Y-97109523D01*
X169133333Y-97204761D01*
X169276190Y-97252380D01*
X169514285Y-97252380D01*
X168038095Y-96252380D02*
X168514285Y-96252380D01*
X168561904Y-96728571D01*
X168514285Y-96680952D01*
X168419047Y-96633333D01*
X168180952Y-96633333D01*
X168085714Y-96680952D01*
X168038095Y-96728571D01*
X167990476Y-96823809D01*
X167990476Y-97061904D01*
X168038095Y-97157142D01*
X168085714Y-97204761D01*
X168180952Y-97252380D01*
X168419047Y-97252380D01*
X168514285Y-97204761D01*
X168561904Y-97157142D01*
X167419047Y-96680952D02*
X167514285Y-96633333D01*
X167561904Y-96585714D01*
X167609523Y-96490476D01*
X167609523Y-96442857D01*
X167561904Y-96347619D01*
X167514285Y-96300000D01*
X167419047Y-96252380D01*
X167228571Y-96252380D01*
X167133333Y-96300000D01*
X167085714Y-96347619D01*
X167038095Y-96442857D01*
X167038095Y-96490476D01*
X167085714Y-96585714D01*
X167133333Y-96633333D01*
X167228571Y-96680952D01*
X167419047Y-96680952D01*
X167514285Y-96728571D01*
X167561904Y-96776190D01*
X167609523Y-96871428D01*
X167609523Y-97061904D01*
X167561904Y-97157142D01*
X167514285Y-97204761D01*
X167419047Y-97252380D01*
X167228571Y-97252380D01*
X167133333Y-97204761D01*
X167085714Y-97157142D01*
X167038095Y-97061904D01*
X167038095Y-96871428D01*
X167085714Y-96776190D01*
X167133333Y-96728571D01*
X167228571Y-96680952D01*
%TO.C,D59*%
X191314285Y-28852380D02*
X191314285Y-27852380D01*
X191076190Y-27852380D01*
X190933333Y-27900000D01*
X190838095Y-27995238D01*
X190790476Y-28090476D01*
X190742857Y-28280952D01*
X190742857Y-28423809D01*
X190790476Y-28614285D01*
X190838095Y-28709523D01*
X190933333Y-28804761D01*
X191076190Y-28852380D01*
X191314285Y-28852380D01*
X189838095Y-27852380D02*
X190314285Y-27852380D01*
X190361904Y-28328571D01*
X190314285Y-28280952D01*
X190219047Y-28233333D01*
X189980952Y-28233333D01*
X189885714Y-28280952D01*
X189838095Y-28328571D01*
X189790476Y-28423809D01*
X189790476Y-28661904D01*
X189838095Y-28757142D01*
X189885714Y-28804761D01*
X189980952Y-28852380D01*
X190219047Y-28852380D01*
X190314285Y-28804761D01*
X190361904Y-28757142D01*
X189314285Y-28852380D02*
X189123809Y-28852380D01*
X189028571Y-28804761D01*
X188980952Y-28757142D01*
X188885714Y-28614285D01*
X188838095Y-28423809D01*
X188838095Y-28042857D01*
X188885714Y-27947619D01*
X188933333Y-27900000D01*
X189028571Y-27852380D01*
X189219047Y-27852380D01*
X189314285Y-27900000D01*
X189361904Y-27947619D01*
X189409523Y-28042857D01*
X189409523Y-28280952D01*
X189361904Y-28376190D01*
X189314285Y-28423809D01*
X189219047Y-28471428D01*
X189028571Y-28471428D01*
X188933333Y-28423809D01*
X188885714Y-28376190D01*
X188838095Y-28280952D01*
%TO.C,D60*%
X191314285Y-35452380D02*
X191314285Y-34452380D01*
X191076190Y-34452380D01*
X190933333Y-34500000D01*
X190838095Y-34595238D01*
X190790476Y-34690476D01*
X190742857Y-34880952D01*
X190742857Y-35023809D01*
X190790476Y-35214285D01*
X190838095Y-35309523D01*
X190933333Y-35404761D01*
X191076190Y-35452380D01*
X191314285Y-35452380D01*
X189885714Y-34452380D02*
X190076190Y-34452380D01*
X190171428Y-34500000D01*
X190219047Y-34547619D01*
X190314285Y-34690476D01*
X190361904Y-34880952D01*
X190361904Y-35261904D01*
X190314285Y-35357142D01*
X190266666Y-35404761D01*
X190171428Y-35452380D01*
X189980952Y-35452380D01*
X189885714Y-35404761D01*
X189838095Y-35357142D01*
X189790476Y-35261904D01*
X189790476Y-35023809D01*
X189838095Y-34928571D01*
X189885714Y-34880952D01*
X189980952Y-34833333D01*
X190171428Y-34833333D01*
X190266666Y-34880952D01*
X190314285Y-34928571D01*
X190361904Y-35023809D01*
X189171428Y-34452380D02*
X189076190Y-34452380D01*
X188980952Y-34500000D01*
X188933333Y-34547619D01*
X188885714Y-34642857D01*
X188838095Y-34833333D01*
X188838095Y-35071428D01*
X188885714Y-35261904D01*
X188933333Y-35357142D01*
X188980952Y-35404761D01*
X189076190Y-35452380D01*
X189171428Y-35452380D01*
X189266666Y-35404761D01*
X189314285Y-35357142D01*
X189361904Y-35261904D01*
X189409523Y-35071428D01*
X189409523Y-34833333D01*
X189361904Y-34642857D01*
X189314285Y-34547619D01*
X189266666Y-34500000D01*
X189171428Y-34452380D01*
%TO.C,D61*%
X199714285Y-51852380D02*
X199714285Y-50852380D01*
X199476190Y-50852380D01*
X199333333Y-50900000D01*
X199238095Y-50995238D01*
X199190476Y-51090476D01*
X199142857Y-51280952D01*
X199142857Y-51423809D01*
X199190476Y-51614285D01*
X199238095Y-51709523D01*
X199333333Y-51804761D01*
X199476190Y-51852380D01*
X199714285Y-51852380D01*
X198285714Y-50852380D02*
X198476190Y-50852380D01*
X198571428Y-50900000D01*
X198619047Y-50947619D01*
X198714285Y-51090476D01*
X198761904Y-51280952D01*
X198761904Y-51661904D01*
X198714285Y-51757142D01*
X198666666Y-51804761D01*
X198571428Y-51852380D01*
X198380952Y-51852380D01*
X198285714Y-51804761D01*
X198238095Y-51757142D01*
X198190476Y-51661904D01*
X198190476Y-51423809D01*
X198238095Y-51328571D01*
X198285714Y-51280952D01*
X198380952Y-51233333D01*
X198571428Y-51233333D01*
X198666666Y-51280952D01*
X198714285Y-51328571D01*
X198761904Y-51423809D01*
X197238095Y-51852380D02*
X197809523Y-51852380D01*
X197523809Y-51852380D02*
X197523809Y-50852380D01*
X197619047Y-50995238D01*
X197714285Y-51090476D01*
X197809523Y-51138095D01*
%TO.C,D62*%
X199714285Y-68252380D02*
X199714285Y-67252380D01*
X199476190Y-67252380D01*
X199333333Y-67300000D01*
X199238095Y-67395238D01*
X199190476Y-67490476D01*
X199142857Y-67680952D01*
X199142857Y-67823809D01*
X199190476Y-68014285D01*
X199238095Y-68109523D01*
X199333333Y-68204761D01*
X199476190Y-68252380D01*
X199714285Y-68252380D01*
X198285714Y-67252380D02*
X198476190Y-67252380D01*
X198571428Y-67300000D01*
X198619047Y-67347619D01*
X198714285Y-67490476D01*
X198761904Y-67680952D01*
X198761904Y-68061904D01*
X198714285Y-68157142D01*
X198666666Y-68204761D01*
X198571428Y-68252380D01*
X198380952Y-68252380D01*
X198285714Y-68204761D01*
X198238095Y-68157142D01*
X198190476Y-68061904D01*
X198190476Y-67823809D01*
X198238095Y-67728571D01*
X198285714Y-67680952D01*
X198380952Y-67633333D01*
X198571428Y-67633333D01*
X198666666Y-67680952D01*
X198714285Y-67728571D01*
X198761904Y-67823809D01*
X197809523Y-67347619D02*
X197761904Y-67300000D01*
X197666666Y-67252380D01*
X197428571Y-67252380D01*
X197333333Y-67300000D01*
X197285714Y-67347619D01*
X197238095Y-67442857D01*
X197238095Y-67538095D01*
X197285714Y-67680952D01*
X197857142Y-68252380D01*
X197238095Y-68252380D01*
%TO.C,D63*%
X191114285Y-84652380D02*
X191114285Y-83652380D01*
X190876190Y-83652380D01*
X190733333Y-83700000D01*
X190638095Y-83795238D01*
X190590476Y-83890476D01*
X190542857Y-84080952D01*
X190542857Y-84223809D01*
X190590476Y-84414285D01*
X190638095Y-84509523D01*
X190733333Y-84604761D01*
X190876190Y-84652380D01*
X191114285Y-84652380D01*
X189685714Y-83652380D02*
X189876190Y-83652380D01*
X189971428Y-83700000D01*
X190019047Y-83747619D01*
X190114285Y-83890476D01*
X190161904Y-84080952D01*
X190161904Y-84461904D01*
X190114285Y-84557142D01*
X190066666Y-84604761D01*
X189971428Y-84652380D01*
X189780952Y-84652380D01*
X189685714Y-84604761D01*
X189638095Y-84557142D01*
X189590476Y-84461904D01*
X189590476Y-84223809D01*
X189638095Y-84128571D01*
X189685714Y-84080952D01*
X189780952Y-84033333D01*
X189971428Y-84033333D01*
X190066666Y-84080952D01*
X190114285Y-84128571D01*
X190161904Y-84223809D01*
X189257142Y-83652380D02*
X188638095Y-83652380D01*
X188971428Y-84033333D01*
X188828571Y-84033333D01*
X188733333Y-84080952D01*
X188685714Y-84128571D01*
X188638095Y-84223809D01*
X188638095Y-84461904D01*
X188685714Y-84557142D01*
X188733333Y-84604761D01*
X188828571Y-84652380D01*
X189114285Y-84652380D01*
X189209523Y-84604761D01*
X189257142Y-84557142D01*
%TO.C,D64*%
X191314285Y-101052380D02*
X191314285Y-100052380D01*
X191076190Y-100052380D01*
X190933333Y-100100000D01*
X190838095Y-100195238D01*
X190790476Y-100290476D01*
X190742857Y-100480952D01*
X190742857Y-100623809D01*
X190790476Y-100814285D01*
X190838095Y-100909523D01*
X190933333Y-101004761D01*
X191076190Y-101052380D01*
X191314285Y-101052380D01*
X189885714Y-100052380D02*
X190076190Y-100052380D01*
X190171428Y-100100000D01*
X190219047Y-100147619D01*
X190314285Y-100290476D01*
X190361904Y-100480952D01*
X190361904Y-100861904D01*
X190314285Y-100957142D01*
X190266666Y-101004761D01*
X190171428Y-101052380D01*
X189980952Y-101052380D01*
X189885714Y-101004761D01*
X189838095Y-100957142D01*
X189790476Y-100861904D01*
X189790476Y-100623809D01*
X189838095Y-100528571D01*
X189885714Y-100480952D01*
X189980952Y-100433333D01*
X190171428Y-100433333D01*
X190266666Y-100480952D01*
X190314285Y-100528571D01*
X190361904Y-100623809D01*
X188933333Y-100385714D02*
X188933333Y-101052380D01*
X189171428Y-100004761D02*
X189409523Y-100719047D01*
X188790476Y-100719047D01*
%TO.C,D66*%
X207014285Y-35852380D02*
X207014285Y-34852380D01*
X206776190Y-34852380D01*
X206633333Y-34900000D01*
X206538095Y-34995238D01*
X206490476Y-35090476D01*
X206442857Y-35280952D01*
X206442857Y-35423809D01*
X206490476Y-35614285D01*
X206538095Y-35709523D01*
X206633333Y-35804761D01*
X206776190Y-35852380D01*
X207014285Y-35852380D01*
X205585714Y-34852380D02*
X205776190Y-34852380D01*
X205871428Y-34900000D01*
X205919047Y-34947619D01*
X206014285Y-35090476D01*
X206061904Y-35280952D01*
X206061904Y-35661904D01*
X206014285Y-35757142D01*
X205966666Y-35804761D01*
X205871428Y-35852380D01*
X205680952Y-35852380D01*
X205585714Y-35804761D01*
X205538095Y-35757142D01*
X205490476Y-35661904D01*
X205490476Y-35423809D01*
X205538095Y-35328571D01*
X205585714Y-35280952D01*
X205680952Y-35233333D01*
X205871428Y-35233333D01*
X205966666Y-35280952D01*
X206014285Y-35328571D01*
X206061904Y-35423809D01*
X204633333Y-34852380D02*
X204823809Y-34852380D01*
X204919047Y-34900000D01*
X204966666Y-34947619D01*
X205061904Y-35090476D01*
X205109523Y-35280952D01*
X205109523Y-35661904D01*
X205061904Y-35757142D01*
X205014285Y-35804761D01*
X204919047Y-35852380D01*
X204728571Y-35852380D01*
X204633333Y-35804761D01*
X204585714Y-35757142D01*
X204538095Y-35661904D01*
X204538095Y-35423809D01*
X204585714Y-35328571D01*
X204633333Y-35280952D01*
X204728571Y-35233333D01*
X204919047Y-35233333D01*
X205014285Y-35280952D01*
X205061904Y-35328571D01*
X205109523Y-35423809D01*
%TO.C,D67*%
X211914285Y-50052380D02*
X211914285Y-49052380D01*
X211676190Y-49052380D01*
X211533333Y-49100000D01*
X211438095Y-49195238D01*
X211390476Y-49290476D01*
X211342857Y-49480952D01*
X211342857Y-49623809D01*
X211390476Y-49814285D01*
X211438095Y-49909523D01*
X211533333Y-50004761D01*
X211676190Y-50052380D01*
X211914285Y-50052380D01*
X210485714Y-49052380D02*
X210676190Y-49052380D01*
X210771428Y-49100000D01*
X210819047Y-49147619D01*
X210914285Y-49290476D01*
X210961904Y-49480952D01*
X210961904Y-49861904D01*
X210914285Y-49957142D01*
X210866666Y-50004761D01*
X210771428Y-50052380D01*
X210580952Y-50052380D01*
X210485714Y-50004761D01*
X210438095Y-49957142D01*
X210390476Y-49861904D01*
X210390476Y-49623809D01*
X210438095Y-49528571D01*
X210485714Y-49480952D01*
X210580952Y-49433333D01*
X210771428Y-49433333D01*
X210866666Y-49480952D01*
X210914285Y-49528571D01*
X210961904Y-49623809D01*
X210057142Y-49052380D02*
X209390476Y-49052380D01*
X209819047Y-50052380D01*
%TO.C,D68*%
X215914285Y-64452380D02*
X215914285Y-63452380D01*
X215676190Y-63452380D01*
X215533333Y-63500000D01*
X215438095Y-63595238D01*
X215390476Y-63690476D01*
X215342857Y-63880952D01*
X215342857Y-64023809D01*
X215390476Y-64214285D01*
X215438095Y-64309523D01*
X215533333Y-64404761D01*
X215676190Y-64452380D01*
X215914285Y-64452380D01*
X214485714Y-63452380D02*
X214676190Y-63452380D01*
X214771428Y-63500000D01*
X214819047Y-63547619D01*
X214914285Y-63690476D01*
X214961904Y-63880952D01*
X214961904Y-64261904D01*
X214914285Y-64357142D01*
X214866666Y-64404761D01*
X214771428Y-64452380D01*
X214580952Y-64452380D01*
X214485714Y-64404761D01*
X214438095Y-64357142D01*
X214390476Y-64261904D01*
X214390476Y-64023809D01*
X214438095Y-63928571D01*
X214485714Y-63880952D01*
X214580952Y-63833333D01*
X214771428Y-63833333D01*
X214866666Y-63880952D01*
X214914285Y-63928571D01*
X214961904Y-64023809D01*
X213819047Y-63880952D02*
X213914285Y-63833333D01*
X213961904Y-63785714D01*
X214009523Y-63690476D01*
X214009523Y-63642857D01*
X213961904Y-63547619D01*
X213914285Y-63500000D01*
X213819047Y-63452380D01*
X213628571Y-63452380D01*
X213533333Y-63500000D01*
X213485714Y-63547619D01*
X213438095Y-63642857D01*
X213438095Y-63690476D01*
X213485714Y-63785714D01*
X213533333Y-63833333D01*
X213628571Y-63880952D01*
X213819047Y-63880952D01*
X213914285Y-63928571D01*
X213961904Y-63976190D01*
X214009523Y-64071428D01*
X214009523Y-64261904D01*
X213961904Y-64357142D01*
X213914285Y-64404761D01*
X213819047Y-64452380D01*
X213628571Y-64452380D01*
X213533333Y-64404761D01*
X213485714Y-64357142D01*
X213438095Y-64261904D01*
X213438095Y-64071428D01*
X213485714Y-63976190D01*
X213533333Y-63928571D01*
X213628571Y-63880952D01*
%TO.C,D69*%
X207914285Y-84652380D02*
X207914285Y-83652380D01*
X207676190Y-83652380D01*
X207533333Y-83700000D01*
X207438095Y-83795238D01*
X207390476Y-83890476D01*
X207342857Y-84080952D01*
X207342857Y-84223809D01*
X207390476Y-84414285D01*
X207438095Y-84509523D01*
X207533333Y-84604761D01*
X207676190Y-84652380D01*
X207914285Y-84652380D01*
X206485714Y-83652380D02*
X206676190Y-83652380D01*
X206771428Y-83700000D01*
X206819047Y-83747619D01*
X206914285Y-83890476D01*
X206961904Y-84080952D01*
X206961904Y-84461904D01*
X206914285Y-84557142D01*
X206866666Y-84604761D01*
X206771428Y-84652380D01*
X206580952Y-84652380D01*
X206485714Y-84604761D01*
X206438095Y-84557142D01*
X206390476Y-84461904D01*
X206390476Y-84223809D01*
X206438095Y-84128571D01*
X206485714Y-84080952D01*
X206580952Y-84033333D01*
X206771428Y-84033333D01*
X206866666Y-84080952D01*
X206914285Y-84128571D01*
X206961904Y-84223809D01*
X205914285Y-84652380D02*
X205723809Y-84652380D01*
X205628571Y-84604761D01*
X205580952Y-84557142D01*
X205485714Y-84414285D01*
X205438095Y-84223809D01*
X205438095Y-83842857D01*
X205485714Y-83747619D01*
X205533333Y-83700000D01*
X205628571Y-83652380D01*
X205819047Y-83652380D01*
X205914285Y-83700000D01*
X205961904Y-83747619D01*
X206009523Y-83842857D01*
X206009523Y-84080952D01*
X205961904Y-84176190D01*
X205914285Y-84223809D01*
X205819047Y-84271428D01*
X205628571Y-84271428D01*
X205533333Y-84223809D01*
X205485714Y-84176190D01*
X205438095Y-84080952D01*
%TO.C,D70*%
X200714285Y-101052380D02*
X200714285Y-100052380D01*
X200476190Y-100052380D01*
X200333333Y-100100000D01*
X200238095Y-100195238D01*
X200190476Y-100290476D01*
X200142857Y-100480952D01*
X200142857Y-100623809D01*
X200190476Y-100814285D01*
X200238095Y-100909523D01*
X200333333Y-101004761D01*
X200476190Y-101052380D01*
X200714285Y-101052380D01*
X199809523Y-100052380D02*
X199142857Y-100052380D01*
X199571428Y-101052380D01*
X198571428Y-100052380D02*
X198476190Y-100052380D01*
X198380952Y-100100000D01*
X198333333Y-100147619D01*
X198285714Y-100242857D01*
X198238095Y-100433333D01*
X198238095Y-100671428D01*
X198285714Y-100861904D01*
X198333333Y-100957142D01*
X198380952Y-101004761D01*
X198476190Y-101052380D01*
X198571428Y-101052380D01*
X198666666Y-101004761D01*
X198714285Y-100957142D01*
X198761904Y-100861904D01*
X198809523Y-100671428D01*
X198809523Y-100433333D01*
X198761904Y-100242857D01*
X198714285Y-100147619D01*
X198666666Y-100100000D01*
X198571428Y-100052380D01*
%TO.C,D71*%
X233114285Y-45252380D02*
X233114285Y-44252380D01*
X232876190Y-44252380D01*
X232733333Y-44300000D01*
X232638095Y-44395238D01*
X232590476Y-44490476D01*
X232542857Y-44680952D01*
X232542857Y-44823809D01*
X232590476Y-45014285D01*
X232638095Y-45109523D01*
X232733333Y-45204761D01*
X232876190Y-45252380D01*
X233114285Y-45252380D01*
X232209523Y-44252380D02*
X231542857Y-44252380D01*
X231971428Y-45252380D01*
X230638095Y-45252380D02*
X231209523Y-45252380D01*
X230923809Y-45252380D02*
X230923809Y-44252380D01*
X231019047Y-44395238D01*
X231114285Y-44490476D01*
X231209523Y-44538095D01*
%TO.C,D72*%
X225114285Y-35452380D02*
X225114285Y-34452380D01*
X224876190Y-34452380D01*
X224733333Y-34500000D01*
X224638095Y-34595238D01*
X224590476Y-34690476D01*
X224542857Y-34880952D01*
X224542857Y-35023809D01*
X224590476Y-35214285D01*
X224638095Y-35309523D01*
X224733333Y-35404761D01*
X224876190Y-35452380D01*
X225114285Y-35452380D01*
X224209523Y-34452380D02*
X223542857Y-34452380D01*
X223971428Y-35452380D01*
X223209523Y-34547619D02*
X223161904Y-34500000D01*
X223066666Y-34452380D01*
X222828571Y-34452380D01*
X222733333Y-34500000D01*
X222685714Y-34547619D01*
X222638095Y-34642857D01*
X222638095Y-34738095D01*
X222685714Y-34880952D01*
X223257142Y-35452380D01*
X222638095Y-35452380D01*
%TO.C,D73*%
X233114285Y-51852380D02*
X233114285Y-50852380D01*
X232876190Y-50852380D01*
X232733333Y-50900000D01*
X232638095Y-50995238D01*
X232590476Y-51090476D01*
X232542857Y-51280952D01*
X232542857Y-51423809D01*
X232590476Y-51614285D01*
X232638095Y-51709523D01*
X232733333Y-51804761D01*
X232876190Y-51852380D01*
X233114285Y-51852380D01*
X232209523Y-50852380D02*
X231542857Y-50852380D01*
X231971428Y-51852380D01*
X231257142Y-50852380D02*
X230638095Y-50852380D01*
X230971428Y-51233333D01*
X230828571Y-51233333D01*
X230733333Y-51280952D01*
X230685714Y-51328571D01*
X230638095Y-51423809D01*
X230638095Y-51661904D01*
X230685714Y-51757142D01*
X230733333Y-51804761D01*
X230828571Y-51852380D01*
X231114285Y-51852380D01*
X231209523Y-51804761D01*
X231257142Y-51757142D01*
%TO.C,D74*%
X232714285Y-64452380D02*
X232714285Y-63452380D01*
X232476190Y-63452380D01*
X232333333Y-63500000D01*
X232238095Y-63595238D01*
X232190476Y-63690476D01*
X232142857Y-63880952D01*
X232142857Y-64023809D01*
X232190476Y-64214285D01*
X232238095Y-64309523D01*
X232333333Y-64404761D01*
X232476190Y-64452380D01*
X232714285Y-64452380D01*
X231809523Y-63452380D02*
X231142857Y-63452380D01*
X231571428Y-64452380D01*
X230333333Y-63785714D02*
X230333333Y-64452380D01*
X230571428Y-63404761D02*
X230809523Y-64119047D01*
X230190476Y-64119047D01*
%TO.C,D75*%
X224914285Y-84652380D02*
X224914285Y-83652380D01*
X224676190Y-83652380D01*
X224533333Y-83700000D01*
X224438095Y-83795238D01*
X224390476Y-83890476D01*
X224342857Y-84080952D01*
X224342857Y-84223809D01*
X224390476Y-84414285D01*
X224438095Y-84509523D01*
X224533333Y-84604761D01*
X224676190Y-84652380D01*
X224914285Y-84652380D01*
X224009523Y-83652380D02*
X223342857Y-83652380D01*
X223771428Y-84652380D01*
X222485714Y-83652380D02*
X222961904Y-83652380D01*
X223009523Y-84128571D01*
X222961904Y-84080952D01*
X222866666Y-84033333D01*
X222628571Y-84033333D01*
X222533333Y-84080952D01*
X222485714Y-84128571D01*
X222438095Y-84223809D01*
X222438095Y-84461904D01*
X222485714Y-84557142D01*
X222533333Y-84604761D01*
X222628571Y-84652380D01*
X222866666Y-84652380D01*
X222961904Y-84604761D01*
X223009523Y-84557142D01*
%TO.C,D76*%
X224914285Y-101052380D02*
X224914285Y-100052380D01*
X224676190Y-100052380D01*
X224533333Y-100100000D01*
X224438095Y-100195238D01*
X224390476Y-100290476D01*
X224342857Y-100480952D01*
X224342857Y-100623809D01*
X224390476Y-100814285D01*
X224438095Y-100909523D01*
X224533333Y-101004761D01*
X224676190Y-101052380D01*
X224914285Y-101052380D01*
X224009523Y-100052380D02*
X223342857Y-100052380D01*
X223771428Y-101052380D01*
X222533333Y-100052380D02*
X222723809Y-100052380D01*
X222819047Y-100100000D01*
X222866666Y-100147619D01*
X222961904Y-100290476D01*
X223009523Y-100480952D01*
X223009523Y-100861904D01*
X222961904Y-100957142D01*
X222914285Y-101004761D01*
X222819047Y-101052380D01*
X222628571Y-101052380D01*
X222533333Y-101004761D01*
X222485714Y-100957142D01*
X222438095Y-100861904D01*
X222438095Y-100623809D01*
X222485714Y-100528571D01*
X222533333Y-100480952D01*
X222628571Y-100433333D01*
X222819047Y-100433333D01*
X222914285Y-100480952D01*
X222961904Y-100528571D01*
X223009523Y-100623809D01*
%TO.C,D78*%
X240764285Y-35852380D02*
X240764285Y-34852380D01*
X240526190Y-34852380D01*
X240383333Y-34900000D01*
X240288095Y-34995238D01*
X240240476Y-35090476D01*
X240192857Y-35280952D01*
X240192857Y-35423809D01*
X240240476Y-35614285D01*
X240288095Y-35709523D01*
X240383333Y-35804761D01*
X240526190Y-35852380D01*
X240764285Y-35852380D01*
X239859523Y-34852380D02*
X239192857Y-34852380D01*
X239621428Y-35852380D01*
X238669047Y-35280952D02*
X238764285Y-35233333D01*
X238811904Y-35185714D01*
X238859523Y-35090476D01*
X238859523Y-35042857D01*
X238811904Y-34947619D01*
X238764285Y-34900000D01*
X238669047Y-34852380D01*
X238478571Y-34852380D01*
X238383333Y-34900000D01*
X238335714Y-34947619D01*
X238288095Y-35042857D01*
X238288095Y-35090476D01*
X238335714Y-35185714D01*
X238383333Y-35233333D01*
X238478571Y-35280952D01*
X238669047Y-35280952D01*
X238764285Y-35328571D01*
X238811904Y-35376190D01*
X238859523Y-35471428D01*
X238859523Y-35661904D01*
X238811904Y-35757142D01*
X238764285Y-35804761D01*
X238669047Y-35852380D01*
X238478571Y-35852380D01*
X238383333Y-35804761D01*
X238335714Y-35757142D01*
X238288095Y-35661904D01*
X238288095Y-35471428D01*
X238335714Y-35376190D01*
X238383333Y-35328571D01*
X238478571Y-35280952D01*
%TO.C,D79*%
X249914285Y-51852380D02*
X249914285Y-50852380D01*
X249676190Y-50852380D01*
X249533333Y-50900000D01*
X249438095Y-50995238D01*
X249390476Y-51090476D01*
X249342857Y-51280952D01*
X249342857Y-51423809D01*
X249390476Y-51614285D01*
X249438095Y-51709523D01*
X249533333Y-51804761D01*
X249676190Y-51852380D01*
X249914285Y-51852380D01*
X249009523Y-50852380D02*
X248342857Y-50852380D01*
X248771428Y-51852380D01*
X247914285Y-51852380D02*
X247723809Y-51852380D01*
X247628571Y-51804761D01*
X247580952Y-51757142D01*
X247485714Y-51614285D01*
X247438095Y-51423809D01*
X247438095Y-51042857D01*
X247485714Y-50947619D01*
X247533333Y-50900000D01*
X247628571Y-50852380D01*
X247819047Y-50852380D01*
X247914285Y-50900000D01*
X247961904Y-50947619D01*
X248009523Y-51042857D01*
X248009523Y-51280952D01*
X247961904Y-51376190D01*
X247914285Y-51423809D01*
X247819047Y-51471428D01*
X247628571Y-51471428D01*
X247533333Y-51423809D01*
X247485714Y-51376190D01*
X247438095Y-51280952D01*
%TO.C,D80*%
X250114285Y-68252380D02*
X250114285Y-67252380D01*
X249876190Y-67252380D01*
X249733333Y-67300000D01*
X249638095Y-67395238D01*
X249590476Y-67490476D01*
X249542857Y-67680952D01*
X249542857Y-67823809D01*
X249590476Y-68014285D01*
X249638095Y-68109523D01*
X249733333Y-68204761D01*
X249876190Y-68252380D01*
X250114285Y-68252380D01*
X248971428Y-67680952D02*
X249066666Y-67633333D01*
X249114285Y-67585714D01*
X249161904Y-67490476D01*
X249161904Y-67442857D01*
X249114285Y-67347619D01*
X249066666Y-67300000D01*
X248971428Y-67252380D01*
X248780952Y-67252380D01*
X248685714Y-67300000D01*
X248638095Y-67347619D01*
X248590476Y-67442857D01*
X248590476Y-67490476D01*
X248638095Y-67585714D01*
X248685714Y-67633333D01*
X248780952Y-67680952D01*
X248971428Y-67680952D01*
X249066666Y-67728571D01*
X249114285Y-67776190D01*
X249161904Y-67871428D01*
X249161904Y-68061904D01*
X249114285Y-68157142D01*
X249066666Y-68204761D01*
X248971428Y-68252380D01*
X248780952Y-68252380D01*
X248685714Y-68204761D01*
X248638095Y-68157142D01*
X248590476Y-68061904D01*
X248590476Y-67871428D01*
X248638095Y-67776190D01*
X248685714Y-67728571D01*
X248780952Y-67680952D01*
X247971428Y-67252380D02*
X247876190Y-67252380D01*
X247780952Y-67300000D01*
X247733333Y-67347619D01*
X247685714Y-67442857D01*
X247638095Y-67633333D01*
X247638095Y-67871428D01*
X247685714Y-68061904D01*
X247733333Y-68157142D01*
X247780952Y-68204761D01*
X247876190Y-68252380D01*
X247971428Y-68252380D01*
X248066666Y-68204761D01*
X248114285Y-68157142D01*
X248161904Y-68061904D01*
X248209523Y-67871428D01*
X248209523Y-67633333D01*
X248161904Y-67442857D01*
X248114285Y-67347619D01*
X248066666Y-67300000D01*
X247971428Y-67252380D01*
%TO.C,D81*%
X241714285Y-84652380D02*
X241714285Y-83652380D01*
X241476190Y-83652380D01*
X241333333Y-83700000D01*
X241238095Y-83795238D01*
X241190476Y-83890476D01*
X241142857Y-84080952D01*
X241142857Y-84223809D01*
X241190476Y-84414285D01*
X241238095Y-84509523D01*
X241333333Y-84604761D01*
X241476190Y-84652380D01*
X241714285Y-84652380D01*
X240571428Y-84080952D02*
X240666666Y-84033333D01*
X240714285Y-83985714D01*
X240761904Y-83890476D01*
X240761904Y-83842857D01*
X240714285Y-83747619D01*
X240666666Y-83700000D01*
X240571428Y-83652380D01*
X240380952Y-83652380D01*
X240285714Y-83700000D01*
X240238095Y-83747619D01*
X240190476Y-83842857D01*
X240190476Y-83890476D01*
X240238095Y-83985714D01*
X240285714Y-84033333D01*
X240380952Y-84080952D01*
X240571428Y-84080952D01*
X240666666Y-84128571D01*
X240714285Y-84176190D01*
X240761904Y-84271428D01*
X240761904Y-84461904D01*
X240714285Y-84557142D01*
X240666666Y-84604761D01*
X240571428Y-84652380D01*
X240380952Y-84652380D01*
X240285714Y-84604761D01*
X240238095Y-84557142D01*
X240190476Y-84461904D01*
X240190476Y-84271428D01*
X240238095Y-84176190D01*
X240285714Y-84128571D01*
X240380952Y-84080952D01*
X239238095Y-84652380D02*
X239809523Y-84652380D01*
X239523809Y-84652380D02*
X239523809Y-83652380D01*
X239619047Y-83795238D01*
X239714285Y-83890476D01*
X239809523Y-83938095D01*
%TO.C,D82*%
X236714285Y-97252380D02*
X236714285Y-96252380D01*
X236476190Y-96252380D01*
X236333333Y-96300000D01*
X236238095Y-96395238D01*
X236190476Y-96490476D01*
X236142857Y-96680952D01*
X236142857Y-96823809D01*
X236190476Y-97014285D01*
X236238095Y-97109523D01*
X236333333Y-97204761D01*
X236476190Y-97252380D01*
X236714285Y-97252380D01*
X235571428Y-96680952D02*
X235666666Y-96633333D01*
X235714285Y-96585714D01*
X235761904Y-96490476D01*
X235761904Y-96442857D01*
X235714285Y-96347619D01*
X235666666Y-96300000D01*
X235571428Y-96252380D01*
X235380952Y-96252380D01*
X235285714Y-96300000D01*
X235238095Y-96347619D01*
X235190476Y-96442857D01*
X235190476Y-96490476D01*
X235238095Y-96585714D01*
X235285714Y-96633333D01*
X235380952Y-96680952D01*
X235571428Y-96680952D01*
X235666666Y-96728571D01*
X235714285Y-96776190D01*
X235761904Y-96871428D01*
X235761904Y-97061904D01*
X235714285Y-97157142D01*
X235666666Y-97204761D01*
X235571428Y-97252380D01*
X235380952Y-97252380D01*
X235285714Y-97204761D01*
X235238095Y-97157142D01*
X235190476Y-97061904D01*
X235190476Y-96871428D01*
X235238095Y-96776190D01*
X235285714Y-96728571D01*
X235380952Y-96680952D01*
X234809523Y-96347619D02*
X234761904Y-96300000D01*
X234666666Y-96252380D01*
X234428571Y-96252380D01*
X234333333Y-96300000D01*
X234285714Y-96347619D01*
X234238095Y-96442857D01*
X234238095Y-96538095D01*
X234285714Y-96680952D01*
X234857142Y-97252380D01*
X234238095Y-97252380D01*
%TO.C,D83*%
X266914285Y-61652380D02*
X266914285Y-60652380D01*
X266676190Y-60652380D01*
X266533333Y-60700000D01*
X266438095Y-60795238D01*
X266390476Y-60890476D01*
X266342857Y-61080952D01*
X266342857Y-61223809D01*
X266390476Y-61414285D01*
X266438095Y-61509523D01*
X266533333Y-61604761D01*
X266676190Y-61652380D01*
X266914285Y-61652380D01*
X265771428Y-61080952D02*
X265866666Y-61033333D01*
X265914285Y-60985714D01*
X265961904Y-60890476D01*
X265961904Y-60842857D01*
X265914285Y-60747619D01*
X265866666Y-60700000D01*
X265771428Y-60652380D01*
X265580952Y-60652380D01*
X265485714Y-60700000D01*
X265438095Y-60747619D01*
X265390476Y-60842857D01*
X265390476Y-60890476D01*
X265438095Y-60985714D01*
X265485714Y-61033333D01*
X265580952Y-61080952D01*
X265771428Y-61080952D01*
X265866666Y-61128571D01*
X265914285Y-61176190D01*
X265961904Y-61271428D01*
X265961904Y-61461904D01*
X265914285Y-61557142D01*
X265866666Y-61604761D01*
X265771428Y-61652380D01*
X265580952Y-61652380D01*
X265485714Y-61604761D01*
X265438095Y-61557142D01*
X265390476Y-61461904D01*
X265390476Y-61271428D01*
X265438095Y-61176190D01*
X265485714Y-61128571D01*
X265580952Y-61080952D01*
X265057142Y-60652380D02*
X264438095Y-60652380D01*
X264771428Y-61033333D01*
X264628571Y-61033333D01*
X264533333Y-61080952D01*
X264485714Y-61128571D01*
X264438095Y-61223809D01*
X264438095Y-61461904D01*
X264485714Y-61557142D01*
X264533333Y-61604761D01*
X264628571Y-61652380D01*
X264914285Y-61652380D01*
X265009523Y-61604761D01*
X265057142Y-61557142D01*
%TO.C,D84*%
X258514285Y-35452380D02*
X258514285Y-34452380D01*
X258276190Y-34452380D01*
X258133333Y-34500000D01*
X258038095Y-34595238D01*
X257990476Y-34690476D01*
X257942857Y-34880952D01*
X257942857Y-35023809D01*
X257990476Y-35214285D01*
X258038095Y-35309523D01*
X258133333Y-35404761D01*
X258276190Y-35452380D01*
X258514285Y-35452380D01*
X257371428Y-34880952D02*
X257466666Y-34833333D01*
X257514285Y-34785714D01*
X257561904Y-34690476D01*
X257561904Y-34642857D01*
X257514285Y-34547619D01*
X257466666Y-34500000D01*
X257371428Y-34452380D01*
X257180952Y-34452380D01*
X257085714Y-34500000D01*
X257038095Y-34547619D01*
X256990476Y-34642857D01*
X256990476Y-34690476D01*
X257038095Y-34785714D01*
X257085714Y-34833333D01*
X257180952Y-34880952D01*
X257371428Y-34880952D01*
X257466666Y-34928571D01*
X257514285Y-34976190D01*
X257561904Y-35071428D01*
X257561904Y-35261904D01*
X257514285Y-35357142D01*
X257466666Y-35404761D01*
X257371428Y-35452380D01*
X257180952Y-35452380D01*
X257085714Y-35404761D01*
X257038095Y-35357142D01*
X256990476Y-35261904D01*
X256990476Y-35071428D01*
X257038095Y-34976190D01*
X257085714Y-34928571D01*
X257180952Y-34880952D01*
X256133333Y-34785714D02*
X256133333Y-35452380D01*
X256371428Y-34404761D02*
X256609523Y-35119047D01*
X255990476Y-35119047D01*
%TO.C,D85*%
X267114285Y-51852380D02*
X267114285Y-50852380D01*
X266876190Y-50852380D01*
X266733333Y-50900000D01*
X266638095Y-50995238D01*
X266590476Y-51090476D01*
X266542857Y-51280952D01*
X266542857Y-51423809D01*
X266590476Y-51614285D01*
X266638095Y-51709523D01*
X266733333Y-51804761D01*
X266876190Y-51852380D01*
X267114285Y-51852380D01*
X265971428Y-51280952D02*
X266066666Y-51233333D01*
X266114285Y-51185714D01*
X266161904Y-51090476D01*
X266161904Y-51042857D01*
X266114285Y-50947619D01*
X266066666Y-50900000D01*
X265971428Y-50852380D01*
X265780952Y-50852380D01*
X265685714Y-50900000D01*
X265638095Y-50947619D01*
X265590476Y-51042857D01*
X265590476Y-51090476D01*
X265638095Y-51185714D01*
X265685714Y-51233333D01*
X265780952Y-51280952D01*
X265971428Y-51280952D01*
X266066666Y-51328571D01*
X266114285Y-51376190D01*
X266161904Y-51471428D01*
X266161904Y-51661904D01*
X266114285Y-51757142D01*
X266066666Y-51804761D01*
X265971428Y-51852380D01*
X265780952Y-51852380D01*
X265685714Y-51804761D01*
X265638095Y-51757142D01*
X265590476Y-51661904D01*
X265590476Y-51471428D01*
X265638095Y-51376190D01*
X265685714Y-51328571D01*
X265780952Y-51280952D01*
X264685714Y-50852380D02*
X265161904Y-50852380D01*
X265209523Y-51328571D01*
X265161904Y-51280952D01*
X265066666Y-51233333D01*
X264828571Y-51233333D01*
X264733333Y-51280952D01*
X264685714Y-51328571D01*
X264638095Y-51423809D01*
X264638095Y-51661904D01*
X264685714Y-51757142D01*
X264733333Y-51804761D01*
X264828571Y-51852380D01*
X265066666Y-51852380D01*
X265161904Y-51804761D01*
X265209523Y-51757142D01*
%TO.C,D86*%
X266914285Y-68252380D02*
X266914285Y-67252380D01*
X266676190Y-67252380D01*
X266533333Y-67300000D01*
X266438095Y-67395238D01*
X266390476Y-67490476D01*
X266342857Y-67680952D01*
X266342857Y-67823809D01*
X266390476Y-68014285D01*
X266438095Y-68109523D01*
X266533333Y-68204761D01*
X266676190Y-68252380D01*
X266914285Y-68252380D01*
X265771428Y-67680952D02*
X265866666Y-67633333D01*
X265914285Y-67585714D01*
X265961904Y-67490476D01*
X265961904Y-67442857D01*
X265914285Y-67347619D01*
X265866666Y-67300000D01*
X265771428Y-67252380D01*
X265580952Y-67252380D01*
X265485714Y-67300000D01*
X265438095Y-67347619D01*
X265390476Y-67442857D01*
X265390476Y-67490476D01*
X265438095Y-67585714D01*
X265485714Y-67633333D01*
X265580952Y-67680952D01*
X265771428Y-67680952D01*
X265866666Y-67728571D01*
X265914285Y-67776190D01*
X265961904Y-67871428D01*
X265961904Y-68061904D01*
X265914285Y-68157142D01*
X265866666Y-68204761D01*
X265771428Y-68252380D01*
X265580952Y-68252380D01*
X265485714Y-68204761D01*
X265438095Y-68157142D01*
X265390476Y-68061904D01*
X265390476Y-67871428D01*
X265438095Y-67776190D01*
X265485714Y-67728571D01*
X265580952Y-67680952D01*
X264533333Y-67252380D02*
X264723809Y-67252380D01*
X264819047Y-67300000D01*
X264866666Y-67347619D01*
X264961904Y-67490476D01*
X265009523Y-67680952D01*
X265009523Y-68061904D01*
X264961904Y-68157142D01*
X264914285Y-68204761D01*
X264819047Y-68252380D01*
X264628571Y-68252380D01*
X264533333Y-68204761D01*
X264485714Y-68157142D01*
X264438095Y-68061904D01*
X264438095Y-67823809D01*
X264485714Y-67728571D01*
X264533333Y-67680952D01*
X264628571Y-67633333D01*
X264819047Y-67633333D01*
X264914285Y-67680952D01*
X264961904Y-67728571D01*
X265009523Y-67823809D01*
%TO.C,D87*%
X258314285Y-84652380D02*
X258314285Y-83652380D01*
X258076190Y-83652380D01*
X257933333Y-83700000D01*
X257838095Y-83795238D01*
X257790476Y-83890476D01*
X257742857Y-84080952D01*
X257742857Y-84223809D01*
X257790476Y-84414285D01*
X257838095Y-84509523D01*
X257933333Y-84604761D01*
X258076190Y-84652380D01*
X258314285Y-84652380D01*
X257171428Y-84080952D02*
X257266666Y-84033333D01*
X257314285Y-83985714D01*
X257361904Y-83890476D01*
X257361904Y-83842857D01*
X257314285Y-83747619D01*
X257266666Y-83700000D01*
X257171428Y-83652380D01*
X256980952Y-83652380D01*
X256885714Y-83700000D01*
X256838095Y-83747619D01*
X256790476Y-83842857D01*
X256790476Y-83890476D01*
X256838095Y-83985714D01*
X256885714Y-84033333D01*
X256980952Y-84080952D01*
X257171428Y-84080952D01*
X257266666Y-84128571D01*
X257314285Y-84176190D01*
X257361904Y-84271428D01*
X257361904Y-84461904D01*
X257314285Y-84557142D01*
X257266666Y-84604761D01*
X257171428Y-84652380D01*
X256980952Y-84652380D01*
X256885714Y-84604761D01*
X256838095Y-84557142D01*
X256790476Y-84461904D01*
X256790476Y-84271428D01*
X256838095Y-84176190D01*
X256885714Y-84128571D01*
X256980952Y-84080952D01*
X256457142Y-83652380D02*
X255790476Y-83652380D01*
X256219047Y-84652380D01*
%TO.C,D88*%
X258514285Y-101052380D02*
X258514285Y-100052380D01*
X258276190Y-100052380D01*
X258133333Y-100100000D01*
X258038095Y-100195238D01*
X257990476Y-100290476D01*
X257942857Y-100480952D01*
X257942857Y-100623809D01*
X257990476Y-100814285D01*
X258038095Y-100909523D01*
X258133333Y-101004761D01*
X258276190Y-101052380D01*
X258514285Y-101052380D01*
X257371428Y-100480952D02*
X257466666Y-100433333D01*
X257514285Y-100385714D01*
X257561904Y-100290476D01*
X257561904Y-100242857D01*
X257514285Y-100147619D01*
X257466666Y-100100000D01*
X257371428Y-100052380D01*
X257180952Y-100052380D01*
X257085714Y-100100000D01*
X257038095Y-100147619D01*
X256990476Y-100242857D01*
X256990476Y-100290476D01*
X257038095Y-100385714D01*
X257085714Y-100433333D01*
X257180952Y-100480952D01*
X257371428Y-100480952D01*
X257466666Y-100528571D01*
X257514285Y-100576190D01*
X257561904Y-100671428D01*
X257561904Y-100861904D01*
X257514285Y-100957142D01*
X257466666Y-101004761D01*
X257371428Y-101052380D01*
X257180952Y-101052380D01*
X257085714Y-101004761D01*
X257038095Y-100957142D01*
X256990476Y-100861904D01*
X256990476Y-100671428D01*
X257038095Y-100576190D01*
X257085714Y-100528571D01*
X257180952Y-100480952D01*
X256419047Y-100480952D02*
X256514285Y-100433333D01*
X256561904Y-100385714D01*
X256609523Y-100290476D01*
X256609523Y-100242857D01*
X256561904Y-100147619D01*
X256514285Y-100100000D01*
X256419047Y-100052380D01*
X256228571Y-100052380D01*
X256133333Y-100100000D01*
X256085714Y-100147619D01*
X256038095Y-100242857D01*
X256038095Y-100290476D01*
X256085714Y-100385714D01*
X256133333Y-100433333D01*
X256228571Y-100480952D01*
X256419047Y-100480952D01*
X256514285Y-100528571D01*
X256561904Y-100576190D01*
X256609523Y-100671428D01*
X256609523Y-100861904D01*
X256561904Y-100957142D01*
X256514285Y-101004761D01*
X256419047Y-101052380D01*
X256228571Y-101052380D01*
X256133333Y-101004761D01*
X256085714Y-100957142D01*
X256038095Y-100861904D01*
X256038095Y-100671428D01*
X256085714Y-100576190D01*
X256133333Y-100528571D01*
X256228571Y-100480952D01*
%TO.C,D90*%
X274214285Y-35852380D02*
X274214285Y-34852380D01*
X273976190Y-34852380D01*
X273833333Y-34900000D01*
X273738095Y-34995238D01*
X273690476Y-35090476D01*
X273642857Y-35280952D01*
X273642857Y-35423809D01*
X273690476Y-35614285D01*
X273738095Y-35709523D01*
X273833333Y-35804761D01*
X273976190Y-35852380D01*
X274214285Y-35852380D01*
X273166666Y-35852380D02*
X272976190Y-35852380D01*
X272880952Y-35804761D01*
X272833333Y-35757142D01*
X272738095Y-35614285D01*
X272690476Y-35423809D01*
X272690476Y-35042857D01*
X272738095Y-34947619D01*
X272785714Y-34900000D01*
X272880952Y-34852380D01*
X273071428Y-34852380D01*
X273166666Y-34900000D01*
X273214285Y-34947619D01*
X273261904Y-35042857D01*
X273261904Y-35280952D01*
X273214285Y-35376190D01*
X273166666Y-35423809D01*
X273071428Y-35471428D01*
X272880952Y-35471428D01*
X272785714Y-35423809D01*
X272738095Y-35376190D01*
X272690476Y-35280952D01*
X272071428Y-34852380D02*
X271976190Y-34852380D01*
X271880952Y-34900000D01*
X271833333Y-34947619D01*
X271785714Y-35042857D01*
X271738095Y-35233333D01*
X271738095Y-35471428D01*
X271785714Y-35661904D01*
X271833333Y-35757142D01*
X271880952Y-35804761D01*
X271976190Y-35852380D01*
X272071428Y-35852380D01*
X272166666Y-35804761D01*
X272214285Y-35757142D01*
X272261904Y-35661904D01*
X272309523Y-35471428D01*
X272309523Y-35233333D01*
X272261904Y-35042857D01*
X272214285Y-34947619D01*
X272166666Y-34900000D01*
X272071428Y-34852380D01*
%TO.C,D91*%
X275314285Y-84652380D02*
X275314285Y-83652380D01*
X275076190Y-83652380D01*
X274933333Y-83700000D01*
X274838095Y-83795238D01*
X274790476Y-83890476D01*
X274742857Y-84080952D01*
X274742857Y-84223809D01*
X274790476Y-84414285D01*
X274838095Y-84509523D01*
X274933333Y-84604761D01*
X275076190Y-84652380D01*
X275314285Y-84652380D01*
X274266666Y-84652380D02*
X274076190Y-84652380D01*
X273980952Y-84604761D01*
X273933333Y-84557142D01*
X273838095Y-84414285D01*
X273790476Y-84223809D01*
X273790476Y-83842857D01*
X273838095Y-83747619D01*
X273885714Y-83700000D01*
X273980952Y-83652380D01*
X274171428Y-83652380D01*
X274266666Y-83700000D01*
X274314285Y-83747619D01*
X274361904Y-83842857D01*
X274361904Y-84080952D01*
X274314285Y-84176190D01*
X274266666Y-84223809D01*
X274171428Y-84271428D01*
X273980952Y-84271428D01*
X273885714Y-84223809D01*
X273838095Y-84176190D01*
X273790476Y-84080952D01*
X272838095Y-84652380D02*
X273409523Y-84652380D01*
X273123809Y-84652380D02*
X273123809Y-83652380D01*
X273219047Y-83795238D01*
X273314285Y-83890476D01*
X273409523Y-83938095D01*
%TO.C,D92*%
X275314285Y-101052380D02*
X275314285Y-100052380D01*
X275076190Y-100052380D01*
X274933333Y-100100000D01*
X274838095Y-100195238D01*
X274790476Y-100290476D01*
X274742857Y-100480952D01*
X274742857Y-100623809D01*
X274790476Y-100814285D01*
X274838095Y-100909523D01*
X274933333Y-101004761D01*
X275076190Y-101052380D01*
X275314285Y-101052380D01*
X274266666Y-101052380D02*
X274076190Y-101052380D01*
X273980952Y-101004761D01*
X273933333Y-100957142D01*
X273838095Y-100814285D01*
X273790476Y-100623809D01*
X273790476Y-100242857D01*
X273838095Y-100147619D01*
X273885714Y-100100000D01*
X273980952Y-100052380D01*
X274171428Y-100052380D01*
X274266666Y-100100000D01*
X274314285Y-100147619D01*
X274361904Y-100242857D01*
X274361904Y-100480952D01*
X274314285Y-100576190D01*
X274266666Y-100623809D01*
X274171428Y-100671428D01*
X273980952Y-100671428D01*
X273885714Y-100623809D01*
X273838095Y-100576190D01*
X273790476Y-100480952D01*
X273409523Y-100147619D02*
X273361904Y-100100000D01*
X273266666Y-100052380D01*
X273028571Y-100052380D01*
X272933333Y-100100000D01*
X272885714Y-100147619D01*
X272838095Y-100242857D01*
X272838095Y-100338095D01*
X272885714Y-100480952D01*
X273457142Y-101052380D01*
X272838095Y-101052380D01*
%TO.C,D93*%
X284714285Y-87452380D02*
X284714285Y-86452380D01*
X284476190Y-86452380D01*
X284333333Y-86500000D01*
X284238095Y-86595238D01*
X284190476Y-86690476D01*
X284142857Y-86880952D01*
X284142857Y-87023809D01*
X284190476Y-87214285D01*
X284238095Y-87309523D01*
X284333333Y-87404761D01*
X284476190Y-87452380D01*
X284714285Y-87452380D01*
X283666666Y-87452380D02*
X283476190Y-87452380D01*
X283380952Y-87404761D01*
X283333333Y-87357142D01*
X283238095Y-87214285D01*
X283190476Y-87023809D01*
X283190476Y-86642857D01*
X283238095Y-86547619D01*
X283285714Y-86500000D01*
X283380952Y-86452380D01*
X283571428Y-86452380D01*
X283666666Y-86500000D01*
X283714285Y-86547619D01*
X283761904Y-86642857D01*
X283761904Y-86880952D01*
X283714285Y-86976190D01*
X283666666Y-87023809D01*
X283571428Y-87071428D01*
X283380952Y-87071428D01*
X283285714Y-87023809D01*
X283238095Y-86976190D01*
X283190476Y-86880952D01*
X282857142Y-86452380D02*
X282238095Y-86452380D01*
X282571428Y-86833333D01*
X282428571Y-86833333D01*
X282333333Y-86880952D01*
X282285714Y-86928571D01*
X282238095Y-87023809D01*
X282238095Y-87261904D01*
X282285714Y-87357142D01*
X282333333Y-87404761D01*
X282428571Y-87452380D01*
X282714285Y-87452380D01*
X282809523Y-87404761D01*
X282857142Y-87357142D01*
%TO.C,D95*%
X286514285Y-35452380D02*
X286514285Y-34452380D01*
X286276190Y-34452380D01*
X286133333Y-34500000D01*
X286038095Y-34595238D01*
X285990476Y-34690476D01*
X285942857Y-34880952D01*
X285942857Y-35023809D01*
X285990476Y-35214285D01*
X286038095Y-35309523D01*
X286133333Y-35404761D01*
X286276190Y-35452380D01*
X286514285Y-35452380D01*
X285466666Y-35452380D02*
X285276190Y-35452380D01*
X285180952Y-35404761D01*
X285133333Y-35357142D01*
X285038095Y-35214285D01*
X284990476Y-35023809D01*
X284990476Y-34642857D01*
X285038095Y-34547619D01*
X285085714Y-34500000D01*
X285180952Y-34452380D01*
X285371428Y-34452380D01*
X285466666Y-34500000D01*
X285514285Y-34547619D01*
X285561904Y-34642857D01*
X285561904Y-34880952D01*
X285514285Y-34976190D01*
X285466666Y-35023809D01*
X285371428Y-35071428D01*
X285180952Y-35071428D01*
X285085714Y-35023809D01*
X285038095Y-34976190D01*
X284990476Y-34880952D01*
X284085714Y-34452380D02*
X284561904Y-34452380D01*
X284609523Y-34928571D01*
X284561904Y-34880952D01*
X284466666Y-34833333D01*
X284228571Y-34833333D01*
X284133333Y-34880952D01*
X284085714Y-34928571D01*
X284038095Y-35023809D01*
X284038095Y-35261904D01*
X284085714Y-35357142D01*
X284133333Y-35404761D01*
X284228571Y-35452380D01*
X284466666Y-35452380D01*
X284561904Y-35404761D01*
X284609523Y-35357142D01*
%TO.C,D96*%
X287314285Y-48052380D02*
X287314285Y-47052380D01*
X287076190Y-47052380D01*
X286933333Y-47100000D01*
X286838095Y-47195238D01*
X286790476Y-47290476D01*
X286742857Y-47480952D01*
X286742857Y-47623809D01*
X286790476Y-47814285D01*
X286838095Y-47909523D01*
X286933333Y-48004761D01*
X287076190Y-48052380D01*
X287314285Y-48052380D01*
X286266666Y-48052380D02*
X286076190Y-48052380D01*
X285980952Y-48004761D01*
X285933333Y-47957142D01*
X285838095Y-47814285D01*
X285790476Y-47623809D01*
X285790476Y-47242857D01*
X285838095Y-47147619D01*
X285885714Y-47100000D01*
X285980952Y-47052380D01*
X286171428Y-47052380D01*
X286266666Y-47100000D01*
X286314285Y-47147619D01*
X286361904Y-47242857D01*
X286361904Y-47480952D01*
X286314285Y-47576190D01*
X286266666Y-47623809D01*
X286171428Y-47671428D01*
X285980952Y-47671428D01*
X285885714Y-47623809D01*
X285838095Y-47576190D01*
X285790476Y-47480952D01*
X284933333Y-47052380D02*
X285123809Y-47052380D01*
X285219047Y-47100000D01*
X285266666Y-47147619D01*
X285361904Y-47290476D01*
X285409523Y-47480952D01*
X285409523Y-47861904D01*
X285361904Y-47957142D01*
X285314285Y-48004761D01*
X285219047Y-48052380D01*
X285028571Y-48052380D01*
X284933333Y-48004761D01*
X284885714Y-47957142D01*
X284838095Y-47861904D01*
X284838095Y-47623809D01*
X284885714Y-47528571D01*
X284933333Y-47480952D01*
X285028571Y-47433333D01*
X285219047Y-47433333D01*
X285314285Y-47480952D01*
X285361904Y-47528571D01*
X285409523Y-47623809D01*
%TO.C,D97*%
X287114285Y-64452380D02*
X287114285Y-63452380D01*
X286876190Y-63452380D01*
X286733333Y-63500000D01*
X286638095Y-63595238D01*
X286590476Y-63690476D01*
X286542857Y-63880952D01*
X286542857Y-64023809D01*
X286590476Y-64214285D01*
X286638095Y-64309523D01*
X286733333Y-64404761D01*
X286876190Y-64452380D01*
X287114285Y-64452380D01*
X286066666Y-64452380D02*
X285876190Y-64452380D01*
X285780952Y-64404761D01*
X285733333Y-64357142D01*
X285638095Y-64214285D01*
X285590476Y-64023809D01*
X285590476Y-63642857D01*
X285638095Y-63547619D01*
X285685714Y-63500000D01*
X285780952Y-63452380D01*
X285971428Y-63452380D01*
X286066666Y-63500000D01*
X286114285Y-63547619D01*
X286161904Y-63642857D01*
X286161904Y-63880952D01*
X286114285Y-63976190D01*
X286066666Y-64023809D01*
X285971428Y-64071428D01*
X285780952Y-64071428D01*
X285685714Y-64023809D01*
X285638095Y-63976190D01*
X285590476Y-63880952D01*
X285257142Y-63452380D02*
X284590476Y-63452380D01*
X285019047Y-64452380D01*
%TO.C,D98*%
X284714285Y-80852380D02*
X284714285Y-79852380D01*
X284476190Y-79852380D01*
X284333333Y-79900000D01*
X284238095Y-79995238D01*
X284190476Y-80090476D01*
X284142857Y-80280952D01*
X284142857Y-80423809D01*
X284190476Y-80614285D01*
X284238095Y-80709523D01*
X284333333Y-80804761D01*
X284476190Y-80852380D01*
X284714285Y-80852380D01*
X283666666Y-80852380D02*
X283476190Y-80852380D01*
X283380952Y-80804761D01*
X283333333Y-80757142D01*
X283238095Y-80614285D01*
X283190476Y-80423809D01*
X283190476Y-80042857D01*
X283238095Y-79947619D01*
X283285714Y-79900000D01*
X283380952Y-79852380D01*
X283571428Y-79852380D01*
X283666666Y-79900000D01*
X283714285Y-79947619D01*
X283761904Y-80042857D01*
X283761904Y-80280952D01*
X283714285Y-80376190D01*
X283666666Y-80423809D01*
X283571428Y-80471428D01*
X283380952Y-80471428D01*
X283285714Y-80423809D01*
X283238095Y-80376190D01*
X283190476Y-80280952D01*
X282619047Y-80280952D02*
X282714285Y-80233333D01*
X282761904Y-80185714D01*
X282809523Y-80090476D01*
X282809523Y-80042857D01*
X282761904Y-79947619D01*
X282714285Y-79900000D01*
X282619047Y-79852380D01*
X282428571Y-79852380D01*
X282333333Y-79900000D01*
X282285714Y-79947619D01*
X282238095Y-80042857D01*
X282238095Y-80090476D01*
X282285714Y-80185714D01*
X282333333Y-80233333D01*
X282428571Y-80280952D01*
X282619047Y-80280952D01*
X282714285Y-80328571D01*
X282761904Y-80376190D01*
X282809523Y-80471428D01*
X282809523Y-80661904D01*
X282761904Y-80757142D01*
X282714285Y-80804761D01*
X282619047Y-80852380D01*
X282428571Y-80852380D01*
X282333333Y-80804761D01*
X282285714Y-80757142D01*
X282238095Y-80661904D01*
X282238095Y-80471428D01*
X282285714Y-80376190D01*
X282333333Y-80328571D01*
X282428571Y-80280952D01*
%TO.C,D99*%
X284114285Y-101052380D02*
X284114285Y-100052380D01*
X283876190Y-100052380D01*
X283733333Y-100100000D01*
X283638095Y-100195238D01*
X283590476Y-100290476D01*
X283542857Y-100480952D01*
X283542857Y-100623809D01*
X283590476Y-100814285D01*
X283638095Y-100909523D01*
X283733333Y-101004761D01*
X283876190Y-101052380D01*
X284114285Y-101052380D01*
X283066666Y-101052380D02*
X282876190Y-101052380D01*
X282780952Y-101004761D01*
X282733333Y-100957142D01*
X282638095Y-100814285D01*
X282590476Y-100623809D01*
X282590476Y-100242857D01*
X282638095Y-100147619D01*
X282685714Y-100100000D01*
X282780952Y-100052380D01*
X282971428Y-100052380D01*
X283066666Y-100100000D01*
X283114285Y-100147619D01*
X283161904Y-100242857D01*
X283161904Y-100480952D01*
X283114285Y-100576190D01*
X283066666Y-100623809D01*
X282971428Y-100671428D01*
X282780952Y-100671428D01*
X282685714Y-100623809D01*
X282638095Y-100576190D01*
X282590476Y-100480952D01*
X282114285Y-101052380D02*
X281923809Y-101052380D01*
X281828571Y-101004761D01*
X281780952Y-100957142D01*
X281685714Y-100814285D01*
X281638095Y-100623809D01*
X281638095Y-100242857D01*
X281685714Y-100147619D01*
X281733333Y-100100000D01*
X281828571Y-100052380D01*
X282019047Y-100052380D01*
X282114285Y-100100000D01*
X282161904Y-100147619D01*
X282209523Y-100242857D01*
X282209523Y-100480952D01*
X282161904Y-100576190D01*
X282114285Y-100623809D01*
X282019047Y-100671428D01*
X281828571Y-100671428D01*
X281733333Y-100623809D01*
X281685714Y-100576190D01*
X281638095Y-100480952D01*
%TO.C,F1*%
X43798571Y-20516666D02*
X43798571Y-20183333D01*
X44322380Y-20183333D02*
X43322380Y-20183333D01*
X43322380Y-20659523D01*
X44322380Y-21564285D02*
X44322380Y-20992857D01*
X44322380Y-21278571D02*
X43322380Y-21278571D01*
X43465238Y-21183333D01*
X43560476Y-21088095D01*
X43608095Y-20992857D01*
%TO.C,JP_LED2*%
X88630833Y-20452380D02*
X88964166Y-19976190D01*
X89202261Y-20452380D02*
X89202261Y-19452380D01*
X88821309Y-19452380D01*
X88726071Y-19500000D01*
X88678452Y-19547619D01*
X88630833Y-19642857D01*
X88630833Y-19785714D01*
X88678452Y-19880952D01*
X88726071Y-19928571D01*
X88821309Y-19976190D01*
X89202261Y-19976190D01*
X88202261Y-20357142D02*
X88154642Y-20404761D01*
X88202261Y-20452380D01*
X88249880Y-20404761D01*
X88202261Y-20357142D01*
X88202261Y-20452380D01*
X87726071Y-19928571D02*
X87392738Y-19928571D01*
X87249880Y-20452380D02*
X87726071Y-20452380D01*
X87726071Y-19452380D01*
X87249880Y-19452380D01*
X86821309Y-20357142D02*
X86773690Y-20404761D01*
X86821309Y-20452380D01*
X86868928Y-20404761D01*
X86821309Y-20357142D01*
X86821309Y-20452380D01*
X85107023Y-20452380D02*
X85583214Y-20452380D01*
X85583214Y-19452380D01*
X84773690Y-19928571D02*
X84440357Y-19928571D01*
X84297500Y-20452380D02*
X84773690Y-20452380D01*
X84773690Y-19452380D01*
X84297500Y-19452380D01*
X83868928Y-20452380D02*
X83868928Y-19452380D01*
X83630833Y-19452380D01*
X83487976Y-19500000D01*
X83392738Y-19595238D01*
X83345119Y-19690476D01*
X83297500Y-19880952D01*
X83297500Y-20023809D01*
X83345119Y-20214285D01*
X83392738Y-20309523D01*
X83487976Y-20404761D01*
X83630833Y-20452380D01*
X83868928Y-20452380D01*
X82916547Y-20404761D02*
X82821309Y-20452380D01*
X82630833Y-20452380D01*
X82535595Y-20404761D01*
X82487976Y-20309523D01*
X82487976Y-20261904D01*
X82535595Y-20166666D01*
X82630833Y-20119047D01*
X82773690Y-20119047D01*
X82868928Y-20071428D01*
X82916547Y-19976190D01*
X82916547Y-19928571D01*
X82868928Y-19833333D01*
X82773690Y-19785714D01*
X82630833Y-19785714D01*
X82535595Y-19833333D01*
X89259404Y-21728571D02*
X88926071Y-21728571D01*
X88783214Y-22252380D02*
X89259404Y-22252380D01*
X89259404Y-21252380D01*
X88783214Y-21252380D01*
X88354642Y-21585714D02*
X88354642Y-22252380D01*
X88354642Y-21680952D02*
X88307023Y-21633333D01*
X88211785Y-21585714D01*
X88068928Y-21585714D01*
X87973690Y-21633333D01*
X87926071Y-21728571D01*
X87926071Y-22252380D01*
X87021309Y-22252380D02*
X87021309Y-21728571D01*
X87068928Y-21633333D01*
X87164166Y-21585714D01*
X87354642Y-21585714D01*
X87449880Y-21633333D01*
X87021309Y-22204761D02*
X87116547Y-22252380D01*
X87354642Y-22252380D01*
X87449880Y-22204761D01*
X87497500Y-22109523D01*
X87497500Y-22014285D01*
X87449880Y-21919047D01*
X87354642Y-21871428D01*
X87116547Y-21871428D01*
X87021309Y-21823809D01*
X86545119Y-22252380D02*
X86545119Y-21252380D01*
X86545119Y-21633333D02*
X86449880Y-21585714D01*
X86259404Y-21585714D01*
X86164166Y-21633333D01*
X86116547Y-21680952D01*
X86068928Y-21776190D01*
X86068928Y-22061904D01*
X86116547Y-22157142D01*
X86164166Y-22204761D01*
X86259404Y-22252380D01*
X86449880Y-22252380D01*
X86545119Y-22204761D01*
X85497500Y-22252380D02*
X85592738Y-22204761D01*
X85640357Y-22109523D01*
X85640357Y-21252380D01*
X84735595Y-22204761D02*
X84830833Y-22252380D01*
X85021309Y-22252380D01*
X85116547Y-22204761D01*
X85164166Y-22109523D01*
X85164166Y-21728571D01*
X85116547Y-21633333D01*
X85021309Y-21585714D01*
X84830833Y-21585714D01*
X84735595Y-21633333D01*
X84687976Y-21728571D01*
X84687976Y-21823809D01*
X85164166Y-21919047D01*
X89735595Y-24852380D02*
X89735595Y-23852380D01*
X89497500Y-23852380D01*
X89354642Y-23900000D01*
X89259404Y-23995238D01*
X89211785Y-24090476D01*
X89164166Y-24280952D01*
X89164166Y-24423809D01*
X89211785Y-24614285D01*
X89259404Y-24709523D01*
X89354642Y-24804761D01*
X89497500Y-24852380D01*
X89735595Y-24852380D01*
X88735595Y-24852380D02*
X88735595Y-24185714D01*
X88735595Y-23852380D02*
X88783214Y-23900000D01*
X88735595Y-23947619D01*
X88687976Y-23900000D01*
X88735595Y-23852380D01*
X88735595Y-23947619D01*
X88307023Y-24804761D02*
X88211785Y-24852380D01*
X88021309Y-24852380D01*
X87926071Y-24804761D01*
X87878452Y-24709523D01*
X87878452Y-24661904D01*
X87926071Y-24566666D01*
X88021309Y-24519047D01*
X88164166Y-24519047D01*
X88259404Y-24471428D01*
X88307023Y-24376190D01*
X88307023Y-24328571D01*
X88259404Y-24233333D01*
X88164166Y-24185714D01*
X88021309Y-24185714D01*
X87926071Y-24233333D01*
X87021309Y-24852380D02*
X87021309Y-24328571D01*
X87068928Y-24233333D01*
X87164166Y-24185714D01*
X87354642Y-24185714D01*
X87449880Y-24233333D01*
X87021309Y-24804761D02*
X87116547Y-24852380D01*
X87354642Y-24852380D01*
X87449880Y-24804761D01*
X87497500Y-24709523D01*
X87497500Y-24614285D01*
X87449880Y-24519047D01*
X87354642Y-24471428D01*
X87116547Y-24471428D01*
X87021309Y-24423809D01*
X86545119Y-24852380D02*
X86545119Y-23852380D01*
X86545119Y-24233333D02*
X86449880Y-24185714D01*
X86259404Y-24185714D01*
X86164166Y-24233333D01*
X86116547Y-24280952D01*
X86068928Y-24376190D01*
X86068928Y-24661904D01*
X86116547Y-24757142D01*
X86164166Y-24804761D01*
X86259404Y-24852380D01*
X86449880Y-24852380D01*
X86545119Y-24804761D01*
X85497500Y-24852380D02*
X85592738Y-24804761D01*
X85640357Y-24709523D01*
X85640357Y-23852380D01*
X84735595Y-24804761D02*
X84830833Y-24852380D01*
X85021309Y-24852380D01*
X85116547Y-24804761D01*
X85164166Y-24709523D01*
X85164166Y-24328571D01*
X85116547Y-24233333D01*
X85021309Y-24185714D01*
X84830833Y-24185714D01*
X84735595Y-24233333D01*
X84687976Y-24328571D01*
X84687976Y-24423809D01*
X85164166Y-24519047D01*
%TO.C,L15*%
X289892857Y-80748571D02*
X289892857Y-80139047D01*
X289588095Y-80443809D02*
X290197619Y-80443809D01*
X290388095Y-79377142D02*
X290388095Y-79758095D01*
X290007142Y-79796190D01*
X290045238Y-79758095D01*
X290083333Y-79681904D01*
X290083333Y-79491428D01*
X290045238Y-79415238D01*
X290007142Y-79377142D01*
X289930952Y-79339047D01*
X289740476Y-79339047D01*
X289664285Y-79377142D01*
X289626190Y-79415238D01*
X289588095Y-79491428D01*
X289588095Y-79681904D01*
X289626190Y-79758095D01*
X289664285Y-79796190D01*
X290388095Y-79110476D02*
X289588095Y-78843809D01*
X290388095Y-78577142D01*
X289588095Y-77484285D02*
X289588095Y-77865238D01*
X290388095Y-77865238D01*
X290007142Y-77217619D02*
X290007142Y-76950952D01*
X289588095Y-76836666D02*
X289588095Y-77217619D01*
X290388095Y-77217619D01*
X290388095Y-76836666D01*
X289588095Y-76493809D02*
X290388095Y-76493809D01*
X290388095Y-76303333D01*
X290350000Y-76189047D01*
X290273809Y-76112857D01*
X290197619Y-76074761D01*
X290045238Y-76036666D01*
X289930952Y-76036666D01*
X289778571Y-76074761D01*
X289702380Y-76112857D01*
X289626190Y-76189047D01*
X289588095Y-76303333D01*
X289588095Y-76493809D01*
X290350000Y-75079523D02*
X290388095Y-75155714D01*
X290388095Y-75270000D01*
X290350000Y-75384285D01*
X290273809Y-75460476D01*
X290197619Y-75498571D01*
X290045238Y-75536666D01*
X289930952Y-75536666D01*
X289778571Y-75498571D01*
X289702380Y-75460476D01*
X289626190Y-75384285D01*
X289588095Y-75270000D01*
X289588095Y-75193809D01*
X289626190Y-75079523D01*
X289664285Y-75041428D01*
X289930952Y-75041428D01*
X289930952Y-75193809D01*
X289588095Y-74698571D02*
X290388095Y-74698571D01*
X289588095Y-74241428D01*
X290388095Y-74241428D01*
X289588095Y-73860476D02*
X290388095Y-73860476D01*
X290388095Y-73670000D01*
X290350000Y-73555714D01*
X290273809Y-73479523D01*
X290197619Y-73441428D01*
X290045238Y-73403333D01*
X289930952Y-73403333D01*
X289778571Y-73441428D01*
X289702380Y-73479523D01*
X289626190Y-73555714D01*
X289588095Y-73670000D01*
X289588095Y-73860476D01*
X292688095Y-79298571D02*
X292688095Y-79679523D01*
X293488095Y-79679523D01*
X293107142Y-79031904D02*
X293107142Y-78765238D01*
X292688095Y-78650952D02*
X292688095Y-79031904D01*
X293488095Y-79031904D01*
X293488095Y-78650952D01*
X292688095Y-78308095D02*
X293488095Y-78308095D01*
X293488095Y-78117619D01*
X293450000Y-78003333D01*
X293373809Y-77927142D01*
X293297619Y-77889047D01*
X293145238Y-77850952D01*
X293030952Y-77850952D01*
X292878571Y-77889047D01*
X292802380Y-77927142D01*
X292726190Y-78003333D01*
X292688095Y-78117619D01*
X292688095Y-78308095D01*
X292726190Y-76936666D02*
X292688095Y-76822380D01*
X292688095Y-76631904D01*
X292726190Y-76555714D01*
X292764285Y-76517619D01*
X292840476Y-76479523D01*
X292916666Y-76479523D01*
X292992857Y-76517619D01*
X293030952Y-76555714D01*
X293069047Y-76631904D01*
X293107142Y-76784285D01*
X293145238Y-76860476D01*
X293183333Y-76898571D01*
X293259523Y-76936666D01*
X293335714Y-76936666D01*
X293411904Y-76898571D01*
X293450000Y-76860476D01*
X293488095Y-76784285D01*
X293488095Y-76593809D01*
X293450000Y-76479523D01*
X293221428Y-76250952D02*
X293221428Y-75946190D01*
X293488095Y-76136666D02*
X292802380Y-76136666D01*
X292726190Y-76098571D01*
X292688095Y-76022380D01*
X292688095Y-75946190D01*
X292688095Y-75679523D02*
X293221428Y-75679523D01*
X293069047Y-75679523D02*
X293145238Y-75641428D01*
X293183333Y-75603333D01*
X293221428Y-75527142D01*
X293221428Y-75450952D01*
X292688095Y-75184285D02*
X293221428Y-75184285D01*
X293488095Y-75184285D02*
X293450000Y-75222380D01*
X293411904Y-75184285D01*
X293450000Y-75146190D01*
X293488095Y-75184285D01*
X293411904Y-75184285D01*
X293221428Y-74803333D02*
X292421428Y-74803333D01*
X293183333Y-74803333D02*
X293221428Y-74727142D01*
X293221428Y-74574761D01*
X293183333Y-74498571D01*
X293145238Y-74460476D01*
X293069047Y-74422380D01*
X292840476Y-74422380D01*
X292764285Y-74460476D01*
X292726190Y-74498571D01*
X292688095Y-74574761D01*
X292688095Y-74727142D01*
X292726190Y-74803333D01*
%TO.C,R1*%
X19866666Y-25852380D02*
X20200000Y-25376190D01*
X20438095Y-25852380D02*
X20438095Y-24852380D01*
X20057142Y-24852380D01*
X19961904Y-24900000D01*
X19914285Y-24947619D01*
X19866666Y-25042857D01*
X19866666Y-25185714D01*
X19914285Y-25280952D01*
X19961904Y-25328571D01*
X20057142Y-25376190D01*
X20438095Y-25376190D01*
X18914285Y-25852380D02*
X19485714Y-25852380D01*
X19200000Y-25852380D02*
X19200000Y-24852380D01*
X19295238Y-24995238D01*
X19390476Y-25090476D01*
X19485714Y-25138095D01*
%TO.C,R4*%
X34266666Y-62052380D02*
X34600000Y-61576190D01*
X34838095Y-62052380D02*
X34838095Y-61052380D01*
X34457142Y-61052380D01*
X34361904Y-61100000D01*
X34314285Y-61147619D01*
X34266666Y-61242857D01*
X34266666Y-61385714D01*
X34314285Y-61480952D01*
X34361904Y-61528571D01*
X34457142Y-61576190D01*
X34838095Y-61576190D01*
X33409523Y-61385714D02*
X33409523Y-62052380D01*
X33647619Y-61004761D02*
X33885714Y-61719047D01*
X33266666Y-61719047D01*
%TO.C,R5*%
X22466666Y-18552380D02*
X22800000Y-18076190D01*
X23038095Y-18552380D02*
X23038095Y-17552380D01*
X22657142Y-17552380D01*
X22561904Y-17600000D01*
X22514285Y-17647619D01*
X22466666Y-17742857D01*
X22466666Y-17885714D01*
X22514285Y-17980952D01*
X22561904Y-18028571D01*
X22657142Y-18076190D01*
X23038095Y-18076190D01*
X21561904Y-17552380D02*
X22038095Y-17552380D01*
X22085714Y-18028571D01*
X22038095Y-17980952D01*
X21942857Y-17933333D01*
X21704761Y-17933333D01*
X21609523Y-17980952D01*
X21561904Y-18028571D01*
X21514285Y-18123809D01*
X21514285Y-18361904D01*
X21561904Y-18457142D01*
X21609523Y-18504761D01*
X21704761Y-18552380D01*
X21942857Y-18552380D01*
X22038095Y-18504761D01*
X22085714Y-18457142D01*
%TO.C,R6*%
X25166666Y-23452380D02*
X25500000Y-22976190D01*
X25738095Y-23452380D02*
X25738095Y-22452380D01*
X25357142Y-22452380D01*
X25261904Y-22500000D01*
X25214285Y-22547619D01*
X25166666Y-22642857D01*
X25166666Y-22785714D01*
X25214285Y-22880952D01*
X25261904Y-22928571D01*
X25357142Y-22976190D01*
X25738095Y-22976190D01*
X24309523Y-22452380D02*
X24500000Y-22452380D01*
X24595238Y-22500000D01*
X24642857Y-22547619D01*
X24738095Y-22690476D01*
X24785714Y-22880952D01*
X24785714Y-23261904D01*
X24738095Y-23357142D01*
X24690476Y-23404761D01*
X24595238Y-23452380D01*
X24404761Y-23452380D01*
X24309523Y-23404761D01*
X24261904Y-23357142D01*
X24214285Y-23261904D01*
X24214285Y-23023809D01*
X24261904Y-22928571D01*
X24309523Y-22880952D01*
X24404761Y-22833333D01*
X24595238Y-22833333D01*
X24690476Y-22880952D01*
X24738095Y-22928571D01*
X24785714Y-23023809D01*
%TO.C,R8*%
X41866666Y-28852380D02*
X42200000Y-28376190D01*
X42438095Y-28852380D02*
X42438095Y-27852380D01*
X42057142Y-27852380D01*
X41961904Y-27900000D01*
X41914285Y-27947619D01*
X41866666Y-28042857D01*
X41866666Y-28185714D01*
X41914285Y-28280952D01*
X41961904Y-28328571D01*
X42057142Y-28376190D01*
X42438095Y-28376190D01*
X41295238Y-28280952D02*
X41390476Y-28233333D01*
X41438095Y-28185714D01*
X41485714Y-28090476D01*
X41485714Y-28042857D01*
X41438095Y-27947619D01*
X41390476Y-27900000D01*
X41295238Y-27852380D01*
X41104761Y-27852380D01*
X41009523Y-27900000D01*
X40961904Y-27947619D01*
X40914285Y-28042857D01*
X40914285Y-28090476D01*
X40961904Y-28185714D01*
X41009523Y-28233333D01*
X41104761Y-28280952D01*
X41295238Y-28280952D01*
X41390476Y-28328571D01*
X41438095Y-28376190D01*
X41485714Y-28471428D01*
X41485714Y-28661904D01*
X41438095Y-28757142D01*
X41390476Y-28804761D01*
X41295238Y-28852380D01*
X41104761Y-28852380D01*
X41009523Y-28804761D01*
X40961904Y-28757142D01*
X40914285Y-28661904D01*
X40914285Y-28471428D01*
X40961904Y-28376190D01*
X41009523Y-28328571D01*
X41104761Y-28280952D01*
%TO.C,R9*%
X103224136Y-62897351D02*
X103796556Y-62796336D01*
X103628197Y-63301412D02*
X104335304Y-62594306D01*
X104065930Y-62324931D01*
X103964915Y-62291260D01*
X103897571Y-62291260D01*
X103796556Y-62324931D01*
X103695541Y-62425947D01*
X103661869Y-62526962D01*
X103661869Y-62594306D01*
X103695541Y-62695321D01*
X103964915Y-62964695D01*
X102887418Y-62560634D02*
X102752731Y-62425947D01*
X102719060Y-62324931D01*
X102719060Y-62257588D01*
X102752731Y-62089229D01*
X102853747Y-61920870D01*
X103123121Y-61651496D01*
X103224136Y-61617825D01*
X103291479Y-61617825D01*
X103392495Y-61651496D01*
X103527182Y-61786183D01*
X103560854Y-61887199D01*
X103560854Y-61954542D01*
X103527182Y-62055557D01*
X103358823Y-62223916D01*
X103257808Y-62257588D01*
X103190464Y-62257588D01*
X103089449Y-62223916D01*
X102954762Y-62089229D01*
X102921090Y-61988214D01*
X102921090Y-61920870D01*
X102954762Y-61819855D01*
%TO.C,ResetSW1*%
X43861904Y-61752380D02*
X44195238Y-61276190D01*
X44433333Y-61752380D02*
X44433333Y-60752380D01*
X44052380Y-60752380D01*
X43957142Y-60800000D01*
X43909523Y-60847619D01*
X43861904Y-60942857D01*
X43861904Y-61085714D01*
X43909523Y-61180952D01*
X43957142Y-61228571D01*
X44052380Y-61276190D01*
X44433333Y-61276190D01*
X43052380Y-61704761D02*
X43147619Y-61752380D01*
X43338095Y-61752380D01*
X43433333Y-61704761D01*
X43480952Y-61609523D01*
X43480952Y-61228571D01*
X43433333Y-61133333D01*
X43338095Y-61085714D01*
X43147619Y-61085714D01*
X43052380Y-61133333D01*
X43004761Y-61228571D01*
X43004761Y-61323809D01*
X43480952Y-61419047D01*
X42623809Y-61704761D02*
X42528571Y-61752380D01*
X42338095Y-61752380D01*
X42242857Y-61704761D01*
X42195238Y-61609523D01*
X42195238Y-61561904D01*
X42242857Y-61466666D01*
X42338095Y-61419047D01*
X42480952Y-61419047D01*
X42576190Y-61371428D01*
X42623809Y-61276190D01*
X42623809Y-61228571D01*
X42576190Y-61133333D01*
X42480952Y-61085714D01*
X42338095Y-61085714D01*
X42242857Y-61133333D01*
X41385714Y-61704761D02*
X41480952Y-61752380D01*
X41671428Y-61752380D01*
X41766666Y-61704761D01*
X41814285Y-61609523D01*
X41814285Y-61228571D01*
X41766666Y-61133333D01*
X41671428Y-61085714D01*
X41480952Y-61085714D01*
X41385714Y-61133333D01*
X41338095Y-61228571D01*
X41338095Y-61323809D01*
X41814285Y-61419047D01*
X41052380Y-61085714D02*
X40671428Y-61085714D01*
X40909523Y-60752380D02*
X40909523Y-61609523D01*
X40861904Y-61704761D01*
X40766666Y-61752380D01*
X40671428Y-61752380D01*
X40385714Y-61704761D02*
X40242857Y-61752380D01*
X40004761Y-61752380D01*
X39909523Y-61704761D01*
X39861904Y-61657142D01*
X39814285Y-61561904D01*
X39814285Y-61466666D01*
X39861904Y-61371428D01*
X39909523Y-61323809D01*
X40004761Y-61276190D01*
X40195238Y-61228571D01*
X40290476Y-61180952D01*
X40338095Y-61133333D01*
X40385714Y-61038095D01*
X40385714Y-60942857D01*
X40338095Y-60847619D01*
X40290476Y-60800000D01*
X40195238Y-60752380D01*
X39957142Y-60752380D01*
X39814285Y-60800000D01*
X39480952Y-60752380D02*
X39242857Y-61752380D01*
X39052380Y-61038095D01*
X38861904Y-61752380D01*
X38623809Y-60752380D01*
X37719047Y-61752380D02*
X38290476Y-61752380D01*
X38004761Y-61752380D02*
X38004761Y-60752380D01*
X38100000Y-60895238D01*
X38195238Y-60990476D01*
X38290476Y-61038095D01*
%TO.C,J1*%
X33633333Y-23152380D02*
X33633333Y-23866666D01*
X33680952Y-24009523D01*
X33776190Y-24104761D01*
X33919047Y-24152380D01*
X34014285Y-24152380D01*
X32633333Y-24152380D02*
X33204761Y-24152380D01*
X32919047Y-24152380D02*
X32919047Y-23152380D01*
X33014285Y-23295238D01*
X33109523Y-23390476D01*
X33204761Y-23438095D01*
%TD*%
M02*
