%TF.GenerationSoftware,KiCad,Pcbnew,(5.1.9-0-10_14)*%
%TF.CreationDate,2021-01-10T14:58:04+09:00*%
%TF.ProjectId,Unison,556e6973-6f6e-42e6-9b69-6361645f7063,v01_1AU*%
%TF.SameCoordinates,Original*%
%TF.FileFunction,Copper,L1,Top*%
%TF.FilePolarity,Positive*%
%FSLAX46Y46*%
G04 Gerber Fmt 4.6, Leading zero omitted, Abs format (unit mm)*
G04 Created by KiCad (PCBNEW (5.1.9-0-10_14)) date 2021-01-10 14:58:04*
%MOMM*%
%LPD*%
G01*
G04 APERTURE LIST*
%TA.AperFunction,EtchedComponent*%
%ADD10C,1.500000*%
%TD*%
%TA.AperFunction,ComponentPad*%
%ADD11O,2.000000X1.200000*%
%TD*%
%TA.AperFunction,ComponentPad*%
%ADD12O,1.200000X2.000000*%
%TD*%
%TA.AperFunction,ComponentPad*%
%ADD13C,1.000000*%
%TD*%
%TA.AperFunction,ComponentPad*%
%ADD14C,5.000000*%
%TD*%
%TA.AperFunction,ComponentPad*%
%ADD15O,7.000240X5.000000*%
%TD*%
%TA.AperFunction,SMDPad,CuDef*%
%ADD16R,3.400000X1.300000*%
%TD*%
%TA.AperFunction,ComponentPad*%
%ADD17C,1.397000*%
%TD*%
%TA.AperFunction,ComponentPad*%
%ADD18O,1.108000X2.216000*%
%TD*%
%TA.AperFunction,ComponentPad*%
%ADD19C,0.650000*%
%TD*%
%TA.AperFunction,ComponentPad*%
%ADD20R,2.000000X2.000000*%
%TD*%
%TA.AperFunction,ComponentPad*%
%ADD21C,2.000000*%
%TD*%
%TA.AperFunction,ComponentPad*%
%ADD22R,3.200000X2.000000*%
%TD*%
%TA.AperFunction,ViaPad*%
%ADD23C,0.600000*%
%TD*%
%TA.AperFunction,Conductor*%
%ADD24C,0.381000*%
%TD*%
%TA.AperFunction,Conductor*%
%ADD25C,0.254000*%
%TD*%
%TA.AperFunction,Conductor*%
%ADD26C,0.100000*%
%TD*%
G04 APERTURE END LIST*
D10*
%TO.C,REF\u002A\u002A*%
X300150000Y-71550000D02*
X296350000Y-71550000D01*
X300200000Y-75850000D02*
X296400000Y-75850000D01*
X15250000Y-75850000D02*
X19050000Y-75850000D01*
X15200000Y-71550000D02*
X19000000Y-71550000D01*
X294250000Y-73700000D02*
G75*
G03*
X296400000Y-75850000I2150000J0D01*
G01*
X294250000Y-73700000D02*
G75*
G02*
X296400000Y-71550000I2150000J0D01*
G01*
X21150000Y-73700000D02*
G75*
G02*
X19000000Y-75850000I-2150000J0D01*
G01*
X21150000Y-73700000D02*
G75*
G03*
X19000000Y-71550000I-2150000J0D01*
G01*
%TD*%
D11*
%TO.P,SW_89,1*%
%TO.N,RE4_1*%
X254690000Y-84660000D03*
%TO.P,SW_89,2*%
%TO.N,Net-(D87-Pad2)*%
X261140000Y-82120000D03*
%TD*%
D12*
%TO.P,SW_37_2,1*%
%TO.N,Net-(D25-Pad1)*%
X92160000Y-58210000D03*
%TO.P,SW_37_2,2*%
%TO.N,Net-(D27-Pad2)*%
X89620000Y-51760000D03*
%TD*%
D11*
%TO.P,SW_43,1*%
%TO.N,Net-(D36-Pad1)*%
X111890000Y-68260000D03*
%TO.P,SW_43,2*%
%TO.N,Net-(D33-Pad2)*%
X118340000Y-65720000D03*
%TD*%
%TO.P,SW_10_2,1*%
%TO.N,Net-(D1-Pad1)*%
X27890000Y-101060000D03*
%TO.P,SW_10_2,2*%
%TO.N,Net-(D7-Pad2)*%
X34340000Y-98520000D03*
%TD*%
%TO.P,SW_12_1,1*%
%TO.N,Net-(D1-Pad1)*%
X36290000Y-51860000D03*
%TO.P,SW_12_1,2*%
%TO.N,Net-(D10-Pad2)*%
X42740000Y-49320000D03*
%TD*%
%TO.P,SW_25_2,1*%
%TO.N,RE1_1*%
X69890000Y-92860000D03*
%TO.P,SW_25_2,2*%
%TO.N,Net-(D24-Pad2)*%
X76340000Y-90320000D03*
%TD*%
%TO.P,SW_19_2,1*%
%TO.N,Net-(D1-Pad1)*%
X27890000Y-84660000D03*
%TO.P,SW_19_2,2*%
%TO.N,Net-(D6-Pad2)*%
X34340000Y-82120000D03*
%TD*%
%TO.P,SW_39_2,1*%
%TO.N,Net-(D25-Pad1)*%
X95090000Y-84660000D03*
%TO.P,SW_39_2,2*%
%TO.N,Net-(D29-Pad2)*%
X101540000Y-82120000D03*
%TD*%
%TO.P,SW_17_2,2*%
%TO.N,Net-(D4-Pad2)*%
X30140000Y-49320000D03*
%TO.P,SW_17_2,1*%
%TO.N,Net-(D1-Pad1)*%
X23690000Y-51860000D03*
%TD*%
%TO.P,SW_18_2,2*%
%TO.N,Net-(D5-Pad2)*%
X30140000Y-65720000D03*
%TO.P,SW_18_2,1*%
%TO.N,Net-(D1-Pad1)*%
X23690000Y-68260000D03*
%TD*%
%TO.P,SW_38_2,2*%
%TO.N,Net-(D28-Pad2)*%
X97340000Y-65720000D03*
%TO.P,SW_38_2,1*%
%TO.N,Net-(D25-Pad1)*%
X90890000Y-68260000D03*
%TD*%
%TO.P,SW_7_2,2*%
%TO.N,Net-(D96-Pad2)*%
X290540000Y-49320000D03*
%TO.P,SW_7_2,1*%
%TO.N,Net-(D94-Pad1)*%
X284090000Y-51860000D03*
%TD*%
%TO.P,SW_8_2,2*%
%TO.N,Net-(D97-Pad2)*%
X290540000Y-65720000D03*
%TO.P,SW_8_2,1*%
%TO.N,Net-(D94-Pad1)*%
X284090000Y-68260000D03*
%TD*%
%TO.P,SW_21,1*%
%TO.N,RE1_1*%
X36290000Y-35460000D03*
%TO.P,SW_21,2*%
%TO.N,Net-(D9-Pad2)*%
X42740000Y-32920000D03*
%TD*%
%TO.P,SW_26,1*%
%TO.N,RE1_1*%
X53090000Y-35460000D03*
%TO.P,SW_26,2*%
%TO.N,RE1_2*%
X59540000Y-32920000D03*
%TD*%
D13*
%TO.P,REF\u002A\u002A,1*%
%TO.N,N/C*%
X298442035Y-71500000D03*
X298450000Y-75850000D03*
X294850000Y-75200000D03*
X296400000Y-71500000D03*
X296400000Y-75850000D03*
X294250000Y-73700000D03*
X294850000Y-72200000D03*
X20550000Y-75200000D03*
D14*
X40400000Y-45100000D03*
D15*
X143400000Y-64200000D03*
X205700000Y-102400000D03*
X275250000Y-45100000D03*
D13*
X40400000Y-43200000D03*
X38500000Y-45100000D03*
X42300000Y-45100000D03*
X40400000Y-47000000D03*
X39050000Y-43750000D03*
X41650000Y-43750000D03*
X39050000Y-46400000D03*
X41650000Y-46450000D03*
X275250000Y-43250000D03*
X275250000Y-46950000D03*
X276450000Y-46950000D03*
X274050000Y-46950000D03*
X274050000Y-43250000D03*
X276450000Y-43233000D03*
X205750000Y-100550000D03*
X205700000Y-104250000D03*
X206950000Y-100550000D03*
X204550000Y-100550000D03*
X204500000Y-104250000D03*
X206900000Y-104250000D03*
X143400000Y-62350000D03*
X144600000Y-62350000D03*
X142200000Y-62350000D03*
X143400000Y-66100000D03*
X142200000Y-66100000D03*
X144600000Y-66100000D03*
X21150000Y-73700000D03*
X19000000Y-71550000D03*
X19000000Y-75900000D03*
X20550000Y-72200000D03*
X16950000Y-71550000D03*
X16957965Y-75900000D03*
%TD*%
D16*
%TO.P,LS1,2*%
%TO.N,Net-(D2-Pad1)*%
X23350000Y-27550000D03*
%TO.P,LS1,1*%
%TO.N,GND*%
X23350000Y-18850000D03*
%TD*%
D17*
%TO.P,OL1,4*%
%TO.N,GND*%
X111890000Y-19800000D03*
%TO.P,OL1,3*%
%TO.N,+5V*%
X114430000Y-19800000D03*
%TO.P,OL1,2*%
%TO.N,SCL*%
X116970000Y-19800000D03*
%TO.P,OL1,1*%
%TO.N,SDA*%
X119510000Y-19800000D03*
%TD*%
D11*
%TO.P,SW_6,1*%
%TO.N,Net-(D94-Pad1)*%
X288290000Y-35460000D03*
%TO.P,SW_6,2*%
%TO.N,Net-(D95-Pad2)*%
X294740000Y-32920000D03*
%TD*%
%TO.P,SW_9,1*%
%TO.N,Net-(D94-Pad1)*%
X288290000Y-84660000D03*
%TO.P,SW_9,2*%
%TO.N,Net-(D98-Pad2)*%
X294740000Y-82120000D03*
%TD*%
%TO.P,SW_14,1*%
%TO.N,Net-(D1-Pad1)*%
X36290000Y-84660000D03*
%TO.P,SW_14,2*%
%TO.N,Net-(D12-Pad2)*%
X42740000Y-82120000D03*
%TD*%
%TO.P,SW_15,1*%
%TO.N,Net-(D1-Pad1)*%
X36290000Y-101060000D03*
%TO.P,SW_15,2*%
%TO.N,Net-(D13-Pad2)*%
X42740000Y-98520000D03*
%TD*%
%TO.P,SW_16,1*%
%TO.N,Net-(D1-Pad1)*%
X19490000Y-35460000D03*
%TO.P,SW_16,2*%
%TO.N,Net-(D3-Pad2)*%
X25940000Y-32920000D03*
%TD*%
%TO.P,SW_29,1*%
%TO.N,RE1_1*%
X53090000Y-84660000D03*
%TO.P,SW_29,2*%
%TO.N,Net-(D18-Pad2)*%
X59540000Y-82120000D03*
%TD*%
%TO.P,SW_30_1,1*%
%TO.N,Net-(D25-Pad1)*%
X86690000Y-101060000D03*
%TO.P,SW_30_1,2*%
%TO.N,Net-(D30-Pad2)*%
X93140000Y-98520000D03*
%TD*%
%TO.P,SW_31,1*%
%TO.N,Net-(D25-Pad1)*%
X69890000Y-35460000D03*
%TO.P,SW_31,2*%
%TO.N,Net-(D20-Pad2)*%
X76340000Y-32920000D03*
%TD*%
%TO.P,SW_34,1*%
%TO.N,Net-(D25-Pad1)*%
X103490000Y-84660000D03*
%TO.P,SW_34,2*%
%TO.N,Net-(D34-Pad2)*%
X109940000Y-82120000D03*
%TD*%
%TO.P,SW_36_1,1*%
%TO.N,Net-(D25-Pad1)*%
X86690000Y-35460000D03*
%TO.P,SW_36_1,2*%
%TO.N,Net-(D26-Pad2)*%
X93140000Y-32920000D03*
%TD*%
%TO.P,SW_41_1,1*%
%TO.N,Net-(D36-Pad1)*%
X103490000Y-35460000D03*
%TO.P,SW_41_1,2*%
%TO.N,Net-(D31-Pad2)*%
X109940000Y-32920000D03*
%TD*%
D12*
%TO.P,SW_42,1*%
%TO.N,Net-(D36-Pad1)*%
X118240000Y-50590000D03*
%TO.P,SW_42,2*%
%TO.N,Net-(D32-Pad2)*%
X120780000Y-57040000D03*
%TD*%
D11*
%TO.P,SW_46_1,1*%
%TO.N,Net-(D36-Pad1)*%
X120290000Y-35460000D03*
%TO.P,SW_46_1,2*%
%TO.N,Net-(D37-Pad2)*%
X126740000Y-32920000D03*
%TD*%
%TO.P,SW_47,1*%
%TO.N,Net-(D36-Pad1)*%
X128690000Y-51860000D03*
%TO.P,SW_47,2*%
%TO.N,Net-(D38-Pad2)*%
X135140000Y-49320000D03*
%TD*%
%TO.P,SW_48,1*%
%TO.N,Net-(D36-Pad1)*%
X128690000Y-68260000D03*
%TO.P,SW_48,2*%
%TO.N,Net-(D39-Pad2)*%
X135140000Y-65720000D03*
%TD*%
%TO.P,SW_49,1*%
%TO.N,Net-(D36-Pad1)*%
X120290000Y-84660000D03*
%TO.P,SW_49,2*%
%TO.N,Net-(D40-Pad2)*%
X126740000Y-82120000D03*
%TD*%
%TO.P,SW_50,1*%
%TO.N,Net-(D47-Pad1)*%
X153890000Y-101060000D03*
%TO.P,SW_50,2*%
%TO.N,Net-(D52-Pad2)*%
X160340000Y-98520000D03*
%TD*%
%TO.P,SW_51_1,1*%
%TO.N,Net-(D47-Pad1)*%
X137090000Y-35460000D03*
%TO.P,SW_51_1,2*%
%TO.N,Net-(D42-Pad2)*%
X143540000Y-32920000D03*
%TD*%
%TO.P,SW_52,1*%
%TO.N,Net-(D47-Pad1)*%
X145490000Y-51860000D03*
%TO.P,SW_52,2*%
%TO.N,Net-(D43-Pad2)*%
X151940000Y-49320000D03*
%TD*%
%TO.P,SW_53,1*%
%TO.N,Net-(D47-Pad1)*%
X145490000Y-68260000D03*
%TO.P,SW_53,2*%
%TO.N,Net-(D44-Pad2)*%
X151940000Y-65720000D03*
%TD*%
%TO.P,SW_54,1*%
%TO.N,Net-(D47-Pad1)*%
X137090000Y-84660000D03*
%TO.P,SW_54,2*%
%TO.N,Net-(D45-Pad2)*%
X143540000Y-82120000D03*
%TD*%
%TO.P,SW_56,1*%
%TO.N,Net-(D47-Pad1)*%
X153890000Y-35460000D03*
%TO.P,SW_56,2*%
%TO.N,Net-(D48-Pad2)*%
X160340000Y-32920000D03*
%TD*%
%TO.P,SW_57,1*%
%TO.N,Net-(D47-Pad1)*%
X162290000Y-51860000D03*
%TO.P,SW_57,2*%
%TO.N,Net-(D49-Pad2)*%
X168740000Y-49320000D03*
%TD*%
%TO.P,SW_58,1*%
%TO.N,Net-(D47-Pad1)*%
X162290000Y-68260000D03*
%TO.P,SW_58,2*%
%TO.N,Net-(D50-Pad2)*%
X168740000Y-65720000D03*
%TD*%
%TO.P,SW_59,1*%
%TO.N,Net-(D47-Pad1)*%
X153890000Y-84660000D03*
%TO.P,SW_59,2*%
%TO.N,Net-(D51-Pad2)*%
X160340000Y-82120000D03*
%TD*%
%TO.P,SW_61,1*%
%TO.N,RE2_1*%
X170690000Y-35460000D03*
%TO.P,SW_61,2*%
%TO.N,RE2_2*%
X177140000Y-32920000D03*
%TD*%
%TO.P,SW_62,1*%
%TO.N,RE2_1*%
X179090000Y-51860000D03*
%TO.P,SW_62,2*%
%TO.N,Net-(D55-Pad2)*%
X185540000Y-49320000D03*
%TD*%
%TO.P,SW_63,1*%
%TO.N,RE2_1*%
X179090000Y-68260000D03*
%TO.P,SW_63,2*%
%TO.N,Net-(D56-Pad2)*%
X185540000Y-65720000D03*
%TD*%
%TO.P,SW_64,1*%
%TO.N,RE2_1*%
X170690000Y-84660000D03*
%TO.P,SW_64,2*%
%TO.N,Net-(D57-Pad2)*%
X177140000Y-82120000D03*
%TD*%
%TO.P,SW_65_1,1*%
%TO.N,RE2_1*%
X170690000Y-101060000D03*
%TO.P,SW_65_1,2*%
%TO.N,Net-(D58-Pad2)*%
X177140000Y-98520000D03*
%TD*%
%TO.P,SW_67,1*%
%TO.N,RE2_1*%
X195890000Y-51860000D03*
%TO.P,SW_67,2*%
%TO.N,Net-(D61-Pad2)*%
X202340000Y-49320000D03*
%TD*%
%TO.P,SW_68,1*%
%TO.N,RE2_1*%
X195890000Y-68260000D03*
%TO.P,SW_68,2*%
%TO.N,Net-(D62-Pad2)*%
X202340000Y-65720000D03*
%TD*%
%TO.P,SW_69,1*%
%TO.N,RE2_1*%
X187490000Y-84660000D03*
%TO.P,SW_69,2*%
%TO.N,Net-(D63-Pad2)*%
X193940000Y-82120000D03*
%TD*%
%TO.P,SW_71,1*%
%TO.N,RE3_1*%
X204290000Y-35460000D03*
%TO.P,SW_71,2*%
%TO.N,RE3_2*%
X210740000Y-32920000D03*
%TD*%
%TO.P,SW_72_1,1*%
%TO.N,RE3_1*%
X212690000Y-51860000D03*
%TO.P,SW_72_1,2*%
%TO.N,Net-(D67-Pad2)*%
X219140000Y-49320000D03*
%TD*%
%TO.P,SW_73_1,1*%
%TO.N,RE3_1*%
X212690000Y-68260000D03*
%TO.P,SW_73_1,2*%
%TO.N,Net-(D68-Pad2)*%
X219140000Y-65720000D03*
%TD*%
%TO.P,SW_74,1*%
%TO.N,RE3_1*%
X204290000Y-84660000D03*
%TO.P,SW_74,2*%
%TO.N,Net-(D69-Pad2)*%
X210740000Y-82120000D03*
%TD*%
%TO.P,SW_76,1*%
%TO.N,RE3_1*%
X187490000Y-35460000D03*
%TO.P,SW_76,2*%
%TO.N,Net-(D60-Pad2)*%
X193940000Y-32920000D03*
%TD*%
%TO.P,SW_78_1,1*%
%TO.N,RE3_1*%
X229490000Y-68260000D03*
%TO.P,SW_78_1,2*%
%TO.N,Net-(D74-Pad2)*%
X235940000Y-65720000D03*
%TD*%
%TO.P,SW_79,1*%
%TO.N,RE3_1*%
X221090000Y-84660000D03*
%TO.P,SW_79,2*%
%TO.N,Net-(D75-Pad2)*%
X227540000Y-82120000D03*
%TD*%
%TO.P,SW_81,1*%
%TO.N,RE4_1*%
X237890000Y-35460000D03*
%TO.P,SW_81,2*%
%TO.N,RE4_2*%
X244340000Y-32920000D03*
%TD*%
%TO.P,SW_82_1,1*%
%TO.N,RE4_1*%
X246290000Y-51860000D03*
%TO.P,SW_82_1,2*%
%TO.N,Net-(D79-Pad2)*%
X252740000Y-49320000D03*
%TD*%
%TO.P,SW_83_1,1*%
%TO.N,RE4_1*%
X246290000Y-68260000D03*
%TO.P,SW_83_1,2*%
%TO.N,Net-(D80-Pad2)*%
X252740000Y-65720000D03*
%TD*%
%TO.P,SW_84,1*%
%TO.N,RE4_1*%
X237890000Y-84660000D03*
%TO.P,SW_84,2*%
%TO.N,Net-(D81-Pad2)*%
X244340000Y-82120000D03*
%TD*%
%TO.P,SW_86,1*%
%TO.N,RE4_1*%
X221090000Y-35460000D03*
%TO.P,SW_86,2*%
%TO.N,Net-(D72-Pad2)*%
X227540000Y-32920000D03*
%TD*%
%TO.P,SW_87_1,1*%
%TO.N,RE4_1*%
X229490000Y-51860000D03*
%TO.P,SW_87_1,2*%
%TO.N,Net-(D73-Pad2)*%
X235940000Y-49320000D03*
%TD*%
%TO.P,SW_90_1,1*%
%TO.N,RE5_1*%
X288290000Y-101060000D03*
%TO.P,SW_90_1,2*%
%TO.N,Net-(D99-Pad2)*%
X294740000Y-98520000D03*
%TD*%
%TO.P,SW_91,1*%
%TO.N,RE5_1*%
X271490000Y-35460000D03*
%TO.P,SW_91,2*%
%TO.N,RE5_2*%
X277940000Y-32920000D03*
%TD*%
%TO.P,SW_94,1*%
%TO.N,RE5_1*%
X271490000Y-84660000D03*
%TO.P,SW_94,2*%
%TO.N,Net-(D91-Pad2)*%
X277940000Y-82120000D03*
%TD*%
%TO.P,SW_95,1*%
%TO.N,RE5_1*%
X271490000Y-101060000D03*
%TO.P,SW_95,2*%
%TO.N,Net-(D92-Pad2)*%
X277940000Y-98520000D03*
%TD*%
%TO.P,SW_96,1*%
%TO.N,RE5_1*%
X254690000Y-35460000D03*
%TO.P,SW_96,2*%
%TO.N,Net-(D84-Pad2)*%
X261140000Y-32920000D03*
%TD*%
%TO.P,SW_10_1,1*%
%TO.N,Net-(D1-Pad1)*%
X19490000Y-101060000D03*
%TO.P,SW_10_1,2*%
%TO.N,Net-(D7-Pad2)*%
X25940000Y-98520000D03*
%TD*%
%TO.P,SW_12_2,1*%
%TO.N,Net-(D1-Pad1)*%
X44690000Y-51860000D03*
%TO.P,SW_12_2,2*%
%TO.N,Net-(D10-Pad2)*%
X51140000Y-49320000D03*
%TD*%
%TO.P,SW_13_1,1*%
%TO.N,Net-(D1-Pad1)*%
X43910000Y-73340000D03*
%TO.P,SW_13_1,2*%
%TO.N,Net-(D11-Pad2)*%
X37460000Y-75880000D03*
%TD*%
%TO.P,SW_13_2,1*%
%TO.N,Net-(D1-Pad1)*%
X52310000Y-73340000D03*
%TO.P,SW_13_2,2*%
%TO.N,Net-(D11-Pad2)*%
X45860000Y-75880000D03*
%TD*%
%TO.P,SW_17_1,1*%
%TO.N,Net-(D1-Pad1)*%
X19490000Y-51860000D03*
%TO.P,SW_17_1,2*%
%TO.N,Net-(D4-Pad2)*%
X25940000Y-49320000D03*
%TD*%
%TO.P,SW_18_1,1*%
%TO.N,Net-(D1-Pad1)*%
X19490000Y-68260000D03*
%TO.P,SW_18_1,2*%
%TO.N,Net-(D5-Pad2)*%
X25940000Y-65720000D03*
%TD*%
%TO.P,SW_19_1,1*%
%TO.N,Net-(D1-Pad1)*%
X19490000Y-84660000D03*
%TO.P,SW_19_1,2*%
%TO.N,Net-(D6-Pad2)*%
X25940000Y-82120000D03*
%TD*%
%TO.P,SW_20_1,1*%
%TO.N,RE1_1*%
X53090000Y-101060000D03*
%TO.P,SW_20_1,2*%
%TO.N,Net-(D19-Pad2)*%
X59540000Y-98520000D03*
%TD*%
%TO.P,SW_23_1,1*%
%TO.N,RE1_1*%
X69890000Y-68260000D03*
%TO.P,SW_23_1,2*%
%TO.N,Net-(D22-Pad2)*%
X76340000Y-65720000D03*
%TD*%
%TO.P,SW_24_1,1*%
%TO.N,RE1_1*%
X69890000Y-84660000D03*
%TO.P,SW_24_1,2*%
%TO.N,Net-(D23-Pad2)*%
X76340000Y-82120000D03*
%TD*%
%TO.P,SW_25_1,1*%
%TO.N,RE1_1*%
X69890000Y-101060000D03*
%TO.P,SW_25_1,2*%
%TO.N,Net-(D24-Pad2)*%
X76340000Y-98520000D03*
%TD*%
%TO.P,SW_27_1,1*%
%TO.N,RE1_1*%
X53090000Y-51860000D03*
%TO.P,SW_27_1,2*%
%TO.N,Net-(D16-Pad2)*%
X59540000Y-49320000D03*
%TD*%
%TO.P,SW_27_2,1*%
%TO.N,RE1_1*%
X61490000Y-51860000D03*
%TO.P,SW_27_2,2*%
%TO.N,Net-(D16-Pad2)*%
X67940000Y-49320000D03*
%TD*%
%TO.P,SW_28_1,1*%
%TO.N,RE1_1*%
X53090000Y-68260000D03*
%TO.P,SW_28_1,2*%
%TO.N,Net-(D17-Pad2)*%
X59540000Y-65720000D03*
%TD*%
%TO.P,SW_28_2,1*%
%TO.N,RE1_1*%
X61490000Y-68260000D03*
%TO.P,SW_28_2,2*%
%TO.N,Net-(D17-Pad2)*%
X67940000Y-65720000D03*
%TD*%
%TO.P,SW_32_1,1*%
%TO.N,Net-(D25-Pad1)*%
X69890000Y-51860000D03*
%TO.P,SW_32_1,2*%
%TO.N,Net-(D21-Pad2)*%
X76340000Y-49320000D03*
%TD*%
%TO.P,SW_35_1,1*%
%TO.N,Net-(D25-Pad1)*%
X103490000Y-101060000D03*
%TO.P,SW_35_1,2*%
%TO.N,Net-(D35-Pad2)*%
X109940000Y-98520000D03*
%TD*%
D12*
%TO.P,SW_37_1,1*%
%TO.N,Net-(D25-Pad1)*%
X96360000Y-58210000D03*
%TO.P,SW_37_1,2*%
%TO.N,Net-(D27-Pad2)*%
X93820000Y-51760000D03*
%TD*%
D11*
%TO.P,SW_38_1,1*%
%TO.N,Net-(D25-Pad1)*%
X95090000Y-68260000D03*
%TO.P,SW_38_1,2*%
%TO.N,Net-(D28-Pad2)*%
X101540000Y-65720000D03*
%TD*%
%TO.P,SW_39_1,1*%
%TO.N,Net-(D25-Pad1)*%
X86690000Y-84660000D03*
%TO.P,SW_39_1,2*%
%TO.N,Net-(D29-Pad2)*%
X93140000Y-82120000D03*
%TD*%
%TO.P,SW_40_1,1*%
%TO.N,Net-(D36-Pad1)*%
X120290000Y-101060000D03*
%TO.P,SW_40_1,2*%
%TO.N,Net-(D41-Pad2)*%
X126740000Y-98520000D03*
%TD*%
%TO.P,SW_45_1,1*%
%TO.N,Net-(D36-Pad1)*%
X137090000Y-101060000D03*
%TO.P,SW_45_1,2*%
%TO.N,Net-(D46-Pad2)*%
X143540000Y-98520000D03*
%TD*%
%TO.P,SW_60_1,1*%
%TO.N,RE2_1*%
X187490000Y-101060000D03*
%TO.P,SW_60_1,2*%
%TO.N,Net-(D64-Pad2)*%
X193940000Y-98520000D03*
%TD*%
%TO.P,SW_70_1,1*%
%TO.N,RE3_1*%
X221090000Y-101060000D03*
%TO.P,SW_70_1,2*%
%TO.N,Net-(D76-Pad2)*%
X227540000Y-98520000D03*
%TD*%
%TO.P,SW_75_1,1*%
%TO.N,RE3_1*%
X211910000Y-106140000D03*
%TO.P,SW_75_1,2*%
%TO.N,Net-(D70-Pad2)*%
X205460000Y-108680000D03*
%TD*%
%TO.P,SW_7_1,1*%
%TO.N,Net-(D94-Pad1)*%
X288290000Y-51860000D03*
%TO.P,SW_7_1,2*%
%TO.N,Net-(D96-Pad2)*%
X294740000Y-49320000D03*
%TD*%
%TO.P,SW_80_1,1*%
%TO.N,RE4_1*%
X254690000Y-101060000D03*
%TO.P,SW_80_1,2*%
%TO.N,Net-(D88-Pad2)*%
X261140000Y-98520000D03*
%TD*%
%TO.P,SW_85_1,1*%
%TO.N,RE4_1*%
X237890000Y-101060000D03*
%TO.P,SW_85_1,2*%
%TO.N,Net-(D82-Pad2)*%
X244340000Y-98520000D03*
%TD*%
%TO.P,SW_8_1,1*%
%TO.N,Net-(D94-Pad1)*%
X288290000Y-68260000D03*
%TO.P,SW_8_1,2*%
%TO.N,Net-(D97-Pad2)*%
X294740000Y-65720000D03*
%TD*%
%TO.P,SW_97_1,1*%
%TO.N,RE5_1*%
X263090000Y-51860000D03*
%TO.P,SW_97_1,2*%
%TO.N,Net-(D85-Pad2)*%
X269540000Y-49320000D03*
%TD*%
%TO.P,SW_98_1,1*%
%TO.N,RE5_1*%
X263090000Y-68260000D03*
%TO.P,SW_98_1,2*%
%TO.N,Net-(D86-Pad2)*%
X269540000Y-65720000D03*
%TD*%
D18*
%TO.P,J1,P4*%
%TO.N,GND*%
X29075000Y-17965000D03*
%TO.P,J1,P3*%
X37725000Y-17965000D03*
%TO.P,J1,P2*%
X37725000Y-21345000D03*
%TO.P,J1,P1*%
X29075000Y-21345000D03*
D19*
%TO.P,J1,B12*%
X30425000Y-20975000D03*
%TO.P,J1,B9*%
%TO.N,VCC*%
X31275000Y-20975000D03*
%TO.P,J1,B8*%
%TO.N,N/C*%
X32125000Y-20975000D03*
%TO.P,J1,B7*%
%TO.N,Net-(D102-Pad3)*%
X32975000Y-20975000D03*
%TO.P,J1,B6*%
%TO.N,Net-(D102-Pad2)*%
X33825000Y-20975000D03*
%TO.P,J1,B5*%
%TO.N,Net-(J1-PadB5)*%
X34675000Y-20975000D03*
%TO.P,J1,B4*%
%TO.N,VCC*%
X35525000Y-20975000D03*
%TO.P,J1,B1*%
%TO.N,GND*%
X36375000Y-20975000D03*
%TO.P,J1,A12*%
X36375000Y-22325000D03*
%TO.P,J1,A9*%
%TO.N,VCC*%
X35525000Y-22325000D03*
%TO.P,J1,A8*%
%TO.N,N/C*%
X34675000Y-22325000D03*
%TO.P,J1,A7*%
%TO.N,Net-(D102-Pad3)*%
X33825000Y-22325000D03*
%TO.P,J1,A6*%
%TO.N,Net-(D102-Pad2)*%
X32975000Y-22325000D03*
%TO.P,J1,A5*%
%TO.N,Net-(J1-PadA5)*%
X32125000Y-22325000D03*
%TO.P,J1,A4*%
%TO.N,VCC*%
X31275000Y-22325000D03*
%TO.P,J1,A1*%
%TO.N,GND*%
X30425000Y-22325000D03*
%TD*%
D11*
%TO.P,SW_23_2,1*%
%TO.N,RE1_1*%
X78290000Y-68260000D03*
%TO.P,SW_23_2,2*%
%TO.N,Net-(D22-Pad2)*%
X84740000Y-65720000D03*
%TD*%
%TO.P,SW_32_2,1*%
%TO.N,Net-(D25-Pad1)*%
X78290000Y-51860000D03*
%TO.P,SW_32_2,2*%
%TO.N,Net-(D21-Pad2)*%
X84740000Y-49320000D03*
%TD*%
%TO.P,SW_20_2,2*%
%TO.N,Net-(D19-Pad2)*%
X63740000Y-98520000D03*
%TO.P,SW_20_2,1*%
%TO.N,RE1_1*%
X57290000Y-101060000D03*
%TD*%
%TO.P,SW_25_3,2*%
%TO.N,Net-(D24-Pad2)*%
X80540000Y-98520000D03*
%TO.P,SW_25_3,1*%
%TO.N,RE1_1*%
X74090000Y-101060000D03*
%TD*%
%TO.P,SW_36_2,2*%
%TO.N,Net-(D26-Pad2)*%
X93140000Y-26420000D03*
%TO.P,SW_36_2,1*%
%TO.N,Net-(D25-Pad1)*%
X86690000Y-28960000D03*
%TD*%
%TO.P,SW_30_2,1*%
%TO.N,Net-(D25-Pad1)*%
X82490000Y-101060000D03*
%TO.P,SW_30_2,2*%
%TO.N,Net-(D30-Pad2)*%
X88940000Y-98520000D03*
%TD*%
%TO.P,SW_35_2,1*%
%TO.N,Net-(D25-Pad1)*%
X111890000Y-101060000D03*
%TO.P,SW_35_2,2*%
%TO.N,Net-(D35-Pad2)*%
X118340000Y-98520000D03*
%TD*%
%TO.P,SW_35_3,1*%
%TO.N,Net-(D25-Pad1)*%
X107690000Y-101060000D03*
%TO.P,SW_35_3,2*%
%TO.N,Net-(D35-Pad2)*%
X114140000Y-98520000D03*
%TD*%
%TO.P,SW_41_2,1*%
%TO.N,Net-(D36-Pad1)*%
X103490000Y-28960000D03*
%TO.P,SW_41_2,2*%
%TO.N,Net-(D31-Pad2)*%
X109940000Y-26420000D03*
%TD*%
%TO.P,SW_45_2,1*%
%TO.N,Net-(D36-Pad1)*%
X145490000Y-101060000D03*
%TO.P,SW_45_2,2*%
%TO.N,Net-(D46-Pad2)*%
X151940000Y-98520000D03*
%TD*%
%TO.P,SW_45_3,2*%
%TO.N,Net-(D46-Pad2)*%
X147740000Y-98520000D03*
%TO.P,SW_45_3,1*%
%TO.N,Net-(D36-Pad1)*%
X141290000Y-101060000D03*
%TD*%
%TO.P,SW_45_4,2*%
%TO.N,Net-(D46-Pad2)*%
X139340000Y-98520000D03*
%TO.P,SW_45_4,1*%
%TO.N,Net-(D36-Pad1)*%
X132890000Y-101060000D03*
%TD*%
%TO.P,SW_46_2,2*%
%TO.N,Net-(D37-Pad2)*%
X126740000Y-26420000D03*
%TO.P,SW_46_2,1*%
%TO.N,Net-(D36-Pad1)*%
X120290000Y-28960000D03*
%TD*%
%TO.P,SW_51_2,1*%
%TO.N,Net-(D47-Pad1)*%
X137090000Y-28960000D03*
%TO.P,SW_51_2,2*%
%TO.N,Net-(D42-Pad2)*%
X143540000Y-26420000D03*
%TD*%
%TO.P,SW_60_2,2*%
%TO.N,Net-(D64-Pad2)*%
X193940000Y-90320000D03*
%TO.P,SW_60_2,1*%
%TO.N,RE2_1*%
X187490000Y-92860000D03*
%TD*%
%TO.P,SW_65_2,1*%
%TO.N,RE2_1*%
X174890000Y-101060000D03*
%TO.P,SW_65_2,2*%
%TO.N,Net-(D58-Pad2)*%
X181340000Y-98520000D03*
%TD*%
%TO.P,SW_65_3,1*%
%TO.N,RE2_1*%
X166490000Y-101060000D03*
%TO.P,SW_65_3,2*%
%TO.N,Net-(D58-Pad2)*%
X172940000Y-98520000D03*
%TD*%
%TO.P,SW_72_2,2*%
%TO.N,Net-(D67-Pad2)*%
X223340000Y-49320000D03*
%TO.P,SW_72_2,1*%
%TO.N,RE3_1*%
X216890000Y-51860000D03*
%TD*%
%TO.P,SW_73_2,1*%
%TO.N,RE3_1*%
X216890000Y-68260000D03*
%TO.P,SW_73_2,2*%
%TO.N,Net-(D68-Pad2)*%
X223340000Y-65720000D03*
%TD*%
%TO.P,SW_75_2,2*%
%TO.N,Net-(D70-Pad2)*%
X201260000Y-108680000D03*
%TO.P,SW_75_2,1*%
%TO.N,RE3_1*%
X207710000Y-106140000D03*
%TD*%
%TO.P,SW_75_3,2*%
%TO.N,Net-(D70-Pad2)*%
X213860000Y-108680000D03*
%TO.P,SW_75_3,1*%
%TO.N,RE3_1*%
X220310000Y-106140000D03*
%TD*%
%TO.P,SW_78_2,1*%
%TO.N,RE3_1*%
X237890000Y-68260000D03*
%TO.P,SW_78_2,2*%
%TO.N,Net-(D74-Pad2)*%
X244340000Y-65720000D03*
%TD*%
%TO.P,SW_82_2,1*%
%TO.N,RE4_1*%
X254690000Y-51860000D03*
%TO.P,SW_82_2,2*%
%TO.N,Net-(D79-Pad2)*%
X261140000Y-49320000D03*
%TD*%
%TO.P,SW_83_2,2*%
%TO.N,Net-(D80-Pad2)*%
X261140000Y-65720000D03*
%TO.P,SW_83_2,1*%
%TO.N,RE4_1*%
X254690000Y-68260000D03*
%TD*%
%TO.P,SW_85_2,2*%
%TO.N,Net-(D82-Pad2)*%
X252740000Y-98520000D03*
%TO.P,SW_85_2,1*%
%TO.N,RE4_1*%
X246290000Y-101060000D03*
%TD*%
%TO.P,SW_85_3,1*%
%TO.N,RE4_1*%
X233690000Y-101060000D03*
%TO.P,SW_85_3,2*%
%TO.N,Net-(D82-Pad2)*%
X240140000Y-98520000D03*
%TD*%
%TO.P,SW_87_2,2*%
%TO.N,Net-(D73-Pad2)*%
X244340000Y-49320000D03*
%TO.P,SW_87_2,1*%
%TO.N,RE4_1*%
X237890000Y-51860000D03*
%TD*%
%TO.P,SW_90_2,1*%
%TO.N,RE5_1*%
X288290000Y-92860000D03*
%TO.P,SW_90_2,2*%
%TO.N,Net-(D99-Pad2)*%
X294740000Y-90320000D03*
%TD*%
%TO.P,SW_97_2,2*%
%TO.N,Net-(D85-Pad2)*%
X277940000Y-49320000D03*
%TO.P,SW_97_2,1*%
%TO.N,RE5_1*%
X271490000Y-51860000D03*
%TD*%
%TO.P,SW_98_2,1*%
%TO.N,RE5_1*%
X271490000Y-68260000D03*
%TO.P,SW_98_2,2*%
%TO.N,Net-(D86-Pad2)*%
X277940000Y-65720000D03*
%TD*%
D20*
%TO.P,SW_RE1,A*%
%TO.N,RE1_A*%
X49400000Y-29000000D03*
D21*
%TO.P,SW_RE1,C*%
%TO.N,GND*%
X49400000Y-31500000D03*
%TO.P,SW_RE1,B*%
%TO.N,RE1_B*%
X49400000Y-34000000D03*
D22*
%TO.P,SW_RE1,MP*%
%TO.N,N/C*%
X56900000Y-25900000D03*
X56900000Y-37100000D03*
D21*
%TO.P,SW_RE1,S2*%
%TO.N,RE1_2*%
X63900000Y-29000000D03*
%TO.P,SW_RE1,S1*%
%TO.N,RE1_1*%
X63900000Y-34000000D03*
%TD*%
%TO.P,SW_RE2,S1*%
%TO.N,RE2_1*%
X181500000Y-34000000D03*
%TO.P,SW_RE2,S2*%
%TO.N,RE2_2*%
X181500000Y-29000000D03*
D22*
%TO.P,SW_RE2,MP*%
%TO.N,N/C*%
X174500000Y-37100000D03*
X174500000Y-25900000D03*
D21*
%TO.P,SW_RE2,B*%
%TO.N,RE2_B*%
X167000000Y-34000000D03*
%TO.P,SW_RE2,C*%
%TO.N,GND*%
X167000000Y-31500000D03*
D20*
%TO.P,SW_RE2,A*%
%TO.N,RE2_A*%
X167000000Y-29000000D03*
%TD*%
D21*
%TO.P,SW_RE3,S1*%
%TO.N,RE3_1*%
X215100000Y-34000000D03*
%TO.P,SW_RE3,S2*%
%TO.N,RE3_2*%
X215100000Y-29000000D03*
D22*
%TO.P,SW_RE3,MP*%
%TO.N,N/C*%
X208100000Y-37100000D03*
X208100000Y-25900000D03*
D21*
%TO.P,SW_RE3,B*%
%TO.N,RE3_B*%
X200600000Y-34000000D03*
%TO.P,SW_RE3,C*%
%TO.N,GND*%
X200600000Y-31500000D03*
D20*
%TO.P,SW_RE3,A*%
%TO.N,RE3_A*%
X200600000Y-29000000D03*
%TD*%
%TO.P,SW_RE4,A*%
%TO.N,RE4_A*%
X234200000Y-29000000D03*
D21*
%TO.P,SW_RE4,C*%
%TO.N,GND*%
X234200000Y-31500000D03*
%TO.P,SW_RE4,B*%
%TO.N,RE4_B*%
X234200000Y-34000000D03*
D22*
%TO.P,SW_RE4,MP*%
%TO.N,N/C*%
X241700000Y-25900000D03*
X241700000Y-37100000D03*
D21*
%TO.P,SW_RE4,S2*%
%TO.N,RE4_2*%
X248700000Y-29000000D03*
%TO.P,SW_RE4,S1*%
%TO.N,RE4_1*%
X248700000Y-34000000D03*
%TD*%
%TO.P,SW_RE5,S1*%
%TO.N,RE5_1*%
X282300000Y-34000000D03*
%TO.P,SW_RE5,S2*%
%TO.N,RE5_2*%
X282300000Y-29000000D03*
D22*
%TO.P,SW_RE5,MP*%
%TO.N,N/C*%
X275300000Y-37100000D03*
X275300000Y-25900000D03*
D21*
%TO.P,SW_RE5,B*%
%TO.N,RE5_B*%
X267800000Y-34000000D03*
%TO.P,SW_RE5,C*%
%TO.N,GND*%
X267800000Y-31500000D03*
D20*
%TO.P,SW_RE5,A*%
%TO.N,RE5_A*%
X267800000Y-29000000D03*
%TD*%
D23*
%TO.N,GND*%
X286600000Y-73600000D03*
X167050000Y-20700000D03*
X200450000Y-20700000D03*
X233950000Y-20700000D03*
X49000000Y-20700000D03*
X21000000Y-18300000D03*
X98100000Y-41200000D03*
X97000000Y-19800000D03*
X31599983Y-27699991D03*
X46299996Y-18000000D03*
X267500000Y-20700000D03*
X272899984Y-30300000D03*
%TO.N,+5V*%
X100800000Y-21500000D03*
X96800000Y-48300000D03*
X121900000Y-50650000D03*
X106600000Y-58000000D03*
X108000000Y-59400000D03*
X122600000Y-76500000D03*
X96800002Y-46950000D03*
X99400000Y-46950000D03*
X77800000Y-62300000D03*
X75700000Y-60200000D03*
X108699999Y-44800001D03*
X102713272Y-41386728D03*
X99600000Y-24100000D03*
X119700038Y-63700000D03*
X112660953Y-50889406D03*
X120079064Y-52579064D03*
X112300010Y-63700002D03*
%TO.N,Net-(D1-Pad1)*%
X18900000Y-30200000D03*
X44067010Y-84632990D03*
%TO.N,pin1*%
X105700000Y-26600000D03*
X105264166Y-40265863D03*
%TO.N,Net-(D2-Pad1)*%
X20900000Y-25400012D03*
%TO.N,pin6*%
X104818987Y-27881013D03*
X104671438Y-39728562D03*
%TO.N,pin7*%
X102900000Y-51700000D03*
X93689031Y-48440457D03*
X85772999Y-50327001D03*
X130500000Y-49400000D03*
X130000000Y-61300000D03*
X86850000Y-63550000D03*
%TO.N,pin8*%
X98627001Y-66727001D03*
X101800006Y-60450000D03*
%TO.N,pin9*%
X105150000Y-83200000D03*
X103100000Y-59500000D03*
%TO.N,pin10*%
X120000000Y-98600000D03*
X109700004Y-58300000D03*
%TO.N,pin2*%
X83300000Y-47600000D03*
X126200000Y-50327001D03*
X120500000Y-61300000D03*
X84700004Y-63300000D03*
%TO.N,Net-(D11-Pad2)*%
X36800000Y-65800000D03*
%TO.N,pin3*%
X101149994Y-59750000D03*
X99200000Y-64700000D03*
%TO.N,pin4*%
X100242990Y-81192990D03*
X102427010Y-58977010D03*
%TO.N,pin5*%
X108907010Y-97592990D03*
X103800000Y-58950000D03*
%TO.N,Net-(D25-Pad1)*%
X87167001Y-51867001D03*
X92160000Y-63990000D03*
%TO.N,Net-(D27-Pad2)*%
X89950000Y-49400000D03*
%TO.N,Net-(D32-Pad2)*%
X125899997Y-49399997D03*
%TO.N,Net-(D36-Pad1)*%
X121100000Y-79400000D03*
%TO.N,Net-(D47-Pad1)*%
X155600000Y-96000000D03*
%TO.N,Net-(D70-Pad2)*%
X200000000Y-98600000D03*
%TO.N,RE1_1*%
X83700000Y-68600006D03*
X82300000Y-51200000D03*
X61000000Y-46599996D03*
X38050000Y-51000000D03*
%TO.N,VCC*%
X40300000Y-19400000D03*
X34999998Y-29050000D03*
%TO.N,AUDIO1*%
X77307304Y-63142696D03*
X25350000Y-25400000D03*
X73807324Y-59509490D03*
X38399999Y-59500001D03*
%TO.N,LED*%
X66100000Y-18900000D03*
X66600000Y-20500000D03*
X101600000Y-19100000D03*
X107818979Y-41977919D03*
%TO.N,Net-(JP_LED2-Pad1)*%
X81499992Y-21800000D03*
X81213505Y-18472990D03*
%TO.N,Net-(JP_LED2-Pad3)*%
X286600000Y-76100000D03*
X267961735Y-26538265D03*
%TO.N,Net-(L4-Pad2)*%
X51500000Y-25600000D03*
X164000000Y-19000000D03*
%TO.N,Net-(R4-Pad2)*%
X100250000Y-59750000D03*
X107750000Y-44650000D03*
%TO.N,D-*%
X41049998Y-27000000D03*
X58200000Y-44800002D03*
%TO.N,D+*%
X40549994Y-28774254D03*
X56099996Y-44150000D03*
%TO.N,RE1_A*%
X102664398Y-40451126D03*
X100300000Y-25500000D03*
%TO.N,RE1_B*%
X102500000Y-39400000D03*
X100972990Y-26700000D03*
%TO.N,RE3_B*%
X197200000Y-58200000D03*
X117400000Y-58800000D03*
X112012007Y-51357260D03*
%TO.N,RE3_A*%
X117600000Y-57900000D03*
X196600000Y-57500000D03*
X113106636Y-49409490D03*
%TO.N,RE4_B*%
X209500000Y-59300000D03*
X210400000Y-41700000D03*
X233200001Y-39600001D03*
%TO.N,RE4_A*%
X208700000Y-58600000D03*
X232235565Y-39554415D03*
X209350000Y-41650000D03*
%TO.N,RE5_A*%
X223100000Y-60000000D03*
X228200000Y-41600000D03*
X265192919Y-40520353D03*
%TO.N,RE5_B*%
X223799998Y-60700000D03*
X229200000Y-41600000D03*
X266050000Y-40550000D03*
%TO.N,RE2_1*%
X185300000Y-30200000D03*
%TO.N,RE3_1*%
X215100000Y-46700000D03*
%TO.N,RE4_1*%
X260900000Y-63000000D03*
X233100000Y-67600000D03*
%TO.N,RE5_1*%
X282900000Y-85000000D03*
X277025942Y-51874058D03*
X278632999Y-68267001D03*
%TO.N,Net-(D94-Pad1)*%
X281547001Y-68252999D03*
X289550000Y-93950000D03*
%TO.N,SCL*%
X110149174Y-46635901D03*
%TO.N,SDA*%
X111800000Y-47400000D03*
%TO.N,RE2_A*%
X112300000Y-48100000D03*
X118600000Y-52700000D03*
X162600000Y-56800000D03*
%TO.N,RE2_B*%
X118100000Y-53370838D03*
X112490545Y-48899146D03*
X163500000Y-56800000D03*
%TD*%
D24*
%TO.N,GND*%
X30425000Y-20975000D02*
X30425000Y-22325000D01*
X36375000Y-20975000D02*
X36375000Y-22325000D01*
X168390501Y-30312401D02*
X167202902Y-31500000D01*
X168390501Y-22040501D02*
X168390501Y-30312401D01*
X167202902Y-31500000D02*
X167000000Y-31500000D01*
X167050000Y-20700000D02*
X168390501Y-22040501D01*
X201990501Y-30312401D02*
X200802902Y-31500000D01*
X200802902Y-31500000D02*
X200600000Y-31500000D01*
X201990501Y-22240501D02*
X201990501Y-30312401D01*
X200450000Y-20700000D02*
X201990501Y-22240501D01*
X235590501Y-30312401D02*
X234402902Y-31500000D01*
X234402902Y-31500000D02*
X234200000Y-31500000D01*
X235590501Y-22340501D02*
X235590501Y-30312401D01*
X233950000Y-20700000D02*
X235590501Y-22340501D01*
X49602902Y-31500000D02*
X49400000Y-31500000D01*
X50790501Y-30312401D02*
X49602902Y-31500000D01*
X50790501Y-22490501D02*
X50790501Y-30312401D01*
X49000000Y-20700000D02*
X50790501Y-22490501D01*
X21000000Y-18300000D02*
X21000000Y-18600000D01*
X21250000Y-18850000D02*
X23350000Y-18850000D01*
X21000000Y-18600000D02*
X21250000Y-18850000D01*
X97000000Y-40100000D02*
X97000000Y-19800000D01*
X98100000Y-41200000D02*
X97000000Y-40100000D01*
X30425000Y-26525008D02*
X31599983Y-27699991D01*
X30425000Y-22325000D02*
X30425000Y-26525008D01*
X49000000Y-20700000D02*
X46300001Y-18000000D01*
X46300001Y-18000000D02*
X46299996Y-18000000D01*
X285519499Y-67246639D02*
X285519499Y-52873361D01*
X272899984Y-31231926D02*
X272899984Y-30300000D01*
X275578568Y-33910510D02*
X272899984Y-31231926D01*
X285519499Y-72519499D02*
X285519499Y-69273361D01*
X285519499Y-69273361D02*
X285934521Y-68858340D01*
X286600000Y-73600000D02*
X285519499Y-72519499D01*
X285934521Y-68858340D02*
X285934521Y-67661660D01*
X285934521Y-52458340D02*
X285934521Y-41094749D01*
X285934521Y-41094749D02*
X278750282Y-33910510D01*
X285934521Y-67661660D02*
X285519499Y-67246639D01*
X285519499Y-52873361D02*
X285934521Y-52458340D01*
X278750282Y-33910510D02*
X275578568Y-33910510D01*
X272700000Y-30300000D02*
X272899984Y-30300000D01*
X267600000Y-20800000D02*
X267600000Y-25200000D01*
X267600000Y-25200000D02*
X272700000Y-30300000D01*
X267500000Y-20700000D02*
X267600000Y-20800000D01*
%TO.N,+5V*%
X106600000Y-58000000D02*
X108000000Y-59400000D01*
X96800000Y-48300000D02*
X96800000Y-46950002D01*
X96800000Y-46950002D02*
X96800002Y-46950000D01*
X77800000Y-62300000D02*
X75700000Y-60200000D01*
X99400000Y-46950000D02*
X102713272Y-43636728D01*
X102713272Y-43636728D02*
X102713272Y-41386728D01*
X100800000Y-21500000D02*
X99600000Y-22700000D01*
X99600000Y-22700000D02*
X99600000Y-24100000D01*
X99600000Y-38697720D02*
X99600000Y-24100000D01*
X102289008Y-41386728D02*
X99600000Y-38697720D01*
X102713272Y-41386728D02*
X102289008Y-41386728D01*
X103386728Y-41386728D02*
X102713272Y-41386728D01*
X105900000Y-43900000D02*
X103386728Y-41386728D01*
X108224262Y-43900000D02*
X105900000Y-43900000D01*
X108699999Y-44375737D02*
X108224262Y-43900000D01*
X108699999Y-44800001D02*
X108699999Y-44375737D01*
X108699999Y-44800001D02*
X108699999Y-46928452D01*
X108699999Y-46928452D02*
X112660953Y-50889406D01*
X119700038Y-52958090D02*
X120079064Y-52579064D01*
X119700038Y-63700000D02*
X119700038Y-52958090D01*
X120079064Y-52470936D02*
X120079064Y-52579064D01*
X121900000Y-50650000D02*
X120079064Y-52470936D01*
X108000000Y-59400000D02*
X112300002Y-63700002D01*
X112300002Y-63700002D02*
X112300010Y-63700002D01*
X119800000Y-68000000D02*
X119800000Y-63799962D01*
X122100000Y-76000000D02*
X122100000Y-70300000D01*
X119800000Y-63799962D02*
X119700038Y-63700000D01*
X122100000Y-70300000D02*
X119800000Y-68000000D01*
X122600000Y-76500000D02*
X122100000Y-76000000D01*
D25*
%TO.N,Net-(D1-Pad1)*%
X19967001Y-67782999D02*
X19967001Y-52337001D01*
X19967001Y-52337001D02*
X19490000Y-51860000D01*
X19490000Y-68260000D02*
X19967001Y-67782999D01*
X19967001Y-35937001D02*
X19490000Y-35460000D01*
X19967001Y-51382999D02*
X19967001Y-35937001D01*
X19490000Y-51860000D02*
X19967001Y-51382999D01*
X18900000Y-34800000D02*
X18900000Y-30200000D01*
X19490000Y-35390000D02*
X18900000Y-34800000D01*
X19490000Y-35460000D02*
X19490000Y-35390000D01*
X42500000Y-94850000D02*
X36290000Y-101060000D01*
X42500000Y-87572838D02*
X42500000Y-94850000D01*
X44067010Y-86005828D02*
X42500000Y-87572838D01*
X44067010Y-73497010D02*
X44067010Y-86005828D01*
X43910000Y-73340000D02*
X44067010Y-73497010D01*
%TO.N,pin1*%
X105321382Y-40208647D02*
X105264166Y-40265863D01*
X105321382Y-39478618D02*
X105321382Y-40208647D01*
X104944325Y-39101561D02*
X105321382Y-39478618D01*
X105271020Y-36032038D02*
X104944325Y-36358733D01*
X105700000Y-29670838D02*
X104982999Y-30387839D01*
X104982999Y-30387839D02*
X104982999Y-32612161D01*
X104982999Y-32612161D02*
X105271019Y-32900183D01*
X105271019Y-32900183D02*
X105271020Y-36032038D01*
X104944325Y-36358733D02*
X104944325Y-39101561D01*
X105700000Y-26600000D02*
X105700000Y-29670838D01*
%TO.N,Net-(D2-Pad1)*%
X20900000Y-27000000D02*
X20900000Y-25400012D01*
X21450000Y-27550000D02*
X20900000Y-27000000D01*
X23350000Y-27550000D02*
X21450000Y-27550000D01*
%TO.N,pin6*%
X104454011Y-36206979D02*
X104454011Y-39511135D01*
X104817010Y-35843980D02*
X104454011Y-36206979D01*
X104818987Y-29909783D02*
X104528989Y-30199781D01*
X104528989Y-30199781D02*
X104528988Y-32800218D01*
X104528988Y-32800218D02*
X104817009Y-33088239D01*
X104454011Y-39511135D02*
X104671438Y-39728562D01*
X104818987Y-27881013D02*
X104818987Y-29909783D01*
X104817009Y-33088239D02*
X104817010Y-35843980D01*
%TO.N,pin7*%
X97822036Y-46300000D02*
X95829488Y-46300000D01*
X102900000Y-51700000D02*
X102900000Y-51377964D01*
X95829488Y-46300000D02*
X93689031Y-48440457D01*
X102900000Y-51377964D02*
X97822036Y-46300000D01*
X130000000Y-52260990D02*
X130000000Y-61300000D01*
X130017010Y-52243980D02*
X130000000Y-52260990D01*
X130000000Y-49900000D02*
X130000000Y-51459010D01*
X130017010Y-51476020D02*
X130017010Y-52243980D01*
X130000000Y-51459010D02*
X130017010Y-51476020D01*
X130500000Y-49400000D02*
X130000000Y-49900000D01*
X85432999Y-62132999D02*
X86850000Y-63550000D01*
X85432999Y-50667001D02*
X85432999Y-62132999D01*
X85772999Y-50327001D02*
X85432999Y-50667001D01*
%TO.N,pin8*%
X101800006Y-63553996D02*
X101800006Y-60450000D01*
X98627001Y-66727001D02*
X101800006Y-63553996D01*
%TO.N,pin9*%
X105150000Y-83200000D02*
X105150000Y-70242068D01*
X103345990Y-68438058D02*
X103345990Y-59745990D01*
X105150000Y-70242068D02*
X103345990Y-68438058D01*
X103345990Y-59745990D02*
X103100000Y-59500000D01*
%TO.N,pin10*%
X109700000Y-58300004D02*
X109700004Y-58300000D01*
X109700000Y-60200000D02*
X109700000Y-58300004D01*
X113227005Y-63727005D02*
X109700000Y-60200000D01*
X113227005Y-83327005D02*
X113227005Y-63727005D01*
X120000000Y-90100000D02*
X113227005Y-83327005D01*
X120000000Y-98600000D02*
X120000000Y-90100000D01*
%TO.N,pin2*%
X84978988Y-63021016D02*
X84700004Y-63300000D01*
X83300000Y-51500000D02*
X84978988Y-53178988D01*
X84978988Y-53178988D02*
X84978988Y-63021016D01*
X83300000Y-47600000D02*
X83300000Y-51500000D01*
X120500000Y-59100000D02*
X120500000Y-61300000D01*
X121800000Y-57800000D02*
X120500000Y-59100000D01*
X121800000Y-56700000D02*
X121800000Y-57800000D01*
X126200000Y-52300000D02*
X121800000Y-56700000D01*
X126200000Y-50327001D02*
X126200000Y-52300000D01*
%TO.N,Net-(D11-Pad2)*%
X36800000Y-75220000D02*
X36800000Y-65800000D01*
X37460000Y-75880000D02*
X36800000Y-75220000D01*
%TO.N,pin3*%
X101149994Y-62750006D02*
X99200000Y-64700000D01*
X101149994Y-59750000D02*
X101149994Y-62750006D01*
%TO.N,pin4*%
X102200000Y-79235980D02*
X102200000Y-70272838D01*
X102200000Y-70272838D02*
X102867010Y-69605828D01*
X102867010Y-69605828D02*
X102867010Y-60194972D01*
X100242990Y-81192990D02*
X102200000Y-79235980D01*
X102867010Y-60194972D02*
X102427010Y-59754972D01*
X102427010Y-59754972D02*
X102427010Y-58977010D01*
%TO.N,pin5*%
X103800000Y-68250000D02*
X103800000Y-58950000D01*
X105650000Y-82120838D02*
X105650000Y-70100000D01*
X109617001Y-86087839D02*
X105650000Y-82120838D01*
X105650000Y-70100000D02*
X103800000Y-68250000D01*
X109617001Y-96882999D02*
X109617001Y-86087839D01*
X108907010Y-97592990D02*
X109617001Y-96882999D01*
%TO.N,Net-(D24-Pad2)*%
X76340000Y-90320000D02*
X76340000Y-98520000D01*
%TO.N,Net-(D25-Pad1)*%
X87167001Y-100582999D02*
X86690000Y-101060000D01*
X87167001Y-85137001D02*
X87167001Y-100582999D01*
X86690000Y-84660000D02*
X87167001Y-85137001D01*
X92160000Y-66990000D02*
X90890000Y-68260000D01*
X88452999Y-82897001D02*
X86690000Y-84660000D01*
X88452999Y-69443001D02*
X88452999Y-82897001D01*
X89636000Y-68260000D02*
X88452999Y-69443001D01*
X90890000Y-68260000D02*
X89636000Y-68260000D01*
X87167001Y-52659839D02*
X92160000Y-57652838D01*
X87167001Y-35937001D02*
X87167001Y-52659839D01*
X92160000Y-57652838D02*
X92160000Y-58210000D01*
X86690000Y-35460000D02*
X87167001Y-35937001D01*
X92160000Y-63990000D02*
X92160000Y-66990000D01*
X92160000Y-58210000D02*
X92160000Y-63990000D01*
X87167001Y-34982999D02*
X86690000Y-35460000D01*
X87167001Y-29437001D02*
X87167001Y-34982999D01*
X86690000Y-28960000D02*
X87167001Y-29437001D01*
%TO.N,Net-(D26-Pad2)*%
X93140000Y-32920000D02*
X93140000Y-26420000D01*
%TO.N,Net-(D27-Pad2)*%
X89620000Y-49730000D02*
X89950000Y-49400000D01*
X89620000Y-51760000D02*
X89620000Y-49730000D01*
%TO.N,Net-(D31-Pad2)*%
X109940000Y-26420000D02*
X109940000Y-32920000D01*
%TO.N,Net-(D32-Pad2)*%
X125500000Y-49799994D02*
X125899997Y-49399997D01*
X125500000Y-52300000D02*
X125500000Y-49799994D01*
X120780000Y-57020000D02*
X125500000Y-52300000D01*
X120780000Y-57040000D02*
X120780000Y-57020000D01*
%TO.N,Net-(D36-Pad1)*%
X103967001Y-29437001D02*
X103967001Y-34982999D01*
X103967001Y-34982999D02*
X103490000Y-35460000D01*
X103490000Y-28960000D02*
X103967001Y-29437001D01*
X120767001Y-34982999D02*
X120290000Y-35460000D01*
X120767001Y-29437001D02*
X120767001Y-34982999D01*
X120290000Y-28960000D02*
X120767001Y-29437001D01*
X120767001Y-100582999D02*
X120290000Y-101060000D01*
X120767001Y-85137001D02*
X120767001Y-100582999D01*
X120290000Y-84660000D02*
X120767001Y-85137001D01*
X129167001Y-67782999D02*
X128690000Y-68260000D01*
X129167001Y-52337001D02*
X129167001Y-67782999D01*
X128690000Y-51860000D02*
X129167001Y-52337001D01*
X129167001Y-68737001D02*
X128690000Y-68260000D01*
X129167001Y-71332999D02*
X129167001Y-68737001D01*
X121100000Y-79400000D02*
X129167001Y-71332999D01*
X121782999Y-36952999D02*
X121782999Y-39082999D01*
X120290000Y-35460000D02*
X121782999Y-36952999D01*
X128690000Y-45990000D02*
X128690000Y-51860000D01*
X121782999Y-39082999D02*
X128690000Y-45990000D01*
X121100000Y-83850000D02*
X121100000Y-79400000D01*
X120290000Y-84660000D02*
X121100000Y-83850000D01*
%TO.N,Net-(D37-Pad2)*%
X126740000Y-32289162D02*
X126740000Y-32920000D01*
X126740000Y-26420000D02*
X126740000Y-32289162D01*
%TO.N,Net-(D42-Pad2)*%
X143540000Y-26420000D02*
X143540000Y-32920000D01*
%TO.N,Net-(D47-Pad1)*%
X137567001Y-34982999D02*
X137090000Y-35460000D01*
X137567001Y-29437001D02*
X137567001Y-34982999D01*
X137090000Y-28960000D02*
X137567001Y-29437001D01*
X145967001Y-52337001D02*
X145967001Y-55067001D01*
X145490000Y-51860000D02*
X145967001Y-52337001D01*
X147227130Y-56327130D02*
X147227130Y-66522870D01*
X147227130Y-66522870D02*
X145490000Y-68260000D01*
X145967001Y-55067001D02*
X147227130Y-56327130D01*
X137600000Y-38100000D02*
X137600000Y-35970000D01*
X137600000Y-35970000D02*
X137090000Y-35460000D01*
X145490000Y-45990000D02*
X137600000Y-38100000D01*
X145490000Y-51860000D02*
X145490000Y-45990000D01*
X153890000Y-78690000D02*
X153890000Y-84660000D01*
X145967001Y-70767001D02*
X153890000Y-78690000D01*
X145967001Y-68737001D02*
X145967001Y-70767001D01*
X145490000Y-68260000D02*
X145967001Y-68737001D01*
X155600000Y-96000000D02*
X155300000Y-95700000D01*
X155600000Y-99350000D02*
X155600000Y-96000000D01*
X155300000Y-86070000D02*
X153890000Y-84660000D01*
X155300000Y-95700000D02*
X155300000Y-86070000D01*
X153890000Y-101060000D02*
X155600000Y-99350000D01*
%TO.N,Net-(D64-Pad2)*%
X193940000Y-90320000D02*
X193940000Y-98520000D01*
%TO.N,Net-(D70-Pad2)*%
X200567001Y-107987001D02*
X201260000Y-108680000D01*
X200567001Y-99167001D02*
X200567001Y-107987001D01*
X200000000Y-98600000D02*
X200567001Y-99167001D01*
%TO.N,RE1_1*%
X70367001Y-92382999D02*
X69890000Y-92860000D01*
X70367001Y-85137001D02*
X70367001Y-92382999D01*
X69890000Y-84660000D02*
X70367001Y-85137001D01*
X70367001Y-93337001D02*
X70367001Y-100582999D01*
X70367001Y-100582999D02*
X69890000Y-101060000D01*
X69890000Y-92860000D02*
X70367001Y-93337001D01*
X84500000Y-69400006D02*
X83700000Y-68600006D01*
X84500000Y-71829162D02*
X84500000Y-69400006D01*
X71669162Y-84660000D02*
X84500000Y-71829162D01*
X69890000Y-84660000D02*
X71669162Y-84660000D01*
X83700000Y-68600006D02*
X83400001Y-68300007D01*
X83400001Y-68300007D02*
X83400001Y-56529161D01*
X83400001Y-56529161D02*
X84417001Y-55512161D01*
X84417001Y-55512161D02*
X84417001Y-53317001D01*
X84417001Y-53317001D02*
X82300000Y-51200000D01*
X61000000Y-51370000D02*
X61000000Y-46599996D01*
X61490000Y-51860000D02*
X61000000Y-51370000D01*
X36767001Y-35937001D02*
X36290000Y-35460000D01*
X36767001Y-49717001D02*
X36767001Y-35937001D01*
X38050000Y-51000000D02*
X36767001Y-49717001D01*
%TO.N,Net-(D99-Pad2)*%
X294740000Y-98520000D02*
X294740000Y-90320000D01*
%TO.N,Net-(D102-Pad2)*%
X33825000Y-21360038D02*
X32975000Y-22210038D01*
X32975000Y-22210038D02*
X32975000Y-22325000D01*
X33825000Y-20975000D02*
X33825000Y-21360038D01*
D24*
%TO.N,VCC*%
X31275000Y-20975000D02*
X31275000Y-22325000D01*
X35525000Y-20975000D02*
X35525000Y-22325000D01*
X39853510Y-19846490D02*
X40300000Y-19400000D01*
X36193891Y-19846490D02*
X39853510Y-19846490D01*
X35525000Y-20515381D02*
X36193891Y-19846490D01*
X35525000Y-20975000D02*
X35525000Y-20515381D01*
X35269118Y-20259499D02*
X35525000Y-20515381D01*
X31530882Y-20259499D02*
X35269118Y-20259499D01*
X31275000Y-20515381D02*
X31530882Y-20259499D01*
X31275000Y-20975000D02*
X31275000Y-20515381D01*
X31275000Y-25325002D02*
X34999998Y-29050000D01*
X31275000Y-22325000D02*
X31275000Y-25325002D01*
D25*
%TO.N,AUDIO1*%
X77307304Y-63142696D02*
X73807324Y-59642716D01*
X73807324Y-59642716D02*
X73807324Y-59509490D01*
X33747001Y-33797001D02*
X33747001Y-54847003D01*
X25350000Y-25400000D02*
X33747001Y-33797001D01*
X33747001Y-54847003D02*
X38399999Y-59500001D01*
%TO.N,LED*%
X66100000Y-20000000D02*
X66600000Y-20500000D01*
X66100000Y-18900000D02*
X66100000Y-20000000D01*
X106034068Y-41977919D02*
X107818979Y-41977919D01*
X104000000Y-37472838D02*
X104000000Y-39943851D01*
X104000000Y-39943851D02*
X106034068Y-41977919D01*
X101052999Y-28147001D02*
X101052999Y-34733989D01*
X102914172Y-36387010D02*
X104000000Y-37472838D01*
X102706020Y-36387010D02*
X102914172Y-36387010D01*
X101052999Y-34733989D02*
X102706020Y-36387010D01*
X101600000Y-19100000D02*
X101600000Y-27600000D01*
X101600000Y-27600000D02*
X101052999Y-28147001D01*
%TO.N,Net-(JP_LED2-Pad1)*%
X81499992Y-21800000D02*
X81499992Y-18759477D01*
X81499992Y-18759477D02*
X81213505Y-18472990D01*
%TO.N,Net-(JP_LED2-Pad3)*%
X285001988Y-52659001D02*
X285417010Y-52243980D01*
X285417010Y-68643980D02*
X285417010Y-67876020D01*
X285000000Y-74500000D02*
X285000000Y-69060990D01*
X285000000Y-69060990D02*
X285417010Y-68643980D01*
X278535183Y-34428021D02*
X275364208Y-34428021D01*
X285417010Y-67876020D02*
X285001988Y-67460999D01*
X285417010Y-41309848D02*
X278535183Y-34428021D01*
X286600000Y-76100000D02*
X285000000Y-74500000D01*
X275364208Y-34428021D02*
X272382475Y-31446288D01*
X285001988Y-67460999D02*
X285001988Y-52659001D01*
X285417010Y-52243980D02*
X285417010Y-41309848D01*
X272382475Y-31446288D02*
X272382475Y-30959005D01*
X272382475Y-30959005D02*
X267961735Y-26538265D01*
%TO.N,Net-(L4-Pad2)*%
X162800000Y-17800000D02*
X164000000Y-19000000D01*
X59300000Y-17800000D02*
X162800000Y-17800000D01*
X51500000Y-25600000D02*
X59300000Y-17800000D01*
%TO.N,Net-(R4-Pad2)*%
X103600000Y-56400000D02*
X100250000Y-59750000D01*
X103600000Y-48800000D02*
X103600000Y-56400000D01*
X107750000Y-44650000D02*
X103600000Y-48800000D01*
%TO.N,D-*%
X50652999Y-38527263D02*
X55648734Y-43522998D01*
X55648734Y-43522998D02*
X56922996Y-43522998D01*
X50652999Y-37949297D02*
X50652999Y-38527263D01*
X41049998Y-27000000D02*
X41049998Y-28346296D01*
X41049998Y-28346296D02*
X50652999Y-37949297D01*
X56922996Y-43522998D02*
X58200000Y-44800002D01*
%TO.N,D+*%
X50198988Y-38723252D02*
X55625736Y-44150000D01*
X55625736Y-44150000D02*
X56099996Y-44150000D01*
X40549994Y-28774254D02*
X50198988Y-38423248D01*
X50198988Y-38423248D02*
X50198988Y-38723252D01*
%TO.N,RE1_A*%
X100144979Y-25655021D02*
X100300000Y-25500000D01*
X100144979Y-38355971D02*
X100144979Y-25655021D01*
X102664398Y-40451126D02*
X102240134Y-40451126D01*
X102240134Y-40451126D02*
X100144979Y-38355971D01*
%TO.N,RE1_B*%
X100598989Y-27074001D02*
X100972990Y-26700000D01*
X102500000Y-39400000D02*
X101892838Y-39400000D01*
X101892838Y-39400000D02*
X100598989Y-38106151D01*
X100598989Y-38106151D02*
X100598989Y-27074001D01*
%TO.N,RE3_B*%
X199800000Y-34800000D02*
X200600000Y-34000000D01*
X197227001Y-53272999D02*
X199800000Y-50700000D01*
X199800000Y-50700000D02*
X199800000Y-34800000D01*
X197227001Y-58172999D02*
X197227001Y-53272999D01*
X197200000Y-58200000D02*
X197227001Y-58172999D01*
X115800000Y-57200000D02*
X114428770Y-57200000D01*
X114428770Y-57200000D02*
X112012007Y-54783237D01*
X117400000Y-58800000D02*
X115800000Y-57200000D01*
X112012007Y-54783237D02*
X112012007Y-51357260D01*
%TO.N,RE3_A*%
X199272999Y-30327001D02*
X200600000Y-29000000D01*
X199272999Y-50584933D02*
X199272999Y-30327001D01*
X196700000Y-53157932D02*
X199272999Y-50584933D01*
X196700000Y-57400000D02*
X196700000Y-53157932D01*
X196600000Y-57500000D02*
X196700000Y-57400000D01*
X117600000Y-57900000D02*
X116417001Y-56717001D01*
X116417001Y-56717001D02*
X114587839Y-56717001D01*
X114587839Y-56717001D02*
X113382999Y-55512161D01*
X113382999Y-49685853D02*
X113106636Y-49409490D01*
X113382999Y-55512161D02*
X113382999Y-49685853D01*
%TO.N,RE4_B*%
X209799999Y-59000001D02*
X209799999Y-42300001D01*
X209799999Y-42300001D02*
X210400000Y-41700000D01*
X209500000Y-59300000D02*
X209799999Y-59000001D01*
X234200000Y-34000000D02*
X233200001Y-34999999D01*
X233200001Y-34999999D02*
X233200001Y-39600001D01*
%TO.N,RE4_A*%
X234200000Y-29000000D02*
X232235565Y-30964435D01*
X232235565Y-30964435D02*
X232235565Y-39554415D01*
X209300000Y-58000000D02*
X209300000Y-41700000D01*
X209300000Y-41700000D02*
X209350000Y-41650000D01*
X208700000Y-58600000D02*
X209300000Y-58000000D01*
%TO.N,RE5_A*%
X223100000Y-54130770D02*
X228200000Y-49030770D01*
X223100000Y-60000000D02*
X223100000Y-54130770D01*
X228200000Y-49030770D02*
X228200000Y-41600000D01*
X265192919Y-40507081D02*
X265192919Y-40520353D01*
X266400000Y-39300000D02*
X265192919Y-40507081D01*
X266400000Y-30400000D02*
X266400000Y-39300000D01*
X267800000Y-29000000D02*
X266400000Y-30400000D01*
%TO.N,RE5_B*%
X223799998Y-60700000D02*
X223799998Y-54072840D01*
X223799998Y-54072840D02*
X229200000Y-48672838D01*
X229200000Y-48672838D02*
X229200000Y-41600000D01*
X266900000Y-35300000D02*
X266900000Y-39700000D01*
X267800000Y-34400000D02*
X266900000Y-35300000D01*
X266900000Y-39700000D02*
X266050000Y-40550000D01*
X267800000Y-34000000D02*
X267800000Y-34400000D01*
%TO.N,RE2_1*%
X187967001Y-92382999D02*
X187490000Y-92860000D01*
X187967001Y-85137001D02*
X187967001Y-92382999D01*
X187490000Y-84660000D02*
X187967001Y-85137001D01*
X187967001Y-100582999D02*
X187490000Y-101060000D01*
X187967001Y-93337001D02*
X187967001Y-100582999D01*
X187490000Y-92860000D02*
X187967001Y-93337001D01*
X179567001Y-67782999D02*
X179090000Y-68260000D01*
X179567001Y-52337001D02*
X179567001Y-67782999D01*
X179090000Y-51860000D02*
X179567001Y-52337001D01*
X181500000Y-49450000D02*
X179090000Y-51860000D01*
X181500000Y-34000000D02*
X181500000Y-49450000D01*
X181500000Y-34000000D02*
X185300000Y-30200000D01*
X187490000Y-78690000D02*
X187490000Y-84660000D01*
X179567001Y-70767001D02*
X187490000Y-78690000D01*
X179567001Y-68737001D02*
X179567001Y-70767001D01*
X179090000Y-68260000D02*
X179567001Y-68737001D01*
%TO.N,RE3_1*%
X215100000Y-49450000D02*
X212690000Y-51860000D01*
X213167001Y-68737001D02*
X213167001Y-76737001D01*
X213167001Y-76737001D02*
X221090000Y-84660000D01*
X212690000Y-68260000D02*
X213167001Y-68737001D01*
X221567001Y-100582999D02*
X221090000Y-101060000D01*
X221567001Y-85137001D02*
X221567001Y-100582999D01*
X221090000Y-84660000D02*
X221567001Y-85137001D01*
X215100000Y-46700000D02*
X215100000Y-49450000D01*
X215100000Y-34000000D02*
X215100000Y-46700000D01*
X213200000Y-67750000D02*
X212690000Y-68260000D01*
X213200000Y-52370000D02*
X213200000Y-67750000D01*
X212690000Y-51860000D02*
X213200000Y-52370000D01*
%TO.N,RE4_1*%
X255640000Y-68260000D02*
X260900000Y-63000000D01*
X254690000Y-68260000D02*
X255640000Y-68260000D01*
X238367001Y-100582999D02*
X237890000Y-101060000D01*
X238367001Y-85137001D02*
X238367001Y-100582999D01*
X237890000Y-84660000D02*
X238367001Y-85137001D01*
X237890000Y-84660000D02*
X230900000Y-77670000D01*
X230900000Y-69800000D02*
X233100000Y-67600000D01*
X230900000Y-77670000D02*
X230900000Y-69800000D01*
X229967001Y-52337001D02*
X229967001Y-54367001D01*
X229967001Y-54367001D02*
X233100000Y-57500000D01*
X233100000Y-57500000D02*
X233100000Y-67600000D01*
X229490000Y-51860000D02*
X229967001Y-52337001D01*
X237432838Y-35460000D02*
X237890000Y-35460000D01*
X234300000Y-38592838D02*
X237432838Y-35460000D01*
X234300000Y-47050000D02*
X234300000Y-38592838D01*
X229490000Y-51860000D02*
X234300000Y-47050000D01*
%TO.N,RE5_1*%
X288767001Y-100582999D02*
X288290000Y-101060000D01*
X288767001Y-93337001D02*
X288767001Y-100582999D01*
X288290000Y-92860000D02*
X288767001Y-93337001D01*
X288290000Y-90390000D02*
X282900000Y-85000000D01*
X288290000Y-92860000D02*
X288290000Y-90390000D01*
X271967001Y-38560161D02*
X271967001Y-35937001D01*
X271422870Y-46270985D02*
X271422870Y-39104292D01*
X271422870Y-39104292D02*
X271967001Y-38560161D01*
X277617001Y-55512161D02*
X277617001Y-52465116D01*
X276612990Y-56516172D02*
X277617001Y-55512161D01*
X276612990Y-66103980D02*
X276612990Y-56516172D01*
X271967001Y-35937001D02*
X271490000Y-35460000D01*
X278632999Y-68123989D02*
X276612990Y-66103980D01*
X277025942Y-51874058D02*
X271422870Y-46270985D01*
X277617001Y-52465116D02*
X277025942Y-51874058D01*
X278632999Y-68267001D02*
X278632999Y-68123989D01*
X280900000Y-73600000D02*
X278632999Y-71332999D01*
X280900000Y-78000000D02*
X280900000Y-73600000D01*
X282900000Y-80000000D02*
X280900000Y-78000000D01*
X278632999Y-71332999D02*
X278632999Y-68267001D01*
X282900000Y-85000000D02*
X282900000Y-80000000D01*
%TO.N,Net-(D94-Pad1)*%
X288767001Y-51382999D02*
X288290000Y-51860000D01*
X288767001Y-35937001D02*
X288767001Y-51382999D01*
X288290000Y-35460000D02*
X288767001Y-35937001D01*
X281547001Y-77917001D02*
X288290000Y-84660000D01*
X281547001Y-53148999D02*
X281547001Y-77917001D01*
X282836000Y-51860000D02*
X281547001Y-53148999D01*
X284090000Y-51860000D02*
X282836000Y-51860000D01*
X289699999Y-93800001D02*
X289550000Y-93950000D01*
X289699999Y-92499999D02*
X289699999Y-93800001D01*
X288800000Y-91600000D02*
X289699999Y-92499999D01*
X288800000Y-85170000D02*
X288800000Y-91600000D01*
X288290000Y-84660000D02*
X288800000Y-85170000D01*
%TO.N,SCL*%
X109345989Y-44188057D02*
X109345989Y-45832716D01*
X108445989Y-40211943D02*
X108445989Y-43288057D01*
X109345989Y-45832716D02*
X110149174Y-46635901D01*
X109645989Y-35911943D02*
X109645989Y-39011943D01*
X108445989Y-43288057D02*
X109345989Y-44188057D01*
X113547001Y-32010931D02*
X109645989Y-35911943D01*
X116900000Y-21700000D02*
X113547001Y-25052999D01*
X109645989Y-39011943D02*
X108445989Y-40211943D01*
X116970000Y-19800000D02*
X116900000Y-19870000D01*
X116900000Y-19870000D02*
X116900000Y-21700000D01*
X113547001Y-25052999D02*
X113547001Y-32010931D01*
%TO.N,SDA*%
X114100000Y-32100000D02*
X114100000Y-25210000D01*
X114100000Y-25210000D02*
X119510000Y-19800000D01*
X110100000Y-39200000D02*
X110100000Y-36100000D01*
X110100000Y-36100000D02*
X114100000Y-32100000D01*
X108900000Y-43100000D02*
X108900000Y-40400000D01*
X109800000Y-44000000D02*
X108900000Y-43100000D01*
X109800000Y-45400000D02*
X109800000Y-44000000D01*
X108900000Y-40400000D02*
X110100000Y-39200000D01*
X111800000Y-47400000D02*
X109800000Y-45400000D01*
%TO.N,RE2_A*%
X163200000Y-56200000D02*
X162600000Y-56800000D01*
X163200000Y-53228770D02*
X163200000Y-56200000D01*
X165645989Y-50782781D02*
X163200000Y-53228770D01*
X165645989Y-30354011D02*
X165645989Y-50782781D01*
X167000000Y-29000000D02*
X165645989Y-30354011D01*
X115143071Y-51067001D02*
X116967001Y-51067001D01*
X116967001Y-51067001D02*
X118600000Y-52700000D01*
X112300000Y-48100000D02*
X113367178Y-48100000D01*
X114500000Y-50423930D02*
X115143071Y-51067001D01*
X113367178Y-48100000D02*
X114500000Y-49232822D01*
X114500000Y-49232822D02*
X114500000Y-50423930D01*
%TO.N,RE2_B*%
X112790544Y-48599147D02*
X112490545Y-48899146D01*
X115034002Y-51600000D02*
X114045989Y-50611987D01*
X118100000Y-53370838D02*
X116329162Y-51600000D01*
X116329162Y-51600000D02*
X115034002Y-51600000D01*
X113224257Y-48599147D02*
X112790544Y-48599147D01*
X114045989Y-50611987D02*
X114045989Y-49420879D01*
X114045989Y-49420879D02*
X113224257Y-48599147D01*
X163654011Y-53416827D02*
X163654011Y-56645989D01*
X167000000Y-50070838D02*
X163654011Y-53416827D01*
X163654011Y-56645989D02*
X163500000Y-56800000D01*
X167000000Y-34000000D02*
X167000000Y-50070838D01*
%TD*%
%TO.N,GND*%
X39673000Y-23971909D02*
X32100500Y-23907125D01*
X32100500Y-23285000D01*
X32219552Y-23285000D01*
X32405022Y-23248108D01*
X32550000Y-23188056D01*
X32694978Y-23248108D01*
X32880448Y-23285000D01*
X33069552Y-23285000D01*
X33255022Y-23248108D01*
X33400000Y-23188056D01*
X33544978Y-23248108D01*
X33730448Y-23285000D01*
X33919552Y-23285000D01*
X34105022Y-23248108D01*
X34250000Y-23188056D01*
X34394978Y-23248108D01*
X34580448Y-23285000D01*
X34769552Y-23285000D01*
X34955022Y-23248108D01*
X35100000Y-23188056D01*
X35244978Y-23248108D01*
X35430448Y-23285000D01*
X35619552Y-23285000D01*
X35805022Y-23248108D01*
X35950420Y-23187882D01*
X36089992Y-23246581D01*
X36275260Y-23284475D01*
X36464361Y-23285497D01*
X36650028Y-23249608D01*
X36825126Y-23178187D01*
X36834323Y-23173270D01*
X36847931Y-22977536D01*
X36452639Y-22582244D01*
X36485000Y-22419552D01*
X36485000Y-22230448D01*
X36484171Y-22226281D01*
X36568748Y-22310858D01*
X36554605Y-22325000D01*
X36656095Y-22426490D01*
X36675108Y-22471343D01*
X36806940Y-22665169D01*
X36974052Y-22829552D01*
X37170023Y-22958174D01*
X37387321Y-23046093D01*
X37414627Y-23046776D01*
X37598000Y-22921392D01*
X37598000Y-21472000D01*
X37852000Y-21472000D01*
X37852000Y-22921392D01*
X38035373Y-23046776D01*
X38062679Y-23046093D01*
X38279977Y-22958174D01*
X38475948Y-22829552D01*
X38643060Y-22665169D01*
X38774892Y-22471343D01*
X38866377Y-22255522D01*
X38914000Y-22026000D01*
X38914000Y-21472000D01*
X37852000Y-21472000D01*
X37598000Y-21472000D01*
X37578000Y-21472000D01*
X37578000Y-21218000D01*
X37598000Y-21218000D01*
X37598000Y-21198000D01*
X37852000Y-21198000D01*
X37852000Y-21218000D01*
X38914000Y-21218000D01*
X38914000Y-20671990D01*
X39673000Y-20671990D01*
X39673000Y-23971909D01*
%TA.AperFunction,Conductor*%
D26*
G36*
X39673000Y-23971909D02*
G01*
X32100500Y-23907125D01*
X32100500Y-23285000D01*
X32219552Y-23285000D01*
X32405022Y-23248108D01*
X32550000Y-23188056D01*
X32694978Y-23248108D01*
X32880448Y-23285000D01*
X33069552Y-23285000D01*
X33255022Y-23248108D01*
X33400000Y-23188056D01*
X33544978Y-23248108D01*
X33730448Y-23285000D01*
X33919552Y-23285000D01*
X34105022Y-23248108D01*
X34250000Y-23188056D01*
X34394978Y-23248108D01*
X34580448Y-23285000D01*
X34769552Y-23285000D01*
X34955022Y-23248108D01*
X35100000Y-23188056D01*
X35244978Y-23248108D01*
X35430448Y-23285000D01*
X35619552Y-23285000D01*
X35805022Y-23248108D01*
X35950420Y-23187882D01*
X36089992Y-23246581D01*
X36275260Y-23284475D01*
X36464361Y-23285497D01*
X36650028Y-23249608D01*
X36825126Y-23178187D01*
X36834323Y-23173270D01*
X36847931Y-22977536D01*
X36452639Y-22582244D01*
X36485000Y-22419552D01*
X36485000Y-22230448D01*
X36484171Y-22226281D01*
X36568748Y-22310858D01*
X36554605Y-22325000D01*
X36656095Y-22426490D01*
X36675108Y-22471343D01*
X36806940Y-22665169D01*
X36974052Y-22829552D01*
X37170023Y-22958174D01*
X37387321Y-23046093D01*
X37414627Y-23046776D01*
X37598000Y-22921392D01*
X37598000Y-21472000D01*
X37852000Y-21472000D01*
X37852000Y-22921392D01*
X38035373Y-23046776D01*
X38062679Y-23046093D01*
X38279977Y-22958174D01*
X38475948Y-22829552D01*
X38643060Y-22665169D01*
X38774892Y-22471343D01*
X38866377Y-22255522D01*
X38914000Y-22026000D01*
X38914000Y-21472000D01*
X37852000Y-21472000D01*
X37598000Y-21472000D01*
X37578000Y-21472000D01*
X37578000Y-21218000D01*
X37598000Y-21218000D01*
X37598000Y-21198000D01*
X37852000Y-21198000D01*
X37852000Y-21218000D01*
X38914000Y-21218000D01*
X38914000Y-20671990D01*
X39673000Y-20671990D01*
X39673000Y-23971909D01*
G37*
%TD.AperFunction*%
D25*
X36536000Y-17838000D02*
X37598000Y-17838000D01*
X37598000Y-17818000D01*
X37852000Y-17818000D01*
X37852000Y-17838000D01*
X38808230Y-17838000D01*
X38840934Y-17855389D01*
X38906737Y-17882511D01*
X38972102Y-17910526D01*
X38982572Y-17913768D01*
X39075990Y-17941973D01*
X39145776Y-17955791D01*
X39215383Y-17970586D01*
X39226284Y-17971732D01*
X39323401Y-17981254D01*
X39323406Y-17981254D01*
X39361439Y-17985000D01*
X39673000Y-17985000D01*
X39673000Y-18704710D01*
X39573738Y-18803972D01*
X39471414Y-18957111D01*
X39444955Y-19020990D01*
X38804714Y-19020990D01*
X38866377Y-18875522D01*
X38914000Y-18646000D01*
X38914000Y-18092000D01*
X37852000Y-18092000D01*
X37852000Y-18112000D01*
X37598000Y-18112000D01*
X37598000Y-18092000D01*
X36536000Y-18092000D01*
X36536000Y-18646000D01*
X36583623Y-18875522D01*
X36645286Y-19020990D01*
X36234441Y-19020990D01*
X36193891Y-19016996D01*
X36153340Y-19020990D01*
X36153338Y-19020990D01*
X36032065Y-19032934D01*
X35876457Y-19080137D01*
X35733048Y-19156791D01*
X35638849Y-19234098D01*
X35638846Y-19234101D01*
X35607350Y-19259949D01*
X35581501Y-19291446D01*
X35427358Y-19445590D01*
X35309671Y-19433999D01*
X35309668Y-19433999D01*
X35269118Y-19430005D01*
X35228568Y-19433999D01*
X31571432Y-19433999D01*
X31530882Y-19430005D01*
X31490331Y-19433999D01*
X31490329Y-19433999D01*
X31369056Y-19445943D01*
X31213448Y-19493146D01*
X31070040Y-19569800D01*
X30944341Y-19672958D01*
X30918488Y-19704460D01*
X30719960Y-19902988D01*
X30688460Y-19928840D01*
X30604012Y-20031739D01*
X30524740Y-20015525D01*
X30335639Y-20014503D01*
X30149972Y-20050392D01*
X30040748Y-20094944D01*
X29993060Y-20024831D01*
X29825948Y-19860448D01*
X29629977Y-19731826D01*
X29440096Y-19655000D01*
X29629977Y-19578174D01*
X29825948Y-19449552D01*
X29993060Y-19285169D01*
X30124892Y-19091343D01*
X30216377Y-18875522D01*
X30264000Y-18646000D01*
X30264000Y-18092000D01*
X29202000Y-18092000D01*
X29202000Y-19541392D01*
X29368151Y-19655000D01*
X29202000Y-19768608D01*
X29202000Y-21218000D01*
X29222000Y-21218000D01*
X29222000Y-21472000D01*
X29202000Y-21472000D01*
X29202000Y-22921392D01*
X29385373Y-23046776D01*
X29412679Y-23046093D01*
X29629977Y-22958174D01*
X29825948Y-22829552D01*
X29993060Y-22665169D01*
X30124892Y-22471343D01*
X30143905Y-22426490D01*
X30245395Y-22325000D01*
X30231253Y-22310858D01*
X30315829Y-22226281D01*
X30315000Y-22230448D01*
X30315000Y-22419552D01*
X30347361Y-22582244D01*
X29952069Y-22977536D01*
X29965677Y-23173270D01*
X30139992Y-23246581D01*
X30325260Y-23284475D01*
X30449500Y-23285146D01*
X30449500Y-23893001D01*
X26775573Y-23861570D01*
X26748342Y-21472000D01*
X27886000Y-21472000D01*
X27886000Y-22026000D01*
X27933623Y-22255522D01*
X28025108Y-22471343D01*
X28156940Y-22665169D01*
X28324052Y-22829552D01*
X28520023Y-22958174D01*
X28737321Y-23046093D01*
X28764627Y-23046776D01*
X28948000Y-22921392D01*
X28948000Y-21472000D01*
X27886000Y-21472000D01*
X26748342Y-21472000D01*
X26709824Y-18092000D01*
X27886000Y-18092000D01*
X27886000Y-18646000D01*
X27933623Y-18875522D01*
X28025108Y-19091343D01*
X28156940Y-19285169D01*
X28324052Y-19449552D01*
X28520023Y-19578174D01*
X28709904Y-19655000D01*
X28520023Y-19731826D01*
X28324052Y-19860448D01*
X28156940Y-20024831D01*
X28025108Y-20218657D01*
X27933623Y-20434478D01*
X27886000Y-20664000D01*
X27886000Y-21218000D01*
X28948000Y-21218000D01*
X28948000Y-19768608D01*
X28781849Y-19655000D01*
X28948000Y-19541392D01*
X28948000Y-18092000D01*
X27886000Y-18092000D01*
X26709824Y-18092000D01*
X26708604Y-17985000D01*
X27438561Y-17985000D01*
X27471695Y-17981736D01*
X27474637Y-17981757D01*
X27485545Y-17980688D01*
X27533317Y-17975667D01*
X27553887Y-17973641D01*
X27554573Y-17973433D01*
X27582593Y-17970488D01*
X27652309Y-17956178D01*
X27722176Y-17942849D01*
X27732669Y-17939682D01*
X27825888Y-17910826D01*
X27891507Y-17883242D01*
X27957449Y-17856599D01*
X27967119Y-17851458D01*
X27967122Y-17851457D01*
X27967124Y-17851455D01*
X27967127Y-17851454D01*
X27992009Y-17838000D01*
X28948000Y-17838000D01*
X28948000Y-17818000D01*
X29202000Y-17818000D01*
X29202000Y-17838000D01*
X30264000Y-17838000D01*
X30264000Y-17485000D01*
X36536000Y-17485000D01*
X36536000Y-17838000D01*
%TA.AperFunction,Conductor*%
D26*
G36*
X36536000Y-17838000D02*
G01*
X37598000Y-17838000D01*
X37598000Y-17818000D01*
X37852000Y-17818000D01*
X37852000Y-17838000D01*
X38808230Y-17838000D01*
X38840934Y-17855389D01*
X38906737Y-17882511D01*
X38972102Y-17910526D01*
X38982572Y-17913768D01*
X39075990Y-17941973D01*
X39145776Y-17955791D01*
X39215383Y-17970586D01*
X39226284Y-17971732D01*
X39323401Y-17981254D01*
X39323406Y-17981254D01*
X39361439Y-17985000D01*
X39673000Y-17985000D01*
X39673000Y-18704710D01*
X39573738Y-18803972D01*
X39471414Y-18957111D01*
X39444955Y-19020990D01*
X38804714Y-19020990D01*
X38866377Y-18875522D01*
X38914000Y-18646000D01*
X38914000Y-18092000D01*
X37852000Y-18092000D01*
X37852000Y-18112000D01*
X37598000Y-18112000D01*
X37598000Y-18092000D01*
X36536000Y-18092000D01*
X36536000Y-18646000D01*
X36583623Y-18875522D01*
X36645286Y-19020990D01*
X36234441Y-19020990D01*
X36193891Y-19016996D01*
X36153340Y-19020990D01*
X36153338Y-19020990D01*
X36032065Y-19032934D01*
X35876457Y-19080137D01*
X35733048Y-19156791D01*
X35638849Y-19234098D01*
X35638846Y-19234101D01*
X35607350Y-19259949D01*
X35581501Y-19291446D01*
X35427358Y-19445590D01*
X35309671Y-19433999D01*
X35309668Y-19433999D01*
X35269118Y-19430005D01*
X35228568Y-19433999D01*
X31571432Y-19433999D01*
X31530882Y-19430005D01*
X31490331Y-19433999D01*
X31490329Y-19433999D01*
X31369056Y-19445943D01*
X31213448Y-19493146D01*
X31070040Y-19569800D01*
X30944341Y-19672958D01*
X30918488Y-19704460D01*
X30719960Y-19902988D01*
X30688460Y-19928840D01*
X30604012Y-20031739D01*
X30524740Y-20015525D01*
X30335639Y-20014503D01*
X30149972Y-20050392D01*
X30040748Y-20094944D01*
X29993060Y-20024831D01*
X29825948Y-19860448D01*
X29629977Y-19731826D01*
X29440096Y-19655000D01*
X29629977Y-19578174D01*
X29825948Y-19449552D01*
X29993060Y-19285169D01*
X30124892Y-19091343D01*
X30216377Y-18875522D01*
X30264000Y-18646000D01*
X30264000Y-18092000D01*
X29202000Y-18092000D01*
X29202000Y-19541392D01*
X29368151Y-19655000D01*
X29202000Y-19768608D01*
X29202000Y-21218000D01*
X29222000Y-21218000D01*
X29222000Y-21472000D01*
X29202000Y-21472000D01*
X29202000Y-22921392D01*
X29385373Y-23046776D01*
X29412679Y-23046093D01*
X29629977Y-22958174D01*
X29825948Y-22829552D01*
X29993060Y-22665169D01*
X30124892Y-22471343D01*
X30143905Y-22426490D01*
X30245395Y-22325000D01*
X30231253Y-22310858D01*
X30315829Y-22226281D01*
X30315000Y-22230448D01*
X30315000Y-22419552D01*
X30347361Y-22582244D01*
X29952069Y-22977536D01*
X29965677Y-23173270D01*
X30139992Y-23246581D01*
X30325260Y-23284475D01*
X30449500Y-23285146D01*
X30449500Y-23893001D01*
X26775573Y-23861570D01*
X26748342Y-21472000D01*
X27886000Y-21472000D01*
X27886000Y-22026000D01*
X27933623Y-22255522D01*
X28025108Y-22471343D01*
X28156940Y-22665169D01*
X28324052Y-22829552D01*
X28520023Y-22958174D01*
X28737321Y-23046093D01*
X28764627Y-23046776D01*
X28948000Y-22921392D01*
X28948000Y-21472000D01*
X27886000Y-21472000D01*
X26748342Y-21472000D01*
X26709824Y-18092000D01*
X27886000Y-18092000D01*
X27886000Y-18646000D01*
X27933623Y-18875522D01*
X28025108Y-19091343D01*
X28156940Y-19285169D01*
X28324052Y-19449552D01*
X28520023Y-19578174D01*
X28709904Y-19655000D01*
X28520023Y-19731826D01*
X28324052Y-19860448D01*
X28156940Y-20024831D01*
X28025108Y-20218657D01*
X27933623Y-20434478D01*
X27886000Y-20664000D01*
X27886000Y-21218000D01*
X28948000Y-21218000D01*
X28948000Y-19768608D01*
X28781849Y-19655000D01*
X28948000Y-19541392D01*
X28948000Y-18092000D01*
X27886000Y-18092000D01*
X26709824Y-18092000D01*
X26708604Y-17985000D01*
X27438561Y-17985000D01*
X27471695Y-17981736D01*
X27474637Y-17981757D01*
X27485545Y-17980688D01*
X27533317Y-17975667D01*
X27553887Y-17973641D01*
X27554573Y-17973433D01*
X27582593Y-17970488D01*
X27652309Y-17956178D01*
X27722176Y-17942849D01*
X27732669Y-17939682D01*
X27825888Y-17910826D01*
X27891507Y-17883242D01*
X27957449Y-17856599D01*
X27967119Y-17851458D01*
X27967122Y-17851457D01*
X27967124Y-17851455D01*
X27967127Y-17851454D01*
X27992009Y-17838000D01*
X28948000Y-17838000D01*
X28948000Y-17818000D01*
X29202000Y-17818000D01*
X29202000Y-17838000D01*
X30264000Y-17838000D01*
X30264000Y-17485000D01*
X36536000Y-17485000D01*
X36536000Y-17838000D01*
G37*
%TD.AperFunction*%
D25*
X30315000Y-20880448D02*
X30315000Y-21069552D01*
X30315829Y-21073719D01*
X30264000Y-21021890D01*
X30264000Y-20928110D01*
X30315829Y-20876281D01*
X30315000Y-20880448D01*
%TA.AperFunction,Conductor*%
D26*
G36*
X30315000Y-20880448D02*
G01*
X30315000Y-21069552D01*
X30315829Y-21073719D01*
X30264000Y-21021890D01*
X30264000Y-20928110D01*
X30315829Y-20876281D01*
X30315000Y-20880448D01*
G37*
%TD.AperFunction*%
D25*
X36536000Y-20928110D02*
X36536000Y-21021890D01*
X36484171Y-21073719D01*
X36485000Y-21069552D01*
X36485000Y-20880448D01*
X36484171Y-20876281D01*
X36536000Y-20928110D01*
%TA.AperFunction,Conductor*%
D26*
G36*
X36536000Y-20928110D02*
G01*
X36536000Y-21021890D01*
X36484171Y-21073719D01*
X36485000Y-21069552D01*
X36485000Y-20880448D01*
X36484171Y-20876281D01*
X36536000Y-20928110D01*
G37*
%TD.AperFunction*%
%TD*%
M02*
