%TF.GenerationSoftware,KiCad,Pcbnew,(5.1.8-0-10_14)*%
%TF.CreationDate,2020-12-29T07:16:28+09:00*%
%TF.ProjectId,Unison,556e6973-6f6e-42e6-9b69-6361645f7063,v01_1*%
%TF.SameCoordinates,Original*%
%TF.FileFunction,Copper,L2,Bot*%
%TF.FilePolarity,Positive*%
%FSLAX46Y46*%
G04 Gerber Fmt 4.6, Leading zero omitted, Abs format (unit mm)*
G04 Created by KiCad (PCBNEW (5.1.8-0-10_14)) date 2020-12-29 07:16:28*
%MOMM*%
%LPD*%
G01*
G04 APERTURE LIST*
%TA.AperFunction,EtchedComponent*%
%ADD10C,1.500000*%
%TD*%
%TA.AperFunction,ComponentPad*%
%ADD11O,2.000000X1.200000*%
%TD*%
%TA.AperFunction,SMDPad,CuDef*%
%ADD12R,1.500000X0.500000*%
%TD*%
%TA.AperFunction,SMDPad,CuDef*%
%ADD13R,0.500000X1.500000*%
%TD*%
%TA.AperFunction,SMDPad,CuDef*%
%ADD14R,1.800000X2.100000*%
%TD*%
%TA.AperFunction,ComponentPad*%
%ADD15R,2.000000X2.000000*%
%TD*%
%TA.AperFunction,ComponentPad*%
%ADD16C,2.000000*%
%TD*%
%TA.AperFunction,ComponentPad*%
%ADD17R,3.200000X2.000000*%
%TD*%
%TA.AperFunction,SMDPad,CuDef*%
%ADD18R,0.820000X1.800000*%
%TD*%
%TA.AperFunction,SMDPad,CuDef*%
%ADD19C,0.100000*%
%TD*%
%TA.AperFunction,SMDPad,CuDef*%
%ADD20R,0.820000X1.600000*%
%TD*%
%TA.AperFunction,SMDPad,CuDef*%
%ADD21R,0.620000X0.400000*%
%TD*%
%TA.AperFunction,SMDPad,CuDef*%
%ADD22R,0.900000X1.200000*%
%TD*%
%TA.AperFunction,ComponentPad*%
%ADD23C,1.000000*%
%TD*%
%TA.AperFunction,ComponentPad*%
%ADD24C,5.000000*%
%TD*%
%TA.AperFunction,ComponentPad*%
%ADD25O,7.000240X5.000000*%
%TD*%
%TA.AperFunction,SMDPad,CuDef*%
%ADD26R,1.200000X0.900000*%
%TD*%
%TA.AperFunction,SMDPad,CuDef*%
%ADD27R,1.400000X1.000000*%
%TD*%
%TA.AperFunction,SMDPad,CuDef*%
%ADD28R,1.400000X1.200000*%
%TD*%
%TA.AperFunction,ComponentPad*%
%ADD29O,1.700000X1.700000*%
%TD*%
%TA.AperFunction,ComponentPad*%
%ADD30R,1.700000X1.700000*%
%TD*%
%TA.AperFunction,SMDPad,CuDef*%
%ADD31R,1.500000X1.000000*%
%TD*%
%TA.AperFunction,SMDPad,CuDef*%
%ADD32R,1.800000X0.820000*%
%TD*%
%TA.AperFunction,SMDPad,CuDef*%
%ADD33R,1.600000X0.820000*%
%TD*%
%TA.AperFunction,SMDPad,CuDef*%
%ADD34R,0.400000X0.620000*%
%TD*%
%TA.AperFunction,SMDPad,CuDef*%
%ADD35R,1.524000X1.524000*%
%TD*%
%TA.AperFunction,ComponentPad*%
%ADD36C,1.397000*%
%TD*%
%TA.AperFunction,SMDPad,CuDef*%
%ADD37R,1.800000X1.100000*%
%TD*%
%TA.AperFunction,ComponentPad*%
%ADD38O,1.108000X2.216000*%
%TD*%
%TA.AperFunction,ComponentPad*%
%ADD39C,0.650000*%
%TD*%
%TA.AperFunction,ViaPad*%
%ADD40C,0.600000*%
%TD*%
%TA.AperFunction,Conductor*%
%ADD41C,0.381000*%
%TD*%
%TA.AperFunction,Conductor*%
%ADD42C,0.254000*%
%TD*%
%TA.AperFunction,Conductor*%
%ADD43C,0.100000*%
%TD*%
G04 APERTURE END LIST*
D10*
%TO.C,REF\u002A\u002A*%
X15200000Y-71050000D02*
X19000000Y-71050000D01*
X15250000Y-75350000D02*
X19050000Y-75350000D01*
X300200000Y-75350000D02*
X296400000Y-75350000D01*
X300150000Y-71050000D02*
X296350000Y-71050000D01*
X294250000Y-73200000D02*
G75*
G03*
X296400000Y-75350000I2150000J0D01*
G01*
X294250000Y-73200000D02*
G75*
G02*
X296400000Y-71050000I2150000J0D01*
G01*
X21150000Y-73200000D02*
G75*
G02*
X19000000Y-75350000I-2150000J0D01*
G01*
X21150000Y-73200000D02*
G75*
G03*
X19000000Y-71050000I-2150000J0D01*
G01*
%TD*%
D11*
%TO.P,SW_10_2,1*%
%TO.N,Net-(D1-Pad1)*%
X35510000Y-106140000D03*
%TO.P,SW_10_2,2*%
%TO.N,Net-(D7-Pad2)*%
X29060000Y-108680000D03*
%TD*%
%TO.P,SW_12_1,1*%
%TO.N,Net-(D1-Pad1)*%
X36290000Y-51860000D03*
%TO.P,SW_12_1,2*%
%TO.N,Net-(D10-Pad2)*%
X42740000Y-49320000D03*
%TD*%
D12*
%TO.P,U1,1*%
%TO.N,pin5*%
X42600000Y-99400000D03*
%TO.P,U1,2*%
%TO.N,+5V*%
X42600000Y-98600000D03*
%TO.P,U1,3*%
%TO.N,D-*%
X42600000Y-97800000D03*
%TO.P,U1,4*%
%TO.N,D+*%
X42600000Y-97000000D03*
%TO.P,U1,5*%
%TO.N,GND*%
X42600000Y-96200000D03*
%TO.P,U1,6*%
%TO.N,Net-(C6-Pad1)*%
X42600000Y-95400000D03*
%TO.P,U1,7*%
%TO.N,+5V*%
X42600000Y-94600000D03*
%TO.P,U1,8*%
%TO.N,pin9*%
X42600000Y-93800000D03*
%TO.P,U1,9*%
%TO.N,pin4*%
X42600000Y-93000000D03*
%TO.P,U1,10*%
%TO.N,pin6*%
X42600000Y-92200000D03*
%TO.P,U1,11*%
%TO.N,pin1*%
X42600000Y-91400000D03*
D13*
%TO.P,U1,12*%
%TO.N,LED*%
X44500000Y-89500000D03*
%TO.P,U1,13*%
%TO.N,Net-(R4-Pad2)*%
X45300000Y-89500000D03*
%TO.P,U1,14*%
%TO.N,+5V*%
X46100000Y-89500000D03*
%TO.P,U1,15*%
%TO.N,GND*%
X46900000Y-89500000D03*
%TO.P,U1,16*%
%TO.N,Net-(C3-Pad1)*%
X47700000Y-89500000D03*
%TO.P,U1,17*%
%TO.N,Net-(C2-Pad1)*%
X48500000Y-89500000D03*
%TO.P,U1,18*%
%TO.N,SCL_RE2B*%
X49300000Y-89500000D03*
%TO.P,U1,19*%
%TO.N,SDA_RE2A*%
X50100000Y-89500000D03*
%TO.P,U1,20*%
%TO.N,RE1_A*%
X50900000Y-89500000D03*
%TO.P,U1,21*%
%TO.N,RE1_B*%
X51700000Y-89500000D03*
%TO.P,U1,22*%
%TO.N,RE3_A*%
X52500000Y-89500000D03*
D12*
%TO.P,U1,23*%
%TO.N,GND*%
X54400000Y-91400000D03*
%TO.P,U1,24*%
%TO.N,+5V*%
X54400000Y-92200000D03*
%TO.P,U1,25*%
%TO.N,RE3_B*%
X54400000Y-93000000D03*
%TO.P,U1,26*%
%TO.N,RE4_A*%
X54400000Y-93800000D03*
%TO.P,U1,27*%
%TO.N,RE4_B*%
X54400000Y-94600000D03*
%TO.P,U1,28*%
%TO.N,RE5_A*%
X54400000Y-95400000D03*
%TO.P,U1,29*%
%TO.N,RE5_B*%
X54400000Y-96200000D03*
%TO.P,U1,30*%
%TO.N,AUDIO1*%
X54400000Y-97000000D03*
%TO.P,U1,31*%
%TO.N,AUDIO2[Reserve]*%
X54400000Y-97800000D03*
%TO.P,U1,32*%
%TO.N,RE6_A*%
X54400000Y-98600000D03*
%TO.P,U1,33*%
%TO.N,Net-(R9-Pad2)*%
X54400000Y-99400000D03*
D13*
%TO.P,U1,34*%
%TO.N,+5V*%
X52500000Y-101300000D03*
%TO.P,U1,35*%
%TO.N,GND*%
X51700000Y-101300000D03*
%TO.P,U1,36*%
%TO.N,RE6_B*%
X50900000Y-101300000D03*
%TO.P,U1,37*%
%TO.N,pin8*%
X50100000Y-101300000D03*
%TO.P,U1,38*%
%TO.N,pin3*%
X49300000Y-101300000D03*
%TO.P,U1,39*%
%TO.N,pin7*%
X48500000Y-101300000D03*
%TO.P,U1,40*%
%TO.N,pin2*%
X47700000Y-101300000D03*
%TO.P,U1,41*%
%TO.N,pin10*%
X46900000Y-101300000D03*
%TO.P,U1,42*%
%TO.N,Net-(U1-Pad42)*%
X46100000Y-101300000D03*
%TO.P,U1,43*%
%TO.N,GND*%
X45300000Y-101300000D03*
%TO.P,U1,44*%
%TO.N,+5V*%
X44500000Y-101300000D03*
%TD*%
D14*
%TO.P,Y1,4*%
%TO.N,GND*%
X48050000Y-80450000D03*
%TO.P,Y1,3*%
%TO.N,Net-(C3-Pad1)*%
X48050000Y-83350000D03*
%TO.P,Y1,2*%
%TO.N,GND*%
X50350000Y-83350000D03*
%TO.P,Y1,1*%
%TO.N,Net-(C2-Pad1)*%
X50350000Y-80450000D03*
%TD*%
D11*
%TO.P,SW_25_2,1*%
%TO.N,Net-(D14-Pad1)*%
X69890000Y-92860000D03*
%TO.P,SW_25_2,2*%
%TO.N,Net-(D24-Pad2)*%
X76340000Y-90320000D03*
%TD*%
%TO.P,SW_60_2,1*%
%TO.N,Net-(D59-Pad1)*%
X187490000Y-92860000D03*
%TO.P,SW_60_2,2*%
%TO.N,Net-(D64-Pad2)*%
X193940000Y-90320000D03*
%TD*%
%TO.P,SW_19_2,1*%
%TO.N,Net-(D1-Pad1)*%
X27890000Y-84660000D03*
%TO.P,SW_19_2,2*%
%TO.N,Net-(D6-Pad2)*%
X34340000Y-82120000D03*
%TD*%
%TO.P,SW_24_2,1*%
%TO.N,Net-(D14-Pad1)*%
X78290000Y-84660000D03*
%TO.P,SW_24_2,2*%
%TO.N,Net-(D23-Pad2)*%
X84740000Y-82120000D03*
%TD*%
%TO.P,SW_39_2,1*%
%TO.N,Net-(D25-Pad1)*%
X95090000Y-84660000D03*
%TO.P,SW_39_2,2*%
%TO.N,Net-(D29-Pad2)*%
X101540000Y-82120000D03*
%TD*%
%TO.P,SW_45_4,1*%
%TO.N,Net-(D36-Pad1)*%
X145490000Y-101060000D03*
%TO.P,SW_45_4,2*%
%TO.N,Net-(D46-Pad2)*%
X151940000Y-98520000D03*
%TD*%
%TO.P,SW_17_2,2*%
%TO.N,Net-(D4-Pad2)*%
X30140000Y-49320000D03*
%TO.P,SW_17_2,1*%
%TO.N,Net-(D1-Pad1)*%
X23690000Y-51860000D03*
%TD*%
%TO.P,SW_18_2,2*%
%TO.N,Net-(D5-Pad2)*%
X30140000Y-65720000D03*
%TO.P,SW_18_2,1*%
%TO.N,Net-(D1-Pad1)*%
X23690000Y-68260000D03*
%TD*%
%TO.P,SW_23_2,2*%
%TO.N,Net-(D22-Pad2)*%
X80540000Y-65720000D03*
%TO.P,SW_23_2,1*%
%TO.N,Net-(D14-Pad1)*%
X74090000Y-68260000D03*
%TD*%
%TO.P,SW_25_3,2*%
%TO.N,Net-(D24-Pad2)*%
X80540000Y-98520000D03*
%TO.P,SW_25_3,1*%
%TO.N,Net-(D14-Pad1)*%
X74090000Y-101060000D03*
%TD*%
%TO.P,SW_32_2,2*%
%TO.N,Net-(D21-Pad2)*%
X80540000Y-49320000D03*
%TO.P,SW_32_2,1*%
%TO.N,Net-(D25-Pad1)*%
X74090000Y-51860000D03*
%TD*%
%TO.P,SW_37_2,2*%
%TO.N,Net-(D27-Pad2)*%
X97340000Y-49320000D03*
%TO.P,SW_37_2,1*%
%TO.N,Net-(D25-Pad1)*%
X90890000Y-51860000D03*
%TD*%
%TO.P,SW_38_2,2*%
%TO.N,Net-(D28-Pad2)*%
X97340000Y-65720000D03*
%TO.P,SW_38_2,1*%
%TO.N,Net-(D25-Pad1)*%
X90890000Y-68260000D03*
%TD*%
%TO.P,SW_40_2,2*%
%TO.N,Net-(D41-Pad2)*%
X130940000Y-98520000D03*
%TO.P,SW_40_2,1*%
%TO.N,Net-(D36-Pad1)*%
X124490000Y-101060000D03*
%TD*%
%TO.P,SW_45_2,2*%
%TO.N,Net-(D46-Pad2)*%
X147740000Y-98520000D03*
%TO.P,SW_45_2,1*%
%TO.N,Net-(D36-Pad1)*%
X141290000Y-101060000D03*
%TD*%
%TO.P,SW_70_2,2*%
%TO.N,Net-(D76-Pad2)*%
X223340000Y-98520000D03*
%TO.P,SW_70_2,1*%
%TO.N,Net-(D71-Pad1)*%
X216890000Y-101060000D03*
%TD*%
%TO.P,SW_75_2,2*%
%TO.N,Net-(D70-Pad2)*%
X209660000Y-108680000D03*
%TO.P,SW_75_2,1*%
%TO.N,Net-(D71-Pad1)*%
X216110000Y-106140000D03*
%TD*%
%TO.P,SW_7_2,2*%
%TO.N,Net-(D96-Pad2)*%
X290540000Y-49320000D03*
%TO.P,SW_7_2,1*%
%TO.N,RE1_1*%
X284090000Y-51860000D03*
%TD*%
%TO.P,SW_85_3,2*%
%TO.N,Net-(D82-Pad2)*%
X240140000Y-98520000D03*
%TO.P,SW_85_3,1*%
%TO.N,Net-(D83-Pad1)*%
X233690000Y-101060000D03*
%TD*%
%TO.P,SW_8_2,2*%
%TO.N,Net-(D97-Pad2)*%
X290540000Y-65720000D03*
%TO.P,SW_8_2,1*%
%TO.N,RE1_1*%
X284090000Y-68260000D03*
%TD*%
%TO.P,SW_97_2,2*%
%TO.N,Net-(D85-Pad2)*%
X273740000Y-49320000D03*
%TO.P,SW_97_2,1*%
%TO.N,RE6_1*%
X267290000Y-51860000D03*
%TD*%
%TO.P,SW_98_2,2*%
%TO.N,Net-(D86-Pad2)*%
X273740000Y-65720000D03*
%TO.P,SW_98_2,1*%
%TO.N,RE6_1*%
X267290000Y-68260000D03*
%TD*%
%TO.P,SW_85_4,1*%
%TO.N,Net-(D83-Pad1)*%
X231590000Y-101060000D03*
%TO.P,SW_85_4,2*%
%TO.N,Net-(D82-Pad2)*%
X238040000Y-98520000D03*
%TD*%
%TO.P,SW_85_2,1*%
%TO.N,Net-(D83-Pad1)*%
X235790000Y-101060000D03*
%TO.P,SW_85_2,2*%
%TO.N,Net-(D82-Pad2)*%
X242240000Y-98520000D03*
%TD*%
%TO.P,SW_80_2,1*%
%TO.N,Net-(D83-Pad1)*%
X252590000Y-101060000D03*
%TO.P,SW_80_2,2*%
%TO.N,Net-(D88-Pad2)*%
X259040000Y-98520000D03*
%TD*%
%TO.P,SW_70_3,1*%
%TO.N,Net-(D71-Pad1)*%
X214790000Y-101060000D03*
%TO.P,SW_70_3,2*%
%TO.N,Net-(D76-Pad2)*%
X221240000Y-98520000D03*
%TD*%
%TO.P,SW_45_3,1*%
%TO.N,Net-(D36-Pad1)*%
X143390000Y-101060000D03*
%TO.P,SW_45_3,2*%
%TO.N,Net-(D46-Pad2)*%
X149840000Y-98520000D03*
%TD*%
%TO.P,SW_40_4,1*%
%TO.N,Net-(D36-Pad1)*%
X122390000Y-101060000D03*
%TO.P,SW_40_4,2*%
%TO.N,Net-(D41-Pad2)*%
X128840000Y-98520000D03*
%TD*%
%TO.P,SW_40_3,1*%
%TO.N,Net-(D36-Pad1)*%
X126590000Y-101060000D03*
%TO.P,SW_40_3,2*%
%TO.N,Net-(D41-Pad2)*%
X133040000Y-98520000D03*
%TD*%
%TO.P,SW_35_2,1*%
%TO.N,Net-(D25-Pad1)*%
X105590000Y-101060000D03*
%TO.P,SW_35_2,2*%
%TO.N,Net-(D35-Pad2)*%
X112040000Y-98520000D03*
%TD*%
%TO.P,SW_25_4,1*%
%TO.N,Net-(D14-Pad1)*%
X76190000Y-101060000D03*
%TO.P,SW_25_4,2*%
%TO.N,Net-(D24-Pad2)*%
X82640000Y-98520000D03*
%TD*%
%TO.P,SW_20_2,1*%
%TO.N,Net-(D14-Pad1)*%
X62810000Y-106140000D03*
%TO.P,SW_20_2,2*%
%TO.N,Net-(D19-Pad2)*%
X56360000Y-108680000D03*
%TD*%
D15*
%TO.P,SW_RE1,A*%
%TO.N,RE1_A*%
X49400000Y-20400000D03*
D16*
%TO.P,SW_RE1,C*%
%TO.N,GND*%
X49400000Y-22900000D03*
%TO.P,SW_RE1,B*%
%TO.N,RE1_B*%
X49400000Y-25400000D03*
D17*
%TO.P,SW_RE1,MP*%
%TO.N,N/C*%
X56900000Y-17300000D03*
X56900000Y-28500000D03*
D16*
%TO.P,SW_RE1,S2*%
%TO.N,RE1_2*%
X63900000Y-20400000D03*
%TO.P,SW_RE1,S1*%
%TO.N,RE1_1*%
X63900000Y-25400000D03*
%TD*%
D11*
%TO.P,SW_21,1*%
%TO.N,Net-(D14-Pad1)*%
X36290000Y-35460000D03*
%TO.P,SW_21,2*%
%TO.N,Net-(D9-Pad2)*%
X42740000Y-32920000D03*
%TD*%
D18*
%TO.P,L13,4*%
%TO.N,Net-(L12-Pad2)*%
X222050000Y-17950000D03*
%TO.P,L13,2*%
%TO.N,Net-(L13-Pad2)*%
X223550000Y-22950000D03*
%TO.P,L13,1*%
%TO.N,+5V*%
X222050000Y-22950000D03*
%TA.AperFunction,SMDPad,CuDef*%
D19*
%TO.P,L13,3*%
%TO.N,GND*%
G36*
X223760000Y-17050001D02*
G01*
X223959999Y-17250000D01*
X223760000Y-17449999D01*
X223560001Y-17250000D01*
X223760000Y-17050001D01*
G37*
%TD.AperFunction*%
D20*
X223550000Y-18050000D03*
D21*
X223450000Y-17250000D03*
%TD*%
D18*
%TO.P,L5,4*%
%TO.N,Net-(L4-Pad2)*%
X82950000Y-20400000D03*
%TO.P,L5,2*%
%TO.N,Net-(L5-Pad2)*%
X84450000Y-25400000D03*
%TO.P,L5,1*%
%TO.N,+5V*%
X82950000Y-25400000D03*
%TA.AperFunction,SMDPad,CuDef*%
D19*
%TO.P,L5,3*%
%TO.N,GND*%
G36*
X84660000Y-19500001D02*
G01*
X84859999Y-19700000D01*
X84660000Y-19899999D01*
X84460001Y-19700000D01*
X84660000Y-19500001D01*
G37*
%TD.AperFunction*%
D20*
X84450000Y-20500000D03*
D21*
X84350000Y-19700000D03*
%TD*%
D11*
%TO.P,SW_26,1*%
%TO.N,Net-(D14-Pad1)*%
X53090000Y-35460000D03*
%TO.P,SW_26,2*%
%TO.N,Net-(D15-Pad2)*%
X59540000Y-32920000D03*
%TD*%
D22*
%TO.P,D94,2*%
%TO.N,pin10*%
X286350000Y-99100000D03*
%TO.P,D94,1*%
%TO.N,RE1_1*%
X283050000Y-99100000D03*
%TD*%
D23*
%TO.P,REF\u002A\u002A,1*%
%TO.N,N/C*%
X298442035Y-71000000D03*
X298450000Y-75350000D03*
X294850000Y-74700000D03*
X296400000Y-71000000D03*
X296400000Y-75350000D03*
X294250000Y-73200000D03*
X294850000Y-71700000D03*
X20550000Y-74700000D03*
D24*
X40400000Y-44600000D03*
D25*
X143400000Y-63700000D03*
X205700000Y-101900000D03*
X275250000Y-44600000D03*
D23*
X40400000Y-42700000D03*
X38500000Y-44600000D03*
X42300000Y-44600000D03*
X40400000Y-46500000D03*
X39050000Y-43250000D03*
X41650000Y-43250000D03*
X39050000Y-45900000D03*
X41650000Y-45950000D03*
X275250000Y-42750000D03*
X275250000Y-46450000D03*
X276450000Y-46450000D03*
X274050000Y-46450000D03*
X274050000Y-42750000D03*
X276450000Y-42733000D03*
X205750000Y-100050000D03*
X205700000Y-103750000D03*
X206950000Y-100050000D03*
X204550000Y-100050000D03*
X204500000Y-103750000D03*
X206900000Y-103750000D03*
X143400000Y-61850000D03*
X144600000Y-61850000D03*
X142200000Y-61850000D03*
X143400000Y-65600000D03*
X142200000Y-65600000D03*
X144600000Y-65600000D03*
X21150000Y-73200000D03*
X19000000Y-71050000D03*
X19000000Y-75400000D03*
X20550000Y-71700000D03*
X16950000Y-71050000D03*
X16957965Y-75400000D03*
%TD*%
%TO.P,C1,2*%
%TO.N,+5V*%
%TA.AperFunction,SMDPad,CuDef*%
G36*
G01*
X37275000Y-94950000D02*
X36325000Y-94950000D01*
G75*
G02*
X36075000Y-94700000I0J250000D01*
G01*
X36075000Y-94025000D01*
G75*
G02*
X36325000Y-93775000I250000J0D01*
G01*
X37275000Y-93775000D01*
G75*
G02*
X37525000Y-94025000I0J-250000D01*
G01*
X37525000Y-94700000D01*
G75*
G02*
X37275000Y-94950000I-250000J0D01*
G01*
G37*
%TD.AperFunction*%
%TO.P,C1,1*%
%TO.N,GND*%
%TA.AperFunction,SMDPad,CuDef*%
G36*
G01*
X37275000Y-97025000D02*
X36325000Y-97025000D01*
G75*
G02*
X36075000Y-96775000I0J250000D01*
G01*
X36075000Y-96100000D01*
G75*
G02*
X36325000Y-95850000I250000J0D01*
G01*
X37275000Y-95850000D01*
G75*
G02*
X37525000Y-96100000I0J-250000D01*
G01*
X37525000Y-96775000D01*
G75*
G02*
X37275000Y-97025000I-250000J0D01*
G01*
G37*
%TD.AperFunction*%
%TD*%
%TO.P,C2,2*%
%TO.N,GND*%
%TA.AperFunction,SMDPad,CuDef*%
G36*
G01*
X48900000Y-77425000D02*
X48900000Y-78375000D01*
G75*
G02*
X48650000Y-78625000I-250000J0D01*
G01*
X47975000Y-78625000D01*
G75*
G02*
X47725000Y-78375000I0J250000D01*
G01*
X47725000Y-77425000D01*
G75*
G02*
X47975000Y-77175000I250000J0D01*
G01*
X48650000Y-77175000D01*
G75*
G02*
X48900000Y-77425000I0J-250000D01*
G01*
G37*
%TD.AperFunction*%
%TO.P,C2,1*%
%TO.N,Net-(C2-Pad1)*%
%TA.AperFunction,SMDPad,CuDef*%
G36*
G01*
X50975000Y-77425000D02*
X50975000Y-78375000D01*
G75*
G02*
X50725000Y-78625000I-250000J0D01*
G01*
X50050000Y-78625000D01*
G75*
G02*
X49800000Y-78375000I0J250000D01*
G01*
X49800000Y-77425000D01*
G75*
G02*
X50050000Y-77175000I250000J0D01*
G01*
X50725000Y-77175000D01*
G75*
G02*
X50975000Y-77425000I0J-250000D01*
G01*
G37*
%TD.AperFunction*%
%TD*%
%TO.P,C3,2*%
%TO.N,GND*%
%TA.AperFunction,SMDPad,CuDef*%
G36*
G01*
X45975000Y-81250000D02*
X45025000Y-81250000D01*
G75*
G02*
X44775000Y-81000000I0J250000D01*
G01*
X44775000Y-80325000D01*
G75*
G02*
X45025000Y-80075000I250000J0D01*
G01*
X45975000Y-80075000D01*
G75*
G02*
X46225000Y-80325000I0J-250000D01*
G01*
X46225000Y-81000000D01*
G75*
G02*
X45975000Y-81250000I-250000J0D01*
G01*
G37*
%TD.AperFunction*%
%TO.P,C3,1*%
%TO.N,Net-(C3-Pad1)*%
%TA.AperFunction,SMDPad,CuDef*%
G36*
G01*
X45975000Y-83325000D02*
X45025000Y-83325000D01*
G75*
G02*
X44775000Y-83075000I0J250000D01*
G01*
X44775000Y-82400000D01*
G75*
G02*
X45025000Y-82150000I250000J0D01*
G01*
X45975000Y-82150000D01*
G75*
G02*
X46225000Y-82400000I0J-250000D01*
G01*
X46225000Y-83075000D01*
G75*
G02*
X45975000Y-83325000I-250000J0D01*
G01*
G37*
%TD.AperFunction*%
%TD*%
%TO.P,C4,2*%
%TO.N,+5V*%
%TA.AperFunction,SMDPad,CuDef*%
G36*
G01*
X45050000Y-85325000D02*
X45050000Y-84375000D01*
G75*
G02*
X45300000Y-84125000I250000J0D01*
G01*
X45975000Y-84125000D01*
G75*
G02*
X46225000Y-84375000I0J-250000D01*
G01*
X46225000Y-85325000D01*
G75*
G02*
X45975000Y-85575000I-250000J0D01*
G01*
X45300000Y-85575000D01*
G75*
G02*
X45050000Y-85325000I0J250000D01*
G01*
G37*
%TD.AperFunction*%
%TO.P,C4,1*%
%TO.N,GND*%
%TA.AperFunction,SMDPad,CuDef*%
G36*
G01*
X42975000Y-85325000D02*
X42975000Y-84375000D01*
G75*
G02*
X43225000Y-84125000I250000J0D01*
G01*
X43900000Y-84125000D01*
G75*
G02*
X44150000Y-84375000I0J-250000D01*
G01*
X44150000Y-85325000D01*
G75*
G02*
X43900000Y-85575000I-250000J0D01*
G01*
X43225000Y-85575000D01*
G75*
G02*
X42975000Y-85325000I0J250000D01*
G01*
G37*
%TD.AperFunction*%
%TD*%
%TO.P,C5,2*%
%TO.N,+5V*%
%TA.AperFunction,SMDPad,CuDef*%
G36*
G01*
X59350000Y-90875000D02*
X59350000Y-89925000D01*
G75*
G02*
X59600000Y-89675000I250000J0D01*
G01*
X60275000Y-89675000D01*
G75*
G02*
X60525000Y-89925000I0J-250000D01*
G01*
X60525000Y-90875000D01*
G75*
G02*
X60275000Y-91125000I-250000J0D01*
G01*
X59600000Y-91125000D01*
G75*
G02*
X59350000Y-90875000I0J250000D01*
G01*
G37*
%TD.AperFunction*%
%TO.P,C5,1*%
%TO.N,GND*%
%TA.AperFunction,SMDPad,CuDef*%
G36*
G01*
X57275000Y-90875000D02*
X57275000Y-89925000D01*
G75*
G02*
X57525000Y-89675000I250000J0D01*
G01*
X58200000Y-89675000D01*
G75*
G02*
X58450000Y-89925000I0J-250000D01*
G01*
X58450000Y-90875000D01*
G75*
G02*
X58200000Y-91125000I-250000J0D01*
G01*
X57525000Y-91125000D01*
G75*
G02*
X57275000Y-90875000I0J250000D01*
G01*
G37*
%TD.AperFunction*%
%TD*%
%TO.P,C6,2*%
%TO.N,GND*%
%TA.AperFunction,SMDPad,CuDef*%
G36*
G01*
X38725000Y-95850000D02*
X39675000Y-95850000D01*
G75*
G02*
X39925000Y-96100000I0J-250000D01*
G01*
X39925000Y-96775000D01*
G75*
G02*
X39675000Y-97025000I-250000J0D01*
G01*
X38725000Y-97025000D01*
G75*
G02*
X38475000Y-96775000I0J250000D01*
G01*
X38475000Y-96100000D01*
G75*
G02*
X38725000Y-95850000I250000J0D01*
G01*
G37*
%TD.AperFunction*%
%TO.P,C6,1*%
%TO.N,Net-(C6-Pad1)*%
%TA.AperFunction,SMDPad,CuDef*%
G36*
G01*
X38725000Y-93775000D02*
X39675000Y-93775000D01*
G75*
G02*
X39925000Y-94025000I0J-250000D01*
G01*
X39925000Y-94700000D01*
G75*
G02*
X39675000Y-94950000I-250000J0D01*
G01*
X38725000Y-94950000D01*
G75*
G02*
X38475000Y-94700000I0J250000D01*
G01*
X38475000Y-94025000D01*
G75*
G02*
X38725000Y-93775000I250000J0D01*
G01*
G37*
%TD.AperFunction*%
%TD*%
%TO.P,C7,2*%
%TO.N,+5V*%
%TA.AperFunction,SMDPad,CuDef*%
G36*
G01*
X37850000Y-99325000D02*
X37850000Y-100275000D01*
G75*
G02*
X37600000Y-100525000I-250000J0D01*
G01*
X36925000Y-100525000D01*
G75*
G02*
X36675000Y-100275000I0J250000D01*
G01*
X36675000Y-99325000D01*
G75*
G02*
X36925000Y-99075000I250000J0D01*
G01*
X37600000Y-99075000D01*
G75*
G02*
X37850000Y-99325000I0J-250000D01*
G01*
G37*
%TD.AperFunction*%
%TO.P,C7,1*%
%TO.N,GND*%
%TA.AperFunction,SMDPad,CuDef*%
G36*
G01*
X39925000Y-99325000D02*
X39925000Y-100275000D01*
G75*
G02*
X39675000Y-100525000I-250000J0D01*
G01*
X39000000Y-100525000D01*
G75*
G02*
X38750000Y-100275000I0J250000D01*
G01*
X38750000Y-99325000D01*
G75*
G02*
X39000000Y-99075000I250000J0D01*
G01*
X39675000Y-99075000D01*
G75*
G02*
X39925000Y-99325000I0J-250000D01*
G01*
G37*
%TD.AperFunction*%
%TD*%
D22*
%TO.P,D1,2*%
%TO.N,pin1*%
X23350000Y-30900000D03*
%TO.P,D1,1*%
%TO.N,Net-(D1-Pad1)*%
X20050000Y-30900000D03*
%TD*%
D26*
%TO.P,D2,2*%
%TO.N,GND*%
X20000000Y-18650000D03*
%TO.P,D2,1*%
%TO.N,Net-(D2-Pad1)*%
X20000000Y-21950000D03*
%TD*%
D22*
%TO.P,D3,2*%
%TO.N,Net-(D3-Pad2)*%
X23350000Y-33400000D03*
%TO.P,D3,1*%
%TO.N,pin6*%
X20050000Y-33400000D03*
%TD*%
%TO.P,D4,2*%
%TO.N,Net-(D4-Pad2)*%
X23950000Y-49800000D03*
%TO.P,D4,1*%
%TO.N,pin7*%
X20650000Y-49800000D03*
%TD*%
%TO.P,D5,2*%
%TO.N,Net-(D5-Pad2)*%
X23950000Y-66200000D03*
%TO.P,D5,1*%
%TO.N,pin8*%
X20650000Y-66200000D03*
%TD*%
%TO.P,D6,2*%
%TO.N,Net-(D6-Pad2)*%
X23350000Y-82600000D03*
%TO.P,D6,1*%
%TO.N,pin9*%
X20050000Y-82600000D03*
%TD*%
%TO.P,D7,2*%
%TO.N,Net-(D7-Pad2)*%
X27050000Y-108200000D03*
%TO.P,D7,1*%
%TO.N,pin10*%
X23750000Y-108200000D03*
%TD*%
%TO.P,D8,2*%
%TO.N,RE1_2*%
X61550000Y-20400000D03*
%TO.P,D8,1*%
%TO.N,pin1*%
X58250000Y-20400000D03*
%TD*%
%TO.P,D9,2*%
%TO.N,Net-(D9-Pad2)*%
X40150000Y-33400000D03*
%TO.P,D9,1*%
%TO.N,pin1*%
X36850000Y-33400000D03*
%TD*%
%TO.P,D10,2*%
%TO.N,Net-(D10-Pad2)*%
X35550000Y-49900000D03*
%TO.P,D10,1*%
%TO.N,pin2*%
X32250000Y-49900000D03*
%TD*%
%TO.P,D11,2*%
%TO.N,Net-(D11-Pad2)*%
X35550000Y-66200000D03*
%TO.P,D11,1*%
%TO.N,pin3*%
X32250000Y-66200000D03*
%TD*%
%TO.P,D12,2*%
%TO.N,Net-(D12-Pad2)*%
X39650000Y-82600000D03*
%TO.P,D12,1*%
%TO.N,pin4*%
X36350000Y-82600000D03*
%TD*%
%TO.P,D13,2*%
%TO.N,Net-(D13-Pad2)*%
X42750000Y-108200000D03*
%TO.P,D13,1*%
%TO.N,pin5*%
X39450000Y-108200000D03*
%TD*%
%TO.P,D14,2*%
%TO.N,pin2*%
X65550000Y-47300000D03*
%TO.P,D14,1*%
%TO.N,Net-(D14-Pad1)*%
X62250000Y-47300000D03*
%TD*%
%TO.P,D15,2*%
%TO.N,Net-(D15-Pad2)*%
X56950000Y-33400000D03*
%TO.P,D15,1*%
%TO.N,pin6*%
X53650000Y-33400000D03*
%TD*%
%TO.P,D16,2*%
%TO.N,Net-(D16-Pad2)*%
X65550000Y-49800000D03*
%TO.P,D16,1*%
%TO.N,pin7*%
X62250000Y-49800000D03*
%TD*%
%TO.P,D17,2*%
%TO.N,Net-(D17-Pad2)*%
X57550000Y-66200000D03*
%TO.P,D17,1*%
%TO.N,pin8*%
X54250000Y-66200000D03*
%TD*%
%TO.P,D18,2*%
%TO.N,Net-(D18-Pad2)*%
X64850000Y-82600000D03*
%TO.P,D18,1*%
%TO.N,pin9*%
X61550000Y-82600000D03*
%TD*%
%TO.P,D19,2*%
%TO.N,Net-(D19-Pad2)*%
X61650000Y-108150000D03*
%TO.P,D19,1*%
%TO.N,pin10*%
X58350000Y-108150000D03*
%TD*%
%TO.P,D20,2*%
%TO.N,Net-(D20-Pad2)*%
X73750000Y-33400000D03*
%TO.P,D20,1*%
%TO.N,pin1*%
X70450000Y-33400000D03*
%TD*%
%TO.P,D21,2*%
%TO.N,Net-(D21-Pad2)*%
X74350000Y-49800000D03*
%TO.P,D21,1*%
%TO.N,pin2*%
X71050000Y-49800000D03*
%TD*%
%TO.P,D22,2*%
%TO.N,Net-(D22-Pad2)*%
X74350000Y-66200000D03*
%TO.P,D22,1*%
%TO.N,pin3*%
X71050000Y-66200000D03*
%TD*%
%TO.P,D23,2*%
%TO.N,Net-(D23-Pad2)*%
X73750000Y-82600000D03*
%TO.P,D23,1*%
%TO.N,pin4*%
X70450000Y-82600000D03*
%TD*%
%TO.P,D24,2*%
%TO.N,Net-(D24-Pad2)*%
X73750000Y-99000000D03*
%TO.P,D24,1*%
%TO.N,pin5*%
X70450000Y-99000000D03*
%TD*%
%TO.P,D25,2*%
%TO.N,pin3*%
X74350000Y-63400000D03*
%TO.P,D25,1*%
%TO.N,Net-(D25-Pad1)*%
X71050000Y-63400000D03*
%TD*%
%TO.P,D26,2*%
%TO.N,Net-(D26-Pad2)*%
X90550000Y-33400000D03*
%TO.P,D26,1*%
%TO.N,pin6*%
X87250000Y-33400000D03*
%TD*%
%TO.P,D27,2*%
%TO.N,Net-(D27-Pad2)*%
X95350000Y-49800000D03*
%TO.P,D27,1*%
%TO.N,pin7*%
X92050000Y-49800000D03*
%TD*%
%TO.P,D28,2*%
%TO.N,Net-(D28-Pad2)*%
X95350000Y-66200000D03*
%TO.P,D28,1*%
%TO.N,pin8*%
X92050000Y-66200000D03*
%TD*%
%TO.P,D29,2*%
%TO.N,Net-(D29-Pad2)*%
X90550000Y-82600000D03*
%TO.P,D29,1*%
%TO.N,pin9*%
X87250000Y-82600000D03*
%TD*%
%TO.P,D30,2*%
%TO.N,Net-(D30-Pad2)*%
X90550000Y-99000000D03*
%TO.P,D30,1*%
%TO.N,pin10*%
X87250000Y-99000000D03*
%TD*%
%TO.P,D31,2*%
%TO.N,Net-(D31-Pad2)*%
X107350000Y-33400000D03*
%TO.P,D31,1*%
%TO.N,pin1*%
X104050000Y-33400000D03*
%TD*%
%TO.P,D32,2*%
%TO.N,Net-(D32-Pad2)*%
X115950000Y-49800000D03*
%TO.P,D32,1*%
%TO.N,pin2*%
X112650000Y-49800000D03*
%TD*%
%TO.P,D33,2*%
%TO.N,Net-(D33-Pad2)*%
X115750000Y-66200000D03*
%TO.P,D33,1*%
%TO.N,pin3*%
X112450000Y-66200000D03*
%TD*%
%TO.P,D34,2*%
%TO.N,Net-(D34-Pad2)*%
X107350000Y-82600000D03*
%TO.P,D34,1*%
%TO.N,pin4*%
X104050000Y-82600000D03*
%TD*%
%TO.P,D35,2*%
%TO.N,Net-(D35-Pad2)*%
X107950000Y-99000000D03*
%TO.P,D35,1*%
%TO.N,pin5*%
X104650000Y-99000000D03*
%TD*%
%TO.P,D36,2*%
%TO.N,pin4*%
X107350000Y-79800000D03*
%TO.P,D36,1*%
%TO.N,Net-(D36-Pad1)*%
X104050000Y-79800000D03*
%TD*%
%TO.P,D37,2*%
%TO.N,Net-(D37-Pad2)*%
X124150000Y-33400000D03*
%TO.P,D37,1*%
%TO.N,pin6*%
X120850000Y-33400000D03*
%TD*%
%TO.P,D38,2*%
%TO.N,Net-(D38-Pad2)*%
X132750000Y-49800000D03*
%TO.P,D38,1*%
%TO.N,pin7*%
X129450000Y-49800000D03*
%TD*%
%TO.P,D39,2*%
%TO.N,Net-(D39-Pad2)*%
X132550000Y-66200000D03*
%TO.P,D39,1*%
%TO.N,pin8*%
X129250000Y-66200000D03*
%TD*%
%TO.P,D40,2*%
%TO.N,Net-(D40-Pad2)*%
X124150000Y-82600000D03*
%TO.P,D40,1*%
%TO.N,pin9*%
X120850000Y-82600000D03*
%TD*%
%TO.P,D41,2*%
%TO.N,Net-(D41-Pad2)*%
X124750000Y-99000000D03*
%TO.P,D41,1*%
%TO.N,pin10*%
X121450000Y-99000000D03*
%TD*%
%TO.P,D42,2*%
%TO.N,Net-(D42-Pad2)*%
X140950000Y-33400000D03*
%TO.P,D42,1*%
%TO.N,pin1*%
X137650000Y-33400000D03*
%TD*%
%TO.P,D43,2*%
%TO.N,Net-(D43-Pad2)*%
X149550000Y-49800000D03*
%TO.P,D43,1*%
%TO.N,pin2*%
X146250000Y-49800000D03*
%TD*%
%TO.P,D44,2*%
%TO.N,Net-(D44-Pad2)*%
X157150000Y-66200000D03*
%TO.P,D44,1*%
%TO.N,pin3*%
X153850000Y-66200000D03*
%TD*%
%TO.P,D45,2*%
%TO.N,Net-(D45-Pad2)*%
X140950000Y-82600000D03*
%TO.P,D45,1*%
%TO.N,pin4*%
X137650000Y-82600000D03*
%TD*%
%TO.P,D46,2*%
%TO.N,Net-(D46-Pad2)*%
X141550000Y-99000000D03*
%TO.P,D46,1*%
%TO.N,pin5*%
X138250000Y-99000000D03*
%TD*%
%TO.P,D47,2*%
%TO.N,pin5*%
X141550000Y-96100000D03*
%TO.P,D47,1*%
%TO.N,Net-(D47-Pad1)*%
X138250000Y-96100000D03*
%TD*%
%TO.P,D48,2*%
%TO.N,Net-(D48-Pad2)*%
X157750000Y-33400000D03*
%TO.P,D48,1*%
%TO.N,pin6*%
X154450000Y-33400000D03*
%TD*%
%TO.P,D49,2*%
%TO.N,Net-(D49-Pad2)*%
X166350000Y-49800000D03*
%TO.P,D49,1*%
%TO.N,pin7*%
X163050000Y-49800000D03*
%TD*%
%TO.P,D50,2*%
%TO.N,Net-(D50-Pad2)*%
X166150000Y-66200000D03*
%TO.P,D50,1*%
%TO.N,pin8*%
X162850000Y-66200000D03*
%TD*%
%TO.P,D51,2*%
%TO.N,Net-(D51-Pad2)*%
X157750000Y-82600000D03*
%TO.P,D51,1*%
%TO.N,pin9*%
X154450000Y-82600000D03*
%TD*%
%TO.P,D52,2*%
%TO.N,Net-(D52-Pad2)*%
X157750000Y-99000000D03*
%TO.P,D52,1*%
%TO.N,pin10*%
X154450000Y-99000000D03*
%TD*%
%TO.P,D53,2*%
%TO.N,RE3_2*%
X170750000Y-20400000D03*
%TO.P,D53,1*%
%TO.N,pin3*%
X167450000Y-20400000D03*
%TD*%
%TO.P,D54,2*%
%TO.N,Net-(D54-Pad2)*%
X174550000Y-33400000D03*
%TO.P,D54,1*%
%TO.N,pin1*%
X171250000Y-33400000D03*
%TD*%
%TO.P,D55,2*%
%TO.N,Net-(D55-Pad2)*%
X183150000Y-49800000D03*
%TO.P,D55,1*%
%TO.N,pin2*%
X179850000Y-49800000D03*
%TD*%
%TO.P,D56,2*%
%TO.N,Net-(D56-Pad2)*%
X182950000Y-66200000D03*
%TO.P,D56,1*%
%TO.N,pin3*%
X179650000Y-66200000D03*
%TD*%
%TO.P,D57,2*%
%TO.N,Net-(D57-Pad2)*%
X174550000Y-82600000D03*
%TO.P,D57,1*%
%TO.N,pin4*%
X171250000Y-82600000D03*
%TD*%
%TO.P,D58,2*%
%TO.N,Net-(D58-Pad2)*%
X174550000Y-99000000D03*
%TO.P,D58,1*%
%TO.N,pin5*%
X171250000Y-99000000D03*
%TD*%
%TO.P,D59,2*%
%TO.N,pin6*%
X185350000Y-33400000D03*
%TO.P,D59,1*%
%TO.N,Net-(D59-Pad1)*%
X182050000Y-33400000D03*
%TD*%
%TO.P,D60,2*%
%TO.N,Net-(D60-Pad2)*%
X191350000Y-33400000D03*
%TO.P,D60,1*%
%TO.N,pin6*%
X188050000Y-33400000D03*
%TD*%
%TO.P,D61,2*%
%TO.N,Net-(D61-Pad2)*%
X199950000Y-49800000D03*
%TO.P,D61,1*%
%TO.N,pin7*%
X196650000Y-49800000D03*
%TD*%
%TO.P,D62,2*%
%TO.N,Net-(D62-Pad2)*%
X199750000Y-66200000D03*
%TO.P,D62,1*%
%TO.N,pin8*%
X196450000Y-66200000D03*
%TD*%
%TO.P,D63,2*%
%TO.N,Net-(D63-Pad2)*%
X191350000Y-82600000D03*
%TO.P,D63,1*%
%TO.N,pin9*%
X188050000Y-82600000D03*
%TD*%
%TO.P,D64,2*%
%TO.N,Net-(D64-Pad2)*%
X191350000Y-99000000D03*
%TO.P,D64,1*%
%TO.N,pin10*%
X188050000Y-99000000D03*
%TD*%
%TO.P,D65,2*%
%TO.N,RE4_2*%
X204350000Y-20400000D03*
%TO.P,D65,1*%
%TO.N,pin4*%
X201050000Y-20400000D03*
%TD*%
%TO.P,D66,2*%
%TO.N,Net-(D66-Pad2)*%
X208150000Y-33400000D03*
%TO.P,D66,1*%
%TO.N,pin1*%
X204850000Y-33400000D03*
%TD*%
%TO.P,D67,2*%
%TO.N,Net-(D67-Pad2)*%
X216550000Y-49800000D03*
%TO.P,D67,1*%
%TO.N,pin2*%
X213250000Y-49800000D03*
%TD*%
%TO.P,D68,2*%
%TO.N,Net-(D68-Pad2)*%
X216550000Y-66200000D03*
%TO.P,D68,1*%
%TO.N,pin3*%
X213250000Y-66200000D03*
%TD*%
%TO.P,D69,2*%
%TO.N,Net-(D69-Pad2)*%
X208150000Y-82600000D03*
%TO.P,D69,1*%
%TO.N,pin4*%
X204850000Y-82600000D03*
%TD*%
%TO.P,D70,2*%
%TO.N,Net-(D70-Pad2)*%
X200950000Y-99000000D03*
%TO.P,D70,1*%
%TO.N,pin5*%
X197650000Y-99000000D03*
%TD*%
%TO.P,D71,2*%
%TO.N,pin7*%
X227050000Y-49800000D03*
%TO.P,D71,1*%
%TO.N,Net-(D71-Pad1)*%
X223750000Y-49800000D03*
%TD*%
%TO.P,D72,2*%
%TO.N,Net-(D72-Pad2)*%
X224950000Y-33400000D03*
%TO.P,D72,1*%
%TO.N,pin6*%
X221650000Y-33400000D03*
%TD*%
%TO.P,D73,2*%
%TO.N,Net-(D73-Pad2)*%
X233350000Y-49800000D03*
%TO.P,D73,1*%
%TO.N,pin7*%
X230050000Y-49800000D03*
%TD*%
%TO.P,D74,2*%
%TO.N,Net-(D74-Pad2)*%
X233350000Y-66200000D03*
%TO.P,D74,1*%
%TO.N,pin8*%
X230050000Y-66200000D03*
%TD*%
%TO.P,D75,2*%
%TO.N,Net-(D75-Pad2)*%
X224950000Y-82600000D03*
%TO.P,D75,1*%
%TO.N,pin9*%
X221650000Y-82600000D03*
%TD*%
%TO.P,D76,2*%
%TO.N,Net-(D76-Pad2)*%
X219150000Y-99000000D03*
%TO.P,D76,1*%
%TO.N,pin10*%
X215850000Y-99000000D03*
%TD*%
%TO.P,D77,2*%
%TO.N,RE5_2*%
X237950000Y-20400000D03*
%TO.P,D77,1*%
%TO.N,pin5*%
X234650000Y-20400000D03*
%TD*%
%TO.P,D78,2*%
%TO.N,Net-(D78-Pad2)*%
X241750000Y-33400000D03*
%TO.P,D78,1*%
%TO.N,pin1*%
X238450000Y-33400000D03*
%TD*%
%TO.P,D79,2*%
%TO.N,Net-(D79-Pad2)*%
X250150000Y-49800000D03*
%TO.P,D79,1*%
%TO.N,pin2*%
X246850000Y-49800000D03*
%TD*%
%TO.P,D80,2*%
%TO.N,Net-(D80-Pad2)*%
X250150000Y-66200000D03*
%TO.P,D80,1*%
%TO.N,pin3*%
X246850000Y-66200000D03*
%TD*%
%TO.P,D81,2*%
%TO.N,Net-(D81-Pad2)*%
X241750000Y-82600000D03*
%TO.P,D81,1*%
%TO.N,pin4*%
X238450000Y-82600000D03*
%TD*%
%TO.P,D82,2*%
%TO.N,Net-(D82-Pad2)*%
X235950000Y-99000000D03*
%TO.P,D82,1*%
%TO.N,pin5*%
X232650000Y-99000000D03*
%TD*%
%TO.P,D83,2*%
%TO.N,pin8*%
X261650000Y-66200000D03*
%TO.P,D83,1*%
%TO.N,Net-(D83-Pad1)*%
X258350000Y-66200000D03*
%TD*%
%TO.P,D84,2*%
%TO.N,Net-(D84-Pad2)*%
X258550000Y-33400000D03*
%TO.P,D84,1*%
%TO.N,pin6*%
X255250000Y-33400000D03*
%TD*%
%TO.P,D85,2*%
%TO.N,Net-(D85-Pad2)*%
X267550000Y-49800000D03*
%TO.P,D85,1*%
%TO.N,pin7*%
X264250000Y-49800000D03*
%TD*%
%TO.P,D86,2*%
%TO.N,Net-(D86-Pad2)*%
X267550000Y-66200000D03*
%TO.P,D86,1*%
%TO.N,pin8*%
X264250000Y-66200000D03*
%TD*%
%TO.P,D87,2*%
%TO.N,Net-(D87-Pad2)*%
X258550000Y-82600000D03*
%TO.P,D87,1*%
%TO.N,pin9*%
X255250000Y-82600000D03*
%TD*%
%TO.P,D88,2*%
%TO.N,Net-(D88-Pad2)*%
X256950000Y-99000000D03*
%TO.P,D88,1*%
%TO.N,pin10*%
X253650000Y-99000000D03*
%TD*%
%TO.P,D89,2*%
%TO.N,RE6_2*%
X271550000Y-20400000D03*
%TO.P,D89,1*%
%TO.N,pin2*%
X268250000Y-20400000D03*
%TD*%
%TO.P,D90,2*%
%TO.N,Net-(D90-Pad2)*%
X275350000Y-33400000D03*
%TO.P,D90,1*%
%TO.N,pin1*%
X272050000Y-33400000D03*
%TD*%
%TO.P,D91,2*%
%TO.N,Net-(D91-Pad2)*%
X275350000Y-82600000D03*
%TO.P,D91,1*%
%TO.N,pin4*%
X272050000Y-82600000D03*
%TD*%
%TO.P,D92,2*%
%TO.N,Net-(D92-Pad2)*%
X275350000Y-99000000D03*
%TO.P,D92,1*%
%TO.N,pin5*%
X272050000Y-99000000D03*
%TD*%
%TO.P,D93,2*%
%TO.N,pin9*%
X284650000Y-82600000D03*
%TO.P,D93,1*%
%TO.N,RE6_1*%
X281350000Y-82600000D03*
%TD*%
%TO.P,D95,2*%
%TO.N,Net-(D95-Pad2)*%
X292150000Y-33400000D03*
%TO.P,D95,1*%
%TO.N,pin6*%
X288850000Y-33400000D03*
%TD*%
%TO.P,D96,2*%
%TO.N,Net-(D96-Pad2)*%
X288550000Y-49800000D03*
%TO.P,D96,1*%
%TO.N,pin7*%
X285250000Y-49800000D03*
%TD*%
%TO.P,D97,2*%
%TO.N,Net-(D97-Pad2)*%
X288550000Y-66200000D03*
%TO.P,D97,1*%
%TO.N,pin8*%
X285250000Y-66200000D03*
%TD*%
%TO.P,D98,2*%
%TO.N,Net-(D98-Pad2)*%
X292150000Y-82600000D03*
%TO.P,D98,1*%
%TO.N,pin9*%
X288850000Y-82600000D03*
%TD*%
%TO.P,D99,2*%
%TO.N,Net-(D99-Pad2)*%
X292350000Y-99000000D03*
%TO.P,D99,1*%
%TO.N,pin10*%
X289050000Y-99000000D03*
%TD*%
%TO.P,D100,2*%
%TO.N,RE2_2*%
X137150000Y-20400000D03*
%TO.P,D100,1*%
%TO.N,pin2*%
X133850000Y-20400000D03*
%TD*%
D27*
%TO.P,D102,4*%
%TO.N,VCC*%
X34475000Y-26925000D03*
%TO.P,D102,3*%
%TO.N,Net-(D102-Pad3)*%
X34475000Y-25025000D03*
%TO.P,D102,2*%
%TO.N,Net-(D102-Pad2)*%
X32275000Y-25025000D03*
D28*
%TO.P,D102,1*%
%TO.N,GND*%
X32275000Y-26745000D03*
%TD*%
%TO.P,F1,2*%
%TO.N,VCC*%
%TA.AperFunction,SMDPad,CuDef*%
G36*
G01*
X40125000Y-26075000D02*
X40125000Y-27325000D01*
G75*
G02*
X39875000Y-27575000I-250000J0D01*
G01*
X38950000Y-27575000D01*
G75*
G02*
X38700000Y-27325000I0J250000D01*
G01*
X38700000Y-26075000D01*
G75*
G02*
X38950000Y-25825000I250000J0D01*
G01*
X39875000Y-25825000D01*
G75*
G02*
X40125000Y-26075000I0J-250000D01*
G01*
G37*
%TD.AperFunction*%
%TO.P,F1,1*%
%TO.N,+5V*%
%TA.AperFunction,SMDPad,CuDef*%
G36*
G01*
X43100000Y-26075000D02*
X43100000Y-27325000D01*
G75*
G02*
X42850000Y-27575000I-250000J0D01*
G01*
X41925000Y-27575000D01*
G75*
G02*
X41675000Y-27325000I0J250000D01*
G01*
X41675000Y-26075000D01*
G75*
G02*
X41925000Y-25825000I250000J0D01*
G01*
X42850000Y-25825000D01*
G75*
G02*
X43100000Y-26075000I0J-250000D01*
G01*
G37*
%TD.AperFunction*%
%TD*%
D29*
%TO.P,J2,2*%
%TO.N,pin8*%
X280840000Y-74700000D03*
D30*
%TO.P,J2,1*%
%TO.N,RE6_1*%
X278300000Y-74700000D03*
%TD*%
D31*
%TO.P,JP1,1*%
%TO.N,AUDIO2[Reserve]*%
X26700000Y-26950000D03*
%TO.P,JP1,2*%
%TO.N,AUDIO1*%
X26700000Y-25650000D03*
%TD*%
%TO.P,JP_LED1,1*%
%TO.N,Net-(JP_LED1-Pad1)*%
X61225000Y-24000000D03*
%TO.P,JP_LED1,2*%
%TO.N,LED*%
X61225000Y-25300000D03*
%TO.P,JP_LED1,3*%
%TO.N,Net-(JP_LED1-Pad3)*%
X61225000Y-26600000D03*
%TD*%
%TO.P,JP_LED2,1*%
%TO.N,Net-(JP_LED2-Pad1)*%
X117550000Y-19650000D03*
%TO.P,JP_LED2,2*%
%TO.N,Net-(JP_LED2-Pad2)*%
X117550000Y-20950000D03*
%TO.P,JP_LED2,3*%
%TO.N,Net-(JP_LED2-Pad3)*%
X117550000Y-22250000D03*
%TD*%
D18*
%TO.P,L1,4*%
%TO.N,Net-(JP_LED1-Pad1)*%
X66950000Y-20400000D03*
%TO.P,L1,2*%
%TO.N,Net-(L1-Pad2)*%
X68450000Y-25400000D03*
%TO.P,L1,1*%
%TO.N,+5V*%
X66950000Y-25400000D03*
%TA.AperFunction,SMDPad,CuDef*%
D19*
%TO.P,L1,3*%
%TO.N,GND*%
G36*
X68660000Y-19500001D02*
G01*
X68859999Y-19700000D01*
X68660000Y-19899999D01*
X68460001Y-19700000D01*
X68660000Y-19500001D01*
G37*
%TD.AperFunction*%
D20*
X68450000Y-20500000D03*
D21*
X68350000Y-19700000D03*
%TD*%
D18*
%TO.P,L2,4*%
%TO.N,Net-(L1-Pad2)*%
X70950000Y-20400000D03*
%TO.P,L2,2*%
%TO.N,Net-(L2-Pad2)*%
X72450000Y-25400000D03*
%TO.P,L2,1*%
%TO.N,+5V*%
X70950000Y-25400000D03*
%TA.AperFunction,SMDPad,CuDef*%
D19*
%TO.P,L2,3*%
%TO.N,GND*%
G36*
X72660000Y-19500001D02*
G01*
X72859999Y-19700000D01*
X72660000Y-19899999D01*
X72460001Y-19700000D01*
X72660000Y-19500001D01*
G37*
%TD.AperFunction*%
D20*
X72450000Y-20500000D03*
D21*
X72350000Y-19700000D03*
%TD*%
D18*
%TO.P,L3,4*%
%TO.N,Net-(L2-Pad2)*%
X74950000Y-20400000D03*
%TO.P,L3,2*%
%TO.N,Net-(L3-Pad2)*%
X76450000Y-25400000D03*
%TO.P,L3,1*%
%TO.N,+5V*%
X74950000Y-25400000D03*
%TA.AperFunction,SMDPad,CuDef*%
D19*
%TO.P,L3,3*%
%TO.N,GND*%
G36*
X76660000Y-19500001D02*
G01*
X76859999Y-19700000D01*
X76660000Y-19899999D01*
X76460001Y-19700000D01*
X76660000Y-19500001D01*
G37*
%TD.AperFunction*%
D20*
X76450000Y-20500000D03*
D21*
X76350000Y-19700000D03*
%TD*%
D18*
%TO.P,L4,4*%
%TO.N,Net-(L3-Pad2)*%
X78950000Y-20400000D03*
%TO.P,L4,2*%
%TO.N,Net-(L4-Pad2)*%
X80450000Y-25400000D03*
%TO.P,L4,1*%
%TO.N,+5V*%
X78950000Y-25400000D03*
%TA.AperFunction,SMDPad,CuDef*%
D19*
%TO.P,L4,3*%
%TO.N,GND*%
G36*
X80660000Y-19500001D02*
G01*
X80859999Y-19700000D01*
X80660000Y-19899999D01*
X80460001Y-19700000D01*
X80660000Y-19500001D01*
G37*
%TD.AperFunction*%
D20*
X80450000Y-20500000D03*
D21*
X80350000Y-19700000D03*
%TD*%
D32*
%TO.P,L6,4*%
%TO.N,Net-(L5-Pad2)*%
X100800000Y-19950000D03*
%TO.P,L6,2*%
%TO.N,Net-(L6-Pad2)*%
X105800000Y-18450000D03*
%TO.P,L6,1*%
%TO.N,+5V*%
X105800000Y-19950000D03*
%TA.AperFunction,SMDPad,CuDef*%
D19*
%TO.P,L6,3*%
%TO.N,GND*%
G36*
X99900001Y-18240000D02*
G01*
X100100000Y-18040001D01*
X100299999Y-18240000D01*
X100100000Y-18439999D01*
X99900001Y-18240000D01*
G37*
%TD.AperFunction*%
D33*
X100900000Y-18450000D03*
D34*
X100100000Y-18550000D03*
%TD*%
D32*
%TO.P,L7,4*%
%TO.N,Net-(L6-Pad2)*%
X100800000Y-23750000D03*
%TO.P,L7,2*%
%TO.N,Net-(L7-Pad2)*%
X105800000Y-22250000D03*
%TO.P,L7,1*%
%TO.N,+5V*%
X105800000Y-23750000D03*
%TA.AperFunction,SMDPad,CuDef*%
D19*
%TO.P,L7,3*%
%TO.N,GND*%
G36*
X99900001Y-22040000D02*
G01*
X100100000Y-21840001D01*
X100299999Y-22040000D01*
X100100000Y-22239999D01*
X99900001Y-22040000D01*
G37*
%TD.AperFunction*%
D33*
X100900000Y-22250000D03*
D34*
X100100000Y-22350000D03*
%TD*%
D32*
%TO.P,L8,4*%
%TO.N,Net-(L7-Pad2)*%
X100800000Y-27550000D03*
%TO.P,L8,2*%
%TO.N,Net-(L8-Pad2)*%
X105800000Y-26050000D03*
%TO.P,L8,1*%
%TO.N,+5V*%
X105800000Y-27550000D03*
%TA.AperFunction,SMDPad,CuDef*%
D19*
%TO.P,L8,3*%
%TO.N,GND*%
G36*
X99900001Y-25840000D02*
G01*
X100100000Y-25640001D01*
X100299999Y-25840000D01*
X100100000Y-26039999D01*
X99900001Y-25840000D01*
G37*
%TD.AperFunction*%
D33*
X100900000Y-26050000D03*
D34*
X100100000Y-26150000D03*
%TD*%
D18*
%TO.P,L9,4*%
%TO.N,Net-(L8-Pad2)*%
X45650000Y-17950000D03*
%TO.P,L9,2*%
%TO.N,Net-(JP_LED2-Pad2)*%
X47150000Y-22950000D03*
%TO.P,L9,1*%
%TO.N,+5V*%
X45650000Y-22950000D03*
%TA.AperFunction,SMDPad,CuDef*%
D19*
%TO.P,L9,3*%
%TO.N,GND*%
G36*
X47360000Y-17050001D02*
G01*
X47559999Y-17250000D01*
X47360000Y-17449999D01*
X47160001Y-17250000D01*
X47360000Y-17050001D01*
G37*
%TD.AperFunction*%
D20*
X47150000Y-18050000D03*
D21*
X47050000Y-17250000D03*
%TD*%
D18*
%TO.P,L10,4*%
%TO.N,Net-(JP_LED2-Pad1)*%
X121250000Y-17950000D03*
%TO.P,L10,2*%
%TO.N,Net-(JP_LED2-Pad3)*%
X122750000Y-22950000D03*
%TO.P,L10,1*%
%TO.N,+5V*%
X121250000Y-22950000D03*
%TA.AperFunction,SMDPad,CuDef*%
D19*
%TO.P,L10,3*%
%TO.N,GND*%
G36*
X122960000Y-17050001D02*
G01*
X123159999Y-17250000D01*
X122960000Y-17449999D01*
X122760001Y-17250000D01*
X122960000Y-17050001D01*
G37*
%TD.AperFunction*%
D20*
X122750000Y-18050000D03*
D21*
X122650000Y-17250000D03*
%TD*%
D18*
%TO.P,L11,4*%
%TO.N,Net-(JP_LED2-Pad3)*%
X154850000Y-17950000D03*
%TO.P,L11,2*%
%TO.N,Net-(L11-Pad2)*%
X156350000Y-22950000D03*
%TO.P,L11,1*%
%TO.N,+5V*%
X154850000Y-22950000D03*
%TA.AperFunction,SMDPad,CuDef*%
D19*
%TO.P,L11,3*%
%TO.N,GND*%
G36*
X156560000Y-17050001D02*
G01*
X156759999Y-17250000D01*
X156560000Y-17449999D01*
X156360001Y-17250000D01*
X156560000Y-17050001D01*
G37*
%TD.AperFunction*%
D20*
X156350000Y-18050000D03*
D21*
X156250000Y-17250000D03*
%TD*%
D18*
%TO.P,L12,4*%
%TO.N,Net-(L11-Pad2)*%
X188450000Y-17950000D03*
%TO.P,L12,2*%
%TO.N,Net-(L12-Pad2)*%
X189950000Y-22950000D03*
%TO.P,L12,1*%
%TO.N,+5V*%
X188450000Y-22950000D03*
%TA.AperFunction,SMDPad,CuDef*%
D19*
%TO.P,L12,3*%
%TO.N,GND*%
G36*
X190160000Y-17050001D02*
G01*
X190359999Y-17250000D01*
X190160000Y-17449999D01*
X189960001Y-17250000D01*
X190160000Y-17050001D01*
G37*
%TD.AperFunction*%
D20*
X189950000Y-18050000D03*
D21*
X189850000Y-17250000D03*
%TD*%
D18*
%TO.P,L14,4*%
%TO.N,Net-(L13-Pad2)*%
X255650000Y-17950000D03*
%TO.P,L14,2*%
%TO.N,Net-(JP_LED1-Pad3)*%
X257150000Y-22950000D03*
%TO.P,L14,1*%
%TO.N,+5V*%
X255650000Y-22950000D03*
%TA.AperFunction,SMDPad,CuDef*%
D19*
%TO.P,L14,3*%
%TO.N,GND*%
G36*
X257360000Y-17050001D02*
G01*
X257559999Y-17250000D01*
X257360000Y-17449999D01*
X257160001Y-17250000D01*
X257360000Y-17050001D01*
G37*
%TD.AperFunction*%
D20*
X257150000Y-18050000D03*
D21*
X257050000Y-17250000D03*
%TD*%
D35*
%TO.P,L15,3*%
%TO.N,GND*%
X291450000Y-74470000D03*
%TO.P,L15,2*%
%TO.N,Net-(JP_LED1-Pad3)*%
X291450000Y-77010000D03*
%TO.P,L15,1*%
%TO.N,+5V*%
X291450000Y-79550000D03*
%TD*%
D36*
%TO.P,OL1,4*%
%TO.N,GND*%
X142300000Y-19290000D03*
%TO.P,OL1,3*%
%TO.N,+5V*%
X142300000Y-21830000D03*
%TO.P,OL1,2*%
%TO.N,SCL_RE2B*%
X142300000Y-24370000D03*
%TO.P,OL1,1*%
%TO.N,SDA_RE2A*%
X142300000Y-26910000D03*
%TD*%
%TO.P,R1,2*%
%TO.N,Net-(D2-Pad1)*%
%TA.AperFunction,SMDPad,CuDef*%
G36*
G01*
X22700000Y-24949999D02*
X22700000Y-25850001D01*
G75*
G02*
X22450001Y-26100000I-249999J0D01*
G01*
X21749999Y-26100000D01*
G75*
G02*
X21500000Y-25850001I0J249999D01*
G01*
X21500000Y-24949999D01*
G75*
G02*
X21749999Y-24700000I249999J0D01*
G01*
X22450001Y-24700000D01*
G75*
G02*
X22700000Y-24949999I0J-249999D01*
G01*
G37*
%TD.AperFunction*%
%TO.P,R1,1*%
%TO.N,AUDIO1*%
%TA.AperFunction,SMDPad,CuDef*%
G36*
G01*
X24700000Y-24949999D02*
X24700000Y-25850001D01*
G75*
G02*
X24450001Y-26100000I-249999J0D01*
G01*
X23749999Y-26100000D01*
G75*
G02*
X23500000Y-25850001I0J249999D01*
G01*
X23500000Y-24949999D01*
G75*
G02*
X23749999Y-24700000I249999J0D01*
G01*
X24450001Y-24700000D01*
G75*
G02*
X24700000Y-24949999I0J-249999D01*
G01*
G37*
%TD.AperFunction*%
%TD*%
%TO.P,R4,2*%
%TO.N,Net-(R4-Pad2)*%
%TA.AperFunction,SMDPad,CuDef*%
G36*
G01*
X34800000Y-63750001D02*
X34800000Y-62849999D01*
G75*
G02*
X35049999Y-62600000I249999J0D01*
G01*
X35750001Y-62600000D01*
G75*
G02*
X36000000Y-62849999I0J-249999D01*
G01*
X36000000Y-63750001D01*
G75*
G02*
X35750001Y-64000000I-249999J0D01*
G01*
X35049999Y-64000000D01*
G75*
G02*
X34800000Y-63750001I0J249999D01*
G01*
G37*
%TD.AperFunction*%
%TO.P,R4,1*%
%TO.N,+5V*%
%TA.AperFunction,SMDPad,CuDef*%
G36*
G01*
X32800000Y-63750001D02*
X32800000Y-62849999D01*
G75*
G02*
X33049999Y-62600000I249999J0D01*
G01*
X33750001Y-62600000D01*
G75*
G02*
X34000000Y-62849999I0J-249999D01*
G01*
X34000000Y-63750001D01*
G75*
G02*
X33750001Y-64000000I-249999J0D01*
G01*
X33049999Y-64000000D01*
G75*
G02*
X32800000Y-63750001I0J249999D01*
G01*
G37*
%TD.AperFunction*%
%TD*%
%TO.P,R5,2*%
%TO.N,Net-(J1-PadB5)*%
%TA.AperFunction,SMDPad,CuDef*%
G36*
G01*
X25400000Y-19350001D02*
X25400000Y-18449999D01*
G75*
G02*
X25649999Y-18200000I249999J0D01*
G01*
X26350001Y-18200000D01*
G75*
G02*
X26600000Y-18449999I0J-249999D01*
G01*
X26600000Y-19350001D01*
G75*
G02*
X26350001Y-19600000I-249999J0D01*
G01*
X25649999Y-19600000D01*
G75*
G02*
X25400000Y-19350001I0J249999D01*
G01*
G37*
%TD.AperFunction*%
%TO.P,R5,1*%
%TO.N,GND*%
%TA.AperFunction,SMDPad,CuDef*%
G36*
G01*
X23400000Y-19350001D02*
X23400000Y-18449999D01*
G75*
G02*
X23649999Y-18200000I249999J0D01*
G01*
X24350001Y-18200000D01*
G75*
G02*
X24600000Y-18449999I0J-249999D01*
G01*
X24600000Y-19350001D01*
G75*
G02*
X24350001Y-19600000I-249999J0D01*
G01*
X23649999Y-19600000D01*
G75*
G02*
X23400000Y-19350001I0J249999D01*
G01*
G37*
%TD.AperFunction*%
%TD*%
%TO.P,R6,2*%
%TO.N,Net-(J1-PadA5)*%
%TA.AperFunction,SMDPad,CuDef*%
G36*
G01*
X25400000Y-21650001D02*
X25400000Y-20749999D01*
G75*
G02*
X25649999Y-20500000I249999J0D01*
G01*
X26350001Y-20500000D01*
G75*
G02*
X26600000Y-20749999I0J-249999D01*
G01*
X26600000Y-21650001D01*
G75*
G02*
X26350001Y-21900000I-249999J0D01*
G01*
X25649999Y-21900000D01*
G75*
G02*
X25400000Y-21650001I0J249999D01*
G01*
G37*
%TD.AperFunction*%
%TO.P,R6,1*%
%TO.N,GND*%
%TA.AperFunction,SMDPad,CuDef*%
G36*
G01*
X23400000Y-21650001D02*
X23400000Y-20749999D01*
G75*
G02*
X23649999Y-20500000I249999J0D01*
G01*
X24350001Y-20500000D01*
G75*
G02*
X24600000Y-20749999I0J-249999D01*
G01*
X24600000Y-21650001D01*
G75*
G02*
X24350001Y-21900000I-249999J0D01*
G01*
X23649999Y-21900000D01*
G75*
G02*
X23400000Y-21650001I0J249999D01*
G01*
G37*
%TD.AperFunction*%
%TD*%
%TO.P,R7,2*%
%TO.N,Net-(D102-Pad3)*%
%TA.AperFunction,SMDPad,CuDef*%
G36*
G01*
X37100001Y-25625000D02*
X36199999Y-25625000D01*
G75*
G02*
X35950000Y-25375001I0J249999D01*
G01*
X35950000Y-24674999D01*
G75*
G02*
X36199999Y-24425000I249999J0D01*
G01*
X37100001Y-24425000D01*
G75*
G02*
X37350000Y-24674999I0J-249999D01*
G01*
X37350000Y-25375001D01*
G75*
G02*
X37100001Y-25625000I-249999J0D01*
G01*
G37*
%TD.AperFunction*%
%TO.P,R7,1*%
%TO.N,D-*%
%TA.AperFunction,SMDPad,CuDef*%
G36*
G01*
X37100001Y-27625000D02*
X36199999Y-27625000D01*
G75*
G02*
X35950000Y-27375001I0J249999D01*
G01*
X35950000Y-26674999D01*
G75*
G02*
X36199999Y-26425000I249999J0D01*
G01*
X37100001Y-26425000D01*
G75*
G02*
X37350000Y-26674999I0J-249999D01*
G01*
X37350000Y-27375001D01*
G75*
G02*
X37100001Y-27625000I-249999J0D01*
G01*
G37*
%TD.AperFunction*%
%TD*%
%TO.P,R8,2*%
%TO.N,Net-(D102-Pad2)*%
%TA.AperFunction,SMDPad,CuDef*%
G36*
G01*
X30550001Y-25625000D02*
X29649999Y-25625000D01*
G75*
G02*
X29400000Y-25375001I0J249999D01*
G01*
X29400000Y-24674999D01*
G75*
G02*
X29649999Y-24425000I249999J0D01*
G01*
X30550001Y-24425000D01*
G75*
G02*
X30800000Y-24674999I0J-249999D01*
G01*
X30800000Y-25375001D01*
G75*
G02*
X30550001Y-25625000I-249999J0D01*
G01*
G37*
%TD.AperFunction*%
%TO.P,R8,1*%
%TO.N,D+*%
%TA.AperFunction,SMDPad,CuDef*%
G36*
G01*
X30550001Y-27625000D02*
X29649999Y-27625000D01*
G75*
G02*
X29400000Y-27375001I0J249999D01*
G01*
X29400000Y-26674999D01*
G75*
G02*
X29649999Y-26425000I249999J0D01*
G01*
X30550001Y-26425000D01*
G75*
G02*
X30800000Y-26674999I0J-249999D01*
G01*
X30800000Y-27375001D01*
G75*
G02*
X30550001Y-27625000I-249999J0D01*
G01*
G37*
%TD.AperFunction*%
%TD*%
%TO.P,R9,2*%
%TO.N,Net-(R9-Pad2)*%
%TA.AperFunction,SMDPad,CuDef*%
G36*
G01*
X63200000Y-101925001D02*
X63200000Y-101024999D01*
G75*
G02*
X63449999Y-100775000I249999J0D01*
G01*
X64150001Y-100775000D01*
G75*
G02*
X64400000Y-101024999I0J-249999D01*
G01*
X64400000Y-101925001D01*
G75*
G02*
X64150001Y-102175000I-249999J0D01*
G01*
X63449999Y-102175000D01*
G75*
G02*
X63200000Y-101925001I0J249999D01*
G01*
G37*
%TD.AperFunction*%
%TO.P,R9,1*%
%TO.N,GND*%
%TA.AperFunction,SMDPad,CuDef*%
G36*
G01*
X61200000Y-101925001D02*
X61200000Y-101024999D01*
G75*
G02*
X61449999Y-100775000I249999J0D01*
G01*
X62150001Y-100775000D01*
G75*
G02*
X62400000Y-101024999I0J-249999D01*
G01*
X62400000Y-101925001D01*
G75*
G02*
X62150001Y-102175000I-249999J0D01*
G01*
X61449999Y-102175000D01*
G75*
G02*
X61200000Y-101925001I0J249999D01*
G01*
G37*
%TD.AperFunction*%
%TD*%
D37*
%TO.P,ResetSW1,2*%
%TO.N,Net-(R4-Pad2)*%
X44200000Y-63350000D03*
X38000000Y-63350000D03*
%TO.P,ResetSW1,1*%
%TO.N,GND*%
X44200000Y-67050000D03*
X38000000Y-67050000D03*
%TD*%
D11*
%TO.P,SW_6,1*%
%TO.N,RE1_1*%
X288290000Y-35460000D03*
%TO.P,SW_6,2*%
%TO.N,Net-(D95-Pad2)*%
X294740000Y-32920000D03*
%TD*%
%TO.P,SW_9,1*%
%TO.N,RE1_1*%
X288290000Y-84660000D03*
%TO.P,SW_9,2*%
%TO.N,Net-(D98-Pad2)*%
X294740000Y-82120000D03*
%TD*%
%TO.P,SW_14,1*%
%TO.N,Net-(D1-Pad1)*%
X36290000Y-84660000D03*
%TO.P,SW_14,2*%
%TO.N,Net-(D12-Pad2)*%
X42740000Y-82120000D03*
%TD*%
%TO.P,SW_15,1*%
%TO.N,Net-(D1-Pad1)*%
X43910000Y-106140000D03*
%TO.P,SW_15,2*%
%TO.N,Net-(D13-Pad2)*%
X37460000Y-108680000D03*
%TD*%
%TO.P,SW_16,1*%
%TO.N,Net-(D1-Pad1)*%
X19490000Y-35460000D03*
%TO.P,SW_16,2*%
%TO.N,Net-(D3-Pad2)*%
X25940000Y-32920000D03*
%TD*%
%TO.P,SW_29,1*%
%TO.N,Net-(D14-Pad1)*%
X53090000Y-84660000D03*
%TO.P,SW_29,2*%
%TO.N,Net-(D18-Pad2)*%
X59540000Y-82120000D03*
%TD*%
%TO.P,SW_30,1*%
%TO.N,Net-(D25-Pad1)*%
X86690000Y-101060000D03*
%TO.P,SW_30,2*%
%TO.N,Net-(D30-Pad2)*%
X93140000Y-98520000D03*
%TD*%
%TO.P,SW_31,1*%
%TO.N,Net-(D25-Pad1)*%
X69890000Y-35460000D03*
%TO.P,SW_31,2*%
%TO.N,Net-(D20-Pad2)*%
X76340000Y-32920000D03*
%TD*%
%TO.P,SW_34,1*%
%TO.N,Net-(D25-Pad1)*%
X103490000Y-84660000D03*
%TO.P,SW_34,2*%
%TO.N,Net-(D34-Pad2)*%
X109940000Y-82120000D03*
%TD*%
%TO.P,SW_36,1*%
%TO.N,Net-(D25-Pad1)*%
X86690000Y-35460000D03*
%TO.P,SW_36,2*%
%TO.N,Net-(D26-Pad2)*%
X93140000Y-32920000D03*
%TD*%
%TO.P,SW_41,1*%
%TO.N,Net-(D36-Pad1)*%
X103490000Y-35460000D03*
%TO.P,SW_41,2*%
%TO.N,Net-(D31-Pad2)*%
X109940000Y-32920000D03*
%TD*%
%TO.P,SW_42,1*%
%TO.N,Net-(D36-Pad1)*%
X111890000Y-51860000D03*
%TO.P,SW_42,2*%
%TO.N,Net-(D32-Pad2)*%
X118340000Y-49320000D03*
%TD*%
%TO.P,SW_43,1*%
%TO.N,Net-(D36-Pad1)*%
X111890000Y-68260000D03*
%TO.P,SW_43,2*%
%TO.N,Net-(D33-Pad2)*%
X118340000Y-65720000D03*
%TD*%
%TO.P,SW_46,1*%
%TO.N,Net-(D36-Pad1)*%
X120290000Y-35460000D03*
%TO.P,SW_46,2*%
%TO.N,Net-(D37-Pad2)*%
X126740000Y-32920000D03*
%TD*%
%TO.P,SW_47,1*%
%TO.N,Net-(D36-Pad1)*%
X128690000Y-51860000D03*
%TO.P,SW_47,2*%
%TO.N,Net-(D38-Pad2)*%
X135140000Y-49320000D03*
%TD*%
%TO.P,SW_48,1*%
%TO.N,Net-(D36-Pad1)*%
X128690000Y-68260000D03*
%TO.P,SW_48,2*%
%TO.N,Net-(D39-Pad2)*%
X135140000Y-65720000D03*
%TD*%
%TO.P,SW_49,1*%
%TO.N,Net-(D36-Pad1)*%
X120290000Y-84660000D03*
%TO.P,SW_49,2*%
%TO.N,Net-(D40-Pad2)*%
X126740000Y-82120000D03*
%TD*%
%TO.P,SW_50,1*%
%TO.N,Net-(D47-Pad1)*%
X153890000Y-101060000D03*
%TO.P,SW_50,2*%
%TO.N,Net-(D52-Pad2)*%
X160340000Y-98520000D03*
%TD*%
%TO.P,SW_51,1*%
%TO.N,Net-(D47-Pad1)*%
X137090000Y-35460000D03*
%TO.P,SW_51,2*%
%TO.N,Net-(D42-Pad2)*%
X143540000Y-32920000D03*
%TD*%
%TO.P,SW_52,1*%
%TO.N,Net-(D47-Pad1)*%
X145490000Y-51860000D03*
%TO.P,SW_52,2*%
%TO.N,Net-(D43-Pad2)*%
X151940000Y-49320000D03*
%TD*%
%TO.P,SW_53,1*%
%TO.N,Net-(D47-Pad1)*%
X145490000Y-68260000D03*
%TO.P,SW_53,2*%
%TO.N,Net-(D44-Pad2)*%
X151940000Y-65720000D03*
%TD*%
%TO.P,SW_54,1*%
%TO.N,Net-(D47-Pad1)*%
X137090000Y-84660000D03*
%TO.P,SW_54,2*%
%TO.N,Net-(D45-Pad2)*%
X143540000Y-82120000D03*
%TD*%
%TO.P,SW_56,1*%
%TO.N,Net-(D47-Pad1)*%
X153890000Y-35460000D03*
%TO.P,SW_56,2*%
%TO.N,Net-(D48-Pad2)*%
X160340000Y-32920000D03*
%TD*%
%TO.P,SW_57,1*%
%TO.N,Net-(D47-Pad1)*%
X162290000Y-51860000D03*
%TO.P,SW_57,2*%
%TO.N,Net-(D49-Pad2)*%
X168740000Y-49320000D03*
%TD*%
%TO.P,SW_58,1*%
%TO.N,Net-(D47-Pad1)*%
X162290000Y-68260000D03*
%TO.P,SW_58,2*%
%TO.N,Net-(D50-Pad2)*%
X168740000Y-65720000D03*
%TD*%
%TO.P,SW_59,1*%
%TO.N,Net-(D47-Pad1)*%
X153890000Y-84660000D03*
%TO.P,SW_59,2*%
%TO.N,Net-(D51-Pad2)*%
X160340000Y-82120000D03*
%TD*%
%TO.P,SW_61,1*%
%TO.N,Net-(D59-Pad1)*%
X170690000Y-35460000D03*
%TO.P,SW_61,2*%
%TO.N,Net-(D54-Pad2)*%
X177140000Y-32920000D03*
%TD*%
%TO.P,SW_62,1*%
%TO.N,Net-(D59-Pad1)*%
X179090000Y-51860000D03*
%TO.P,SW_62,2*%
%TO.N,Net-(D55-Pad2)*%
X185540000Y-49320000D03*
%TD*%
%TO.P,SW_63,1*%
%TO.N,Net-(D59-Pad1)*%
X179090000Y-68260000D03*
%TO.P,SW_63,2*%
%TO.N,Net-(D56-Pad2)*%
X185540000Y-65720000D03*
%TD*%
%TO.P,SW_64,1*%
%TO.N,Net-(D59-Pad1)*%
X170690000Y-84660000D03*
%TO.P,SW_64,2*%
%TO.N,Net-(D57-Pad2)*%
X177140000Y-82120000D03*
%TD*%
%TO.P,SW_65,1*%
%TO.N,Net-(D59-Pad1)*%
X170690000Y-101060000D03*
%TO.P,SW_65,2*%
%TO.N,Net-(D58-Pad2)*%
X177140000Y-98520000D03*
%TD*%
%TO.P,SW_67,1*%
%TO.N,Net-(D59-Pad1)*%
X195890000Y-51860000D03*
%TO.P,SW_67,2*%
%TO.N,Net-(D61-Pad2)*%
X202340000Y-49320000D03*
%TD*%
%TO.P,SW_68,1*%
%TO.N,Net-(D59-Pad1)*%
X195890000Y-68260000D03*
%TO.P,SW_68,2*%
%TO.N,Net-(D62-Pad2)*%
X202340000Y-65720000D03*
%TD*%
%TO.P,SW_69,1*%
%TO.N,Net-(D59-Pad1)*%
X187490000Y-84660000D03*
%TO.P,SW_69,2*%
%TO.N,Net-(D63-Pad2)*%
X193940000Y-82120000D03*
%TD*%
%TO.P,SW_71,1*%
%TO.N,Net-(D71-Pad1)*%
X204290000Y-35460000D03*
%TO.P,SW_71,2*%
%TO.N,Net-(D66-Pad2)*%
X210740000Y-32920000D03*
%TD*%
%TO.P,SW_72,1*%
%TO.N,Net-(D71-Pad1)*%
X212690000Y-51860000D03*
%TO.P,SW_72,2*%
%TO.N,Net-(D67-Pad2)*%
X219140000Y-49320000D03*
%TD*%
%TO.P,SW_73,1*%
%TO.N,Net-(D71-Pad1)*%
X212690000Y-68260000D03*
%TO.P,SW_73,2*%
%TO.N,Net-(D68-Pad2)*%
X219140000Y-65720000D03*
%TD*%
%TO.P,SW_74,1*%
%TO.N,Net-(D71-Pad1)*%
X204290000Y-84660000D03*
%TO.P,SW_74,2*%
%TO.N,Net-(D69-Pad2)*%
X210740000Y-82120000D03*
%TD*%
%TO.P,SW_76,1*%
%TO.N,Net-(D71-Pad1)*%
X187490000Y-35460000D03*
%TO.P,SW_76,2*%
%TO.N,Net-(D60-Pad2)*%
X193940000Y-32920000D03*
%TD*%
%TO.P,SW_78,1*%
%TO.N,Net-(D71-Pad1)*%
X229490000Y-68260000D03*
%TO.P,SW_78,2*%
%TO.N,Net-(D74-Pad2)*%
X235940000Y-65720000D03*
%TD*%
%TO.P,SW_79,1*%
%TO.N,Net-(D71-Pad1)*%
X221090000Y-84660000D03*
%TO.P,SW_79,2*%
%TO.N,Net-(D75-Pad2)*%
X227540000Y-82120000D03*
%TD*%
%TO.P,SW_81,1*%
%TO.N,Net-(D83-Pad1)*%
X237890000Y-35460000D03*
%TO.P,SW_81,2*%
%TO.N,Net-(D78-Pad2)*%
X244340000Y-32920000D03*
%TD*%
%TO.P,SW_82,1*%
%TO.N,Net-(D83-Pad1)*%
X246290000Y-51860000D03*
%TO.P,SW_82,2*%
%TO.N,Net-(D79-Pad2)*%
X252740000Y-49320000D03*
%TD*%
%TO.P,SW_83,1*%
%TO.N,Net-(D83-Pad1)*%
X246290000Y-68260000D03*
%TO.P,SW_83,2*%
%TO.N,Net-(D80-Pad2)*%
X252740000Y-65720000D03*
%TD*%
%TO.P,SW_84,1*%
%TO.N,Net-(D83-Pad1)*%
X237890000Y-84660000D03*
%TO.P,SW_84,2*%
%TO.N,Net-(D81-Pad2)*%
X244340000Y-82120000D03*
%TD*%
%TO.P,SW_86,1*%
%TO.N,Net-(D83-Pad1)*%
X221090000Y-35460000D03*
%TO.P,SW_86,2*%
%TO.N,Net-(D72-Pad2)*%
X227540000Y-32920000D03*
%TD*%
%TO.P,SW_87,1*%
%TO.N,Net-(D83-Pad1)*%
X229490000Y-51860000D03*
%TO.P,SW_87,2*%
%TO.N,Net-(D73-Pad2)*%
X235940000Y-49320000D03*
%TD*%
%TO.P,SW_89,1*%
%TO.N,Net-(D83-Pad1)*%
X254690000Y-84660000D03*
%TO.P,SW_89,2*%
%TO.N,Net-(D87-Pad2)*%
X261140000Y-82120000D03*
%TD*%
%TO.P,SW_90,1*%
%TO.N,RE6_1*%
X288290000Y-101060000D03*
%TO.P,SW_90,2*%
%TO.N,Net-(D99-Pad2)*%
X294740000Y-98520000D03*
%TD*%
%TO.P,SW_91,1*%
%TO.N,RE6_1*%
X271490000Y-35460000D03*
%TO.P,SW_91,2*%
%TO.N,Net-(D90-Pad2)*%
X277940000Y-32920000D03*
%TD*%
%TO.P,SW_94,1*%
%TO.N,RE6_1*%
X271490000Y-84660000D03*
%TO.P,SW_94,2*%
%TO.N,Net-(D91-Pad2)*%
X277940000Y-82120000D03*
%TD*%
%TO.P,SW_95,1*%
%TO.N,RE6_1*%
X271490000Y-101060000D03*
%TO.P,SW_95,2*%
%TO.N,Net-(D92-Pad2)*%
X277940000Y-98520000D03*
%TD*%
%TO.P,SW_96,1*%
%TO.N,RE6_1*%
X254690000Y-35460000D03*
%TO.P,SW_96,2*%
%TO.N,Net-(D84-Pad2)*%
X261140000Y-32920000D03*
%TD*%
%TO.P,SW_10_1,1*%
%TO.N,Net-(D1-Pad1)*%
X27110000Y-106140000D03*
%TO.P,SW_10_1,2*%
%TO.N,Net-(D7-Pad2)*%
X20660000Y-108680000D03*
%TD*%
%TO.P,SW_12_2,1*%
%TO.N,Net-(D1-Pad1)*%
X44690000Y-51860000D03*
%TO.P,SW_12_2,2*%
%TO.N,Net-(D10-Pad2)*%
X51140000Y-49320000D03*
%TD*%
%TO.P,SW_13_1,1*%
%TO.N,Net-(D1-Pad1)*%
X43910000Y-73340000D03*
%TO.P,SW_13_1,2*%
%TO.N,Net-(D11-Pad2)*%
X37460000Y-75880000D03*
%TD*%
%TO.P,SW_13_2,1*%
%TO.N,Net-(D1-Pad1)*%
X52310000Y-73340000D03*
%TO.P,SW_13_2,2*%
%TO.N,Net-(D11-Pad2)*%
X45860000Y-75880000D03*
%TD*%
%TO.P,SW_17_1,1*%
%TO.N,Net-(D1-Pad1)*%
X19490000Y-51860000D03*
%TO.P,SW_17_1,2*%
%TO.N,Net-(D4-Pad2)*%
X25940000Y-49320000D03*
%TD*%
%TO.P,SW_18_1,1*%
%TO.N,Net-(D1-Pad1)*%
X19490000Y-68260000D03*
%TO.P,SW_18_1,2*%
%TO.N,Net-(D5-Pad2)*%
X25940000Y-65720000D03*
%TD*%
%TO.P,SW_19_1,1*%
%TO.N,Net-(D1-Pad1)*%
X19490000Y-84660000D03*
%TO.P,SW_19_1,2*%
%TO.N,Net-(D6-Pad2)*%
X25940000Y-82120000D03*
%TD*%
%TO.P,SW_20_1,1*%
%TO.N,Net-(D14-Pad1)*%
X60710000Y-106140000D03*
%TO.P,SW_20_1,2*%
%TO.N,Net-(D19-Pad2)*%
X54260000Y-108680000D03*
%TD*%
%TO.P,SW_23_1,1*%
%TO.N,Net-(D14-Pad1)*%
X69890000Y-68260000D03*
%TO.P,SW_23_1,2*%
%TO.N,Net-(D22-Pad2)*%
X76340000Y-65720000D03*
%TD*%
%TO.P,SW_24_1,1*%
%TO.N,Net-(D14-Pad1)*%
X69890000Y-84660000D03*
%TO.P,SW_24_1,2*%
%TO.N,Net-(D23-Pad2)*%
X76340000Y-82120000D03*
%TD*%
%TO.P,SW_25_1,1*%
%TO.N,Net-(D14-Pad1)*%
X69890000Y-101060000D03*
%TO.P,SW_25_1,2*%
%TO.N,Net-(D24-Pad2)*%
X76340000Y-98520000D03*
%TD*%
%TO.P,SW_27_1,1*%
%TO.N,Net-(D14-Pad1)*%
X53090000Y-51860000D03*
%TO.P,SW_27_1,2*%
%TO.N,Net-(D16-Pad2)*%
X59540000Y-49320000D03*
%TD*%
%TO.P,SW_27_2,1*%
%TO.N,Net-(D14-Pad1)*%
X61490000Y-51860000D03*
%TO.P,SW_27_2,2*%
%TO.N,Net-(D16-Pad2)*%
X67940000Y-49320000D03*
%TD*%
%TO.P,SW_28_1,1*%
%TO.N,Net-(D14-Pad1)*%
X53090000Y-68260000D03*
%TO.P,SW_28_1,2*%
%TO.N,Net-(D17-Pad2)*%
X59540000Y-65720000D03*
%TD*%
%TO.P,SW_28_2,1*%
%TO.N,Net-(D14-Pad1)*%
X61490000Y-68260000D03*
%TO.P,SW_28_2,2*%
%TO.N,Net-(D17-Pad2)*%
X67940000Y-65720000D03*
%TD*%
%TO.P,SW_32_1,1*%
%TO.N,Net-(D25-Pad1)*%
X69890000Y-51860000D03*
%TO.P,SW_32_1,2*%
%TO.N,Net-(D21-Pad2)*%
X76340000Y-49320000D03*
%TD*%
%TO.P,SW_35_1,1*%
%TO.N,Net-(D25-Pad1)*%
X103490000Y-101060000D03*
%TO.P,SW_35_1,2*%
%TO.N,Net-(D35-Pad2)*%
X109940000Y-98520000D03*
%TD*%
%TO.P,SW_37_1,1*%
%TO.N,Net-(D25-Pad1)*%
X95090000Y-51860000D03*
%TO.P,SW_37_1,2*%
%TO.N,Net-(D27-Pad2)*%
X101540000Y-49320000D03*
%TD*%
%TO.P,SW_38_1,1*%
%TO.N,Net-(D25-Pad1)*%
X95090000Y-68260000D03*
%TO.P,SW_38_1,2*%
%TO.N,Net-(D28-Pad2)*%
X101540000Y-65720000D03*
%TD*%
%TO.P,SW_39_1,1*%
%TO.N,Net-(D25-Pad1)*%
X86690000Y-84660000D03*
%TO.P,SW_39_1,2*%
%TO.N,Net-(D29-Pad2)*%
X93140000Y-82120000D03*
%TD*%
%TO.P,SW_40_1,1*%
%TO.N,Net-(D36-Pad1)*%
X120290000Y-101060000D03*
%TO.P,SW_40_1,2*%
%TO.N,Net-(D41-Pad2)*%
X126740000Y-98520000D03*
%TD*%
%TO.P,SW_45_1,1*%
%TO.N,Net-(D36-Pad1)*%
X137090000Y-101060000D03*
%TO.P,SW_45_1,2*%
%TO.N,Net-(D46-Pad2)*%
X143540000Y-98520000D03*
%TD*%
%TO.P,SW_60_1,1*%
%TO.N,Net-(D59-Pad1)*%
X187490000Y-101060000D03*
%TO.P,SW_60_1,2*%
%TO.N,Net-(D64-Pad2)*%
X193940000Y-98520000D03*
%TD*%
%TO.P,SW_70_1,1*%
%TO.N,Net-(D71-Pad1)*%
X221090000Y-101060000D03*
%TO.P,SW_70_1,2*%
%TO.N,Net-(D76-Pad2)*%
X227540000Y-98520000D03*
%TD*%
%TO.P,SW_75_1,1*%
%TO.N,Net-(D71-Pad1)*%
X211910000Y-106140000D03*
%TO.P,SW_75_1,2*%
%TO.N,Net-(D70-Pad2)*%
X205460000Y-108680000D03*
%TD*%
%TO.P,SW_7_1,1*%
%TO.N,RE1_1*%
X288290000Y-51860000D03*
%TO.P,SW_7_1,2*%
%TO.N,Net-(D96-Pad2)*%
X294740000Y-49320000D03*
%TD*%
%TO.P,SW_80_1,1*%
%TO.N,Net-(D83-Pad1)*%
X254690000Y-101060000D03*
%TO.P,SW_80_1,2*%
%TO.N,Net-(D88-Pad2)*%
X261140000Y-98520000D03*
%TD*%
%TO.P,SW_85_1,1*%
%TO.N,Net-(D83-Pad1)*%
X237890000Y-101060000D03*
%TO.P,SW_85_1,2*%
%TO.N,Net-(D82-Pad2)*%
X244340000Y-98520000D03*
%TD*%
%TO.P,SW_8_1,1*%
%TO.N,RE1_1*%
X288290000Y-68260000D03*
%TO.P,SW_8_1,2*%
%TO.N,Net-(D97-Pad2)*%
X294740000Y-65720000D03*
%TD*%
%TO.P,SW_97_1,1*%
%TO.N,RE6_1*%
X263090000Y-51860000D03*
%TO.P,SW_97_1,2*%
%TO.N,Net-(D85-Pad2)*%
X269540000Y-49320000D03*
%TD*%
%TO.P,SW_98_1,1*%
%TO.N,RE6_1*%
X263090000Y-68260000D03*
%TO.P,SW_98_1,2*%
%TO.N,Net-(D86-Pad2)*%
X269540000Y-65720000D03*
%TD*%
D15*
%TO.P,SW_RE2,A*%
%TO.N,SDA_RE2A*%
X125000000Y-20400000D03*
D16*
%TO.P,SW_RE2,C*%
%TO.N,GND*%
X125000000Y-22900000D03*
%TO.P,SW_RE2,B*%
%TO.N,SCL_RE2B*%
X125000000Y-25400000D03*
D17*
%TO.P,SW_RE2,MP*%
%TO.N,N/C*%
X132500000Y-17300000D03*
X132500000Y-28500000D03*
D16*
%TO.P,SW_RE2,S2*%
%TO.N,RE2_2*%
X139500000Y-20400000D03*
%TO.P,SW_RE2,S1*%
%TO.N,RE1_1*%
X139500000Y-25400000D03*
%TD*%
D15*
%TO.P,SW_RE3,A*%
%TO.N,RE3_A*%
X158600000Y-20400000D03*
D16*
%TO.P,SW_RE3,C*%
%TO.N,GND*%
X158600000Y-22900000D03*
%TO.P,SW_RE3,B*%
%TO.N,RE3_B*%
X158600000Y-25400000D03*
D17*
%TO.P,SW_RE3,MP*%
%TO.N,N/C*%
X166100000Y-17300000D03*
X166100000Y-28500000D03*
D16*
%TO.P,SW_RE3,S2*%
%TO.N,RE3_2*%
X173100000Y-20400000D03*
%TO.P,SW_RE3,S1*%
%TO.N,RE1_1*%
X173100000Y-25400000D03*
%TD*%
D15*
%TO.P,SW_RE4,A*%
%TO.N,RE4_A*%
X192200000Y-20400000D03*
D16*
%TO.P,SW_RE4,C*%
%TO.N,GND*%
X192200000Y-22900000D03*
%TO.P,SW_RE4,B*%
%TO.N,RE4_B*%
X192200000Y-25400000D03*
D17*
%TO.P,SW_RE4,MP*%
%TO.N,N/C*%
X199700000Y-17300000D03*
X199700000Y-28500000D03*
D16*
%TO.P,SW_RE4,S2*%
%TO.N,RE4_2*%
X206700000Y-20400000D03*
%TO.P,SW_RE4,S1*%
%TO.N,RE1_1*%
X206700000Y-25400000D03*
%TD*%
D15*
%TO.P,SW_RE5,A*%
%TO.N,RE5_A*%
X225800000Y-20400000D03*
D16*
%TO.P,SW_RE5,C*%
%TO.N,GND*%
X225800000Y-22900000D03*
%TO.P,SW_RE5,B*%
%TO.N,RE5_B*%
X225800000Y-25400000D03*
D17*
%TO.P,SW_RE5,MP*%
%TO.N,N/C*%
X233300000Y-17300000D03*
X233300000Y-28500000D03*
D16*
%TO.P,SW_RE5,S2*%
%TO.N,RE5_2*%
X240300000Y-20400000D03*
%TO.P,SW_RE5,S1*%
%TO.N,RE1_1*%
X240300000Y-25400000D03*
%TD*%
D15*
%TO.P,SW_RE6,A*%
%TO.N,RE6_A*%
X259400000Y-20400000D03*
D16*
%TO.P,SW_RE6,C*%
%TO.N,GND*%
X259400000Y-22900000D03*
%TO.P,SW_RE6,B*%
%TO.N,RE6_B*%
X259400000Y-25400000D03*
D17*
%TO.P,SW_RE6,MP*%
%TO.N,N/C*%
X266900000Y-17300000D03*
X266900000Y-28500000D03*
D16*
%TO.P,SW_RE6,S2*%
%TO.N,RE6_2*%
X273900000Y-20400000D03*
%TO.P,SW_RE6,S1*%
%TO.N,RE6_1*%
X273900000Y-25400000D03*
%TD*%
D38*
%TO.P,J1,P4*%
%TO.N,GND*%
X29075000Y-17965000D03*
%TO.P,J1,P3*%
X37725000Y-17965000D03*
%TO.P,J1,P2*%
X37725000Y-21345000D03*
%TO.P,J1,P1*%
X29075000Y-21345000D03*
D39*
%TO.P,J1,B12*%
X30425000Y-20975000D03*
%TO.P,J1,B9*%
%TO.N,VCC*%
X31275000Y-20975000D03*
%TO.P,J1,B8*%
%TO.N,Net-(J1-PadB8)*%
X32125000Y-20975000D03*
%TO.P,J1,B7*%
%TO.N,Net-(D102-Pad3)*%
X32975000Y-20975000D03*
%TO.P,J1,B6*%
%TO.N,Net-(D102-Pad2)*%
X33825000Y-20975000D03*
%TO.P,J1,B5*%
%TO.N,Net-(J1-PadB5)*%
X34675000Y-20975000D03*
%TO.P,J1,B4*%
%TO.N,VCC*%
X35525000Y-20975000D03*
%TO.P,J1,B1*%
%TO.N,GND*%
X36375000Y-20975000D03*
%TO.P,J1,A12*%
X36375000Y-22325000D03*
%TO.P,J1,A9*%
%TO.N,VCC*%
X35525000Y-22325000D03*
%TO.P,J1,A8*%
%TO.N,Net-(J1-PadA8)*%
X34675000Y-22325000D03*
%TO.P,J1,A7*%
%TO.N,Net-(D102-Pad3)*%
X33825000Y-22325000D03*
%TO.P,J1,A6*%
%TO.N,Net-(D102-Pad2)*%
X32975000Y-22325000D03*
%TO.P,J1,A5*%
%TO.N,Net-(J1-PadA5)*%
X32125000Y-22325000D03*
%TO.P,J1,A4*%
%TO.N,VCC*%
X31275000Y-22325000D03*
%TO.P,J1,A1*%
%TO.N,GND*%
X30425000Y-22325000D03*
%TD*%
D11*
%TO.P,SW_23_3,1*%
%TO.N,Net-(D14-Pad1)*%
X78290000Y-68260000D03*
%TO.P,SW_23_3,2*%
%TO.N,Net-(D22-Pad2)*%
X84740000Y-65720000D03*
%TD*%
%TO.P,SW_32_3,1*%
%TO.N,Net-(D25-Pad1)*%
X78290000Y-51860000D03*
%TO.P,SW_32_3,2*%
%TO.N,Net-(D21-Pad2)*%
X84740000Y-49320000D03*
%TD*%
D40*
%TO.N,GND*%
X21000000Y-18900000D03*
X260950000Y-19199994D03*
X227450000Y-19149990D03*
X193650000Y-19050000D03*
X160100000Y-19100000D03*
X126500000Y-19100000D03*
X50850000Y-19150000D03*
X280967731Y-71130187D03*
X261500000Y-29100000D03*
X31050001Y-26050001D03*
X99475000Y-18450000D03*
X282125000Y-30850000D03*
X43970000Y-18290000D03*
X45300000Y-99750000D03*
X48259502Y-91990502D03*
X48521944Y-96200000D03*
X40450000Y-67050000D03*
X40979509Y-99750004D03*
X45500000Y-78000000D03*
X53525000Y-101100000D03*
X51838881Y-100206713D03*
%TO.N,+5V*%
X256000000Y-24550000D03*
X280950000Y-73000000D03*
X45625000Y-24275000D03*
X107399994Y-27550000D03*
X154850000Y-24350000D03*
X188450000Y-24450000D03*
X222050000Y-24425000D03*
X121232904Y-24501074D03*
X107450157Y-29197990D03*
X121384468Y-29297990D03*
X255999987Y-28974987D03*
X154850000Y-29747990D03*
X258031976Y-30911969D03*
X279750000Y-31044522D03*
X67375000Y-27175000D03*
X67025000Y-30054020D03*
X42346856Y-28018979D03*
X221460000Y-29869992D03*
X140600018Y-29747990D03*
X188400000Y-29799998D03*
X45637500Y-84850000D03*
X46100000Y-90850000D03*
X35027010Y-59892811D03*
%TO.N,Net-(D1-Pad1)*%
X38801708Y-81072912D03*
X37554059Y-73575403D03*
%TO.N,pin1*%
X64500000Y-22900000D03*
X58250000Y-21700000D03*
X69200000Y-33400000D03*
X28130990Y-33400000D03*
X17600000Y-90500000D03*
X30800000Y-69100000D03*
X51727010Y-28808022D03*
X29078590Y-74034682D03*
%TO.N,Net-(D2-Pad1)*%
X20800000Y-27500000D03*
%TO.N,pin6*%
X24897999Y-34327001D03*
X17705078Y-91491806D03*
X30100000Y-68500000D03*
X28985136Y-73240147D03*
%TO.N,pin7*%
X74600000Y-81000000D03*
X94203603Y-50873380D03*
X92100000Y-80400000D03*
X48408028Y-99986862D03*
X57764398Y-96248874D03*
X71797660Y-90372990D03*
%TO.N,pin8*%
X283372999Y-67127001D03*
X50100000Y-100000000D03*
X58800000Y-97000000D03*
X110800000Y-89600000D03*
X110767010Y-67332990D03*
%TO.N,pin9*%
X16800000Y-92450000D03*
X17450000Y-82600000D03*
X56900004Y-74300000D03*
X57500000Y-82800000D03*
%TO.N,pin10*%
X87250000Y-106900000D03*
X89232990Y-100132990D03*
%TO.N,pin2*%
X133892990Y-48392990D03*
X133900000Y-21700000D03*
X261700000Y-48200002D03*
X265130000Y-21060000D03*
X56900000Y-96100000D03*
X94307010Y-48392990D03*
X74642900Y-80201139D03*
X92072990Y-79535480D03*
X47608153Y-100001704D03*
X70913288Y-89745988D03*
%TO.N,Net-(D11-Pad2)*%
X36100000Y-67700000D03*
X36100000Y-69450000D03*
X36637919Y-72658945D03*
%TO.N,pin3*%
X167400000Y-21800000D03*
X162505699Y-64905699D03*
X49300000Y-100000000D03*
X57800000Y-97100000D03*
X109771698Y-89741574D03*
X111000000Y-66200000D03*
%TO.N,pin4*%
X201000000Y-21900000D03*
X202750000Y-81250000D03*
X16561490Y-91263594D03*
X17327010Y-83583220D03*
%TO.N,pin5*%
X234700000Y-21700000D03*
X234907010Y-97592990D03*
X42600000Y-100500000D03*
X39500000Y-106900000D03*
X57700004Y-99700000D03*
%TO.N,Net-(D14-Pad1)*%
X61000000Y-47800000D03*
%TO.N,Net-(D25-Pad1)*%
X91367001Y-61732999D03*
X109617001Y-86087839D03*
%TO.N,Net-(D36-Pad1)*%
X112400000Y-79045994D03*
%TO.N,Net-(D47-Pad1)*%
X138200000Y-94800000D03*
%TO.N,Net-(D59-Pad1)*%
X180400000Y-35100000D03*
X180800000Y-33400000D03*
%TO.N,Net-(D70-Pad2)*%
X201800000Y-99300000D03*
%TO.N,Net-(D71-Pad1)*%
X222300000Y-51700000D03*
X222600000Y-49900000D03*
%TO.N,Net-(D83-Pad1)*%
X256700000Y-68000000D03*
X257200000Y-66300000D03*
%TO.N,RE6_1*%
X280300000Y-82600004D03*
X279699998Y-84300000D03*
%TO.N,RE1_1*%
X283000000Y-97800000D03*
X137103178Y-31127010D03*
X241606716Y-31127010D03*
X286500000Y-32425000D03*
X64973543Y-29409490D03*
%TO.N,VCC*%
X37900000Y-26200002D03*
X34475000Y-26025000D03*
%TO.N,AUDIO1*%
X18200000Y-28500008D03*
X16800000Y-63100000D03*
X25200002Y-63200000D03*
X50800000Y-95637958D03*
%TO.N,AUDIO2[Reserve]*%
X18214781Y-29412389D03*
X18400001Y-64000000D03*
X26056636Y-64100000D03*
X51699996Y-96264968D03*
%TO.N,Net-(JP_LED1-Pad3)*%
X257150000Y-24500000D03*
X280963265Y-72036735D03*
X257150000Y-29074999D03*
X258228444Y-30136456D03*
X280850000Y-30725000D03*
%TO.N,LED*%
X43800000Y-90100000D03*
X75500000Y-73400000D03*
X88000000Y-73000000D03*
X86000000Y-46500000D03*
X64900000Y-44300000D03*
X59500000Y-25300000D03*
%TO.N,Net-(JP_LED2-Pad2)*%
X47150000Y-24360000D03*
X115070028Y-30911969D03*
X115800000Y-21100000D03*
X47309490Y-27622490D03*
%TO.N,Net-(JP_LED2-Pad3)*%
X117550000Y-23200000D03*
X118075214Y-24826315D03*
X123950000Y-26950000D03*
X122175000Y-25174994D03*
%TO.N,Net-(L5-Pad2)*%
X97400000Y-22000000D03*
X99300000Y-20099988D03*
%TO.N,Net-(L6-Pad2)*%
X99438261Y-23561731D03*
X107300004Y-18699996D03*
%TO.N,Net-(L7-Pad2)*%
X107400003Y-22499997D03*
X99415510Y-27400002D03*
%TO.N,Net-(L8-Pad2)*%
X107375000Y-25675000D03*
X50775000Y-17500000D03*
X108074998Y-18125000D03*
X44550000Y-17599490D03*
%TO.N,Net-(L11-Pad2)*%
X156350000Y-24450000D03*
X156975000Y-26100000D03*
%TO.N,Net-(L12-Pad2)*%
X189950000Y-24500000D03*
X190500000Y-26125000D03*
%TO.N,Net-(L13-Pad2)*%
X223550000Y-24475000D03*
X223894136Y-26419136D03*
%TO.N,SDA_RE2A*%
X50100000Y-91000000D03*
X105100000Y-72800000D03*
X106200000Y-42500000D03*
X127100000Y-39600000D03*
X127455501Y-22855501D03*
X78623078Y-75396305D03*
%TO.N,SCL_RE2B*%
X49300000Y-91000000D03*
X106000000Y-73500000D03*
X107200000Y-43127010D03*
X126593364Y-40993364D03*
X76791111Y-75549922D03*
%TO.N,Net-(R4-Pad2)*%
X17200000Y-81800000D03*
X26650000Y-74850000D03*
X34400000Y-69100000D03*
X35400000Y-64645989D03*
%TO.N,D-*%
X36200000Y-28500000D03*
X41000000Y-97772990D03*
%TO.N,D+*%
X30827010Y-28437657D03*
X41000000Y-96972977D03*
%TO.N,RE1_A*%
X50900000Y-91000000D03*
X78700000Y-74600000D03*
X84600000Y-47100000D03*
X51100000Y-22400000D03*
X50414869Y-45128141D03*
X85528269Y-74522285D03*
%TO.N,RE1_B*%
X51700000Y-91000000D03*
X80100000Y-47300000D03*
X49600000Y-45100000D03*
X84900000Y-74027010D03*
X77559434Y-73907554D03*
%TO.N,RE3_B*%
X61100000Y-92827010D03*
X150514780Y-75392909D03*
X77328667Y-76591977D03*
%TO.N,RE3_A*%
X52600000Y-91300000D03*
X56500000Y-92300000D03*
X160100000Y-22500000D03*
X151114398Y-76018979D03*
X62209780Y-91946733D03*
X76524509Y-76803934D03*
%TO.N,RE4_B*%
X188700000Y-77200000D03*
X76242649Y-78057946D03*
X62063272Y-93756946D03*
%TO.N,RE4_A*%
X194000000Y-22900000D03*
X189670762Y-76310496D03*
X77562108Y-77845989D03*
X61935965Y-92967129D03*
%TO.N,RE5_A*%
X77500000Y-79100000D03*
X224400000Y-76700000D03*
X227400000Y-22400000D03*
X63574863Y-93038410D03*
%TO.N,RE5_B*%
X223000000Y-76900000D03*
X76494228Y-79311957D03*
X63814568Y-94214568D03*
%TO.N,RE6_A*%
X261700000Y-22100000D03*
X259161310Y-91425418D03*
%TO.N,RE6_B*%
X256000000Y-91900000D03*
X50900000Y-100000000D03*
X56100000Y-99100000D03*
%TD*%
D41*
%TO.N,GND*%
X36375000Y-20975000D02*
X36375000Y-22325000D01*
X30425000Y-20975000D02*
X30425000Y-22325000D01*
X24000000Y-18900000D02*
X24000000Y-21200000D01*
X29445000Y-20975000D02*
X29075000Y-21345000D01*
X30425000Y-20975000D02*
X29445000Y-20975000D01*
X24000000Y-18900000D02*
X21000000Y-18900000D01*
X20800000Y-18600000D02*
X20050000Y-18600000D01*
X21000000Y-18800000D02*
X20800000Y-18600000D01*
X20050000Y-18600000D02*
X20000000Y-18650000D01*
X21000000Y-18900000D02*
X21000000Y-18800000D01*
X257150000Y-18050000D02*
X259800006Y-18050000D01*
X259800006Y-18050000D02*
X260950000Y-19199994D01*
X223550000Y-18050000D02*
X226350010Y-18050000D01*
X226350010Y-18050000D02*
X227450000Y-19149990D01*
X192650000Y-18050000D02*
X193650000Y-19050000D01*
X189950000Y-18050000D02*
X192650000Y-18050000D01*
X159050000Y-18050000D02*
X160100000Y-19100000D01*
X156350000Y-18050000D02*
X159050000Y-18050000D01*
X125450000Y-18050000D02*
X126500000Y-19100000D01*
X122750000Y-18050000D02*
X125450000Y-18050000D01*
X49750000Y-18050000D02*
X50850000Y-19150000D01*
X47150000Y-18050000D02*
X49750000Y-18050000D01*
X281052131Y-71130187D02*
X280967731Y-71130187D01*
X291450000Y-74470000D02*
X284391944Y-74470000D01*
X284391944Y-74470000D02*
X281052131Y-71130187D01*
X259400000Y-22900000D02*
X259400000Y-23342058D01*
X32275000Y-26745000D02*
X31745000Y-26745000D01*
X31745000Y-26745000D02*
X31050001Y-26050001D01*
X68450000Y-20500000D02*
X68450000Y-19150000D01*
X68450000Y-19150000D02*
X69075000Y-18525000D01*
X72450000Y-19319000D02*
X72450000Y-20500000D01*
X71656000Y-18525000D02*
X72450000Y-19319000D01*
X69075000Y-18525000D02*
X71656000Y-18525000D01*
X76450000Y-20500000D02*
X76450000Y-19100000D01*
X76450000Y-19100000D02*
X75875000Y-18525000D01*
X73244000Y-18525000D02*
X72450000Y-19319000D01*
X75875000Y-18525000D02*
X73244000Y-18525000D01*
X80450000Y-20500000D02*
X80450000Y-19100000D01*
X80450000Y-19100000D02*
X79875000Y-18525000D01*
X77025000Y-18525000D02*
X76450000Y-19100000D01*
X79875000Y-18525000D02*
X77025000Y-18525000D01*
X84450000Y-20500000D02*
X84450000Y-19150000D01*
X84450000Y-19150000D02*
X83825000Y-18525000D01*
X81025000Y-18525000D02*
X80450000Y-19100000D01*
X83825000Y-18525000D02*
X81025000Y-18525000D01*
X99475000Y-22250000D02*
X100900000Y-22250000D01*
X100900000Y-18450000D02*
X99475000Y-18450000D01*
X85150000Y-18450000D02*
X84450000Y-19150000D01*
X99475000Y-18450000D02*
X85150000Y-18450000D01*
X98725000Y-25300000D02*
X98725000Y-23000000D01*
X98725000Y-23000000D02*
X99475000Y-22250000D01*
X99475000Y-26050000D02*
X98725000Y-25300000D01*
X100900000Y-26050000D02*
X99475000Y-26050000D01*
X98609499Y-19315501D02*
X98609499Y-21384499D01*
X99475000Y-18450000D02*
X98609499Y-19315501D01*
X98609499Y-21384499D02*
X99475000Y-22250000D01*
X261500000Y-29100000D02*
X262300001Y-29900001D01*
X281175001Y-29900001D02*
X282125000Y-30850000D01*
X262300001Y-29900001D02*
X281175001Y-29900001D01*
X63092058Y-19150000D02*
X63692058Y-18550000D01*
X50850000Y-19150000D02*
X63092058Y-19150000D01*
X67850000Y-18550000D02*
X68450000Y-19150000D01*
X63692058Y-18550000D02*
X67850000Y-18550000D01*
X43645000Y-17965000D02*
X43970000Y-18290000D01*
X37725000Y-17965000D02*
X43645000Y-17965000D01*
X39200000Y-96437500D02*
X36800000Y-96437500D01*
X54400000Y-91400000D02*
X55200000Y-91400000D01*
X56200000Y-90400000D02*
X57862500Y-90400000D01*
X55200000Y-91400000D02*
X56200000Y-90400000D01*
X50350000Y-82997098D02*
X50350000Y-83350000D01*
X48050000Y-80697098D02*
X50350000Y-82997098D01*
X48050000Y-80450000D02*
X48050000Y-80697098D01*
X48312500Y-80187500D02*
X48050000Y-80450000D01*
X48312500Y-77900000D02*
X48312500Y-80187500D01*
X45712500Y-80450000D02*
X45500000Y-80662500D01*
X48050000Y-80450000D02*
X45712500Y-80450000D01*
X44384490Y-84028010D02*
X43562500Y-84850000D01*
X44384490Y-81778010D02*
X44384490Y-84028010D01*
X45500000Y-80662500D02*
X44384490Y-81778010D01*
X43731000Y-96200000D02*
X42600000Y-96200000D01*
X45300000Y-97769000D02*
X43731000Y-96200000D01*
X45300000Y-101300000D02*
X45300000Y-97769000D01*
X51700000Y-100000000D02*
X51700000Y-100000000D01*
X39237500Y-96400000D02*
X39200000Y-96437500D01*
X40600000Y-96400000D02*
X39237500Y-96400000D01*
X40800000Y-96200000D02*
X40600000Y-96400000D01*
X42600000Y-96200000D02*
X40800000Y-96200000D01*
X45770641Y-85969499D02*
X44681999Y-85969499D01*
X46900000Y-87098858D02*
X45770641Y-85969499D01*
X44681999Y-85969499D02*
X43562500Y-84850000D01*
X46900000Y-89500000D02*
X46900000Y-87098858D01*
X54400000Y-91400000D02*
X54400000Y-87650000D01*
X48259502Y-91990502D02*
X48259502Y-91990502D01*
X53521944Y-91400000D02*
X54400000Y-91400000D01*
X46900000Y-89500000D02*
X46900000Y-90631000D01*
X52931442Y-91990502D02*
X53521944Y-91400000D01*
X46900000Y-90631000D02*
X48259502Y-91990502D01*
X48521944Y-96200000D02*
X42600000Y-96200000D01*
X48259502Y-91990502D02*
X52931442Y-91990502D01*
X48521944Y-96200000D02*
X48521944Y-96200000D01*
X40450000Y-67050000D02*
X44200000Y-67050000D01*
X38000000Y-67050000D02*
X40450000Y-67050000D01*
X39337500Y-99800000D02*
X40929513Y-99800000D01*
X40929513Y-99800000D02*
X40979509Y-99750004D01*
X45500000Y-78000000D02*
X45500000Y-80662500D01*
X60200000Y-101100000D02*
X60575000Y-101475000D01*
X60575000Y-101475000D02*
X61800000Y-101475000D01*
X53525000Y-101100000D02*
X60200000Y-101100000D01*
X51700000Y-101300000D02*
X51700000Y-100345594D01*
X48521944Y-96200000D02*
X51838881Y-99516937D01*
X51700000Y-100345594D02*
X51838881Y-100206713D01*
X51838881Y-99516937D02*
X51838881Y-100206713D01*
%TO.N,+5V*%
X107050000Y-23750000D02*
X105800000Y-23750000D01*
X107171944Y-23750000D02*
X107050000Y-23750000D01*
X105800000Y-19950000D02*
X107081000Y-19950000D01*
X107081000Y-19950000D02*
X108090505Y-20959505D01*
X108090505Y-20959505D02*
X108090505Y-22831439D01*
X108090505Y-22831439D02*
X107171944Y-23750000D01*
X108090502Y-24790502D02*
X107050000Y-23750000D01*
X255650000Y-24200000D02*
X256000000Y-24550000D01*
X255650000Y-22950000D02*
X255650000Y-24200000D01*
X287500000Y-79550000D02*
X291450000Y-79550000D01*
X280950000Y-73000000D02*
X287500000Y-79550000D01*
X45625000Y-22975000D02*
X45650000Y-22950000D01*
X45625000Y-24275000D02*
X45625000Y-22975000D01*
X82950000Y-25400000D02*
X82950000Y-26700000D01*
X82950000Y-26700000D02*
X82525000Y-27125000D01*
X79394000Y-27125000D02*
X78950000Y-26681000D01*
X78950000Y-26681000D02*
X78950000Y-25400000D01*
X82525000Y-27125000D02*
X79394000Y-27125000D01*
X74950000Y-25400000D02*
X74950000Y-26750000D01*
X74950000Y-26750000D02*
X75350000Y-27150000D01*
X78481000Y-27150000D02*
X78950000Y-26681000D01*
X75350000Y-27150000D02*
X78481000Y-27150000D01*
X70950000Y-25400000D02*
X70950000Y-26800000D01*
X70950000Y-26800000D02*
X71325000Y-27175000D01*
X74525000Y-27175000D02*
X74950000Y-26750000D01*
X71325000Y-27175000D02*
X74525000Y-27175000D01*
X66950000Y-25400000D02*
X66950000Y-26750000D01*
X66950000Y-26750000D02*
X67375000Y-27175000D01*
X70575000Y-27175000D02*
X70950000Y-26800000D01*
X67375000Y-27175000D02*
X70575000Y-27175000D01*
X105800000Y-27550000D02*
X107081000Y-27550000D01*
X107081000Y-27550000D02*
X107399994Y-27550000D01*
X108090502Y-24790502D02*
X108090502Y-26859492D01*
X108090502Y-26859492D02*
X107399994Y-27550000D01*
X154850000Y-24350000D02*
X154850000Y-22950000D01*
X188450000Y-24450000D02*
X188450000Y-22950000D01*
X222050000Y-24425000D02*
X222050000Y-22950000D01*
X121250000Y-24483978D02*
X121232904Y-24501074D01*
X121250000Y-22950000D02*
X121250000Y-24483978D01*
X107025893Y-29197990D02*
X107450157Y-29197990D01*
X85447990Y-29197990D02*
X107025893Y-29197990D01*
X82950000Y-26700000D02*
X85447990Y-29197990D01*
X279703468Y-30997990D02*
X279750000Y-31044522D01*
X258117997Y-30997990D02*
X279703468Y-30997990D01*
X258031976Y-30911969D02*
X258117997Y-30997990D01*
X42387500Y-27978335D02*
X42346856Y-28018979D01*
X42387500Y-26700000D02*
X42387500Y-27978335D01*
X221480509Y-29890501D02*
X221460000Y-29869992D01*
X255999987Y-28974987D02*
X255084473Y-29890501D01*
X255084473Y-29890501D02*
X221480509Y-29890501D01*
X121986478Y-29900000D02*
X140448008Y-29900000D01*
X121384468Y-29297990D02*
X121986478Y-29900000D01*
X140448008Y-29900000D02*
X140600018Y-29747990D01*
X140752028Y-29900000D02*
X140600018Y-29747990D01*
X154697990Y-29900000D02*
X140752028Y-29900000D01*
X154850000Y-29747990D02*
X154697990Y-29900000D01*
X155002014Y-29900004D02*
X188299994Y-29900004D01*
X221429988Y-29900004D02*
X188500006Y-29900004D01*
X154850000Y-29747990D02*
X155002014Y-29900004D01*
X221460000Y-29869992D02*
X221429988Y-29900004D01*
X188500006Y-29900004D02*
X188400000Y-29799998D01*
X188299994Y-29900004D02*
X188400000Y-29799998D01*
X107450157Y-29197990D02*
X121284468Y-29197990D01*
X121284468Y-29197990D02*
X121384468Y-29297990D01*
X42600000Y-98600000D02*
X43950000Y-98600000D01*
X44500000Y-99150000D02*
X44500000Y-101300000D01*
X43950000Y-98600000D02*
X44500000Y-99150000D01*
X43950000Y-94600000D02*
X42600000Y-94600000D01*
X50869000Y-94600000D02*
X43950000Y-94600000D01*
X44450000Y-94600000D02*
X43950000Y-94600000D01*
X46100000Y-92950000D02*
X44450000Y-94600000D01*
X38681999Y-101219499D02*
X37262500Y-99800000D01*
X44419499Y-101219499D02*
X38681999Y-101219499D01*
X44500000Y-101300000D02*
X44419499Y-101219499D01*
X46100000Y-90850000D02*
X46100000Y-92950000D01*
X46100000Y-89500000D02*
X46100000Y-90850000D01*
X33400000Y-61519821D02*
X35027010Y-59892811D01*
X33400000Y-63300000D02*
X33400000Y-61519821D01*
X41231871Y-94600000D02*
X42600000Y-94600000D01*
X38459690Y-93384490D02*
X40016361Y-93384490D01*
X37481680Y-94362500D02*
X38459690Y-93384490D01*
X40016361Y-93384490D02*
X41231871Y-94600000D01*
X36800000Y-94362500D02*
X37481680Y-94362500D01*
X35684490Y-98221990D02*
X37262500Y-99800000D01*
X35684490Y-95478010D02*
X35684490Y-98221990D01*
X36800000Y-94362500D02*
X35684490Y-95478010D01*
X56215490Y-91515510D02*
X55531000Y-92200000D01*
X59937500Y-90400000D02*
X58821990Y-91515510D01*
X55531000Y-92200000D02*
X54400000Y-92200000D01*
X58821990Y-91515510D02*
X56215490Y-91515510D01*
X54400000Y-92200000D02*
X53543617Y-92200000D01*
X53543617Y-92200000D02*
X51143617Y-94600000D01*
X51143617Y-94600000D02*
X50869000Y-94600000D01*
X52389387Y-28117512D02*
X54625894Y-30354019D01*
X54625894Y-30354019D02*
X66725001Y-30354019D01*
X42346856Y-28018979D02*
X42646855Y-28318978D01*
X66725001Y-30354019D02*
X67025000Y-30054020D01*
X47744829Y-28318978D02*
X47946295Y-28117512D01*
X42646855Y-28318978D02*
X47744829Y-28318978D01*
X47946295Y-28117512D02*
X52389387Y-28117512D01*
X52529383Y-101270617D02*
X52529383Y-99179383D01*
X50109499Y-96759499D02*
X50109499Y-95306517D01*
X52500000Y-101300000D02*
X52529383Y-101270617D01*
X50109499Y-95306517D02*
X50816016Y-94600000D01*
X52529383Y-99179383D02*
X50109499Y-96759499D01*
X50816016Y-94600000D02*
X50869000Y-94600000D01*
D42*
%TO.N,Net-(C2-Pad1)*%
X50387500Y-80412500D02*
X50350000Y-80450000D01*
X50387500Y-77900000D02*
X50387500Y-80412500D01*
X51577001Y-81677001D02*
X50350000Y-80450000D01*
X48500000Y-88800000D02*
X51577001Y-85722999D01*
X51577001Y-85722999D02*
X51577001Y-81677001D01*
X48500000Y-89500000D02*
X48500000Y-88800000D01*
%TO.N,Net-(C3-Pad1)*%
X47437500Y-82737500D02*
X48050000Y-83350000D01*
X45500000Y-82737500D02*
X47437500Y-82737500D01*
X47922999Y-89277001D02*
X47700000Y-89500000D01*
X48350000Y-83650000D02*
X48350000Y-88061398D01*
X47922999Y-88488399D02*
X47922999Y-89277001D01*
X48350000Y-88061398D02*
X47922999Y-88488399D01*
X48050000Y-83350000D02*
X48350000Y-83650000D01*
%TO.N,Net-(C6-Pad1)*%
X39200000Y-94362500D02*
X40262500Y-94362500D01*
X41300000Y-95400000D02*
X42600000Y-95400000D01*
X40262500Y-94362500D02*
X41300000Y-95400000D01*
%TO.N,Net-(D1-Pad1)*%
X19490000Y-84660000D02*
X36290000Y-84660000D01*
X43910000Y-73340000D02*
X52310000Y-73340000D01*
X19490000Y-68260000D02*
X23690000Y-68260000D01*
X19490000Y-51860000D02*
X23690000Y-51860000D01*
X19272999Y-35242999D02*
X19490000Y-35460000D01*
X19272999Y-31677001D02*
X19272999Y-35242999D01*
X20050000Y-30900000D02*
X19272999Y-31677001D01*
X27110000Y-106140000D02*
X43910000Y-106140000D01*
X23690000Y-51860000D02*
X44690000Y-51860000D01*
X37544000Y-84660000D02*
X38801708Y-83402292D01*
X38801708Y-83402292D02*
X38801708Y-81072912D01*
X36290000Y-84660000D02*
X37544000Y-84660000D01*
X37677010Y-70099048D02*
X37677010Y-73431826D01*
X36400961Y-68822999D02*
X37677010Y-70099048D01*
X35350161Y-68822999D02*
X36400961Y-68822999D01*
X23690000Y-68260000D02*
X24368987Y-67581013D01*
X37789462Y-73340000D02*
X37554059Y-73575403D01*
X37677010Y-73431826D02*
X37677010Y-73452452D01*
X37677010Y-73452452D02*
X37554059Y-73575403D01*
X43910000Y-73340000D02*
X37789462Y-73340000D01*
X24368987Y-67581013D02*
X34108175Y-67581013D01*
X34108175Y-67581013D02*
X35350161Y-68822999D01*
%TO.N,pin1*%
X103200000Y-33400000D02*
X104050000Y-33400000D01*
X101792990Y-31992990D02*
X103200000Y-33400000D01*
X72607010Y-31992990D02*
X101792990Y-31992990D01*
X71200000Y-33400000D02*
X72607010Y-31992990D01*
X70450000Y-33400000D02*
X71200000Y-33400000D01*
X137650000Y-33400000D02*
X138500000Y-33400000D01*
X139907010Y-31992990D02*
X168892990Y-31992990D01*
X138500000Y-33400000D02*
X139907010Y-31992990D01*
X170300000Y-33400000D02*
X171250000Y-33400000D01*
X168892990Y-31992990D02*
X170300000Y-33400000D01*
X204850000Y-33400000D02*
X205700000Y-33400000D01*
X207107010Y-31992990D02*
X236092990Y-31992990D01*
X205700000Y-33400000D02*
X207107010Y-31992990D01*
X237500000Y-33400000D02*
X238450000Y-33400000D01*
X236092990Y-31992990D02*
X237500000Y-33400000D01*
X25630990Y-30900000D02*
X23350000Y-30900000D01*
X28130990Y-33400000D02*
X25630990Y-30900000D01*
X36850000Y-33400000D02*
X28130990Y-33400000D01*
X58250000Y-20400000D02*
X58250000Y-21425000D01*
X58250000Y-21425000D02*
X58250000Y-21700000D01*
X59450000Y-22900000D02*
X58250000Y-21700000D01*
X64500000Y-22900000D02*
X59450000Y-22900000D01*
X70450000Y-33400000D02*
X69200000Y-33400000D01*
X136700000Y-33400000D02*
X137650000Y-33400000D01*
X135292990Y-31992990D02*
X136700000Y-33400000D01*
X106407010Y-31992990D02*
X135292990Y-31992990D01*
X105000000Y-33400000D02*
X106407010Y-31992990D01*
X104050000Y-33400000D02*
X105000000Y-33400000D01*
X204100000Y-33400000D02*
X204850000Y-33400000D01*
X202692990Y-31992990D02*
X204100000Y-33400000D01*
X173607010Y-31992990D02*
X202692990Y-31992990D01*
X172200000Y-33400000D02*
X173607010Y-31992990D01*
X171250000Y-33400000D02*
X172200000Y-33400000D01*
X269692990Y-31992990D02*
X271100000Y-33400000D01*
X240907010Y-31992990D02*
X269692990Y-31992990D01*
X239500000Y-33400000D02*
X240907010Y-31992990D01*
X271100000Y-33400000D02*
X272050000Y-33400000D01*
X238450000Y-33400000D02*
X239500000Y-33400000D01*
X18500000Y-91400000D02*
X17600000Y-90500000D01*
X42600000Y-91400000D02*
X18500000Y-91400000D01*
X51427011Y-29108021D02*
X51727010Y-28808022D01*
X41141979Y-29108021D02*
X51427011Y-29108021D01*
X36850000Y-33400000D02*
X41141979Y-29108021D01*
X29143908Y-74100000D02*
X29078590Y-74034682D01*
X29225000Y-74100000D02*
X29143908Y-74100000D01*
X30800000Y-69100000D02*
X30271011Y-69628989D01*
X30271011Y-69628989D02*
X30271011Y-72842261D01*
X30271011Y-72842261D02*
X29078590Y-74034682D01*
%TO.N,Net-(D2-Pad1)*%
X20000000Y-21950000D02*
X20000000Y-24500000D01*
X20900000Y-25400000D02*
X22100000Y-25400000D01*
X20000000Y-24500000D02*
X20900000Y-25400000D01*
X20900000Y-25400000D02*
X20300000Y-26000000D01*
X20300000Y-26000000D02*
X20300000Y-26900000D01*
X20300000Y-27000000D02*
X20800000Y-27500000D01*
X20300000Y-26900000D02*
X20300000Y-27000000D01*
%TO.N,pin6*%
X288850000Y-33400000D02*
X288000000Y-33400000D01*
X286867010Y-34532990D02*
X257332990Y-34532990D01*
X288000000Y-33400000D02*
X286867010Y-34532990D01*
X256200000Y-33400000D02*
X255250000Y-33400000D01*
X257332990Y-34532990D02*
X256200000Y-33400000D01*
X255250000Y-33400000D02*
X254400000Y-33400000D01*
X253267010Y-34532990D02*
X223732990Y-34532990D01*
X254400000Y-33400000D02*
X253267010Y-34532990D01*
X222600000Y-33400000D02*
X221650000Y-33400000D01*
X223732990Y-34532990D02*
X222600000Y-33400000D01*
X221650000Y-33400000D02*
X220800000Y-33400000D01*
X219872999Y-34327001D02*
X189927001Y-34327001D01*
X220800000Y-33400000D02*
X219872999Y-34327001D01*
X189000000Y-33400000D02*
X188050000Y-33400000D01*
X189927001Y-34327001D02*
X189000000Y-33400000D01*
X188050000Y-33400000D02*
X187300000Y-33400000D01*
X187300000Y-33400000D02*
X187200000Y-33400000D01*
X121800000Y-33400000D02*
X120850000Y-33400000D01*
X152672999Y-34327001D02*
X122727001Y-34327001D01*
X153600000Y-33400000D02*
X152672999Y-34327001D01*
X122727001Y-34327001D02*
X121800000Y-33400000D01*
X154450000Y-33400000D02*
X153600000Y-33400000D01*
X120850000Y-33400000D02*
X120000000Y-33400000D01*
X119072999Y-34327001D02*
X89127001Y-34327001D01*
X120000000Y-33400000D02*
X119072999Y-34327001D01*
X88200000Y-33400000D02*
X87250000Y-33400000D01*
X89127001Y-34327001D02*
X88200000Y-33400000D01*
X156327001Y-34327001D02*
X155400000Y-33400000D01*
X183572999Y-34327001D02*
X156327001Y-34327001D01*
X155400000Y-33400000D02*
X154450000Y-33400000D01*
X184500000Y-33400000D02*
X183572999Y-34327001D01*
X187300000Y-33400000D02*
X184500000Y-33400000D01*
X20050000Y-33400000D02*
X21350000Y-33400000D01*
X21350000Y-33400000D02*
X22277001Y-34327001D01*
X52250000Y-33400000D02*
X53650000Y-33400000D01*
X51322999Y-34327001D02*
X52250000Y-33400000D01*
X85750000Y-33400000D02*
X87250000Y-33400000D01*
X55527001Y-34327001D02*
X84822999Y-34327001D01*
X84822999Y-34327001D02*
X85750000Y-33400000D01*
X54600000Y-33400000D02*
X55527001Y-34327001D01*
X53650000Y-33400000D02*
X54600000Y-33400000D01*
X24897999Y-34327001D02*
X51322999Y-34327001D01*
X22277001Y-34327001D02*
X24897999Y-34327001D01*
X41017068Y-92200000D02*
X40671079Y-91854011D01*
X40671079Y-91854011D02*
X18067283Y-91854011D01*
X42600000Y-92200000D02*
X41017068Y-92200000D01*
X18067283Y-91854011D02*
X17705078Y-91491806D01*
X29817000Y-72408283D02*
X28985136Y-73240147D01*
X30100000Y-68500000D02*
X29817000Y-68783000D01*
X29817000Y-68783000D02*
X29817000Y-72408283D01*
%TO.N,Net-(D3-Pad2)*%
X25460000Y-33400000D02*
X25940000Y-32920000D01*
X23350000Y-33400000D02*
X25460000Y-33400000D01*
%TO.N,pin7*%
X285250000Y-49800000D02*
X284300000Y-49800000D01*
X283372999Y-50727001D02*
X266027001Y-50727001D01*
X284300000Y-49800000D02*
X283372999Y-50727001D01*
X265100000Y-49800000D02*
X264250000Y-49800000D01*
X266027001Y-50727001D02*
X265100000Y-49800000D01*
X230050000Y-49800000D02*
X231100000Y-49800000D01*
X232027001Y-50727001D02*
X262172999Y-50727001D01*
X231100000Y-49800000D02*
X232027001Y-50727001D01*
X263100000Y-49800000D02*
X264250000Y-49800000D01*
X262172999Y-50727001D02*
X263100000Y-49800000D01*
X194567010Y-50932990D02*
X165232990Y-50932990D01*
X164100000Y-49800000D02*
X163050000Y-49800000D01*
X165232990Y-50932990D02*
X164100000Y-49800000D01*
X195700000Y-49800000D02*
X194567010Y-50932990D01*
X196650000Y-49800000D02*
X195700000Y-49800000D01*
X131632990Y-50932990D02*
X130500000Y-49800000D01*
X160967010Y-50932990D02*
X131632990Y-50932990D01*
X130500000Y-49800000D02*
X129450000Y-49800000D01*
X162100000Y-49800000D02*
X160967010Y-50932990D01*
X163050000Y-49800000D02*
X162100000Y-49800000D01*
X93100000Y-49800000D02*
X92050000Y-49800000D01*
X94232990Y-50932990D02*
X93100000Y-49800000D01*
X127367010Y-50932990D02*
X94232990Y-50932990D01*
X128500000Y-49800000D02*
X127367010Y-50932990D01*
X129450000Y-49800000D02*
X128500000Y-49800000D01*
X198832990Y-50932990D02*
X197700000Y-49800000D01*
X225067010Y-50932990D02*
X198832990Y-50932990D01*
X197700000Y-49800000D02*
X196650000Y-49800000D01*
X226200000Y-49800000D02*
X225067010Y-50932990D01*
X230050000Y-49800000D02*
X226200000Y-49800000D01*
X92050000Y-49800000D02*
X91100000Y-49800000D01*
X91100000Y-49800000D02*
X89967010Y-50932990D01*
X63300000Y-49800000D02*
X62250000Y-49800000D01*
X64432990Y-50932990D02*
X63300000Y-49800000D01*
X89967010Y-50932990D02*
X64432990Y-50932990D01*
X60518999Y-50827001D02*
X23027001Y-50827001D01*
X61546000Y-49800000D02*
X60518999Y-50827001D01*
X62250000Y-49800000D02*
X61546000Y-49800000D01*
X22000000Y-49800000D02*
X20650000Y-49800000D01*
X23027001Y-50827001D02*
X22000000Y-49800000D01*
X75367963Y-80738979D02*
X91761021Y-80738979D01*
X74600000Y-81000000D02*
X75106942Y-81000000D01*
X75106942Y-81000000D02*
X75367963Y-80738979D01*
X91761021Y-80738979D02*
X92100000Y-80400000D01*
X48500000Y-100078834D02*
X48408028Y-99986862D01*
X48500000Y-101300000D02*
X48500000Y-100078834D01*
X58267283Y-95745989D02*
X63811943Y-95745989D01*
X63811943Y-95745989D02*
X69184942Y-90372990D01*
X69184942Y-90372990D02*
X71797660Y-90372990D01*
X57764398Y-96248874D02*
X58267283Y-95745989D01*
%TO.N,Net-(D4-Pad2)*%
X25460000Y-49800000D02*
X25940000Y-49320000D01*
X23950000Y-49800000D02*
X25460000Y-49800000D01*
X25940000Y-49320000D02*
X30140000Y-49320000D01*
%TO.N,Net-(D5-Pad2)*%
X25460000Y-66200000D02*
X25940000Y-65720000D01*
X23950000Y-66200000D02*
X25460000Y-66200000D01*
X25940000Y-65720000D02*
X30140000Y-65720000D01*
%TO.N,pin8*%
X56027001Y-67127001D02*
X90372999Y-67127001D01*
X55100000Y-66200000D02*
X56027001Y-67127001D01*
X91300000Y-66200000D02*
X92050000Y-66200000D01*
X90372999Y-67127001D02*
X91300000Y-66200000D01*
X54250000Y-66200000D02*
X55100000Y-66200000D01*
X128300000Y-66200000D02*
X129250000Y-66200000D01*
X127167010Y-67332990D02*
X128300000Y-66200000D01*
X94032990Y-67332990D02*
X127167010Y-67332990D01*
X92900000Y-66200000D02*
X94032990Y-67332990D01*
X92050000Y-66200000D02*
X92900000Y-66200000D01*
X229100000Y-66200000D02*
X230100000Y-66200000D01*
X228172999Y-67127001D02*
X229100000Y-66200000D01*
X197300000Y-66200000D02*
X198227001Y-67127001D01*
X198227001Y-67127001D02*
X228172999Y-67127001D01*
X196450000Y-66200000D02*
X197300000Y-66200000D01*
X283372999Y-67127001D02*
X284300000Y-66200000D01*
X284300000Y-66200000D02*
X285250000Y-66200000D01*
X260800000Y-66200000D02*
X264250000Y-66200000D01*
X259872999Y-67127001D02*
X260800000Y-66200000D01*
X230900000Y-66200000D02*
X231827001Y-67127001D01*
X231827001Y-67127001D02*
X259872999Y-67127001D01*
X230050000Y-66200000D02*
X230900000Y-66200000D01*
X266127001Y-67127001D02*
X283372999Y-67127001D01*
X265200000Y-66200000D02*
X266127001Y-67127001D01*
X264250000Y-66200000D02*
X265200000Y-66200000D01*
X194267010Y-67332990D02*
X195400000Y-66200000D01*
X164832990Y-67332990D02*
X194267010Y-67332990D01*
X195400000Y-66200000D02*
X196450000Y-66200000D01*
X163700000Y-66200000D02*
X164832990Y-67332990D01*
X162850000Y-66200000D02*
X163700000Y-66200000D01*
X162146000Y-66200000D02*
X162850000Y-66200000D01*
X160764988Y-67581012D02*
X162146000Y-66200000D01*
X155823340Y-67154010D02*
X156250342Y-67581012D01*
X131154010Y-67154010D02*
X155823340Y-67154010D01*
X130200000Y-66200000D02*
X131154010Y-67154010D01*
X156250342Y-67581012D02*
X160764988Y-67581012D01*
X129250000Y-66200000D02*
X130200000Y-66200000D01*
X47942068Y-66200000D02*
X54250000Y-66200000D01*
X45773080Y-68368988D02*
X47942068Y-66200000D01*
X22527003Y-67127003D02*
X34296233Y-67127003D01*
X34296233Y-67127003D02*
X35538218Y-68368988D01*
X21600000Y-66200000D02*
X22527003Y-67127003D01*
X35538218Y-68368988D02*
X45773080Y-68368988D01*
X20650000Y-66200000D02*
X21600000Y-66200000D01*
X50100000Y-101300000D02*
X50100000Y-100000000D01*
X58800000Y-97000000D02*
X59100000Y-96700000D01*
X64339010Y-96700000D02*
X69300000Y-91739010D01*
X59100000Y-96700000D02*
X64339010Y-96700000D01*
X69300000Y-91739010D02*
X108660990Y-91739010D01*
X108660990Y-91739010D02*
X110800000Y-89600000D01*
%TO.N,pin9*%
X89027001Y-83527001D02*
X118972999Y-83527001D01*
X88100000Y-82600000D02*
X89027001Y-83527001D01*
X119900000Y-82600000D02*
X120850000Y-82600000D01*
X118972999Y-83527001D02*
X119900000Y-82600000D01*
X87250000Y-82600000D02*
X88100000Y-82600000D01*
X222500000Y-82600000D02*
X221650000Y-82600000D01*
X223427001Y-83527001D02*
X222500000Y-82600000D01*
X254546000Y-82600000D02*
X253618999Y-83527001D01*
X253618999Y-83527001D02*
X223427001Y-83527001D01*
X255250000Y-82600000D02*
X254546000Y-82600000D01*
X190032990Y-83732990D02*
X188900000Y-82600000D01*
X188900000Y-82600000D02*
X188050000Y-82600000D01*
X219767010Y-83732990D02*
X190032990Y-83732990D01*
X220900000Y-82600000D02*
X219767010Y-83732990D01*
X221650000Y-82600000D02*
X220900000Y-82600000D01*
X156432990Y-83732990D02*
X155300000Y-82600000D01*
X185967010Y-83732990D02*
X156432990Y-83732990D01*
X187100000Y-82600000D02*
X185967010Y-83732990D01*
X155300000Y-82600000D02*
X154450000Y-82600000D01*
X188050000Y-82600000D02*
X187100000Y-82600000D01*
X122627001Y-83527001D02*
X121700000Y-82600000D01*
X153746000Y-82600000D02*
X152818999Y-83527001D01*
X121700000Y-82600000D02*
X120850000Y-82600000D01*
X152818999Y-83527001D02*
X122627001Y-83527001D01*
X154450000Y-82600000D02*
X153746000Y-82600000D01*
X282727006Y-83672994D02*
X256322994Y-83672994D01*
X283800000Y-82600000D02*
X282727006Y-83672994D01*
X256322994Y-83672994D02*
X255250000Y-82600000D01*
X288850000Y-82600000D02*
X283800000Y-82600000D01*
X42600000Y-93800000D02*
X41250000Y-93800000D01*
X40316979Y-92866979D02*
X17216979Y-92866979D01*
X41250000Y-93800000D02*
X40316979Y-92866979D01*
X17216979Y-92866979D02*
X16800000Y-92450000D01*
X17450000Y-82600000D02*
X20050000Y-82600000D01*
X62456218Y-82600000D02*
X62519993Y-82663775D01*
X86277004Y-83572996D02*
X63429214Y-83572996D01*
X87250000Y-82600000D02*
X86277004Y-83572996D01*
X61550000Y-82600000D02*
X62456218Y-82600000D01*
X63429214Y-83572996D02*
X62519993Y-82663775D01*
X20050000Y-82600000D02*
X21750000Y-80900000D01*
X21750000Y-80900000D02*
X29800000Y-80900000D01*
X29800000Y-80900000D02*
X36400000Y-74300000D01*
X36400000Y-74300000D02*
X56900004Y-74300000D01*
X61050001Y-83099999D02*
X57799999Y-83099999D01*
X61550000Y-82600000D02*
X61050001Y-83099999D01*
X57799999Y-83099999D02*
X57500000Y-82800000D01*
%TO.N,Net-(D6-Pad2)*%
X25940000Y-82120000D02*
X34340000Y-82120000D01*
X25460000Y-82600000D02*
X23300000Y-82600000D01*
X25940000Y-82120000D02*
X25460000Y-82600000D01*
%TO.N,Net-(D7-Pad2)*%
X25900000Y-108200000D02*
X27050000Y-108200000D01*
X24972999Y-109127001D02*
X25900000Y-108200000D01*
X21107001Y-109127001D02*
X24972999Y-109127001D01*
X20660000Y-108680000D02*
X21107001Y-109127001D01*
X28580000Y-108200000D02*
X29060000Y-108680000D01*
X27050000Y-108200000D02*
X28580000Y-108200000D01*
%TO.N,pin10*%
X120700000Y-99000000D02*
X121450000Y-99000000D01*
X119567010Y-100132990D02*
X120700000Y-99000000D01*
X89232990Y-100132990D02*
X119567010Y-100132990D01*
X88100000Y-99000000D02*
X89232990Y-100132990D01*
X87250000Y-99000000D02*
X88100000Y-99000000D01*
X152772999Y-99927001D02*
X153700000Y-99000000D01*
X153700000Y-99000000D02*
X154500000Y-99000000D01*
X122300000Y-99000000D02*
X123227001Y-99927001D01*
X123227001Y-99927001D02*
X152772999Y-99927001D01*
X121450000Y-99000000D02*
X122300000Y-99000000D01*
X186167010Y-100132990D02*
X187300000Y-99000000D01*
X156432990Y-100132990D02*
X186167010Y-100132990D01*
X155300000Y-99000000D02*
X156432990Y-100132990D01*
X187300000Y-99000000D02*
X188050000Y-99000000D01*
X154450000Y-99000000D02*
X155300000Y-99000000D01*
X188050000Y-99000000D02*
X188900000Y-99000000D01*
X203601885Y-99000000D02*
X215850000Y-99000000D01*
X202674884Y-99927001D02*
X203601885Y-99000000D01*
X189827001Y-99927001D02*
X202674884Y-99927001D01*
X188900000Y-99000000D02*
X189827001Y-99927001D01*
X217832990Y-100132990D02*
X251567010Y-100132990D01*
X216700000Y-99000000D02*
X217832990Y-100132990D01*
X252700000Y-99000000D02*
X253650000Y-99000000D01*
X251567010Y-100132990D02*
X252700000Y-99000000D01*
X215850000Y-99000000D02*
X216700000Y-99000000D01*
X255632990Y-100132990D02*
X254500000Y-99000000D01*
X284267010Y-100132990D02*
X255632990Y-100132990D01*
X285400000Y-99000000D02*
X284267010Y-100132990D01*
X254500000Y-99000000D02*
X253650000Y-99000000D01*
X289050000Y-99000000D02*
X285400000Y-99000000D01*
X87082990Y-107067010D02*
X87250000Y-106900000D01*
X60532990Y-107067010D02*
X87082990Y-107067010D01*
X59450000Y-108150000D02*
X60532990Y-107067010D01*
X58350000Y-108150000D02*
X59450000Y-108150000D01*
X57952990Y-107752990D02*
X58350000Y-108150000D01*
X53476020Y-107752990D02*
X57952990Y-107752990D01*
X52348990Y-107752990D02*
X53476020Y-107752990D01*
X46900000Y-102304000D02*
X52348990Y-107752990D01*
X46900000Y-101300000D02*
X46900000Y-102304000D01*
X52361515Y-107752990D02*
X53476020Y-107752990D01*
X23750000Y-108200000D02*
X24677001Y-107272999D01*
X50507495Y-109607010D02*
X52361515Y-107752990D01*
X24677001Y-107272999D02*
X34342009Y-107272999D01*
X36676020Y-109607010D02*
X50507495Y-109607010D01*
X34342009Y-107272999D02*
X36676020Y-109607010D01*
%TO.N,RE1_2*%
X61550000Y-20400000D02*
X63900000Y-20400000D01*
%TO.N,Net-(D9-Pad2)*%
X42260000Y-33400000D02*
X42740000Y-32920000D01*
X40150000Y-33400000D02*
X42260000Y-33400000D01*
%TO.N,pin2*%
X246850000Y-49800000D02*
X245900000Y-49800000D01*
X244492990Y-48392990D02*
X215807010Y-48392990D01*
X245900000Y-49800000D02*
X244492990Y-48392990D01*
X214400000Y-49800000D02*
X213250000Y-49800000D01*
X215807010Y-48392990D02*
X214400000Y-49800000D01*
X213250000Y-49800000D02*
X212300000Y-49800000D01*
X210892990Y-48392990D02*
X182207010Y-48392990D01*
X212300000Y-49800000D02*
X210892990Y-48392990D01*
X180800000Y-49800000D02*
X179850000Y-49800000D01*
X182207010Y-48392990D02*
X180800000Y-49800000D01*
X179850000Y-49800000D02*
X178800000Y-49800000D01*
X177392990Y-48392990D02*
X148607010Y-48392990D01*
X178800000Y-49800000D02*
X177392990Y-48392990D01*
X147200000Y-49800000D02*
X146250000Y-49800000D01*
X148607010Y-48392990D02*
X147200000Y-49800000D01*
X146250000Y-49800000D02*
X145300000Y-49800000D01*
X113700000Y-49800000D02*
X112650000Y-49800000D01*
X115107010Y-48392990D02*
X113700000Y-49800000D01*
X145300000Y-49800000D02*
X143892990Y-48392990D01*
X133892990Y-48392990D02*
X115107010Y-48392990D01*
X143892990Y-48392990D02*
X133892990Y-48392990D01*
X133850000Y-21650000D02*
X133900000Y-21700000D01*
X133850000Y-20400000D02*
X133850000Y-21650000D01*
X265790000Y-20400000D02*
X265130000Y-21060000D01*
X268250000Y-20400000D02*
X265790000Y-20400000D01*
X249299998Y-48200002D02*
X261700000Y-48200002D01*
X247700000Y-49800000D02*
X249299998Y-48200002D01*
X246850000Y-49800000D02*
X247700000Y-49800000D01*
X71800000Y-49800000D02*
X71050000Y-49800000D01*
X73207010Y-48392990D02*
X71800000Y-49800000D01*
X111800000Y-49800000D02*
X110392990Y-48392990D01*
X112650000Y-49800000D02*
X111800000Y-49800000D01*
X32250000Y-49900000D02*
X33350000Y-49900000D01*
X34857010Y-48392990D02*
X58407010Y-48392990D01*
X33350000Y-49900000D02*
X34857010Y-48392990D01*
X60427001Y-46372999D02*
X63272999Y-46372999D01*
X58407010Y-48392990D02*
X60427001Y-46372999D01*
X64200000Y-47300000D02*
X65550000Y-47300000D01*
X63272999Y-46372999D02*
X64200000Y-47300000D01*
X69004011Y-47754011D02*
X71050000Y-49800000D01*
X65550000Y-47300000D02*
X66004011Y-47754011D01*
X66004011Y-47754011D02*
X69004011Y-47754011D01*
X94307010Y-48392990D02*
X73207010Y-48392990D01*
X110392990Y-48392990D02*
X94307010Y-48392990D01*
X74726729Y-80284968D02*
X91323502Y-80284968D01*
X74642900Y-80201139D02*
X74726729Y-80284968D01*
X91323502Y-80284968D02*
X92072990Y-79535480D01*
X47700000Y-101300000D02*
X47700000Y-100093551D01*
X47700000Y-100093551D02*
X47608153Y-100001704D01*
X69169876Y-89745988D02*
X70913288Y-89745988D01*
X57708022Y-95291978D02*
X63623886Y-95291978D01*
X63623886Y-95291978D02*
X69169876Y-89745988D01*
X56900000Y-96100000D02*
X57708022Y-95291978D01*
%TO.N,Net-(D10-Pad2)*%
X42740000Y-49320000D02*
X51140000Y-49320000D01*
X42160000Y-49900000D02*
X42740000Y-49320000D01*
X35550000Y-49900000D02*
X42160000Y-49900000D01*
%TO.N,Net-(D11-Pad2)*%
X37890000Y-75450000D02*
X37460000Y-75880000D01*
X45430000Y-75450000D02*
X37890000Y-75450000D01*
X45860000Y-75880000D02*
X45430000Y-75450000D01*
X35550000Y-67150000D02*
X36100000Y-67700000D01*
X35550000Y-66200000D02*
X35550000Y-67150000D01*
X37000898Y-70350898D02*
X37000898Y-72295966D01*
X37000898Y-72295966D02*
X36637919Y-72658945D01*
X36100000Y-69450000D02*
X37000898Y-70350898D01*
%TO.N,pin3*%
X112450000Y-66200000D02*
X113400000Y-66200000D01*
X141348895Y-66647010D02*
X152723980Y-66647010D01*
X139494875Y-64792990D02*
X141348895Y-66647010D01*
X114807010Y-64792990D02*
X139494875Y-64792990D01*
X113400000Y-66200000D02*
X114807010Y-64792990D01*
X153170990Y-66200000D02*
X153850000Y-66200000D01*
X152723980Y-66647010D02*
X153170990Y-66200000D01*
X178800000Y-66200000D02*
X179650000Y-66200000D01*
X177392990Y-64792990D02*
X178800000Y-66200000D01*
X162618408Y-64792990D02*
X177392990Y-64792990D01*
X156438399Y-67127001D02*
X160284397Y-67127001D01*
X155511398Y-66200000D02*
X156438399Y-67127001D01*
X153850000Y-66200000D02*
X155511398Y-66200000D01*
X179650000Y-66200000D02*
X180500000Y-66200000D01*
X181907010Y-64792990D02*
X210992990Y-64792990D01*
X180500000Y-66200000D02*
X181907010Y-64792990D01*
X212400000Y-66200000D02*
X213250000Y-66200000D01*
X210992990Y-64792990D02*
X212400000Y-66200000D01*
X213250000Y-66200000D02*
X214100000Y-66200000D01*
X215507010Y-64792990D02*
X244492990Y-64792990D01*
X214100000Y-66200000D02*
X215507010Y-64792990D01*
X245900000Y-66200000D02*
X246850000Y-66200000D01*
X244492990Y-64792990D02*
X245900000Y-66200000D01*
X167450000Y-21750000D02*
X167400000Y-21800000D01*
X167450000Y-20400000D02*
X167450000Y-21750000D01*
X162505699Y-64905699D02*
X162618408Y-64792990D01*
X160284397Y-67127001D02*
X162505699Y-64905699D01*
X49300000Y-101300000D02*
X49300000Y-100000000D01*
X64000000Y-96200000D02*
X68952990Y-91247010D01*
X68952990Y-91247010D02*
X108266262Y-91247010D01*
X58700000Y-96200000D02*
X64000000Y-96200000D01*
X57800000Y-97100000D02*
X58700000Y-96200000D01*
X108266262Y-91247010D02*
X109771698Y-89741574D01*
X112450000Y-66200000D02*
X111000000Y-66200000D01*
X108200000Y-63400000D02*
X111000000Y-66200000D01*
X73850000Y-63400000D02*
X108200000Y-63400000D01*
X71050000Y-66200000D02*
X73850000Y-63400000D01*
X33177001Y-65272999D02*
X32250000Y-66200000D01*
X36234972Y-64792990D02*
X35754963Y-65272999D01*
X68792990Y-64792990D02*
X36234972Y-64792990D01*
X35754963Y-65272999D02*
X33177001Y-65272999D01*
X70200000Y-66200000D02*
X68792990Y-64792990D01*
X71050000Y-66200000D02*
X70200000Y-66200000D01*
%TO.N,pin4*%
X141195612Y-81192990D02*
X169092990Y-81192990D01*
X141188602Y-81200000D02*
X141195612Y-81192990D01*
X170500000Y-82600000D02*
X171250000Y-82600000D01*
X169092990Y-81192990D02*
X170500000Y-82600000D01*
X139900000Y-81200000D02*
X141188602Y-81200000D01*
X138500000Y-82600000D02*
X139900000Y-81200000D01*
X137650000Y-82600000D02*
X138500000Y-82600000D01*
X204100000Y-82600000D02*
X204850000Y-82600000D01*
X202692990Y-81192990D02*
X204100000Y-82600000D01*
X173507010Y-81192990D02*
X202692990Y-81192990D01*
X172100000Y-82600000D02*
X173507010Y-81192990D01*
X171250000Y-82600000D02*
X172100000Y-82600000D01*
X236292990Y-81192990D02*
X237700000Y-82600000D01*
X207107010Y-81192990D02*
X236292990Y-81192990D01*
X205700000Y-82600000D02*
X207107010Y-81192990D01*
X237700000Y-82600000D02*
X238450000Y-82600000D01*
X204850000Y-82600000D02*
X205700000Y-82600000D01*
X271300000Y-82600000D02*
X272050000Y-82600000D01*
X240707010Y-81192990D02*
X269892990Y-81192990D01*
X269892990Y-81192990D02*
X271300000Y-82600000D01*
X239300000Y-82600000D02*
X240707010Y-81192990D01*
X238450000Y-82600000D02*
X239300000Y-82600000D01*
X201050000Y-21850000D02*
X201000000Y-21900000D01*
X201050000Y-20400000D02*
X201050000Y-21850000D01*
X136600000Y-82600000D02*
X137650000Y-82600000D01*
X133800000Y-79800000D02*
X136600000Y-82600000D01*
X104050000Y-82600000D02*
X104100000Y-82550000D01*
X104100000Y-82550000D02*
X104100000Y-81400000D01*
X105700000Y-79800000D02*
X133800000Y-79800000D01*
X104100000Y-81400000D02*
X105700000Y-79800000D01*
X42600000Y-93000000D02*
X41175000Y-93000000D01*
X17605918Y-92308022D02*
X16561490Y-91263594D01*
X40483022Y-92308022D02*
X17605918Y-92308022D01*
X41175000Y-93000000D02*
X40483022Y-92308022D01*
X36220780Y-83583220D02*
X17327010Y-83583220D01*
X36350000Y-82600000D02*
X36350000Y-83454000D01*
X36350000Y-83454000D02*
X36220780Y-83583220D01*
X62802990Y-74952990D02*
X70450000Y-82600000D01*
X36676020Y-74952990D02*
X62802990Y-74952990D01*
X36132990Y-75496020D02*
X36676020Y-74952990D01*
X36132990Y-82382990D02*
X36132990Y-75496020D01*
X36350000Y-82600000D02*
X36132990Y-82382990D01*
X102692990Y-81192990D02*
X104100000Y-82600000D01*
X92107010Y-81192990D02*
X102692990Y-81192990D01*
X91872033Y-81200000D02*
X92100000Y-81200000D01*
X75556020Y-81192990D02*
X91865023Y-81192990D01*
X75122009Y-81627001D02*
X75556020Y-81192990D01*
X92100000Y-81200000D02*
X92107010Y-81192990D01*
X71472999Y-81627001D02*
X75122009Y-81627001D01*
X91865023Y-81192990D02*
X91872033Y-81200000D01*
X70500000Y-82600000D02*
X71472999Y-81627001D01*
%TO.N,Net-(D12-Pad2)*%
X42260000Y-82600000D02*
X42740000Y-82120000D01*
X39700000Y-82600000D02*
X42260000Y-82600000D01*
%TO.N,Net-(D13-Pad2)*%
X37907001Y-109127001D02*
X40172999Y-109127001D01*
X37460000Y-108680000D02*
X37907001Y-109127001D01*
X41100000Y-108200000D02*
X42750000Y-108200000D01*
X40172999Y-109127001D02*
X41100000Y-108200000D01*
%TO.N,pin5*%
X233500000Y-99000000D02*
X232650000Y-99000000D01*
X234907010Y-97592990D02*
X233500000Y-99000000D01*
X269692990Y-97592990D02*
X234907010Y-97592990D01*
X271100000Y-99000000D02*
X269692990Y-97592990D01*
X272050000Y-99000000D02*
X271100000Y-99000000D01*
X198500000Y-99000000D02*
X197650000Y-99000000D01*
X199907010Y-97592990D02*
X198500000Y-99000000D01*
X230292990Y-97592990D02*
X199907010Y-97592990D01*
X231700000Y-99000000D02*
X230292990Y-97592990D01*
X232650000Y-99000000D02*
X231700000Y-99000000D01*
X106907010Y-97592990D02*
X105500000Y-99000000D01*
X135892990Y-97592990D02*
X106907010Y-97592990D01*
X105500000Y-99000000D02*
X104650000Y-99000000D01*
X137300000Y-99000000D02*
X135892990Y-97592990D01*
X138250000Y-99000000D02*
X137300000Y-99000000D01*
X72227001Y-98072999D02*
X71300000Y-99000000D01*
X74227001Y-98072999D02*
X72227001Y-98072999D01*
X71300000Y-99000000D02*
X70450000Y-99000000D01*
X74707010Y-97592990D02*
X74227001Y-98072999D01*
X104650000Y-99000000D02*
X103700000Y-99000000D01*
X102292990Y-97592990D02*
X74707010Y-97592990D01*
X103700000Y-99000000D02*
X102292990Y-97592990D01*
X234650000Y-21650000D02*
X234700000Y-21700000D01*
X234650000Y-20400000D02*
X234650000Y-21650000D01*
X140100000Y-96200000D02*
X138250000Y-98050000D01*
X142900000Y-96200000D02*
X140100000Y-96200000D01*
X144300000Y-97600000D02*
X142900000Y-96200000D01*
X146949010Y-97600000D02*
X144300000Y-97600000D01*
X146956020Y-97592990D02*
X146949010Y-97600000D01*
X148530990Y-97600000D02*
X148523980Y-97592990D01*
X148523980Y-97592990D02*
X146956020Y-97592990D01*
X150630990Y-97600000D02*
X150623980Y-97592990D01*
X159549010Y-97600000D02*
X152730990Y-97600000D01*
X152730990Y-97600000D02*
X152723980Y-97592990D01*
X151156020Y-97592990D02*
X151149010Y-97600000D01*
X152723980Y-97592990D02*
X151156020Y-97592990D01*
X149049010Y-97600000D02*
X148530990Y-97600000D01*
X170300000Y-99000000D02*
X168900000Y-97600000D01*
X149056020Y-97592990D02*
X149049010Y-97600000D01*
X168900000Y-97600000D02*
X161130990Y-97600000D01*
X161123980Y-97592990D02*
X159556020Y-97592990D01*
X161130990Y-97600000D02*
X161123980Y-97592990D01*
X138250000Y-98050000D02*
X138250000Y-99000000D01*
X151149010Y-97600000D02*
X150630990Y-97600000D01*
X150623980Y-97592990D02*
X149056020Y-97592990D01*
X159556020Y-97592990D02*
X159549010Y-97600000D01*
X171250000Y-99000000D02*
X170300000Y-99000000D01*
X172100000Y-99000000D02*
X171250000Y-99000000D01*
X173507010Y-97592990D02*
X172100000Y-99000000D01*
X177923980Y-97592990D02*
X173507010Y-97592990D01*
X192412161Y-97717001D02*
X178047991Y-97717001D01*
X195292990Y-97592990D02*
X192536172Y-97592990D01*
X196700000Y-99000000D02*
X195292990Y-97592990D01*
X178047991Y-97717001D02*
X177923980Y-97592990D01*
X192536172Y-97592990D02*
X192412161Y-97717001D01*
X197650000Y-99000000D02*
X196700000Y-99000000D01*
X42600000Y-99400000D02*
X42600000Y-100500000D01*
X39500000Y-108150000D02*
X39450000Y-108200000D01*
X39500000Y-106900000D02*
X39500000Y-108150000D01*
X70450000Y-99000000D02*
X69200000Y-99000000D01*
X69200000Y-99000000D02*
X68500000Y-99700000D01*
X68500000Y-99700000D02*
X57700004Y-99700000D01*
%TO.N,Net-(D14-Pad1)*%
X69890000Y-84660000D02*
X78290000Y-84660000D01*
X53090000Y-68260000D02*
X78290000Y-68260000D01*
X69890000Y-84660000D02*
X53090000Y-84660000D01*
X53090000Y-51860000D02*
X61490000Y-51860000D01*
X36290000Y-35460000D02*
X53090000Y-35460000D01*
X61500000Y-47300000D02*
X61000000Y-47800000D01*
X62250000Y-47300000D02*
X61500000Y-47300000D01*
X69890000Y-101060000D02*
X76190000Y-101060000D01*
X60710000Y-106140000D02*
X62810000Y-106140000D01*
%TO.N,Net-(D15-Pad2)*%
X59060000Y-33400000D02*
X59540000Y-32920000D01*
X56950000Y-33400000D02*
X59060000Y-33400000D01*
%TO.N,Net-(D16-Pad2)*%
X67460000Y-49800000D02*
X67940000Y-49320000D01*
X65550000Y-49800000D02*
X67460000Y-49800000D01*
X59987001Y-48872999D02*
X63372999Y-48872999D01*
X59540000Y-49320000D02*
X59987001Y-48872999D01*
X64300000Y-49800000D02*
X65550000Y-49800000D01*
X63372999Y-48872999D02*
X64300000Y-49800000D01*
%TO.N,Net-(D17-Pad2)*%
X59060000Y-66200000D02*
X59540000Y-65720000D01*
X57550000Y-66200000D02*
X59060000Y-66200000D01*
X67940000Y-65720000D02*
X59540000Y-65720000D01*
%TO.N,Net-(D18-Pad2)*%
X59987001Y-81672999D02*
X62572999Y-81672999D01*
X59540000Y-82120000D02*
X59987001Y-81672999D01*
X63500000Y-82600000D02*
X64850000Y-82600000D01*
X62572999Y-81672999D02*
X63500000Y-82600000D01*
%TO.N,Net-(D19-Pad2)*%
X54260000Y-108680000D02*
X56360000Y-108680000D01*
X56757001Y-109077001D02*
X59522999Y-109077001D01*
X56360000Y-108680000D02*
X56757001Y-109077001D01*
X60450000Y-108150000D02*
X61650000Y-108150000D01*
X59522999Y-109077001D02*
X60450000Y-108150000D01*
%TO.N,Net-(D20-Pad2)*%
X75860000Y-33400000D02*
X76340000Y-32920000D01*
X73750000Y-33400000D02*
X75860000Y-33400000D01*
%TO.N,Net-(D21-Pad2)*%
X75860000Y-49800000D02*
X76340000Y-49320000D01*
X74350000Y-49800000D02*
X75860000Y-49800000D01*
X76340000Y-49320000D02*
X84740000Y-49320000D01*
%TO.N,Net-(D22-Pad2)*%
X75860000Y-66200000D02*
X76340000Y-65720000D01*
X74350000Y-66200000D02*
X75860000Y-66200000D01*
X76340000Y-65720000D02*
X84740000Y-65720000D01*
%TO.N,Net-(D23-Pad2)*%
X76340000Y-82120000D02*
X84740000Y-82120000D01*
X75860000Y-82600000D02*
X76340000Y-82120000D01*
X73700000Y-82600000D02*
X75860000Y-82600000D01*
%TO.N,Net-(D24-Pad2)*%
X75860000Y-99000000D02*
X76340000Y-98520000D01*
X73750000Y-99000000D02*
X75860000Y-99000000D01*
X76340000Y-98520000D02*
X82640000Y-98520000D01*
%TO.N,Net-(D25-Pad1)*%
X105590000Y-101060000D02*
X103490000Y-101060000D01*
X86690000Y-84660000D02*
X103490000Y-84660000D01*
X86690000Y-101060000D02*
X103490000Y-101060000D01*
X69890000Y-35460000D02*
X86690000Y-35460000D01*
X95090000Y-68260000D02*
X90890000Y-68260000D01*
X71050000Y-63400000D02*
X71050000Y-62450000D01*
X71050000Y-62450000D02*
X71300000Y-62200000D01*
X90900000Y-62200000D02*
X91367001Y-61732999D01*
X71300000Y-62200000D02*
X90900000Y-62200000D01*
X108189162Y-84660000D02*
X109617001Y-86087839D01*
X103490000Y-84660000D02*
X108189162Y-84660000D01*
X95090000Y-51860000D02*
X69890000Y-51860000D01*
%TO.N,Net-(D26-Pad2)*%
X92660000Y-33400000D02*
X93140000Y-32920000D01*
X90550000Y-33400000D02*
X92660000Y-33400000D01*
%TO.N,Net-(D27-Pad2)*%
X96860000Y-49800000D02*
X97340000Y-49320000D01*
X95350000Y-49800000D02*
X96860000Y-49800000D01*
X97340000Y-49320000D02*
X101540000Y-49320000D01*
%TO.N,Net-(D28-Pad2)*%
X96860000Y-66200000D02*
X97340000Y-65720000D01*
X95350000Y-66200000D02*
X96860000Y-66200000D01*
X97340000Y-65720000D02*
X101540000Y-65720000D01*
%TO.N,Net-(D29-Pad2)*%
X92660000Y-82600000D02*
X93140000Y-82120000D01*
X90500000Y-82600000D02*
X92660000Y-82600000D01*
X93140000Y-82120000D02*
X101540000Y-82120000D01*
%TO.N,Net-(D30-Pad2)*%
X92660000Y-99000000D02*
X93140000Y-98520000D01*
X90550000Y-99000000D02*
X92660000Y-99000000D01*
%TO.N,Net-(D31-Pad2)*%
X109460000Y-33400000D02*
X109940000Y-32920000D01*
X107350000Y-33400000D02*
X109460000Y-33400000D01*
%TO.N,Net-(D32-Pad2)*%
X117860000Y-49800000D02*
X118340000Y-49320000D01*
X115950000Y-49800000D02*
X117860000Y-49800000D01*
%TO.N,Net-(D33-Pad2)*%
X117860000Y-66200000D02*
X118340000Y-65720000D01*
X115750000Y-66200000D02*
X117860000Y-66200000D01*
%TO.N,Net-(D34-Pad2)*%
X109460000Y-82600000D02*
X109940000Y-82120000D01*
X107300000Y-82600000D02*
X109460000Y-82600000D01*
%TO.N,Net-(D35-Pad2)*%
X109460000Y-99000000D02*
X109940000Y-98520000D01*
X107950000Y-99000000D02*
X109460000Y-99000000D01*
X109940000Y-98520000D02*
X112040000Y-98520000D01*
%TO.N,Net-(D36-Pad1)*%
X145490000Y-101060000D02*
X120290000Y-101060000D01*
X103490000Y-35460000D02*
X120290000Y-35460000D01*
X111890000Y-51860000D02*
X128690000Y-51860000D01*
X111890000Y-68260000D02*
X128690000Y-68260000D01*
X104977005Y-78872995D02*
X112227001Y-78872995D01*
X104050000Y-79800000D02*
X104977005Y-78872995D01*
X112227001Y-78872995D02*
X112400000Y-79045994D01*
%TO.N,Net-(D37-Pad2)*%
X126260000Y-33400000D02*
X126740000Y-32920000D01*
X124150000Y-33400000D02*
X126260000Y-33400000D01*
%TO.N,Net-(D38-Pad2)*%
X134660000Y-49800000D02*
X135140000Y-49320000D01*
X132750000Y-49800000D02*
X134660000Y-49800000D01*
%TO.N,Net-(D39-Pad2)*%
X134660000Y-66200000D02*
X135140000Y-65720000D01*
X132550000Y-66200000D02*
X134660000Y-66200000D01*
%TO.N,Net-(D40-Pad2)*%
X126260000Y-82600000D02*
X126740000Y-82120000D01*
X124100000Y-82600000D02*
X126260000Y-82600000D01*
%TO.N,Net-(D41-Pad2)*%
X126260000Y-99000000D02*
X126740000Y-98520000D01*
X124750000Y-99000000D02*
X126260000Y-99000000D01*
X126740000Y-98520000D02*
X133040000Y-98520000D01*
%TO.N,Net-(D42-Pad2)*%
X143060000Y-33400000D02*
X143540000Y-32920000D01*
X140950000Y-33400000D02*
X143060000Y-33400000D01*
%TO.N,Net-(D43-Pad2)*%
X151460000Y-49800000D02*
X151940000Y-49320000D01*
X149550000Y-49800000D02*
X151460000Y-49800000D01*
%TO.N,Net-(D44-Pad2)*%
X152387001Y-65272999D02*
X151940000Y-65720000D01*
X157150000Y-66200000D02*
X156222999Y-65272999D01*
X156222999Y-65272999D02*
X152387001Y-65272999D01*
%TO.N,Net-(D45-Pad2)*%
X143060000Y-82600000D02*
X143540000Y-82120000D01*
X140900000Y-82600000D02*
X143060000Y-82600000D01*
%TO.N,Net-(D46-Pad2)*%
X143060000Y-99000000D02*
X143540000Y-98520000D01*
X141550000Y-99000000D02*
X143060000Y-99000000D01*
X143540000Y-98520000D02*
X151940000Y-98520000D01*
%TO.N,Net-(D47-Pad1)*%
X137090000Y-84660000D02*
X153890000Y-84660000D01*
X162290000Y-51860000D02*
X145490000Y-51860000D01*
X137090000Y-35460000D02*
X153890000Y-35460000D01*
X145490000Y-68260000D02*
X162290000Y-68260000D01*
X138200000Y-96050000D02*
X138250000Y-96100000D01*
X138200000Y-94800000D02*
X138200000Y-96050000D01*
%TO.N,Net-(D48-Pad2)*%
X159860000Y-33400000D02*
X160340000Y-32920000D01*
X157750000Y-33400000D02*
X159860000Y-33400000D01*
%TO.N,Net-(D49-Pad2)*%
X168260000Y-49800000D02*
X168740000Y-49320000D01*
X166350000Y-49800000D02*
X168260000Y-49800000D01*
%TO.N,Net-(D50-Pad2)*%
X168260000Y-66200000D02*
X168740000Y-65720000D01*
X166150000Y-66200000D02*
X168260000Y-66200000D01*
%TO.N,Net-(D51-Pad2)*%
X159860000Y-82600000D02*
X160340000Y-82120000D01*
X157700000Y-82600000D02*
X159860000Y-82600000D01*
%TO.N,Net-(D52-Pad2)*%
X159860000Y-99000000D02*
X160340000Y-98520000D01*
X157750000Y-99000000D02*
X159860000Y-99000000D01*
%TO.N,RE3_2*%
X170750000Y-20400000D02*
X173100000Y-20400000D01*
%TO.N,Net-(D54-Pad2)*%
X176660000Y-33400000D02*
X177140000Y-32920000D01*
X174550000Y-33400000D02*
X176660000Y-33400000D01*
%TO.N,Net-(D55-Pad2)*%
X185060000Y-49800000D02*
X185540000Y-49320000D01*
X183150000Y-49800000D02*
X185060000Y-49800000D01*
%TO.N,Net-(D56-Pad2)*%
X185060000Y-66200000D02*
X185540000Y-65720000D01*
X182950000Y-66200000D02*
X185060000Y-66200000D01*
%TO.N,Net-(D57-Pad2)*%
X176660000Y-82600000D02*
X177140000Y-82120000D01*
X174500000Y-82600000D02*
X176660000Y-82600000D01*
%TO.N,Net-(D58-Pad2)*%
X176660000Y-99000000D02*
X177140000Y-98520000D01*
X174550000Y-99000000D02*
X176660000Y-99000000D01*
%TO.N,Net-(D59-Pad1)*%
X170690000Y-84660000D02*
X187490000Y-84660000D01*
X179090000Y-51860000D02*
X195890000Y-51860000D01*
X180040000Y-35460000D02*
X180400000Y-35100000D01*
X170690000Y-35460000D02*
X180040000Y-35460000D01*
X180800000Y-33400000D02*
X182050000Y-33400000D01*
%TO.N,Net-(D60-Pad2)*%
X193460000Y-33400000D02*
X193940000Y-32920000D01*
X191350000Y-33400000D02*
X193460000Y-33400000D01*
%TO.N,Net-(D61-Pad2)*%
X201860000Y-49800000D02*
X202340000Y-49320000D01*
X199950000Y-49800000D02*
X201860000Y-49800000D01*
%TO.N,Net-(D62-Pad2)*%
X201860000Y-66200000D02*
X202340000Y-65720000D01*
X199750000Y-66200000D02*
X201860000Y-66200000D01*
%TO.N,Net-(D63-Pad2)*%
X193460000Y-82600000D02*
X193940000Y-82120000D01*
X191300000Y-82600000D02*
X193460000Y-82600000D01*
%TO.N,Net-(D64-Pad2)*%
X193460000Y-99000000D02*
X193940000Y-98520000D01*
X191350000Y-99000000D02*
X193460000Y-99000000D01*
%TO.N,RE4_2*%
X204350000Y-20400000D02*
X206700000Y-20400000D01*
%TO.N,Net-(D66-Pad2)*%
X210260000Y-33400000D02*
X210740000Y-32920000D01*
X208150000Y-33400000D02*
X210260000Y-33400000D01*
%TO.N,Net-(D67-Pad2)*%
X218660000Y-49800000D02*
X219140000Y-49320000D01*
X216550000Y-49800000D02*
X218660000Y-49800000D01*
%TO.N,Net-(D68-Pad2)*%
X218660000Y-66200000D02*
X219140000Y-65720000D01*
X216550000Y-66200000D02*
X218660000Y-66200000D01*
%TO.N,Net-(D69-Pad2)*%
X210260000Y-82600000D02*
X210740000Y-82120000D01*
X208100000Y-82600000D02*
X210260000Y-82600000D01*
%TO.N,Net-(D70-Pad2)*%
X209660000Y-108680000D02*
X205460000Y-108680000D01*
X201500001Y-99000001D02*
X201800000Y-99300000D01*
X200950000Y-99000000D02*
X201500001Y-99000001D01*
%TO.N,Net-(D71-Pad1)*%
X214790000Y-101060000D02*
X221090000Y-101060000D01*
X211910000Y-106140000D02*
X216110000Y-106140000D01*
X225789162Y-101060000D02*
X221090000Y-101060000D01*
X225789162Y-106140000D02*
X227217001Y-104712161D01*
X227217001Y-102487839D02*
X225789162Y-101060000D01*
X227217001Y-104712161D02*
X227217001Y-102487839D01*
X216110000Y-106140000D02*
X225789162Y-106140000D01*
X204290000Y-84660000D02*
X221090000Y-84660000D01*
X204290000Y-35460000D02*
X187490000Y-35460000D01*
X229490000Y-68260000D02*
X212690000Y-68260000D01*
X222140000Y-51860000D02*
X222300000Y-51700000D01*
X212690000Y-51860000D02*
X222140000Y-51860000D01*
X223650000Y-49900000D02*
X223750000Y-49800000D01*
X222600000Y-49900000D02*
X223650000Y-49900000D01*
%TO.N,Net-(D72-Pad2)*%
X227060000Y-33400000D02*
X227540000Y-32920000D01*
X224950000Y-33400000D02*
X227060000Y-33400000D01*
%TO.N,Net-(D73-Pad2)*%
X235460000Y-49800000D02*
X235940000Y-49320000D01*
X233350000Y-49800000D02*
X235460000Y-49800000D01*
%TO.N,Net-(D74-Pad2)*%
X235460000Y-66200000D02*
X235940000Y-65720000D01*
X233350000Y-66200000D02*
X235460000Y-66200000D01*
%TO.N,Net-(D75-Pad2)*%
X227060000Y-82600000D02*
X227540000Y-82120000D01*
X224900000Y-82600000D02*
X227060000Y-82600000D01*
%TO.N,Net-(D76-Pad2)*%
X220760000Y-99000000D02*
X221240000Y-98520000D01*
X219150000Y-99000000D02*
X220760000Y-99000000D01*
X221240000Y-98520000D02*
X227540000Y-98520000D01*
%TO.N,RE5_2*%
X237950000Y-20400000D02*
X240300000Y-20400000D01*
%TO.N,Net-(D78-Pad2)*%
X243860000Y-33400000D02*
X244340000Y-32920000D01*
X241750000Y-33400000D02*
X243860000Y-33400000D01*
%TO.N,Net-(D79-Pad2)*%
X252260000Y-49800000D02*
X252740000Y-49320000D01*
X250150000Y-49800000D02*
X252260000Y-49800000D01*
%TO.N,Net-(D80-Pad2)*%
X252260000Y-66200000D02*
X252740000Y-65720000D01*
X250150000Y-66200000D02*
X252260000Y-66200000D01*
%TO.N,Net-(D81-Pad2)*%
X243860000Y-82600000D02*
X244340000Y-82120000D01*
X241700000Y-82600000D02*
X243860000Y-82600000D01*
%TO.N,Net-(D82-Pad2)*%
X237560000Y-99000000D02*
X238040000Y-98520000D01*
X235950000Y-99000000D02*
X237560000Y-99000000D01*
X238040000Y-98520000D02*
X244340000Y-98520000D01*
%TO.N,Net-(D83-Pad1)*%
X231590000Y-101060000D02*
X237890000Y-101060000D01*
X237890000Y-101060000D02*
X254690000Y-101060000D01*
X246290000Y-51860000D02*
X229490000Y-51860000D01*
X237890000Y-35460000D02*
X221090000Y-35460000D01*
X254690000Y-84660000D02*
X237890000Y-84660000D01*
X256440000Y-68260000D02*
X256700000Y-68000000D01*
X246290000Y-68260000D02*
X256440000Y-68260000D01*
X258250000Y-66300000D02*
X258350000Y-66200000D01*
X257200000Y-66300000D02*
X258250000Y-66300000D01*
%TO.N,Net-(D84-Pad2)*%
X260660000Y-33400000D02*
X261140000Y-32920000D01*
X258550000Y-33400000D02*
X260660000Y-33400000D01*
%TO.N,Net-(D85-Pad2)*%
X269060000Y-49800000D02*
X269540000Y-49320000D01*
X267550000Y-49800000D02*
X269060000Y-49800000D01*
X269540000Y-49320000D02*
X273740000Y-49320000D01*
%TO.N,Net-(D86-Pad2)*%
X269060000Y-66200000D02*
X269540000Y-65720000D01*
X267550000Y-66200000D02*
X269060000Y-66200000D01*
X269540000Y-65720000D02*
X273740000Y-65720000D01*
%TO.N,Net-(D87-Pad2)*%
X260660000Y-82600000D02*
X258500000Y-82600000D01*
X261140000Y-82120000D02*
X260660000Y-82600000D01*
%TO.N,Net-(D88-Pad2)*%
X258560000Y-99000000D02*
X259040000Y-98520000D01*
X256950000Y-99000000D02*
X258560000Y-99000000D01*
X259040000Y-98520000D02*
X261140000Y-98520000D01*
%TO.N,RE6_2*%
X271550000Y-20400000D02*
X273900000Y-20400000D01*
%TO.N,Net-(D90-Pad2)*%
X277460000Y-33400000D02*
X277940000Y-32920000D01*
X275350000Y-33400000D02*
X277460000Y-33400000D01*
%TO.N,Net-(D91-Pad2)*%
X277460000Y-82600000D02*
X275300000Y-82600000D01*
X277940000Y-82120000D02*
X277460000Y-82600000D01*
%TO.N,Net-(D92-Pad2)*%
X277460000Y-99000000D02*
X277940000Y-98520000D01*
X275350000Y-99000000D02*
X277460000Y-99000000D01*
%TO.N,RE6_1*%
X271490000Y-101060000D02*
X288290000Y-101060000D01*
X263090000Y-68260000D02*
X267290000Y-68260000D01*
X267290000Y-51860000D02*
X263090000Y-51860000D01*
X254690000Y-35460000D02*
X271490000Y-35460000D01*
X280300004Y-82600000D02*
X280300000Y-82600004D01*
X281350000Y-82600000D02*
X280300004Y-82600000D01*
X279339998Y-84660000D02*
X279699998Y-84300000D01*
X271490000Y-84660000D02*
X279339998Y-84660000D01*
%TO.N,RE1_1*%
X284090000Y-68260000D02*
X288290000Y-68260000D01*
X288290000Y-51860000D02*
X284090000Y-51860000D01*
X283000000Y-99050000D02*
X283050000Y-99100000D01*
X283000000Y-97800000D02*
X283000000Y-99050000D01*
X233211398Y-25400000D02*
X231384397Y-27227001D01*
X240300000Y-25400000D02*
X233211398Y-25400000D01*
X231384397Y-27227001D02*
X208527001Y-27227001D01*
X208527001Y-27227001D02*
X206700000Y-25400000D01*
X206700000Y-25400000D02*
X194806030Y-25400000D01*
X192927019Y-27279011D02*
X174979011Y-27279011D01*
X194806030Y-25400000D02*
X192927019Y-27279011D01*
X174979011Y-27279011D02*
X173100000Y-25400000D01*
X173100000Y-25400000D02*
X161206030Y-25400000D01*
X139500000Y-26814213D02*
X139500000Y-25400000D01*
X161206030Y-25400000D02*
X158216518Y-28389512D01*
X158216518Y-28389512D02*
X141075299Y-28389512D01*
X141075299Y-28389512D02*
X139500000Y-26814213D01*
X279316495Y-31538979D02*
X280202516Y-32425000D01*
X257638979Y-31538979D02*
X279316495Y-31538979D01*
X280202516Y-32425000D02*
X286500000Y-32425000D01*
X257227010Y-31127010D02*
X257638979Y-31538979D01*
X241606716Y-31127010D02*
X257227010Y-31127010D01*
X137103178Y-31127010D02*
X136691209Y-31538979D01*
X67337454Y-29409490D02*
X64973543Y-29409490D01*
X136691209Y-31538979D02*
X69466943Y-31538979D01*
X69466943Y-31538979D02*
X67337454Y-29409490D01*
%TO.N,Net-(D95-Pad2)*%
X294260000Y-33400000D02*
X294740000Y-32920000D01*
X292150000Y-33400000D02*
X294260000Y-33400000D01*
%TO.N,Net-(D96-Pad2)*%
X290060000Y-49800000D02*
X290540000Y-49320000D01*
X288550000Y-49800000D02*
X290060000Y-49800000D01*
X290540000Y-49320000D02*
X294740000Y-49320000D01*
%TO.N,Net-(D97-Pad2)*%
X290060000Y-66200000D02*
X290540000Y-65720000D01*
X288550000Y-66200000D02*
X290060000Y-66200000D01*
X290540000Y-65720000D02*
X294740000Y-65720000D01*
%TO.N,Net-(D98-Pad2)*%
X294260000Y-82600000D02*
X292100000Y-82600000D01*
X294740000Y-82120000D02*
X294260000Y-82600000D01*
%TO.N,Net-(D99-Pad2)*%
X294260000Y-99000000D02*
X294740000Y-98520000D01*
X292350000Y-99000000D02*
X294260000Y-99000000D01*
%TO.N,RE2_2*%
X137150000Y-20400000D02*
X139500000Y-20400000D01*
%TO.N,Net-(D102-Pad2)*%
X32275000Y-25025000D02*
X30100000Y-25025000D01*
X32975000Y-23575000D02*
X32275000Y-24275000D01*
X32275000Y-24275000D02*
X32275000Y-25025000D01*
X32975000Y-22325000D02*
X32975000Y-23575000D01*
%TO.N,Net-(D102-Pad3)*%
X33825000Y-22210038D02*
X33825000Y-22325000D01*
X32975000Y-21360038D02*
X33825000Y-22210038D01*
X32975000Y-20975000D02*
X32975000Y-21360038D01*
X34475000Y-25025000D02*
X36650000Y-25025000D01*
X34475000Y-24300000D02*
X34475000Y-25025000D01*
X33825000Y-23650000D02*
X34475000Y-24300000D01*
X33825000Y-22325000D02*
X33825000Y-23650000D01*
D41*
%TO.N,VCC*%
X39412500Y-26700000D02*
X38399998Y-26700000D01*
X38399998Y-26700000D02*
X37900000Y-26200002D01*
X34475000Y-26025000D02*
X34475000Y-26925000D01*
D42*
%TO.N,Net-(J1-PadA5)*%
X31932618Y-22977001D02*
X26477001Y-22977001D01*
X32125000Y-22784619D02*
X31932618Y-22977001D01*
X32125000Y-22325000D02*
X32125000Y-22784619D01*
X26000000Y-22500000D02*
X26000000Y-21200000D01*
X26477001Y-22977001D02*
X26000000Y-22500000D01*
%TO.N,Net-(J1-PadB5)*%
X33559629Y-19400010D02*
X27700010Y-19400010D01*
X34675000Y-20515381D02*
X33559629Y-19400010D01*
X34675000Y-20975000D02*
X34675000Y-20515381D01*
X27200000Y-18900000D02*
X26000000Y-18900000D01*
X27700010Y-19400010D02*
X27200000Y-18900000D01*
%TO.N,AUDIO1*%
X26680000Y-25670000D02*
X26700000Y-25650000D01*
X25460000Y-25670000D02*
X26680000Y-25670000D01*
X25190000Y-25400000D02*
X25460000Y-25670000D01*
X24100000Y-25400000D02*
X25190000Y-25400000D01*
X24100000Y-26000000D02*
X21599992Y-28500008D01*
X21599992Y-28500008D02*
X18200000Y-28500008D01*
X24100000Y-25400000D02*
X24100000Y-26000000D01*
X16900000Y-63200000D02*
X25200002Y-63200000D01*
X16800000Y-63100000D02*
X16900000Y-63200000D01*
X51965920Y-95637958D02*
X50800000Y-95637958D01*
X53327962Y-97000000D02*
X51965920Y-95637958D01*
X54400000Y-97000000D02*
X53327962Y-97000000D01*
%TO.N,AUDIO2[Reserve]*%
X24237611Y-29412389D02*
X18214781Y-29412389D01*
X26700000Y-26950000D02*
X24237611Y-29412389D01*
X18400001Y-64000000D02*
X25956636Y-64000000D01*
X25956636Y-64000000D02*
X26056636Y-64100000D01*
X54400000Y-97800000D02*
X53235028Y-97800000D01*
X53235028Y-97800000D02*
X51699996Y-96264968D01*
%TO.N,Net-(JP_LED1-Pad3)*%
X257150000Y-24500000D02*
X257150000Y-22950000D01*
X291450000Y-77010000D02*
X285936530Y-77010000D01*
X285936530Y-77010000D02*
X280963265Y-72036735D01*
X280542512Y-30417512D02*
X280850000Y-30725000D01*
X258509500Y-30417512D02*
X280542512Y-30417512D01*
X258228444Y-30136456D02*
X258509500Y-30417512D01*
X121639576Y-30284968D02*
X121851610Y-30497002D01*
X65939101Y-26727001D02*
X69497068Y-30284968D01*
X61352001Y-26727001D02*
X65939101Y-26727001D01*
X121851610Y-30497002D02*
X255727997Y-30497002D01*
X255727997Y-30497002D02*
X257150000Y-29074999D01*
X69497068Y-30284968D02*
X121639576Y-30284968D01*
X61225000Y-26600000D02*
X61352001Y-26727001D01*
%TO.N,LED*%
X44400000Y-89500000D02*
X43800000Y-90100000D01*
X44500000Y-89500000D02*
X44400000Y-89500000D01*
X83800000Y-44300000D02*
X64900000Y-44300000D01*
X86000000Y-46500000D02*
X83800000Y-44300000D01*
X59500000Y-25300000D02*
X61225000Y-25300000D01*
X75500000Y-73400000D02*
X75619448Y-73280552D01*
X75619448Y-73280552D02*
X87719448Y-73280552D01*
X87719448Y-73280552D02*
X88000000Y-73000000D01*
%TO.N,Net-(JP_LED1-Pad1)*%
X65812990Y-20762010D02*
X66175000Y-20400000D01*
X65812990Y-23087010D02*
X65812990Y-20762010D01*
X66175000Y-20400000D02*
X66950000Y-20400000D01*
X64900000Y-24000000D02*
X65812990Y-23087010D01*
X61225000Y-24000000D02*
X64900000Y-24000000D01*
%TO.N,Net-(JP_LED2-Pad1)*%
X121250000Y-17950000D02*
X118200000Y-17950000D01*
X117550000Y-18600000D02*
X117550000Y-19650000D01*
X118200000Y-17950000D02*
X117550000Y-18600000D01*
%TO.N,Net-(JP_LED2-Pad2)*%
X47150000Y-22950000D02*
X47150000Y-24360000D01*
X117550000Y-20950000D02*
X115950000Y-20950000D01*
X115950000Y-20950000D02*
X115800000Y-21100000D01*
X115070028Y-30911969D02*
X69482001Y-30911969D01*
X58745673Y-27157071D02*
X47774909Y-27157071D01*
X47774909Y-27157071D02*
X47309490Y-27622490D01*
X60371090Y-28782488D02*
X58745673Y-27157071D01*
X69482001Y-30911969D02*
X67352520Y-28782488D01*
X67352520Y-28782488D02*
X60371090Y-28782488D01*
%TO.N,Net-(JP_LED2-Pad3)*%
X117550000Y-22250000D02*
X117550000Y-23200000D01*
X118423893Y-25174994D02*
X122175000Y-25174994D01*
X118075214Y-24826315D02*
X118423893Y-25174994D01*
X122750000Y-22950000D02*
X122750000Y-24599994D01*
X122750000Y-24599994D02*
X122175000Y-25174994D01*
X151850000Y-17950000D02*
X154850000Y-17950000D01*
X143779510Y-26020490D02*
X151850000Y-17950000D01*
X143779510Y-26072556D02*
X143779510Y-26020490D01*
X135550000Y-26950000D02*
X138427001Y-24072999D01*
X143325501Y-26526565D02*
X143779510Y-26072556D01*
X141807759Y-27935501D02*
X142792241Y-27935501D01*
X141050000Y-27177742D02*
X141807759Y-27935501D01*
X143325501Y-27402241D02*
X143325501Y-26526565D01*
X140136961Y-24072999D02*
X141050000Y-24986038D01*
X138427001Y-24072999D02*
X140136961Y-24072999D01*
X141050000Y-24986038D02*
X141050000Y-27177742D01*
X142792241Y-27935501D02*
X143325501Y-27402241D01*
X123950000Y-26950000D02*
X135550000Y-26950000D01*
%TO.N,Net-(L1-Pad2)*%
X69700000Y-20950000D02*
X70250000Y-20400000D01*
X70250000Y-20400000D02*
X70950000Y-20400000D01*
X69700000Y-24975000D02*
X69700000Y-20950000D01*
X69275000Y-25400000D02*
X69700000Y-24975000D01*
X68450000Y-25400000D02*
X69275000Y-25400000D01*
%TO.N,Net-(L2-Pad2)*%
X73812990Y-20712010D02*
X74125000Y-20400000D01*
X74125000Y-20400000D02*
X74950000Y-20400000D01*
X73812990Y-24812010D02*
X73812990Y-20712010D01*
X73225000Y-25400000D02*
X73812990Y-24812010D01*
X72450000Y-25400000D02*
X73225000Y-25400000D01*
%TO.N,Net-(L3-Pad2)*%
X77587010Y-20912990D02*
X77587010Y-24987990D01*
X78100000Y-20400000D02*
X77587010Y-20912990D01*
X77175000Y-25400000D02*
X76450000Y-25400000D01*
X77587010Y-24987990D02*
X77175000Y-25400000D01*
X78950000Y-20400000D02*
X78100000Y-20400000D01*
%TO.N,Net-(L4-Pad2)*%
X81587010Y-24987990D02*
X81175000Y-25400000D01*
X81175000Y-25400000D02*
X80450000Y-25400000D01*
X82175000Y-20400000D02*
X81587010Y-20987990D01*
X81587010Y-20987990D02*
X81587010Y-24987990D01*
X82950000Y-20400000D02*
X82175000Y-20400000D01*
%TO.N,Net-(L5-Pad2)*%
X84450000Y-25400000D02*
X94000000Y-25400000D01*
X94000000Y-25400000D02*
X97400000Y-22000000D01*
X100800000Y-19950000D02*
X99449988Y-19950000D01*
X99449988Y-19950000D02*
X99300000Y-20099988D01*
%TO.N,Net-(L6-Pad2)*%
X99626530Y-23750000D02*
X99438261Y-23561731D01*
X100800000Y-23750000D02*
X99626530Y-23750000D01*
X107050008Y-18450000D02*
X107300004Y-18699996D01*
X105800000Y-18450000D02*
X107050008Y-18450000D01*
%TO.N,Net-(L7-Pad2)*%
X105800000Y-22250000D02*
X107150006Y-22250000D01*
X107150006Y-22250000D02*
X107400003Y-22499997D01*
X100800000Y-27550000D02*
X99565508Y-27550000D01*
X99565508Y-27550000D02*
X99415510Y-27400002D01*
%TO.N,Net-(L8-Pad2)*%
X107000000Y-26050000D02*
X107375000Y-25675000D01*
X105800000Y-26050000D02*
X107000000Y-26050000D01*
X50775000Y-17500000D02*
X51902001Y-18627001D01*
X58761601Y-18627001D02*
X60076101Y-17312501D01*
X51902001Y-18627001D02*
X58761601Y-18627001D01*
X60076101Y-17312501D02*
X107262499Y-17312501D01*
X107262499Y-17312501D02*
X108074998Y-18125000D01*
X44900510Y-17950000D02*
X44550000Y-17599490D01*
X45650000Y-17950000D02*
X44900510Y-17950000D01*
%TO.N,Net-(L11-Pad2)*%
X156350000Y-22950000D02*
X156350000Y-24450000D01*
X159236961Y-26727001D02*
X161913962Y-24050000D01*
X156975000Y-26100000D02*
X157602001Y-26727001D01*
X157602001Y-26727001D02*
X159236961Y-26727001D01*
X181686000Y-24050000D02*
X187786000Y-17950000D01*
X187786000Y-17950000D02*
X188450000Y-17950000D01*
X161913962Y-24050000D02*
X181686000Y-24050000D01*
%TO.N,Net-(L12-Pad2)*%
X189950000Y-22950000D02*
X189950000Y-24500000D01*
X218050000Y-17950000D02*
X222050000Y-17950000D01*
X212025000Y-23975000D02*
X218050000Y-17950000D01*
X195588962Y-23975000D02*
X212025000Y-23975000D01*
X191102001Y-26727001D02*
X192836961Y-26727001D01*
X192836961Y-26727001D02*
X195588962Y-23975000D01*
X190500000Y-26125000D02*
X191102001Y-26727001D01*
%TO.N,Net-(L13-Pad2)*%
X223550000Y-22950000D02*
X223550000Y-24475000D01*
X233944330Y-24025000D02*
X231206826Y-26762504D01*
X224237504Y-26762504D02*
X223894136Y-26419136D01*
X248911000Y-24025000D02*
X233944330Y-24025000D01*
X254986000Y-17950000D02*
X248911000Y-24025000D01*
X231206826Y-26762504D02*
X224237504Y-26762504D01*
X255650000Y-17950000D02*
X254986000Y-17950000D01*
%TO.N,SDA_RE2A*%
X143325501Y-25884499D02*
X142300000Y-26910000D01*
X142303243Y-22855501D02*
X143325501Y-23877759D01*
X127455501Y-22855501D02*
X142303243Y-22855501D01*
X143325501Y-23877759D02*
X143325501Y-25884499D01*
X125000000Y-20400000D02*
X126800000Y-22200000D01*
X126800000Y-22200000D02*
X127455501Y-22855501D01*
X50100000Y-89500000D02*
X50100000Y-91000000D01*
X124200000Y-42500000D02*
X127100000Y-39600000D01*
X106200000Y-42500000D02*
X124200000Y-42500000D01*
X99505525Y-73099999D02*
X97209219Y-75396305D01*
X104800001Y-73099999D02*
X99505525Y-73099999D01*
X105100000Y-72800000D02*
X104800001Y-73099999D01*
X97209219Y-75396305D02*
X78623078Y-75396305D01*
%TO.N,SCL_RE2B*%
X126781012Y-23618988D02*
X125000000Y-25400000D01*
X141548988Y-23618988D02*
X126781012Y-23618988D01*
X142300000Y-24370000D02*
X141548988Y-23618988D01*
X49300000Y-89500000D02*
X49300000Y-91000000D01*
X124272990Y-43127010D02*
X126500000Y-40900000D01*
X107200000Y-43127010D02*
X124272990Y-43127010D01*
X126500000Y-40900000D02*
X126593364Y-40993364D01*
X77215375Y-75549922D02*
X76791111Y-75549922D01*
X77695403Y-76029950D02*
X77215375Y-75549922D01*
X106000000Y-73500000D02*
X105624061Y-73875939D01*
X99371653Y-73875939D02*
X97217642Y-76029950D01*
X97217642Y-76029950D02*
X77695403Y-76029950D01*
X105624061Y-73875939D02*
X99371653Y-73875939D01*
%TO.N,Net-(R4-Pad2)*%
X44200000Y-63300000D02*
X38000000Y-63300000D01*
X35450000Y-63350000D02*
X35400000Y-63300000D01*
X38000000Y-63350000D02*
X35450000Y-63350000D01*
X45300000Y-90504000D02*
X45004000Y-90800000D01*
X45300000Y-89500000D02*
X45300000Y-90504000D01*
X45004000Y-90800000D02*
X18800000Y-90800000D01*
X18800000Y-90800000D02*
X16700000Y-88700000D01*
X16700000Y-82300000D02*
X17200000Y-81800000D01*
X16700000Y-88700000D02*
X16700000Y-82300000D01*
X35400000Y-64645989D02*
X35400000Y-63300000D01*
X30725022Y-73274978D02*
X29150000Y-74850000D01*
X29150000Y-74850000D02*
X26650000Y-74850000D01*
X31900000Y-69100000D02*
X30725022Y-70274978D01*
X30725022Y-70274978D02*
X30725022Y-73274978D01*
X34400000Y-69100000D02*
X31900000Y-69100000D01*
%TO.N,D-*%
X36650000Y-28050000D02*
X36200000Y-28500000D01*
X36650000Y-27025000D02*
X36650000Y-28050000D01*
X42600000Y-97800000D02*
X41027010Y-97800000D01*
X41027010Y-97800000D02*
X41000000Y-97772990D01*
%TO.N,D+*%
X30100000Y-27710647D02*
X30827010Y-28437657D01*
X30100000Y-27025000D02*
X30100000Y-27710647D01*
X42600000Y-97000000D02*
X41027023Y-97000000D01*
X41027023Y-97000000D02*
X41000000Y-96972977D01*
%TO.N,Net-(R9-Pad2)*%
X62652001Y-100327001D02*
X63800000Y-101475000D01*
X54400000Y-99400000D02*
X55327001Y-100327001D01*
X55327001Y-100327001D02*
X62652001Y-100327001D01*
%TO.N,RE1_A*%
X50900000Y-89500000D02*
X50900000Y-91000000D01*
X49400000Y-20700000D02*
X49400000Y-20400000D01*
X51100000Y-22400000D02*
X49400000Y-20700000D01*
X82628141Y-45128141D02*
X50414869Y-45128141D01*
X84600000Y-47100000D02*
X82628141Y-45128141D01*
X85228270Y-74822284D02*
X85528269Y-74522285D01*
X78922284Y-74822284D02*
X85228270Y-74822284D01*
X78700000Y-74600000D02*
X78922284Y-74822284D01*
%TO.N,RE1_B*%
X51700000Y-89500000D02*
X51700000Y-91000000D01*
X78718988Y-45918988D02*
X50318988Y-45918988D01*
X80100000Y-47300000D02*
X78718988Y-45918988D01*
X49600000Y-45200000D02*
X49600000Y-45100000D01*
X50318988Y-45918988D02*
X49600000Y-45200000D01*
X84900000Y-74027010D02*
X84475736Y-74027010D01*
X84475736Y-74027010D02*
X84356280Y-73907554D01*
X84356280Y-73907554D02*
X77559434Y-73907554D01*
%TO.N,RE3_B*%
X60927010Y-93000000D02*
X61100000Y-92827010D01*
X54400000Y-93000000D02*
X60927010Y-93000000D01*
X150514780Y-75392909D02*
X149451820Y-74329949D01*
X99559711Y-74329949D02*
X97297683Y-76591977D01*
X97297683Y-76591977D02*
X77328667Y-76591977D01*
X149451820Y-74329949D02*
X99559711Y-74329949D01*
%TO.N,RE3_A*%
X52500000Y-89500000D02*
X52500000Y-91200000D01*
X52500000Y-91200000D02*
X52600000Y-91300000D01*
X160100000Y-21900000D02*
X158600000Y-20400000D01*
X160100000Y-22500000D02*
X160100000Y-21900000D01*
X56737707Y-92062293D02*
X62094220Y-92062293D01*
X56500000Y-92300000D02*
X56737707Y-92062293D01*
X62094220Y-92062293D02*
X62209780Y-91946733D01*
X151095407Y-76037970D02*
X98493758Y-76037970D01*
X76939553Y-77218978D02*
X76524509Y-76803934D01*
X151114398Y-76018979D02*
X151095407Y-76037970D01*
X91019797Y-77092437D02*
X90893256Y-77218978D01*
X98493758Y-76037970D02*
X97439291Y-77092437D01*
X90893256Y-77218978D02*
X76939553Y-77218978D01*
X97439291Y-77092437D02*
X91019797Y-77092437D01*
%TO.N,RE4_B*%
X91395913Y-78000457D02*
X90923380Y-78472990D01*
X98615865Y-77199999D02*
X97815407Y-78000457D01*
X188700000Y-77200000D02*
X98615865Y-77199999D01*
X97815407Y-78000457D02*
X91395913Y-78000457D01*
X90923380Y-78472990D02*
X76657693Y-78472990D01*
X76657693Y-78472990D02*
X76242649Y-78057946D01*
X56074055Y-93929945D02*
X61890273Y-93929945D01*
X55404000Y-94600000D02*
X56074055Y-93929945D01*
X61890273Y-93929945D02*
X62063272Y-93756946D01*
X54400000Y-94600000D02*
X55404000Y-94600000D01*
%TO.N,RE4_A*%
X194000000Y-22200000D02*
X192200000Y-20400000D01*
X194000000Y-22900000D02*
X194000000Y-22200000D01*
X188661540Y-76310496D02*
X188280057Y-76691979D01*
X97627350Y-77546446D02*
X91207855Y-77546447D01*
X90908313Y-77845989D02*
X77562108Y-77845989D01*
X188280057Y-76691979D02*
X98481817Y-76691979D01*
X189670762Y-76310496D02*
X188661540Y-76310496D01*
X91207855Y-77546447D02*
X90908313Y-77845989D01*
X98481817Y-76691979D02*
X97627350Y-77546446D01*
X55404000Y-93800000D02*
X55748016Y-93455984D01*
X54400000Y-93800000D02*
X55404000Y-93800000D01*
X61447110Y-93455984D02*
X61935965Y-92967129D01*
X55748016Y-93455984D02*
X61447110Y-93455984D01*
%TO.N,RE5_A*%
X225800000Y-20800000D02*
X225800000Y-20400000D01*
X227400000Y-22400000D02*
X225800000Y-20800000D01*
X91583970Y-78454468D02*
X98003464Y-78454468D01*
X222699038Y-76272998D02*
X223972998Y-76272998D01*
X221126046Y-77845990D02*
X222699038Y-76272998D01*
X90938438Y-79100000D02*
X91583970Y-78454468D01*
X98803922Y-77654010D02*
X187699038Y-77654010D01*
X187699038Y-77654010D02*
X187891018Y-77845990D01*
X187891018Y-77845990D02*
X221126046Y-77845990D01*
X77500000Y-79100000D02*
X90938438Y-79100000D01*
X223972998Y-76272998D02*
X224400000Y-76700000D01*
X98003464Y-78454468D02*
X98803922Y-77654010D01*
X55929970Y-95400000D02*
X56946014Y-94383956D01*
X54400000Y-95400000D02*
X55929970Y-95400000D01*
X62653581Y-94383956D02*
X63574863Y-93462674D01*
X56946014Y-94383956D02*
X62653581Y-94383956D01*
X63574863Y-93462674D02*
X63574863Y-93038410D01*
%TO.N,RE5_B*%
X188210982Y-78808022D02*
X187510981Y-78108021D01*
X90907516Y-79772990D02*
X76955261Y-79772990D01*
X98991979Y-78108021D02*
X98191521Y-78908479D01*
X76955261Y-79772990D02*
X76494228Y-79311957D01*
X221091978Y-78808022D02*
X188210982Y-78808022D01*
X187510981Y-78108021D02*
X98991979Y-78108021D01*
X98191521Y-78908479D02*
X91772028Y-78908478D01*
X223000000Y-76900000D02*
X221091978Y-78808022D01*
X91772028Y-78908478D02*
X90907516Y-79772990D01*
X55772038Y-96200000D02*
X57134071Y-94837967D01*
X54400000Y-96200000D02*
X55772038Y-96200000D01*
X63191169Y-94837967D02*
X63814568Y-94214568D01*
X57134071Y-94837967D02*
X63191169Y-94837967D01*
%TO.N,RE6_A*%
X260000000Y-20400000D02*
X259400000Y-20400000D01*
X261700000Y-22100000D02*
X260000000Y-20400000D01*
X54400000Y-98600000D02*
X54527001Y-98472999D01*
X72949047Y-92193021D02*
X109349048Y-92193020D01*
X54527001Y-98472999D02*
X68227001Y-98472999D01*
X68227001Y-98472999D02*
X70928988Y-95771012D01*
X70928988Y-95771012D02*
X70928988Y-94213080D01*
X259008619Y-91272727D02*
X259161310Y-91425418D01*
X110269341Y-91272727D02*
X259008619Y-91272727D01*
X70928988Y-94213080D02*
X72949047Y-92193021D01*
X109349048Y-92193020D02*
X110269341Y-91272727D01*
%TO.N,RE6_B*%
X50900000Y-101300000D02*
X50900000Y-100000000D01*
X68369069Y-99072999D02*
X56127001Y-99072999D01*
X110284136Y-91900000D02*
X109537106Y-92647030D01*
X73137106Y-92647030D02*
X71382999Y-94401137D01*
X71382999Y-96059069D02*
X68369069Y-99072999D01*
X256000000Y-91900000D02*
X110284136Y-91900000D01*
X109537106Y-92647030D02*
X73137106Y-92647030D01*
X71382999Y-94401137D02*
X71382999Y-96059069D01*
X56127001Y-99072999D02*
X56100000Y-99100000D01*
%TD*%
%TO.N,GND*%
X36583623Y-17054478D02*
X36536000Y-17284000D01*
X36536000Y-17838000D01*
X37598000Y-17838000D01*
X37598000Y-17818000D01*
X37852000Y-17818000D01*
X37852000Y-17838000D01*
X38914000Y-17838000D01*
X38914000Y-17385624D01*
X38972102Y-17410526D01*
X38982572Y-17413768D01*
X39075990Y-17441973D01*
X39145776Y-17455791D01*
X39215383Y-17470586D01*
X39226284Y-17471732D01*
X39323401Y-17481254D01*
X39323406Y-17481254D01*
X39361439Y-17485000D01*
X39673000Y-17485000D01*
X39673000Y-23973000D01*
X37637747Y-23973000D01*
X37593387Y-23936595D01*
X37439851Y-23854528D01*
X37273255Y-23803992D01*
X37100001Y-23786928D01*
X36199999Y-23786928D01*
X36026745Y-23803992D01*
X35860149Y-23854528D01*
X35706613Y-23936595D01*
X35662253Y-23973000D01*
X35489340Y-23973000D01*
X35419180Y-23935498D01*
X35299482Y-23899188D01*
X35175000Y-23886928D01*
X35118231Y-23886928D01*
X35111645Y-23874607D01*
X35040279Y-23787648D01*
X35016422Y-23758578D01*
X34987352Y-23734722D01*
X34587000Y-23334370D01*
X34587000Y-23285000D01*
X34769552Y-23285000D01*
X34955022Y-23248108D01*
X35100000Y-23188056D01*
X35244978Y-23248108D01*
X35430448Y-23285000D01*
X35619552Y-23285000D01*
X35805022Y-23248108D01*
X35950420Y-23187882D01*
X36089992Y-23246581D01*
X36275260Y-23284475D01*
X36464361Y-23285497D01*
X36650028Y-23249608D01*
X36825126Y-23178187D01*
X36834323Y-23173270D01*
X36847931Y-22977536D01*
X36452639Y-22582244D01*
X36485000Y-22419552D01*
X36485000Y-22230448D01*
X36484171Y-22226281D01*
X36568748Y-22310858D01*
X36554605Y-22325000D01*
X36656095Y-22426490D01*
X36675108Y-22471343D01*
X36806940Y-22665169D01*
X36974052Y-22829552D01*
X37170023Y-22958174D01*
X37387321Y-23046093D01*
X37414627Y-23046776D01*
X37598000Y-22921392D01*
X37598000Y-21472000D01*
X37852000Y-21472000D01*
X37852000Y-22921392D01*
X38035373Y-23046776D01*
X38062679Y-23046093D01*
X38279977Y-22958174D01*
X38475948Y-22829552D01*
X38643060Y-22665169D01*
X38774892Y-22471343D01*
X38866377Y-22255522D01*
X38914000Y-22026000D01*
X38914000Y-21472000D01*
X37852000Y-21472000D01*
X37598000Y-21472000D01*
X37578000Y-21472000D01*
X37578000Y-21218000D01*
X37598000Y-21218000D01*
X37598000Y-19768608D01*
X37431849Y-19655000D01*
X37598000Y-19541392D01*
X37598000Y-18092000D01*
X37852000Y-18092000D01*
X37852000Y-19541392D01*
X38018151Y-19655000D01*
X37852000Y-19768608D01*
X37852000Y-21218000D01*
X38914000Y-21218000D01*
X38914000Y-20664000D01*
X38866377Y-20434478D01*
X38774892Y-20218657D01*
X38643060Y-20024831D01*
X38475948Y-19860448D01*
X38279977Y-19731826D01*
X38090096Y-19655000D01*
X38279977Y-19578174D01*
X38475948Y-19449552D01*
X38643060Y-19285169D01*
X38774892Y-19091343D01*
X38866377Y-18875522D01*
X38914000Y-18646000D01*
X38914000Y-18092000D01*
X37852000Y-18092000D01*
X37598000Y-18092000D01*
X36536000Y-18092000D01*
X36536000Y-18646000D01*
X36583623Y-18875522D01*
X36675108Y-19091343D01*
X36806940Y-19285169D01*
X36974052Y-19449552D01*
X37170023Y-19578174D01*
X37359904Y-19655000D01*
X37170023Y-19731826D01*
X36974052Y-19860448D01*
X36806940Y-20024831D01*
X36759139Y-20095110D01*
X36660008Y-20053419D01*
X36474740Y-20015525D01*
X36285639Y-20014503D01*
X36099972Y-20050392D01*
X35949538Y-20111753D01*
X35805022Y-20051892D01*
X35619552Y-20015000D01*
X35430448Y-20015000D01*
X35275412Y-20045838D01*
X35240279Y-20003029D01*
X35216422Y-19973959D01*
X35187352Y-19950102D01*
X34124913Y-18887664D01*
X34101051Y-18858588D01*
X33985021Y-18763365D01*
X33852644Y-18692608D01*
X33709007Y-18649036D01*
X33597055Y-18638010D01*
X33597052Y-18638010D01*
X33559629Y-18634324D01*
X33522206Y-18638010D01*
X30264000Y-18638010D01*
X30264000Y-18092000D01*
X29202000Y-18092000D01*
X29202000Y-18112000D01*
X28948000Y-18112000D01*
X28948000Y-18092000D01*
X27886000Y-18092000D01*
X27886000Y-18508370D01*
X27765284Y-18387654D01*
X27741422Y-18358578D01*
X27625392Y-18263355D01*
X27493015Y-18192598D01*
X27349378Y-18149026D01*
X27237426Y-18138000D01*
X27237423Y-18138000D01*
X27200000Y-18134314D01*
X27178446Y-18136437D01*
X27170472Y-18110149D01*
X27088405Y-17956613D01*
X26977962Y-17822038D01*
X26843387Y-17711595D01*
X26689851Y-17629528D01*
X26523255Y-17578992D01*
X26350001Y-17561928D01*
X25649999Y-17561928D01*
X25476745Y-17578992D01*
X25310149Y-17629528D01*
X25156613Y-17711595D01*
X25075363Y-17778276D01*
X25051185Y-17748815D01*
X24954494Y-17669463D01*
X24844180Y-17610498D01*
X24724482Y-17574188D01*
X24600000Y-17561928D01*
X24285750Y-17565000D01*
X24127000Y-17723750D01*
X24127000Y-18773000D01*
X24147000Y-18773000D01*
X24147000Y-19027000D01*
X24127000Y-19027000D01*
X24127000Y-21073000D01*
X24147000Y-21073000D01*
X24147000Y-21327000D01*
X24127000Y-21327000D01*
X24127000Y-22376250D01*
X24285750Y-22535000D01*
X24600000Y-22538072D01*
X24724482Y-22525812D01*
X24844180Y-22489502D01*
X24954494Y-22430537D01*
X25051185Y-22351185D01*
X25075363Y-22321724D01*
X25156613Y-22388405D01*
X25238000Y-22431907D01*
X25238000Y-22462576D01*
X25234314Y-22500000D01*
X25238000Y-22537423D01*
X25238000Y-22537425D01*
X25249026Y-22649377D01*
X25292598Y-22793014D01*
X25311097Y-22827623D01*
X25363355Y-22925392D01*
X25402983Y-22973678D01*
X25458578Y-23041422D01*
X25487654Y-23065284D01*
X25911717Y-23489347D01*
X25935579Y-23518423D01*
X26051609Y-23613646D01*
X26183986Y-23684403D01*
X26327623Y-23727975D01*
X26439575Y-23739001D01*
X26439577Y-23739001D01*
X26477000Y-23742687D01*
X26514423Y-23739001D01*
X31729128Y-23739001D01*
X31679578Y-23799378D01*
X31638355Y-23849608D01*
X31618407Y-23886928D01*
X31575000Y-23886928D01*
X31450518Y-23899188D01*
X31330820Y-23935498D01*
X31260660Y-23973000D01*
X31087747Y-23973000D01*
X31043387Y-23936595D01*
X30889851Y-23854528D01*
X30723255Y-23803992D01*
X30550001Y-23786928D01*
X29649999Y-23786928D01*
X29476745Y-23803992D01*
X29310149Y-23854528D01*
X29156613Y-23936595D01*
X29112253Y-23973000D01*
X23225295Y-23973000D01*
X23205451Y-22504557D01*
X23275518Y-22525812D01*
X23400000Y-22538072D01*
X23714250Y-22535000D01*
X23873000Y-22376250D01*
X23873000Y-21327000D01*
X23853000Y-21327000D01*
X23853000Y-21073000D01*
X23873000Y-21073000D01*
X23873000Y-19027000D01*
X23853000Y-19027000D01*
X23853000Y-18773000D01*
X23873000Y-18773000D01*
X23873000Y-17723750D01*
X23714250Y-17565000D01*
X23400000Y-17561928D01*
X23275518Y-17574188D01*
X23155820Y-17610498D01*
X23139434Y-17619257D01*
X23137619Y-17485000D01*
X27438561Y-17485000D01*
X27471695Y-17481736D01*
X27474637Y-17481757D01*
X27485545Y-17480688D01*
X27533317Y-17475667D01*
X27553887Y-17473641D01*
X27554573Y-17473433D01*
X27582593Y-17470488D01*
X27652309Y-17456178D01*
X27722176Y-17442849D01*
X27732669Y-17439682D01*
X27825888Y-17410826D01*
X27886000Y-17385557D01*
X27886000Y-17838000D01*
X28948000Y-17838000D01*
X28948000Y-17818000D01*
X29202000Y-17818000D01*
X29202000Y-17838000D01*
X30264000Y-17838000D01*
X30264000Y-17284000D01*
X30216377Y-17054478D01*
X30186926Y-16985000D01*
X36613074Y-16985000D01*
X36583623Y-17054478D01*
%TA.AperFunction,Conductor*%
D43*
G36*
X36583623Y-17054478D02*
G01*
X36536000Y-17284000D01*
X36536000Y-17838000D01*
X37598000Y-17838000D01*
X37598000Y-17818000D01*
X37852000Y-17818000D01*
X37852000Y-17838000D01*
X38914000Y-17838000D01*
X38914000Y-17385624D01*
X38972102Y-17410526D01*
X38982572Y-17413768D01*
X39075990Y-17441973D01*
X39145776Y-17455791D01*
X39215383Y-17470586D01*
X39226284Y-17471732D01*
X39323401Y-17481254D01*
X39323406Y-17481254D01*
X39361439Y-17485000D01*
X39673000Y-17485000D01*
X39673000Y-23973000D01*
X37637747Y-23973000D01*
X37593387Y-23936595D01*
X37439851Y-23854528D01*
X37273255Y-23803992D01*
X37100001Y-23786928D01*
X36199999Y-23786928D01*
X36026745Y-23803992D01*
X35860149Y-23854528D01*
X35706613Y-23936595D01*
X35662253Y-23973000D01*
X35489340Y-23973000D01*
X35419180Y-23935498D01*
X35299482Y-23899188D01*
X35175000Y-23886928D01*
X35118231Y-23886928D01*
X35111645Y-23874607D01*
X35040279Y-23787648D01*
X35016422Y-23758578D01*
X34987352Y-23734722D01*
X34587000Y-23334370D01*
X34587000Y-23285000D01*
X34769552Y-23285000D01*
X34955022Y-23248108D01*
X35100000Y-23188056D01*
X35244978Y-23248108D01*
X35430448Y-23285000D01*
X35619552Y-23285000D01*
X35805022Y-23248108D01*
X35950420Y-23187882D01*
X36089992Y-23246581D01*
X36275260Y-23284475D01*
X36464361Y-23285497D01*
X36650028Y-23249608D01*
X36825126Y-23178187D01*
X36834323Y-23173270D01*
X36847931Y-22977536D01*
X36452639Y-22582244D01*
X36485000Y-22419552D01*
X36485000Y-22230448D01*
X36484171Y-22226281D01*
X36568748Y-22310858D01*
X36554605Y-22325000D01*
X36656095Y-22426490D01*
X36675108Y-22471343D01*
X36806940Y-22665169D01*
X36974052Y-22829552D01*
X37170023Y-22958174D01*
X37387321Y-23046093D01*
X37414627Y-23046776D01*
X37598000Y-22921392D01*
X37598000Y-21472000D01*
X37852000Y-21472000D01*
X37852000Y-22921392D01*
X38035373Y-23046776D01*
X38062679Y-23046093D01*
X38279977Y-22958174D01*
X38475948Y-22829552D01*
X38643060Y-22665169D01*
X38774892Y-22471343D01*
X38866377Y-22255522D01*
X38914000Y-22026000D01*
X38914000Y-21472000D01*
X37852000Y-21472000D01*
X37598000Y-21472000D01*
X37578000Y-21472000D01*
X37578000Y-21218000D01*
X37598000Y-21218000D01*
X37598000Y-19768608D01*
X37431849Y-19655000D01*
X37598000Y-19541392D01*
X37598000Y-18092000D01*
X37852000Y-18092000D01*
X37852000Y-19541392D01*
X38018151Y-19655000D01*
X37852000Y-19768608D01*
X37852000Y-21218000D01*
X38914000Y-21218000D01*
X38914000Y-20664000D01*
X38866377Y-20434478D01*
X38774892Y-20218657D01*
X38643060Y-20024831D01*
X38475948Y-19860448D01*
X38279977Y-19731826D01*
X38090096Y-19655000D01*
X38279977Y-19578174D01*
X38475948Y-19449552D01*
X38643060Y-19285169D01*
X38774892Y-19091343D01*
X38866377Y-18875522D01*
X38914000Y-18646000D01*
X38914000Y-18092000D01*
X37852000Y-18092000D01*
X37598000Y-18092000D01*
X36536000Y-18092000D01*
X36536000Y-18646000D01*
X36583623Y-18875522D01*
X36675108Y-19091343D01*
X36806940Y-19285169D01*
X36974052Y-19449552D01*
X37170023Y-19578174D01*
X37359904Y-19655000D01*
X37170023Y-19731826D01*
X36974052Y-19860448D01*
X36806940Y-20024831D01*
X36759139Y-20095110D01*
X36660008Y-20053419D01*
X36474740Y-20015525D01*
X36285639Y-20014503D01*
X36099972Y-20050392D01*
X35949538Y-20111753D01*
X35805022Y-20051892D01*
X35619552Y-20015000D01*
X35430448Y-20015000D01*
X35275412Y-20045838D01*
X35240279Y-20003029D01*
X35216422Y-19973959D01*
X35187352Y-19950102D01*
X34124913Y-18887664D01*
X34101051Y-18858588D01*
X33985021Y-18763365D01*
X33852644Y-18692608D01*
X33709007Y-18649036D01*
X33597055Y-18638010D01*
X33597052Y-18638010D01*
X33559629Y-18634324D01*
X33522206Y-18638010D01*
X30264000Y-18638010D01*
X30264000Y-18092000D01*
X29202000Y-18092000D01*
X29202000Y-18112000D01*
X28948000Y-18112000D01*
X28948000Y-18092000D01*
X27886000Y-18092000D01*
X27886000Y-18508370D01*
X27765284Y-18387654D01*
X27741422Y-18358578D01*
X27625392Y-18263355D01*
X27493015Y-18192598D01*
X27349378Y-18149026D01*
X27237426Y-18138000D01*
X27237423Y-18138000D01*
X27200000Y-18134314D01*
X27178446Y-18136437D01*
X27170472Y-18110149D01*
X27088405Y-17956613D01*
X26977962Y-17822038D01*
X26843387Y-17711595D01*
X26689851Y-17629528D01*
X26523255Y-17578992D01*
X26350001Y-17561928D01*
X25649999Y-17561928D01*
X25476745Y-17578992D01*
X25310149Y-17629528D01*
X25156613Y-17711595D01*
X25075363Y-17778276D01*
X25051185Y-17748815D01*
X24954494Y-17669463D01*
X24844180Y-17610498D01*
X24724482Y-17574188D01*
X24600000Y-17561928D01*
X24285750Y-17565000D01*
X24127000Y-17723750D01*
X24127000Y-18773000D01*
X24147000Y-18773000D01*
X24147000Y-19027000D01*
X24127000Y-19027000D01*
X24127000Y-21073000D01*
X24147000Y-21073000D01*
X24147000Y-21327000D01*
X24127000Y-21327000D01*
X24127000Y-22376250D01*
X24285750Y-22535000D01*
X24600000Y-22538072D01*
X24724482Y-22525812D01*
X24844180Y-22489502D01*
X24954494Y-22430537D01*
X25051185Y-22351185D01*
X25075363Y-22321724D01*
X25156613Y-22388405D01*
X25238000Y-22431907D01*
X25238000Y-22462576D01*
X25234314Y-22500000D01*
X25238000Y-22537423D01*
X25238000Y-22537425D01*
X25249026Y-22649377D01*
X25292598Y-22793014D01*
X25311097Y-22827623D01*
X25363355Y-22925392D01*
X25402983Y-22973678D01*
X25458578Y-23041422D01*
X25487654Y-23065284D01*
X25911717Y-23489347D01*
X25935579Y-23518423D01*
X26051609Y-23613646D01*
X26183986Y-23684403D01*
X26327623Y-23727975D01*
X26439575Y-23739001D01*
X26439577Y-23739001D01*
X26477000Y-23742687D01*
X26514423Y-23739001D01*
X31729128Y-23739001D01*
X31679578Y-23799378D01*
X31638355Y-23849608D01*
X31618407Y-23886928D01*
X31575000Y-23886928D01*
X31450518Y-23899188D01*
X31330820Y-23935498D01*
X31260660Y-23973000D01*
X31087747Y-23973000D01*
X31043387Y-23936595D01*
X30889851Y-23854528D01*
X30723255Y-23803992D01*
X30550001Y-23786928D01*
X29649999Y-23786928D01*
X29476745Y-23803992D01*
X29310149Y-23854528D01*
X29156613Y-23936595D01*
X29112253Y-23973000D01*
X23225295Y-23973000D01*
X23205451Y-22504557D01*
X23275518Y-22525812D01*
X23400000Y-22538072D01*
X23714250Y-22535000D01*
X23873000Y-22376250D01*
X23873000Y-21327000D01*
X23853000Y-21327000D01*
X23853000Y-21073000D01*
X23873000Y-21073000D01*
X23873000Y-19027000D01*
X23853000Y-19027000D01*
X23853000Y-18773000D01*
X23873000Y-18773000D01*
X23873000Y-17723750D01*
X23714250Y-17565000D01*
X23400000Y-17561928D01*
X23275518Y-17574188D01*
X23155820Y-17610498D01*
X23139434Y-17619257D01*
X23137619Y-17485000D01*
X27438561Y-17485000D01*
X27471695Y-17481736D01*
X27474637Y-17481757D01*
X27485545Y-17480688D01*
X27533317Y-17475667D01*
X27553887Y-17473641D01*
X27554573Y-17473433D01*
X27582593Y-17470488D01*
X27652309Y-17456178D01*
X27722176Y-17442849D01*
X27732669Y-17439682D01*
X27825888Y-17410826D01*
X27886000Y-17385557D01*
X27886000Y-17838000D01*
X28948000Y-17838000D01*
X28948000Y-17818000D01*
X29202000Y-17818000D01*
X29202000Y-17838000D01*
X30264000Y-17838000D01*
X30264000Y-17284000D01*
X30216377Y-17054478D01*
X30186926Y-16985000D01*
X36613074Y-16985000D01*
X36583623Y-17054478D01*
G37*
%TD.AperFunction*%
D42*
X27134726Y-19912356D02*
X27158588Y-19941432D01*
X27232229Y-20001867D01*
X27274617Y-20036655D01*
X27303124Y-20051892D01*
X27406995Y-20107412D01*
X27550632Y-20150984D01*
X27662584Y-20162010D01*
X27662587Y-20162010D01*
X27700010Y-20165696D01*
X27737433Y-20162010D01*
X28063637Y-20162010D01*
X28025108Y-20218657D01*
X27933623Y-20434478D01*
X27886000Y-20664000D01*
X27886000Y-21218000D01*
X28948000Y-21218000D01*
X28948000Y-21198000D01*
X29202000Y-21198000D01*
X29202000Y-21218000D01*
X29222000Y-21218000D01*
X29222000Y-21472000D01*
X29202000Y-21472000D01*
X29202000Y-21492000D01*
X28948000Y-21492000D01*
X28948000Y-21472000D01*
X27886000Y-21472000D01*
X27886000Y-22026000D01*
X27925215Y-22215001D01*
X27029633Y-22215001D01*
X27088405Y-22143387D01*
X27170472Y-21989851D01*
X27221008Y-21823255D01*
X27238072Y-21650001D01*
X27238072Y-20749999D01*
X27221008Y-20576745D01*
X27170472Y-20410149D01*
X27088405Y-20256613D01*
X26977962Y-20122038D01*
X26890184Y-20050000D01*
X26977962Y-19977962D01*
X27078196Y-19855826D01*
X27134726Y-19912356D01*
%TA.AperFunction,Conductor*%
D43*
G36*
X27134726Y-19912356D02*
G01*
X27158588Y-19941432D01*
X27232229Y-20001867D01*
X27274617Y-20036655D01*
X27303124Y-20051892D01*
X27406995Y-20107412D01*
X27550632Y-20150984D01*
X27662584Y-20162010D01*
X27662587Y-20162010D01*
X27700010Y-20165696D01*
X27737433Y-20162010D01*
X28063637Y-20162010D01*
X28025108Y-20218657D01*
X27933623Y-20434478D01*
X27886000Y-20664000D01*
X27886000Y-21218000D01*
X28948000Y-21218000D01*
X28948000Y-21198000D01*
X29202000Y-21198000D01*
X29202000Y-21218000D01*
X29222000Y-21218000D01*
X29222000Y-21472000D01*
X29202000Y-21472000D01*
X29202000Y-21492000D01*
X28948000Y-21492000D01*
X28948000Y-21472000D01*
X27886000Y-21472000D01*
X27886000Y-22026000D01*
X27925215Y-22215001D01*
X27029633Y-22215001D01*
X27088405Y-22143387D01*
X27170472Y-21989851D01*
X27221008Y-21823255D01*
X27238072Y-21650001D01*
X27238072Y-20749999D01*
X27221008Y-20576745D01*
X27170472Y-20410149D01*
X27088405Y-20256613D01*
X26977962Y-20122038D01*
X26890184Y-20050000D01*
X26977962Y-19977962D01*
X27078196Y-19855826D01*
X27134726Y-19912356D01*
G37*
%TD.AperFunction*%
D42*
X36536000Y-20928110D02*
X36536000Y-21021890D01*
X36484171Y-21073719D01*
X36485000Y-21069552D01*
X36485000Y-20880448D01*
X36484171Y-20876281D01*
X36536000Y-20928110D01*
%TA.AperFunction,Conductor*%
D43*
G36*
X36536000Y-20928110D02*
G01*
X36536000Y-21021890D01*
X36484171Y-21073719D01*
X36485000Y-21069552D01*
X36485000Y-20880448D01*
X36484171Y-20876281D01*
X36536000Y-20928110D01*
G37*
%TD.AperFunction*%
D42*
X30315000Y-20880448D02*
X30315000Y-21069552D01*
X30315829Y-21073719D01*
X30264000Y-21021890D01*
X30264000Y-20928110D01*
X30315829Y-20876281D01*
X30315000Y-20880448D01*
%TA.AperFunction,Conductor*%
D43*
G36*
X30315000Y-20880448D02*
G01*
X30315000Y-21069552D01*
X30315829Y-21073719D01*
X30264000Y-21021890D01*
X30264000Y-20928110D01*
X30315829Y-20876281D01*
X30315000Y-20880448D01*
G37*
%TD.AperFunction*%
%TD*%
D42*
%TO.N,GND*%
X44136928Y-83075000D02*
X44153992Y-83248254D01*
X44204528Y-83414850D01*
X44248226Y-83496602D01*
X44150000Y-83486928D01*
X43848250Y-83490000D01*
X43689500Y-83648750D01*
X43689500Y-84723000D01*
X43709500Y-84723000D01*
X43709500Y-84977000D01*
X43689500Y-84977000D01*
X43689500Y-84997000D01*
X43435500Y-84997000D01*
X43435500Y-84977000D01*
X42498750Y-84977000D01*
X42340000Y-85135750D01*
X42336928Y-85575000D01*
X42349188Y-85699482D01*
X42385498Y-85819180D01*
X42444463Y-85929494D01*
X42523815Y-86026185D01*
X42620506Y-86105537D01*
X42730820Y-86164502D01*
X42850518Y-86200812D01*
X42975000Y-86213072D01*
X43276750Y-86210000D01*
X43435498Y-86051252D01*
X43435498Y-86210000D01*
X43504035Y-86210000D01*
X43454293Y-86259742D01*
X43292872Y-86501325D01*
X43181683Y-86769758D01*
X43125000Y-87054725D01*
X43125000Y-87345275D01*
X43181683Y-87630242D01*
X43292872Y-87898675D01*
X43454293Y-88140258D01*
X43578689Y-88264654D01*
X42498809Y-88268218D01*
X42624122Y-87965684D01*
X42725000Y-87458540D01*
X42725000Y-86941460D01*
X42624122Y-86434316D01*
X42426245Y-85956596D01*
X42138970Y-85526660D01*
X41773340Y-85161030D01*
X41343404Y-84873755D01*
X41177000Y-84804829D01*
X41177000Y-84125000D01*
X42336928Y-84125000D01*
X42340000Y-84564250D01*
X42498750Y-84723000D01*
X43435500Y-84723000D01*
X43435500Y-83648750D01*
X43276750Y-83490000D01*
X42975000Y-83486928D01*
X42850518Y-83499188D01*
X42730820Y-83535498D01*
X42620506Y-83594463D01*
X42523815Y-83673815D01*
X42444463Y-83770506D01*
X42385498Y-83880820D01*
X42349188Y-84000518D01*
X42336928Y-84125000D01*
X41177000Y-84125000D01*
X41177000Y-83362000D01*
X42222577Y-83362000D01*
X42260000Y-83365686D01*
X42297423Y-83362000D01*
X42297426Y-83362000D01*
X42368500Y-83355000D01*
X43200665Y-83355000D01*
X43382102Y-83337130D01*
X43614901Y-83266511D01*
X43829449Y-83151833D01*
X44017502Y-82997502D01*
X44136928Y-82851981D01*
X44136928Y-83075000D01*
%TA.AperFunction,Conductor*%
D43*
G36*
X44136928Y-83075000D02*
G01*
X44153992Y-83248254D01*
X44204528Y-83414850D01*
X44248226Y-83496602D01*
X44150000Y-83486928D01*
X43848250Y-83490000D01*
X43689500Y-83648750D01*
X43689500Y-84723000D01*
X43709500Y-84723000D01*
X43709500Y-84977000D01*
X43689500Y-84977000D01*
X43689500Y-84997000D01*
X43435500Y-84997000D01*
X43435500Y-84977000D01*
X42498750Y-84977000D01*
X42340000Y-85135750D01*
X42336928Y-85575000D01*
X42349188Y-85699482D01*
X42385498Y-85819180D01*
X42444463Y-85929494D01*
X42523815Y-86026185D01*
X42620506Y-86105537D01*
X42730820Y-86164502D01*
X42850518Y-86200812D01*
X42975000Y-86213072D01*
X43276750Y-86210000D01*
X43435498Y-86051252D01*
X43435498Y-86210000D01*
X43504035Y-86210000D01*
X43454293Y-86259742D01*
X43292872Y-86501325D01*
X43181683Y-86769758D01*
X43125000Y-87054725D01*
X43125000Y-87345275D01*
X43181683Y-87630242D01*
X43292872Y-87898675D01*
X43454293Y-88140258D01*
X43578689Y-88264654D01*
X42498809Y-88268218D01*
X42624122Y-87965684D01*
X42725000Y-87458540D01*
X42725000Y-86941460D01*
X42624122Y-86434316D01*
X42426245Y-85956596D01*
X42138970Y-85526660D01*
X41773340Y-85161030D01*
X41343404Y-84873755D01*
X41177000Y-84804829D01*
X41177000Y-84125000D01*
X42336928Y-84125000D01*
X42340000Y-84564250D01*
X42498750Y-84723000D01*
X43435500Y-84723000D01*
X43435500Y-83648750D01*
X43276750Y-83490000D01*
X42975000Y-83486928D01*
X42850518Y-83499188D01*
X42730820Y-83535498D01*
X42620506Y-83594463D01*
X42523815Y-83673815D01*
X42444463Y-83770506D01*
X42385498Y-83880820D01*
X42349188Y-84000518D01*
X42336928Y-84125000D01*
X41177000Y-84125000D01*
X41177000Y-83362000D01*
X42222577Y-83362000D01*
X42260000Y-83365686D01*
X42297423Y-83362000D01*
X42297426Y-83362000D01*
X42368500Y-83355000D01*
X43200665Y-83355000D01*
X43382102Y-83337130D01*
X43614901Y-83266511D01*
X43829449Y-83151833D01*
X44017502Y-82997502D01*
X44136928Y-82851981D01*
X44136928Y-83075000D01*
G37*
%TD.AperFunction*%
D42*
X46905820Y-84989502D02*
X47025518Y-85025812D01*
X47150000Y-85038072D01*
X47588000Y-85038072D01*
X47588001Y-87745768D01*
X47410653Y-87923115D01*
X47381577Y-87946977D01*
X47325982Y-88014721D01*
X47286354Y-88063007D01*
X47270538Y-88092598D01*
X47254339Y-88122904D01*
X47181750Y-88115000D01*
X47043531Y-88253219D01*
X46757413Y-88254163D01*
X46618250Y-88115000D01*
X46516227Y-88126109D01*
X46498984Y-88131621D01*
X46474482Y-88124188D01*
X46350000Y-88111928D01*
X46344637Y-88111928D01*
X46487128Y-87898675D01*
X46598317Y-87630242D01*
X46655000Y-87345275D01*
X46655000Y-87054725D01*
X46598317Y-86769758D01*
X46487128Y-86501325D01*
X46325707Y-86259742D01*
X46235506Y-86169541D01*
X46314850Y-86145472D01*
X46468386Y-86063405D01*
X46602962Y-85952962D01*
X46713405Y-85818386D01*
X46795472Y-85664850D01*
X46846008Y-85498254D01*
X46863072Y-85325000D01*
X46863072Y-84966652D01*
X46905820Y-84989502D01*
%TA.AperFunction,Conductor*%
D43*
G36*
X46905820Y-84989502D02*
G01*
X47025518Y-85025812D01*
X47150000Y-85038072D01*
X47588000Y-85038072D01*
X47588001Y-87745768D01*
X47410653Y-87923115D01*
X47381577Y-87946977D01*
X47325982Y-88014721D01*
X47286354Y-88063007D01*
X47270538Y-88092598D01*
X47254339Y-88122904D01*
X47181750Y-88115000D01*
X47043531Y-88253219D01*
X46757413Y-88254163D01*
X46618250Y-88115000D01*
X46516227Y-88126109D01*
X46498984Y-88131621D01*
X46474482Y-88124188D01*
X46350000Y-88111928D01*
X46344637Y-88111928D01*
X46487128Y-87898675D01*
X46598317Y-87630242D01*
X46655000Y-87345275D01*
X46655000Y-87054725D01*
X46598317Y-86769758D01*
X46487128Y-86501325D01*
X46325707Y-86259742D01*
X46235506Y-86169541D01*
X46314850Y-86145472D01*
X46468386Y-86063405D01*
X46602962Y-85952962D01*
X46713405Y-85818386D01*
X46795472Y-85664850D01*
X46846008Y-85498254D01*
X46863072Y-85325000D01*
X46863072Y-84966652D01*
X46905820Y-84989502D01*
G37*
%TD.AperFunction*%
D42*
X54861030Y-85526660D02*
X54573755Y-85956596D01*
X54375878Y-86434316D01*
X54275000Y-86941460D01*
X54275000Y-87458540D01*
X54375878Y-87965684D01*
X54484806Y-88228660D01*
X53453902Y-88232063D01*
X53545707Y-88140258D01*
X53707128Y-87898675D01*
X53818317Y-87630242D01*
X53875000Y-87345275D01*
X53875000Y-87054725D01*
X53818317Y-86769758D01*
X53707128Y-86501325D01*
X53545707Y-86259742D01*
X53340258Y-86054293D01*
X53101860Y-85895000D01*
X53550665Y-85895000D01*
X53732102Y-85877130D01*
X53964901Y-85806511D01*
X54179449Y-85691833D01*
X54367502Y-85537502D01*
X54462292Y-85422000D01*
X54965690Y-85422000D01*
X54861030Y-85526660D01*
%TA.AperFunction,Conductor*%
D43*
G36*
X54861030Y-85526660D02*
G01*
X54573755Y-85956596D01*
X54375878Y-86434316D01*
X54275000Y-86941460D01*
X54275000Y-87458540D01*
X54375878Y-87965684D01*
X54484806Y-88228660D01*
X53453902Y-88232063D01*
X53545707Y-88140258D01*
X53707128Y-87898675D01*
X53818317Y-87630242D01*
X53875000Y-87345275D01*
X53875000Y-87054725D01*
X53818317Y-86769758D01*
X53707128Y-86501325D01*
X53545707Y-86259742D01*
X53340258Y-86054293D01*
X53101860Y-85895000D01*
X53550665Y-85895000D01*
X53732102Y-85877130D01*
X53964901Y-85806511D01*
X54179449Y-85691833D01*
X54367502Y-85537502D01*
X54462292Y-85422000D01*
X54965690Y-85422000D01*
X54861030Y-85526660D01*
G37*
%TD.AperFunction*%
D42*
X50477000Y-83223000D02*
X50497000Y-83223000D01*
X50497000Y-83477000D01*
X50477000Y-83477000D01*
X50477000Y-84876250D01*
X50635750Y-85035000D01*
X50815001Y-85035896D01*
X50815001Y-85407369D01*
X49112000Y-87110370D01*
X49112000Y-85014431D01*
X49194180Y-84989502D01*
X49200000Y-84986391D01*
X49205820Y-84989502D01*
X49325518Y-85025812D01*
X49450000Y-85038072D01*
X50064250Y-85035000D01*
X50223000Y-84876250D01*
X50223000Y-83477000D01*
X50203000Y-83477000D01*
X50203000Y-83223000D01*
X50223000Y-83223000D01*
X50223000Y-83203000D01*
X50477000Y-83203000D01*
X50477000Y-83223000D01*
%TA.AperFunction,Conductor*%
D43*
G36*
X50477000Y-83223000D02*
G01*
X50497000Y-83223000D01*
X50497000Y-83477000D01*
X50477000Y-83477000D01*
X50477000Y-84876250D01*
X50635750Y-85035000D01*
X50815001Y-85035896D01*
X50815001Y-85407369D01*
X49112000Y-87110370D01*
X49112000Y-85014431D01*
X49194180Y-84989502D01*
X49200000Y-84986391D01*
X49205820Y-84989502D01*
X49325518Y-85025812D01*
X49450000Y-85038072D01*
X50064250Y-85035000D01*
X50223000Y-84876250D01*
X50223000Y-83477000D01*
X50203000Y-83477000D01*
X50203000Y-83223000D01*
X50223000Y-83223000D01*
X50223000Y-83203000D01*
X50477000Y-83203000D01*
X50477000Y-83223000D01*
G37*
%TD.AperFunction*%
D42*
X56073000Y-83898000D02*
X54462292Y-83898000D01*
X54367502Y-83782498D01*
X54179449Y-83628167D01*
X53964901Y-83513489D01*
X53732102Y-83442870D01*
X53550665Y-83425000D01*
X52629335Y-83425000D01*
X52447898Y-83442870D01*
X52339001Y-83475904D01*
X52339001Y-81714423D01*
X52342687Y-81677000D01*
X52339001Y-81639575D01*
X52327975Y-81527623D01*
X52284403Y-81383986D01*
X52213646Y-81251609D01*
X52118423Y-81135579D01*
X52089353Y-81111722D01*
X51888072Y-80910441D01*
X51888072Y-79400000D01*
X51875812Y-79275518D01*
X51839502Y-79155820D01*
X51780537Y-79045506D01*
X51701185Y-78948815D01*
X51604494Y-78869463D01*
X51494310Y-78810567D01*
X51545472Y-78714850D01*
X51596008Y-78548254D01*
X51613072Y-78375000D01*
X51613072Y-77425000D01*
X51596008Y-77251746D01*
X51545472Y-77085150D01*
X51463405Y-76931614D01*
X51352962Y-76797038D01*
X51218386Y-76686595D01*
X51064850Y-76604528D01*
X50898254Y-76553992D01*
X50725000Y-76536928D01*
X50050000Y-76536928D01*
X49876746Y-76553992D01*
X49710150Y-76604528D01*
X49556614Y-76686595D01*
X49422038Y-76797038D01*
X49416658Y-76803594D01*
X49351185Y-76723815D01*
X49254494Y-76644463D01*
X49144180Y-76585498D01*
X49024482Y-76549188D01*
X48900000Y-76536928D01*
X48598250Y-76540000D01*
X48439500Y-76698750D01*
X48439500Y-77773000D01*
X48459500Y-77773000D01*
X48459500Y-78027000D01*
X48439500Y-78027000D01*
X48439500Y-78047000D01*
X48185500Y-78047000D01*
X48185500Y-78027000D01*
X47248750Y-78027000D01*
X47090000Y-78185750D01*
X47086928Y-78625000D01*
X47099188Y-78749482D01*
X47104328Y-78766426D01*
X47025518Y-78774188D01*
X46905820Y-78810498D01*
X46795506Y-78869463D01*
X46698815Y-78948815D01*
X46619463Y-79045506D01*
X46560498Y-79155820D01*
X46524188Y-79275518D01*
X46511928Y-79400000D01*
X46512364Y-79508581D01*
X46469180Y-79485498D01*
X46349482Y-79449188D01*
X46225000Y-79436928D01*
X45785750Y-79440000D01*
X45627000Y-79598750D01*
X45627000Y-80535500D01*
X45647000Y-80535500D01*
X45647000Y-80789500D01*
X45627000Y-80789500D01*
X45627000Y-80809500D01*
X45373000Y-80809500D01*
X45373000Y-80789500D01*
X44298750Y-80789500D01*
X44140000Y-80948250D01*
X44136928Y-81250000D01*
X44149188Y-81374482D01*
X44162891Y-81419655D01*
X44017502Y-81242498D01*
X43829449Y-81088167D01*
X43614901Y-80973489D01*
X43382102Y-80902870D01*
X43200665Y-80885000D01*
X42279335Y-80885000D01*
X42097898Y-80902870D01*
X41865099Y-80973489D01*
X41650551Y-81088167D01*
X41462498Y-81242498D01*
X41308167Y-81430551D01*
X41193489Y-81645099D01*
X41177000Y-81699456D01*
X41177000Y-80075000D01*
X44136928Y-80075000D01*
X44140000Y-80376750D01*
X44298750Y-80535500D01*
X45373000Y-80535500D01*
X45373000Y-79598750D01*
X45214250Y-79440000D01*
X44775000Y-79436928D01*
X44650518Y-79449188D01*
X44530820Y-79485498D01*
X44420506Y-79544463D01*
X44323815Y-79623815D01*
X44244463Y-79720506D01*
X44185498Y-79830820D01*
X44149188Y-79950518D01*
X44136928Y-80075000D01*
X41177000Y-80075000D01*
X41177000Y-77175000D01*
X47086928Y-77175000D01*
X47090000Y-77614250D01*
X47248750Y-77773000D01*
X48185500Y-77773000D01*
X48185500Y-76698750D01*
X48026750Y-76540000D01*
X47725000Y-76536928D01*
X47600518Y-76549188D01*
X47480820Y-76585498D01*
X47370506Y-76644463D01*
X47273815Y-76723815D01*
X47194463Y-76820506D01*
X47135498Y-76930820D01*
X47099188Y-77050518D01*
X47086928Y-77175000D01*
X41177000Y-77175000D01*
X41177000Y-76212000D01*
X44270140Y-76212000D01*
X44313489Y-76354901D01*
X44428167Y-76569449D01*
X44582498Y-76757502D01*
X44770551Y-76911833D01*
X44985099Y-77026511D01*
X45217898Y-77097130D01*
X45399335Y-77115000D01*
X46320665Y-77115000D01*
X46502102Y-77097130D01*
X46734901Y-77026511D01*
X46949449Y-76911833D01*
X47137502Y-76757502D01*
X47291833Y-76569449D01*
X47406511Y-76354901D01*
X47477130Y-76122102D01*
X47500975Y-75880000D01*
X47484723Y-75714990D01*
X56073000Y-75714990D01*
X56073000Y-83898000D01*
%TA.AperFunction,Conductor*%
D43*
G36*
X56073000Y-83898000D02*
G01*
X54462292Y-83898000D01*
X54367502Y-83782498D01*
X54179449Y-83628167D01*
X53964901Y-83513489D01*
X53732102Y-83442870D01*
X53550665Y-83425000D01*
X52629335Y-83425000D01*
X52447898Y-83442870D01*
X52339001Y-83475904D01*
X52339001Y-81714423D01*
X52342687Y-81677000D01*
X52339001Y-81639575D01*
X52327975Y-81527623D01*
X52284403Y-81383986D01*
X52213646Y-81251609D01*
X52118423Y-81135579D01*
X52089353Y-81111722D01*
X51888072Y-80910441D01*
X51888072Y-79400000D01*
X51875812Y-79275518D01*
X51839502Y-79155820D01*
X51780537Y-79045506D01*
X51701185Y-78948815D01*
X51604494Y-78869463D01*
X51494310Y-78810567D01*
X51545472Y-78714850D01*
X51596008Y-78548254D01*
X51613072Y-78375000D01*
X51613072Y-77425000D01*
X51596008Y-77251746D01*
X51545472Y-77085150D01*
X51463405Y-76931614D01*
X51352962Y-76797038D01*
X51218386Y-76686595D01*
X51064850Y-76604528D01*
X50898254Y-76553992D01*
X50725000Y-76536928D01*
X50050000Y-76536928D01*
X49876746Y-76553992D01*
X49710150Y-76604528D01*
X49556614Y-76686595D01*
X49422038Y-76797038D01*
X49416658Y-76803594D01*
X49351185Y-76723815D01*
X49254494Y-76644463D01*
X49144180Y-76585498D01*
X49024482Y-76549188D01*
X48900000Y-76536928D01*
X48598250Y-76540000D01*
X48439500Y-76698750D01*
X48439500Y-77773000D01*
X48459500Y-77773000D01*
X48459500Y-78027000D01*
X48439500Y-78027000D01*
X48439500Y-78047000D01*
X48185500Y-78047000D01*
X48185500Y-78027000D01*
X47248750Y-78027000D01*
X47090000Y-78185750D01*
X47086928Y-78625000D01*
X47099188Y-78749482D01*
X47104328Y-78766426D01*
X47025518Y-78774188D01*
X46905820Y-78810498D01*
X46795506Y-78869463D01*
X46698815Y-78948815D01*
X46619463Y-79045506D01*
X46560498Y-79155820D01*
X46524188Y-79275518D01*
X46511928Y-79400000D01*
X46512364Y-79508581D01*
X46469180Y-79485498D01*
X46349482Y-79449188D01*
X46225000Y-79436928D01*
X45785750Y-79440000D01*
X45627000Y-79598750D01*
X45627000Y-80535500D01*
X45647000Y-80535500D01*
X45647000Y-80789500D01*
X45627000Y-80789500D01*
X45627000Y-80809500D01*
X45373000Y-80809500D01*
X45373000Y-80789500D01*
X44298750Y-80789500D01*
X44140000Y-80948250D01*
X44136928Y-81250000D01*
X44149188Y-81374482D01*
X44162891Y-81419655D01*
X44017502Y-81242498D01*
X43829449Y-81088167D01*
X43614901Y-80973489D01*
X43382102Y-80902870D01*
X43200665Y-80885000D01*
X42279335Y-80885000D01*
X42097898Y-80902870D01*
X41865099Y-80973489D01*
X41650551Y-81088167D01*
X41462498Y-81242498D01*
X41308167Y-81430551D01*
X41193489Y-81645099D01*
X41177000Y-81699456D01*
X41177000Y-80075000D01*
X44136928Y-80075000D01*
X44140000Y-80376750D01*
X44298750Y-80535500D01*
X45373000Y-80535500D01*
X45373000Y-79598750D01*
X45214250Y-79440000D01*
X44775000Y-79436928D01*
X44650518Y-79449188D01*
X44530820Y-79485498D01*
X44420506Y-79544463D01*
X44323815Y-79623815D01*
X44244463Y-79720506D01*
X44185498Y-79830820D01*
X44149188Y-79950518D01*
X44136928Y-80075000D01*
X41177000Y-80075000D01*
X41177000Y-77175000D01*
X47086928Y-77175000D01*
X47090000Y-77614250D01*
X47248750Y-77773000D01*
X48185500Y-77773000D01*
X48185500Y-76698750D01*
X48026750Y-76540000D01*
X47725000Y-76536928D01*
X47600518Y-76549188D01*
X47480820Y-76585498D01*
X47370506Y-76644463D01*
X47273815Y-76723815D01*
X47194463Y-76820506D01*
X47135498Y-76930820D01*
X47099188Y-77050518D01*
X47086928Y-77175000D01*
X41177000Y-77175000D01*
X41177000Y-76212000D01*
X44270140Y-76212000D01*
X44313489Y-76354901D01*
X44428167Y-76569449D01*
X44582498Y-76757502D01*
X44770551Y-76911833D01*
X44985099Y-77026511D01*
X45217898Y-77097130D01*
X45399335Y-77115000D01*
X46320665Y-77115000D01*
X46502102Y-77097130D01*
X46734901Y-77026511D01*
X46949449Y-76911833D01*
X47137502Y-76757502D01*
X47291833Y-76569449D01*
X47406511Y-76354901D01*
X47477130Y-76122102D01*
X47500975Y-75880000D01*
X47484723Y-75714990D01*
X56073000Y-75714990D01*
X56073000Y-83898000D01*
G37*
%TD.AperFunction*%
D42*
X44323815Y-81701185D02*
X44403594Y-81766658D01*
X44397038Y-81772038D01*
X44344454Y-81836112D01*
X44291627Y-81661963D01*
X44323815Y-81701185D01*
%TA.AperFunction,Conductor*%
D43*
G36*
X44323815Y-81701185D02*
G01*
X44403594Y-81766658D01*
X44397038Y-81772038D01*
X44344454Y-81836112D01*
X44291627Y-81661963D01*
X44323815Y-81701185D01*
G37*
%TD.AperFunction*%
D42*
X48177000Y-80323000D02*
X48197000Y-80323000D01*
X48197000Y-80577000D01*
X48177000Y-80577000D01*
X48177000Y-80597000D01*
X47923000Y-80597000D01*
X47923000Y-80577000D01*
X47903000Y-80577000D01*
X47903000Y-80323000D01*
X47923000Y-80323000D01*
X47923000Y-80303000D01*
X48177000Y-80303000D01*
X48177000Y-80323000D01*
%TA.AperFunction,Conductor*%
D43*
G36*
X48177000Y-80323000D02*
G01*
X48197000Y-80323000D01*
X48197000Y-80577000D01*
X48177000Y-80577000D01*
X48177000Y-80597000D01*
X47923000Y-80597000D01*
X47923000Y-80577000D01*
X47903000Y-80577000D01*
X47903000Y-80323000D01*
X47923000Y-80323000D01*
X47923000Y-80303000D01*
X48177000Y-80303000D01*
X48177000Y-80323000D01*
G37*
%TD.AperFunction*%
%TD*%
M02*
