%TF.GenerationSoftware,KiCad,Pcbnew,(5.1.8-0-10_14)*%
%TF.CreationDate,2020-12-27T18:14:17+09:00*%
%TF.ProjectId,Unison,556e6973-6f6e-42e6-9b69-6361645f7063,v01*%
%TF.SameCoordinates,Original*%
%TF.FileFunction,Legend,Top*%
%TF.FilePolarity,Positive*%
%FSLAX46Y46*%
G04 Gerber Fmt 4.6, Leading zero omitted, Abs format (unit mm)*
G04 Created by KiCad (PCBNEW (5.1.8-0-10_14)) date 2020-12-27 18:14:17*
%MOMM*%
%LPD*%
G01*
G04 APERTURE LIST*
%ADD10C,0.120000*%
%ADD11C,0.150000*%
G04 APERTURE END LIST*
D10*
%TO.C,SW_25_2*%
X71100000Y-97400000D02*
X71100000Y-98200000D01*
X71600000Y-95400000D02*
X71100000Y-95400000D01*
X71100000Y-94400000D02*
X71100000Y-96400000D01*
X71100000Y-106200000D02*
X71100000Y-107000000D01*
X71100000Y-108000000D02*
X71100000Y-109600000D01*
X71100000Y-93400000D02*
X71100000Y-92600000D01*
X71100000Y-91600000D02*
X71100000Y-90000000D01*
X71100000Y-80200000D02*
X71100000Y-79400000D01*
X71100000Y-87200000D02*
X71100000Y-85600000D01*
X71100000Y-89000000D02*
X71100000Y-88200000D01*
X71100000Y-84600000D02*
X71100000Y-83800000D01*
X71100000Y-82800000D02*
X71100000Y-81200000D01*
X71100000Y-99200000D02*
X71100000Y-100800000D01*
X70900000Y-79400000D02*
X71300000Y-79400000D01*
X71300000Y-111400000D02*
X70900000Y-111400000D01*
X71100000Y-110600000D02*
X71100000Y-111400000D01*
X71100000Y-103600000D02*
X71100000Y-105200000D01*
X71100000Y-101800000D02*
X71100000Y-102600000D01*
%TO.C,SW_60_2*%
X188700000Y-97400000D02*
X188700000Y-98200000D01*
X189200000Y-95400000D02*
X188700000Y-95400000D01*
X188700000Y-94400000D02*
X188700000Y-96400000D01*
X188700000Y-106200000D02*
X188700000Y-107000000D01*
X188700000Y-108000000D02*
X188700000Y-109600000D01*
X188700000Y-93400000D02*
X188700000Y-92600000D01*
X188700000Y-91600000D02*
X188700000Y-90000000D01*
X188700000Y-80200000D02*
X188700000Y-79400000D01*
X188700000Y-87200000D02*
X188700000Y-85600000D01*
X188700000Y-89000000D02*
X188700000Y-88200000D01*
X188700000Y-84600000D02*
X188700000Y-83800000D01*
X188700000Y-82800000D02*
X188700000Y-81200000D01*
X188700000Y-99200000D02*
X188700000Y-100800000D01*
X188500000Y-79400000D02*
X188900000Y-79400000D01*
X188900000Y-111400000D02*
X188500000Y-111400000D01*
X188700000Y-110600000D02*
X188700000Y-111400000D01*
X188700000Y-103600000D02*
X188700000Y-105200000D01*
X188700000Y-101800000D02*
X188700000Y-102600000D01*
%TO.C,SW_10_2*%
X33700000Y-108900000D02*
X34500000Y-108900000D01*
X31700000Y-108400000D02*
X31700000Y-108900000D01*
X30700000Y-108900000D02*
X32700000Y-108900000D01*
X35500000Y-108900000D02*
X37100000Y-108900000D01*
X15700000Y-109100000D02*
X15700000Y-108700000D01*
X47700000Y-108700000D02*
X47700000Y-109100000D01*
X46900000Y-108900000D02*
X47700000Y-108900000D01*
X39900000Y-108900000D02*
X41500000Y-108900000D01*
X38100000Y-108900000D02*
X38900000Y-108900000D01*
X42500000Y-108900000D02*
X43300000Y-108900000D01*
X44300000Y-108900000D02*
X45900000Y-108900000D01*
X29700000Y-108900000D02*
X28900000Y-108900000D01*
X27900000Y-108900000D02*
X26300000Y-108900000D01*
X16500000Y-108900000D02*
X15700000Y-108900000D01*
X23500000Y-108900000D02*
X21900000Y-108900000D01*
X25300000Y-108900000D02*
X24500000Y-108900000D01*
X20900000Y-108900000D02*
X20100000Y-108900000D01*
X19100000Y-108900000D02*
X17500000Y-108900000D01*
%TO.C,SW_19_2*%
X33700000Y-92500000D02*
X34500000Y-92500000D01*
X31700000Y-92000000D02*
X31700000Y-92500000D01*
X30700000Y-92500000D02*
X32700000Y-92500000D01*
X35500000Y-92500000D02*
X37100000Y-92500000D01*
X15700000Y-92700000D02*
X15700000Y-92300000D01*
X47700000Y-92300000D02*
X47700000Y-92700000D01*
X46900000Y-92500000D02*
X47700000Y-92500000D01*
X39900000Y-92500000D02*
X41500000Y-92500000D01*
X38100000Y-92500000D02*
X38900000Y-92500000D01*
X42500000Y-92500000D02*
X43300000Y-92500000D01*
X44300000Y-92500000D02*
X45900000Y-92500000D01*
X29700000Y-92500000D02*
X28900000Y-92500000D01*
X27900000Y-92500000D02*
X26300000Y-92500000D01*
X16500000Y-92500000D02*
X15700000Y-92500000D01*
X23500000Y-92500000D02*
X21900000Y-92500000D01*
X25300000Y-92500000D02*
X24500000Y-92500000D01*
X20900000Y-92500000D02*
X20100000Y-92500000D01*
X19100000Y-92500000D02*
X17500000Y-92500000D01*
%TO.C,SW_24_2*%
X84100000Y-92500000D02*
X84900000Y-92500000D01*
X82100000Y-92000000D02*
X82100000Y-92500000D01*
X81100000Y-92500000D02*
X83100000Y-92500000D01*
X85900000Y-92500000D02*
X87500000Y-92500000D01*
X66100000Y-92700000D02*
X66100000Y-92300000D01*
X98100000Y-92300000D02*
X98100000Y-92700000D01*
X97300000Y-92500000D02*
X98100000Y-92500000D01*
X90300000Y-92500000D02*
X91900000Y-92500000D01*
X88500000Y-92500000D02*
X89300000Y-92500000D01*
X92900000Y-92500000D02*
X93700000Y-92500000D01*
X94700000Y-92500000D02*
X96300000Y-92500000D01*
X80100000Y-92500000D02*
X79300000Y-92500000D01*
X78300000Y-92500000D02*
X76700000Y-92500000D01*
X66900000Y-92500000D02*
X66100000Y-92500000D01*
X73900000Y-92500000D02*
X72300000Y-92500000D01*
X75700000Y-92500000D02*
X74900000Y-92500000D01*
X71300000Y-92500000D02*
X70500000Y-92500000D01*
X69500000Y-92500000D02*
X67900000Y-92500000D01*
%TO.C,SW_39_2*%
X100900000Y-92500000D02*
X101700000Y-92500000D01*
X98900000Y-92000000D02*
X98900000Y-92500000D01*
X97900000Y-92500000D02*
X99900000Y-92500000D01*
X102700000Y-92500000D02*
X104300000Y-92500000D01*
X82900000Y-92700000D02*
X82900000Y-92300000D01*
X114900000Y-92300000D02*
X114900000Y-92700000D01*
X114100000Y-92500000D02*
X114900000Y-92500000D01*
X107100000Y-92500000D02*
X108700000Y-92500000D01*
X105300000Y-92500000D02*
X106100000Y-92500000D01*
X109700000Y-92500000D02*
X110500000Y-92500000D01*
X111500000Y-92500000D02*
X113100000Y-92500000D01*
X96900000Y-92500000D02*
X96100000Y-92500000D01*
X95100000Y-92500000D02*
X93500000Y-92500000D01*
X83700000Y-92500000D02*
X82900000Y-92500000D01*
X90700000Y-92500000D02*
X89100000Y-92500000D01*
X92500000Y-92500000D02*
X91700000Y-92500000D01*
X88100000Y-92500000D02*
X87300000Y-92500000D01*
X86300000Y-92500000D02*
X84700000Y-92500000D01*
%TO.C,SW_45_4*%
X151300000Y-108900000D02*
X152100000Y-108900000D01*
X149300000Y-108400000D02*
X149300000Y-108900000D01*
X148300000Y-108900000D02*
X150300000Y-108900000D01*
X153100000Y-108900000D02*
X154700000Y-108900000D01*
X133300000Y-109100000D02*
X133300000Y-108700000D01*
X165300000Y-108700000D02*
X165300000Y-109100000D01*
X164500000Y-108900000D02*
X165300000Y-108900000D01*
X157500000Y-108900000D02*
X159100000Y-108900000D01*
X155700000Y-108900000D02*
X156500000Y-108900000D01*
X160100000Y-108900000D02*
X160900000Y-108900000D01*
X161900000Y-108900000D02*
X163500000Y-108900000D01*
X147300000Y-108900000D02*
X146500000Y-108900000D01*
X145500000Y-108900000D02*
X143900000Y-108900000D01*
X134100000Y-108900000D02*
X133300000Y-108900000D01*
X141100000Y-108900000D02*
X139500000Y-108900000D01*
X142900000Y-108900000D02*
X142100000Y-108900000D01*
X138500000Y-108900000D02*
X137700000Y-108900000D01*
X136700000Y-108900000D02*
X135100000Y-108900000D01*
%TO.C,SW_17_2*%
X15900000Y-57100000D02*
X15500000Y-57100000D01*
X16500000Y-57100000D02*
X16300000Y-57100000D01*
X19500000Y-57100000D02*
X19300000Y-57100000D01*
X18900000Y-57100000D02*
X18700000Y-57100000D01*
X18300000Y-57100000D02*
X18100000Y-57100000D01*
X20100000Y-57100000D02*
X19900000Y-57100000D01*
X17700000Y-57100000D02*
X17500000Y-57100000D01*
X17100000Y-57100000D02*
X16900000Y-57100000D01*
X23100000Y-57100000D02*
X22900000Y-57100000D01*
X22500000Y-57100000D02*
X22300000Y-57100000D01*
X21900000Y-57100000D02*
X21700000Y-57100000D01*
X24900000Y-57100000D02*
X24700000Y-57100000D01*
X25500000Y-57100000D02*
X25300000Y-57100000D01*
X26100000Y-57100000D02*
X25900000Y-57100000D01*
X26700000Y-57100000D02*
X26500000Y-57100000D01*
X23700000Y-57100000D02*
X23500000Y-57100000D01*
X21300000Y-57100000D02*
X21100000Y-57100000D01*
X20700000Y-57100000D02*
X20500000Y-57100000D01*
X24300000Y-57100000D02*
X24100000Y-57100000D01*
X39100000Y-57100000D02*
X39500000Y-57100000D01*
X38500000Y-57100000D02*
X38700000Y-57100000D01*
X35500000Y-57100000D02*
X35700000Y-57100000D01*
X36100000Y-57100000D02*
X36300000Y-57100000D01*
X36700000Y-57100000D02*
X36900000Y-57100000D01*
X34900000Y-57100000D02*
X35100000Y-57100000D01*
X37300000Y-57100000D02*
X37500000Y-57100000D01*
X37900000Y-57100000D02*
X38100000Y-57100000D01*
X31900000Y-57100000D02*
X32100000Y-57100000D01*
X32500000Y-57100000D02*
X32700000Y-57100000D01*
X33100000Y-57100000D02*
X33300000Y-57100000D01*
X31300000Y-57100000D02*
X31500000Y-57100000D01*
X33700000Y-57100000D02*
X33900000Y-57100000D01*
X34300000Y-57100000D02*
X34500000Y-57100000D01*
X30700000Y-57100000D02*
X30900000Y-57100000D01*
X30100000Y-57100000D02*
X30300000Y-57100000D01*
X29500000Y-57100000D02*
X29700000Y-57100000D01*
X28900000Y-57100000D02*
X29100000Y-57100000D01*
X28300000Y-57100000D02*
X28500000Y-57100000D01*
X27100000Y-57100000D02*
X27900000Y-57100000D01*
X39500000Y-56900000D02*
X39500000Y-57300000D01*
X15500000Y-57300000D02*
X15500000Y-56900000D01*
X27500000Y-56600000D02*
X27500000Y-57100000D01*
%TO.C,SW_18_2*%
X15900000Y-73500000D02*
X15500000Y-73500000D01*
X16500000Y-73500000D02*
X16300000Y-73500000D01*
X19500000Y-73500000D02*
X19300000Y-73500000D01*
X18900000Y-73500000D02*
X18700000Y-73500000D01*
X18300000Y-73500000D02*
X18100000Y-73500000D01*
X20100000Y-73500000D02*
X19900000Y-73500000D01*
X17700000Y-73500000D02*
X17500000Y-73500000D01*
X17100000Y-73500000D02*
X16900000Y-73500000D01*
X23100000Y-73500000D02*
X22900000Y-73500000D01*
X22500000Y-73500000D02*
X22300000Y-73500000D01*
X21900000Y-73500000D02*
X21700000Y-73500000D01*
X24900000Y-73500000D02*
X24700000Y-73500000D01*
X25500000Y-73500000D02*
X25300000Y-73500000D01*
X26100000Y-73500000D02*
X25900000Y-73500000D01*
X26700000Y-73500000D02*
X26500000Y-73500000D01*
X23700000Y-73500000D02*
X23500000Y-73500000D01*
X21300000Y-73500000D02*
X21100000Y-73500000D01*
X20700000Y-73500000D02*
X20500000Y-73500000D01*
X24300000Y-73500000D02*
X24100000Y-73500000D01*
X39100000Y-73500000D02*
X39500000Y-73500000D01*
X38500000Y-73500000D02*
X38700000Y-73500000D01*
X35500000Y-73500000D02*
X35700000Y-73500000D01*
X36100000Y-73500000D02*
X36300000Y-73500000D01*
X36700000Y-73500000D02*
X36900000Y-73500000D01*
X34900000Y-73500000D02*
X35100000Y-73500000D01*
X37300000Y-73500000D02*
X37500000Y-73500000D01*
X37900000Y-73500000D02*
X38100000Y-73500000D01*
X31900000Y-73500000D02*
X32100000Y-73500000D01*
X32500000Y-73500000D02*
X32700000Y-73500000D01*
X33100000Y-73500000D02*
X33300000Y-73500000D01*
X31300000Y-73500000D02*
X31500000Y-73500000D01*
X33700000Y-73500000D02*
X33900000Y-73500000D01*
X34300000Y-73500000D02*
X34500000Y-73500000D01*
X30700000Y-73500000D02*
X30900000Y-73500000D01*
X30100000Y-73500000D02*
X30300000Y-73500000D01*
X29500000Y-73500000D02*
X29700000Y-73500000D01*
X28900000Y-73500000D02*
X29100000Y-73500000D01*
X28300000Y-73500000D02*
X28500000Y-73500000D01*
X27100000Y-73500000D02*
X27900000Y-73500000D01*
X39500000Y-73300000D02*
X39500000Y-73700000D01*
X15500000Y-73700000D02*
X15500000Y-73300000D01*
X27500000Y-73000000D02*
X27500000Y-73500000D01*
%TO.C,SW_23_2*%
X66300000Y-73500000D02*
X65900000Y-73500000D01*
X66900000Y-73500000D02*
X66700000Y-73500000D01*
X69900000Y-73500000D02*
X69700000Y-73500000D01*
X69300000Y-73500000D02*
X69100000Y-73500000D01*
X68700000Y-73500000D02*
X68500000Y-73500000D01*
X70500000Y-73500000D02*
X70300000Y-73500000D01*
X68100000Y-73500000D02*
X67900000Y-73500000D01*
X67500000Y-73500000D02*
X67300000Y-73500000D01*
X73500000Y-73500000D02*
X73300000Y-73500000D01*
X72900000Y-73500000D02*
X72700000Y-73500000D01*
X72300000Y-73500000D02*
X72100000Y-73500000D01*
X75300000Y-73500000D02*
X75100000Y-73500000D01*
X75900000Y-73500000D02*
X75700000Y-73500000D01*
X76500000Y-73500000D02*
X76300000Y-73500000D01*
X77100000Y-73500000D02*
X76900000Y-73500000D01*
X74100000Y-73500000D02*
X73900000Y-73500000D01*
X71700000Y-73500000D02*
X71500000Y-73500000D01*
X71100000Y-73500000D02*
X70900000Y-73500000D01*
X74700000Y-73500000D02*
X74500000Y-73500000D01*
X89500000Y-73500000D02*
X89900000Y-73500000D01*
X88900000Y-73500000D02*
X89100000Y-73500000D01*
X85900000Y-73500000D02*
X86100000Y-73500000D01*
X86500000Y-73500000D02*
X86700000Y-73500000D01*
X87100000Y-73500000D02*
X87300000Y-73500000D01*
X85300000Y-73500000D02*
X85500000Y-73500000D01*
X87700000Y-73500000D02*
X87900000Y-73500000D01*
X88300000Y-73500000D02*
X88500000Y-73500000D01*
X82300000Y-73500000D02*
X82500000Y-73500000D01*
X82900000Y-73500000D02*
X83100000Y-73500000D01*
X83500000Y-73500000D02*
X83700000Y-73500000D01*
X81700000Y-73500000D02*
X81900000Y-73500000D01*
X84100000Y-73500000D02*
X84300000Y-73500000D01*
X84700000Y-73500000D02*
X84900000Y-73500000D01*
X81100000Y-73500000D02*
X81300000Y-73500000D01*
X80500000Y-73500000D02*
X80700000Y-73500000D01*
X79900000Y-73500000D02*
X80100000Y-73500000D01*
X79300000Y-73500000D02*
X79500000Y-73500000D01*
X78700000Y-73500000D02*
X78900000Y-73500000D01*
X77500000Y-73500000D02*
X78300000Y-73500000D01*
X89900000Y-73300000D02*
X89900000Y-73700000D01*
X65900000Y-73700000D02*
X65900000Y-73300000D01*
X77900000Y-73000000D02*
X77900000Y-73500000D01*
%TO.C,SW_25_3*%
X66300000Y-106300000D02*
X65900000Y-106300000D01*
X66900000Y-106300000D02*
X66700000Y-106300000D01*
X69900000Y-106300000D02*
X69700000Y-106300000D01*
X69300000Y-106300000D02*
X69100000Y-106300000D01*
X68700000Y-106300000D02*
X68500000Y-106300000D01*
X70500000Y-106300000D02*
X70300000Y-106300000D01*
X68100000Y-106300000D02*
X67900000Y-106300000D01*
X67500000Y-106300000D02*
X67300000Y-106300000D01*
X73500000Y-106300000D02*
X73300000Y-106300000D01*
X72900000Y-106300000D02*
X72700000Y-106300000D01*
X72300000Y-106300000D02*
X72100000Y-106300000D01*
X75300000Y-106300000D02*
X75100000Y-106300000D01*
X75900000Y-106300000D02*
X75700000Y-106300000D01*
X76500000Y-106300000D02*
X76300000Y-106300000D01*
X77100000Y-106300000D02*
X76900000Y-106300000D01*
X74100000Y-106300000D02*
X73900000Y-106300000D01*
X71700000Y-106300000D02*
X71500000Y-106300000D01*
X71100000Y-106300000D02*
X70900000Y-106300000D01*
X74700000Y-106300000D02*
X74500000Y-106300000D01*
X89500000Y-106300000D02*
X89900000Y-106300000D01*
X88900000Y-106300000D02*
X89100000Y-106300000D01*
X85900000Y-106300000D02*
X86100000Y-106300000D01*
X86500000Y-106300000D02*
X86700000Y-106300000D01*
X87100000Y-106300000D02*
X87300000Y-106300000D01*
X85300000Y-106300000D02*
X85500000Y-106300000D01*
X87700000Y-106300000D02*
X87900000Y-106300000D01*
X88300000Y-106300000D02*
X88500000Y-106300000D01*
X82300000Y-106300000D02*
X82500000Y-106300000D01*
X82900000Y-106300000D02*
X83100000Y-106300000D01*
X83500000Y-106300000D02*
X83700000Y-106300000D01*
X81700000Y-106300000D02*
X81900000Y-106300000D01*
X84100000Y-106300000D02*
X84300000Y-106300000D01*
X84700000Y-106300000D02*
X84900000Y-106300000D01*
X81100000Y-106300000D02*
X81300000Y-106300000D01*
X80500000Y-106300000D02*
X80700000Y-106300000D01*
X79900000Y-106300000D02*
X80100000Y-106300000D01*
X79300000Y-106300000D02*
X79500000Y-106300000D01*
X78700000Y-106300000D02*
X78900000Y-106300000D01*
X77500000Y-106300000D02*
X78300000Y-106300000D01*
X89900000Y-106100000D02*
X89900000Y-106500000D01*
X65900000Y-106500000D02*
X65900000Y-106100000D01*
X77900000Y-105800000D02*
X77900000Y-106300000D01*
%TO.C,SW_32_2*%
X66300000Y-57100000D02*
X65900000Y-57100000D01*
X66900000Y-57100000D02*
X66700000Y-57100000D01*
X69900000Y-57100000D02*
X69700000Y-57100000D01*
X69300000Y-57100000D02*
X69100000Y-57100000D01*
X68700000Y-57100000D02*
X68500000Y-57100000D01*
X70500000Y-57100000D02*
X70300000Y-57100000D01*
X68100000Y-57100000D02*
X67900000Y-57100000D01*
X67500000Y-57100000D02*
X67300000Y-57100000D01*
X73500000Y-57100000D02*
X73300000Y-57100000D01*
X72900000Y-57100000D02*
X72700000Y-57100000D01*
X72300000Y-57100000D02*
X72100000Y-57100000D01*
X75300000Y-57100000D02*
X75100000Y-57100000D01*
X75900000Y-57100000D02*
X75700000Y-57100000D01*
X76500000Y-57100000D02*
X76300000Y-57100000D01*
X77100000Y-57100000D02*
X76900000Y-57100000D01*
X74100000Y-57100000D02*
X73900000Y-57100000D01*
X71700000Y-57100000D02*
X71500000Y-57100000D01*
X71100000Y-57100000D02*
X70900000Y-57100000D01*
X74700000Y-57100000D02*
X74500000Y-57100000D01*
X89500000Y-57100000D02*
X89900000Y-57100000D01*
X88900000Y-57100000D02*
X89100000Y-57100000D01*
X85900000Y-57100000D02*
X86100000Y-57100000D01*
X86500000Y-57100000D02*
X86700000Y-57100000D01*
X87100000Y-57100000D02*
X87300000Y-57100000D01*
X85300000Y-57100000D02*
X85500000Y-57100000D01*
X87700000Y-57100000D02*
X87900000Y-57100000D01*
X88300000Y-57100000D02*
X88500000Y-57100000D01*
X82300000Y-57100000D02*
X82500000Y-57100000D01*
X82900000Y-57100000D02*
X83100000Y-57100000D01*
X83500000Y-57100000D02*
X83700000Y-57100000D01*
X81700000Y-57100000D02*
X81900000Y-57100000D01*
X84100000Y-57100000D02*
X84300000Y-57100000D01*
X84700000Y-57100000D02*
X84900000Y-57100000D01*
X81100000Y-57100000D02*
X81300000Y-57100000D01*
X80500000Y-57100000D02*
X80700000Y-57100000D01*
X79900000Y-57100000D02*
X80100000Y-57100000D01*
X79300000Y-57100000D02*
X79500000Y-57100000D01*
X78700000Y-57100000D02*
X78900000Y-57100000D01*
X77500000Y-57100000D02*
X78300000Y-57100000D01*
X89900000Y-56900000D02*
X89900000Y-57300000D01*
X65900000Y-57300000D02*
X65900000Y-56900000D01*
X77900000Y-56600000D02*
X77900000Y-57100000D01*
%TO.C,SW_37_2*%
X83100000Y-57100000D02*
X82700000Y-57100000D01*
X83700000Y-57100000D02*
X83500000Y-57100000D01*
X86700000Y-57100000D02*
X86500000Y-57100000D01*
X86100000Y-57100000D02*
X85900000Y-57100000D01*
X85500000Y-57100000D02*
X85300000Y-57100000D01*
X87300000Y-57100000D02*
X87100000Y-57100000D01*
X84900000Y-57100000D02*
X84700000Y-57100000D01*
X84300000Y-57100000D02*
X84100000Y-57100000D01*
X90300000Y-57100000D02*
X90100000Y-57100000D01*
X89700000Y-57100000D02*
X89500000Y-57100000D01*
X89100000Y-57100000D02*
X88900000Y-57100000D01*
X92100000Y-57100000D02*
X91900000Y-57100000D01*
X92700000Y-57100000D02*
X92500000Y-57100000D01*
X93300000Y-57100000D02*
X93100000Y-57100000D01*
X93900000Y-57100000D02*
X93700000Y-57100000D01*
X90900000Y-57100000D02*
X90700000Y-57100000D01*
X88500000Y-57100000D02*
X88300000Y-57100000D01*
X87900000Y-57100000D02*
X87700000Y-57100000D01*
X91500000Y-57100000D02*
X91300000Y-57100000D01*
X106300000Y-57100000D02*
X106700000Y-57100000D01*
X105700000Y-57100000D02*
X105900000Y-57100000D01*
X102700000Y-57100000D02*
X102900000Y-57100000D01*
X103300000Y-57100000D02*
X103500000Y-57100000D01*
X103900000Y-57100000D02*
X104100000Y-57100000D01*
X102100000Y-57100000D02*
X102300000Y-57100000D01*
X104500000Y-57100000D02*
X104700000Y-57100000D01*
X105100000Y-57100000D02*
X105300000Y-57100000D01*
X99100000Y-57100000D02*
X99300000Y-57100000D01*
X99700000Y-57100000D02*
X99900000Y-57100000D01*
X100300000Y-57100000D02*
X100500000Y-57100000D01*
X98500000Y-57100000D02*
X98700000Y-57100000D01*
X100900000Y-57100000D02*
X101100000Y-57100000D01*
X101500000Y-57100000D02*
X101700000Y-57100000D01*
X97900000Y-57100000D02*
X98100000Y-57100000D01*
X97300000Y-57100000D02*
X97500000Y-57100000D01*
X96700000Y-57100000D02*
X96900000Y-57100000D01*
X96100000Y-57100000D02*
X96300000Y-57100000D01*
X95500000Y-57100000D02*
X95700000Y-57100000D01*
X94300000Y-57100000D02*
X95100000Y-57100000D01*
X106700000Y-56900000D02*
X106700000Y-57300000D01*
X82700000Y-57300000D02*
X82700000Y-56900000D01*
X94700000Y-56600000D02*
X94700000Y-57100000D01*
%TO.C,SW_38_2*%
X83100000Y-73500000D02*
X82700000Y-73500000D01*
X83700000Y-73500000D02*
X83500000Y-73500000D01*
X86700000Y-73500000D02*
X86500000Y-73500000D01*
X86100000Y-73500000D02*
X85900000Y-73500000D01*
X85500000Y-73500000D02*
X85300000Y-73500000D01*
X87300000Y-73500000D02*
X87100000Y-73500000D01*
X84900000Y-73500000D02*
X84700000Y-73500000D01*
X84300000Y-73500000D02*
X84100000Y-73500000D01*
X90300000Y-73500000D02*
X90100000Y-73500000D01*
X89700000Y-73500000D02*
X89500000Y-73500000D01*
X89100000Y-73500000D02*
X88900000Y-73500000D01*
X92100000Y-73500000D02*
X91900000Y-73500000D01*
X92700000Y-73500000D02*
X92500000Y-73500000D01*
X93300000Y-73500000D02*
X93100000Y-73500000D01*
X93900000Y-73500000D02*
X93700000Y-73500000D01*
X90900000Y-73500000D02*
X90700000Y-73500000D01*
X88500000Y-73500000D02*
X88300000Y-73500000D01*
X87900000Y-73500000D02*
X87700000Y-73500000D01*
X91500000Y-73500000D02*
X91300000Y-73500000D01*
X106300000Y-73500000D02*
X106700000Y-73500000D01*
X105700000Y-73500000D02*
X105900000Y-73500000D01*
X102700000Y-73500000D02*
X102900000Y-73500000D01*
X103300000Y-73500000D02*
X103500000Y-73500000D01*
X103900000Y-73500000D02*
X104100000Y-73500000D01*
X102100000Y-73500000D02*
X102300000Y-73500000D01*
X104500000Y-73500000D02*
X104700000Y-73500000D01*
X105100000Y-73500000D02*
X105300000Y-73500000D01*
X99100000Y-73500000D02*
X99300000Y-73500000D01*
X99700000Y-73500000D02*
X99900000Y-73500000D01*
X100300000Y-73500000D02*
X100500000Y-73500000D01*
X98500000Y-73500000D02*
X98700000Y-73500000D01*
X100900000Y-73500000D02*
X101100000Y-73500000D01*
X101500000Y-73500000D02*
X101700000Y-73500000D01*
X97900000Y-73500000D02*
X98100000Y-73500000D01*
X97300000Y-73500000D02*
X97500000Y-73500000D01*
X96700000Y-73500000D02*
X96900000Y-73500000D01*
X96100000Y-73500000D02*
X96300000Y-73500000D01*
X95500000Y-73500000D02*
X95700000Y-73500000D01*
X94300000Y-73500000D02*
X95100000Y-73500000D01*
X106700000Y-73300000D02*
X106700000Y-73700000D01*
X82700000Y-73700000D02*
X82700000Y-73300000D01*
X94700000Y-73000000D02*
X94700000Y-73500000D01*
%TO.C,SW_40_2*%
X116700000Y-106300000D02*
X116300000Y-106300000D01*
X117300000Y-106300000D02*
X117100000Y-106300000D01*
X120300000Y-106300000D02*
X120100000Y-106300000D01*
X119700000Y-106300000D02*
X119500000Y-106300000D01*
X119100000Y-106300000D02*
X118900000Y-106300000D01*
X120900000Y-106300000D02*
X120700000Y-106300000D01*
X118500000Y-106300000D02*
X118300000Y-106300000D01*
X117900000Y-106300000D02*
X117700000Y-106300000D01*
X123900000Y-106300000D02*
X123700000Y-106300000D01*
X123300000Y-106300000D02*
X123100000Y-106300000D01*
X122700000Y-106300000D02*
X122500000Y-106300000D01*
X125700000Y-106300000D02*
X125500000Y-106300000D01*
X126300000Y-106300000D02*
X126100000Y-106300000D01*
X126900000Y-106300000D02*
X126700000Y-106300000D01*
X127500000Y-106300000D02*
X127300000Y-106300000D01*
X124500000Y-106300000D02*
X124300000Y-106300000D01*
X122100000Y-106300000D02*
X121900000Y-106300000D01*
X121500000Y-106300000D02*
X121300000Y-106300000D01*
X125100000Y-106300000D02*
X124900000Y-106300000D01*
X139900000Y-106300000D02*
X140300000Y-106300000D01*
X139300000Y-106300000D02*
X139500000Y-106300000D01*
X136300000Y-106300000D02*
X136500000Y-106300000D01*
X136900000Y-106300000D02*
X137100000Y-106300000D01*
X137500000Y-106300000D02*
X137700000Y-106300000D01*
X135700000Y-106300000D02*
X135900000Y-106300000D01*
X138100000Y-106300000D02*
X138300000Y-106300000D01*
X138700000Y-106300000D02*
X138900000Y-106300000D01*
X132700000Y-106300000D02*
X132900000Y-106300000D01*
X133300000Y-106300000D02*
X133500000Y-106300000D01*
X133900000Y-106300000D02*
X134100000Y-106300000D01*
X132100000Y-106300000D02*
X132300000Y-106300000D01*
X134500000Y-106300000D02*
X134700000Y-106300000D01*
X135100000Y-106300000D02*
X135300000Y-106300000D01*
X131500000Y-106300000D02*
X131700000Y-106300000D01*
X130900000Y-106300000D02*
X131100000Y-106300000D01*
X130300000Y-106300000D02*
X130500000Y-106300000D01*
X129700000Y-106300000D02*
X129900000Y-106300000D01*
X129100000Y-106300000D02*
X129300000Y-106300000D01*
X127900000Y-106300000D02*
X128700000Y-106300000D01*
X140300000Y-106100000D02*
X140300000Y-106500000D01*
X116300000Y-106500000D02*
X116300000Y-106100000D01*
X128300000Y-105800000D02*
X128300000Y-106300000D01*
%TO.C,SW_45_2*%
X133500000Y-106300000D02*
X133100000Y-106300000D01*
X134100000Y-106300000D02*
X133900000Y-106300000D01*
X137100000Y-106300000D02*
X136900000Y-106300000D01*
X136500000Y-106300000D02*
X136300000Y-106300000D01*
X135900000Y-106300000D02*
X135700000Y-106300000D01*
X137700000Y-106300000D02*
X137500000Y-106300000D01*
X135300000Y-106300000D02*
X135100000Y-106300000D01*
X134700000Y-106300000D02*
X134500000Y-106300000D01*
X140700000Y-106300000D02*
X140500000Y-106300000D01*
X140100000Y-106300000D02*
X139900000Y-106300000D01*
X139500000Y-106300000D02*
X139300000Y-106300000D01*
X142500000Y-106300000D02*
X142300000Y-106300000D01*
X143100000Y-106300000D02*
X142900000Y-106300000D01*
X143700000Y-106300000D02*
X143500000Y-106300000D01*
X144300000Y-106300000D02*
X144100000Y-106300000D01*
X141300000Y-106300000D02*
X141100000Y-106300000D01*
X138900000Y-106300000D02*
X138700000Y-106300000D01*
X138300000Y-106300000D02*
X138100000Y-106300000D01*
X141900000Y-106300000D02*
X141700000Y-106300000D01*
X156700000Y-106300000D02*
X157100000Y-106300000D01*
X156100000Y-106300000D02*
X156300000Y-106300000D01*
X153100000Y-106300000D02*
X153300000Y-106300000D01*
X153700000Y-106300000D02*
X153900000Y-106300000D01*
X154300000Y-106300000D02*
X154500000Y-106300000D01*
X152500000Y-106300000D02*
X152700000Y-106300000D01*
X154900000Y-106300000D02*
X155100000Y-106300000D01*
X155500000Y-106300000D02*
X155700000Y-106300000D01*
X149500000Y-106300000D02*
X149700000Y-106300000D01*
X150100000Y-106300000D02*
X150300000Y-106300000D01*
X150700000Y-106300000D02*
X150900000Y-106300000D01*
X148900000Y-106300000D02*
X149100000Y-106300000D01*
X151300000Y-106300000D02*
X151500000Y-106300000D01*
X151900000Y-106300000D02*
X152100000Y-106300000D01*
X148300000Y-106300000D02*
X148500000Y-106300000D01*
X147700000Y-106300000D02*
X147900000Y-106300000D01*
X147100000Y-106300000D02*
X147300000Y-106300000D01*
X146500000Y-106300000D02*
X146700000Y-106300000D01*
X145900000Y-106300000D02*
X146100000Y-106300000D01*
X144700000Y-106300000D02*
X145500000Y-106300000D01*
X157100000Y-106100000D02*
X157100000Y-106500000D01*
X133100000Y-106500000D02*
X133100000Y-106100000D01*
X145100000Y-105800000D02*
X145100000Y-106300000D01*
%TO.C,SW_70_2*%
X209100000Y-106300000D02*
X208700000Y-106300000D01*
X209700000Y-106300000D02*
X209500000Y-106300000D01*
X212700000Y-106300000D02*
X212500000Y-106300000D01*
X212100000Y-106300000D02*
X211900000Y-106300000D01*
X211500000Y-106300000D02*
X211300000Y-106300000D01*
X213300000Y-106300000D02*
X213100000Y-106300000D01*
X210900000Y-106300000D02*
X210700000Y-106300000D01*
X210300000Y-106300000D02*
X210100000Y-106300000D01*
X216300000Y-106300000D02*
X216100000Y-106300000D01*
X215700000Y-106300000D02*
X215500000Y-106300000D01*
X215100000Y-106300000D02*
X214900000Y-106300000D01*
X218100000Y-106300000D02*
X217900000Y-106300000D01*
X218700000Y-106300000D02*
X218500000Y-106300000D01*
X219300000Y-106300000D02*
X219100000Y-106300000D01*
X219900000Y-106300000D02*
X219700000Y-106300000D01*
X216900000Y-106300000D02*
X216700000Y-106300000D01*
X214500000Y-106300000D02*
X214300000Y-106300000D01*
X213900000Y-106300000D02*
X213700000Y-106300000D01*
X217500000Y-106300000D02*
X217300000Y-106300000D01*
X232300000Y-106300000D02*
X232700000Y-106300000D01*
X231700000Y-106300000D02*
X231900000Y-106300000D01*
X228700000Y-106300000D02*
X228900000Y-106300000D01*
X229300000Y-106300000D02*
X229500000Y-106300000D01*
X229900000Y-106300000D02*
X230100000Y-106300000D01*
X228100000Y-106300000D02*
X228300000Y-106300000D01*
X230500000Y-106300000D02*
X230700000Y-106300000D01*
X231100000Y-106300000D02*
X231300000Y-106300000D01*
X225100000Y-106300000D02*
X225300000Y-106300000D01*
X225700000Y-106300000D02*
X225900000Y-106300000D01*
X226300000Y-106300000D02*
X226500000Y-106300000D01*
X224500000Y-106300000D02*
X224700000Y-106300000D01*
X226900000Y-106300000D02*
X227100000Y-106300000D01*
X227500000Y-106300000D02*
X227700000Y-106300000D01*
X223900000Y-106300000D02*
X224100000Y-106300000D01*
X223300000Y-106300000D02*
X223500000Y-106300000D01*
X222700000Y-106300000D02*
X222900000Y-106300000D01*
X222100000Y-106300000D02*
X222300000Y-106300000D01*
X221500000Y-106300000D02*
X221700000Y-106300000D01*
X220300000Y-106300000D02*
X221100000Y-106300000D01*
X232700000Y-106100000D02*
X232700000Y-106500000D01*
X208700000Y-106500000D02*
X208700000Y-106100000D01*
X220700000Y-105800000D02*
X220700000Y-106300000D01*
%TO.C,SW_75_2*%
X223900000Y-100900000D02*
X224300000Y-100900000D01*
X223300000Y-100900000D02*
X223500000Y-100900000D01*
X220300000Y-100900000D02*
X220500000Y-100900000D01*
X220900000Y-100900000D02*
X221100000Y-100900000D01*
X221500000Y-100900000D02*
X221700000Y-100900000D01*
X219700000Y-100900000D02*
X219900000Y-100900000D01*
X222100000Y-100900000D02*
X222300000Y-100900000D01*
X222700000Y-100900000D02*
X222900000Y-100900000D01*
X216700000Y-100900000D02*
X216900000Y-100900000D01*
X217300000Y-100900000D02*
X217500000Y-100900000D01*
X217900000Y-100900000D02*
X218100000Y-100900000D01*
X214900000Y-100900000D02*
X215100000Y-100900000D01*
X214300000Y-100900000D02*
X214500000Y-100900000D01*
X213700000Y-100900000D02*
X213900000Y-100900000D01*
X213100000Y-100900000D02*
X213300000Y-100900000D01*
X216100000Y-100900000D02*
X216300000Y-100900000D01*
X218500000Y-100900000D02*
X218700000Y-100900000D01*
X219100000Y-100900000D02*
X219300000Y-100900000D01*
X215500000Y-100900000D02*
X215700000Y-100900000D01*
X200700000Y-100900000D02*
X200300000Y-100900000D01*
X201300000Y-100900000D02*
X201100000Y-100900000D01*
X204300000Y-100900000D02*
X204100000Y-100900000D01*
X203700000Y-100900000D02*
X203500000Y-100900000D01*
X203100000Y-100900000D02*
X202900000Y-100900000D01*
X204900000Y-100900000D02*
X204700000Y-100900000D01*
X202500000Y-100900000D02*
X202300000Y-100900000D01*
X201900000Y-100900000D02*
X201700000Y-100900000D01*
X207900000Y-100900000D02*
X207700000Y-100900000D01*
X207300000Y-100900000D02*
X207100000Y-100900000D01*
X206700000Y-100900000D02*
X206500000Y-100900000D01*
X208500000Y-100900000D02*
X208300000Y-100900000D01*
X206100000Y-100900000D02*
X205900000Y-100900000D01*
X205500000Y-100900000D02*
X205300000Y-100900000D01*
X209100000Y-100900000D02*
X208900000Y-100900000D01*
X209700000Y-100900000D02*
X209500000Y-100900000D01*
X210300000Y-100900000D02*
X210100000Y-100900000D01*
X210900000Y-100900000D02*
X210700000Y-100900000D01*
X211500000Y-100900000D02*
X211300000Y-100900000D01*
X212700000Y-100900000D02*
X211900000Y-100900000D01*
X200300000Y-101100000D02*
X200300000Y-100700000D01*
X224300000Y-100700000D02*
X224300000Y-101100000D01*
X212300000Y-101400000D02*
X212300000Y-100900000D01*
%TO.C,SW_7_2*%
X276300000Y-57100000D02*
X275900000Y-57100000D01*
X276900000Y-57100000D02*
X276700000Y-57100000D01*
X279900000Y-57100000D02*
X279700000Y-57100000D01*
X279300000Y-57100000D02*
X279100000Y-57100000D01*
X278700000Y-57100000D02*
X278500000Y-57100000D01*
X280500000Y-57100000D02*
X280300000Y-57100000D01*
X278100000Y-57100000D02*
X277900000Y-57100000D01*
X277500000Y-57100000D02*
X277300000Y-57100000D01*
X283500000Y-57100000D02*
X283300000Y-57100000D01*
X282900000Y-57100000D02*
X282700000Y-57100000D01*
X282300000Y-57100000D02*
X282100000Y-57100000D01*
X285300000Y-57100000D02*
X285100000Y-57100000D01*
X285900000Y-57100000D02*
X285700000Y-57100000D01*
X286500000Y-57100000D02*
X286300000Y-57100000D01*
X287100000Y-57100000D02*
X286900000Y-57100000D01*
X284100000Y-57100000D02*
X283900000Y-57100000D01*
X281700000Y-57100000D02*
X281500000Y-57100000D01*
X281100000Y-57100000D02*
X280900000Y-57100000D01*
X284700000Y-57100000D02*
X284500000Y-57100000D01*
X299500000Y-57100000D02*
X299900000Y-57100000D01*
X298900000Y-57100000D02*
X299100000Y-57100000D01*
X295900000Y-57100000D02*
X296100000Y-57100000D01*
X296500000Y-57100000D02*
X296700000Y-57100000D01*
X297100000Y-57100000D02*
X297300000Y-57100000D01*
X295300000Y-57100000D02*
X295500000Y-57100000D01*
X297700000Y-57100000D02*
X297900000Y-57100000D01*
X298300000Y-57100000D02*
X298500000Y-57100000D01*
X292300000Y-57100000D02*
X292500000Y-57100000D01*
X292900000Y-57100000D02*
X293100000Y-57100000D01*
X293500000Y-57100000D02*
X293700000Y-57100000D01*
X291700000Y-57100000D02*
X291900000Y-57100000D01*
X294100000Y-57100000D02*
X294300000Y-57100000D01*
X294700000Y-57100000D02*
X294900000Y-57100000D01*
X291100000Y-57100000D02*
X291300000Y-57100000D01*
X290500000Y-57100000D02*
X290700000Y-57100000D01*
X289900000Y-57100000D02*
X290100000Y-57100000D01*
X289300000Y-57100000D02*
X289500000Y-57100000D01*
X288700000Y-57100000D02*
X288900000Y-57100000D01*
X287500000Y-57100000D02*
X288300000Y-57100000D01*
X299900000Y-56900000D02*
X299900000Y-57300000D01*
X275900000Y-57300000D02*
X275900000Y-56900000D01*
X287900000Y-56600000D02*
X287900000Y-57100000D01*
%TO.C,SW_85_3*%
X225900000Y-106300000D02*
X225500000Y-106300000D01*
X226500000Y-106300000D02*
X226300000Y-106300000D01*
X229500000Y-106300000D02*
X229300000Y-106300000D01*
X228900000Y-106300000D02*
X228700000Y-106300000D01*
X228300000Y-106300000D02*
X228100000Y-106300000D01*
X230100000Y-106300000D02*
X229900000Y-106300000D01*
X227700000Y-106300000D02*
X227500000Y-106300000D01*
X227100000Y-106300000D02*
X226900000Y-106300000D01*
X233100000Y-106300000D02*
X232900000Y-106300000D01*
X232500000Y-106300000D02*
X232300000Y-106300000D01*
X231900000Y-106300000D02*
X231700000Y-106300000D01*
X234900000Y-106300000D02*
X234700000Y-106300000D01*
X235500000Y-106300000D02*
X235300000Y-106300000D01*
X236100000Y-106300000D02*
X235900000Y-106300000D01*
X236700000Y-106300000D02*
X236500000Y-106300000D01*
X233700000Y-106300000D02*
X233500000Y-106300000D01*
X231300000Y-106300000D02*
X231100000Y-106300000D01*
X230700000Y-106300000D02*
X230500000Y-106300000D01*
X234300000Y-106300000D02*
X234100000Y-106300000D01*
X249100000Y-106300000D02*
X249500000Y-106300000D01*
X248500000Y-106300000D02*
X248700000Y-106300000D01*
X245500000Y-106300000D02*
X245700000Y-106300000D01*
X246100000Y-106300000D02*
X246300000Y-106300000D01*
X246700000Y-106300000D02*
X246900000Y-106300000D01*
X244900000Y-106300000D02*
X245100000Y-106300000D01*
X247300000Y-106300000D02*
X247500000Y-106300000D01*
X247900000Y-106300000D02*
X248100000Y-106300000D01*
X241900000Y-106300000D02*
X242100000Y-106300000D01*
X242500000Y-106300000D02*
X242700000Y-106300000D01*
X243100000Y-106300000D02*
X243300000Y-106300000D01*
X241300000Y-106300000D02*
X241500000Y-106300000D01*
X243700000Y-106300000D02*
X243900000Y-106300000D01*
X244300000Y-106300000D02*
X244500000Y-106300000D01*
X240700000Y-106300000D02*
X240900000Y-106300000D01*
X240100000Y-106300000D02*
X240300000Y-106300000D01*
X239500000Y-106300000D02*
X239700000Y-106300000D01*
X238900000Y-106300000D02*
X239100000Y-106300000D01*
X238300000Y-106300000D02*
X238500000Y-106300000D01*
X237100000Y-106300000D02*
X237900000Y-106300000D01*
X249500000Y-106100000D02*
X249500000Y-106500000D01*
X225500000Y-106500000D02*
X225500000Y-106100000D01*
X237500000Y-105800000D02*
X237500000Y-106300000D01*
%TO.C,SW_8_2*%
X276300000Y-73500000D02*
X275900000Y-73500000D01*
X276900000Y-73500000D02*
X276700000Y-73500000D01*
X279900000Y-73500000D02*
X279700000Y-73500000D01*
X279300000Y-73500000D02*
X279100000Y-73500000D01*
X278700000Y-73500000D02*
X278500000Y-73500000D01*
X280500000Y-73500000D02*
X280300000Y-73500000D01*
X278100000Y-73500000D02*
X277900000Y-73500000D01*
X277500000Y-73500000D02*
X277300000Y-73500000D01*
X283500000Y-73500000D02*
X283300000Y-73500000D01*
X282900000Y-73500000D02*
X282700000Y-73500000D01*
X282300000Y-73500000D02*
X282100000Y-73500000D01*
X285300000Y-73500000D02*
X285100000Y-73500000D01*
X285900000Y-73500000D02*
X285700000Y-73500000D01*
X286500000Y-73500000D02*
X286300000Y-73500000D01*
X287100000Y-73500000D02*
X286900000Y-73500000D01*
X284100000Y-73500000D02*
X283900000Y-73500000D01*
X281700000Y-73500000D02*
X281500000Y-73500000D01*
X281100000Y-73500000D02*
X280900000Y-73500000D01*
X284700000Y-73500000D02*
X284500000Y-73500000D01*
X299500000Y-73500000D02*
X299900000Y-73500000D01*
X298900000Y-73500000D02*
X299100000Y-73500000D01*
X295900000Y-73500000D02*
X296100000Y-73500000D01*
X296500000Y-73500000D02*
X296700000Y-73500000D01*
X297100000Y-73500000D02*
X297300000Y-73500000D01*
X295300000Y-73500000D02*
X295500000Y-73500000D01*
X297700000Y-73500000D02*
X297900000Y-73500000D01*
X298300000Y-73500000D02*
X298500000Y-73500000D01*
X292300000Y-73500000D02*
X292500000Y-73500000D01*
X292900000Y-73500000D02*
X293100000Y-73500000D01*
X293500000Y-73500000D02*
X293700000Y-73500000D01*
X291700000Y-73500000D02*
X291900000Y-73500000D01*
X294100000Y-73500000D02*
X294300000Y-73500000D01*
X294700000Y-73500000D02*
X294900000Y-73500000D01*
X291100000Y-73500000D02*
X291300000Y-73500000D01*
X290500000Y-73500000D02*
X290700000Y-73500000D01*
X289900000Y-73500000D02*
X290100000Y-73500000D01*
X289300000Y-73500000D02*
X289500000Y-73500000D01*
X288700000Y-73500000D02*
X288900000Y-73500000D01*
X287500000Y-73500000D02*
X288300000Y-73500000D01*
X299900000Y-73300000D02*
X299900000Y-73700000D01*
X275900000Y-73700000D02*
X275900000Y-73300000D01*
X287900000Y-73000000D02*
X287900000Y-73500000D01*
%TO.C,SW_97_2*%
X259500000Y-57100000D02*
X259100000Y-57100000D01*
X260100000Y-57100000D02*
X259900000Y-57100000D01*
X263100000Y-57100000D02*
X262900000Y-57100000D01*
X262500000Y-57100000D02*
X262300000Y-57100000D01*
X261900000Y-57100000D02*
X261700000Y-57100000D01*
X263700000Y-57100000D02*
X263500000Y-57100000D01*
X261300000Y-57100000D02*
X261100000Y-57100000D01*
X260700000Y-57100000D02*
X260500000Y-57100000D01*
X266700000Y-57100000D02*
X266500000Y-57100000D01*
X266100000Y-57100000D02*
X265900000Y-57100000D01*
X265500000Y-57100000D02*
X265300000Y-57100000D01*
X268500000Y-57100000D02*
X268300000Y-57100000D01*
X269100000Y-57100000D02*
X268900000Y-57100000D01*
X269700000Y-57100000D02*
X269500000Y-57100000D01*
X270300000Y-57100000D02*
X270100000Y-57100000D01*
X267300000Y-57100000D02*
X267100000Y-57100000D01*
X264900000Y-57100000D02*
X264700000Y-57100000D01*
X264300000Y-57100000D02*
X264100000Y-57100000D01*
X267900000Y-57100000D02*
X267700000Y-57100000D01*
X282700000Y-57100000D02*
X283100000Y-57100000D01*
X282100000Y-57100000D02*
X282300000Y-57100000D01*
X279100000Y-57100000D02*
X279300000Y-57100000D01*
X279700000Y-57100000D02*
X279900000Y-57100000D01*
X280300000Y-57100000D02*
X280500000Y-57100000D01*
X278500000Y-57100000D02*
X278700000Y-57100000D01*
X280900000Y-57100000D02*
X281100000Y-57100000D01*
X281500000Y-57100000D02*
X281700000Y-57100000D01*
X275500000Y-57100000D02*
X275700000Y-57100000D01*
X276100000Y-57100000D02*
X276300000Y-57100000D01*
X276700000Y-57100000D02*
X276900000Y-57100000D01*
X274900000Y-57100000D02*
X275100000Y-57100000D01*
X277300000Y-57100000D02*
X277500000Y-57100000D01*
X277900000Y-57100000D02*
X278100000Y-57100000D01*
X274300000Y-57100000D02*
X274500000Y-57100000D01*
X273700000Y-57100000D02*
X273900000Y-57100000D01*
X273100000Y-57100000D02*
X273300000Y-57100000D01*
X272500000Y-57100000D02*
X272700000Y-57100000D01*
X271900000Y-57100000D02*
X272100000Y-57100000D01*
X270700000Y-57100000D02*
X271500000Y-57100000D01*
X283100000Y-56900000D02*
X283100000Y-57300000D01*
X259100000Y-57300000D02*
X259100000Y-56900000D01*
X271100000Y-56600000D02*
X271100000Y-57100000D01*
%TO.C,SW_98_2*%
X259500000Y-73500000D02*
X259100000Y-73500000D01*
X260100000Y-73500000D02*
X259900000Y-73500000D01*
X263100000Y-73500000D02*
X262900000Y-73500000D01*
X262500000Y-73500000D02*
X262300000Y-73500000D01*
X261900000Y-73500000D02*
X261700000Y-73500000D01*
X263700000Y-73500000D02*
X263500000Y-73500000D01*
X261300000Y-73500000D02*
X261100000Y-73500000D01*
X260700000Y-73500000D02*
X260500000Y-73500000D01*
X266700000Y-73500000D02*
X266500000Y-73500000D01*
X266100000Y-73500000D02*
X265900000Y-73500000D01*
X265500000Y-73500000D02*
X265300000Y-73500000D01*
X268500000Y-73500000D02*
X268300000Y-73500000D01*
X269100000Y-73500000D02*
X268900000Y-73500000D01*
X269700000Y-73500000D02*
X269500000Y-73500000D01*
X270300000Y-73500000D02*
X270100000Y-73500000D01*
X267300000Y-73500000D02*
X267100000Y-73500000D01*
X264900000Y-73500000D02*
X264700000Y-73500000D01*
X264300000Y-73500000D02*
X264100000Y-73500000D01*
X267900000Y-73500000D02*
X267700000Y-73500000D01*
X282700000Y-73500000D02*
X283100000Y-73500000D01*
X282100000Y-73500000D02*
X282300000Y-73500000D01*
X279100000Y-73500000D02*
X279300000Y-73500000D01*
X279700000Y-73500000D02*
X279900000Y-73500000D01*
X280300000Y-73500000D02*
X280500000Y-73500000D01*
X278500000Y-73500000D02*
X278700000Y-73500000D01*
X280900000Y-73500000D02*
X281100000Y-73500000D01*
X281500000Y-73500000D02*
X281700000Y-73500000D01*
X275500000Y-73500000D02*
X275700000Y-73500000D01*
X276100000Y-73500000D02*
X276300000Y-73500000D01*
X276700000Y-73500000D02*
X276900000Y-73500000D01*
X274900000Y-73500000D02*
X275100000Y-73500000D01*
X277300000Y-73500000D02*
X277500000Y-73500000D01*
X277900000Y-73500000D02*
X278100000Y-73500000D01*
X274300000Y-73500000D02*
X274500000Y-73500000D01*
X273700000Y-73500000D02*
X273900000Y-73500000D01*
X273100000Y-73500000D02*
X273300000Y-73500000D01*
X272500000Y-73500000D02*
X272700000Y-73500000D01*
X271900000Y-73500000D02*
X272100000Y-73500000D01*
X270700000Y-73500000D02*
X271500000Y-73500000D01*
X283100000Y-73300000D02*
X283100000Y-73700000D01*
X259100000Y-73700000D02*
X259100000Y-73300000D01*
X271100000Y-73000000D02*
X271100000Y-73500000D01*
%TO.C,SW_85_4*%
X233700000Y-107250000D02*
X234300000Y-107250000D01*
X232500000Y-107250000D02*
X233100000Y-107250000D01*
X231300000Y-107250000D02*
X231900000Y-107250000D01*
X230100000Y-107250000D02*
X230700000Y-107250000D01*
X228900000Y-107250000D02*
X229500000Y-107250000D01*
X227700000Y-107250000D02*
X228300000Y-107250000D01*
X226500000Y-107250000D02*
X227100000Y-107250000D01*
X243700000Y-107250000D02*
X244300000Y-107250000D01*
X242500000Y-107250000D02*
X243100000Y-107250000D01*
X241300000Y-107250000D02*
X241900000Y-107250000D01*
X240100000Y-107250000D02*
X240700000Y-107250000D01*
X238900000Y-107250000D02*
X239500000Y-107250000D01*
X237700000Y-107250000D02*
X238300000Y-107250000D01*
X235400000Y-106750000D02*
X235400000Y-107250000D01*
X225400000Y-107450000D02*
X225400000Y-107050000D01*
X245400000Y-107050000D02*
X245400000Y-107450000D01*
X235000000Y-107250000D02*
X235800000Y-107250000D01*
X236500000Y-107250000D02*
X237100000Y-107250000D01*
X225900000Y-107250000D02*
X225400000Y-107250000D01*
X244900000Y-107250000D02*
X245400000Y-107250000D01*
%TO.C,SW_85_2*%
X237900000Y-107250000D02*
X238500000Y-107250000D01*
X236700000Y-107250000D02*
X237300000Y-107250000D01*
X235500000Y-107250000D02*
X236100000Y-107250000D01*
X234300000Y-107250000D02*
X234900000Y-107250000D01*
X233100000Y-107250000D02*
X233700000Y-107250000D01*
X231900000Y-107250000D02*
X232500000Y-107250000D01*
X230700000Y-107250000D02*
X231300000Y-107250000D01*
X247900000Y-107250000D02*
X248500000Y-107250000D01*
X246700000Y-107250000D02*
X247300000Y-107250000D01*
X245500000Y-107250000D02*
X246100000Y-107250000D01*
X244300000Y-107250000D02*
X244900000Y-107250000D01*
X243100000Y-107250000D02*
X243700000Y-107250000D01*
X241900000Y-107250000D02*
X242500000Y-107250000D01*
X239600000Y-106750000D02*
X239600000Y-107250000D01*
X229600000Y-107450000D02*
X229600000Y-107050000D01*
X249600000Y-107050000D02*
X249600000Y-107450000D01*
X239200000Y-107250000D02*
X240000000Y-107250000D01*
X240700000Y-107250000D02*
X241300000Y-107250000D01*
X230100000Y-107250000D02*
X229600000Y-107250000D01*
X249100000Y-107250000D02*
X249600000Y-107250000D01*
%TO.C,SW_80_2*%
X254700000Y-107250000D02*
X255300000Y-107250000D01*
X253500000Y-107250000D02*
X254100000Y-107250000D01*
X252300000Y-107250000D02*
X252900000Y-107250000D01*
X251100000Y-107250000D02*
X251700000Y-107250000D01*
X249900000Y-107250000D02*
X250500000Y-107250000D01*
X248700000Y-107250000D02*
X249300000Y-107250000D01*
X247500000Y-107250000D02*
X248100000Y-107250000D01*
X264700000Y-107250000D02*
X265300000Y-107250000D01*
X263500000Y-107250000D02*
X264100000Y-107250000D01*
X262300000Y-107250000D02*
X262900000Y-107250000D01*
X261100000Y-107250000D02*
X261700000Y-107250000D01*
X259900000Y-107250000D02*
X260500000Y-107250000D01*
X258700000Y-107250000D02*
X259300000Y-107250000D01*
X256400000Y-106750000D02*
X256400000Y-107250000D01*
X246400000Y-107450000D02*
X246400000Y-107050000D01*
X266400000Y-107050000D02*
X266400000Y-107450000D01*
X256000000Y-107250000D02*
X256800000Y-107250000D01*
X257500000Y-107250000D02*
X258100000Y-107250000D01*
X246900000Y-107250000D02*
X246400000Y-107250000D01*
X265900000Y-107250000D02*
X266400000Y-107250000D01*
%TO.C,SW_70_3*%
X216900000Y-107250000D02*
X217500000Y-107250000D01*
X215700000Y-107250000D02*
X216300000Y-107250000D01*
X214500000Y-107250000D02*
X215100000Y-107250000D01*
X213300000Y-107250000D02*
X213900000Y-107250000D01*
X212100000Y-107250000D02*
X212700000Y-107250000D01*
X210900000Y-107250000D02*
X211500000Y-107250000D01*
X209700000Y-107250000D02*
X210300000Y-107250000D01*
X226900000Y-107250000D02*
X227500000Y-107250000D01*
X225700000Y-107250000D02*
X226300000Y-107250000D01*
X224500000Y-107250000D02*
X225100000Y-107250000D01*
X223300000Y-107250000D02*
X223900000Y-107250000D01*
X222100000Y-107250000D02*
X222700000Y-107250000D01*
X220900000Y-107250000D02*
X221500000Y-107250000D01*
X218600000Y-106750000D02*
X218600000Y-107250000D01*
X208600000Y-107450000D02*
X208600000Y-107050000D01*
X228600000Y-107050000D02*
X228600000Y-107450000D01*
X218200000Y-107250000D02*
X219000000Y-107250000D01*
X219700000Y-107250000D02*
X220300000Y-107250000D01*
X209100000Y-107250000D02*
X208600000Y-107250000D01*
X228100000Y-107250000D02*
X228600000Y-107250000D01*
%TO.C,SW_45_3*%
X145500000Y-107250000D02*
X146100000Y-107250000D01*
X144300000Y-107250000D02*
X144900000Y-107250000D01*
X143100000Y-107250000D02*
X143700000Y-107250000D01*
X141900000Y-107250000D02*
X142500000Y-107250000D01*
X140700000Y-107250000D02*
X141300000Y-107250000D01*
X139500000Y-107250000D02*
X140100000Y-107250000D01*
X138300000Y-107250000D02*
X138900000Y-107250000D01*
X155500000Y-107250000D02*
X156100000Y-107250000D01*
X154300000Y-107250000D02*
X154900000Y-107250000D01*
X153100000Y-107250000D02*
X153700000Y-107250000D01*
X151900000Y-107250000D02*
X152500000Y-107250000D01*
X150700000Y-107250000D02*
X151300000Y-107250000D01*
X149500000Y-107250000D02*
X150100000Y-107250000D01*
X147200000Y-106750000D02*
X147200000Y-107250000D01*
X137200000Y-107450000D02*
X137200000Y-107050000D01*
X157200000Y-107050000D02*
X157200000Y-107450000D01*
X146800000Y-107250000D02*
X147600000Y-107250000D01*
X148300000Y-107250000D02*
X148900000Y-107250000D01*
X137700000Y-107250000D02*
X137200000Y-107250000D01*
X156700000Y-107250000D02*
X157200000Y-107250000D01*
%TO.C,SW_40_4*%
X124500000Y-107250000D02*
X125100000Y-107250000D01*
X123300000Y-107250000D02*
X123900000Y-107250000D01*
X122100000Y-107250000D02*
X122700000Y-107250000D01*
X120900000Y-107250000D02*
X121500000Y-107250000D01*
X119700000Y-107250000D02*
X120300000Y-107250000D01*
X118500000Y-107250000D02*
X119100000Y-107250000D01*
X117300000Y-107250000D02*
X117900000Y-107250000D01*
X134500000Y-107250000D02*
X135100000Y-107250000D01*
X133300000Y-107250000D02*
X133900000Y-107250000D01*
X132100000Y-107250000D02*
X132700000Y-107250000D01*
X130900000Y-107250000D02*
X131500000Y-107250000D01*
X129700000Y-107250000D02*
X130300000Y-107250000D01*
X128500000Y-107250000D02*
X129100000Y-107250000D01*
X126200000Y-106750000D02*
X126200000Y-107250000D01*
X116200000Y-107450000D02*
X116200000Y-107050000D01*
X136200000Y-107050000D02*
X136200000Y-107450000D01*
X125800000Y-107250000D02*
X126600000Y-107250000D01*
X127300000Y-107250000D02*
X127900000Y-107250000D01*
X116700000Y-107250000D02*
X116200000Y-107250000D01*
X135700000Y-107250000D02*
X136200000Y-107250000D01*
%TO.C,SW_40_3*%
X128700000Y-107250000D02*
X129300000Y-107250000D01*
X127500000Y-107250000D02*
X128100000Y-107250000D01*
X126300000Y-107250000D02*
X126900000Y-107250000D01*
X125100000Y-107250000D02*
X125700000Y-107250000D01*
X123900000Y-107250000D02*
X124500000Y-107250000D01*
X122700000Y-107250000D02*
X123300000Y-107250000D01*
X121500000Y-107250000D02*
X122100000Y-107250000D01*
X138700000Y-107250000D02*
X139300000Y-107250000D01*
X137500000Y-107250000D02*
X138100000Y-107250000D01*
X136300000Y-107250000D02*
X136900000Y-107250000D01*
X135100000Y-107250000D02*
X135700000Y-107250000D01*
X133900000Y-107250000D02*
X134500000Y-107250000D01*
X132700000Y-107250000D02*
X133300000Y-107250000D01*
X130400000Y-106750000D02*
X130400000Y-107250000D01*
X120400000Y-107450000D02*
X120400000Y-107050000D01*
X140400000Y-107050000D02*
X140400000Y-107450000D01*
X130000000Y-107250000D02*
X130800000Y-107250000D01*
X131500000Y-107250000D02*
X132100000Y-107250000D01*
X120900000Y-107250000D02*
X120400000Y-107250000D01*
X139900000Y-107250000D02*
X140400000Y-107250000D01*
%TO.C,SW_35_2*%
X107700000Y-107250000D02*
X108300000Y-107250000D01*
X106500000Y-107250000D02*
X107100000Y-107250000D01*
X105300000Y-107250000D02*
X105900000Y-107250000D01*
X104100000Y-107250000D02*
X104700000Y-107250000D01*
X102900000Y-107250000D02*
X103500000Y-107250000D01*
X101700000Y-107250000D02*
X102300000Y-107250000D01*
X100500000Y-107250000D02*
X101100000Y-107250000D01*
X117700000Y-107250000D02*
X118300000Y-107250000D01*
X116500000Y-107250000D02*
X117100000Y-107250000D01*
X115300000Y-107250000D02*
X115900000Y-107250000D01*
X114100000Y-107250000D02*
X114700000Y-107250000D01*
X112900000Y-107250000D02*
X113500000Y-107250000D01*
X111700000Y-107250000D02*
X112300000Y-107250000D01*
X109400000Y-106750000D02*
X109400000Y-107250000D01*
X99400000Y-107450000D02*
X99400000Y-107050000D01*
X119400000Y-107050000D02*
X119400000Y-107450000D01*
X109000000Y-107250000D02*
X109800000Y-107250000D01*
X110500000Y-107250000D02*
X111100000Y-107250000D01*
X99900000Y-107250000D02*
X99400000Y-107250000D01*
X118900000Y-107250000D02*
X119400000Y-107250000D01*
%TO.C,SW_25_4*%
X78300000Y-107250000D02*
X78900000Y-107250000D01*
X77100000Y-107250000D02*
X77700000Y-107250000D01*
X75900000Y-107250000D02*
X76500000Y-107250000D01*
X74700000Y-107250000D02*
X75300000Y-107250000D01*
X73500000Y-107250000D02*
X74100000Y-107250000D01*
X72300000Y-107250000D02*
X72900000Y-107250000D01*
X71100000Y-107250000D02*
X71700000Y-107250000D01*
X88300000Y-107250000D02*
X88900000Y-107250000D01*
X87100000Y-107250000D02*
X87700000Y-107250000D01*
X85900000Y-107250000D02*
X86500000Y-107250000D01*
X84700000Y-107250000D02*
X85300000Y-107250000D01*
X83500000Y-107250000D02*
X84100000Y-107250000D01*
X82300000Y-107250000D02*
X82900000Y-107250000D01*
X80000000Y-106750000D02*
X80000000Y-107250000D01*
X70000000Y-107450000D02*
X70000000Y-107050000D01*
X90000000Y-107050000D02*
X90000000Y-107450000D01*
X79600000Y-107250000D02*
X80400000Y-107250000D01*
X81100000Y-107250000D02*
X81700000Y-107250000D01*
X70500000Y-107250000D02*
X70000000Y-107250000D01*
X89500000Y-107250000D02*
X90000000Y-107250000D01*
%TO.C,SW_20_2*%
X57300000Y-107250000D02*
X57900000Y-107250000D01*
X56100000Y-107250000D02*
X56700000Y-107250000D01*
X54900000Y-107250000D02*
X55500000Y-107250000D01*
X53700000Y-107250000D02*
X54300000Y-107250000D01*
X52500000Y-107250000D02*
X53100000Y-107250000D01*
X51300000Y-107250000D02*
X51900000Y-107250000D01*
X50100000Y-107250000D02*
X50700000Y-107250000D01*
X67300000Y-107250000D02*
X67900000Y-107250000D01*
X66100000Y-107250000D02*
X66700000Y-107250000D01*
X64900000Y-107250000D02*
X65500000Y-107250000D01*
X63700000Y-107250000D02*
X64300000Y-107250000D01*
X62500000Y-107250000D02*
X63100000Y-107250000D01*
X61300000Y-107250000D02*
X61900000Y-107250000D01*
X59000000Y-106750000D02*
X59000000Y-107250000D01*
X49000000Y-107450000D02*
X49000000Y-107050000D01*
X69000000Y-107050000D02*
X69000000Y-107450000D01*
X58600000Y-107250000D02*
X59400000Y-107250000D01*
X60100000Y-107250000D02*
X60700000Y-107250000D01*
X49500000Y-107250000D02*
X49000000Y-107250000D01*
X68500000Y-107250000D02*
X69000000Y-107250000D01*
%TO.C,SW_RE1*%
X59900000Y-22900000D02*
G75*
G03*
X59900000Y-22900000I-3000000J0D01*
G01*
X58900000Y-17000000D02*
X63000000Y-17000000D01*
X63000000Y-28800000D02*
X58900000Y-28800000D01*
X54900000Y-28800000D02*
X50800000Y-28800000D01*
X54900000Y-17000000D02*
X50800000Y-17000000D01*
X50800000Y-17000000D02*
X50800000Y-28800000D01*
X49400000Y-19100000D02*
X49100000Y-18800000D01*
X49100000Y-18800000D02*
X49700000Y-18800000D01*
X49700000Y-18800000D02*
X49400000Y-19100000D01*
X63000000Y-17000000D02*
X63000000Y-19400000D01*
X63000000Y-21600000D02*
X63000000Y-24200000D01*
X63000000Y-26400000D02*
X63000000Y-28800000D01*
X56900000Y-22400000D02*
X56900000Y-23400000D01*
X56400000Y-22900000D02*
X57400000Y-22900000D01*
%TO.C,LS1*%
X25310000Y-18590000D02*
X27960000Y-18590000D01*
X27960000Y-18590000D02*
X27960000Y-27810000D01*
X27960000Y-27810000D02*
X25310000Y-27810000D01*
X21390000Y-27810000D02*
X18740000Y-27810000D01*
X18740000Y-27810000D02*
X18740000Y-18590000D01*
X18740000Y-18590000D02*
X21390000Y-18590000D01*
X25310000Y-18590000D02*
X25310000Y-18260000D01*
%TO.C,SW_RE2*%
X135500000Y-22900000D02*
G75*
G03*
X135500000Y-22900000I-3000000J0D01*
G01*
X134500000Y-17000000D02*
X138600000Y-17000000D01*
X138600000Y-28800000D02*
X134500000Y-28800000D01*
X130500000Y-28800000D02*
X126400000Y-28800000D01*
X130500000Y-17000000D02*
X126400000Y-17000000D01*
X126400000Y-17000000D02*
X126400000Y-28800000D01*
X125000000Y-19100000D02*
X124700000Y-18800000D01*
X124700000Y-18800000D02*
X125300000Y-18800000D01*
X125300000Y-18800000D02*
X125000000Y-19100000D01*
X138600000Y-17000000D02*
X138600000Y-19400000D01*
X138600000Y-21600000D02*
X138600000Y-24200000D01*
X138600000Y-26400000D02*
X138600000Y-28800000D01*
X132500000Y-22400000D02*
X132500000Y-23400000D01*
X132000000Y-22900000D02*
X133000000Y-22900000D01*
%TO.C,SW_RE3*%
X169100000Y-22900000D02*
G75*
G03*
X169100000Y-22900000I-3000000J0D01*
G01*
X168100000Y-17000000D02*
X172200000Y-17000000D01*
X172200000Y-28800000D02*
X168100000Y-28800000D01*
X164100000Y-28800000D02*
X160000000Y-28800000D01*
X164100000Y-17000000D02*
X160000000Y-17000000D01*
X160000000Y-17000000D02*
X160000000Y-28800000D01*
X158600000Y-19100000D02*
X158300000Y-18800000D01*
X158300000Y-18800000D02*
X158900000Y-18800000D01*
X158900000Y-18800000D02*
X158600000Y-19100000D01*
X172200000Y-17000000D02*
X172200000Y-19400000D01*
X172200000Y-21600000D02*
X172200000Y-24200000D01*
X172200000Y-26400000D02*
X172200000Y-28800000D01*
X166100000Y-22400000D02*
X166100000Y-23400000D01*
X165600000Y-22900000D02*
X166600000Y-22900000D01*
%TO.C,SW_RE4*%
X202700000Y-22900000D02*
G75*
G03*
X202700000Y-22900000I-3000000J0D01*
G01*
X201700000Y-17000000D02*
X205800000Y-17000000D01*
X205800000Y-28800000D02*
X201700000Y-28800000D01*
X197700000Y-28800000D02*
X193600000Y-28800000D01*
X197700000Y-17000000D02*
X193600000Y-17000000D01*
X193600000Y-17000000D02*
X193600000Y-28800000D01*
X192200000Y-19100000D02*
X191900000Y-18800000D01*
X191900000Y-18800000D02*
X192500000Y-18800000D01*
X192500000Y-18800000D02*
X192200000Y-19100000D01*
X205800000Y-17000000D02*
X205800000Y-19400000D01*
X205800000Y-21600000D02*
X205800000Y-24200000D01*
X205800000Y-26400000D02*
X205800000Y-28800000D01*
X199700000Y-22400000D02*
X199700000Y-23400000D01*
X199200000Y-22900000D02*
X200200000Y-22900000D01*
%TO.C,SW_RE5*%
X236300000Y-22900000D02*
G75*
G03*
X236300000Y-22900000I-3000000J0D01*
G01*
X235300000Y-17000000D02*
X239400000Y-17000000D01*
X239400000Y-28800000D02*
X235300000Y-28800000D01*
X231300000Y-28800000D02*
X227200000Y-28800000D01*
X231300000Y-17000000D02*
X227200000Y-17000000D01*
X227200000Y-17000000D02*
X227200000Y-28800000D01*
X225800000Y-19100000D02*
X225500000Y-18800000D01*
X225500000Y-18800000D02*
X226100000Y-18800000D01*
X226100000Y-18800000D02*
X225800000Y-19100000D01*
X239400000Y-17000000D02*
X239400000Y-19400000D01*
X239400000Y-21600000D02*
X239400000Y-24200000D01*
X239400000Y-26400000D02*
X239400000Y-28800000D01*
X233300000Y-22400000D02*
X233300000Y-23400000D01*
X232800000Y-22900000D02*
X233800000Y-22900000D01*
%TO.C,SW_RE6*%
X269900000Y-22900000D02*
G75*
G03*
X269900000Y-22900000I-3000000J0D01*
G01*
X268900000Y-17000000D02*
X273000000Y-17000000D01*
X273000000Y-28800000D02*
X268900000Y-28800000D01*
X264900000Y-28800000D02*
X260800000Y-28800000D01*
X264900000Y-17000000D02*
X260800000Y-17000000D01*
X260800000Y-17000000D02*
X260800000Y-28800000D01*
X259400000Y-19100000D02*
X259100000Y-18800000D01*
X259100000Y-18800000D02*
X259700000Y-18800000D01*
X259700000Y-18800000D02*
X259400000Y-19100000D01*
X273000000Y-17000000D02*
X273000000Y-19400000D01*
X273000000Y-21600000D02*
X273000000Y-24200000D01*
X273000000Y-26400000D02*
X273000000Y-28800000D01*
X266900000Y-22400000D02*
X266900000Y-23400000D01*
X266400000Y-22900000D02*
X267400000Y-22900000D01*
%TO.C,SW_25_2*%
D11*
X76892380Y-94590476D02*
X76940000Y-94638095D01*
X76987619Y-94733333D01*
X76987619Y-94971428D01*
X76940000Y-95066666D01*
X76892380Y-95114285D01*
X76797142Y-95161904D01*
X76701904Y-95161904D01*
X76559047Y-95114285D01*
X75987619Y-94542857D01*
X75987619Y-95161904D01*
X76987619Y-95590476D02*
X76178095Y-95590476D01*
X76082857Y-95638095D01*
X76035238Y-95685714D01*
X75987619Y-95780952D01*
X75987619Y-95971428D01*
X76035238Y-96066666D01*
X76082857Y-96114285D01*
X76178095Y-96161904D01*
X76987619Y-96161904D01*
%TO.C,SW_60_2*%
X194492380Y-94590476D02*
X194540000Y-94638095D01*
X194587619Y-94733333D01*
X194587619Y-94971428D01*
X194540000Y-95066666D01*
X194492380Y-95114285D01*
X194397142Y-95161904D01*
X194301904Y-95161904D01*
X194159047Y-95114285D01*
X193587619Y-94542857D01*
X193587619Y-95161904D01*
X194587619Y-95590476D02*
X193778095Y-95590476D01*
X193682857Y-95638095D01*
X193635238Y-95685714D01*
X193587619Y-95780952D01*
X193587619Y-95971428D01*
X193635238Y-96066666D01*
X193682857Y-96114285D01*
X193778095Y-96161904D01*
X194587619Y-96161904D01*
%TO.C,SW_10_2*%
X30890476Y-109397619D02*
X30938095Y-109350000D01*
X31033333Y-109302380D01*
X31271428Y-109302380D01*
X31366666Y-109350000D01*
X31414285Y-109397619D01*
X31461904Y-109492857D01*
X31461904Y-109588095D01*
X31414285Y-109730952D01*
X30842857Y-110302380D01*
X31461904Y-110302380D01*
X31890476Y-109302380D02*
X31890476Y-110111904D01*
X31938095Y-110207142D01*
X31985714Y-110254761D01*
X32080952Y-110302380D01*
X32271428Y-110302380D01*
X32366666Y-110254761D01*
X32414285Y-110207142D01*
X32461904Y-110111904D01*
X32461904Y-109302380D01*
%TO.C,SW_19_2*%
X30890476Y-92997619D02*
X30938095Y-92950000D01*
X31033333Y-92902380D01*
X31271428Y-92902380D01*
X31366666Y-92950000D01*
X31414285Y-92997619D01*
X31461904Y-93092857D01*
X31461904Y-93188095D01*
X31414285Y-93330952D01*
X30842857Y-93902380D01*
X31461904Y-93902380D01*
X31890476Y-92902380D02*
X31890476Y-93711904D01*
X31938095Y-93807142D01*
X31985714Y-93854761D01*
X32080952Y-93902380D01*
X32271428Y-93902380D01*
X32366666Y-93854761D01*
X32414285Y-93807142D01*
X32461904Y-93711904D01*
X32461904Y-92902380D01*
%TO.C,SW_24_2*%
X81290476Y-92997619D02*
X81338095Y-92950000D01*
X81433333Y-92902380D01*
X81671428Y-92902380D01*
X81766666Y-92950000D01*
X81814285Y-92997619D01*
X81861904Y-93092857D01*
X81861904Y-93188095D01*
X81814285Y-93330952D01*
X81242857Y-93902380D01*
X81861904Y-93902380D01*
X82290476Y-92902380D02*
X82290476Y-93711904D01*
X82338095Y-93807142D01*
X82385714Y-93854761D01*
X82480952Y-93902380D01*
X82671428Y-93902380D01*
X82766666Y-93854761D01*
X82814285Y-93807142D01*
X82861904Y-93711904D01*
X82861904Y-92902380D01*
%TO.C,SW_39_2*%
X98090476Y-92997619D02*
X98138095Y-92950000D01*
X98233333Y-92902380D01*
X98471428Y-92902380D01*
X98566666Y-92950000D01*
X98614285Y-92997619D01*
X98661904Y-93092857D01*
X98661904Y-93188095D01*
X98614285Y-93330952D01*
X98042857Y-93902380D01*
X98661904Y-93902380D01*
X99090476Y-92902380D02*
X99090476Y-93711904D01*
X99138095Y-93807142D01*
X99185714Y-93854761D01*
X99280952Y-93902380D01*
X99471428Y-93902380D01*
X99566666Y-93854761D01*
X99614285Y-93807142D01*
X99661904Y-93711904D01*
X99661904Y-92902380D01*
%TO.C,SW_45_4*%
X148490476Y-109397619D02*
X148538095Y-109350000D01*
X148633333Y-109302380D01*
X148871428Y-109302380D01*
X148966666Y-109350000D01*
X149014285Y-109397619D01*
X149061904Y-109492857D01*
X149061904Y-109588095D01*
X149014285Y-109730952D01*
X148442857Y-110302380D01*
X149061904Y-110302380D01*
X149490476Y-109302380D02*
X149490476Y-110111904D01*
X149538095Y-110207142D01*
X149585714Y-110254761D01*
X149680952Y-110302380D01*
X149871428Y-110302380D01*
X149966666Y-110254761D01*
X150014285Y-110207142D01*
X150061904Y-110111904D01*
X150061904Y-109302380D01*
%TO.C,SW_17_2*%
X26547619Y-58352380D02*
X25976190Y-58352380D01*
X26261904Y-58352380D02*
X26261904Y-57352380D01*
X26166666Y-57495238D01*
X26071428Y-57590476D01*
X25976190Y-57638095D01*
X26976190Y-58257142D02*
X27023809Y-58304761D01*
X26976190Y-58352380D01*
X26928571Y-58304761D01*
X26976190Y-58257142D01*
X26976190Y-58352380D01*
X27928571Y-57352380D02*
X27452380Y-57352380D01*
X27404761Y-57828571D01*
X27452380Y-57780952D01*
X27547619Y-57733333D01*
X27785714Y-57733333D01*
X27880952Y-57780952D01*
X27928571Y-57828571D01*
X27976190Y-57923809D01*
X27976190Y-58161904D01*
X27928571Y-58257142D01*
X27880952Y-58304761D01*
X27785714Y-58352380D01*
X27547619Y-58352380D01*
X27452380Y-58304761D01*
X27404761Y-58257142D01*
X28404761Y-57352380D02*
X28404761Y-58161904D01*
X28452380Y-58257142D01*
X28500000Y-58304761D01*
X28595238Y-58352380D01*
X28785714Y-58352380D01*
X28880952Y-58304761D01*
X28928571Y-58257142D01*
X28976190Y-58161904D01*
X28976190Y-57352380D01*
%TO.C,SW_18_2*%
X26547619Y-74752380D02*
X25976190Y-74752380D01*
X26261904Y-74752380D02*
X26261904Y-73752380D01*
X26166666Y-73895238D01*
X26071428Y-73990476D01*
X25976190Y-74038095D01*
X26976190Y-74657142D02*
X27023809Y-74704761D01*
X26976190Y-74752380D01*
X26928571Y-74704761D01*
X26976190Y-74657142D01*
X26976190Y-74752380D01*
X27928571Y-73752380D02*
X27452380Y-73752380D01*
X27404761Y-74228571D01*
X27452380Y-74180952D01*
X27547619Y-74133333D01*
X27785714Y-74133333D01*
X27880952Y-74180952D01*
X27928571Y-74228571D01*
X27976190Y-74323809D01*
X27976190Y-74561904D01*
X27928571Y-74657142D01*
X27880952Y-74704761D01*
X27785714Y-74752380D01*
X27547619Y-74752380D01*
X27452380Y-74704761D01*
X27404761Y-74657142D01*
X28404761Y-73752380D02*
X28404761Y-74561904D01*
X28452380Y-74657142D01*
X28500000Y-74704761D01*
X28595238Y-74752380D01*
X28785714Y-74752380D01*
X28880952Y-74704761D01*
X28928571Y-74657142D01*
X28976190Y-74561904D01*
X28976190Y-73752380D01*
%TO.C,SW_23_2*%
X76947619Y-74752380D02*
X76376190Y-74752380D01*
X76661904Y-74752380D02*
X76661904Y-73752380D01*
X76566666Y-73895238D01*
X76471428Y-73990476D01*
X76376190Y-74038095D01*
X77376190Y-74657142D02*
X77423809Y-74704761D01*
X77376190Y-74752380D01*
X77328571Y-74704761D01*
X77376190Y-74657142D01*
X77376190Y-74752380D01*
X78328571Y-73752380D02*
X77852380Y-73752380D01*
X77804761Y-74228571D01*
X77852380Y-74180952D01*
X77947619Y-74133333D01*
X78185714Y-74133333D01*
X78280952Y-74180952D01*
X78328571Y-74228571D01*
X78376190Y-74323809D01*
X78376190Y-74561904D01*
X78328571Y-74657142D01*
X78280952Y-74704761D01*
X78185714Y-74752380D01*
X77947619Y-74752380D01*
X77852380Y-74704761D01*
X77804761Y-74657142D01*
X78804761Y-73752380D02*
X78804761Y-74561904D01*
X78852380Y-74657142D01*
X78900000Y-74704761D01*
X78995238Y-74752380D01*
X79185714Y-74752380D01*
X79280952Y-74704761D01*
X79328571Y-74657142D01*
X79376190Y-74561904D01*
X79376190Y-73752380D01*
%TO.C,SW_25_3*%
X76947619Y-107552380D02*
X76376190Y-107552380D01*
X76661904Y-107552380D02*
X76661904Y-106552380D01*
X76566666Y-106695238D01*
X76471428Y-106790476D01*
X76376190Y-106838095D01*
X77376190Y-107457142D02*
X77423809Y-107504761D01*
X77376190Y-107552380D01*
X77328571Y-107504761D01*
X77376190Y-107457142D01*
X77376190Y-107552380D01*
X78328571Y-106552380D02*
X77852380Y-106552380D01*
X77804761Y-107028571D01*
X77852380Y-106980952D01*
X77947619Y-106933333D01*
X78185714Y-106933333D01*
X78280952Y-106980952D01*
X78328571Y-107028571D01*
X78376190Y-107123809D01*
X78376190Y-107361904D01*
X78328571Y-107457142D01*
X78280952Y-107504761D01*
X78185714Y-107552380D01*
X77947619Y-107552380D01*
X77852380Y-107504761D01*
X77804761Y-107457142D01*
X78804761Y-106552380D02*
X78804761Y-107361904D01*
X78852380Y-107457142D01*
X78900000Y-107504761D01*
X78995238Y-107552380D01*
X79185714Y-107552380D01*
X79280952Y-107504761D01*
X79328571Y-107457142D01*
X79376190Y-107361904D01*
X79376190Y-106552380D01*
%TO.C,SW_32_2*%
X76947619Y-58352380D02*
X76376190Y-58352380D01*
X76661904Y-58352380D02*
X76661904Y-57352380D01*
X76566666Y-57495238D01*
X76471428Y-57590476D01*
X76376190Y-57638095D01*
X77376190Y-58257142D02*
X77423809Y-58304761D01*
X77376190Y-58352380D01*
X77328571Y-58304761D01*
X77376190Y-58257142D01*
X77376190Y-58352380D01*
X78328571Y-57352380D02*
X77852380Y-57352380D01*
X77804761Y-57828571D01*
X77852380Y-57780952D01*
X77947619Y-57733333D01*
X78185714Y-57733333D01*
X78280952Y-57780952D01*
X78328571Y-57828571D01*
X78376190Y-57923809D01*
X78376190Y-58161904D01*
X78328571Y-58257142D01*
X78280952Y-58304761D01*
X78185714Y-58352380D01*
X77947619Y-58352380D01*
X77852380Y-58304761D01*
X77804761Y-58257142D01*
X78804761Y-57352380D02*
X78804761Y-58161904D01*
X78852380Y-58257142D01*
X78900000Y-58304761D01*
X78995238Y-58352380D01*
X79185714Y-58352380D01*
X79280952Y-58304761D01*
X79328571Y-58257142D01*
X79376190Y-58161904D01*
X79376190Y-57352380D01*
%TO.C,SW_37_2*%
X93747619Y-58352380D02*
X93176190Y-58352380D01*
X93461904Y-58352380D02*
X93461904Y-57352380D01*
X93366666Y-57495238D01*
X93271428Y-57590476D01*
X93176190Y-57638095D01*
X94176190Y-58257142D02*
X94223809Y-58304761D01*
X94176190Y-58352380D01*
X94128571Y-58304761D01*
X94176190Y-58257142D01*
X94176190Y-58352380D01*
X95128571Y-57352380D02*
X94652380Y-57352380D01*
X94604761Y-57828571D01*
X94652380Y-57780952D01*
X94747619Y-57733333D01*
X94985714Y-57733333D01*
X95080952Y-57780952D01*
X95128571Y-57828571D01*
X95176190Y-57923809D01*
X95176190Y-58161904D01*
X95128571Y-58257142D01*
X95080952Y-58304761D01*
X94985714Y-58352380D01*
X94747619Y-58352380D01*
X94652380Y-58304761D01*
X94604761Y-58257142D01*
X95604761Y-57352380D02*
X95604761Y-58161904D01*
X95652380Y-58257142D01*
X95700000Y-58304761D01*
X95795238Y-58352380D01*
X95985714Y-58352380D01*
X96080952Y-58304761D01*
X96128571Y-58257142D01*
X96176190Y-58161904D01*
X96176190Y-57352380D01*
%TO.C,SW_38_2*%
X93747619Y-74752380D02*
X93176190Y-74752380D01*
X93461904Y-74752380D02*
X93461904Y-73752380D01*
X93366666Y-73895238D01*
X93271428Y-73990476D01*
X93176190Y-74038095D01*
X94176190Y-74657142D02*
X94223809Y-74704761D01*
X94176190Y-74752380D01*
X94128571Y-74704761D01*
X94176190Y-74657142D01*
X94176190Y-74752380D01*
X95128571Y-73752380D02*
X94652380Y-73752380D01*
X94604761Y-74228571D01*
X94652380Y-74180952D01*
X94747619Y-74133333D01*
X94985714Y-74133333D01*
X95080952Y-74180952D01*
X95128571Y-74228571D01*
X95176190Y-74323809D01*
X95176190Y-74561904D01*
X95128571Y-74657142D01*
X95080952Y-74704761D01*
X94985714Y-74752380D01*
X94747619Y-74752380D01*
X94652380Y-74704761D01*
X94604761Y-74657142D01*
X95604761Y-73752380D02*
X95604761Y-74561904D01*
X95652380Y-74657142D01*
X95700000Y-74704761D01*
X95795238Y-74752380D01*
X95985714Y-74752380D01*
X96080952Y-74704761D01*
X96128571Y-74657142D01*
X96176190Y-74561904D01*
X96176190Y-73752380D01*
%TO.C,SW_40_2*%
X127347619Y-107552380D02*
X126776190Y-107552380D01*
X127061904Y-107552380D02*
X127061904Y-106552380D01*
X126966666Y-106695238D01*
X126871428Y-106790476D01*
X126776190Y-106838095D01*
X127776190Y-107457142D02*
X127823809Y-107504761D01*
X127776190Y-107552380D01*
X127728571Y-107504761D01*
X127776190Y-107457142D01*
X127776190Y-107552380D01*
X128728571Y-106552380D02*
X128252380Y-106552380D01*
X128204761Y-107028571D01*
X128252380Y-106980952D01*
X128347619Y-106933333D01*
X128585714Y-106933333D01*
X128680952Y-106980952D01*
X128728571Y-107028571D01*
X128776190Y-107123809D01*
X128776190Y-107361904D01*
X128728571Y-107457142D01*
X128680952Y-107504761D01*
X128585714Y-107552380D01*
X128347619Y-107552380D01*
X128252380Y-107504761D01*
X128204761Y-107457142D01*
X129204761Y-106552380D02*
X129204761Y-107361904D01*
X129252380Y-107457142D01*
X129300000Y-107504761D01*
X129395238Y-107552380D01*
X129585714Y-107552380D01*
X129680952Y-107504761D01*
X129728571Y-107457142D01*
X129776190Y-107361904D01*
X129776190Y-106552380D01*
%TO.C,SW_45_2*%
X144147619Y-107552380D02*
X143576190Y-107552380D01*
X143861904Y-107552380D02*
X143861904Y-106552380D01*
X143766666Y-106695238D01*
X143671428Y-106790476D01*
X143576190Y-106838095D01*
X144576190Y-107457142D02*
X144623809Y-107504761D01*
X144576190Y-107552380D01*
X144528571Y-107504761D01*
X144576190Y-107457142D01*
X144576190Y-107552380D01*
X145528571Y-106552380D02*
X145052380Y-106552380D01*
X145004761Y-107028571D01*
X145052380Y-106980952D01*
X145147619Y-106933333D01*
X145385714Y-106933333D01*
X145480952Y-106980952D01*
X145528571Y-107028571D01*
X145576190Y-107123809D01*
X145576190Y-107361904D01*
X145528571Y-107457142D01*
X145480952Y-107504761D01*
X145385714Y-107552380D01*
X145147619Y-107552380D01*
X145052380Y-107504761D01*
X145004761Y-107457142D01*
X146004761Y-106552380D02*
X146004761Y-107361904D01*
X146052380Y-107457142D01*
X146100000Y-107504761D01*
X146195238Y-107552380D01*
X146385714Y-107552380D01*
X146480952Y-107504761D01*
X146528571Y-107457142D01*
X146576190Y-107361904D01*
X146576190Y-106552380D01*
%TO.C,SW_70_2*%
X219747619Y-107552380D02*
X219176190Y-107552380D01*
X219461904Y-107552380D02*
X219461904Y-106552380D01*
X219366666Y-106695238D01*
X219271428Y-106790476D01*
X219176190Y-106838095D01*
X220176190Y-107457142D02*
X220223809Y-107504761D01*
X220176190Y-107552380D01*
X220128571Y-107504761D01*
X220176190Y-107457142D01*
X220176190Y-107552380D01*
X221128571Y-106552380D02*
X220652380Y-106552380D01*
X220604761Y-107028571D01*
X220652380Y-106980952D01*
X220747619Y-106933333D01*
X220985714Y-106933333D01*
X221080952Y-106980952D01*
X221128571Y-107028571D01*
X221176190Y-107123809D01*
X221176190Y-107361904D01*
X221128571Y-107457142D01*
X221080952Y-107504761D01*
X220985714Y-107552380D01*
X220747619Y-107552380D01*
X220652380Y-107504761D01*
X220604761Y-107457142D01*
X221604761Y-106552380D02*
X221604761Y-107361904D01*
X221652380Y-107457142D01*
X221700000Y-107504761D01*
X221795238Y-107552380D01*
X221985714Y-107552380D01*
X222080952Y-107504761D01*
X222128571Y-107457142D01*
X222176190Y-107361904D01*
X222176190Y-106552380D01*
%TO.C,SW_75_2*%
X211347619Y-100552380D02*
X210776190Y-100552380D01*
X211061904Y-100552380D02*
X211061904Y-99552380D01*
X210966666Y-99695238D01*
X210871428Y-99790476D01*
X210776190Y-99838095D01*
X211776190Y-100457142D02*
X211823809Y-100504761D01*
X211776190Y-100552380D01*
X211728571Y-100504761D01*
X211776190Y-100457142D01*
X211776190Y-100552380D01*
X212728571Y-99552380D02*
X212252380Y-99552380D01*
X212204761Y-100028571D01*
X212252380Y-99980952D01*
X212347619Y-99933333D01*
X212585714Y-99933333D01*
X212680952Y-99980952D01*
X212728571Y-100028571D01*
X212776190Y-100123809D01*
X212776190Y-100361904D01*
X212728571Y-100457142D01*
X212680952Y-100504761D01*
X212585714Y-100552380D01*
X212347619Y-100552380D01*
X212252380Y-100504761D01*
X212204761Y-100457142D01*
X213204761Y-99552380D02*
X213204761Y-100361904D01*
X213252380Y-100457142D01*
X213300000Y-100504761D01*
X213395238Y-100552380D01*
X213585714Y-100552380D01*
X213680952Y-100504761D01*
X213728571Y-100457142D01*
X213776190Y-100361904D01*
X213776190Y-99552380D01*
%TO.C,SW_7_2*%
X286947619Y-58352380D02*
X286376190Y-58352380D01*
X286661904Y-58352380D02*
X286661904Y-57352380D01*
X286566666Y-57495238D01*
X286471428Y-57590476D01*
X286376190Y-57638095D01*
X287376190Y-58257142D02*
X287423809Y-58304761D01*
X287376190Y-58352380D01*
X287328571Y-58304761D01*
X287376190Y-58257142D01*
X287376190Y-58352380D01*
X288328571Y-57352380D02*
X287852380Y-57352380D01*
X287804761Y-57828571D01*
X287852380Y-57780952D01*
X287947619Y-57733333D01*
X288185714Y-57733333D01*
X288280952Y-57780952D01*
X288328571Y-57828571D01*
X288376190Y-57923809D01*
X288376190Y-58161904D01*
X288328571Y-58257142D01*
X288280952Y-58304761D01*
X288185714Y-58352380D01*
X287947619Y-58352380D01*
X287852380Y-58304761D01*
X287804761Y-58257142D01*
X288804761Y-57352380D02*
X288804761Y-58161904D01*
X288852380Y-58257142D01*
X288900000Y-58304761D01*
X288995238Y-58352380D01*
X289185714Y-58352380D01*
X289280952Y-58304761D01*
X289328571Y-58257142D01*
X289376190Y-58161904D01*
X289376190Y-57352380D01*
%TO.C,SW_85_3*%
X236547619Y-107552380D02*
X235976190Y-107552380D01*
X236261904Y-107552380D02*
X236261904Y-106552380D01*
X236166666Y-106695238D01*
X236071428Y-106790476D01*
X235976190Y-106838095D01*
X236976190Y-107457142D02*
X237023809Y-107504761D01*
X236976190Y-107552380D01*
X236928571Y-107504761D01*
X236976190Y-107457142D01*
X236976190Y-107552380D01*
X237928571Y-106552380D02*
X237452380Y-106552380D01*
X237404761Y-107028571D01*
X237452380Y-106980952D01*
X237547619Y-106933333D01*
X237785714Y-106933333D01*
X237880952Y-106980952D01*
X237928571Y-107028571D01*
X237976190Y-107123809D01*
X237976190Y-107361904D01*
X237928571Y-107457142D01*
X237880952Y-107504761D01*
X237785714Y-107552380D01*
X237547619Y-107552380D01*
X237452380Y-107504761D01*
X237404761Y-107457142D01*
X238404761Y-106552380D02*
X238404761Y-107361904D01*
X238452380Y-107457142D01*
X238500000Y-107504761D01*
X238595238Y-107552380D01*
X238785714Y-107552380D01*
X238880952Y-107504761D01*
X238928571Y-107457142D01*
X238976190Y-107361904D01*
X238976190Y-106552380D01*
%TO.C,SW_8_2*%
X286947619Y-74752380D02*
X286376190Y-74752380D01*
X286661904Y-74752380D02*
X286661904Y-73752380D01*
X286566666Y-73895238D01*
X286471428Y-73990476D01*
X286376190Y-74038095D01*
X287376190Y-74657142D02*
X287423809Y-74704761D01*
X287376190Y-74752380D01*
X287328571Y-74704761D01*
X287376190Y-74657142D01*
X287376190Y-74752380D01*
X288328571Y-73752380D02*
X287852380Y-73752380D01*
X287804761Y-74228571D01*
X287852380Y-74180952D01*
X287947619Y-74133333D01*
X288185714Y-74133333D01*
X288280952Y-74180952D01*
X288328571Y-74228571D01*
X288376190Y-74323809D01*
X288376190Y-74561904D01*
X288328571Y-74657142D01*
X288280952Y-74704761D01*
X288185714Y-74752380D01*
X287947619Y-74752380D01*
X287852380Y-74704761D01*
X287804761Y-74657142D01*
X288804761Y-73752380D02*
X288804761Y-74561904D01*
X288852380Y-74657142D01*
X288900000Y-74704761D01*
X288995238Y-74752380D01*
X289185714Y-74752380D01*
X289280952Y-74704761D01*
X289328571Y-74657142D01*
X289376190Y-74561904D01*
X289376190Y-73752380D01*
%TO.C,SW_97_2*%
X270147619Y-58352380D02*
X269576190Y-58352380D01*
X269861904Y-58352380D02*
X269861904Y-57352380D01*
X269766666Y-57495238D01*
X269671428Y-57590476D01*
X269576190Y-57638095D01*
X270576190Y-58257142D02*
X270623809Y-58304761D01*
X270576190Y-58352380D01*
X270528571Y-58304761D01*
X270576190Y-58257142D01*
X270576190Y-58352380D01*
X271528571Y-57352380D02*
X271052380Y-57352380D01*
X271004761Y-57828571D01*
X271052380Y-57780952D01*
X271147619Y-57733333D01*
X271385714Y-57733333D01*
X271480952Y-57780952D01*
X271528571Y-57828571D01*
X271576190Y-57923809D01*
X271576190Y-58161904D01*
X271528571Y-58257142D01*
X271480952Y-58304761D01*
X271385714Y-58352380D01*
X271147619Y-58352380D01*
X271052380Y-58304761D01*
X271004761Y-58257142D01*
X272004761Y-57352380D02*
X272004761Y-58161904D01*
X272052380Y-58257142D01*
X272100000Y-58304761D01*
X272195238Y-58352380D01*
X272385714Y-58352380D01*
X272480952Y-58304761D01*
X272528571Y-58257142D01*
X272576190Y-58161904D01*
X272576190Y-57352380D01*
%TO.C,SW_98_2*%
X270147619Y-74752380D02*
X269576190Y-74752380D01*
X269861904Y-74752380D02*
X269861904Y-73752380D01*
X269766666Y-73895238D01*
X269671428Y-73990476D01*
X269576190Y-74038095D01*
X270576190Y-74657142D02*
X270623809Y-74704761D01*
X270576190Y-74752380D01*
X270528571Y-74704761D01*
X270576190Y-74657142D01*
X270576190Y-74752380D01*
X271528571Y-73752380D02*
X271052380Y-73752380D01*
X271004761Y-74228571D01*
X271052380Y-74180952D01*
X271147619Y-74133333D01*
X271385714Y-74133333D01*
X271480952Y-74180952D01*
X271528571Y-74228571D01*
X271576190Y-74323809D01*
X271576190Y-74561904D01*
X271528571Y-74657142D01*
X271480952Y-74704761D01*
X271385714Y-74752380D01*
X271147619Y-74752380D01*
X271052380Y-74704761D01*
X271004761Y-74657142D01*
X272004761Y-73752380D02*
X272004761Y-74561904D01*
X272052380Y-74657142D01*
X272100000Y-74704761D01*
X272195238Y-74752380D01*
X272385714Y-74752380D01*
X272480952Y-74704761D01*
X272528571Y-74657142D01*
X272576190Y-74561904D01*
X272576190Y-73752380D01*
%TO.C,SW_85_4*%
X233971428Y-108552380D02*
X233400000Y-108552380D01*
X233685714Y-108552380D02*
X233685714Y-107552380D01*
X233590476Y-107695238D01*
X233495238Y-107790476D01*
X233400000Y-107838095D01*
X234400000Y-108457142D02*
X234447619Y-108504761D01*
X234400000Y-108552380D01*
X234352380Y-108504761D01*
X234400000Y-108457142D01*
X234400000Y-108552380D01*
X234828571Y-107647619D02*
X234876190Y-107600000D01*
X234971428Y-107552380D01*
X235209523Y-107552380D01*
X235304761Y-107600000D01*
X235352380Y-107647619D01*
X235400000Y-107742857D01*
X235400000Y-107838095D01*
X235352380Y-107980952D01*
X234780952Y-108552380D01*
X235400000Y-108552380D01*
X236304761Y-107552380D02*
X235828571Y-107552380D01*
X235780952Y-108028571D01*
X235828571Y-107980952D01*
X235923809Y-107933333D01*
X236161904Y-107933333D01*
X236257142Y-107980952D01*
X236304761Y-108028571D01*
X236352380Y-108123809D01*
X236352380Y-108361904D01*
X236304761Y-108457142D01*
X236257142Y-108504761D01*
X236161904Y-108552380D01*
X235923809Y-108552380D01*
X235828571Y-108504761D01*
X235780952Y-108457142D01*
X236780952Y-107552380D02*
X236780952Y-108361904D01*
X236828571Y-108457142D01*
X236876190Y-108504761D01*
X236971428Y-108552380D01*
X237161904Y-108552380D01*
X237257142Y-108504761D01*
X237304761Y-108457142D01*
X237352380Y-108361904D01*
X237352380Y-107552380D01*
%TO.C,SW_85_2*%
X238171428Y-108552380D02*
X237600000Y-108552380D01*
X237885714Y-108552380D02*
X237885714Y-107552380D01*
X237790476Y-107695238D01*
X237695238Y-107790476D01*
X237600000Y-107838095D01*
X238600000Y-108457142D02*
X238647619Y-108504761D01*
X238600000Y-108552380D01*
X238552380Y-108504761D01*
X238600000Y-108457142D01*
X238600000Y-108552380D01*
X239028571Y-107647619D02*
X239076190Y-107600000D01*
X239171428Y-107552380D01*
X239409523Y-107552380D01*
X239504761Y-107600000D01*
X239552380Y-107647619D01*
X239600000Y-107742857D01*
X239600000Y-107838095D01*
X239552380Y-107980952D01*
X238980952Y-108552380D01*
X239600000Y-108552380D01*
X240504761Y-107552380D02*
X240028571Y-107552380D01*
X239980952Y-108028571D01*
X240028571Y-107980952D01*
X240123809Y-107933333D01*
X240361904Y-107933333D01*
X240457142Y-107980952D01*
X240504761Y-108028571D01*
X240552380Y-108123809D01*
X240552380Y-108361904D01*
X240504761Y-108457142D01*
X240457142Y-108504761D01*
X240361904Y-108552380D01*
X240123809Y-108552380D01*
X240028571Y-108504761D01*
X239980952Y-108457142D01*
X240980952Y-107552380D02*
X240980952Y-108361904D01*
X241028571Y-108457142D01*
X241076190Y-108504761D01*
X241171428Y-108552380D01*
X241361904Y-108552380D01*
X241457142Y-108504761D01*
X241504761Y-108457142D01*
X241552380Y-108361904D01*
X241552380Y-107552380D01*
%TO.C,SW_80_2*%
X254971428Y-108552380D02*
X254400000Y-108552380D01*
X254685714Y-108552380D02*
X254685714Y-107552380D01*
X254590476Y-107695238D01*
X254495238Y-107790476D01*
X254400000Y-107838095D01*
X255400000Y-108457142D02*
X255447619Y-108504761D01*
X255400000Y-108552380D01*
X255352380Y-108504761D01*
X255400000Y-108457142D01*
X255400000Y-108552380D01*
X255828571Y-107647619D02*
X255876190Y-107600000D01*
X255971428Y-107552380D01*
X256209523Y-107552380D01*
X256304761Y-107600000D01*
X256352380Y-107647619D01*
X256400000Y-107742857D01*
X256400000Y-107838095D01*
X256352380Y-107980952D01*
X255780952Y-108552380D01*
X256400000Y-108552380D01*
X257304761Y-107552380D02*
X256828571Y-107552380D01*
X256780952Y-108028571D01*
X256828571Y-107980952D01*
X256923809Y-107933333D01*
X257161904Y-107933333D01*
X257257142Y-107980952D01*
X257304761Y-108028571D01*
X257352380Y-108123809D01*
X257352380Y-108361904D01*
X257304761Y-108457142D01*
X257257142Y-108504761D01*
X257161904Y-108552380D01*
X256923809Y-108552380D01*
X256828571Y-108504761D01*
X256780952Y-108457142D01*
X257780952Y-107552380D02*
X257780952Y-108361904D01*
X257828571Y-108457142D01*
X257876190Y-108504761D01*
X257971428Y-108552380D01*
X258161904Y-108552380D01*
X258257142Y-108504761D01*
X258304761Y-108457142D01*
X258352380Y-108361904D01*
X258352380Y-107552380D01*
%TO.C,SW_70_3*%
X217171428Y-108552380D02*
X216600000Y-108552380D01*
X216885714Y-108552380D02*
X216885714Y-107552380D01*
X216790476Y-107695238D01*
X216695238Y-107790476D01*
X216600000Y-107838095D01*
X217600000Y-108457142D02*
X217647619Y-108504761D01*
X217600000Y-108552380D01*
X217552380Y-108504761D01*
X217600000Y-108457142D01*
X217600000Y-108552380D01*
X218028571Y-107647619D02*
X218076190Y-107600000D01*
X218171428Y-107552380D01*
X218409523Y-107552380D01*
X218504761Y-107600000D01*
X218552380Y-107647619D01*
X218600000Y-107742857D01*
X218600000Y-107838095D01*
X218552380Y-107980952D01*
X217980952Y-108552380D01*
X218600000Y-108552380D01*
X219504761Y-107552380D02*
X219028571Y-107552380D01*
X218980952Y-108028571D01*
X219028571Y-107980952D01*
X219123809Y-107933333D01*
X219361904Y-107933333D01*
X219457142Y-107980952D01*
X219504761Y-108028571D01*
X219552380Y-108123809D01*
X219552380Y-108361904D01*
X219504761Y-108457142D01*
X219457142Y-108504761D01*
X219361904Y-108552380D01*
X219123809Y-108552380D01*
X219028571Y-108504761D01*
X218980952Y-108457142D01*
X219980952Y-107552380D02*
X219980952Y-108361904D01*
X220028571Y-108457142D01*
X220076190Y-108504761D01*
X220171428Y-108552380D01*
X220361904Y-108552380D01*
X220457142Y-108504761D01*
X220504761Y-108457142D01*
X220552380Y-108361904D01*
X220552380Y-107552380D01*
%TO.C,SW_45_3*%
X145771428Y-108552380D02*
X145200000Y-108552380D01*
X145485714Y-108552380D02*
X145485714Y-107552380D01*
X145390476Y-107695238D01*
X145295238Y-107790476D01*
X145200000Y-107838095D01*
X146200000Y-108457142D02*
X146247619Y-108504761D01*
X146200000Y-108552380D01*
X146152380Y-108504761D01*
X146200000Y-108457142D01*
X146200000Y-108552380D01*
X146628571Y-107647619D02*
X146676190Y-107600000D01*
X146771428Y-107552380D01*
X147009523Y-107552380D01*
X147104761Y-107600000D01*
X147152380Y-107647619D01*
X147200000Y-107742857D01*
X147200000Y-107838095D01*
X147152380Y-107980952D01*
X146580952Y-108552380D01*
X147200000Y-108552380D01*
X148104761Y-107552380D02*
X147628571Y-107552380D01*
X147580952Y-108028571D01*
X147628571Y-107980952D01*
X147723809Y-107933333D01*
X147961904Y-107933333D01*
X148057142Y-107980952D01*
X148104761Y-108028571D01*
X148152380Y-108123809D01*
X148152380Y-108361904D01*
X148104761Y-108457142D01*
X148057142Y-108504761D01*
X147961904Y-108552380D01*
X147723809Y-108552380D01*
X147628571Y-108504761D01*
X147580952Y-108457142D01*
X148580952Y-107552380D02*
X148580952Y-108361904D01*
X148628571Y-108457142D01*
X148676190Y-108504761D01*
X148771428Y-108552380D01*
X148961904Y-108552380D01*
X149057142Y-108504761D01*
X149104761Y-108457142D01*
X149152380Y-108361904D01*
X149152380Y-107552380D01*
%TO.C,SW_40_4*%
X124771428Y-108552380D02*
X124200000Y-108552380D01*
X124485714Y-108552380D02*
X124485714Y-107552380D01*
X124390476Y-107695238D01*
X124295238Y-107790476D01*
X124200000Y-107838095D01*
X125200000Y-108457142D02*
X125247619Y-108504761D01*
X125200000Y-108552380D01*
X125152380Y-108504761D01*
X125200000Y-108457142D01*
X125200000Y-108552380D01*
X125628571Y-107647619D02*
X125676190Y-107600000D01*
X125771428Y-107552380D01*
X126009523Y-107552380D01*
X126104761Y-107600000D01*
X126152380Y-107647619D01*
X126200000Y-107742857D01*
X126200000Y-107838095D01*
X126152380Y-107980952D01*
X125580952Y-108552380D01*
X126200000Y-108552380D01*
X127104761Y-107552380D02*
X126628571Y-107552380D01*
X126580952Y-108028571D01*
X126628571Y-107980952D01*
X126723809Y-107933333D01*
X126961904Y-107933333D01*
X127057142Y-107980952D01*
X127104761Y-108028571D01*
X127152380Y-108123809D01*
X127152380Y-108361904D01*
X127104761Y-108457142D01*
X127057142Y-108504761D01*
X126961904Y-108552380D01*
X126723809Y-108552380D01*
X126628571Y-108504761D01*
X126580952Y-108457142D01*
X127580952Y-107552380D02*
X127580952Y-108361904D01*
X127628571Y-108457142D01*
X127676190Y-108504761D01*
X127771428Y-108552380D01*
X127961904Y-108552380D01*
X128057142Y-108504761D01*
X128104761Y-108457142D01*
X128152380Y-108361904D01*
X128152380Y-107552380D01*
%TO.C,SW_40_3*%
X128971428Y-108552380D02*
X128400000Y-108552380D01*
X128685714Y-108552380D02*
X128685714Y-107552380D01*
X128590476Y-107695238D01*
X128495238Y-107790476D01*
X128400000Y-107838095D01*
X129400000Y-108457142D02*
X129447619Y-108504761D01*
X129400000Y-108552380D01*
X129352380Y-108504761D01*
X129400000Y-108457142D01*
X129400000Y-108552380D01*
X129828571Y-107647619D02*
X129876190Y-107600000D01*
X129971428Y-107552380D01*
X130209523Y-107552380D01*
X130304761Y-107600000D01*
X130352380Y-107647619D01*
X130400000Y-107742857D01*
X130400000Y-107838095D01*
X130352380Y-107980952D01*
X129780952Y-108552380D01*
X130400000Y-108552380D01*
X131304761Y-107552380D02*
X130828571Y-107552380D01*
X130780952Y-108028571D01*
X130828571Y-107980952D01*
X130923809Y-107933333D01*
X131161904Y-107933333D01*
X131257142Y-107980952D01*
X131304761Y-108028571D01*
X131352380Y-108123809D01*
X131352380Y-108361904D01*
X131304761Y-108457142D01*
X131257142Y-108504761D01*
X131161904Y-108552380D01*
X130923809Y-108552380D01*
X130828571Y-108504761D01*
X130780952Y-108457142D01*
X131780952Y-107552380D02*
X131780952Y-108361904D01*
X131828571Y-108457142D01*
X131876190Y-108504761D01*
X131971428Y-108552380D01*
X132161904Y-108552380D01*
X132257142Y-108504761D01*
X132304761Y-108457142D01*
X132352380Y-108361904D01*
X132352380Y-107552380D01*
%TO.C,SW_35_2*%
X107971428Y-108552380D02*
X107400000Y-108552380D01*
X107685714Y-108552380D02*
X107685714Y-107552380D01*
X107590476Y-107695238D01*
X107495238Y-107790476D01*
X107400000Y-107838095D01*
X108400000Y-108457142D02*
X108447619Y-108504761D01*
X108400000Y-108552380D01*
X108352380Y-108504761D01*
X108400000Y-108457142D01*
X108400000Y-108552380D01*
X108828571Y-107647619D02*
X108876190Y-107600000D01*
X108971428Y-107552380D01*
X109209523Y-107552380D01*
X109304761Y-107600000D01*
X109352380Y-107647619D01*
X109400000Y-107742857D01*
X109400000Y-107838095D01*
X109352380Y-107980952D01*
X108780952Y-108552380D01*
X109400000Y-108552380D01*
X110304761Y-107552380D02*
X109828571Y-107552380D01*
X109780952Y-108028571D01*
X109828571Y-107980952D01*
X109923809Y-107933333D01*
X110161904Y-107933333D01*
X110257142Y-107980952D01*
X110304761Y-108028571D01*
X110352380Y-108123809D01*
X110352380Y-108361904D01*
X110304761Y-108457142D01*
X110257142Y-108504761D01*
X110161904Y-108552380D01*
X109923809Y-108552380D01*
X109828571Y-108504761D01*
X109780952Y-108457142D01*
X110780952Y-107552380D02*
X110780952Y-108361904D01*
X110828571Y-108457142D01*
X110876190Y-108504761D01*
X110971428Y-108552380D01*
X111161904Y-108552380D01*
X111257142Y-108504761D01*
X111304761Y-108457142D01*
X111352380Y-108361904D01*
X111352380Y-107552380D01*
%TO.C,SW_25_4*%
X78571428Y-108552380D02*
X78000000Y-108552380D01*
X78285714Y-108552380D02*
X78285714Y-107552380D01*
X78190476Y-107695238D01*
X78095238Y-107790476D01*
X78000000Y-107838095D01*
X79000000Y-108457142D02*
X79047619Y-108504761D01*
X79000000Y-108552380D01*
X78952380Y-108504761D01*
X79000000Y-108457142D01*
X79000000Y-108552380D01*
X79428571Y-107647619D02*
X79476190Y-107600000D01*
X79571428Y-107552380D01*
X79809523Y-107552380D01*
X79904761Y-107600000D01*
X79952380Y-107647619D01*
X80000000Y-107742857D01*
X80000000Y-107838095D01*
X79952380Y-107980952D01*
X79380952Y-108552380D01*
X80000000Y-108552380D01*
X80904761Y-107552380D02*
X80428571Y-107552380D01*
X80380952Y-108028571D01*
X80428571Y-107980952D01*
X80523809Y-107933333D01*
X80761904Y-107933333D01*
X80857142Y-107980952D01*
X80904761Y-108028571D01*
X80952380Y-108123809D01*
X80952380Y-108361904D01*
X80904761Y-108457142D01*
X80857142Y-108504761D01*
X80761904Y-108552380D01*
X80523809Y-108552380D01*
X80428571Y-108504761D01*
X80380952Y-108457142D01*
X81380952Y-107552380D02*
X81380952Y-108361904D01*
X81428571Y-108457142D01*
X81476190Y-108504761D01*
X81571428Y-108552380D01*
X81761904Y-108552380D01*
X81857142Y-108504761D01*
X81904761Y-108457142D01*
X81952380Y-108361904D01*
X81952380Y-107552380D01*
%TO.C,SW_20_2*%
X57571428Y-108552380D02*
X57000000Y-108552380D01*
X57285714Y-108552380D02*
X57285714Y-107552380D01*
X57190476Y-107695238D01*
X57095238Y-107790476D01*
X57000000Y-107838095D01*
X58000000Y-108457142D02*
X58047619Y-108504761D01*
X58000000Y-108552380D01*
X57952380Y-108504761D01*
X58000000Y-108457142D01*
X58000000Y-108552380D01*
X58428571Y-107647619D02*
X58476190Y-107600000D01*
X58571428Y-107552380D01*
X58809523Y-107552380D01*
X58904761Y-107600000D01*
X58952380Y-107647619D01*
X59000000Y-107742857D01*
X59000000Y-107838095D01*
X58952380Y-107980952D01*
X58380952Y-108552380D01*
X59000000Y-108552380D01*
X59904761Y-107552380D02*
X59428571Y-107552380D01*
X59380952Y-108028571D01*
X59428571Y-107980952D01*
X59523809Y-107933333D01*
X59761904Y-107933333D01*
X59857142Y-107980952D01*
X59904761Y-108028571D01*
X59952380Y-108123809D01*
X59952380Y-108361904D01*
X59904761Y-108457142D01*
X59857142Y-108504761D01*
X59761904Y-108552380D01*
X59523809Y-108552380D01*
X59428571Y-108504761D01*
X59380952Y-108457142D01*
X60380952Y-107552380D02*
X60380952Y-108361904D01*
X60428571Y-108457142D01*
X60476190Y-108504761D01*
X60571428Y-108552380D01*
X60761904Y-108552380D01*
X60857142Y-108504761D01*
X60904761Y-108457142D01*
X60952380Y-108361904D01*
X60952380Y-107552380D01*
%TO.C,SW_RE1*%
X49533333Y-16104761D02*
X49676190Y-16152380D01*
X49914285Y-16152380D01*
X50009523Y-16104761D01*
X50057142Y-16057142D01*
X50104761Y-15961904D01*
X50104761Y-15866666D01*
X50057142Y-15771428D01*
X50009523Y-15723809D01*
X49914285Y-15676190D01*
X49723809Y-15628571D01*
X49628571Y-15580952D01*
X49580952Y-15533333D01*
X49533333Y-15438095D01*
X49533333Y-15342857D01*
X49580952Y-15247619D01*
X49628571Y-15200000D01*
X49723809Y-15152380D01*
X49961904Y-15152380D01*
X50104761Y-15200000D01*
X50438095Y-15152380D02*
X50676190Y-16152380D01*
X50866666Y-15438095D01*
X51057142Y-16152380D01*
X51295238Y-15152380D01*
X51438095Y-16247619D02*
X52200000Y-16247619D01*
X53009523Y-16152380D02*
X52676190Y-15676190D01*
X52438095Y-16152380D02*
X52438095Y-15152380D01*
X52819047Y-15152380D01*
X52914285Y-15200000D01*
X52961904Y-15247619D01*
X53009523Y-15342857D01*
X53009523Y-15485714D01*
X52961904Y-15580952D01*
X52914285Y-15628571D01*
X52819047Y-15676190D01*
X52438095Y-15676190D01*
X53438095Y-15628571D02*
X53771428Y-15628571D01*
X53914285Y-16152380D02*
X53438095Y-16152380D01*
X53438095Y-15152380D01*
X53914285Y-15152380D01*
X54866666Y-16152380D02*
X54295238Y-16152380D01*
X54580952Y-16152380D02*
X54580952Y-15152380D01*
X54485714Y-15295238D01*
X54390476Y-15390476D01*
X54295238Y-15438095D01*
%TO.C,LS1*%
X19307142Y-29152380D02*
X18830952Y-29152380D01*
X18830952Y-28152380D01*
X19592857Y-29104761D02*
X19735714Y-29152380D01*
X19973809Y-29152380D01*
X20069047Y-29104761D01*
X20116666Y-29057142D01*
X20164285Y-28961904D01*
X20164285Y-28866666D01*
X20116666Y-28771428D01*
X20069047Y-28723809D01*
X19973809Y-28676190D01*
X19783333Y-28628571D01*
X19688095Y-28580952D01*
X19640476Y-28533333D01*
X19592857Y-28438095D01*
X19592857Y-28342857D01*
X19640476Y-28247619D01*
X19688095Y-28200000D01*
X19783333Y-28152380D01*
X20021428Y-28152380D01*
X20164285Y-28200000D01*
X21116666Y-29152380D02*
X20545238Y-29152380D01*
X20830952Y-29152380D02*
X20830952Y-28152380D01*
X20735714Y-28295238D01*
X20640476Y-28390476D01*
X20545238Y-28438095D01*
%TO.C,OL1*%
X144238095Y-21938095D02*
X144238095Y-22090476D01*
X144200000Y-22166666D01*
X144123809Y-22242857D01*
X143971428Y-22280952D01*
X143704761Y-22280952D01*
X143552380Y-22242857D01*
X143476190Y-22166666D01*
X143438095Y-22090476D01*
X143438095Y-21938095D01*
X143476190Y-21861904D01*
X143552380Y-21785714D01*
X143704761Y-21747619D01*
X143971428Y-21747619D01*
X144123809Y-21785714D01*
X144200000Y-21861904D01*
X144238095Y-21938095D01*
X143438095Y-23004761D02*
X143438095Y-22623809D01*
X144238095Y-22623809D01*
X143857142Y-23271428D02*
X143857142Y-23538095D01*
X143438095Y-23652380D02*
X143438095Y-23271428D01*
X144238095Y-23271428D01*
X144238095Y-23652380D01*
X143438095Y-23995238D02*
X144238095Y-23995238D01*
X144238095Y-24185714D01*
X144200000Y-24300000D01*
X144123809Y-24376190D01*
X144047619Y-24414285D01*
X143895238Y-24452380D01*
X143780952Y-24452380D01*
X143628571Y-24414285D01*
X143552380Y-24376190D01*
X143476190Y-24300000D01*
X143438095Y-24185714D01*
X143438095Y-23995238D01*
%TO.C,SW_RE2*%
X125133333Y-16104761D02*
X125276190Y-16152380D01*
X125514285Y-16152380D01*
X125609523Y-16104761D01*
X125657142Y-16057142D01*
X125704761Y-15961904D01*
X125704761Y-15866666D01*
X125657142Y-15771428D01*
X125609523Y-15723809D01*
X125514285Y-15676190D01*
X125323809Y-15628571D01*
X125228571Y-15580952D01*
X125180952Y-15533333D01*
X125133333Y-15438095D01*
X125133333Y-15342857D01*
X125180952Y-15247619D01*
X125228571Y-15200000D01*
X125323809Y-15152380D01*
X125561904Y-15152380D01*
X125704761Y-15200000D01*
X126038095Y-15152380D02*
X126276190Y-16152380D01*
X126466666Y-15438095D01*
X126657142Y-16152380D01*
X126895238Y-15152380D01*
X127038095Y-16247619D02*
X127800000Y-16247619D01*
X128609523Y-16152380D02*
X128276190Y-15676190D01*
X128038095Y-16152380D02*
X128038095Y-15152380D01*
X128419047Y-15152380D01*
X128514285Y-15200000D01*
X128561904Y-15247619D01*
X128609523Y-15342857D01*
X128609523Y-15485714D01*
X128561904Y-15580952D01*
X128514285Y-15628571D01*
X128419047Y-15676190D01*
X128038095Y-15676190D01*
X129038095Y-15628571D02*
X129371428Y-15628571D01*
X129514285Y-16152380D02*
X129038095Y-16152380D01*
X129038095Y-15152380D01*
X129514285Y-15152380D01*
X129895238Y-15247619D02*
X129942857Y-15200000D01*
X130038095Y-15152380D01*
X130276190Y-15152380D01*
X130371428Y-15200000D01*
X130419047Y-15247619D01*
X130466666Y-15342857D01*
X130466666Y-15438095D01*
X130419047Y-15580952D01*
X129847619Y-16152380D01*
X130466666Y-16152380D01*
%TO.C,SW_RE3*%
X158733333Y-16104761D02*
X158876190Y-16152380D01*
X159114285Y-16152380D01*
X159209523Y-16104761D01*
X159257142Y-16057142D01*
X159304761Y-15961904D01*
X159304761Y-15866666D01*
X159257142Y-15771428D01*
X159209523Y-15723809D01*
X159114285Y-15676190D01*
X158923809Y-15628571D01*
X158828571Y-15580952D01*
X158780952Y-15533333D01*
X158733333Y-15438095D01*
X158733333Y-15342857D01*
X158780952Y-15247619D01*
X158828571Y-15200000D01*
X158923809Y-15152380D01*
X159161904Y-15152380D01*
X159304761Y-15200000D01*
X159638095Y-15152380D02*
X159876190Y-16152380D01*
X160066666Y-15438095D01*
X160257142Y-16152380D01*
X160495238Y-15152380D01*
X160638095Y-16247619D02*
X161400000Y-16247619D01*
X162209523Y-16152380D02*
X161876190Y-15676190D01*
X161638095Y-16152380D02*
X161638095Y-15152380D01*
X162019047Y-15152380D01*
X162114285Y-15200000D01*
X162161904Y-15247619D01*
X162209523Y-15342857D01*
X162209523Y-15485714D01*
X162161904Y-15580952D01*
X162114285Y-15628571D01*
X162019047Y-15676190D01*
X161638095Y-15676190D01*
X162638095Y-15628571D02*
X162971428Y-15628571D01*
X163114285Y-16152380D02*
X162638095Y-16152380D01*
X162638095Y-15152380D01*
X163114285Y-15152380D01*
X163447619Y-15152380D02*
X164066666Y-15152380D01*
X163733333Y-15533333D01*
X163876190Y-15533333D01*
X163971428Y-15580952D01*
X164019047Y-15628571D01*
X164066666Y-15723809D01*
X164066666Y-15961904D01*
X164019047Y-16057142D01*
X163971428Y-16104761D01*
X163876190Y-16152380D01*
X163590476Y-16152380D01*
X163495238Y-16104761D01*
X163447619Y-16057142D01*
%TO.C,SW_RE4*%
X192333333Y-16104761D02*
X192476190Y-16152380D01*
X192714285Y-16152380D01*
X192809523Y-16104761D01*
X192857142Y-16057142D01*
X192904761Y-15961904D01*
X192904761Y-15866666D01*
X192857142Y-15771428D01*
X192809523Y-15723809D01*
X192714285Y-15676190D01*
X192523809Y-15628571D01*
X192428571Y-15580952D01*
X192380952Y-15533333D01*
X192333333Y-15438095D01*
X192333333Y-15342857D01*
X192380952Y-15247619D01*
X192428571Y-15200000D01*
X192523809Y-15152380D01*
X192761904Y-15152380D01*
X192904761Y-15200000D01*
X193238095Y-15152380D02*
X193476190Y-16152380D01*
X193666666Y-15438095D01*
X193857142Y-16152380D01*
X194095238Y-15152380D01*
X194238095Y-16247619D02*
X195000000Y-16247619D01*
X195809523Y-16152380D02*
X195476190Y-15676190D01*
X195238095Y-16152380D02*
X195238095Y-15152380D01*
X195619047Y-15152380D01*
X195714285Y-15200000D01*
X195761904Y-15247619D01*
X195809523Y-15342857D01*
X195809523Y-15485714D01*
X195761904Y-15580952D01*
X195714285Y-15628571D01*
X195619047Y-15676190D01*
X195238095Y-15676190D01*
X196238095Y-15628571D02*
X196571428Y-15628571D01*
X196714285Y-16152380D02*
X196238095Y-16152380D01*
X196238095Y-15152380D01*
X196714285Y-15152380D01*
X197571428Y-15485714D02*
X197571428Y-16152380D01*
X197333333Y-15104761D02*
X197095238Y-15819047D01*
X197714285Y-15819047D01*
%TO.C,SW_RE5*%
X225933333Y-16104761D02*
X226076190Y-16152380D01*
X226314285Y-16152380D01*
X226409523Y-16104761D01*
X226457142Y-16057142D01*
X226504761Y-15961904D01*
X226504761Y-15866666D01*
X226457142Y-15771428D01*
X226409523Y-15723809D01*
X226314285Y-15676190D01*
X226123809Y-15628571D01*
X226028571Y-15580952D01*
X225980952Y-15533333D01*
X225933333Y-15438095D01*
X225933333Y-15342857D01*
X225980952Y-15247619D01*
X226028571Y-15200000D01*
X226123809Y-15152380D01*
X226361904Y-15152380D01*
X226504761Y-15200000D01*
X226838095Y-15152380D02*
X227076190Y-16152380D01*
X227266666Y-15438095D01*
X227457142Y-16152380D01*
X227695238Y-15152380D01*
X227838095Y-16247619D02*
X228600000Y-16247619D01*
X229409523Y-16152380D02*
X229076190Y-15676190D01*
X228838095Y-16152380D02*
X228838095Y-15152380D01*
X229219047Y-15152380D01*
X229314285Y-15200000D01*
X229361904Y-15247619D01*
X229409523Y-15342857D01*
X229409523Y-15485714D01*
X229361904Y-15580952D01*
X229314285Y-15628571D01*
X229219047Y-15676190D01*
X228838095Y-15676190D01*
X229838095Y-15628571D02*
X230171428Y-15628571D01*
X230314285Y-16152380D02*
X229838095Y-16152380D01*
X229838095Y-15152380D01*
X230314285Y-15152380D01*
X231219047Y-15152380D02*
X230742857Y-15152380D01*
X230695238Y-15628571D01*
X230742857Y-15580952D01*
X230838095Y-15533333D01*
X231076190Y-15533333D01*
X231171428Y-15580952D01*
X231219047Y-15628571D01*
X231266666Y-15723809D01*
X231266666Y-15961904D01*
X231219047Y-16057142D01*
X231171428Y-16104761D01*
X231076190Y-16152380D01*
X230838095Y-16152380D01*
X230742857Y-16104761D01*
X230695238Y-16057142D01*
%TO.C,SW_RE6*%
X259533333Y-16104761D02*
X259676190Y-16152380D01*
X259914285Y-16152380D01*
X260009523Y-16104761D01*
X260057142Y-16057142D01*
X260104761Y-15961904D01*
X260104761Y-15866666D01*
X260057142Y-15771428D01*
X260009523Y-15723809D01*
X259914285Y-15676190D01*
X259723809Y-15628571D01*
X259628571Y-15580952D01*
X259580952Y-15533333D01*
X259533333Y-15438095D01*
X259533333Y-15342857D01*
X259580952Y-15247619D01*
X259628571Y-15200000D01*
X259723809Y-15152380D01*
X259961904Y-15152380D01*
X260104761Y-15200000D01*
X260438095Y-15152380D02*
X260676190Y-16152380D01*
X260866666Y-15438095D01*
X261057142Y-16152380D01*
X261295238Y-15152380D01*
X261438095Y-16247619D02*
X262200000Y-16247619D01*
X263009523Y-16152380D02*
X262676190Y-15676190D01*
X262438095Y-16152380D02*
X262438095Y-15152380D01*
X262819047Y-15152380D01*
X262914285Y-15200000D01*
X262961904Y-15247619D01*
X263009523Y-15342857D01*
X263009523Y-15485714D01*
X262961904Y-15580952D01*
X262914285Y-15628571D01*
X262819047Y-15676190D01*
X262438095Y-15676190D01*
X263438095Y-15628571D02*
X263771428Y-15628571D01*
X263914285Y-16152380D02*
X263438095Y-16152380D01*
X263438095Y-15152380D01*
X263914285Y-15152380D01*
X264771428Y-15152380D02*
X264580952Y-15152380D01*
X264485714Y-15200000D01*
X264438095Y-15247619D01*
X264342857Y-15390476D01*
X264295238Y-15580952D01*
X264295238Y-15961904D01*
X264342857Y-16057142D01*
X264390476Y-16104761D01*
X264485714Y-16152380D01*
X264676190Y-16152380D01*
X264771428Y-16104761D01*
X264819047Y-16057142D01*
X264866666Y-15961904D01*
X264866666Y-15723809D01*
X264819047Y-15628571D01*
X264771428Y-15580952D01*
X264676190Y-15533333D01*
X264485714Y-15533333D01*
X264390476Y-15580952D01*
X264342857Y-15628571D01*
X264295238Y-15723809D01*
%TD*%
M02*
