%TF.GenerationSoftware,KiCad,Pcbnew,(5.1.8-0-10_14)*%
%TF.CreationDate,2020-12-29T07:16:28+09:00*%
%TF.ProjectId,Unison,556e6973-6f6e-42e6-9b69-6361645f7063,v01_1*%
%TF.SameCoordinates,Original*%
%TF.FileFunction,Paste,Bot*%
%TF.FilePolarity,Positive*%
%FSLAX46Y46*%
G04 Gerber Fmt 4.6, Leading zero omitted, Abs format (unit mm)*
G04 Created by KiCad (PCBNEW (5.1.8-0-10_14)) date 2020-12-29 07:16:28*
%MOMM*%
%LPD*%
G01*
G04 APERTURE LIST*
%ADD10R,1.500000X0.500000*%
%ADD11R,0.500000X1.500000*%
%ADD12R,1.800000X2.100000*%
%ADD13R,0.820000X1.800000*%
%ADD14C,0.100000*%
%ADD15R,0.820000X1.600000*%
%ADD16R,0.620000X0.400000*%
%ADD17R,0.900000X1.200000*%
%ADD18R,1.200000X0.900000*%
%ADD19R,1.400000X1.000000*%
%ADD20R,1.400000X1.200000*%
%ADD21R,1.800000X0.820000*%
%ADD22R,1.600000X0.820000*%
%ADD23R,0.400000X0.620000*%
%ADD24R,1.524000X1.524000*%
%ADD25R,1.800000X1.100000*%
G04 APERTURE END LIST*
D10*
%TO.C,U1*%
X42600000Y-99400000D03*
X42600000Y-98600000D03*
X42600000Y-97800000D03*
X42600000Y-97000000D03*
X42600000Y-96200000D03*
X42600000Y-95400000D03*
X42600000Y-94600000D03*
X42600000Y-93800000D03*
X42600000Y-93000000D03*
X42600000Y-92200000D03*
X42600000Y-91400000D03*
D11*
X44500000Y-89500000D03*
X45300000Y-89500000D03*
X46100000Y-89500000D03*
X46900000Y-89500000D03*
X47700000Y-89500000D03*
X48500000Y-89500000D03*
X49300000Y-89500000D03*
X50100000Y-89500000D03*
X50900000Y-89500000D03*
X51700000Y-89500000D03*
X52500000Y-89500000D03*
D10*
X54400000Y-91400000D03*
X54400000Y-92200000D03*
X54400000Y-93000000D03*
X54400000Y-93800000D03*
X54400000Y-94600000D03*
X54400000Y-95400000D03*
X54400000Y-96200000D03*
X54400000Y-97000000D03*
X54400000Y-97800000D03*
X54400000Y-98600000D03*
X54400000Y-99400000D03*
D11*
X52500000Y-101300000D03*
X51700000Y-101300000D03*
X50900000Y-101300000D03*
X50100000Y-101300000D03*
X49300000Y-101300000D03*
X48500000Y-101300000D03*
X47700000Y-101300000D03*
X46900000Y-101300000D03*
X46100000Y-101300000D03*
X45300000Y-101300000D03*
X44500000Y-101300000D03*
%TD*%
D12*
%TO.C,Y1*%
X48050000Y-80450000D03*
X48050000Y-83350000D03*
X50350000Y-83350000D03*
X50350000Y-80450000D03*
%TD*%
D13*
%TO.C,L13*%
X222050000Y-17950000D03*
X223550000Y-22950000D03*
X222050000Y-22950000D03*
D14*
G36*
X223760000Y-17050001D02*
G01*
X223959999Y-17250000D01*
X223760000Y-17449999D01*
X223560001Y-17250000D01*
X223760000Y-17050001D01*
G37*
D15*
X223550000Y-18050000D03*
D16*
X223450000Y-17250000D03*
%TD*%
D13*
%TO.C,L5*%
X82950000Y-20400000D03*
X84450000Y-25400000D03*
X82950000Y-25400000D03*
D14*
G36*
X84660000Y-19500001D02*
G01*
X84859999Y-19700000D01*
X84660000Y-19899999D01*
X84460001Y-19700000D01*
X84660000Y-19500001D01*
G37*
D15*
X84450000Y-20500000D03*
D16*
X84350000Y-19700000D03*
%TD*%
D17*
%TO.C,D94*%
X286350000Y-99100000D03*
X283050000Y-99100000D03*
%TD*%
%TO.C,C1*%
G36*
G01*
X37275000Y-94950000D02*
X36325000Y-94950000D01*
G75*
G02*
X36075000Y-94700000I0J250000D01*
G01*
X36075000Y-94025000D01*
G75*
G02*
X36325000Y-93775000I250000J0D01*
G01*
X37275000Y-93775000D01*
G75*
G02*
X37525000Y-94025000I0J-250000D01*
G01*
X37525000Y-94700000D01*
G75*
G02*
X37275000Y-94950000I-250000J0D01*
G01*
G37*
G36*
G01*
X37275000Y-97025000D02*
X36325000Y-97025000D01*
G75*
G02*
X36075000Y-96775000I0J250000D01*
G01*
X36075000Y-96100000D01*
G75*
G02*
X36325000Y-95850000I250000J0D01*
G01*
X37275000Y-95850000D01*
G75*
G02*
X37525000Y-96100000I0J-250000D01*
G01*
X37525000Y-96775000D01*
G75*
G02*
X37275000Y-97025000I-250000J0D01*
G01*
G37*
%TD*%
%TO.C,C2*%
G36*
G01*
X48900000Y-77425000D02*
X48900000Y-78375000D01*
G75*
G02*
X48650000Y-78625000I-250000J0D01*
G01*
X47975000Y-78625000D01*
G75*
G02*
X47725000Y-78375000I0J250000D01*
G01*
X47725000Y-77425000D01*
G75*
G02*
X47975000Y-77175000I250000J0D01*
G01*
X48650000Y-77175000D01*
G75*
G02*
X48900000Y-77425000I0J-250000D01*
G01*
G37*
G36*
G01*
X50975000Y-77425000D02*
X50975000Y-78375000D01*
G75*
G02*
X50725000Y-78625000I-250000J0D01*
G01*
X50050000Y-78625000D01*
G75*
G02*
X49800000Y-78375000I0J250000D01*
G01*
X49800000Y-77425000D01*
G75*
G02*
X50050000Y-77175000I250000J0D01*
G01*
X50725000Y-77175000D01*
G75*
G02*
X50975000Y-77425000I0J-250000D01*
G01*
G37*
%TD*%
%TO.C,C3*%
G36*
G01*
X45975000Y-81250000D02*
X45025000Y-81250000D01*
G75*
G02*
X44775000Y-81000000I0J250000D01*
G01*
X44775000Y-80325000D01*
G75*
G02*
X45025000Y-80075000I250000J0D01*
G01*
X45975000Y-80075000D01*
G75*
G02*
X46225000Y-80325000I0J-250000D01*
G01*
X46225000Y-81000000D01*
G75*
G02*
X45975000Y-81250000I-250000J0D01*
G01*
G37*
G36*
G01*
X45975000Y-83325000D02*
X45025000Y-83325000D01*
G75*
G02*
X44775000Y-83075000I0J250000D01*
G01*
X44775000Y-82400000D01*
G75*
G02*
X45025000Y-82150000I250000J0D01*
G01*
X45975000Y-82150000D01*
G75*
G02*
X46225000Y-82400000I0J-250000D01*
G01*
X46225000Y-83075000D01*
G75*
G02*
X45975000Y-83325000I-250000J0D01*
G01*
G37*
%TD*%
%TO.C,C4*%
G36*
G01*
X45050000Y-85325000D02*
X45050000Y-84375000D01*
G75*
G02*
X45300000Y-84125000I250000J0D01*
G01*
X45975000Y-84125000D01*
G75*
G02*
X46225000Y-84375000I0J-250000D01*
G01*
X46225000Y-85325000D01*
G75*
G02*
X45975000Y-85575000I-250000J0D01*
G01*
X45300000Y-85575000D01*
G75*
G02*
X45050000Y-85325000I0J250000D01*
G01*
G37*
G36*
G01*
X42975000Y-85325000D02*
X42975000Y-84375000D01*
G75*
G02*
X43225000Y-84125000I250000J0D01*
G01*
X43900000Y-84125000D01*
G75*
G02*
X44150000Y-84375000I0J-250000D01*
G01*
X44150000Y-85325000D01*
G75*
G02*
X43900000Y-85575000I-250000J0D01*
G01*
X43225000Y-85575000D01*
G75*
G02*
X42975000Y-85325000I0J250000D01*
G01*
G37*
%TD*%
%TO.C,C5*%
G36*
G01*
X59350000Y-90875000D02*
X59350000Y-89925000D01*
G75*
G02*
X59600000Y-89675000I250000J0D01*
G01*
X60275000Y-89675000D01*
G75*
G02*
X60525000Y-89925000I0J-250000D01*
G01*
X60525000Y-90875000D01*
G75*
G02*
X60275000Y-91125000I-250000J0D01*
G01*
X59600000Y-91125000D01*
G75*
G02*
X59350000Y-90875000I0J250000D01*
G01*
G37*
G36*
G01*
X57275000Y-90875000D02*
X57275000Y-89925000D01*
G75*
G02*
X57525000Y-89675000I250000J0D01*
G01*
X58200000Y-89675000D01*
G75*
G02*
X58450000Y-89925000I0J-250000D01*
G01*
X58450000Y-90875000D01*
G75*
G02*
X58200000Y-91125000I-250000J0D01*
G01*
X57525000Y-91125000D01*
G75*
G02*
X57275000Y-90875000I0J250000D01*
G01*
G37*
%TD*%
%TO.C,C6*%
G36*
G01*
X38725000Y-95850000D02*
X39675000Y-95850000D01*
G75*
G02*
X39925000Y-96100000I0J-250000D01*
G01*
X39925000Y-96775000D01*
G75*
G02*
X39675000Y-97025000I-250000J0D01*
G01*
X38725000Y-97025000D01*
G75*
G02*
X38475000Y-96775000I0J250000D01*
G01*
X38475000Y-96100000D01*
G75*
G02*
X38725000Y-95850000I250000J0D01*
G01*
G37*
G36*
G01*
X38725000Y-93775000D02*
X39675000Y-93775000D01*
G75*
G02*
X39925000Y-94025000I0J-250000D01*
G01*
X39925000Y-94700000D01*
G75*
G02*
X39675000Y-94950000I-250000J0D01*
G01*
X38725000Y-94950000D01*
G75*
G02*
X38475000Y-94700000I0J250000D01*
G01*
X38475000Y-94025000D01*
G75*
G02*
X38725000Y-93775000I250000J0D01*
G01*
G37*
%TD*%
%TO.C,C7*%
G36*
G01*
X37850000Y-99325000D02*
X37850000Y-100275000D01*
G75*
G02*
X37600000Y-100525000I-250000J0D01*
G01*
X36925000Y-100525000D01*
G75*
G02*
X36675000Y-100275000I0J250000D01*
G01*
X36675000Y-99325000D01*
G75*
G02*
X36925000Y-99075000I250000J0D01*
G01*
X37600000Y-99075000D01*
G75*
G02*
X37850000Y-99325000I0J-250000D01*
G01*
G37*
G36*
G01*
X39925000Y-99325000D02*
X39925000Y-100275000D01*
G75*
G02*
X39675000Y-100525000I-250000J0D01*
G01*
X39000000Y-100525000D01*
G75*
G02*
X38750000Y-100275000I0J250000D01*
G01*
X38750000Y-99325000D01*
G75*
G02*
X39000000Y-99075000I250000J0D01*
G01*
X39675000Y-99075000D01*
G75*
G02*
X39925000Y-99325000I0J-250000D01*
G01*
G37*
%TD*%
%TO.C,D1*%
X23350000Y-30900000D03*
X20050000Y-30900000D03*
%TD*%
D18*
%TO.C,D2*%
X20000000Y-18650000D03*
X20000000Y-21950000D03*
%TD*%
D17*
%TO.C,D3*%
X23350000Y-33400000D03*
X20050000Y-33400000D03*
%TD*%
%TO.C,D4*%
X23950000Y-49800000D03*
X20650000Y-49800000D03*
%TD*%
%TO.C,D5*%
X23950000Y-66200000D03*
X20650000Y-66200000D03*
%TD*%
%TO.C,D6*%
X23350000Y-82600000D03*
X20050000Y-82600000D03*
%TD*%
%TO.C,D7*%
X27050000Y-108200000D03*
X23750000Y-108200000D03*
%TD*%
%TO.C,D8*%
X61550000Y-20400000D03*
X58250000Y-20400000D03*
%TD*%
%TO.C,D9*%
X40150000Y-33400000D03*
X36850000Y-33400000D03*
%TD*%
%TO.C,D10*%
X35550000Y-49900000D03*
X32250000Y-49900000D03*
%TD*%
%TO.C,D11*%
X35550000Y-66200000D03*
X32250000Y-66200000D03*
%TD*%
%TO.C,D12*%
X39650000Y-82600000D03*
X36350000Y-82600000D03*
%TD*%
%TO.C,D13*%
X42750000Y-108200000D03*
X39450000Y-108200000D03*
%TD*%
%TO.C,D14*%
X65550000Y-47300000D03*
X62250000Y-47300000D03*
%TD*%
%TO.C,D15*%
X56950000Y-33400000D03*
X53650000Y-33400000D03*
%TD*%
%TO.C,D16*%
X65550000Y-49800000D03*
X62250000Y-49800000D03*
%TD*%
%TO.C,D17*%
X57550000Y-66200000D03*
X54250000Y-66200000D03*
%TD*%
%TO.C,D18*%
X64850000Y-82600000D03*
X61550000Y-82600000D03*
%TD*%
%TO.C,D19*%
X61650000Y-108150000D03*
X58350000Y-108150000D03*
%TD*%
%TO.C,D20*%
X73750000Y-33400000D03*
X70450000Y-33400000D03*
%TD*%
%TO.C,D21*%
X74350000Y-49800000D03*
X71050000Y-49800000D03*
%TD*%
%TO.C,D22*%
X74350000Y-66200000D03*
X71050000Y-66200000D03*
%TD*%
%TO.C,D23*%
X73750000Y-82600000D03*
X70450000Y-82600000D03*
%TD*%
%TO.C,D24*%
X73750000Y-99000000D03*
X70450000Y-99000000D03*
%TD*%
%TO.C,D25*%
X74350000Y-63400000D03*
X71050000Y-63400000D03*
%TD*%
%TO.C,D26*%
X90550000Y-33400000D03*
X87250000Y-33400000D03*
%TD*%
%TO.C,D27*%
X95350000Y-49800000D03*
X92050000Y-49800000D03*
%TD*%
%TO.C,D28*%
X95350000Y-66200000D03*
X92050000Y-66200000D03*
%TD*%
%TO.C,D29*%
X90550000Y-82600000D03*
X87250000Y-82600000D03*
%TD*%
%TO.C,D30*%
X90550000Y-99000000D03*
X87250000Y-99000000D03*
%TD*%
%TO.C,D31*%
X107350000Y-33400000D03*
X104050000Y-33400000D03*
%TD*%
%TO.C,D32*%
X115950000Y-49800000D03*
X112650000Y-49800000D03*
%TD*%
%TO.C,D33*%
X115750000Y-66200000D03*
X112450000Y-66200000D03*
%TD*%
%TO.C,D34*%
X107350000Y-82600000D03*
X104050000Y-82600000D03*
%TD*%
%TO.C,D35*%
X107950000Y-99000000D03*
X104650000Y-99000000D03*
%TD*%
%TO.C,D36*%
X107350000Y-79800000D03*
X104050000Y-79800000D03*
%TD*%
%TO.C,D37*%
X124150000Y-33400000D03*
X120850000Y-33400000D03*
%TD*%
%TO.C,D38*%
X132750000Y-49800000D03*
X129450000Y-49800000D03*
%TD*%
%TO.C,D39*%
X132550000Y-66200000D03*
X129250000Y-66200000D03*
%TD*%
%TO.C,D40*%
X124150000Y-82600000D03*
X120850000Y-82600000D03*
%TD*%
%TO.C,D41*%
X124750000Y-99000000D03*
X121450000Y-99000000D03*
%TD*%
%TO.C,D42*%
X140950000Y-33400000D03*
X137650000Y-33400000D03*
%TD*%
%TO.C,D43*%
X149550000Y-49800000D03*
X146250000Y-49800000D03*
%TD*%
%TO.C,D44*%
X157150000Y-66200000D03*
X153850000Y-66200000D03*
%TD*%
%TO.C,D45*%
X140950000Y-82600000D03*
X137650000Y-82600000D03*
%TD*%
%TO.C,D46*%
X141550000Y-99000000D03*
X138250000Y-99000000D03*
%TD*%
%TO.C,D47*%
X141550000Y-96100000D03*
X138250000Y-96100000D03*
%TD*%
%TO.C,D48*%
X157750000Y-33400000D03*
X154450000Y-33400000D03*
%TD*%
%TO.C,D49*%
X166350000Y-49800000D03*
X163050000Y-49800000D03*
%TD*%
%TO.C,D50*%
X166150000Y-66200000D03*
X162850000Y-66200000D03*
%TD*%
%TO.C,D51*%
X157750000Y-82600000D03*
X154450000Y-82600000D03*
%TD*%
%TO.C,D52*%
X157750000Y-99000000D03*
X154450000Y-99000000D03*
%TD*%
%TO.C,D53*%
X170750000Y-20400000D03*
X167450000Y-20400000D03*
%TD*%
%TO.C,D54*%
X174550000Y-33400000D03*
X171250000Y-33400000D03*
%TD*%
%TO.C,D55*%
X183150000Y-49800000D03*
X179850000Y-49800000D03*
%TD*%
%TO.C,D56*%
X182950000Y-66200000D03*
X179650000Y-66200000D03*
%TD*%
%TO.C,D57*%
X174550000Y-82600000D03*
X171250000Y-82600000D03*
%TD*%
%TO.C,D58*%
X174550000Y-99000000D03*
X171250000Y-99000000D03*
%TD*%
%TO.C,D59*%
X185350000Y-33400000D03*
X182050000Y-33400000D03*
%TD*%
%TO.C,D60*%
X191350000Y-33400000D03*
X188050000Y-33400000D03*
%TD*%
%TO.C,D61*%
X199950000Y-49800000D03*
X196650000Y-49800000D03*
%TD*%
%TO.C,D62*%
X199750000Y-66200000D03*
X196450000Y-66200000D03*
%TD*%
%TO.C,D63*%
X191350000Y-82600000D03*
X188050000Y-82600000D03*
%TD*%
%TO.C,D64*%
X191350000Y-99000000D03*
X188050000Y-99000000D03*
%TD*%
%TO.C,D65*%
X204350000Y-20400000D03*
X201050000Y-20400000D03*
%TD*%
%TO.C,D66*%
X208150000Y-33400000D03*
X204850000Y-33400000D03*
%TD*%
%TO.C,D67*%
X216550000Y-49800000D03*
X213250000Y-49800000D03*
%TD*%
%TO.C,D68*%
X216550000Y-66200000D03*
X213250000Y-66200000D03*
%TD*%
%TO.C,D69*%
X208150000Y-82600000D03*
X204850000Y-82600000D03*
%TD*%
%TO.C,D70*%
X200950000Y-99000000D03*
X197650000Y-99000000D03*
%TD*%
%TO.C,D71*%
X227050000Y-49800000D03*
X223750000Y-49800000D03*
%TD*%
%TO.C,D72*%
X224950000Y-33400000D03*
X221650000Y-33400000D03*
%TD*%
%TO.C,D73*%
X233350000Y-49800000D03*
X230050000Y-49800000D03*
%TD*%
%TO.C,D74*%
X233350000Y-66200000D03*
X230050000Y-66200000D03*
%TD*%
%TO.C,D75*%
X224950000Y-82600000D03*
X221650000Y-82600000D03*
%TD*%
%TO.C,D76*%
X219150000Y-99000000D03*
X215850000Y-99000000D03*
%TD*%
%TO.C,D77*%
X237950000Y-20400000D03*
X234650000Y-20400000D03*
%TD*%
%TO.C,D78*%
X241750000Y-33400000D03*
X238450000Y-33400000D03*
%TD*%
%TO.C,D79*%
X250150000Y-49800000D03*
X246850000Y-49800000D03*
%TD*%
%TO.C,D80*%
X250150000Y-66200000D03*
X246850000Y-66200000D03*
%TD*%
%TO.C,D81*%
X241750000Y-82600000D03*
X238450000Y-82600000D03*
%TD*%
%TO.C,D82*%
X235950000Y-99000000D03*
X232650000Y-99000000D03*
%TD*%
%TO.C,D83*%
X261650000Y-66200000D03*
X258350000Y-66200000D03*
%TD*%
%TO.C,D84*%
X258550000Y-33400000D03*
X255250000Y-33400000D03*
%TD*%
%TO.C,D85*%
X267550000Y-49800000D03*
X264250000Y-49800000D03*
%TD*%
%TO.C,D86*%
X267550000Y-66200000D03*
X264250000Y-66200000D03*
%TD*%
%TO.C,D87*%
X258550000Y-82600000D03*
X255250000Y-82600000D03*
%TD*%
%TO.C,D88*%
X256950000Y-99000000D03*
X253650000Y-99000000D03*
%TD*%
%TO.C,D89*%
X271550000Y-20400000D03*
X268250000Y-20400000D03*
%TD*%
%TO.C,D90*%
X275350000Y-33400000D03*
X272050000Y-33400000D03*
%TD*%
%TO.C,D91*%
X275350000Y-82600000D03*
X272050000Y-82600000D03*
%TD*%
%TO.C,D92*%
X275350000Y-99000000D03*
X272050000Y-99000000D03*
%TD*%
%TO.C,D93*%
X284650000Y-82600000D03*
X281350000Y-82600000D03*
%TD*%
%TO.C,D95*%
X292150000Y-33400000D03*
X288850000Y-33400000D03*
%TD*%
%TO.C,D96*%
X288550000Y-49800000D03*
X285250000Y-49800000D03*
%TD*%
%TO.C,D97*%
X288550000Y-66200000D03*
X285250000Y-66200000D03*
%TD*%
%TO.C,D98*%
X292150000Y-82600000D03*
X288850000Y-82600000D03*
%TD*%
%TO.C,D99*%
X292350000Y-99000000D03*
X289050000Y-99000000D03*
%TD*%
%TO.C,D100*%
X137150000Y-20400000D03*
X133850000Y-20400000D03*
%TD*%
D19*
%TO.C,D102*%
X34475000Y-26925000D03*
X34475000Y-25025000D03*
X32275000Y-25025000D03*
D20*
X32275000Y-26745000D03*
%TD*%
%TO.C,F1*%
G36*
G01*
X40125000Y-26075000D02*
X40125000Y-27325000D01*
G75*
G02*
X39875000Y-27575000I-250000J0D01*
G01*
X38950000Y-27575000D01*
G75*
G02*
X38700000Y-27325000I0J250000D01*
G01*
X38700000Y-26075000D01*
G75*
G02*
X38950000Y-25825000I250000J0D01*
G01*
X39875000Y-25825000D01*
G75*
G02*
X40125000Y-26075000I0J-250000D01*
G01*
G37*
G36*
G01*
X43100000Y-26075000D02*
X43100000Y-27325000D01*
G75*
G02*
X42850000Y-27575000I-250000J0D01*
G01*
X41925000Y-27575000D01*
G75*
G02*
X41675000Y-27325000I0J250000D01*
G01*
X41675000Y-26075000D01*
G75*
G02*
X41925000Y-25825000I250000J0D01*
G01*
X42850000Y-25825000D01*
G75*
G02*
X43100000Y-26075000I0J-250000D01*
G01*
G37*
%TD*%
D13*
%TO.C,L1*%
X66950000Y-20400000D03*
X68450000Y-25400000D03*
X66950000Y-25400000D03*
D14*
G36*
X68660000Y-19500001D02*
G01*
X68859999Y-19700000D01*
X68660000Y-19899999D01*
X68460001Y-19700000D01*
X68660000Y-19500001D01*
G37*
D15*
X68450000Y-20500000D03*
D16*
X68350000Y-19700000D03*
%TD*%
D13*
%TO.C,L2*%
X70950000Y-20400000D03*
X72450000Y-25400000D03*
X70950000Y-25400000D03*
D14*
G36*
X72660000Y-19500001D02*
G01*
X72859999Y-19700000D01*
X72660000Y-19899999D01*
X72460001Y-19700000D01*
X72660000Y-19500001D01*
G37*
D15*
X72450000Y-20500000D03*
D16*
X72350000Y-19700000D03*
%TD*%
D13*
%TO.C,L3*%
X74950000Y-20400000D03*
X76450000Y-25400000D03*
X74950000Y-25400000D03*
D14*
G36*
X76660000Y-19500001D02*
G01*
X76859999Y-19700000D01*
X76660000Y-19899999D01*
X76460001Y-19700000D01*
X76660000Y-19500001D01*
G37*
D15*
X76450000Y-20500000D03*
D16*
X76350000Y-19700000D03*
%TD*%
D13*
%TO.C,L4*%
X78950000Y-20400000D03*
X80450000Y-25400000D03*
X78950000Y-25400000D03*
D14*
G36*
X80660000Y-19500001D02*
G01*
X80859999Y-19700000D01*
X80660000Y-19899999D01*
X80460001Y-19700000D01*
X80660000Y-19500001D01*
G37*
D15*
X80450000Y-20500000D03*
D16*
X80350000Y-19700000D03*
%TD*%
D21*
%TO.C,L6*%
X100800000Y-19950000D03*
X105800000Y-18450000D03*
X105800000Y-19950000D03*
D14*
G36*
X99900001Y-18240000D02*
G01*
X100100000Y-18040001D01*
X100299999Y-18240000D01*
X100100000Y-18439999D01*
X99900001Y-18240000D01*
G37*
D22*
X100900000Y-18450000D03*
D23*
X100100000Y-18550000D03*
%TD*%
D21*
%TO.C,L7*%
X100800000Y-23750000D03*
X105800000Y-22250000D03*
X105800000Y-23750000D03*
D14*
G36*
X99900001Y-22040000D02*
G01*
X100100000Y-21840001D01*
X100299999Y-22040000D01*
X100100000Y-22239999D01*
X99900001Y-22040000D01*
G37*
D22*
X100900000Y-22250000D03*
D23*
X100100000Y-22350000D03*
%TD*%
D21*
%TO.C,L8*%
X100800000Y-27550000D03*
X105800000Y-26050000D03*
X105800000Y-27550000D03*
D14*
G36*
X99900001Y-25840000D02*
G01*
X100100000Y-25640001D01*
X100299999Y-25840000D01*
X100100000Y-26039999D01*
X99900001Y-25840000D01*
G37*
D22*
X100900000Y-26050000D03*
D23*
X100100000Y-26150000D03*
%TD*%
D13*
%TO.C,L9*%
X45650000Y-17950000D03*
X47150000Y-22950000D03*
X45650000Y-22950000D03*
D14*
G36*
X47360000Y-17050001D02*
G01*
X47559999Y-17250000D01*
X47360000Y-17449999D01*
X47160001Y-17250000D01*
X47360000Y-17050001D01*
G37*
D15*
X47150000Y-18050000D03*
D16*
X47050000Y-17250000D03*
%TD*%
D13*
%TO.C,L10*%
X121250000Y-17950000D03*
X122750000Y-22950000D03*
X121250000Y-22950000D03*
D14*
G36*
X122960000Y-17050001D02*
G01*
X123159999Y-17250000D01*
X122960000Y-17449999D01*
X122760001Y-17250000D01*
X122960000Y-17050001D01*
G37*
D15*
X122750000Y-18050000D03*
D16*
X122650000Y-17250000D03*
%TD*%
D13*
%TO.C,L11*%
X154850000Y-17950000D03*
X156350000Y-22950000D03*
X154850000Y-22950000D03*
D14*
G36*
X156560000Y-17050001D02*
G01*
X156759999Y-17250000D01*
X156560000Y-17449999D01*
X156360001Y-17250000D01*
X156560000Y-17050001D01*
G37*
D15*
X156350000Y-18050000D03*
D16*
X156250000Y-17250000D03*
%TD*%
D13*
%TO.C,L12*%
X188450000Y-17950000D03*
X189950000Y-22950000D03*
X188450000Y-22950000D03*
D14*
G36*
X190160000Y-17050001D02*
G01*
X190359999Y-17250000D01*
X190160000Y-17449999D01*
X189960001Y-17250000D01*
X190160000Y-17050001D01*
G37*
D15*
X189950000Y-18050000D03*
D16*
X189850000Y-17250000D03*
%TD*%
D13*
%TO.C,L14*%
X255650000Y-17950000D03*
X257150000Y-22950000D03*
X255650000Y-22950000D03*
D14*
G36*
X257360000Y-17050001D02*
G01*
X257559999Y-17250000D01*
X257360000Y-17449999D01*
X257160001Y-17250000D01*
X257360000Y-17050001D01*
G37*
D15*
X257150000Y-18050000D03*
D16*
X257050000Y-17250000D03*
%TD*%
D24*
%TO.C,L15*%
X291450000Y-74470000D03*
X291450000Y-77010000D03*
X291450000Y-79550000D03*
%TD*%
%TO.C,R1*%
G36*
G01*
X22700000Y-24949999D02*
X22700000Y-25850001D01*
G75*
G02*
X22450001Y-26100000I-249999J0D01*
G01*
X21749999Y-26100000D01*
G75*
G02*
X21500000Y-25850001I0J249999D01*
G01*
X21500000Y-24949999D01*
G75*
G02*
X21749999Y-24700000I249999J0D01*
G01*
X22450001Y-24700000D01*
G75*
G02*
X22700000Y-24949999I0J-249999D01*
G01*
G37*
G36*
G01*
X24700000Y-24949999D02*
X24700000Y-25850001D01*
G75*
G02*
X24450001Y-26100000I-249999J0D01*
G01*
X23749999Y-26100000D01*
G75*
G02*
X23500000Y-25850001I0J249999D01*
G01*
X23500000Y-24949999D01*
G75*
G02*
X23749999Y-24700000I249999J0D01*
G01*
X24450001Y-24700000D01*
G75*
G02*
X24700000Y-24949999I0J-249999D01*
G01*
G37*
%TD*%
%TO.C,R4*%
G36*
G01*
X34800000Y-63750001D02*
X34800000Y-62849999D01*
G75*
G02*
X35049999Y-62600000I249999J0D01*
G01*
X35750001Y-62600000D01*
G75*
G02*
X36000000Y-62849999I0J-249999D01*
G01*
X36000000Y-63750001D01*
G75*
G02*
X35750001Y-64000000I-249999J0D01*
G01*
X35049999Y-64000000D01*
G75*
G02*
X34800000Y-63750001I0J249999D01*
G01*
G37*
G36*
G01*
X32800000Y-63750001D02*
X32800000Y-62849999D01*
G75*
G02*
X33049999Y-62600000I249999J0D01*
G01*
X33750001Y-62600000D01*
G75*
G02*
X34000000Y-62849999I0J-249999D01*
G01*
X34000000Y-63750001D01*
G75*
G02*
X33750001Y-64000000I-249999J0D01*
G01*
X33049999Y-64000000D01*
G75*
G02*
X32800000Y-63750001I0J249999D01*
G01*
G37*
%TD*%
%TO.C,R5*%
G36*
G01*
X25400000Y-19350001D02*
X25400000Y-18449999D01*
G75*
G02*
X25649999Y-18200000I249999J0D01*
G01*
X26350001Y-18200000D01*
G75*
G02*
X26600000Y-18449999I0J-249999D01*
G01*
X26600000Y-19350001D01*
G75*
G02*
X26350001Y-19600000I-249999J0D01*
G01*
X25649999Y-19600000D01*
G75*
G02*
X25400000Y-19350001I0J249999D01*
G01*
G37*
G36*
G01*
X23400000Y-19350001D02*
X23400000Y-18449999D01*
G75*
G02*
X23649999Y-18200000I249999J0D01*
G01*
X24350001Y-18200000D01*
G75*
G02*
X24600000Y-18449999I0J-249999D01*
G01*
X24600000Y-19350001D01*
G75*
G02*
X24350001Y-19600000I-249999J0D01*
G01*
X23649999Y-19600000D01*
G75*
G02*
X23400000Y-19350001I0J249999D01*
G01*
G37*
%TD*%
%TO.C,R6*%
G36*
G01*
X25400000Y-21650001D02*
X25400000Y-20749999D01*
G75*
G02*
X25649999Y-20500000I249999J0D01*
G01*
X26350001Y-20500000D01*
G75*
G02*
X26600000Y-20749999I0J-249999D01*
G01*
X26600000Y-21650001D01*
G75*
G02*
X26350001Y-21900000I-249999J0D01*
G01*
X25649999Y-21900000D01*
G75*
G02*
X25400000Y-21650001I0J249999D01*
G01*
G37*
G36*
G01*
X23400000Y-21650001D02*
X23400000Y-20749999D01*
G75*
G02*
X23649999Y-20500000I249999J0D01*
G01*
X24350001Y-20500000D01*
G75*
G02*
X24600000Y-20749999I0J-249999D01*
G01*
X24600000Y-21650001D01*
G75*
G02*
X24350001Y-21900000I-249999J0D01*
G01*
X23649999Y-21900000D01*
G75*
G02*
X23400000Y-21650001I0J249999D01*
G01*
G37*
%TD*%
%TO.C,R7*%
G36*
G01*
X37100001Y-25625000D02*
X36199999Y-25625000D01*
G75*
G02*
X35950000Y-25375001I0J249999D01*
G01*
X35950000Y-24674999D01*
G75*
G02*
X36199999Y-24425000I249999J0D01*
G01*
X37100001Y-24425000D01*
G75*
G02*
X37350000Y-24674999I0J-249999D01*
G01*
X37350000Y-25375001D01*
G75*
G02*
X37100001Y-25625000I-249999J0D01*
G01*
G37*
G36*
G01*
X37100001Y-27625000D02*
X36199999Y-27625000D01*
G75*
G02*
X35950000Y-27375001I0J249999D01*
G01*
X35950000Y-26674999D01*
G75*
G02*
X36199999Y-26425000I249999J0D01*
G01*
X37100001Y-26425000D01*
G75*
G02*
X37350000Y-26674999I0J-249999D01*
G01*
X37350000Y-27375001D01*
G75*
G02*
X37100001Y-27625000I-249999J0D01*
G01*
G37*
%TD*%
%TO.C,R8*%
G36*
G01*
X30550001Y-25625000D02*
X29649999Y-25625000D01*
G75*
G02*
X29400000Y-25375001I0J249999D01*
G01*
X29400000Y-24674999D01*
G75*
G02*
X29649999Y-24425000I249999J0D01*
G01*
X30550001Y-24425000D01*
G75*
G02*
X30800000Y-24674999I0J-249999D01*
G01*
X30800000Y-25375001D01*
G75*
G02*
X30550001Y-25625000I-249999J0D01*
G01*
G37*
G36*
G01*
X30550001Y-27625000D02*
X29649999Y-27625000D01*
G75*
G02*
X29400000Y-27375001I0J249999D01*
G01*
X29400000Y-26674999D01*
G75*
G02*
X29649999Y-26425000I249999J0D01*
G01*
X30550001Y-26425000D01*
G75*
G02*
X30800000Y-26674999I0J-249999D01*
G01*
X30800000Y-27375001D01*
G75*
G02*
X30550001Y-27625000I-249999J0D01*
G01*
G37*
%TD*%
%TO.C,R9*%
G36*
G01*
X63200000Y-101925001D02*
X63200000Y-101024999D01*
G75*
G02*
X63449999Y-100775000I249999J0D01*
G01*
X64150001Y-100775000D01*
G75*
G02*
X64400000Y-101024999I0J-249999D01*
G01*
X64400000Y-101925001D01*
G75*
G02*
X64150001Y-102175000I-249999J0D01*
G01*
X63449999Y-102175000D01*
G75*
G02*
X63200000Y-101925001I0J249999D01*
G01*
G37*
G36*
G01*
X61200000Y-101925001D02*
X61200000Y-101024999D01*
G75*
G02*
X61449999Y-100775000I249999J0D01*
G01*
X62150001Y-100775000D01*
G75*
G02*
X62400000Y-101024999I0J-249999D01*
G01*
X62400000Y-101925001D01*
G75*
G02*
X62150001Y-102175000I-249999J0D01*
G01*
X61449999Y-102175000D01*
G75*
G02*
X61200000Y-101925001I0J249999D01*
G01*
G37*
%TD*%
D25*
%TO.C,ResetSW1*%
X44200000Y-63350000D03*
X38000000Y-63350000D03*
X44200000Y-67050000D03*
X38000000Y-67050000D03*
%TD*%
M02*
