%TF.GenerationSoftware,KiCad,Pcbnew,(5.1.8-0-10_14)*%
%TF.CreationDate,2020-12-27T18:14:17+09:00*%
%TF.ProjectId,Unison,556e6973-6f6e-42e6-9b69-6361645f7063,v01*%
%TF.SameCoordinates,Original*%
%TF.FileFunction,Soldermask,Bot*%
%TF.FilePolarity,Negative*%
%FSLAX46Y46*%
G04 Gerber Fmt 4.6, Leading zero omitted, Abs format (unit mm)*
G04 Created by KiCad (PCBNEW (5.1.8-0-10_14)) date 2020-12-27 18:14:17*
%MOMM*%
%LPD*%
G01*
G04 APERTURE LIST*
%ADD10C,1.500000*%
%ADD11C,2.140000*%
%ADD12O,2.000000X1.200000*%
%ADD13C,1.680000*%
%ADD14C,3.980000*%
%ADD15R,2.000000X2.000000*%
%ADD16C,2.000000*%
%ADD17R,3.200000X2.000000*%
%ADD18R,0.820000X1.800000*%
%ADD19C,0.100000*%
%ADD20R,0.820000X1.600000*%
%ADD21R,0.620000X0.400000*%
%ADD22R,0.900000X1.200000*%
%ADD23C,1.000000*%
%ADD24C,5.000000*%
%ADD25O,7.000240X5.000000*%
%ADD26R,1.200000X0.900000*%
%ADD27R,1.400000X1.000000*%
%ADD28R,1.400000X1.200000*%
%ADD29O,1.700000X1.700000*%
%ADD30R,1.700000X1.700000*%
%ADD31R,1.500000X1.000000*%
%ADD32R,1.800000X0.820000*%
%ADD33R,1.600000X0.820000*%
%ADD34R,0.400000X0.620000*%
%ADD35R,1.524000X1.524000*%
%ADD36C,1.397000*%
%ADD37R,1.800000X1.100000*%
%ADD38R,0.700000X0.250000*%
%ADD39R,0.250000X0.700000*%
%ADD40R,1.287500X1.287500*%
%ADD41R,1.800000X2.100000*%
%ADD42O,1.108000X2.216000*%
%ADD43C,0.650000*%
G04 APERTURE END LIST*
D10*
%TO.C,REF\u002A\u002A*%
X15200000Y-71050000D02*
X19000000Y-71050000D01*
X15250000Y-75350000D02*
X19050000Y-75350000D01*
X300200000Y-75350000D02*
X296400000Y-75350000D01*
X300150000Y-71050000D02*
X296350000Y-71050000D01*
X294250000Y-73200000D02*
G75*
G03*
X296400000Y-75350000I2150000J0D01*
G01*
X294250000Y-73200000D02*
G75*
G02*
X296400000Y-71050000I2150000J0D01*
G01*
X21150000Y-73200000D02*
G75*
G02*
X19000000Y-75350000I-2150000J0D01*
G01*
X21150000Y-73200000D02*
G75*
G03*
X19000000Y-71050000I-2150000J0D01*
G01*
%TD*%
D11*
%TO.C,*%
X298300000Y-23100000D03*
%TD*%
%TO.C,*%
X17600000Y-23100000D03*
%TD*%
%TO.C,*%
X111700000Y-23100000D03*
%TD*%
%TO.C,*%
X215000000Y-23100000D03*
%TD*%
%TO.C,*%
X148900000Y-23100000D03*
%TD*%
%TO.C,*%
X92300000Y-23100000D03*
%TD*%
%TO.C,*%
X42300000Y-23100000D03*
%TD*%
%TO.C,*%
X278400000Y-23100000D03*
%TD*%
%TO.C,*%
X297800000Y-23100000D03*
%TD*%
D12*
%TO.C,SW_25_2*%
X69890000Y-92860000D03*
X76340000Y-90320000D03*
D13*
X69200000Y-95400000D03*
X78200000Y-95400000D03*
D14*
X73700000Y-95400000D03*
D13*
X68620000Y-95400000D03*
X78780000Y-95400000D03*
%TD*%
D12*
%TO.C,SW_60_2*%
X187490000Y-92860000D03*
X193940000Y-90320000D03*
D13*
X186800000Y-95400000D03*
X195800000Y-95400000D03*
D14*
X191300000Y-95400000D03*
D13*
X186220000Y-95400000D03*
X196380000Y-95400000D03*
%TD*%
D12*
%TO.C,SW_10_2*%
X27890000Y-101060000D03*
X34340000Y-98520000D03*
D13*
X27200000Y-103600000D03*
X36200000Y-103600000D03*
D14*
X31700000Y-103600000D03*
D13*
X26620000Y-103600000D03*
X36780000Y-103600000D03*
%TD*%
D12*
%TO.C,SW_19_2*%
X27890000Y-84660000D03*
X34340000Y-82120000D03*
D13*
X27200000Y-87200000D03*
X36200000Y-87200000D03*
D14*
X31700000Y-87200000D03*
D13*
X26620000Y-87200000D03*
X36780000Y-87200000D03*
%TD*%
D12*
%TO.C,SW_24_2*%
X78290000Y-84660000D03*
X84740000Y-82120000D03*
D13*
X77600000Y-87200000D03*
X86600000Y-87200000D03*
D14*
X82100000Y-87200000D03*
D13*
X77020000Y-87200000D03*
X87180000Y-87200000D03*
%TD*%
D12*
%TO.C,SW_39_2*%
X95090000Y-84660000D03*
X101540000Y-82120000D03*
D13*
X94400000Y-87200000D03*
X103400000Y-87200000D03*
D14*
X98900000Y-87200000D03*
D13*
X93820000Y-87200000D03*
X103980000Y-87200000D03*
%TD*%
D12*
%TO.C,SW_45_4*%
X145490000Y-101060000D03*
X151940000Y-98520000D03*
D13*
X144800000Y-103600000D03*
X153800000Y-103600000D03*
D14*
X149300000Y-103600000D03*
D13*
X144220000Y-103600000D03*
X154380000Y-103600000D03*
%TD*%
%TO.C,SW_17_2*%
X32580000Y-54400000D03*
X22420000Y-54400000D03*
D14*
X27500000Y-54400000D03*
D13*
X32000000Y-54400000D03*
X23000000Y-54400000D03*
D12*
X30140000Y-49320000D03*
X23690000Y-51860000D03*
%TD*%
D13*
%TO.C,SW_18_2*%
X32580000Y-70800000D03*
X22420000Y-70800000D03*
D14*
X27500000Y-70800000D03*
D13*
X32000000Y-70800000D03*
X23000000Y-70800000D03*
D12*
X30140000Y-65720000D03*
X23690000Y-68260000D03*
%TD*%
D13*
%TO.C,SW_23_2*%
X82980000Y-70800000D03*
X72820000Y-70800000D03*
D14*
X77900000Y-70800000D03*
D13*
X82400000Y-70800000D03*
X73400000Y-70800000D03*
D12*
X80540000Y-65720000D03*
X74090000Y-68260000D03*
%TD*%
D13*
%TO.C,SW_25_3*%
X82980000Y-103600000D03*
X72820000Y-103600000D03*
D14*
X77900000Y-103600000D03*
D13*
X82400000Y-103600000D03*
X73400000Y-103600000D03*
D12*
X80540000Y-98520000D03*
X74090000Y-101060000D03*
%TD*%
D13*
%TO.C,SW_32_2*%
X82980000Y-54400000D03*
X72820000Y-54400000D03*
D14*
X77900000Y-54400000D03*
D13*
X82400000Y-54400000D03*
X73400000Y-54400000D03*
D12*
X80540000Y-49320000D03*
X74090000Y-51860000D03*
%TD*%
D13*
%TO.C,SW_37_2*%
X99780000Y-54400000D03*
X89620000Y-54400000D03*
D14*
X94700000Y-54400000D03*
D13*
X99200000Y-54400000D03*
X90200000Y-54400000D03*
D12*
X97340000Y-49320000D03*
X90890000Y-51860000D03*
%TD*%
D13*
%TO.C,SW_38_2*%
X99780000Y-70800000D03*
X89620000Y-70800000D03*
D14*
X94700000Y-70800000D03*
D13*
X99200000Y-70800000D03*
X90200000Y-70800000D03*
D12*
X97340000Y-65720000D03*
X90890000Y-68260000D03*
%TD*%
D13*
%TO.C,SW_40_2*%
X133380000Y-103600000D03*
X123220000Y-103600000D03*
D14*
X128300000Y-103600000D03*
D13*
X132800000Y-103600000D03*
X123800000Y-103600000D03*
D12*
X130940000Y-98520000D03*
X124490000Y-101060000D03*
%TD*%
D13*
%TO.C,SW_45_2*%
X150180000Y-103600000D03*
X140020000Y-103600000D03*
D14*
X145100000Y-103600000D03*
D13*
X149600000Y-103600000D03*
X140600000Y-103600000D03*
D12*
X147740000Y-98520000D03*
X141290000Y-101060000D03*
%TD*%
D13*
%TO.C,SW_70_2*%
X225780000Y-103600000D03*
X215620000Y-103600000D03*
D14*
X220700000Y-103600000D03*
D13*
X225200000Y-103600000D03*
X216200000Y-103600000D03*
D12*
X223340000Y-98520000D03*
X216890000Y-101060000D03*
%TD*%
D13*
%TO.C,SW_75_2*%
X207220000Y-103600000D03*
X217380000Y-103600000D03*
D14*
X212300000Y-103600000D03*
D13*
X207800000Y-103600000D03*
X216800000Y-103600000D03*
D12*
X209660000Y-108680000D03*
X216110000Y-106140000D03*
%TD*%
D13*
%TO.C,SW_7_2*%
X292980000Y-54400000D03*
X282820000Y-54400000D03*
D14*
X287900000Y-54400000D03*
D13*
X292400000Y-54400000D03*
X283400000Y-54400000D03*
D12*
X290540000Y-49320000D03*
X284090000Y-51860000D03*
%TD*%
D13*
%TO.C,SW_85_3*%
X242580000Y-103600000D03*
X232420000Y-103600000D03*
D14*
X237500000Y-103600000D03*
D13*
X242000000Y-103600000D03*
X233000000Y-103600000D03*
D12*
X240140000Y-98520000D03*
X233690000Y-101060000D03*
%TD*%
D13*
%TO.C,SW_8_2*%
X292980000Y-70800000D03*
X282820000Y-70800000D03*
D14*
X287900000Y-70800000D03*
D13*
X292400000Y-70800000D03*
X283400000Y-70800000D03*
D12*
X290540000Y-65720000D03*
X284090000Y-68260000D03*
%TD*%
D13*
%TO.C,SW_97_2*%
X276180000Y-54400000D03*
X266020000Y-54400000D03*
D14*
X271100000Y-54400000D03*
D13*
X275600000Y-54400000D03*
X266600000Y-54400000D03*
D12*
X273740000Y-49320000D03*
X267290000Y-51860000D03*
%TD*%
D13*
%TO.C,SW_98_2*%
X276180000Y-70800000D03*
X266020000Y-70800000D03*
D14*
X271100000Y-70800000D03*
D13*
X275600000Y-70800000D03*
X266600000Y-70800000D03*
D12*
X273740000Y-65720000D03*
X267290000Y-68260000D03*
%TD*%
%TO.C,SW_85_4*%
X231590000Y-101060000D03*
X238040000Y-98520000D03*
D13*
X230900000Y-103600000D03*
X239900000Y-103600000D03*
D14*
X235400000Y-103600000D03*
D13*
X230320000Y-103600000D03*
X240480000Y-103600000D03*
%TD*%
D12*
%TO.C,SW_85_2*%
X235790000Y-101060000D03*
X242240000Y-98520000D03*
D13*
X235100000Y-103600000D03*
X244100000Y-103600000D03*
D14*
X239600000Y-103600000D03*
D13*
X234520000Y-103600000D03*
X244680000Y-103600000D03*
%TD*%
D12*
%TO.C,SW_80_2*%
X252590000Y-101060000D03*
X259040000Y-98520000D03*
D13*
X251900000Y-103600000D03*
X260900000Y-103600000D03*
D14*
X256400000Y-103600000D03*
D13*
X251320000Y-103600000D03*
X261480000Y-103600000D03*
%TD*%
D12*
%TO.C,SW_70_3*%
X214790000Y-101060000D03*
X221240000Y-98520000D03*
D13*
X214100000Y-103600000D03*
X223100000Y-103600000D03*
D14*
X218600000Y-103600000D03*
D13*
X213520000Y-103600000D03*
X223680000Y-103600000D03*
%TD*%
D12*
%TO.C,SW_45_3*%
X143390000Y-101060000D03*
X149840000Y-98520000D03*
D13*
X142700000Y-103600000D03*
X151700000Y-103600000D03*
D14*
X147200000Y-103600000D03*
D13*
X142120000Y-103600000D03*
X152280000Y-103600000D03*
%TD*%
D12*
%TO.C,SW_40_4*%
X122390000Y-101060000D03*
X128840000Y-98520000D03*
D13*
X121700000Y-103600000D03*
X130700000Y-103600000D03*
D14*
X126200000Y-103600000D03*
D13*
X121120000Y-103600000D03*
X131280000Y-103600000D03*
%TD*%
D12*
%TO.C,SW_40_3*%
X126590000Y-101060000D03*
X133040000Y-98520000D03*
D13*
X125900000Y-103600000D03*
X134900000Y-103600000D03*
D14*
X130400000Y-103600000D03*
D13*
X125320000Y-103600000D03*
X135480000Y-103600000D03*
%TD*%
D12*
%TO.C,SW_35_2*%
X105590000Y-101060000D03*
X112040000Y-98520000D03*
D13*
X104900000Y-103600000D03*
X113900000Y-103600000D03*
D14*
X109400000Y-103600000D03*
D13*
X104320000Y-103600000D03*
X114480000Y-103600000D03*
%TD*%
D12*
%TO.C,SW_25_4*%
X76190000Y-101060000D03*
X82640000Y-98520000D03*
D13*
X75500000Y-103600000D03*
X84500000Y-103600000D03*
D14*
X80000000Y-103600000D03*
D13*
X74920000Y-103600000D03*
X85080000Y-103600000D03*
%TD*%
D12*
%TO.C,SW_20_2*%
X55190000Y-101060000D03*
X61640000Y-98520000D03*
D13*
X54500000Y-103600000D03*
X63500000Y-103600000D03*
D14*
X59000000Y-103600000D03*
D13*
X53920000Y-103600000D03*
X64080000Y-103600000D03*
%TD*%
D15*
%TO.C,SW_RE1*%
X49400000Y-20400000D03*
D16*
X49400000Y-22900000D03*
X49400000Y-25400000D03*
D17*
X56900000Y-17300000D03*
X56900000Y-28500000D03*
D16*
X63900000Y-20400000D03*
X63900000Y-25400000D03*
%TD*%
D12*
%TO.C,SW_21*%
X36290000Y-35460000D03*
X42740000Y-32920000D03*
D13*
X35600000Y-38000000D03*
X44600000Y-38000000D03*
D14*
X40100000Y-38000000D03*
D13*
X35020000Y-38000000D03*
X45180000Y-38000000D03*
%TD*%
D18*
%TO.C,L13*%
X222050000Y-17950000D03*
X223550000Y-22950000D03*
X222050000Y-22950000D03*
D19*
G36*
X223760000Y-17050001D02*
G01*
X223959999Y-17250000D01*
X223760000Y-17449999D01*
X223560001Y-17250000D01*
X223760000Y-17050001D01*
G37*
D20*
X223550000Y-18050000D03*
D21*
X223450000Y-17250000D03*
%TD*%
D18*
%TO.C,L5*%
X82950000Y-20400000D03*
X84450000Y-25400000D03*
X82950000Y-25400000D03*
D19*
G36*
X84660000Y-19500001D02*
G01*
X84859999Y-19700000D01*
X84660000Y-19899999D01*
X84460001Y-19700000D01*
X84660000Y-19500001D01*
G37*
D20*
X84450000Y-20500000D03*
D21*
X84350000Y-19700000D03*
%TD*%
D12*
%TO.C,SW_26*%
X53090000Y-35460000D03*
X59540000Y-32920000D03*
D13*
X52400000Y-38000000D03*
X61400000Y-38000000D03*
D14*
X56900000Y-38000000D03*
D13*
X51820000Y-38000000D03*
X61980000Y-38000000D03*
%TD*%
D22*
%TO.C,D94*%
X286350000Y-99100000D03*
X283050000Y-99100000D03*
%TD*%
D11*
%TO.C,*%
X17100000Y-23100000D03*
%TD*%
D23*
%TO.C,REF\u002A\u002A*%
X298442035Y-71000000D03*
X298450000Y-75350000D03*
X294850000Y-74700000D03*
X296400000Y-71000000D03*
X296400000Y-75350000D03*
X294250000Y-73200000D03*
X294850000Y-71700000D03*
X20550000Y-74700000D03*
D24*
X40400000Y-44600000D03*
D25*
X143400000Y-63700000D03*
X205700000Y-101900000D03*
X275250000Y-44600000D03*
D23*
X40400000Y-42700000D03*
X38500000Y-44600000D03*
X42300000Y-44600000D03*
X40400000Y-46500000D03*
X39050000Y-43250000D03*
X41650000Y-43250000D03*
X39050000Y-45900000D03*
X41650000Y-45950000D03*
X275250000Y-42750000D03*
X275250000Y-46450000D03*
X276450000Y-46450000D03*
X274050000Y-46450000D03*
X274050000Y-42750000D03*
X276450000Y-42733000D03*
X205750000Y-100050000D03*
X205700000Y-103750000D03*
X206950000Y-100050000D03*
X204550000Y-100050000D03*
X204500000Y-103750000D03*
X206900000Y-103750000D03*
X143400000Y-61850000D03*
X144600000Y-61850000D03*
X142200000Y-61850000D03*
X143400000Y-65600000D03*
X142200000Y-65600000D03*
X144600000Y-65600000D03*
X21150000Y-73200000D03*
X19000000Y-71050000D03*
X19000000Y-75400000D03*
X20550000Y-71700000D03*
X16950000Y-71050000D03*
X16957965Y-75400000D03*
%TD*%
%TO.C,C1*%
G36*
G01*
X45650000Y-48525000D02*
X45650000Y-49475000D01*
G75*
G02*
X45400000Y-49725000I-250000J0D01*
G01*
X44725000Y-49725000D01*
G75*
G02*
X44475000Y-49475000I0J250000D01*
G01*
X44475000Y-48525000D01*
G75*
G02*
X44725000Y-48275000I250000J0D01*
G01*
X45400000Y-48275000D01*
G75*
G02*
X45650000Y-48525000I0J-250000D01*
G01*
G37*
G36*
G01*
X47725000Y-48525000D02*
X47725000Y-49475000D01*
G75*
G02*
X47475000Y-49725000I-250000J0D01*
G01*
X46800000Y-49725000D01*
G75*
G02*
X46550000Y-49475000I0J250000D01*
G01*
X46550000Y-48525000D01*
G75*
G02*
X46800000Y-48275000I250000J0D01*
G01*
X47475000Y-48275000D01*
G75*
G02*
X47725000Y-48525000I0J-250000D01*
G01*
G37*
%TD*%
%TO.C,C2*%
G36*
G01*
X52375000Y-32250000D02*
X51425000Y-32250000D01*
G75*
G02*
X51175000Y-32000000I0J250000D01*
G01*
X51175000Y-31325000D01*
G75*
G02*
X51425000Y-31075000I250000J0D01*
G01*
X52375000Y-31075000D01*
G75*
G02*
X52625000Y-31325000I0J-250000D01*
G01*
X52625000Y-32000000D01*
G75*
G02*
X52375000Y-32250000I-250000J0D01*
G01*
G37*
G36*
G01*
X52375000Y-34325000D02*
X51425000Y-34325000D01*
G75*
G02*
X51175000Y-34075000I0J250000D01*
G01*
X51175000Y-33400000D01*
G75*
G02*
X51425000Y-33150000I250000J0D01*
G01*
X52375000Y-33150000D01*
G75*
G02*
X52625000Y-33400000I0J-250000D01*
G01*
X52625000Y-34075000D01*
G75*
G02*
X52375000Y-34325000I-250000J0D01*
G01*
G37*
%TD*%
%TO.C,C3*%
G36*
G01*
X45375000Y-32250000D02*
X44425000Y-32250000D01*
G75*
G02*
X44175000Y-32000000I0J250000D01*
G01*
X44175000Y-31325000D01*
G75*
G02*
X44425000Y-31075000I250000J0D01*
G01*
X45375000Y-31075000D01*
G75*
G02*
X45625000Y-31325000I0J-250000D01*
G01*
X45625000Y-32000000D01*
G75*
G02*
X45375000Y-32250000I-250000J0D01*
G01*
G37*
G36*
G01*
X45375000Y-34325000D02*
X44425000Y-34325000D01*
G75*
G02*
X44175000Y-34075000I0J250000D01*
G01*
X44175000Y-33400000D01*
G75*
G02*
X44425000Y-33150000I250000J0D01*
G01*
X45375000Y-33150000D01*
G75*
G02*
X45625000Y-33400000I0J-250000D01*
G01*
X45625000Y-34075000D01*
G75*
G02*
X45375000Y-34325000I-250000J0D01*
G01*
G37*
%TD*%
%TO.C,C4*%
G36*
G01*
X53670000Y-49365000D02*
X53670000Y-48415000D01*
G75*
G02*
X53920000Y-48165000I250000J0D01*
G01*
X54595000Y-48165000D01*
G75*
G02*
X54845000Y-48415000I0J-250000D01*
G01*
X54845000Y-49365000D01*
G75*
G02*
X54595000Y-49615000I-250000J0D01*
G01*
X53920000Y-49615000D01*
G75*
G02*
X53670000Y-49365000I0J250000D01*
G01*
G37*
G36*
G01*
X51595000Y-49365000D02*
X51595000Y-48415000D01*
G75*
G02*
X51845000Y-48165000I250000J0D01*
G01*
X52520000Y-48165000D01*
G75*
G02*
X52770000Y-48415000I0J-250000D01*
G01*
X52770000Y-49365000D01*
G75*
G02*
X52520000Y-49615000I-250000J0D01*
G01*
X51845000Y-49615000D01*
G75*
G02*
X51595000Y-49365000I0J250000D01*
G01*
G37*
%TD*%
%TO.C,C5*%
G36*
G01*
X43575000Y-40250000D02*
X42625000Y-40250000D01*
G75*
G02*
X42375000Y-40000000I0J250000D01*
G01*
X42375000Y-39325000D01*
G75*
G02*
X42625000Y-39075000I250000J0D01*
G01*
X43575000Y-39075000D01*
G75*
G02*
X43825000Y-39325000I0J-250000D01*
G01*
X43825000Y-40000000D01*
G75*
G02*
X43575000Y-40250000I-250000J0D01*
G01*
G37*
G36*
G01*
X43575000Y-42325000D02*
X42625000Y-42325000D01*
G75*
G02*
X42375000Y-42075000I0J250000D01*
G01*
X42375000Y-41400000D01*
G75*
G02*
X42625000Y-41150000I250000J0D01*
G01*
X43575000Y-41150000D01*
G75*
G02*
X43825000Y-41400000I0J-250000D01*
G01*
X43825000Y-42075000D01*
G75*
G02*
X43575000Y-42325000I-250000J0D01*
G01*
G37*
%TD*%
%TO.C,C6*%
G36*
G01*
X37575000Y-40250000D02*
X36625000Y-40250000D01*
G75*
G02*
X36375000Y-40000000I0J250000D01*
G01*
X36375000Y-39325000D01*
G75*
G02*
X36625000Y-39075000I250000J0D01*
G01*
X37575000Y-39075000D01*
G75*
G02*
X37825000Y-39325000I0J-250000D01*
G01*
X37825000Y-40000000D01*
G75*
G02*
X37575000Y-40250000I-250000J0D01*
G01*
G37*
G36*
G01*
X37575000Y-42325000D02*
X36625000Y-42325000D01*
G75*
G02*
X36375000Y-42075000I0J250000D01*
G01*
X36375000Y-41400000D01*
G75*
G02*
X36625000Y-41150000I250000J0D01*
G01*
X37575000Y-41150000D01*
G75*
G02*
X37825000Y-41400000I0J-250000D01*
G01*
X37825000Y-42075000D01*
G75*
G02*
X37575000Y-42325000I-250000J0D01*
G01*
G37*
%TD*%
%TO.C,C7*%
G36*
G01*
X57380000Y-41675000D02*
X57380000Y-40725000D01*
G75*
G02*
X57630000Y-40475000I250000J0D01*
G01*
X58305000Y-40475000D01*
G75*
G02*
X58555000Y-40725000I0J-250000D01*
G01*
X58555000Y-41675000D01*
G75*
G02*
X58305000Y-41925000I-250000J0D01*
G01*
X57630000Y-41925000D01*
G75*
G02*
X57380000Y-41675000I0J250000D01*
G01*
G37*
G36*
G01*
X55305000Y-41675000D02*
X55305000Y-40725000D01*
G75*
G02*
X55555000Y-40475000I250000J0D01*
G01*
X56230000Y-40475000D01*
G75*
G02*
X56480000Y-40725000I0J-250000D01*
G01*
X56480000Y-41675000D01*
G75*
G02*
X56230000Y-41925000I-250000J0D01*
G01*
X55555000Y-41925000D01*
G75*
G02*
X55305000Y-41675000I0J250000D01*
G01*
G37*
%TD*%
D22*
%TO.C,D1*%
X23350000Y-30900000D03*
X20050000Y-30900000D03*
%TD*%
D26*
%TO.C,D2*%
X20000000Y-18650000D03*
X20000000Y-21950000D03*
%TD*%
D22*
%TO.C,D3*%
X23350000Y-33400000D03*
X20050000Y-33400000D03*
%TD*%
%TO.C,D4*%
X23950000Y-49800000D03*
X20650000Y-49800000D03*
%TD*%
%TO.C,D5*%
X23950000Y-66200000D03*
X20650000Y-66200000D03*
%TD*%
%TO.C,D6*%
X23350000Y-82600000D03*
X20050000Y-82600000D03*
%TD*%
%TO.C,D7*%
X23350000Y-99000000D03*
X20050000Y-99000000D03*
%TD*%
%TO.C,D8*%
X61550000Y-20400000D03*
X58250000Y-20400000D03*
%TD*%
%TO.C,D9*%
X40150000Y-33400000D03*
X36850000Y-33400000D03*
%TD*%
%TO.C,D10*%
X35550000Y-49900000D03*
X32250000Y-49900000D03*
%TD*%
%TO.C,D11*%
X35550000Y-66200000D03*
X32250000Y-66200000D03*
%TD*%
%TO.C,D12*%
X40150000Y-82600000D03*
X36850000Y-82600000D03*
%TD*%
%TO.C,D13*%
X40150000Y-99000000D03*
X36850000Y-99000000D03*
%TD*%
%TO.C,D14*%
X65550000Y-47300000D03*
X62250000Y-47300000D03*
%TD*%
%TO.C,D15*%
X65150000Y-33400000D03*
X61850000Y-33400000D03*
%TD*%
%TO.C,D16*%
X65550000Y-49800000D03*
X62250000Y-49800000D03*
%TD*%
%TO.C,D17*%
X57550000Y-66200000D03*
X54250000Y-66200000D03*
%TD*%
%TO.C,D18*%
X56950000Y-82600000D03*
X53650000Y-82600000D03*
%TD*%
%TO.C,D19*%
X56950000Y-99000000D03*
X53650000Y-99000000D03*
%TD*%
%TO.C,D20*%
X73750000Y-33400000D03*
X70450000Y-33400000D03*
%TD*%
%TO.C,D21*%
X74350000Y-49800000D03*
X71050000Y-49800000D03*
%TD*%
%TO.C,D22*%
X74350000Y-66200000D03*
X71050000Y-66200000D03*
%TD*%
%TO.C,D23*%
X73750000Y-82600000D03*
X70450000Y-82600000D03*
%TD*%
%TO.C,D24*%
X73750000Y-99000000D03*
X70450000Y-99000000D03*
%TD*%
%TO.C,D25*%
X74350000Y-63400000D03*
X71050000Y-63400000D03*
%TD*%
%TO.C,D26*%
X90550000Y-33400000D03*
X87250000Y-33400000D03*
%TD*%
%TO.C,D27*%
X95350000Y-49800000D03*
X92050000Y-49800000D03*
%TD*%
%TO.C,D28*%
X95350000Y-66200000D03*
X92050000Y-66200000D03*
%TD*%
%TO.C,D29*%
X90550000Y-82600000D03*
X87250000Y-82600000D03*
%TD*%
%TO.C,D30*%
X90550000Y-99000000D03*
X87250000Y-99000000D03*
%TD*%
%TO.C,D31*%
X107350000Y-33400000D03*
X104050000Y-33400000D03*
%TD*%
%TO.C,D32*%
X115950000Y-49800000D03*
X112650000Y-49800000D03*
%TD*%
%TO.C,D33*%
X115750000Y-66200000D03*
X112450000Y-66200000D03*
%TD*%
%TO.C,D34*%
X107350000Y-82600000D03*
X104050000Y-82600000D03*
%TD*%
%TO.C,D35*%
X107950000Y-99000000D03*
X104650000Y-99000000D03*
%TD*%
%TO.C,D36*%
X107350000Y-79800000D03*
X104050000Y-79800000D03*
%TD*%
%TO.C,D37*%
X124150000Y-33400000D03*
X120850000Y-33400000D03*
%TD*%
%TO.C,D38*%
X132750000Y-49800000D03*
X129450000Y-49800000D03*
%TD*%
%TO.C,D39*%
X132550000Y-66200000D03*
X129250000Y-66200000D03*
%TD*%
%TO.C,D40*%
X124150000Y-82600000D03*
X120850000Y-82600000D03*
%TD*%
%TO.C,D41*%
X124750000Y-99000000D03*
X121450000Y-99000000D03*
%TD*%
%TO.C,D42*%
X140950000Y-33400000D03*
X137650000Y-33400000D03*
%TD*%
%TO.C,D43*%
X149550000Y-49800000D03*
X146250000Y-49800000D03*
%TD*%
%TO.C,D44*%
X157150000Y-66200000D03*
X153850000Y-66200000D03*
%TD*%
%TO.C,D45*%
X140950000Y-82600000D03*
X137650000Y-82600000D03*
%TD*%
%TO.C,D46*%
X141550000Y-99000000D03*
X138250000Y-99000000D03*
%TD*%
%TO.C,D47*%
X141550000Y-96100000D03*
X138250000Y-96100000D03*
%TD*%
%TO.C,D48*%
X157750000Y-33400000D03*
X154450000Y-33400000D03*
%TD*%
%TO.C,D49*%
X166350000Y-49800000D03*
X163050000Y-49800000D03*
%TD*%
%TO.C,D50*%
X166150000Y-66200000D03*
X162850000Y-66200000D03*
%TD*%
%TO.C,D51*%
X157750000Y-82600000D03*
X154450000Y-82600000D03*
%TD*%
%TO.C,D52*%
X157750000Y-99000000D03*
X154450000Y-99000000D03*
%TD*%
%TO.C,D53*%
X170750000Y-20400000D03*
X167450000Y-20400000D03*
%TD*%
%TO.C,D54*%
X174550000Y-33400000D03*
X171250000Y-33400000D03*
%TD*%
%TO.C,D55*%
X183150000Y-49800000D03*
X179850000Y-49800000D03*
%TD*%
%TO.C,D56*%
X182950000Y-66200000D03*
X179650000Y-66200000D03*
%TD*%
%TO.C,D57*%
X174550000Y-82600000D03*
X171250000Y-82600000D03*
%TD*%
%TO.C,D58*%
X174550000Y-99000000D03*
X171250000Y-99000000D03*
%TD*%
%TO.C,D59*%
X185350000Y-33400000D03*
X182050000Y-33400000D03*
%TD*%
%TO.C,D60*%
X191350000Y-33400000D03*
X188050000Y-33400000D03*
%TD*%
%TO.C,D61*%
X199950000Y-49800000D03*
X196650000Y-49800000D03*
%TD*%
%TO.C,D62*%
X199750000Y-66200000D03*
X196450000Y-66200000D03*
%TD*%
%TO.C,D63*%
X191350000Y-82600000D03*
X188050000Y-82600000D03*
%TD*%
%TO.C,D64*%
X191350000Y-99000000D03*
X188050000Y-99000000D03*
%TD*%
%TO.C,D65*%
X204350000Y-20400000D03*
X201050000Y-20400000D03*
%TD*%
%TO.C,D66*%
X208150000Y-33400000D03*
X204850000Y-33400000D03*
%TD*%
%TO.C,D67*%
X216550000Y-49800000D03*
X213250000Y-49800000D03*
%TD*%
%TO.C,D68*%
X216550000Y-66200000D03*
X213250000Y-66200000D03*
%TD*%
%TO.C,D69*%
X208150000Y-82600000D03*
X204850000Y-82600000D03*
%TD*%
%TO.C,D70*%
X200950000Y-99000000D03*
X197650000Y-99000000D03*
%TD*%
%TO.C,D71*%
X227050000Y-49800000D03*
X223750000Y-49800000D03*
%TD*%
%TO.C,D72*%
X224950000Y-33400000D03*
X221650000Y-33400000D03*
%TD*%
%TO.C,D73*%
X233350000Y-49800000D03*
X230050000Y-49800000D03*
%TD*%
%TO.C,D74*%
X233350000Y-66200000D03*
X230050000Y-66200000D03*
%TD*%
%TO.C,D75*%
X224950000Y-82600000D03*
X221650000Y-82600000D03*
%TD*%
%TO.C,D76*%
X219150000Y-99000000D03*
X215850000Y-99000000D03*
%TD*%
%TO.C,D77*%
X237950000Y-20400000D03*
X234650000Y-20400000D03*
%TD*%
%TO.C,D78*%
X241750000Y-33400000D03*
X238450000Y-33400000D03*
%TD*%
%TO.C,D79*%
X250150000Y-49800000D03*
X246850000Y-49800000D03*
%TD*%
%TO.C,D80*%
X250150000Y-66200000D03*
X246850000Y-66200000D03*
%TD*%
%TO.C,D81*%
X241750000Y-82600000D03*
X238450000Y-82600000D03*
%TD*%
%TO.C,D82*%
X235950000Y-99000000D03*
X232650000Y-99000000D03*
%TD*%
%TO.C,D83*%
X261650000Y-66200000D03*
X258350000Y-66200000D03*
%TD*%
%TO.C,D84*%
X258550000Y-33400000D03*
X255250000Y-33400000D03*
%TD*%
%TO.C,D85*%
X267550000Y-49800000D03*
X264250000Y-49800000D03*
%TD*%
%TO.C,D86*%
X267550000Y-66200000D03*
X264250000Y-66200000D03*
%TD*%
%TO.C,D87*%
X258550000Y-82600000D03*
X255250000Y-82600000D03*
%TD*%
%TO.C,D88*%
X256950000Y-99000000D03*
X253650000Y-99000000D03*
%TD*%
%TO.C,D89*%
X271550000Y-20400000D03*
X268250000Y-20400000D03*
%TD*%
%TO.C,D90*%
X275350000Y-33400000D03*
X272050000Y-33400000D03*
%TD*%
%TO.C,D91*%
X275350000Y-82600000D03*
X272050000Y-82600000D03*
%TD*%
%TO.C,D92*%
X275350000Y-99000000D03*
X272050000Y-99000000D03*
%TD*%
%TO.C,D93*%
X284650000Y-82600000D03*
X281350000Y-82600000D03*
%TD*%
%TO.C,D95*%
X292150000Y-33400000D03*
X288850000Y-33400000D03*
%TD*%
%TO.C,D96*%
X288550000Y-49800000D03*
X285250000Y-49800000D03*
%TD*%
%TO.C,D97*%
X288550000Y-66200000D03*
X285250000Y-66200000D03*
%TD*%
%TO.C,D98*%
X292150000Y-82600000D03*
X288850000Y-82600000D03*
%TD*%
%TO.C,D99*%
X292350000Y-99000000D03*
X289050000Y-99000000D03*
%TD*%
%TO.C,D100*%
X137150000Y-20400000D03*
X133850000Y-20400000D03*
%TD*%
D27*
%TO.C,D102*%
X34475000Y-26925000D03*
X34475000Y-25025000D03*
X32275000Y-25025000D03*
D28*
X32275000Y-26745000D03*
%TD*%
%TO.C,F1*%
G36*
G01*
X40125000Y-26075000D02*
X40125000Y-27325000D01*
G75*
G02*
X39875000Y-27575000I-250000J0D01*
G01*
X38950000Y-27575000D01*
G75*
G02*
X38700000Y-27325000I0J250000D01*
G01*
X38700000Y-26075000D01*
G75*
G02*
X38950000Y-25825000I250000J0D01*
G01*
X39875000Y-25825000D01*
G75*
G02*
X40125000Y-26075000I0J-250000D01*
G01*
G37*
G36*
G01*
X43100000Y-26075000D02*
X43100000Y-27325000D01*
G75*
G02*
X42850000Y-27575000I-250000J0D01*
G01*
X41925000Y-27575000D01*
G75*
G02*
X41675000Y-27325000I0J250000D01*
G01*
X41675000Y-26075000D01*
G75*
G02*
X41925000Y-25825000I250000J0D01*
G01*
X42850000Y-25825000D01*
G75*
G02*
X43100000Y-26075000I0J-250000D01*
G01*
G37*
%TD*%
D29*
%TO.C,J2*%
X280840000Y-74700000D03*
D30*
X278300000Y-74700000D03*
%TD*%
D31*
%TO.C,JP1*%
X26700000Y-26950000D03*
X26700000Y-25650000D03*
%TD*%
%TO.C,JP_LED1*%
X61225000Y-24000000D03*
X61225000Y-25300000D03*
X61225000Y-26600000D03*
%TD*%
%TO.C,JP_LED2*%
X117550000Y-19650000D03*
X117550000Y-20950000D03*
X117550000Y-22250000D03*
%TD*%
D18*
%TO.C,L1*%
X66950000Y-20400000D03*
X68450000Y-25400000D03*
X66950000Y-25400000D03*
D19*
G36*
X68660000Y-19500001D02*
G01*
X68859999Y-19700000D01*
X68660000Y-19899999D01*
X68460001Y-19700000D01*
X68660000Y-19500001D01*
G37*
D20*
X68450000Y-20500000D03*
D21*
X68350000Y-19700000D03*
%TD*%
D18*
%TO.C,L2*%
X70950000Y-20400000D03*
X72450000Y-25400000D03*
X70950000Y-25400000D03*
D19*
G36*
X72660000Y-19500001D02*
G01*
X72859999Y-19700000D01*
X72660000Y-19899999D01*
X72460001Y-19700000D01*
X72660000Y-19500001D01*
G37*
D20*
X72450000Y-20500000D03*
D21*
X72350000Y-19700000D03*
%TD*%
D18*
%TO.C,L3*%
X74950000Y-20400000D03*
X76450000Y-25400000D03*
X74950000Y-25400000D03*
D19*
G36*
X76660000Y-19500001D02*
G01*
X76859999Y-19700000D01*
X76660000Y-19899999D01*
X76460001Y-19700000D01*
X76660000Y-19500001D01*
G37*
D20*
X76450000Y-20500000D03*
D21*
X76350000Y-19700000D03*
%TD*%
D18*
%TO.C,L4*%
X78950000Y-20400000D03*
X80450000Y-25400000D03*
X78950000Y-25400000D03*
D19*
G36*
X80660000Y-19500001D02*
G01*
X80859999Y-19700000D01*
X80660000Y-19899999D01*
X80460001Y-19700000D01*
X80660000Y-19500001D01*
G37*
D20*
X80450000Y-20500000D03*
D21*
X80350000Y-19700000D03*
%TD*%
D32*
%TO.C,L6*%
X100800000Y-19950000D03*
X105800000Y-18450000D03*
X105800000Y-19950000D03*
D19*
G36*
X99900001Y-18240000D02*
G01*
X100100000Y-18040001D01*
X100299999Y-18240000D01*
X100100000Y-18439999D01*
X99900001Y-18240000D01*
G37*
D33*
X100900000Y-18450000D03*
D34*
X100100000Y-18550000D03*
%TD*%
D32*
%TO.C,L7*%
X100800000Y-23750000D03*
X105800000Y-22250000D03*
X105800000Y-23750000D03*
D19*
G36*
X99900001Y-22040000D02*
G01*
X100100000Y-21840001D01*
X100299999Y-22040000D01*
X100100000Y-22239999D01*
X99900001Y-22040000D01*
G37*
D33*
X100900000Y-22250000D03*
D34*
X100100000Y-22350000D03*
%TD*%
D32*
%TO.C,L8*%
X100800000Y-27550000D03*
X105800000Y-26050000D03*
X105800000Y-27550000D03*
D19*
G36*
X99900001Y-25840000D02*
G01*
X100100000Y-25640001D01*
X100299999Y-25840000D01*
X100100000Y-26039999D01*
X99900001Y-25840000D01*
G37*
D33*
X100900000Y-26050000D03*
D34*
X100100000Y-26150000D03*
%TD*%
D18*
%TO.C,L9*%
X45650000Y-17950000D03*
X47150000Y-22950000D03*
X45650000Y-22950000D03*
D19*
G36*
X47360000Y-17050001D02*
G01*
X47559999Y-17250000D01*
X47360000Y-17449999D01*
X47160001Y-17250000D01*
X47360000Y-17050001D01*
G37*
D20*
X47150000Y-18050000D03*
D21*
X47050000Y-17250000D03*
%TD*%
D18*
%TO.C,L10*%
X121250000Y-17950000D03*
X122750000Y-22950000D03*
X121250000Y-22950000D03*
D19*
G36*
X122960000Y-17050001D02*
G01*
X123159999Y-17250000D01*
X122960000Y-17449999D01*
X122760001Y-17250000D01*
X122960000Y-17050001D01*
G37*
D20*
X122750000Y-18050000D03*
D21*
X122650000Y-17250000D03*
%TD*%
D18*
%TO.C,L11*%
X154850000Y-17950000D03*
X156350000Y-22950000D03*
X154850000Y-22950000D03*
D19*
G36*
X156560000Y-17050001D02*
G01*
X156759999Y-17250000D01*
X156560000Y-17449999D01*
X156360001Y-17250000D01*
X156560000Y-17050001D01*
G37*
D20*
X156350000Y-18050000D03*
D21*
X156250000Y-17250000D03*
%TD*%
D18*
%TO.C,L12*%
X188450000Y-17950000D03*
X189950000Y-22950000D03*
X188450000Y-22950000D03*
D19*
G36*
X190160000Y-17050001D02*
G01*
X190359999Y-17250000D01*
X190160000Y-17449999D01*
X189960001Y-17250000D01*
X190160000Y-17050001D01*
G37*
D20*
X189950000Y-18050000D03*
D21*
X189850000Y-17250000D03*
%TD*%
D18*
%TO.C,L14*%
X255650000Y-17950000D03*
X257150000Y-22950000D03*
X255650000Y-22950000D03*
D19*
G36*
X257360000Y-17050001D02*
G01*
X257559999Y-17250000D01*
X257360000Y-17449999D01*
X257160001Y-17250000D01*
X257360000Y-17050001D01*
G37*
D20*
X257150000Y-18050000D03*
D21*
X257050000Y-17250000D03*
%TD*%
D35*
%TO.C,L15*%
X291450000Y-74470000D03*
X291450000Y-77010000D03*
X291450000Y-79550000D03*
%TD*%
D36*
%TO.C,OL1*%
X142300000Y-19290000D03*
X142300000Y-21830000D03*
X142300000Y-24370000D03*
X142300000Y-26910000D03*
%TD*%
%TO.C,R1*%
G36*
G01*
X22700000Y-24949999D02*
X22700000Y-25850001D01*
G75*
G02*
X22450001Y-26100000I-249999J0D01*
G01*
X21749999Y-26100000D01*
G75*
G02*
X21500000Y-25850001I0J249999D01*
G01*
X21500000Y-24949999D01*
G75*
G02*
X21749999Y-24700000I249999J0D01*
G01*
X22450001Y-24700000D01*
G75*
G02*
X22700000Y-24949999I0J-249999D01*
G01*
G37*
G36*
G01*
X24700000Y-24949999D02*
X24700000Y-25850001D01*
G75*
G02*
X24450001Y-26100000I-249999J0D01*
G01*
X23749999Y-26100000D01*
G75*
G02*
X23500000Y-25850001I0J249999D01*
G01*
X23500000Y-24949999D01*
G75*
G02*
X23749999Y-24700000I249999J0D01*
G01*
X24450001Y-24700000D01*
G75*
G02*
X24700000Y-24949999I0J-249999D01*
G01*
G37*
%TD*%
%TO.C,R4*%
G36*
G01*
X41700000Y-48549999D02*
X41700000Y-49450001D01*
G75*
G02*
X41450001Y-49700000I-249999J0D01*
G01*
X40749999Y-49700000D01*
G75*
G02*
X40500000Y-49450001I0J249999D01*
G01*
X40500000Y-48549999D01*
G75*
G02*
X40749999Y-48300000I249999J0D01*
G01*
X41450001Y-48300000D01*
G75*
G02*
X41700000Y-48549999I0J-249999D01*
G01*
G37*
G36*
G01*
X43700000Y-48549999D02*
X43700000Y-49450001D01*
G75*
G02*
X43450001Y-49700000I-249999J0D01*
G01*
X42749999Y-49700000D01*
G75*
G02*
X42500000Y-49450001I0J249999D01*
G01*
X42500000Y-48549999D01*
G75*
G02*
X42749999Y-48300000I249999J0D01*
G01*
X43450001Y-48300000D01*
G75*
G02*
X43700000Y-48549999I0J-249999D01*
G01*
G37*
%TD*%
%TO.C,R5*%
G36*
G01*
X25400000Y-19350001D02*
X25400000Y-18449999D01*
G75*
G02*
X25649999Y-18200000I249999J0D01*
G01*
X26350001Y-18200000D01*
G75*
G02*
X26600000Y-18449999I0J-249999D01*
G01*
X26600000Y-19350001D01*
G75*
G02*
X26350001Y-19600000I-249999J0D01*
G01*
X25649999Y-19600000D01*
G75*
G02*
X25400000Y-19350001I0J249999D01*
G01*
G37*
G36*
G01*
X23400000Y-19350001D02*
X23400000Y-18449999D01*
G75*
G02*
X23649999Y-18200000I249999J0D01*
G01*
X24350001Y-18200000D01*
G75*
G02*
X24600000Y-18449999I0J-249999D01*
G01*
X24600000Y-19350001D01*
G75*
G02*
X24350001Y-19600000I-249999J0D01*
G01*
X23649999Y-19600000D01*
G75*
G02*
X23400000Y-19350001I0J249999D01*
G01*
G37*
%TD*%
%TO.C,R6*%
G36*
G01*
X25400000Y-21650001D02*
X25400000Y-20749999D01*
G75*
G02*
X25649999Y-20500000I249999J0D01*
G01*
X26350001Y-20500000D01*
G75*
G02*
X26600000Y-20749999I0J-249999D01*
G01*
X26600000Y-21650001D01*
G75*
G02*
X26350001Y-21900000I-249999J0D01*
G01*
X25649999Y-21900000D01*
G75*
G02*
X25400000Y-21650001I0J249999D01*
G01*
G37*
G36*
G01*
X23400000Y-21650001D02*
X23400000Y-20749999D01*
G75*
G02*
X23649999Y-20500000I249999J0D01*
G01*
X24350001Y-20500000D01*
G75*
G02*
X24600000Y-20749999I0J-249999D01*
G01*
X24600000Y-21650001D01*
G75*
G02*
X24350001Y-21900000I-249999J0D01*
G01*
X23649999Y-21900000D01*
G75*
G02*
X23400000Y-21650001I0J249999D01*
G01*
G37*
%TD*%
%TO.C,R7*%
G36*
G01*
X37100001Y-25625000D02*
X36199999Y-25625000D01*
G75*
G02*
X35950000Y-25375001I0J249999D01*
G01*
X35950000Y-24674999D01*
G75*
G02*
X36199999Y-24425000I249999J0D01*
G01*
X37100001Y-24425000D01*
G75*
G02*
X37350000Y-24674999I0J-249999D01*
G01*
X37350000Y-25375001D01*
G75*
G02*
X37100001Y-25625000I-249999J0D01*
G01*
G37*
G36*
G01*
X37100001Y-27625000D02*
X36199999Y-27625000D01*
G75*
G02*
X35950000Y-27375001I0J249999D01*
G01*
X35950000Y-26674999D01*
G75*
G02*
X36199999Y-26425000I249999J0D01*
G01*
X37100001Y-26425000D01*
G75*
G02*
X37350000Y-26674999I0J-249999D01*
G01*
X37350000Y-27375001D01*
G75*
G02*
X37100001Y-27625000I-249999J0D01*
G01*
G37*
%TD*%
%TO.C,R8*%
G36*
G01*
X30550001Y-25625000D02*
X29649999Y-25625000D01*
G75*
G02*
X29400000Y-25375001I0J249999D01*
G01*
X29400000Y-24674999D01*
G75*
G02*
X29649999Y-24425000I249999J0D01*
G01*
X30550001Y-24425000D01*
G75*
G02*
X30800000Y-24674999I0J-249999D01*
G01*
X30800000Y-25375001D01*
G75*
G02*
X30550001Y-25625000I-249999J0D01*
G01*
G37*
G36*
G01*
X30550001Y-27625000D02*
X29649999Y-27625000D01*
G75*
G02*
X29400000Y-27375001I0J249999D01*
G01*
X29400000Y-26674999D01*
G75*
G02*
X29649999Y-26425000I249999J0D01*
G01*
X30550001Y-26425000D01*
G75*
G02*
X30800000Y-26674999I0J-249999D01*
G01*
X30800000Y-27375001D01*
G75*
G02*
X30550001Y-27625000I-249999J0D01*
G01*
G37*
%TD*%
%TO.C,R9*%
G36*
G01*
X58110001Y-47640000D02*
X57209999Y-47640000D01*
G75*
G02*
X56960000Y-47390001I0J249999D01*
G01*
X56960000Y-46689999D01*
G75*
G02*
X57209999Y-46440000I249999J0D01*
G01*
X58110001Y-46440000D01*
G75*
G02*
X58360000Y-46689999I0J-249999D01*
G01*
X58360000Y-47390001D01*
G75*
G02*
X58110001Y-47640000I-249999J0D01*
G01*
G37*
G36*
G01*
X58110001Y-49640000D02*
X57209999Y-49640000D01*
G75*
G02*
X56960000Y-49390001I0J249999D01*
G01*
X56960000Y-48689999D01*
G75*
G02*
X57209999Y-48440000I249999J0D01*
G01*
X58110001Y-48440000D01*
G75*
G02*
X58360000Y-48689999I0J-249999D01*
G01*
X58360000Y-49390001D01*
G75*
G02*
X58110001Y-49640000I-249999J0D01*
G01*
G37*
%TD*%
D37*
%TO.C,ResetSW1*%
X44200000Y-63350000D03*
X38000000Y-63350000D03*
X44200000Y-67050000D03*
X38000000Y-67050000D03*
%TD*%
D12*
%TO.C,SW_6*%
X288290000Y-35460000D03*
X294740000Y-32920000D03*
D13*
X287600000Y-38000000D03*
X296600000Y-38000000D03*
D14*
X292100000Y-38000000D03*
D13*
X287020000Y-38000000D03*
X297180000Y-38000000D03*
%TD*%
D12*
%TO.C,SW_9*%
X288290000Y-84660000D03*
X294740000Y-82120000D03*
D13*
X287600000Y-87200000D03*
X296600000Y-87200000D03*
D14*
X292100000Y-87200000D03*
D13*
X287020000Y-87200000D03*
X297180000Y-87200000D03*
%TD*%
D12*
%TO.C,SW_14*%
X36290000Y-84660000D03*
X42740000Y-82120000D03*
D13*
X35600000Y-87200000D03*
X44600000Y-87200000D03*
D14*
X40100000Y-87200000D03*
D13*
X35020000Y-87200000D03*
X45180000Y-87200000D03*
%TD*%
D12*
%TO.C,SW_15*%
X36290000Y-101060000D03*
X42740000Y-98520000D03*
D13*
X35600000Y-103600000D03*
X44600000Y-103600000D03*
D14*
X40100000Y-103600000D03*
D13*
X35020000Y-103600000D03*
X45180000Y-103600000D03*
%TD*%
D12*
%TO.C,SW_16*%
X19490000Y-35460000D03*
X25940000Y-32920000D03*
D13*
X18800000Y-38000000D03*
X27800000Y-38000000D03*
D14*
X23300000Y-38000000D03*
D13*
X18220000Y-38000000D03*
X28380000Y-38000000D03*
%TD*%
D12*
%TO.C,SW_29*%
X53090000Y-84660000D03*
X59540000Y-82120000D03*
D13*
X52400000Y-87200000D03*
X61400000Y-87200000D03*
D14*
X56900000Y-87200000D03*
D13*
X51820000Y-87200000D03*
X61980000Y-87200000D03*
%TD*%
D12*
%TO.C,SW_30*%
X86690000Y-101060000D03*
X93140000Y-98520000D03*
D13*
X86000000Y-103600000D03*
X95000000Y-103600000D03*
D14*
X90500000Y-103600000D03*
D13*
X85420000Y-103600000D03*
X95580000Y-103600000D03*
%TD*%
D12*
%TO.C,SW_31*%
X69890000Y-35460000D03*
X76340000Y-32920000D03*
D13*
X69200000Y-38000000D03*
X78200000Y-38000000D03*
D14*
X73700000Y-38000000D03*
D13*
X68620000Y-38000000D03*
X78780000Y-38000000D03*
%TD*%
D12*
%TO.C,SW_34*%
X103490000Y-84660000D03*
X109940000Y-82120000D03*
D13*
X102800000Y-87200000D03*
X111800000Y-87200000D03*
D14*
X107300000Y-87200000D03*
D13*
X102220000Y-87200000D03*
X112380000Y-87200000D03*
%TD*%
D12*
%TO.C,SW_36*%
X86690000Y-35460000D03*
X93140000Y-32920000D03*
D13*
X86000000Y-38000000D03*
X95000000Y-38000000D03*
D14*
X90500000Y-38000000D03*
D13*
X85420000Y-38000000D03*
X95580000Y-38000000D03*
%TD*%
D12*
%TO.C,SW_41*%
X103490000Y-35460000D03*
X109940000Y-32920000D03*
D13*
X102800000Y-38000000D03*
X111800000Y-38000000D03*
D14*
X107300000Y-38000000D03*
D13*
X102220000Y-38000000D03*
X112380000Y-38000000D03*
%TD*%
D12*
%TO.C,SW_42*%
X111890000Y-51860000D03*
X118340000Y-49320000D03*
D13*
X111200000Y-54400000D03*
X120200000Y-54400000D03*
D14*
X115700000Y-54400000D03*
D13*
X110620000Y-54400000D03*
X120780000Y-54400000D03*
%TD*%
D12*
%TO.C,SW_43*%
X111890000Y-68260000D03*
X118340000Y-65720000D03*
D13*
X111200000Y-70800000D03*
X120200000Y-70800000D03*
D14*
X115700000Y-70800000D03*
D13*
X110620000Y-70800000D03*
X120780000Y-70800000D03*
%TD*%
D12*
%TO.C,SW_46*%
X120290000Y-35460000D03*
X126740000Y-32920000D03*
D13*
X119600000Y-38000000D03*
X128600000Y-38000000D03*
D14*
X124100000Y-38000000D03*
D13*
X119020000Y-38000000D03*
X129180000Y-38000000D03*
%TD*%
D12*
%TO.C,SW_47*%
X128690000Y-51860000D03*
X135140000Y-49320000D03*
D13*
X128000000Y-54400000D03*
X137000000Y-54400000D03*
D14*
X132500000Y-54400000D03*
D13*
X127420000Y-54400000D03*
X137580000Y-54400000D03*
%TD*%
D12*
%TO.C,SW_48*%
X128690000Y-68260000D03*
X135140000Y-65720000D03*
D13*
X128000000Y-70800000D03*
X137000000Y-70800000D03*
D14*
X132500000Y-70800000D03*
D13*
X127420000Y-70800000D03*
X137580000Y-70800000D03*
%TD*%
D12*
%TO.C,SW_49*%
X120290000Y-84660000D03*
X126740000Y-82120000D03*
D13*
X119600000Y-87200000D03*
X128600000Y-87200000D03*
D14*
X124100000Y-87200000D03*
D13*
X119020000Y-87200000D03*
X129180000Y-87200000D03*
%TD*%
D12*
%TO.C,SW_50*%
X153890000Y-101060000D03*
X160340000Y-98520000D03*
D13*
X153200000Y-103600000D03*
X162200000Y-103600000D03*
D14*
X157700000Y-103600000D03*
D13*
X152620000Y-103600000D03*
X162780000Y-103600000D03*
%TD*%
D12*
%TO.C,SW_51*%
X137090000Y-35460000D03*
X143540000Y-32920000D03*
D13*
X136400000Y-38000000D03*
X145400000Y-38000000D03*
D14*
X140900000Y-38000000D03*
D13*
X135820000Y-38000000D03*
X145980000Y-38000000D03*
%TD*%
D12*
%TO.C,SW_52*%
X145490000Y-51860000D03*
X151940000Y-49320000D03*
D13*
X144800000Y-54400000D03*
X153800000Y-54400000D03*
D14*
X149300000Y-54400000D03*
D13*
X144220000Y-54400000D03*
X154380000Y-54400000D03*
%TD*%
D12*
%TO.C,SW_53*%
X145490000Y-68260000D03*
X151940000Y-65720000D03*
D13*
X144800000Y-70800000D03*
X153800000Y-70800000D03*
D14*
X149300000Y-70800000D03*
D13*
X144220000Y-70800000D03*
X154380000Y-70800000D03*
%TD*%
D12*
%TO.C,SW_54*%
X137090000Y-84660000D03*
X143540000Y-82120000D03*
D13*
X136400000Y-87200000D03*
X145400000Y-87200000D03*
D14*
X140900000Y-87200000D03*
D13*
X135820000Y-87200000D03*
X145980000Y-87200000D03*
%TD*%
D12*
%TO.C,SW_56*%
X153890000Y-35460000D03*
X160340000Y-32920000D03*
D13*
X153200000Y-38000000D03*
X162200000Y-38000000D03*
D14*
X157700000Y-38000000D03*
D13*
X152620000Y-38000000D03*
X162780000Y-38000000D03*
%TD*%
D12*
%TO.C,SW_57*%
X162290000Y-51860000D03*
X168740000Y-49320000D03*
D13*
X161600000Y-54400000D03*
X170600000Y-54400000D03*
D14*
X166100000Y-54400000D03*
D13*
X161020000Y-54400000D03*
X171180000Y-54400000D03*
%TD*%
D12*
%TO.C,SW_58*%
X162290000Y-68260000D03*
X168740000Y-65720000D03*
D13*
X161600000Y-70800000D03*
X170600000Y-70800000D03*
D14*
X166100000Y-70800000D03*
D13*
X161020000Y-70800000D03*
X171180000Y-70800000D03*
%TD*%
D12*
%TO.C,SW_59*%
X153890000Y-84660000D03*
X160340000Y-82120000D03*
D13*
X153200000Y-87200000D03*
X162200000Y-87200000D03*
D14*
X157700000Y-87200000D03*
D13*
X152620000Y-87200000D03*
X162780000Y-87200000D03*
%TD*%
D12*
%TO.C,SW_61*%
X170690000Y-35460000D03*
X177140000Y-32920000D03*
D13*
X170000000Y-38000000D03*
X179000000Y-38000000D03*
D14*
X174500000Y-38000000D03*
D13*
X169420000Y-38000000D03*
X179580000Y-38000000D03*
%TD*%
D12*
%TO.C,SW_62*%
X179090000Y-51860000D03*
X185540000Y-49320000D03*
D13*
X178400000Y-54400000D03*
X187400000Y-54400000D03*
D14*
X182900000Y-54400000D03*
D13*
X177820000Y-54400000D03*
X187980000Y-54400000D03*
%TD*%
D12*
%TO.C,SW_63*%
X179090000Y-68260000D03*
X185540000Y-65720000D03*
D13*
X178400000Y-70800000D03*
X187400000Y-70800000D03*
D14*
X182900000Y-70800000D03*
D13*
X177820000Y-70800000D03*
X187980000Y-70800000D03*
%TD*%
D12*
%TO.C,SW_64*%
X170690000Y-84660000D03*
X177140000Y-82120000D03*
D13*
X170000000Y-87200000D03*
X179000000Y-87200000D03*
D14*
X174500000Y-87200000D03*
D13*
X169420000Y-87200000D03*
X179580000Y-87200000D03*
%TD*%
D12*
%TO.C,SW_65*%
X170690000Y-101060000D03*
X177140000Y-98520000D03*
D13*
X170000000Y-103600000D03*
X179000000Y-103600000D03*
D14*
X174500000Y-103600000D03*
D13*
X169420000Y-103600000D03*
X179580000Y-103600000D03*
%TD*%
D12*
%TO.C,SW_67*%
X195890000Y-51860000D03*
X202340000Y-49320000D03*
D13*
X195200000Y-54400000D03*
X204200000Y-54400000D03*
D14*
X199700000Y-54400000D03*
D13*
X194620000Y-54400000D03*
X204780000Y-54400000D03*
%TD*%
D12*
%TO.C,SW_68*%
X195890000Y-68260000D03*
X202340000Y-65720000D03*
D13*
X195200000Y-70800000D03*
X204200000Y-70800000D03*
D14*
X199700000Y-70800000D03*
D13*
X194620000Y-70800000D03*
X204780000Y-70800000D03*
%TD*%
D12*
%TO.C,SW_69*%
X187490000Y-84660000D03*
X193940000Y-82120000D03*
D13*
X186800000Y-87200000D03*
X195800000Y-87200000D03*
D14*
X191300000Y-87200000D03*
D13*
X186220000Y-87200000D03*
X196380000Y-87200000D03*
%TD*%
D12*
%TO.C,SW_71*%
X204290000Y-35460000D03*
X210740000Y-32920000D03*
D13*
X203600000Y-38000000D03*
X212600000Y-38000000D03*
D14*
X208100000Y-38000000D03*
D13*
X203020000Y-38000000D03*
X213180000Y-38000000D03*
%TD*%
D12*
%TO.C,SW_72*%
X212690000Y-51860000D03*
X219140000Y-49320000D03*
D13*
X212000000Y-54400000D03*
X221000000Y-54400000D03*
D14*
X216500000Y-54400000D03*
D13*
X211420000Y-54400000D03*
X221580000Y-54400000D03*
%TD*%
D12*
%TO.C,SW_73*%
X212690000Y-68260000D03*
X219140000Y-65720000D03*
D13*
X212000000Y-70800000D03*
X221000000Y-70800000D03*
D14*
X216500000Y-70800000D03*
D13*
X211420000Y-70800000D03*
X221580000Y-70800000D03*
%TD*%
D12*
%TO.C,SW_74*%
X204290000Y-84660000D03*
X210740000Y-82120000D03*
D13*
X203600000Y-87200000D03*
X212600000Y-87200000D03*
D14*
X208100000Y-87200000D03*
D13*
X203020000Y-87200000D03*
X213180000Y-87200000D03*
%TD*%
D12*
%TO.C,SW_76*%
X187490000Y-35460000D03*
X193940000Y-32920000D03*
D13*
X186800000Y-38000000D03*
X195800000Y-38000000D03*
D14*
X191300000Y-38000000D03*
D13*
X186220000Y-38000000D03*
X196380000Y-38000000D03*
%TD*%
D12*
%TO.C,SW_78*%
X229490000Y-68260000D03*
X235940000Y-65720000D03*
D13*
X228800000Y-70800000D03*
X237800000Y-70800000D03*
D14*
X233300000Y-70800000D03*
D13*
X228220000Y-70800000D03*
X238380000Y-70800000D03*
%TD*%
D12*
%TO.C,SW_79*%
X221090000Y-84660000D03*
X227540000Y-82120000D03*
D13*
X220400000Y-87200000D03*
X229400000Y-87200000D03*
D14*
X224900000Y-87200000D03*
D13*
X219820000Y-87200000D03*
X229980000Y-87200000D03*
%TD*%
D12*
%TO.C,SW_81*%
X237890000Y-35460000D03*
X244340000Y-32920000D03*
D13*
X237200000Y-38000000D03*
X246200000Y-38000000D03*
D14*
X241700000Y-38000000D03*
D13*
X236620000Y-38000000D03*
X246780000Y-38000000D03*
%TD*%
D12*
%TO.C,SW_82*%
X246290000Y-51860000D03*
X252740000Y-49320000D03*
D13*
X245600000Y-54400000D03*
X254600000Y-54400000D03*
D14*
X250100000Y-54400000D03*
D13*
X245020000Y-54400000D03*
X255180000Y-54400000D03*
%TD*%
D12*
%TO.C,SW_83*%
X246290000Y-68260000D03*
X252740000Y-65720000D03*
D13*
X245600000Y-70800000D03*
X254600000Y-70800000D03*
D14*
X250100000Y-70800000D03*
D13*
X245020000Y-70800000D03*
X255180000Y-70800000D03*
%TD*%
D12*
%TO.C,SW_84*%
X237890000Y-84660000D03*
X244340000Y-82120000D03*
D13*
X237200000Y-87200000D03*
X246200000Y-87200000D03*
D14*
X241700000Y-87200000D03*
D13*
X236620000Y-87200000D03*
X246780000Y-87200000D03*
%TD*%
D12*
%TO.C,SW_86*%
X221090000Y-35460000D03*
X227540000Y-32920000D03*
D13*
X220400000Y-38000000D03*
X229400000Y-38000000D03*
D14*
X224900000Y-38000000D03*
D13*
X219820000Y-38000000D03*
X229980000Y-38000000D03*
%TD*%
D12*
%TO.C,SW_87*%
X229490000Y-51860000D03*
X235940000Y-49320000D03*
D13*
X228800000Y-54400000D03*
X237800000Y-54400000D03*
D14*
X233300000Y-54400000D03*
D13*
X228220000Y-54400000D03*
X238380000Y-54400000D03*
%TD*%
D12*
%TO.C,SW_89*%
X254690000Y-84660000D03*
X261140000Y-82120000D03*
D13*
X254000000Y-87200000D03*
X263000000Y-87200000D03*
D14*
X258500000Y-87200000D03*
D13*
X253420000Y-87200000D03*
X263580000Y-87200000D03*
%TD*%
D12*
%TO.C,SW_90*%
X288290000Y-101060000D03*
X294740000Y-98520000D03*
D13*
X287600000Y-103600000D03*
X296600000Y-103600000D03*
D14*
X292100000Y-103600000D03*
D13*
X287020000Y-103600000D03*
X297180000Y-103600000D03*
%TD*%
D12*
%TO.C,SW_91*%
X271490000Y-35460000D03*
X277940000Y-32920000D03*
D13*
X270800000Y-38000000D03*
X279800000Y-38000000D03*
D14*
X275300000Y-38000000D03*
D13*
X270220000Y-38000000D03*
X280380000Y-38000000D03*
%TD*%
D12*
%TO.C,SW_94*%
X271490000Y-84660000D03*
X277940000Y-82120000D03*
D13*
X270800000Y-87200000D03*
X279800000Y-87200000D03*
D14*
X275300000Y-87200000D03*
D13*
X270220000Y-87200000D03*
X280380000Y-87200000D03*
%TD*%
D12*
%TO.C,SW_95*%
X271490000Y-101060000D03*
X277940000Y-98520000D03*
D13*
X270800000Y-103600000D03*
X279800000Y-103600000D03*
D14*
X275300000Y-103600000D03*
D13*
X270220000Y-103600000D03*
X280380000Y-103600000D03*
%TD*%
D12*
%TO.C,SW_96*%
X254690000Y-35460000D03*
X261140000Y-32920000D03*
D13*
X254000000Y-38000000D03*
X263000000Y-38000000D03*
D14*
X258500000Y-38000000D03*
D13*
X253420000Y-38000000D03*
X263580000Y-38000000D03*
%TD*%
D12*
%TO.C,SW_10_1*%
X19490000Y-101060000D03*
X25940000Y-98520000D03*
D13*
X18800000Y-103600000D03*
X27800000Y-103600000D03*
D14*
X23300000Y-103600000D03*
D13*
X18220000Y-103600000D03*
X28380000Y-103600000D03*
%TD*%
D12*
%TO.C,SW_12_1*%
X43910000Y-56940000D03*
X37460000Y-59480000D03*
D13*
X44600000Y-54400000D03*
X35600000Y-54400000D03*
D14*
X40100000Y-54400000D03*
D13*
X45180000Y-54400000D03*
X35020000Y-54400000D03*
%TD*%
D12*
%TO.C,SW_12_2*%
X52310000Y-56940000D03*
X45860000Y-59480000D03*
D13*
X53000000Y-54400000D03*
X44000000Y-54400000D03*
D14*
X48500000Y-54400000D03*
D13*
X53580000Y-54400000D03*
X43420000Y-54400000D03*
%TD*%
D12*
%TO.C,SW_13_1*%
X43910000Y-73340000D03*
X37460000Y-75880000D03*
D13*
X44600000Y-70800000D03*
X35600000Y-70800000D03*
D14*
X40100000Y-70800000D03*
D13*
X45180000Y-70800000D03*
X35020000Y-70800000D03*
%TD*%
D12*
%TO.C,SW_13_2*%
X52310000Y-73340000D03*
X45860000Y-75880000D03*
D13*
X53000000Y-70800000D03*
X44000000Y-70800000D03*
D14*
X48500000Y-70800000D03*
D13*
X53580000Y-70800000D03*
X43420000Y-70800000D03*
%TD*%
D12*
%TO.C,SW_17_1*%
X19490000Y-51860000D03*
X25940000Y-49320000D03*
D13*
X18800000Y-54400000D03*
X27800000Y-54400000D03*
D14*
X23300000Y-54400000D03*
D13*
X18220000Y-54400000D03*
X28380000Y-54400000D03*
%TD*%
D12*
%TO.C,SW_18_1*%
X19490000Y-68260000D03*
X25940000Y-65720000D03*
D13*
X18800000Y-70800000D03*
X27800000Y-70800000D03*
D14*
X23300000Y-70800000D03*
D13*
X18220000Y-70800000D03*
X28380000Y-70800000D03*
%TD*%
D12*
%TO.C,SW_19_1*%
X19490000Y-84660000D03*
X25940000Y-82120000D03*
D13*
X18800000Y-87200000D03*
X27800000Y-87200000D03*
D14*
X23300000Y-87200000D03*
D13*
X18220000Y-87200000D03*
X28380000Y-87200000D03*
%TD*%
D12*
%TO.C,SW_20_1*%
X53090000Y-101060000D03*
X59540000Y-98520000D03*
D13*
X52400000Y-103600000D03*
X61400000Y-103600000D03*
D14*
X56900000Y-103600000D03*
D13*
X51820000Y-103600000D03*
X61980000Y-103600000D03*
%TD*%
D12*
%TO.C,SW_23_1*%
X69890000Y-68260000D03*
X76340000Y-65720000D03*
D13*
X69200000Y-70800000D03*
X78200000Y-70800000D03*
D14*
X73700000Y-70800000D03*
D13*
X68620000Y-70800000D03*
X78780000Y-70800000D03*
%TD*%
D12*
%TO.C,SW_24_1*%
X69890000Y-84660000D03*
X76340000Y-82120000D03*
D13*
X69200000Y-87200000D03*
X78200000Y-87200000D03*
D14*
X73700000Y-87200000D03*
D13*
X68620000Y-87200000D03*
X78780000Y-87200000D03*
%TD*%
D12*
%TO.C,SW_25_1*%
X69890000Y-101060000D03*
X76340000Y-98520000D03*
D13*
X69200000Y-103600000D03*
X78200000Y-103600000D03*
D14*
X73700000Y-103600000D03*
D13*
X68620000Y-103600000D03*
X78780000Y-103600000D03*
%TD*%
D12*
%TO.C,SW_27_1*%
X60710000Y-56940000D03*
X54260000Y-59480000D03*
D13*
X61400000Y-54400000D03*
X52400000Y-54400000D03*
D14*
X56900000Y-54400000D03*
D13*
X61980000Y-54400000D03*
X51820000Y-54400000D03*
%TD*%
D12*
%TO.C,SW_27_2*%
X61490000Y-51860000D03*
X67940000Y-49320000D03*
D13*
X60800000Y-54400000D03*
X69800000Y-54400000D03*
D14*
X65300000Y-54400000D03*
D13*
X60220000Y-54400000D03*
X70380000Y-54400000D03*
%TD*%
D12*
%TO.C,SW_28_1*%
X53090000Y-68260000D03*
X59540000Y-65720000D03*
D13*
X52400000Y-70800000D03*
X61400000Y-70800000D03*
D14*
X56900000Y-70800000D03*
D13*
X51820000Y-70800000D03*
X61980000Y-70800000D03*
%TD*%
D12*
%TO.C,SW_28_2*%
X61490000Y-68260000D03*
X67940000Y-65720000D03*
D13*
X60800000Y-70800000D03*
X69800000Y-70800000D03*
D14*
X65300000Y-70800000D03*
D13*
X60220000Y-70800000D03*
X70380000Y-70800000D03*
%TD*%
D12*
%TO.C,SW_32_1*%
X69890000Y-51860000D03*
X76340000Y-49320000D03*
D13*
X69200000Y-54400000D03*
X78200000Y-54400000D03*
D14*
X73700000Y-54400000D03*
D13*
X68620000Y-54400000D03*
X78780000Y-54400000D03*
%TD*%
D12*
%TO.C,SW_35_1*%
X103490000Y-101060000D03*
X109940000Y-98520000D03*
D13*
X102800000Y-103600000D03*
X111800000Y-103600000D03*
D14*
X107300000Y-103600000D03*
D13*
X102220000Y-103600000D03*
X112380000Y-103600000D03*
%TD*%
D12*
%TO.C,SW_37_1*%
X95090000Y-51860000D03*
X101540000Y-49320000D03*
D13*
X94400000Y-54400000D03*
X103400000Y-54400000D03*
D14*
X98900000Y-54400000D03*
D13*
X93820000Y-54400000D03*
X103980000Y-54400000D03*
%TD*%
D12*
%TO.C,SW_38_1*%
X95090000Y-68260000D03*
X101540000Y-65720000D03*
D13*
X94400000Y-70800000D03*
X103400000Y-70800000D03*
D14*
X98900000Y-70800000D03*
D13*
X93820000Y-70800000D03*
X103980000Y-70800000D03*
%TD*%
D12*
%TO.C,SW_39_1*%
X86690000Y-84660000D03*
X93140000Y-82120000D03*
D13*
X86000000Y-87200000D03*
X95000000Y-87200000D03*
D14*
X90500000Y-87200000D03*
D13*
X85420000Y-87200000D03*
X95580000Y-87200000D03*
%TD*%
D12*
%TO.C,SW_40_1*%
X120290000Y-101060000D03*
X126740000Y-98520000D03*
D13*
X119600000Y-103600000D03*
X128600000Y-103600000D03*
D14*
X124100000Y-103600000D03*
D13*
X119020000Y-103600000D03*
X129180000Y-103600000D03*
%TD*%
D12*
%TO.C,SW_45_1*%
X137090000Y-101060000D03*
X143540000Y-98520000D03*
D13*
X136400000Y-103600000D03*
X145400000Y-103600000D03*
D14*
X140900000Y-103600000D03*
D13*
X135820000Y-103600000D03*
X145980000Y-103600000D03*
%TD*%
D12*
%TO.C,SW_60_1*%
X187490000Y-101060000D03*
X193940000Y-98520000D03*
D13*
X186800000Y-103600000D03*
X195800000Y-103600000D03*
D14*
X191300000Y-103600000D03*
D13*
X186220000Y-103600000D03*
X196380000Y-103600000D03*
%TD*%
D12*
%TO.C,SW_70_1*%
X221090000Y-101060000D03*
X227540000Y-98520000D03*
D13*
X220400000Y-103600000D03*
X229400000Y-103600000D03*
D14*
X224900000Y-103600000D03*
D13*
X219820000Y-103600000D03*
X229980000Y-103600000D03*
%TD*%
D12*
%TO.C,SW_75_1*%
X211910000Y-106140000D03*
X205460000Y-108680000D03*
D13*
X212600000Y-103600000D03*
X203600000Y-103600000D03*
D14*
X208100000Y-103600000D03*
D13*
X213180000Y-103600000D03*
X203020000Y-103600000D03*
%TD*%
D12*
%TO.C,SW_7_1*%
X288290000Y-51860000D03*
X294740000Y-49320000D03*
D13*
X287600000Y-54400000D03*
X296600000Y-54400000D03*
D14*
X292100000Y-54400000D03*
D13*
X287020000Y-54400000D03*
X297180000Y-54400000D03*
%TD*%
D12*
%TO.C,SW_80_1*%
X254690000Y-101060000D03*
X261140000Y-98520000D03*
D13*
X254000000Y-103600000D03*
X263000000Y-103600000D03*
D14*
X258500000Y-103600000D03*
D13*
X253420000Y-103600000D03*
X263580000Y-103600000D03*
%TD*%
D12*
%TO.C,SW_85_1*%
X237890000Y-101060000D03*
X244340000Y-98520000D03*
D13*
X237200000Y-103600000D03*
X246200000Y-103600000D03*
D14*
X241700000Y-103600000D03*
D13*
X236620000Y-103600000D03*
X246780000Y-103600000D03*
%TD*%
D12*
%TO.C,SW_8_1*%
X288290000Y-68260000D03*
X294740000Y-65720000D03*
D13*
X287600000Y-70800000D03*
X296600000Y-70800000D03*
D14*
X292100000Y-70800000D03*
D13*
X287020000Y-70800000D03*
X297180000Y-70800000D03*
%TD*%
D12*
%TO.C,SW_97_1*%
X263090000Y-51860000D03*
X269540000Y-49320000D03*
D13*
X262400000Y-54400000D03*
X271400000Y-54400000D03*
D14*
X266900000Y-54400000D03*
D13*
X261820000Y-54400000D03*
X271980000Y-54400000D03*
%TD*%
D12*
%TO.C,SW_98_1*%
X263090000Y-68260000D03*
X269540000Y-65720000D03*
D13*
X262400000Y-70800000D03*
X271400000Y-70800000D03*
D14*
X266900000Y-70800000D03*
D13*
X261820000Y-70800000D03*
X271980000Y-70800000D03*
%TD*%
D15*
%TO.C,SW_RE2*%
X125000000Y-20400000D03*
D16*
X125000000Y-22900000D03*
X125000000Y-25400000D03*
D17*
X132500000Y-17300000D03*
X132500000Y-28500000D03*
D16*
X139500000Y-20400000D03*
X139500000Y-25400000D03*
%TD*%
D15*
%TO.C,SW_RE3*%
X158600000Y-20400000D03*
D16*
X158600000Y-22900000D03*
X158600000Y-25400000D03*
D17*
X166100000Y-17300000D03*
X166100000Y-28500000D03*
D16*
X173100000Y-20400000D03*
X173100000Y-25400000D03*
%TD*%
D15*
%TO.C,SW_RE4*%
X192200000Y-20400000D03*
D16*
X192200000Y-22900000D03*
X192200000Y-25400000D03*
D17*
X199700000Y-17300000D03*
X199700000Y-28500000D03*
D16*
X206700000Y-20400000D03*
X206700000Y-25400000D03*
%TD*%
D15*
%TO.C,SW_RE5*%
X225800000Y-20400000D03*
D16*
X225800000Y-22900000D03*
X225800000Y-25400000D03*
D17*
X233300000Y-17300000D03*
X233300000Y-28500000D03*
D16*
X240300000Y-20400000D03*
X240300000Y-25400000D03*
%TD*%
D15*
%TO.C,SW_RE6*%
X259400000Y-20400000D03*
D16*
X259400000Y-22900000D03*
X259400000Y-25400000D03*
D17*
X266900000Y-17300000D03*
X266900000Y-28500000D03*
D16*
X273900000Y-20400000D03*
X273900000Y-25400000D03*
%TD*%
D38*
%TO.C,U1*%
X46300000Y-46200000D03*
X46300000Y-45700000D03*
X46300000Y-45200000D03*
X46300000Y-44700000D03*
X46300000Y-44200000D03*
X46300000Y-43700000D03*
X46300000Y-43200000D03*
X46300000Y-42700000D03*
X46300000Y-42200000D03*
X46300000Y-41700000D03*
X46300000Y-41200000D03*
D39*
X47200000Y-40300000D03*
X47700000Y-40300000D03*
X48200000Y-40300000D03*
X48700000Y-40300000D03*
X49200000Y-40300000D03*
X49700000Y-40300000D03*
X50200000Y-40300000D03*
X50700000Y-40300000D03*
X51200000Y-40300000D03*
X51700000Y-40300000D03*
X52200000Y-40300000D03*
D38*
X53100000Y-41200000D03*
X53100000Y-41700000D03*
X53100000Y-42200000D03*
X53100000Y-42700000D03*
X53100000Y-43200000D03*
X53100000Y-43700000D03*
X53100000Y-44200000D03*
X53100000Y-44700000D03*
X53100000Y-45200000D03*
X53100000Y-45700000D03*
X53100000Y-46200000D03*
D39*
X52200000Y-47100000D03*
X51700000Y-47100000D03*
X51200000Y-47100000D03*
X50700000Y-47100000D03*
X50200000Y-47100000D03*
X49700000Y-47100000D03*
X49200000Y-47100000D03*
X48700000Y-47100000D03*
X48200000Y-47100000D03*
X47700000Y-47100000D03*
X47200000Y-47100000D03*
D40*
X51631250Y-41768750D03*
X51631250Y-43056250D03*
X51631250Y-44343750D03*
X51631250Y-45631250D03*
X50343750Y-41768750D03*
X50343750Y-43056250D03*
X50343750Y-44343750D03*
X50343750Y-45631250D03*
X49056250Y-41768750D03*
X49056250Y-43056250D03*
X49056250Y-44343750D03*
X49056250Y-45631250D03*
X47768750Y-41768750D03*
X47768750Y-43056250D03*
X47768750Y-44343750D03*
X47768750Y-45631250D03*
%TD*%
D41*
%TO.C,Y1*%
X47150000Y-33350000D03*
X47150000Y-36250000D03*
X49450000Y-36250000D03*
X49450000Y-33350000D03*
%TD*%
D42*
%TO.C,J1*%
X29075000Y-17965000D03*
X37725000Y-17965000D03*
X37725000Y-21345000D03*
X29075000Y-21345000D03*
D43*
X30425000Y-20975000D03*
X31275000Y-20975000D03*
X32125000Y-20975000D03*
X32975000Y-20975000D03*
X33825000Y-20975000D03*
X34675000Y-20975000D03*
X35525000Y-20975000D03*
X36375000Y-20975000D03*
X36375000Y-22325000D03*
X35525000Y-22325000D03*
X34675000Y-22325000D03*
X33825000Y-22325000D03*
X32975000Y-22325000D03*
X32125000Y-22325000D03*
X31275000Y-22325000D03*
X30425000Y-22325000D03*
%TD*%
D12*
%TO.C,SW_23_3*%
X78290000Y-68260000D03*
X84740000Y-65720000D03*
D13*
X77600000Y-70800000D03*
X86600000Y-70800000D03*
D14*
X82100000Y-70800000D03*
D13*
X77020000Y-70800000D03*
X87180000Y-70800000D03*
%TD*%
D12*
%TO.C,SW_32_3*%
X78290000Y-51860000D03*
X84740000Y-49320000D03*
D13*
X77600000Y-54400000D03*
X86600000Y-54400000D03*
D14*
X82100000Y-54400000D03*
D13*
X77020000Y-54400000D03*
X87180000Y-54400000D03*
%TD*%
M02*
