%TF.GenerationSoftware,KiCad,Pcbnew,(5.1.9-0-10_14)*%
%TF.CreationDate,2021-02-02T05:51:32+09:00*%
%TF.ProjectId,Unison,556e6973-6f6e-42e6-9b69-6361645f7063,v01_1AU*%
%TF.SameCoordinates,Original*%
%TF.FileFunction,Soldermask,Top*%
%TF.FilePolarity,Negative*%
%FSLAX46Y46*%
G04 Gerber Fmt 4.6, Leading zero omitted, Abs format (unit mm)*
G04 Created by KiCad (PCBNEW (5.1.9-0-10_14)) date 2021-02-02 05:51:32*
%MOMM*%
%LPD*%
G01*
G04 APERTURE LIST*
%ADD10C,3.987800*%
%ADD11C,1.750000*%
%ADD12O,5.200000X2.400000*%
%ADD13C,1.000000*%
%ADD14C,4.800000*%
%ADD15R,3.400000X1.300000*%
%ADD16O,1.108000X2.216000*%
%ADD17C,0.650000*%
%ADD18O,1.900000X1.600000*%
%ADD19C,2.100000*%
%ADD20R,2.000000X2.000000*%
%ADD21C,2.000000*%
%ADD22R,3.200000X2.000000*%
%ADD23R,1.700000X1.700000*%
%ADD24O,1.700000X1.700000*%
%ADD25C,2.140000*%
%ADD26R,0.850000X1.600000*%
%ADD27O,2.260000X1.680000*%
%ADD28C,3.980000*%
%ADD29O,1.680000X2.260000*%
G04 APERTURE END LIST*
D10*
%TO.C,SW_91*%
X275300000Y-38000008D03*
D11*
X270220000Y-38000008D03*
X280380000Y-38000008D03*
%TD*%
D10*
%TO.C,SW_60_3*%
X199700000Y-103600000D03*
D11*
X194620000Y-103600000D03*
X204780000Y-103600000D03*
%TD*%
D10*
%TO.C,SW_75_1*%
X208100000Y-103600000D03*
D11*
X213180000Y-103600000D03*
X203020000Y-103600000D03*
%TD*%
D10*
%TO.C,SW_75_2*%
X203900000Y-103600000D03*
D11*
X208980000Y-103600000D03*
X198820000Y-103600000D03*
%TD*%
D10*
%TO.C,SW_21*%
X40100000Y-38000000D03*
D11*
X35020000Y-38000000D03*
X45180000Y-38000000D03*
%TD*%
D10*
%TO.C,SW_53*%
X149300000Y-70800000D03*
D11*
X144220000Y-70800000D03*
X154380000Y-70800000D03*
%TD*%
D10*
%TO.C,SW_18_1*%
X23300000Y-70800000D03*
D11*
X18220000Y-70800000D03*
X28380000Y-70800000D03*
%TD*%
D10*
%TO.C,SW_8_1*%
X292100000Y-70800000D03*
D11*
X287020000Y-70800000D03*
X297180000Y-70800000D03*
%TD*%
D12*
%TO.C,REF\u002A\u002A*%
X143400000Y-64200000D03*
X205700000Y-102400000D03*
X275250000Y-45100000D03*
D13*
X41650000Y-46450000D03*
X39050000Y-46400000D03*
X41650000Y-43750000D03*
X39050000Y-43750000D03*
X40400000Y-47000000D03*
X42300000Y-45100000D03*
X38500000Y-45100000D03*
X40400000Y-43200000D03*
D14*
X40400000Y-45100000D03*
%TD*%
D15*
%TO.C,LS1*%
X23800000Y-27550000D03*
X23800000Y-18850000D03*
%TD*%
D16*
%TO.C,J1*%
X29075000Y-17965000D03*
X37725000Y-17965000D03*
X37725000Y-21345000D03*
X29075000Y-21345000D03*
D17*
X30425000Y-20975000D03*
X31275000Y-20975000D03*
X32125000Y-20975000D03*
X32975000Y-20975000D03*
X33825000Y-20975000D03*
X34675000Y-20975000D03*
X35525000Y-20975000D03*
X36375000Y-20975000D03*
X36375000Y-22325000D03*
X35525000Y-22325000D03*
X34675000Y-22325000D03*
X33825000Y-22325000D03*
X32975000Y-22325000D03*
X32125000Y-22325000D03*
X31275000Y-22325000D03*
X30425000Y-22325000D03*
%TD*%
D18*
%TO.C,SW_RE1*%
X61400000Y-31500000D03*
X52400000Y-31500000D03*
D19*
X56900000Y-31500000D03*
D20*
X49400000Y-29000000D03*
D21*
X49400000Y-31500000D03*
X49400000Y-34000000D03*
D22*
X56900000Y-25900000D03*
X56900000Y-37100000D03*
D21*
X63900000Y-29000000D03*
X63900000Y-34000000D03*
%TD*%
%TO.C,SW_RE2*%
X181500000Y-34000000D03*
X181500000Y-29000000D03*
D22*
X174500000Y-37100000D03*
X174500000Y-25900000D03*
D21*
X167000000Y-34000000D03*
X167000000Y-31500000D03*
D20*
X167000000Y-29000000D03*
D19*
X174500000Y-31500000D03*
D18*
X170000000Y-31500000D03*
X179000000Y-31500000D03*
%TD*%
D21*
%TO.C,SW_RE3*%
X215100000Y-34000000D03*
X215100000Y-29000000D03*
D22*
X208100000Y-37100000D03*
X208100000Y-25900000D03*
D21*
X200600000Y-34000000D03*
X200600000Y-31500000D03*
D20*
X200600000Y-29000000D03*
D19*
X208100000Y-31500000D03*
D18*
X203600000Y-31500000D03*
X212600000Y-31500000D03*
%TD*%
%TO.C,SW_RE4*%
X246200000Y-31500000D03*
X237200000Y-31500000D03*
D19*
X241700000Y-31500000D03*
D20*
X234200000Y-29000000D03*
D21*
X234200000Y-31500000D03*
X234200000Y-34000000D03*
D22*
X241700000Y-25900000D03*
X241700000Y-37100000D03*
D21*
X248700000Y-29000000D03*
X248700000Y-34000000D03*
%TD*%
%TO.C,SW_RE5*%
X282300000Y-34000000D03*
X282300000Y-29000000D03*
D22*
X275300000Y-37100000D03*
X275300000Y-25900000D03*
D21*
X267800000Y-34000000D03*
X267800000Y-31500000D03*
D20*
X267800000Y-29000000D03*
D19*
X275300000Y-31500000D03*
D18*
X270800000Y-31500000D03*
X279800000Y-31500000D03*
%TD*%
D23*
%TO.C,J3*%
X73700000Y-20600000D03*
D24*
X73700000Y-23140000D03*
X73700000Y-25680000D03*
%TD*%
D23*
%TO.C,J2*%
X137550000Y-45100000D03*
D24*
X137550000Y-42560000D03*
X135010000Y-45100000D03*
X135010000Y-42560000D03*
X132470000Y-45100000D03*
X132470000Y-42560000D03*
%TD*%
D23*
%TO.C,J4*%
X117800000Y-22000000D03*
D24*
X115260000Y-22000000D03*
%TD*%
D25*
%TO.C,H1*%
X17700000Y-19400000D03*
%TD*%
%TO.C,H2*%
X110100000Y-19400000D03*
%TD*%
%TO.C,H3*%
X157700000Y-19400000D03*
%TD*%
%TO.C,H4*%
X205300000Y-19400000D03*
%TD*%
%TO.C,H5*%
X297700000Y-19400000D03*
%TD*%
%TO.C,H6*%
X17700000Y-23100000D03*
%TD*%
%TO.C,H7*%
X110100000Y-23100000D03*
%TD*%
%TO.C,H8*%
X157700000Y-23100000D03*
%TD*%
%TO.C,H9*%
X205300000Y-23100000D03*
%TD*%
%TO.C,H10*%
X297700000Y-23100000D03*
%TD*%
%TO.C,H11*%
X17700000Y-43500000D03*
%TD*%
%TO.C,H12*%
X157700000Y-43500000D03*
%TD*%
%TO.C,H13*%
X297700000Y-43500000D03*
%TD*%
%TO.C,H14*%
X17700000Y-109300000D03*
%TD*%
%TO.C,H15*%
X157700000Y-109300000D03*
%TD*%
%TO.C,H16*%
X297700000Y-109300000D03*
%TD*%
%TO.C,H17*%
X100500000Y-109300000D03*
%TD*%
%TO.C,H18*%
X197700000Y-109300000D03*
%TD*%
D26*
%TO.C,L1*%
X68825000Y-24850000D03*
X70575000Y-24850000D03*
X68825000Y-21350000D03*
X70575000Y-21350000D03*
%TD*%
%TO.C,L2*%
X78575000Y-21350000D03*
X76825000Y-21350000D03*
X78575000Y-24850000D03*
X76825000Y-24850000D03*
%TD*%
%TO.C,L3*%
X46325000Y-24850000D03*
X48075000Y-24850000D03*
X46325000Y-21350000D03*
X48075000Y-21350000D03*
%TD*%
%TO.C,L4*%
X96725000Y-24850000D03*
X98475000Y-24850000D03*
X96725000Y-21350000D03*
X98475000Y-21350000D03*
%TD*%
%TO.C,L5*%
X132075000Y-21350000D03*
X130325000Y-21350000D03*
X132075000Y-24850000D03*
X130325000Y-24850000D03*
%TD*%
%TO.C,L6*%
X165675000Y-21350000D03*
X163925000Y-21350000D03*
X165675000Y-24850000D03*
X163925000Y-24850000D03*
%TD*%
%TO.C,L7*%
X197525000Y-24850000D03*
X199275000Y-24850000D03*
X197525000Y-21350000D03*
X199275000Y-21350000D03*
%TD*%
%TO.C,L8*%
X232875000Y-21350000D03*
X231125000Y-21350000D03*
X232875000Y-24850000D03*
X231125000Y-24850000D03*
%TD*%
%TO.C,L9*%
X264725000Y-24850000D03*
X266475000Y-24850000D03*
X264725000Y-21350000D03*
X266475000Y-21350000D03*
%TD*%
D27*
%TO.C,SW_6*%
X287310000Y-38000000D03*
X296890000Y-38000000D03*
D28*
X292100000Y-38000000D03*
%TD*%
%TO.C,SW_9*%
X292100000Y-87200000D03*
D27*
X296890000Y-87200000D03*
X287310000Y-87200000D03*
%TD*%
%TO.C,SW_14*%
X35310000Y-87200000D03*
X44890000Y-87200000D03*
D28*
X40100000Y-87200000D03*
%TD*%
%TO.C,SW_15*%
X40100000Y-103600000D03*
D27*
X44890000Y-103600000D03*
X35310000Y-103600000D03*
%TD*%
%TO.C,SW_16*%
X18510000Y-38000000D03*
X28090000Y-38000000D03*
D28*
X23300000Y-38000000D03*
%TD*%
D27*
%TO.C,SW_26*%
X52110000Y-38000000D03*
X61690000Y-38000000D03*
D28*
X56900000Y-38000000D03*
%TD*%
%TO.C,SW_29*%
X56900000Y-87200000D03*
D27*
X61690000Y-87200000D03*
X52110000Y-87200000D03*
%TD*%
%TO.C,SW_31*%
X68910000Y-38000000D03*
X78490000Y-38000000D03*
D28*
X73700000Y-38000000D03*
%TD*%
%TO.C,SW_34*%
X107300000Y-87200000D03*
D27*
X112090000Y-87200000D03*
X102510000Y-87200000D03*
%TD*%
D29*
%TO.C,SW_42*%
X115700000Y-49610000D03*
X115700000Y-59190000D03*
D28*
X115700000Y-54400000D03*
%TD*%
%TO.C,SW_43*%
X115700000Y-70800000D03*
D27*
X120490000Y-70800000D03*
X110910000Y-70800000D03*
%TD*%
D28*
%TO.C,SW_47*%
X132500000Y-54400000D03*
D27*
X137290000Y-54400000D03*
X127710000Y-54400000D03*
%TD*%
D28*
%TO.C,SW_48*%
X132500000Y-70800000D03*
D27*
X137290000Y-70800000D03*
X127710000Y-70800000D03*
%TD*%
D28*
%TO.C,SW_49*%
X124100000Y-87200000D03*
D27*
X128890000Y-87200000D03*
X119310000Y-87200000D03*
%TD*%
D28*
%TO.C,SW_50*%
X157700000Y-103600000D03*
D27*
X162490000Y-103600000D03*
X152910000Y-103600000D03*
%TD*%
D28*
%TO.C,SW_52*%
X149300000Y-54400000D03*
D27*
X154090000Y-54400000D03*
X144510000Y-54400000D03*
%TD*%
%TO.C,SW_54*%
X136110000Y-87200000D03*
X145690000Y-87200000D03*
D28*
X140900000Y-87200000D03*
%TD*%
%TO.C,SW_56*%
X157700000Y-38000000D03*
D27*
X162490000Y-38000000D03*
X152910000Y-38000000D03*
%TD*%
D28*
%TO.C,SW_57*%
X166100000Y-54400000D03*
D27*
X170890000Y-54400000D03*
X161310000Y-54400000D03*
%TD*%
D28*
%TO.C,SW_58*%
X166100000Y-70800000D03*
D27*
X170890000Y-70800000D03*
X161310000Y-70800000D03*
%TD*%
D28*
%TO.C,SW_59*%
X157700000Y-87200000D03*
D27*
X162490000Y-87200000D03*
X152910000Y-87200000D03*
%TD*%
D28*
%TO.C,SW_61*%
X174500000Y-38000000D03*
D27*
X179290000Y-38000000D03*
X169710000Y-38000000D03*
%TD*%
D28*
%TO.C,SW_62*%
X182900000Y-54400000D03*
D27*
X187690000Y-54400000D03*
X178110000Y-54400000D03*
%TD*%
D28*
%TO.C,SW_63*%
X182900000Y-70800000D03*
D27*
X187690000Y-70800000D03*
X178110000Y-70800000D03*
%TD*%
%TO.C,SW_64*%
X169710000Y-87200000D03*
X179290000Y-87200000D03*
D28*
X174500000Y-87200000D03*
%TD*%
D27*
%TO.C,SW_67*%
X194910000Y-54400000D03*
X204490000Y-54400000D03*
D28*
X199700000Y-54400000D03*
%TD*%
D27*
%TO.C,SW_68*%
X194910000Y-70800000D03*
X204490000Y-70800000D03*
D28*
X199700000Y-70800000D03*
%TD*%
D27*
%TO.C,SW_69*%
X186510000Y-87200000D03*
X196090000Y-87200000D03*
D28*
X191300000Y-87200000D03*
%TD*%
D27*
%TO.C,SW_71*%
X203310000Y-38000000D03*
X212890000Y-38000000D03*
D28*
X208100000Y-38000000D03*
%TD*%
%TO.C,SW_74*%
X208100000Y-87200000D03*
D27*
X212890000Y-87200000D03*
X203310000Y-87200000D03*
%TD*%
%TO.C,SW_76*%
X186510000Y-38000000D03*
X196090000Y-38000000D03*
D28*
X191300000Y-38000000D03*
%TD*%
D27*
%TO.C,SW_79*%
X220110000Y-87200000D03*
X229690000Y-87200000D03*
D28*
X224900000Y-87200000D03*
%TD*%
D27*
%TO.C,SW_81*%
X236910000Y-38000000D03*
X246490000Y-38000000D03*
D28*
X241700000Y-38000000D03*
%TD*%
D27*
%TO.C,SW_84*%
X236910000Y-87200000D03*
X246490000Y-87200000D03*
D28*
X241700000Y-87200000D03*
%TD*%
%TO.C,SW_86*%
X224900000Y-38000000D03*
D27*
X229690000Y-38000000D03*
X220110000Y-38000000D03*
%TD*%
%TO.C,SW_89*%
X253710000Y-87200000D03*
X263290000Y-87200000D03*
D28*
X258500000Y-87200000D03*
%TD*%
%TO.C,SW_94*%
X275300000Y-87200000D03*
D27*
X280090000Y-87200000D03*
X270510000Y-87200000D03*
%TD*%
%TO.C,SW_95*%
X270510000Y-103600000D03*
X280090000Y-103600000D03*
D28*
X275300000Y-103600000D03*
%TD*%
D27*
%TO.C,SW_96*%
X253710000Y-38000000D03*
X263290000Y-38000000D03*
D28*
X258500000Y-38000000D03*
%TD*%
D27*
%TO.C,SW_10_1*%
X18510000Y-103600000D03*
X28090000Y-103600000D03*
D28*
X23300000Y-103600000D03*
%TD*%
%TO.C,SW_12_1*%
X40100000Y-54400000D03*
D27*
X44890000Y-54400000D03*
X35310000Y-54400000D03*
%TD*%
%TO.C,SW_12_2*%
X43710000Y-54400000D03*
X53290000Y-54400000D03*
D28*
X48500000Y-54400000D03*
%TD*%
D27*
%TO.C,SW_13_1*%
X44890000Y-70800000D03*
X35310000Y-70800000D03*
D28*
X40100000Y-70800000D03*
%TD*%
%TO.C,SW_13_2*%
X48500000Y-70800000D03*
D27*
X43710000Y-70800000D03*
X53290000Y-70800000D03*
%TD*%
%TO.C,SW_17_1*%
X18510000Y-54400000D03*
X28090000Y-54400000D03*
D28*
X23300000Y-54400000D03*
%TD*%
D27*
%TO.C,SW_19_1*%
X18510000Y-87200000D03*
X28090000Y-87200000D03*
D28*
X23300000Y-87200000D03*
%TD*%
%TO.C,SW_20_1*%
X56900000Y-103600000D03*
D27*
X61690000Y-103600000D03*
X52110000Y-103600000D03*
%TD*%
D28*
%TO.C,SW_23_1*%
X73700000Y-70800000D03*
D27*
X78490000Y-70800000D03*
X68910000Y-70800000D03*
%TD*%
D28*
%TO.C,SW_23_2*%
X82100000Y-70800000D03*
D27*
X86890000Y-70800000D03*
X77310000Y-70800000D03*
%TD*%
D28*
%TO.C,SW_24_1*%
X73700000Y-87200000D03*
D27*
X78490000Y-87200000D03*
X68910000Y-87200000D03*
%TD*%
D28*
%TO.C,SW_25_1*%
X73700000Y-103600000D03*
D27*
X78490000Y-103600000D03*
X68910000Y-103600000D03*
%TD*%
%TO.C,SW_27_1*%
X52110000Y-54400000D03*
X61690000Y-54400000D03*
D28*
X56900000Y-54400000D03*
%TD*%
D27*
%TO.C,SW_27_2*%
X60510000Y-54400000D03*
X70090000Y-54400000D03*
D28*
X65300000Y-54400000D03*
%TD*%
D27*
%TO.C,SW_28_1*%
X52110000Y-70800000D03*
X61690000Y-70800000D03*
D28*
X56900000Y-70800000D03*
%TD*%
D27*
%TO.C,SW_28_2*%
X60510000Y-70800000D03*
X70090000Y-70800000D03*
D28*
X65300000Y-70800000D03*
%TD*%
D27*
%TO.C,SW_30_1*%
X85710000Y-103600000D03*
X95290000Y-103600000D03*
D28*
X90500000Y-103600000D03*
%TD*%
D27*
%TO.C,SW_32_1*%
X68910000Y-54400000D03*
X78490000Y-54400000D03*
D28*
X73700000Y-54400000D03*
%TD*%
%TO.C,SW_32_2*%
X82100000Y-54400000D03*
D27*
X86890000Y-54400000D03*
X77310000Y-54400000D03*
%TD*%
D28*
%TO.C,SW_36_1*%
X90500000Y-38000000D03*
D27*
X95290000Y-38000000D03*
X85710000Y-38000000D03*
%TD*%
D28*
%TO.C,SW_36_2*%
X90500000Y-31500000D03*
D27*
X95290000Y-31500000D03*
X85710000Y-31500000D03*
%TD*%
D29*
%TO.C,SW_37_1*%
X98900000Y-59190000D03*
X98900000Y-49610000D03*
D28*
X98900000Y-54400000D03*
%TD*%
%TO.C,SW_38_1*%
X98900000Y-70800000D03*
D27*
X103690000Y-70800000D03*
X94110000Y-70800000D03*
%TD*%
D28*
%TO.C,SW_39_1*%
X90500000Y-87200000D03*
D27*
X95290000Y-87200000D03*
X85710000Y-87200000D03*
%TD*%
%TO.C,SW_40_1*%
X119310000Y-103600000D03*
X128890000Y-103600000D03*
D28*
X124100000Y-103600000D03*
%TD*%
D27*
%TO.C,SW_41_1*%
X102510000Y-38000000D03*
X112090000Y-38000000D03*
D28*
X107300000Y-38000000D03*
%TD*%
D27*
%TO.C,SW_41_2*%
X102510000Y-31500000D03*
X112090000Y-31500000D03*
D28*
X107300000Y-31500000D03*
%TD*%
%TO.C,SW_46_1*%
X124100000Y-38000000D03*
D27*
X128890000Y-38000000D03*
X119310000Y-38000000D03*
%TD*%
%TO.C,SW_46_2*%
X119310000Y-31500000D03*
X128890000Y-31500000D03*
D28*
X124100000Y-31500000D03*
%TD*%
%TO.C,SW_51_1*%
X140900000Y-38000000D03*
D27*
X145690000Y-38000000D03*
X136110000Y-38000000D03*
%TD*%
%TO.C,SW_51_2*%
X136110000Y-31500000D03*
X145690000Y-31500000D03*
D28*
X140900000Y-31500000D03*
%TD*%
D27*
%TO.C,SW_60_1*%
X186510000Y-103600000D03*
X196090000Y-103600000D03*
D28*
X191300000Y-103600000D03*
%TD*%
D27*
%TO.C,SW_70_1*%
X220110000Y-103600000D03*
X229690000Y-103600000D03*
D28*
X224900000Y-103600000D03*
%TD*%
%TO.C,SW_72_1*%
X216500000Y-54400000D03*
D27*
X221290000Y-54400000D03*
X211710000Y-54400000D03*
%TD*%
D28*
%TO.C,SW_73_1*%
X216500000Y-70800000D03*
D27*
X221290000Y-70800000D03*
X211710000Y-70800000D03*
%TD*%
D28*
%TO.C,SW_78_1*%
X233300000Y-70800000D03*
D27*
X238090000Y-70800000D03*
X228510000Y-70800000D03*
%TD*%
D28*
%TO.C,SW_78_2*%
X241700000Y-70800000D03*
D27*
X246490000Y-70800000D03*
X236910000Y-70800000D03*
%TD*%
%TO.C,SW_7_1*%
X287310000Y-54400000D03*
X296890000Y-54400000D03*
D28*
X292100000Y-54400000D03*
%TD*%
%TO.C,SW_80_1*%
X258500000Y-103600000D03*
D27*
X263290000Y-103600000D03*
X253710000Y-103600000D03*
%TD*%
%TO.C,SW_82_1*%
X245310000Y-54400000D03*
X254890000Y-54400000D03*
D28*
X250100000Y-54400000D03*
%TD*%
%TO.C,SW_82_2*%
X258500000Y-54400000D03*
D27*
X263290000Y-54400000D03*
X253710000Y-54400000D03*
%TD*%
%TO.C,SW_83_1*%
X245310000Y-70800000D03*
X254890000Y-70800000D03*
D28*
X250100000Y-70800000D03*
%TD*%
%TO.C,SW_83_2*%
X258500000Y-70800000D03*
D27*
X263290000Y-70800000D03*
X253710000Y-70800000D03*
%TD*%
%TO.C,SW_85_1*%
X236910000Y-103600000D03*
X246490000Y-103600000D03*
D28*
X241700000Y-103600000D03*
%TD*%
%TO.C,SW_87_1*%
X233300000Y-54400000D03*
D27*
X238090000Y-54400000D03*
X228510000Y-54400000D03*
%TD*%
D28*
%TO.C,SW_87_2*%
X241700000Y-54400000D03*
D27*
X246490000Y-54400000D03*
X236910000Y-54400000D03*
%TD*%
%TO.C,SW_90_1*%
X287310000Y-103600000D03*
X296890000Y-103600000D03*
D28*
X292100000Y-103600000D03*
%TD*%
%TO.C,SW_97_1*%
X266900000Y-54400000D03*
D27*
X271690000Y-54400000D03*
X262110000Y-54400000D03*
%TD*%
%TO.C,SW_97_2*%
X270510000Y-54400000D03*
X280090000Y-54400000D03*
D28*
X275300000Y-54400000D03*
%TD*%
%TO.C,SW_98_1*%
X266900000Y-70800000D03*
D27*
X271690000Y-70800000D03*
X262110000Y-70800000D03*
%TD*%
%TO.C,SW_98_2*%
X270510000Y-70800000D03*
X280090000Y-70800000D03*
D28*
X275300000Y-70800000D03*
%TD*%
D27*
%TO.C,SW_10_2*%
X26910000Y-103600000D03*
D28*
X31700000Y-103600000D03*
D27*
X36490000Y-103600000D03*
%TD*%
%TO.C,SW_17_2*%
X22710000Y-54400000D03*
D28*
X27500000Y-54400000D03*
D27*
X32290000Y-54400000D03*
%TD*%
%TO.C,SW_18_2*%
X32290000Y-70800000D03*
D28*
X27500000Y-70800000D03*
D27*
X22710000Y-70800000D03*
%TD*%
%TO.C,SW_19_2*%
X26910000Y-87200000D03*
D28*
X31700000Y-87200000D03*
D27*
X36490000Y-87200000D03*
%TD*%
%TO.C,SW_20_2*%
X65890000Y-103600000D03*
D28*
X61100000Y-103600000D03*
D27*
X56310000Y-103600000D03*
%TD*%
%TO.C,SW_25_3*%
X82690000Y-103600000D03*
D28*
X77900000Y-103600000D03*
D27*
X73110000Y-103600000D03*
%TD*%
%TO.C,SW_30_2*%
X81510000Y-103600000D03*
D28*
X86300000Y-103600000D03*
D27*
X91090000Y-103600000D03*
%TD*%
%TO.C,SW_35_1*%
X112090000Y-103600000D03*
D28*
X107300000Y-103600000D03*
D27*
X102510000Y-103600000D03*
%TD*%
%TO.C,SW_35_2*%
X120490000Y-103600000D03*
D28*
X115700000Y-103600000D03*
D27*
X110910000Y-103600000D03*
%TD*%
%TO.C,SW_35_3*%
X106710000Y-103600000D03*
D28*
X111500000Y-103600000D03*
D27*
X116290000Y-103600000D03*
%TD*%
%TO.C,SW_38_2*%
X89910000Y-70800000D03*
D28*
X94700000Y-70800000D03*
D27*
X99490000Y-70800000D03*
%TD*%
%TO.C,SW_39_2*%
X94110000Y-87200000D03*
D28*
X98900000Y-87200000D03*
D27*
X103690000Y-87200000D03*
%TD*%
%TO.C,SW_45_1*%
X145690000Y-103600000D03*
D28*
X140900000Y-103600000D03*
D27*
X136110000Y-103600000D03*
%TD*%
%TO.C,SW_45_2*%
X154090000Y-103600000D03*
D28*
X149300000Y-103600000D03*
D27*
X144510000Y-103600000D03*
%TD*%
%TO.C,SW_45_3*%
X140310000Y-103600000D03*
D28*
X145100000Y-103600000D03*
D27*
X149890000Y-103600000D03*
%TD*%
%TO.C,SW_45_4*%
X141490000Y-103600000D03*
D28*
X136700000Y-103600000D03*
D27*
X131910000Y-103600000D03*
%TD*%
%TO.C,SW_65_1*%
X179290000Y-103600000D03*
D28*
X174500000Y-103600000D03*
D27*
X169710000Y-103600000D03*
%TD*%
%TO.C,SW_65_2*%
X173910000Y-103600000D03*
D28*
X178700000Y-103600000D03*
D27*
X183490000Y-103600000D03*
%TD*%
%TO.C,SW_65_3*%
X175090000Y-103600000D03*
D28*
X170300000Y-103600000D03*
D27*
X165510000Y-103600000D03*
%TD*%
%TO.C,SW_70_2*%
X224310000Y-103600000D03*
D28*
X229100000Y-103600000D03*
D27*
X233890000Y-103600000D03*
%TD*%
%TO.C,SW_72_2*%
X225490000Y-54400000D03*
D28*
X220700000Y-54400000D03*
D27*
X215910000Y-54400000D03*
%TD*%
%TO.C,SW_73_2*%
X225490000Y-70800000D03*
D28*
X220700000Y-70800000D03*
D27*
X215910000Y-70800000D03*
%TD*%
%TO.C,SW_75_3*%
X221290000Y-103600000D03*
D28*
X216500000Y-103600000D03*
D27*
X211710000Y-103600000D03*
%TD*%
%TO.C,SW_7_2*%
X283110000Y-54400000D03*
D28*
X287900000Y-54400000D03*
D27*
X292690000Y-54400000D03*
%TD*%
%TO.C,SW_80_2*%
X259090000Y-103600000D03*
D28*
X254300000Y-103600000D03*
D27*
X249510000Y-103600000D03*
%TD*%
%TO.C,SW_85_2*%
X245310000Y-103600000D03*
D28*
X250100000Y-103600000D03*
D27*
X254890000Y-103600000D03*
%TD*%
%TO.C,SW_85_3*%
X232710000Y-103600000D03*
D28*
X237500000Y-103600000D03*
D27*
X242290000Y-103600000D03*
%TD*%
%TO.C,SW_8_2*%
X292690000Y-70800000D03*
D28*
X287900000Y-70800000D03*
D27*
X283110000Y-70800000D03*
%TD*%
%TO.C,SW_25_2*%
X68910000Y-95400000D03*
D28*
X73700000Y-95400000D03*
D27*
X78490000Y-95400000D03*
%TD*%
D29*
%TO.C,SW_37_2*%
X94700000Y-59190000D03*
D28*
X94700000Y-54400000D03*
D29*
X94700000Y-49610000D03*
%TD*%
D27*
%TO.C,SW_60_2*%
X186510000Y-95400000D03*
D28*
X191300000Y-95400000D03*
D27*
X196090000Y-95400000D03*
%TD*%
%TO.C,SW_90_2*%
X296890000Y-95400000D03*
D28*
X292100000Y-95400000D03*
D27*
X287310000Y-95400000D03*
%TD*%
M02*
