%TF.GenerationSoftware,KiCad,Pcbnew,(5.1.9-0-10_14)*%
%TF.CreationDate,2021-02-02T05:51:32+09:00*%
%TF.ProjectId,Unison,556e6973-6f6e-42e6-9b69-6361645f7063,v01_1AU*%
%TF.SameCoordinates,Original*%
%TF.FileFunction,Legend,Bot*%
%TF.FilePolarity,Positive*%
%FSLAX46Y46*%
G04 Gerber Fmt 4.6, Leading zero omitted, Abs format (unit mm)*
G04 Created by KiCad (PCBNEW (5.1.9-0-10_14)) date 2021-02-02 05:51:32*
%MOMM*%
%LPD*%
G01*
G04 APERTURE LIST*
%ADD10C,0.150000*%
%ADD11C,0.800000*%
%ADD12C,0.200000*%
%ADD13C,0.120000*%
G04 APERTURE END LIST*
D10*
X130197619Y-43207261D02*
X129197619Y-42873928D01*
X130197619Y-42540595D01*
X129292857Y-41635833D02*
X129245238Y-41683452D01*
X129197619Y-41826309D01*
X129197619Y-41921547D01*
X129245238Y-42064404D01*
X129340476Y-42159642D01*
X129435714Y-42207261D01*
X129626190Y-42254880D01*
X129769047Y-42254880D01*
X129959523Y-42207261D01*
X130054761Y-42159642D01*
X130150000Y-42064404D01*
X130197619Y-41921547D01*
X130197619Y-41826309D01*
X130150000Y-41683452D01*
X130102380Y-41635833D01*
X129292857Y-40635833D02*
X129245238Y-40683452D01*
X129197619Y-40826309D01*
X129197619Y-40921547D01*
X129245238Y-41064404D01*
X129340476Y-41159642D01*
X129435714Y-41207261D01*
X129626190Y-41254880D01*
X129769047Y-41254880D01*
X129959523Y-41207261D01*
X130054761Y-41159642D01*
X130150000Y-41064404D01*
X130197619Y-40921547D01*
X130197619Y-40826309D01*
X130150000Y-40683452D01*
X130102380Y-40635833D01*
X127547619Y-43064404D02*
X128547619Y-43064404D01*
X127833333Y-42731071D01*
X128547619Y-42397738D01*
X127547619Y-42397738D01*
X128547619Y-41731071D02*
X128547619Y-41540595D01*
X128500000Y-41445357D01*
X128404761Y-41350119D01*
X128214285Y-41302500D01*
X127880952Y-41302500D01*
X127690476Y-41350119D01*
X127595238Y-41445357D01*
X127547619Y-41540595D01*
X127547619Y-41731071D01*
X127595238Y-41826309D01*
X127690476Y-41921547D01*
X127880952Y-41969166D01*
X128214285Y-41969166D01*
X128404761Y-41921547D01*
X128500000Y-41826309D01*
X128547619Y-41731071D01*
X127595238Y-40921547D02*
X127547619Y-40778690D01*
X127547619Y-40540595D01*
X127595238Y-40445357D01*
X127642857Y-40397738D01*
X127738095Y-40350119D01*
X127833333Y-40350119D01*
X127928571Y-40397738D01*
X127976190Y-40445357D01*
X128023809Y-40540595D01*
X128071428Y-40731071D01*
X128119047Y-40826309D01*
X128166666Y-40873928D01*
X128261904Y-40921547D01*
X128357142Y-40921547D01*
X128452380Y-40873928D01*
X128500000Y-40826309D01*
X128547619Y-40731071D01*
X128547619Y-40492976D01*
X128500000Y-40350119D01*
X127547619Y-39921547D02*
X128547619Y-39921547D01*
X126850000Y-42540595D02*
X126897619Y-42635833D01*
X126897619Y-42778690D01*
X126850000Y-42921547D01*
X126754761Y-43016785D01*
X126659523Y-43064404D01*
X126469047Y-43112023D01*
X126326190Y-43112023D01*
X126135714Y-43064404D01*
X126040476Y-43016785D01*
X125945238Y-42921547D01*
X125897619Y-42778690D01*
X125897619Y-42683452D01*
X125945238Y-42540595D01*
X125992857Y-42492976D01*
X126326190Y-42492976D01*
X126326190Y-42683452D01*
X125897619Y-42064404D02*
X126897619Y-42064404D01*
X125897619Y-41492976D01*
X126897619Y-41492976D01*
X125897619Y-41016785D02*
X126897619Y-41016785D01*
X126897619Y-40778690D01*
X126850000Y-40635833D01*
X126754761Y-40540595D01*
X126659523Y-40492976D01*
X126469047Y-40445357D01*
X126326190Y-40445357D01*
X126135714Y-40492976D01*
X126040476Y-40540595D01*
X125945238Y-40635833D01*
X125897619Y-40778690D01*
X125897619Y-41016785D01*
X129197619Y-47678452D02*
X130197619Y-47678452D01*
X129483333Y-47345119D01*
X130197619Y-47011785D01*
X129197619Y-47011785D01*
X129197619Y-46535595D02*
X130197619Y-46535595D01*
X129245238Y-46107023D02*
X129197619Y-45964166D01*
X129197619Y-45726071D01*
X129245238Y-45630833D01*
X129292857Y-45583214D01*
X129388095Y-45535595D01*
X129483333Y-45535595D01*
X129578571Y-45583214D01*
X129626190Y-45630833D01*
X129673809Y-45726071D01*
X129721428Y-45916547D01*
X129769047Y-46011785D01*
X129816666Y-46059404D01*
X129911904Y-46107023D01*
X130007142Y-46107023D01*
X130102380Y-46059404D01*
X130150000Y-46011785D01*
X130197619Y-45916547D01*
X130197619Y-45678452D01*
X130150000Y-45535595D01*
X130197619Y-44916547D02*
X130197619Y-44726071D01*
X130150000Y-44630833D01*
X130054761Y-44535595D01*
X129864285Y-44487976D01*
X129530952Y-44487976D01*
X129340476Y-44535595D01*
X129245238Y-44630833D01*
X129197619Y-44726071D01*
X129197619Y-44916547D01*
X129245238Y-45011785D01*
X129340476Y-45107023D01*
X129530952Y-45154642D01*
X129864285Y-45154642D01*
X130054761Y-45107023D01*
X130150000Y-45011785D01*
X130197619Y-44916547D01*
X127595238Y-47059404D02*
X127547619Y-46916547D01*
X127547619Y-46678452D01*
X127595238Y-46583214D01*
X127642857Y-46535595D01*
X127738095Y-46487976D01*
X127833333Y-46487976D01*
X127928571Y-46535595D01*
X127976190Y-46583214D01*
X128023809Y-46678452D01*
X128071428Y-46868928D01*
X128119047Y-46964166D01*
X128166666Y-47011785D01*
X128261904Y-47059404D01*
X128357142Y-47059404D01*
X128452380Y-47011785D01*
X128500000Y-46964166D01*
X128547619Y-46868928D01*
X128547619Y-46630833D01*
X128500000Y-46487976D01*
X127642857Y-45487976D02*
X127595238Y-45535595D01*
X127547619Y-45678452D01*
X127547619Y-45773690D01*
X127595238Y-45916547D01*
X127690476Y-46011785D01*
X127785714Y-46059404D01*
X127976190Y-46107023D01*
X128119047Y-46107023D01*
X128309523Y-46059404D01*
X128404761Y-46011785D01*
X128500000Y-45916547D01*
X128547619Y-45773690D01*
X128547619Y-45678452D01*
X128500000Y-45535595D01*
X128452380Y-45487976D01*
X127547619Y-45059404D02*
X128547619Y-45059404D01*
X127547619Y-44487976D02*
X128119047Y-44916547D01*
X128547619Y-44487976D02*
X127976190Y-45059404D01*
X125897619Y-46202261D02*
X126373809Y-46535595D01*
X125897619Y-46773690D02*
X126897619Y-46773690D01*
X126897619Y-46392738D01*
X126850000Y-46297500D01*
X126802380Y-46249880D01*
X126707142Y-46202261D01*
X126564285Y-46202261D01*
X126469047Y-46249880D01*
X126421428Y-46297500D01*
X126373809Y-46392738D01*
X126373809Y-46773690D01*
X125945238Y-45821309D02*
X125897619Y-45678452D01*
X125897619Y-45440357D01*
X125945238Y-45345119D01*
X125992857Y-45297500D01*
X126088095Y-45249880D01*
X126183333Y-45249880D01*
X126278571Y-45297500D01*
X126326190Y-45345119D01*
X126373809Y-45440357D01*
X126421428Y-45630833D01*
X126469047Y-45726071D01*
X126516666Y-45773690D01*
X126611904Y-45821309D01*
X126707142Y-45821309D01*
X126802380Y-45773690D01*
X126850000Y-45726071D01*
X126897619Y-45630833D01*
X126897619Y-45392738D01*
X126850000Y-45249880D01*
X126897619Y-44964166D02*
X126897619Y-44392738D01*
X125897619Y-44678452D02*
X126897619Y-44678452D01*
D11*
X294134761Y-18861904D02*
X294640714Y-22909523D01*
X294462142Y-23385714D01*
X294253809Y-23623809D01*
X293807380Y-23861904D01*
X292855000Y-23861904D01*
X292349047Y-23623809D01*
X292081190Y-23385714D01*
X291783571Y-22909523D01*
X291277619Y-18861904D01*
X289105000Y-20528571D02*
X289521666Y-23861904D01*
X289164523Y-21004761D02*
X288896666Y-20766666D01*
X288390714Y-20528571D01*
X287676428Y-20528571D01*
X287230000Y-20766666D01*
X287051428Y-21242857D01*
X287378809Y-23861904D01*
X284997857Y-23861904D02*
X284581190Y-20528571D01*
X284372857Y-18861904D02*
X284640714Y-19100000D01*
X284432380Y-19338095D01*
X284164523Y-19100000D01*
X284372857Y-18861904D01*
X284432380Y-19338095D01*
X282825238Y-23623809D02*
X282378809Y-23861904D01*
X281426428Y-23861904D01*
X280920476Y-23623809D01*
X280622857Y-23147619D01*
X280593095Y-22909523D01*
X280771666Y-22433333D01*
X281218095Y-22195238D01*
X281932380Y-22195238D01*
X282378809Y-21957142D01*
X282557380Y-21480952D01*
X282527619Y-21242857D01*
X282230000Y-20766666D01*
X281724047Y-20528571D01*
X281009761Y-20528571D01*
X280563333Y-20766666D01*
X277855000Y-23861904D02*
X278301428Y-23623809D01*
X278509761Y-23385714D01*
X278688333Y-22909523D01*
X278509761Y-21480952D01*
X278212142Y-21004761D01*
X277944285Y-20766666D01*
X277438333Y-20528571D01*
X276724047Y-20528571D01*
X276277619Y-20766666D01*
X276069285Y-21004761D01*
X275890714Y-21480952D01*
X276069285Y-22909523D01*
X276366904Y-23385714D01*
X276634761Y-23623809D01*
X277140714Y-23861904D01*
X277855000Y-23861904D01*
X273628809Y-20528571D02*
X274045476Y-23861904D01*
X273688333Y-21004761D02*
X273420476Y-20766666D01*
X272914523Y-20528571D01*
X272200238Y-20528571D01*
X271753809Y-20766666D01*
X271575238Y-21242857D01*
X271902619Y-23861904D01*
D10*
X268619047Y-20352380D02*
X268619047Y-21066666D01*
X268666666Y-21209523D01*
X268761904Y-21304761D01*
X268904761Y-21352380D01*
X269000000Y-21352380D01*
X267666666Y-21352380D02*
X268142857Y-21352380D01*
X268142857Y-20352380D01*
X266761904Y-21257142D02*
X266809523Y-21304761D01*
X266952380Y-21352380D01*
X267047619Y-21352380D01*
X267190476Y-21304761D01*
X267285714Y-21209523D01*
X267333333Y-21114285D01*
X267380952Y-20923809D01*
X267380952Y-20780952D01*
X267333333Y-20590476D01*
X267285714Y-20495238D01*
X267190476Y-20400000D01*
X267047619Y-20352380D01*
X266952380Y-20352380D01*
X266809523Y-20400000D01*
X266761904Y-20447619D01*
X266047619Y-20352380D02*
X266047619Y-21066666D01*
X266095238Y-21209523D01*
X266190476Y-21304761D01*
X266333333Y-21352380D01*
X266428571Y-21352380D01*
X265095238Y-21352380D02*
X265571428Y-21352380D01*
X265571428Y-20352380D01*
X264190476Y-21257142D02*
X264238095Y-21304761D01*
X264380952Y-21352380D01*
X264476190Y-21352380D01*
X264619047Y-21304761D01*
X264714285Y-21209523D01*
X264761904Y-21114285D01*
X264809523Y-20923809D01*
X264809523Y-20780952D01*
X264761904Y-20590476D01*
X264714285Y-20495238D01*
X264619047Y-20400000D01*
X264476190Y-20352380D01*
X264380952Y-20352380D01*
X264238095Y-20400000D01*
X264190476Y-20447619D01*
X263476190Y-20352380D02*
X263476190Y-21066666D01*
X263523809Y-21209523D01*
X263619047Y-21304761D01*
X263761904Y-21352380D01*
X263857142Y-21352380D01*
X262523809Y-21352380D02*
X263000000Y-21352380D01*
X263000000Y-20352380D01*
X261619047Y-21257142D02*
X261666666Y-21304761D01*
X261809523Y-21352380D01*
X261904761Y-21352380D01*
X262047619Y-21304761D01*
X262142857Y-21209523D01*
X262190476Y-21114285D01*
X262238095Y-20923809D01*
X262238095Y-20780952D01*
X262190476Y-20590476D01*
X262142857Y-20495238D01*
X262047619Y-20400000D01*
X261904761Y-20352380D01*
X261809523Y-20352380D01*
X261666666Y-20400000D01*
X261619047Y-20447619D01*
X260904761Y-20352380D02*
X260904761Y-21066666D01*
X260952380Y-21209523D01*
X261047619Y-21304761D01*
X261190476Y-21352380D01*
X261285714Y-21352380D01*
X259952380Y-21352380D02*
X260428571Y-21352380D01*
X260428571Y-20352380D01*
X259047619Y-21257142D02*
X259095238Y-21304761D01*
X259238095Y-21352380D01*
X259333333Y-21352380D01*
X259476190Y-21304761D01*
X259571428Y-21209523D01*
X259619047Y-21114285D01*
X259666666Y-20923809D01*
X259666666Y-20780952D01*
X259619047Y-20590476D01*
X259571428Y-20495238D01*
X259476190Y-20400000D01*
X259333333Y-20352380D01*
X259238095Y-20352380D01*
X259095238Y-20400000D01*
X259047619Y-20447619D01*
D12*
X269155714Y-23078571D02*
X268798571Y-24078571D01*
X268441428Y-23078571D01*
X267584285Y-22578571D02*
X267441428Y-22578571D01*
X267298571Y-22650000D01*
X267227142Y-22721428D01*
X267155714Y-22864285D01*
X267084285Y-23150000D01*
X267084285Y-23507142D01*
X267155714Y-23792857D01*
X267227142Y-23935714D01*
X267298571Y-24007142D01*
X267441428Y-24078571D01*
X267584285Y-24078571D01*
X267727142Y-24007142D01*
X267798571Y-23935714D01*
X267870000Y-23792857D01*
X267941428Y-23507142D01*
X267941428Y-23150000D01*
X267870000Y-22864285D01*
X267798571Y-22721428D01*
X267727142Y-22650000D01*
X267584285Y-22578571D01*
X265798571Y-23078571D02*
X265798571Y-24078571D01*
X266155714Y-22507142D02*
X266512857Y-23578571D01*
X265584285Y-23578571D01*
X265370000Y-24221428D02*
X264227142Y-24221428D01*
X263870000Y-24078571D02*
X263870000Y-22578571D01*
X263370000Y-23650000D01*
X262870000Y-22578571D01*
X262870000Y-24078571D01*
X262155714Y-22578571D02*
X262155714Y-23792857D01*
X262084285Y-23935714D01*
X262012857Y-24007142D01*
X261870000Y-24078571D01*
X261584285Y-24078571D01*
X261441428Y-24007142D01*
X261370000Y-23935714D01*
X261298571Y-23792857D01*
X261298571Y-22578571D01*
X258512857Y-23364285D02*
X258584285Y-23292857D01*
X258727142Y-23221428D01*
X258870000Y-23221428D01*
X259012857Y-23292857D01*
X259084285Y-23364285D01*
X259155714Y-23507142D01*
X259155714Y-23650000D01*
X259084285Y-23792857D01*
X259012857Y-23864285D01*
X258870000Y-23935714D01*
X258727142Y-23935714D01*
X258584285Y-23864285D01*
X258512857Y-23792857D01*
X258512857Y-23221428D02*
X258512857Y-23792857D01*
X258441428Y-23864285D01*
X258370000Y-23864285D01*
X258227142Y-23792857D01*
X258155714Y-23650000D01*
X258155714Y-23292857D01*
X258298571Y-23078571D01*
X258512857Y-22935714D01*
X258798571Y-22864285D01*
X259084285Y-22935714D01*
X259298571Y-23078571D01*
X259441428Y-23292857D01*
X259512857Y-23578571D01*
X259441428Y-23864285D01*
X259298571Y-24078571D01*
X259084285Y-24221428D01*
X258798571Y-24292857D01*
X258512857Y-24221428D01*
X258298571Y-24078571D01*
X257512857Y-23078571D02*
X257512857Y-24364285D01*
X257584285Y-24507142D01*
X257727142Y-24578571D01*
X257798571Y-24578571D01*
X257512857Y-22578571D02*
X257584285Y-22650000D01*
X257512857Y-22721428D01*
X257441428Y-22650000D01*
X257512857Y-22578571D01*
X257512857Y-22721428D01*
X256798571Y-23078571D02*
X256798571Y-24578571D01*
X256798571Y-23150000D02*
X256655714Y-23078571D01*
X256370000Y-23078571D01*
X256227142Y-23150000D01*
X256155714Y-23221428D01*
X256084285Y-23364285D01*
X256084285Y-23792857D01*
X256155714Y-23935714D01*
X256227142Y-24007142D01*
X256370000Y-24078571D01*
X256655714Y-24078571D01*
X256798571Y-24007142D01*
X255512857Y-24007142D02*
X255370000Y-24078571D01*
X255084285Y-24078571D01*
X254941428Y-24007142D01*
X254870000Y-23864285D01*
X254870000Y-23792857D01*
X254941428Y-23650000D01*
X255084285Y-23578571D01*
X255298571Y-23578571D01*
X255441428Y-23507142D01*
X255512857Y-23364285D01*
X255512857Y-23292857D01*
X255441428Y-23150000D01*
X255298571Y-23078571D01*
X255084285Y-23078571D01*
X254941428Y-23150000D01*
X254227142Y-24078571D02*
X254227142Y-22578571D01*
X254084285Y-23507142D02*
X253655714Y-24078571D01*
X253655714Y-23078571D02*
X254227142Y-23650000D01*
X252441428Y-24007142D02*
X252584285Y-24078571D01*
X252870000Y-24078571D01*
X253012857Y-24007142D01*
X253084285Y-23864285D01*
X253084285Y-23292857D01*
X253012857Y-23150000D01*
X252870000Y-23078571D01*
X252584285Y-23078571D01*
X252441428Y-23150000D01*
X252370000Y-23292857D01*
X252370000Y-23435714D01*
X253084285Y-23578571D01*
X251727142Y-23078571D02*
X251727142Y-24078571D01*
X251727142Y-23221428D02*
X251655714Y-23150000D01*
X251512857Y-23078571D01*
X251298571Y-23078571D01*
X251155714Y-23150000D01*
X251084285Y-23292857D01*
X251084285Y-24078571D01*
X250370000Y-23078571D02*
X250370000Y-24078571D01*
X250370000Y-23221428D02*
X250298571Y-23150000D01*
X250155714Y-23078571D01*
X249941428Y-23078571D01*
X249798571Y-23150000D01*
X249727142Y-23292857D01*
X249727142Y-24078571D01*
D13*
%TO.C,C2*%
X118484990Y-46904457D02*
X118854457Y-46534990D01*
X117445543Y-45865010D02*
X117815010Y-45495543D01*
%TO.C,R7*%
X38527064Y-25365000D02*
X38072936Y-25365000D01*
X38527064Y-26835000D02*
X38072936Y-26835000D01*
%TO.C,D102*%
X32900000Y-25400000D02*
X35300000Y-25400000D01*
X35300000Y-28500000D02*
X32350000Y-28500000D01*
%TO.C,C3*%
X111495543Y-40615010D02*
X111865010Y-40245543D01*
X112534990Y-41654457D02*
X112904457Y-41284990D01*
%TO.C,Y1*%
X118800179Y-43768198D02*
X115618198Y-46950179D01*
X115618198Y-46950179D02*
X111799821Y-43131802D01*
%TO.C,D94*%
X280650000Y-96800000D02*
X280650000Y-94800000D01*
X280650000Y-94800000D02*
X284550000Y-94800000D01*
X280650000Y-96800000D02*
X284550000Y-96800000D01*
%TO.C,C1*%
X121225000Y-51741252D02*
X121225000Y-51218748D01*
X119755000Y-51741252D02*
X119755000Y-51218748D01*
%TO.C,C4*%
X105395543Y-60134990D02*
X105765010Y-60504457D01*
X106434990Y-59095543D02*
X106804457Y-59465010D01*
%TO.C,C5*%
X101634990Y-43604457D02*
X102004457Y-43234990D01*
X100595543Y-42565010D02*
X100965010Y-42195543D01*
%TO.C,C6*%
X99465010Y-40695543D02*
X99095543Y-41065010D01*
X100504457Y-41734990D02*
X100134990Y-42104457D01*
%TO.C,C7*%
X97535000Y-50861252D02*
X97535000Y-50338748D01*
X96065000Y-50861252D02*
X96065000Y-50338748D01*
%TO.C,D1*%
X19450000Y-31200000D02*
X19450000Y-29200000D01*
X19450000Y-29200000D02*
X23350000Y-29200000D01*
X19450000Y-31200000D02*
X23350000Y-31200000D01*
%TO.C,D2*%
X19450000Y-26200000D02*
X19450000Y-24200000D01*
X19450000Y-24200000D02*
X23350000Y-24200000D01*
X19450000Y-26200000D02*
X23350000Y-26200000D01*
%TO.C,D3*%
X19450000Y-34000000D02*
X19450000Y-32000000D01*
X19450000Y-32000000D02*
X23350000Y-32000000D01*
X19450000Y-34000000D02*
X23350000Y-34000000D01*
%TO.C,D4*%
X19250000Y-50400000D02*
X19250000Y-48400000D01*
X19250000Y-48400000D02*
X23150000Y-48400000D01*
X19250000Y-50400000D02*
X23150000Y-50400000D01*
%TO.C,D5*%
X19250000Y-66800000D02*
X19250000Y-64800000D01*
X19250000Y-64800000D02*
X23150000Y-64800000D01*
X19250000Y-66800000D02*
X23150000Y-66800000D01*
%TO.C,D6*%
X19050000Y-83200000D02*
X19050000Y-81200000D01*
X19050000Y-81200000D02*
X22950000Y-81200000D01*
X19050000Y-83200000D02*
X22950000Y-83200000D01*
%TO.C,D7*%
X19250000Y-99600000D02*
X19250000Y-97600000D01*
X19250000Y-97600000D02*
X23150000Y-97600000D01*
X19250000Y-99600000D02*
X23150000Y-99600000D01*
%TO.C,D9*%
X36050000Y-33800000D02*
X36050000Y-31800000D01*
X36050000Y-31800000D02*
X39950000Y-31800000D01*
X36050000Y-33800000D02*
X39950000Y-33800000D01*
%TO.C,D10*%
X35050000Y-50400000D02*
X35050000Y-48400000D01*
X35050000Y-48400000D02*
X38950000Y-48400000D01*
X35050000Y-50400000D02*
X38950000Y-50400000D01*
%TO.C,D11*%
X31850000Y-66800000D02*
X31850000Y-64800000D01*
X31850000Y-64800000D02*
X35750000Y-64800000D01*
X31850000Y-66800000D02*
X35750000Y-66800000D01*
%TO.C,D12*%
X36250000Y-83200000D02*
X36250000Y-81200000D01*
X36250000Y-81200000D02*
X40150000Y-81200000D01*
X36250000Y-83200000D02*
X40150000Y-83200000D01*
%TO.C,D13*%
X36250000Y-99600000D02*
X36250000Y-97600000D01*
X36250000Y-97600000D02*
X40150000Y-97600000D01*
X36250000Y-99600000D02*
X40150000Y-99600000D01*
%TO.C,D14*%
X61450000Y-47600000D02*
X61450000Y-45600000D01*
X61450000Y-45600000D02*
X65350000Y-45600000D01*
X61450000Y-47600000D02*
X65350000Y-47600000D01*
%TO.C,D15*%
X51650000Y-34600000D02*
X51650000Y-32600000D01*
X51650000Y-32600000D02*
X55550000Y-32600000D01*
X51650000Y-34600000D02*
X55550000Y-34600000D01*
%TO.C,D16*%
X61450000Y-50400000D02*
X61450000Y-48400000D01*
X61450000Y-48400000D02*
X65350000Y-48400000D01*
X61450000Y-50400000D02*
X65350000Y-50400000D01*
%TO.C,D17*%
X52850000Y-66800000D02*
X52850000Y-64800000D01*
X52850000Y-64800000D02*
X56750000Y-64800000D01*
X52850000Y-66800000D02*
X56750000Y-66800000D01*
%TO.C,D18*%
X52850000Y-83200000D02*
X52850000Y-81200000D01*
X52850000Y-81200000D02*
X56750000Y-81200000D01*
X52850000Y-83200000D02*
X56750000Y-83200000D01*
%TO.C,D19*%
X52850000Y-99600000D02*
X52850000Y-97600000D01*
X52850000Y-97600000D02*
X56750000Y-97600000D01*
X52850000Y-99600000D02*
X56750000Y-99600000D01*
%TO.C,D20*%
X69650000Y-34000000D02*
X69650000Y-32000000D01*
X69650000Y-32000000D02*
X73550000Y-32000000D01*
X69650000Y-34000000D02*
X73550000Y-34000000D01*
%TO.C,D21*%
X69850000Y-50400000D02*
X69850000Y-48400000D01*
X69850000Y-48400000D02*
X73750000Y-48400000D01*
X69850000Y-50400000D02*
X73750000Y-50400000D01*
%TO.C,D22*%
X69850000Y-66800000D02*
X69850000Y-64800000D01*
X69850000Y-64800000D02*
X73750000Y-64800000D01*
X69850000Y-66800000D02*
X73750000Y-66800000D01*
%TO.C,D23*%
X69450000Y-83200000D02*
X69450000Y-81200000D01*
X69450000Y-81200000D02*
X73350000Y-81200000D01*
X69450000Y-83200000D02*
X73350000Y-83200000D01*
%TO.C,D24*%
X68650000Y-99900000D02*
X68650000Y-97900000D01*
X68650000Y-97900000D02*
X72550000Y-97900000D01*
X68650000Y-99900000D02*
X72550000Y-99900000D01*
%TO.C,D25*%
X69850000Y-64000000D02*
X69850000Y-62000000D01*
X69850000Y-62000000D02*
X73750000Y-62000000D01*
X69850000Y-64000000D02*
X73750000Y-64000000D01*
%TO.C,D26*%
X79675000Y-34000000D02*
X79675000Y-32000000D01*
X79675000Y-32000000D02*
X83575000Y-32000000D01*
X79675000Y-34000000D02*
X83575000Y-34000000D01*
%TO.C,D27*%
X87250000Y-50400000D02*
X87250000Y-48400000D01*
X87250000Y-48400000D02*
X91150000Y-48400000D01*
X87250000Y-50400000D02*
X91150000Y-50400000D01*
%TO.C,D28*%
X90450000Y-66800000D02*
X90450000Y-64800000D01*
X90450000Y-64800000D02*
X94350000Y-64800000D01*
X90450000Y-66800000D02*
X94350000Y-66800000D01*
%TO.C,D29*%
X86250000Y-83200000D02*
X86250000Y-81200000D01*
X86250000Y-81200000D02*
X90150000Y-81200000D01*
X86250000Y-83200000D02*
X90150000Y-83200000D01*
%TO.C,D30*%
X82550000Y-99600000D02*
X82550000Y-97600000D01*
X82550000Y-97600000D02*
X86450000Y-97600000D01*
X82550000Y-99600000D02*
X86450000Y-99600000D01*
%TO.C,D31*%
X103450000Y-27600000D02*
X103450000Y-25600000D01*
X103450000Y-25600000D02*
X107350000Y-25600000D01*
X103450000Y-27600000D02*
X107350000Y-27600000D01*
%TO.C,D32*%
X123250000Y-50400000D02*
X123250000Y-48400000D01*
X123250000Y-48400000D02*
X127150000Y-48400000D01*
X123250000Y-50400000D02*
X127150000Y-50400000D01*
%TO.C,D33*%
X111450000Y-66800000D02*
X111450000Y-64800000D01*
X111450000Y-64800000D02*
X115350000Y-64800000D01*
X111450000Y-66800000D02*
X115350000Y-66800000D01*
%TO.C,D34*%
X103450000Y-83200000D02*
X103450000Y-81200000D01*
X103450000Y-81200000D02*
X107350000Y-81200000D01*
X103450000Y-83200000D02*
X107350000Y-83200000D01*
%TO.C,D35*%
X103050000Y-99600000D02*
X103050000Y-97600000D01*
X103050000Y-97600000D02*
X106950000Y-97600000D01*
X103050000Y-99600000D02*
X106950000Y-99600000D01*
%TO.C,D36*%
X119450000Y-80400000D02*
X119450000Y-78400000D01*
X119450000Y-78400000D02*
X123350000Y-78400000D01*
X119450000Y-80400000D02*
X123350000Y-80400000D01*
%TO.C,D37*%
X120050000Y-27600000D02*
X120050000Y-25600000D01*
X120050000Y-25600000D02*
X123950000Y-25600000D01*
X120050000Y-27600000D02*
X123950000Y-27600000D01*
%TO.C,D38*%
X128650000Y-50400000D02*
X128650000Y-48400000D01*
X128650000Y-48400000D02*
X132550000Y-48400000D01*
X128650000Y-50400000D02*
X132550000Y-50400000D01*
%TO.C,D39*%
X128250000Y-66800000D02*
X128250000Y-64800000D01*
X128250000Y-64800000D02*
X132150000Y-64800000D01*
X128250000Y-66800000D02*
X132150000Y-66800000D01*
%TO.C,D40*%
X119450000Y-83200000D02*
X119450000Y-81200000D01*
X119450000Y-81200000D02*
X123350000Y-81200000D01*
X119450000Y-83200000D02*
X123350000Y-83200000D01*
%TO.C,D41*%
X120250000Y-99600000D02*
X120250000Y-97600000D01*
X120250000Y-97600000D02*
X124150000Y-97600000D01*
X120250000Y-99600000D02*
X124150000Y-99600000D01*
%TO.C,D42*%
X136850000Y-27600000D02*
X136850000Y-25600000D01*
X136850000Y-25600000D02*
X140750000Y-25600000D01*
X136850000Y-27600000D02*
X140750000Y-27600000D01*
%TO.C,D43*%
X145250000Y-50400000D02*
X145250000Y-48400000D01*
X145250000Y-48400000D02*
X149150000Y-48400000D01*
X145250000Y-50400000D02*
X149150000Y-50400000D01*
%TO.C,D44*%
X154050000Y-66800000D02*
X154050000Y-64800000D01*
X154050000Y-64800000D02*
X157950000Y-64800000D01*
X154050000Y-66800000D02*
X157950000Y-66800000D01*
%TO.C,D45*%
X136650000Y-83200000D02*
X136650000Y-81200000D01*
X136650000Y-81200000D02*
X140550000Y-81200000D01*
X136650000Y-83200000D02*
X140550000Y-83200000D01*
%TO.C,D46*%
X132450000Y-99600000D02*
X132450000Y-97600000D01*
X132450000Y-97600000D02*
X136350000Y-97600000D01*
X132450000Y-99600000D02*
X136350000Y-99600000D01*
%TO.C,D47*%
X153850000Y-97000000D02*
X153850000Y-95000000D01*
X153850000Y-95000000D02*
X157750000Y-95000000D01*
X153850000Y-97000000D02*
X157750000Y-97000000D01*
%TO.C,D48*%
X153650000Y-34000000D02*
X153650000Y-32000000D01*
X153650000Y-32000000D02*
X157550000Y-32000000D01*
X153650000Y-34000000D02*
X157550000Y-34000000D01*
%TO.C,D49*%
X162050000Y-50400000D02*
X162050000Y-48400000D01*
X162050000Y-48400000D02*
X165950000Y-48400000D01*
X162050000Y-50400000D02*
X165950000Y-50400000D01*
%TO.C,D50*%
X161850000Y-66800000D02*
X161850000Y-64800000D01*
X161850000Y-64800000D02*
X165750000Y-64800000D01*
X161850000Y-66800000D02*
X165750000Y-66800000D01*
%TO.C,D51*%
X153450000Y-83200000D02*
X153450000Y-81200000D01*
X153450000Y-81200000D02*
X157350000Y-81200000D01*
X153450000Y-83200000D02*
X157350000Y-83200000D01*
%TO.C,D52*%
X153850000Y-99600000D02*
X153850000Y-97600000D01*
X153850000Y-97600000D02*
X157750000Y-97600000D01*
X153850000Y-99600000D02*
X157750000Y-99600000D01*
%TO.C,D54*%
X169350000Y-34400000D02*
X169350000Y-32400000D01*
X169350000Y-32400000D02*
X173250000Y-32400000D01*
X169350000Y-34400000D02*
X173250000Y-34400000D01*
%TO.C,D55*%
X178850000Y-50400000D02*
X178850000Y-48400000D01*
X178850000Y-48400000D02*
X182750000Y-48400000D01*
X178850000Y-50400000D02*
X182750000Y-50400000D01*
%TO.C,D56*%
X178850000Y-66800000D02*
X178850000Y-64800000D01*
X178850000Y-64800000D02*
X182750000Y-64800000D01*
X178850000Y-66800000D02*
X182750000Y-66800000D01*
%TO.C,D57*%
X170450000Y-83200000D02*
X170450000Y-81200000D01*
X170450000Y-81200000D02*
X174350000Y-81200000D01*
X170450000Y-83200000D02*
X174350000Y-83200000D01*
%TO.C,D58*%
X166050000Y-99600000D02*
X166050000Y-97600000D01*
X166050000Y-97600000D02*
X169950000Y-97600000D01*
X166050000Y-99600000D02*
X169950000Y-99600000D01*
%TO.C,D59*%
X187250000Y-31200000D02*
X187250000Y-29200000D01*
X187250000Y-29200000D02*
X191150000Y-29200000D01*
X187250000Y-31200000D02*
X191150000Y-31200000D01*
%TO.C,D60*%
X187250000Y-34000000D02*
X187250000Y-32000000D01*
X187250000Y-32000000D02*
X191150000Y-32000000D01*
X187250000Y-34000000D02*
X191150000Y-34000000D01*
%TO.C,D61*%
X195650000Y-50400000D02*
X195650000Y-48400000D01*
X195650000Y-48400000D02*
X199550000Y-48400000D01*
X195650000Y-50400000D02*
X199550000Y-50400000D01*
%TO.C,D62*%
X195650000Y-66800000D02*
X195650000Y-64800000D01*
X195650000Y-64800000D02*
X199550000Y-64800000D01*
X195650000Y-66800000D02*
X199550000Y-66800000D01*
%TO.C,D63*%
X187250000Y-83200000D02*
X187250000Y-81200000D01*
X187250000Y-81200000D02*
X191150000Y-81200000D01*
X187250000Y-83200000D02*
X191150000Y-83200000D01*
%TO.C,D64*%
X185650000Y-99600000D02*
X185650000Y-97600000D01*
X185650000Y-97600000D02*
X189550000Y-97600000D01*
X185650000Y-99600000D02*
X189550000Y-99600000D01*
%TO.C,D66*%
X202950000Y-34400000D02*
X202950000Y-32400000D01*
X202950000Y-32400000D02*
X206850000Y-32400000D01*
X202950000Y-34400000D02*
X206850000Y-34400000D01*
%TO.C,D67*%
X212450000Y-50400000D02*
X212450000Y-48400000D01*
X212450000Y-48400000D02*
X216350000Y-48400000D01*
X212450000Y-50400000D02*
X216350000Y-50400000D01*
%TO.C,D68*%
X212450000Y-66800000D02*
X212450000Y-64800000D01*
X212450000Y-64800000D02*
X216350000Y-64800000D01*
X212450000Y-66800000D02*
X216350000Y-66800000D01*
%TO.C,D69*%
X204050000Y-83200000D02*
X204050000Y-81200000D01*
X204050000Y-81200000D02*
X207950000Y-81200000D01*
X204050000Y-83200000D02*
X207950000Y-83200000D01*
%TO.C,D70*%
X207450000Y-99600000D02*
X207450000Y-97600000D01*
X207450000Y-97600000D02*
X211350000Y-97600000D01*
X207450000Y-99600000D02*
X211350000Y-99600000D01*
%TO.C,D71*%
X229050000Y-47600000D02*
X229050000Y-45600000D01*
X229050000Y-45600000D02*
X232950000Y-45600000D01*
X229050000Y-47600000D02*
X232950000Y-47600000D01*
%TO.C,D72*%
X220850000Y-34000000D02*
X220850000Y-32000000D01*
X220850000Y-32000000D02*
X224750000Y-32000000D01*
X220850000Y-34000000D02*
X224750000Y-34000000D01*
%TO.C,D73*%
X229050000Y-50400000D02*
X229050000Y-48400000D01*
X229050000Y-48400000D02*
X232950000Y-48400000D01*
X229050000Y-50400000D02*
X232950000Y-50400000D01*
%TO.C,D74*%
X229250000Y-66800000D02*
X229250000Y-64800000D01*
X229250000Y-64800000D02*
X233150000Y-64800000D01*
X229250000Y-66800000D02*
X233150000Y-66800000D01*
%TO.C,D75*%
X220850000Y-83200000D02*
X220850000Y-81200000D01*
X220850000Y-81200000D02*
X224750000Y-81200000D01*
X220850000Y-83200000D02*
X224750000Y-83200000D01*
%TO.C,D76*%
X213850000Y-99600000D02*
X213850000Y-97600000D01*
X213850000Y-97600000D02*
X217750000Y-97600000D01*
X213850000Y-99600000D02*
X217750000Y-99600000D01*
%TO.C,D78*%
X236650000Y-34400000D02*
X236650000Y-32400000D01*
X236650000Y-32400000D02*
X240550000Y-32400000D01*
X236650000Y-34400000D02*
X240550000Y-34400000D01*
%TO.C,D79*%
X246250000Y-50400000D02*
X246250000Y-48400000D01*
X246250000Y-48400000D02*
X250150000Y-48400000D01*
X246250000Y-50400000D02*
X250150000Y-50400000D01*
%TO.C,D80*%
X246250000Y-66800000D02*
X246250000Y-64800000D01*
X246250000Y-64800000D02*
X250150000Y-64800000D01*
X246250000Y-66800000D02*
X250150000Y-66800000D01*
%TO.C,D81*%
X237850000Y-83200000D02*
X237850000Y-81200000D01*
X237850000Y-81200000D02*
X241750000Y-81200000D01*
X237850000Y-83200000D02*
X241750000Y-83200000D01*
%TO.C,D82*%
X233650000Y-99600000D02*
X233650000Y-97600000D01*
X233650000Y-97600000D02*
X237550000Y-97600000D01*
X233650000Y-99600000D02*
X237550000Y-99600000D01*
%TO.C,D83*%
X263050000Y-64000000D02*
X263050000Y-62000000D01*
X263050000Y-62000000D02*
X266950000Y-62000000D01*
X263050000Y-64000000D02*
X266950000Y-64000000D01*
%TO.C,D84*%
X254450000Y-34000000D02*
X254450000Y-32000000D01*
X254450000Y-32000000D02*
X258350000Y-32000000D01*
X254450000Y-34000000D02*
X258350000Y-34000000D01*
%TO.C,D85*%
X263050000Y-50400000D02*
X263050000Y-48400000D01*
X263050000Y-48400000D02*
X266950000Y-48400000D01*
X263050000Y-50400000D02*
X266950000Y-50400000D01*
%TO.C,D86*%
X263050000Y-66800000D02*
X263050000Y-64800000D01*
X263050000Y-64800000D02*
X266950000Y-64800000D01*
X263050000Y-66800000D02*
X266950000Y-66800000D01*
%TO.C,D87*%
X254450000Y-83200000D02*
X254450000Y-81200000D01*
X254450000Y-81200000D02*
X258350000Y-81200000D01*
X254450000Y-83200000D02*
X258350000Y-83200000D01*
%TO.C,D88*%
X264450000Y-99600000D02*
X264450000Y-97600000D01*
X264450000Y-97600000D02*
X268350000Y-97600000D01*
X264450000Y-99600000D02*
X268350000Y-99600000D01*
%TO.C,D90*%
X260900000Y-36350000D02*
X260900000Y-34350000D01*
X260900000Y-34350000D02*
X264800000Y-34350000D01*
X260900000Y-36350000D02*
X264800000Y-36350000D01*
%TO.C,D91*%
X271250000Y-83200000D02*
X271250000Y-81200000D01*
X271250000Y-81200000D02*
X275150000Y-81200000D01*
X271250000Y-83200000D02*
X275150000Y-83200000D01*
%TO.C,D92*%
X270450000Y-99600000D02*
X270450000Y-97600000D01*
X270450000Y-97600000D02*
X274350000Y-97600000D01*
X270450000Y-99600000D02*
X274350000Y-99600000D01*
%TO.C,D93*%
X281250000Y-86000000D02*
X281250000Y-84000000D01*
X281250000Y-84000000D02*
X285150000Y-84000000D01*
X281250000Y-86000000D02*
X285150000Y-86000000D01*
%TO.C,D95*%
X283850000Y-34000000D02*
X283850000Y-32000000D01*
X283850000Y-32000000D02*
X287750000Y-32000000D01*
X283850000Y-34000000D02*
X287750000Y-34000000D01*
%TO.C,D96*%
X283850000Y-50400000D02*
X283850000Y-48400000D01*
X283850000Y-48400000D02*
X287750000Y-48400000D01*
X283850000Y-50400000D02*
X287750000Y-50400000D01*
%TO.C,D97*%
X283650000Y-66800000D02*
X283650000Y-64800000D01*
X283650000Y-64800000D02*
X287550000Y-64800000D01*
X283650000Y-66800000D02*
X287550000Y-66800000D01*
%TO.C,D98*%
X281250000Y-83200000D02*
X281250000Y-81200000D01*
X281250000Y-81200000D02*
X285150000Y-81200000D01*
X281250000Y-83200000D02*
X285150000Y-83200000D01*
%TO.C,D99*%
X280650000Y-99600000D02*
X280650000Y-97600000D01*
X280650000Y-97600000D02*
X284550000Y-97600000D01*
X280650000Y-99600000D02*
X284550000Y-99600000D01*
%TO.C,F1*%
X42960000Y-21452064D02*
X42960000Y-20247936D01*
X41140000Y-21452064D02*
X41140000Y-20247936D01*
%TO.C,JP_LED2*%
X84200000Y-21050000D02*
X82200000Y-21050000D01*
X84200000Y-25150000D02*
X84200000Y-21050000D01*
X82200000Y-25150000D02*
X84200000Y-25150000D01*
X82200000Y-21050000D02*
X82200000Y-25150000D01*
%TO.C,R1*%
X28727064Y-28065000D02*
X28272936Y-28065000D01*
X28727064Y-29535000D02*
X28272936Y-29535000D01*
%TO.C,R4*%
X33872936Y-64035000D02*
X34327064Y-64035000D01*
X33872936Y-62565000D02*
X34327064Y-62565000D01*
%TO.C,R5*%
X24772936Y-19635000D02*
X25227064Y-19635000D01*
X24772936Y-18165000D02*
X25227064Y-18165000D01*
%TO.C,R6*%
X24772936Y-21935000D02*
X25227064Y-21935000D01*
X24772936Y-20465000D02*
X25227064Y-20465000D01*
%TO.C,R8*%
X38527064Y-27615000D02*
X38072936Y-27615000D01*
X38527064Y-29085000D02*
X38072936Y-29085000D01*
%TO.C,R9*%
X103912611Y-61652058D02*
X104233728Y-61973175D01*
X104952058Y-60612611D02*
X105273175Y-60933728D01*
%TO.C,ResetSW1*%
X38380000Y-64160000D02*
X38380000Y-66240000D01*
X42550000Y-67920000D02*
X43040000Y-67430000D01*
X43820000Y-64160000D02*
X43820000Y-66240000D01*
X39650000Y-67920000D02*
X39160000Y-67430000D01*
X39650000Y-67920000D02*
X42550000Y-67920000D01*
X39650000Y-62480000D02*
X39160000Y-62970000D01*
X39650000Y-62480000D02*
X42550000Y-62480000D01*
X42550000Y-62480000D02*
X43040000Y-62970000D01*
D12*
%TO.C,J1*%
X28925000Y-22885000D02*
X37875000Y-22885000D01*
X28925000Y-16575000D02*
X28925000Y-16225000D01*
X28925000Y-16225000D02*
X37875000Y-16225000D01*
X37875000Y-16225000D02*
X37875000Y-16575000D01*
D13*
%TO.C,J2*%
X138880000Y-46430000D02*
X138880000Y-45100000D01*
X137550000Y-46430000D02*
X138880000Y-46430000D01*
X138880000Y-43830000D02*
X138880000Y-41230000D01*
X136280000Y-43830000D02*
X138880000Y-43830000D01*
X136280000Y-46430000D02*
X136280000Y-43830000D01*
X138880000Y-41230000D02*
X131140000Y-41230000D01*
X136280000Y-46430000D02*
X131140000Y-46430000D01*
X131140000Y-46430000D02*
X131140000Y-41230000D01*
%TO.C,JP_LED1*%
X92000000Y-21050000D02*
X92000000Y-25150000D01*
X92000000Y-25150000D02*
X94000000Y-25150000D01*
X94000000Y-25150000D02*
X94000000Y-21050000D01*
X94000000Y-21050000D02*
X92000000Y-21050000D01*
%TO.C,J4*%
X113930000Y-23330000D02*
X113930000Y-20670000D01*
X116530000Y-23330000D02*
X113930000Y-23330000D01*
X116530000Y-20670000D02*
X113930000Y-20670000D01*
X116530000Y-23330000D02*
X116530000Y-20670000D01*
X117800000Y-23330000D02*
X119130000Y-23330000D01*
X119130000Y-23330000D02*
X119130000Y-22000000D01*
D10*
%TO.C,U1*%
X107300000Y-54726524D02*
X106751992Y-54178516D01*
X112426524Y-49600000D02*
X111878516Y-49051992D01*
X107300000Y-44473476D02*
X107848008Y-45021484D01*
X102173476Y-49600000D02*
X102721484Y-50148008D01*
X112426524Y-49600000D02*
X111878516Y-50148008D01*
X107300000Y-44473476D02*
X106751992Y-45021484D01*
X107300000Y-54726524D02*
X107848008Y-54178516D01*
%TO.C,C2*%
X120720389Y-44234687D02*
X120787732Y-44234687D01*
X120922419Y-44167343D01*
X120989763Y-44100000D01*
X121057106Y-43965312D01*
X121057106Y-43830625D01*
X121023435Y-43729610D01*
X120922419Y-43561251D01*
X120821404Y-43460236D01*
X120653045Y-43359221D01*
X120552030Y-43325549D01*
X120417343Y-43325549D01*
X120282656Y-43392893D01*
X120215312Y-43460236D01*
X120147969Y-43594923D01*
X120147969Y-43662267D01*
X119878595Y-43931641D02*
X119811251Y-43931641D01*
X119710236Y-43965312D01*
X119541877Y-44133671D01*
X119508206Y-44234687D01*
X119508206Y-44302030D01*
X119541877Y-44403045D01*
X119609221Y-44470389D01*
X119743908Y-44537732D01*
X120552030Y-44537732D01*
X120114297Y-44975465D01*
%TO.C,R7*%
X41866666Y-26652380D02*
X42200000Y-26176190D01*
X42438095Y-26652380D02*
X42438095Y-25652380D01*
X42057142Y-25652380D01*
X41961904Y-25700000D01*
X41914285Y-25747619D01*
X41866666Y-25842857D01*
X41866666Y-25985714D01*
X41914285Y-26080952D01*
X41961904Y-26128571D01*
X42057142Y-26176190D01*
X42438095Y-26176190D01*
X41533333Y-25652380D02*
X40866666Y-25652380D01*
X41295238Y-26652380D01*
%TO.C,D102*%
X35810476Y-30252380D02*
X35810476Y-29252380D01*
X35572380Y-29252380D01*
X35429523Y-29300000D01*
X35334285Y-29395238D01*
X35286666Y-29490476D01*
X35239047Y-29680952D01*
X35239047Y-29823809D01*
X35286666Y-30014285D01*
X35334285Y-30109523D01*
X35429523Y-30204761D01*
X35572380Y-30252380D01*
X35810476Y-30252380D01*
X34286666Y-30252380D02*
X34858095Y-30252380D01*
X34572380Y-30252380D02*
X34572380Y-29252380D01*
X34667619Y-29395238D01*
X34762857Y-29490476D01*
X34858095Y-29538095D01*
X33667619Y-29252380D02*
X33572380Y-29252380D01*
X33477142Y-29300000D01*
X33429523Y-29347619D01*
X33381904Y-29442857D01*
X33334285Y-29633333D01*
X33334285Y-29871428D01*
X33381904Y-30061904D01*
X33429523Y-30157142D01*
X33477142Y-30204761D01*
X33572380Y-30252380D01*
X33667619Y-30252380D01*
X33762857Y-30204761D01*
X33810476Y-30157142D01*
X33858095Y-30061904D01*
X33905714Y-29871428D01*
X33905714Y-29633333D01*
X33858095Y-29442857D01*
X33810476Y-29347619D01*
X33762857Y-29300000D01*
X33667619Y-29252380D01*
X32953333Y-29347619D02*
X32905714Y-29300000D01*
X32810476Y-29252380D01*
X32572380Y-29252380D01*
X32477142Y-29300000D01*
X32429523Y-29347619D01*
X32381904Y-29442857D01*
X32381904Y-29538095D01*
X32429523Y-29680952D01*
X33000952Y-30252380D01*
X32381904Y-30252380D01*
%TO.C,C3*%
X114620389Y-39134687D02*
X114687732Y-39134687D01*
X114822419Y-39067343D01*
X114889763Y-39000000D01*
X114957106Y-38865312D01*
X114957106Y-38730625D01*
X114923435Y-38629610D01*
X114822419Y-38461251D01*
X114721404Y-38360236D01*
X114553045Y-38259221D01*
X114452030Y-38225549D01*
X114317343Y-38225549D01*
X114182656Y-38292893D01*
X114115312Y-38360236D01*
X114047969Y-38494923D01*
X114047969Y-38562267D01*
X113744923Y-38730625D02*
X113307190Y-39168358D01*
X113812267Y-39202030D01*
X113711251Y-39303045D01*
X113677580Y-39404061D01*
X113677580Y-39471404D01*
X113711251Y-39572419D01*
X113879610Y-39740778D01*
X113980625Y-39774450D01*
X114047969Y-39774450D01*
X114148984Y-39740778D01*
X114351015Y-39538748D01*
X114384687Y-39437732D01*
X114384687Y-39370389D01*
%TO.C,Y1*%
X117753553Y-41569881D02*
X117416835Y-41906599D01*
X118359644Y-41435194D02*
X117753553Y-41569881D01*
X117888240Y-40963790D01*
X116575042Y-41064805D02*
X116979103Y-41468866D01*
X116777072Y-41266835D02*
X117484179Y-40559729D01*
X117450507Y-40728087D01*
X117450507Y-40862774D01*
X117484179Y-40963790D01*
%TO.C,D94*%
X284214285Y-94252380D02*
X284214285Y-93252380D01*
X283976190Y-93252380D01*
X283833333Y-93300000D01*
X283738095Y-93395238D01*
X283690476Y-93490476D01*
X283642857Y-93680952D01*
X283642857Y-93823809D01*
X283690476Y-94014285D01*
X283738095Y-94109523D01*
X283833333Y-94204761D01*
X283976190Y-94252380D01*
X284214285Y-94252380D01*
X283166666Y-94252380D02*
X282976190Y-94252380D01*
X282880952Y-94204761D01*
X282833333Y-94157142D01*
X282738095Y-94014285D01*
X282690476Y-93823809D01*
X282690476Y-93442857D01*
X282738095Y-93347619D01*
X282785714Y-93300000D01*
X282880952Y-93252380D01*
X283071428Y-93252380D01*
X283166666Y-93300000D01*
X283214285Y-93347619D01*
X283261904Y-93442857D01*
X283261904Y-93680952D01*
X283214285Y-93776190D01*
X283166666Y-93823809D01*
X283071428Y-93871428D01*
X282880952Y-93871428D01*
X282785714Y-93823809D01*
X282738095Y-93776190D01*
X282690476Y-93680952D01*
X281833333Y-93585714D02*
X281833333Y-94252380D01*
X282071428Y-93204761D02*
X282309523Y-93919047D01*
X281690476Y-93919047D01*
%TO.C,C1*%
X120957142Y-48483333D02*
X121004761Y-48435714D01*
X121052380Y-48292857D01*
X121052380Y-48197619D01*
X121004761Y-48054761D01*
X120909523Y-47959523D01*
X120814285Y-47911904D01*
X120623809Y-47864285D01*
X120480952Y-47864285D01*
X120290476Y-47911904D01*
X120195238Y-47959523D01*
X120100000Y-48054761D01*
X120052380Y-48197619D01*
X120052380Y-48292857D01*
X120100000Y-48435714D01*
X120147619Y-48483333D01*
X121052380Y-49435714D02*
X121052380Y-48864285D01*
X121052380Y-49150000D02*
X120052380Y-49150000D01*
X120195238Y-49054761D01*
X120290476Y-48959523D01*
X120338095Y-48864285D01*
%TO.C,C4*%
X107965312Y-62370388D02*
X107965312Y-62437731D01*
X108032656Y-62572418D01*
X108100000Y-62639762D01*
X108234687Y-62707105D01*
X108369374Y-62707105D01*
X108470389Y-62673434D01*
X108638748Y-62572418D01*
X108739763Y-62471403D01*
X108840778Y-62303044D01*
X108874450Y-62202029D01*
X108874450Y-62067342D01*
X108807106Y-61932655D01*
X108739763Y-61865311D01*
X108605076Y-61797968D01*
X108537732Y-61797968D01*
X107763282Y-61360235D02*
X107291877Y-61831640D01*
X108201015Y-61259220D02*
X107864297Y-61932655D01*
X107426564Y-61494922D01*
%TO.C,C5*%
X99670389Y-45134687D02*
X99737732Y-45134687D01*
X99872419Y-45067343D01*
X99939763Y-45000000D01*
X100007106Y-44865312D01*
X100007106Y-44730625D01*
X99973435Y-44629610D01*
X99872419Y-44461251D01*
X99771404Y-44360236D01*
X99603045Y-44259221D01*
X99502030Y-44225549D01*
X99367343Y-44225549D01*
X99232656Y-44292893D01*
X99165312Y-44360236D01*
X99097969Y-44494923D01*
X99097969Y-44562267D01*
X98390862Y-45134687D02*
X98727580Y-44797969D01*
X99097969Y-45101015D01*
X99030625Y-45101015D01*
X98929610Y-45134687D01*
X98761251Y-45303045D01*
X98727580Y-45404061D01*
X98727580Y-45471404D01*
X98761251Y-45572419D01*
X98929610Y-45740778D01*
X99030625Y-45774450D01*
X99097969Y-45774450D01*
X99198984Y-45740778D01*
X99367343Y-45572419D01*
X99401015Y-45471404D01*
X99401015Y-45404061D01*
%TO.C,C6*%
X98070389Y-43534687D02*
X98137732Y-43534687D01*
X98272419Y-43467343D01*
X98339763Y-43400000D01*
X98407106Y-43265312D01*
X98407106Y-43130625D01*
X98373435Y-43029610D01*
X98272419Y-42861251D01*
X98171404Y-42760236D01*
X98003045Y-42659221D01*
X97902030Y-42625549D01*
X97767343Y-42625549D01*
X97632656Y-42692893D01*
X97565312Y-42760236D01*
X97497969Y-42894923D01*
X97497969Y-42962267D01*
X96824534Y-43501015D02*
X96959221Y-43366328D01*
X97060236Y-43332656D01*
X97127580Y-43332656D01*
X97295938Y-43366328D01*
X97464297Y-43467343D01*
X97733671Y-43736717D01*
X97767343Y-43837732D01*
X97767343Y-43905076D01*
X97733671Y-44006091D01*
X97598984Y-44140778D01*
X97497969Y-44174450D01*
X97430625Y-44174450D01*
X97329610Y-44140778D01*
X97161251Y-43972419D01*
X97127580Y-43871404D01*
X97127580Y-43804061D01*
X97161251Y-43703045D01*
X97295938Y-43568358D01*
X97396954Y-43534687D01*
X97464297Y-43534687D01*
X97565312Y-43568358D01*
%TO.C,C7*%
X97257142Y-47283333D02*
X97304761Y-47235714D01*
X97352380Y-47092857D01*
X97352380Y-46997619D01*
X97304761Y-46854761D01*
X97209523Y-46759523D01*
X97114285Y-46711904D01*
X96923809Y-46664285D01*
X96780952Y-46664285D01*
X96590476Y-46711904D01*
X96495238Y-46759523D01*
X96400000Y-46854761D01*
X96352380Y-46997619D01*
X96352380Y-47092857D01*
X96400000Y-47235714D01*
X96447619Y-47283333D01*
X96352380Y-47616666D02*
X96352380Y-48283333D01*
X97352380Y-47854761D01*
%TO.C,D1*%
X22438095Y-28852380D02*
X22438095Y-27852380D01*
X22200000Y-27852380D01*
X22057142Y-27900000D01*
X21961904Y-27995238D01*
X21914285Y-28090476D01*
X21866666Y-28280952D01*
X21866666Y-28423809D01*
X21914285Y-28614285D01*
X21961904Y-28709523D01*
X22057142Y-28804761D01*
X22200000Y-28852380D01*
X22438095Y-28852380D01*
X20914285Y-28852380D02*
X21485714Y-28852380D01*
X21200000Y-28852380D02*
X21200000Y-27852380D01*
X21295238Y-27995238D01*
X21390476Y-28090476D01*
X21485714Y-28138095D01*
%TO.C,D2*%
X22038095Y-23952380D02*
X22038095Y-22952380D01*
X21800000Y-22952380D01*
X21657142Y-23000000D01*
X21561904Y-23095238D01*
X21514285Y-23190476D01*
X21466666Y-23380952D01*
X21466666Y-23523809D01*
X21514285Y-23714285D01*
X21561904Y-23809523D01*
X21657142Y-23904761D01*
X21800000Y-23952380D01*
X22038095Y-23952380D01*
X21085714Y-23047619D02*
X21038095Y-23000000D01*
X20942857Y-22952380D01*
X20704761Y-22952380D01*
X20609523Y-23000000D01*
X20561904Y-23047619D01*
X20514285Y-23142857D01*
X20514285Y-23238095D01*
X20561904Y-23380952D01*
X21133333Y-23952380D01*
X20514285Y-23952380D01*
%TO.C,D3*%
X22438095Y-35452380D02*
X22438095Y-34452380D01*
X22200000Y-34452380D01*
X22057142Y-34500000D01*
X21961904Y-34595238D01*
X21914285Y-34690476D01*
X21866666Y-34880952D01*
X21866666Y-35023809D01*
X21914285Y-35214285D01*
X21961904Y-35309523D01*
X22057142Y-35404761D01*
X22200000Y-35452380D01*
X22438095Y-35452380D01*
X21533333Y-34452380D02*
X20914285Y-34452380D01*
X21247619Y-34833333D01*
X21104761Y-34833333D01*
X21009523Y-34880952D01*
X20961904Y-34928571D01*
X20914285Y-35023809D01*
X20914285Y-35261904D01*
X20961904Y-35357142D01*
X21009523Y-35404761D01*
X21104761Y-35452380D01*
X21390476Y-35452380D01*
X21485714Y-35404761D01*
X21533333Y-35357142D01*
%TO.C,D4*%
X22438095Y-51852380D02*
X22438095Y-50852380D01*
X22200000Y-50852380D01*
X22057142Y-50900000D01*
X21961904Y-50995238D01*
X21914285Y-51090476D01*
X21866666Y-51280952D01*
X21866666Y-51423809D01*
X21914285Y-51614285D01*
X21961904Y-51709523D01*
X22057142Y-51804761D01*
X22200000Y-51852380D01*
X22438095Y-51852380D01*
X21009523Y-51185714D02*
X21009523Y-51852380D01*
X21247619Y-50804761D02*
X21485714Y-51519047D01*
X20866666Y-51519047D01*
%TO.C,D5*%
X22238095Y-68252380D02*
X22238095Y-67252380D01*
X22000000Y-67252380D01*
X21857142Y-67300000D01*
X21761904Y-67395238D01*
X21714285Y-67490476D01*
X21666666Y-67680952D01*
X21666666Y-67823809D01*
X21714285Y-68014285D01*
X21761904Y-68109523D01*
X21857142Y-68204761D01*
X22000000Y-68252380D01*
X22238095Y-68252380D01*
X20761904Y-67252380D02*
X21238095Y-67252380D01*
X21285714Y-67728571D01*
X21238095Y-67680952D01*
X21142857Y-67633333D01*
X20904761Y-67633333D01*
X20809523Y-67680952D01*
X20761904Y-67728571D01*
X20714285Y-67823809D01*
X20714285Y-68061904D01*
X20761904Y-68157142D01*
X20809523Y-68204761D01*
X20904761Y-68252380D01*
X21142857Y-68252380D01*
X21238095Y-68204761D01*
X21285714Y-68157142D01*
%TO.C,D6*%
X22438095Y-84652380D02*
X22438095Y-83652380D01*
X22200000Y-83652380D01*
X22057142Y-83700000D01*
X21961904Y-83795238D01*
X21914285Y-83890476D01*
X21866666Y-84080952D01*
X21866666Y-84223809D01*
X21914285Y-84414285D01*
X21961904Y-84509523D01*
X22057142Y-84604761D01*
X22200000Y-84652380D01*
X22438095Y-84652380D01*
X21009523Y-83652380D02*
X21200000Y-83652380D01*
X21295238Y-83700000D01*
X21342857Y-83747619D01*
X21438095Y-83890476D01*
X21485714Y-84080952D01*
X21485714Y-84461904D01*
X21438095Y-84557142D01*
X21390476Y-84604761D01*
X21295238Y-84652380D01*
X21104761Y-84652380D01*
X21009523Y-84604761D01*
X20961904Y-84557142D01*
X20914285Y-84461904D01*
X20914285Y-84223809D01*
X20961904Y-84128571D01*
X21009523Y-84080952D01*
X21104761Y-84033333D01*
X21295238Y-84033333D01*
X21390476Y-84080952D01*
X21438095Y-84128571D01*
X21485714Y-84223809D01*
%TO.C,D7*%
X22238095Y-101052380D02*
X22238095Y-100052380D01*
X22000000Y-100052380D01*
X21857142Y-100100000D01*
X21761904Y-100195238D01*
X21714285Y-100290476D01*
X21666666Y-100480952D01*
X21666666Y-100623809D01*
X21714285Y-100814285D01*
X21761904Y-100909523D01*
X21857142Y-101004761D01*
X22000000Y-101052380D01*
X22238095Y-101052380D01*
X21333333Y-100052380D02*
X20666666Y-100052380D01*
X21095238Y-101052380D01*
%TO.C,D9*%
X39338095Y-35252380D02*
X39338095Y-34252380D01*
X39100000Y-34252380D01*
X38957142Y-34300000D01*
X38861904Y-34395238D01*
X38814285Y-34490476D01*
X38766666Y-34680952D01*
X38766666Y-34823809D01*
X38814285Y-35014285D01*
X38861904Y-35109523D01*
X38957142Y-35204761D01*
X39100000Y-35252380D01*
X39338095Y-35252380D01*
X38290476Y-35252380D02*
X38100000Y-35252380D01*
X38004761Y-35204761D01*
X37957142Y-35157142D01*
X37861904Y-35014285D01*
X37814285Y-34823809D01*
X37814285Y-34442857D01*
X37861904Y-34347619D01*
X37909523Y-34300000D01*
X38004761Y-34252380D01*
X38195238Y-34252380D01*
X38290476Y-34300000D01*
X38338095Y-34347619D01*
X38385714Y-34442857D01*
X38385714Y-34680952D01*
X38338095Y-34776190D01*
X38290476Y-34823809D01*
X38195238Y-34871428D01*
X38004761Y-34871428D01*
X37909523Y-34823809D01*
X37861904Y-34776190D01*
X37814285Y-34680952D01*
%TO.C,D10*%
X40914285Y-51652380D02*
X40914285Y-50652380D01*
X40676190Y-50652380D01*
X40533333Y-50700000D01*
X40438095Y-50795238D01*
X40390476Y-50890476D01*
X40342857Y-51080952D01*
X40342857Y-51223809D01*
X40390476Y-51414285D01*
X40438095Y-51509523D01*
X40533333Y-51604761D01*
X40676190Y-51652380D01*
X40914285Y-51652380D01*
X39390476Y-51652380D02*
X39961904Y-51652380D01*
X39676190Y-51652380D02*
X39676190Y-50652380D01*
X39771428Y-50795238D01*
X39866666Y-50890476D01*
X39961904Y-50938095D01*
X38771428Y-50652380D02*
X38676190Y-50652380D01*
X38580952Y-50700000D01*
X38533333Y-50747619D01*
X38485714Y-50842857D01*
X38438095Y-51033333D01*
X38438095Y-51271428D01*
X38485714Y-51461904D01*
X38533333Y-51557142D01*
X38580952Y-51604761D01*
X38676190Y-51652380D01*
X38771428Y-51652380D01*
X38866666Y-51604761D01*
X38914285Y-51557142D01*
X38961904Y-51461904D01*
X39009523Y-51271428D01*
X39009523Y-51033333D01*
X38961904Y-50842857D01*
X38914285Y-50747619D01*
X38866666Y-50700000D01*
X38771428Y-50652380D01*
%TO.C,D11*%
X35314285Y-68252380D02*
X35314285Y-67252380D01*
X35076190Y-67252380D01*
X34933333Y-67300000D01*
X34838095Y-67395238D01*
X34790476Y-67490476D01*
X34742857Y-67680952D01*
X34742857Y-67823809D01*
X34790476Y-68014285D01*
X34838095Y-68109523D01*
X34933333Y-68204761D01*
X35076190Y-68252380D01*
X35314285Y-68252380D01*
X33790476Y-68252380D02*
X34361904Y-68252380D01*
X34076190Y-68252380D02*
X34076190Y-67252380D01*
X34171428Y-67395238D01*
X34266666Y-67490476D01*
X34361904Y-67538095D01*
X32838095Y-68252380D02*
X33409523Y-68252380D01*
X33123809Y-68252380D02*
X33123809Y-67252380D01*
X33219047Y-67395238D01*
X33314285Y-67490476D01*
X33409523Y-67538095D01*
%TO.C,D12*%
X40314285Y-84652380D02*
X40314285Y-83652380D01*
X40076190Y-83652380D01*
X39933333Y-83700000D01*
X39838095Y-83795238D01*
X39790476Y-83890476D01*
X39742857Y-84080952D01*
X39742857Y-84223809D01*
X39790476Y-84414285D01*
X39838095Y-84509523D01*
X39933333Y-84604761D01*
X40076190Y-84652380D01*
X40314285Y-84652380D01*
X38790476Y-84652380D02*
X39361904Y-84652380D01*
X39076190Y-84652380D02*
X39076190Y-83652380D01*
X39171428Y-83795238D01*
X39266666Y-83890476D01*
X39361904Y-83938095D01*
X38409523Y-83747619D02*
X38361904Y-83700000D01*
X38266666Y-83652380D01*
X38028571Y-83652380D01*
X37933333Y-83700000D01*
X37885714Y-83747619D01*
X37838095Y-83842857D01*
X37838095Y-83938095D01*
X37885714Y-84080952D01*
X38457142Y-84652380D01*
X37838095Y-84652380D01*
%TO.C,D13*%
X40114285Y-101052380D02*
X40114285Y-100052380D01*
X39876190Y-100052380D01*
X39733333Y-100100000D01*
X39638095Y-100195238D01*
X39590476Y-100290476D01*
X39542857Y-100480952D01*
X39542857Y-100623809D01*
X39590476Y-100814285D01*
X39638095Y-100909523D01*
X39733333Y-101004761D01*
X39876190Y-101052380D01*
X40114285Y-101052380D01*
X38590476Y-101052380D02*
X39161904Y-101052380D01*
X38876190Y-101052380D02*
X38876190Y-100052380D01*
X38971428Y-100195238D01*
X39066666Y-100290476D01*
X39161904Y-100338095D01*
X38257142Y-100052380D02*
X37638095Y-100052380D01*
X37971428Y-100433333D01*
X37828571Y-100433333D01*
X37733333Y-100480952D01*
X37685714Y-100528571D01*
X37638095Y-100623809D01*
X37638095Y-100861904D01*
X37685714Y-100957142D01*
X37733333Y-101004761D01*
X37828571Y-101052380D01*
X38114285Y-101052380D01*
X38209523Y-101004761D01*
X38257142Y-100957142D01*
%TO.C,D14*%
X65314285Y-45052380D02*
X65314285Y-44052380D01*
X65076190Y-44052380D01*
X64933333Y-44100000D01*
X64838095Y-44195238D01*
X64790476Y-44290476D01*
X64742857Y-44480952D01*
X64742857Y-44623809D01*
X64790476Y-44814285D01*
X64838095Y-44909523D01*
X64933333Y-45004761D01*
X65076190Y-45052380D01*
X65314285Y-45052380D01*
X63790476Y-45052380D02*
X64361904Y-45052380D01*
X64076190Y-45052380D02*
X64076190Y-44052380D01*
X64171428Y-44195238D01*
X64266666Y-44290476D01*
X64361904Y-44338095D01*
X62933333Y-44385714D02*
X62933333Y-45052380D01*
X63171428Y-44004761D02*
X63409523Y-44719047D01*
X62790476Y-44719047D01*
%TO.C,D15*%
X57014285Y-35852380D02*
X57014285Y-34852380D01*
X56776190Y-34852380D01*
X56633333Y-34900000D01*
X56538095Y-34995238D01*
X56490476Y-35090476D01*
X56442857Y-35280952D01*
X56442857Y-35423809D01*
X56490476Y-35614285D01*
X56538095Y-35709523D01*
X56633333Y-35804761D01*
X56776190Y-35852380D01*
X57014285Y-35852380D01*
X55490476Y-35852380D02*
X56061904Y-35852380D01*
X55776190Y-35852380D02*
X55776190Y-34852380D01*
X55871428Y-34995238D01*
X55966666Y-35090476D01*
X56061904Y-35138095D01*
X54585714Y-34852380D02*
X55061904Y-34852380D01*
X55109523Y-35328571D01*
X55061904Y-35280952D01*
X54966666Y-35233333D01*
X54728571Y-35233333D01*
X54633333Y-35280952D01*
X54585714Y-35328571D01*
X54538095Y-35423809D01*
X54538095Y-35661904D01*
X54585714Y-35757142D01*
X54633333Y-35804761D01*
X54728571Y-35852380D01*
X54966666Y-35852380D01*
X55061904Y-35804761D01*
X55109523Y-35757142D01*
%TO.C,D16*%
X65314285Y-51852380D02*
X65314285Y-50852380D01*
X65076190Y-50852380D01*
X64933333Y-50900000D01*
X64838095Y-50995238D01*
X64790476Y-51090476D01*
X64742857Y-51280952D01*
X64742857Y-51423809D01*
X64790476Y-51614285D01*
X64838095Y-51709523D01*
X64933333Y-51804761D01*
X65076190Y-51852380D01*
X65314285Y-51852380D01*
X63790476Y-51852380D02*
X64361904Y-51852380D01*
X64076190Y-51852380D02*
X64076190Y-50852380D01*
X64171428Y-50995238D01*
X64266666Y-51090476D01*
X64361904Y-51138095D01*
X62933333Y-50852380D02*
X63123809Y-50852380D01*
X63219047Y-50900000D01*
X63266666Y-50947619D01*
X63361904Y-51090476D01*
X63409523Y-51280952D01*
X63409523Y-51661904D01*
X63361904Y-51757142D01*
X63314285Y-51804761D01*
X63219047Y-51852380D01*
X63028571Y-51852380D01*
X62933333Y-51804761D01*
X62885714Y-51757142D01*
X62838095Y-51661904D01*
X62838095Y-51423809D01*
X62885714Y-51328571D01*
X62933333Y-51280952D01*
X63028571Y-51233333D01*
X63219047Y-51233333D01*
X63314285Y-51280952D01*
X63361904Y-51328571D01*
X63409523Y-51423809D01*
%TO.C,D17*%
X56714285Y-68252380D02*
X56714285Y-67252380D01*
X56476190Y-67252380D01*
X56333333Y-67300000D01*
X56238095Y-67395238D01*
X56190476Y-67490476D01*
X56142857Y-67680952D01*
X56142857Y-67823809D01*
X56190476Y-68014285D01*
X56238095Y-68109523D01*
X56333333Y-68204761D01*
X56476190Y-68252380D01*
X56714285Y-68252380D01*
X55190476Y-68252380D02*
X55761904Y-68252380D01*
X55476190Y-68252380D02*
X55476190Y-67252380D01*
X55571428Y-67395238D01*
X55666666Y-67490476D01*
X55761904Y-67538095D01*
X54857142Y-67252380D02*
X54190476Y-67252380D01*
X54619047Y-68252380D01*
%TO.C,D18*%
X56914285Y-84652380D02*
X56914285Y-83652380D01*
X56676190Y-83652380D01*
X56533333Y-83700000D01*
X56438095Y-83795238D01*
X56390476Y-83890476D01*
X56342857Y-84080952D01*
X56342857Y-84223809D01*
X56390476Y-84414285D01*
X56438095Y-84509523D01*
X56533333Y-84604761D01*
X56676190Y-84652380D01*
X56914285Y-84652380D01*
X55390476Y-84652380D02*
X55961904Y-84652380D01*
X55676190Y-84652380D02*
X55676190Y-83652380D01*
X55771428Y-83795238D01*
X55866666Y-83890476D01*
X55961904Y-83938095D01*
X54819047Y-84080952D02*
X54914285Y-84033333D01*
X54961904Y-83985714D01*
X55009523Y-83890476D01*
X55009523Y-83842857D01*
X54961904Y-83747619D01*
X54914285Y-83700000D01*
X54819047Y-83652380D01*
X54628571Y-83652380D01*
X54533333Y-83700000D01*
X54485714Y-83747619D01*
X54438095Y-83842857D01*
X54438095Y-83890476D01*
X54485714Y-83985714D01*
X54533333Y-84033333D01*
X54628571Y-84080952D01*
X54819047Y-84080952D01*
X54914285Y-84128571D01*
X54961904Y-84176190D01*
X55009523Y-84271428D01*
X55009523Y-84461904D01*
X54961904Y-84557142D01*
X54914285Y-84604761D01*
X54819047Y-84652380D01*
X54628571Y-84652380D01*
X54533333Y-84604761D01*
X54485714Y-84557142D01*
X54438095Y-84461904D01*
X54438095Y-84271428D01*
X54485714Y-84176190D01*
X54533333Y-84128571D01*
X54628571Y-84080952D01*
%TO.C,D19*%
X56314285Y-97052380D02*
X56314285Y-96052380D01*
X56076190Y-96052380D01*
X55933333Y-96100000D01*
X55838095Y-96195238D01*
X55790476Y-96290476D01*
X55742857Y-96480952D01*
X55742857Y-96623809D01*
X55790476Y-96814285D01*
X55838095Y-96909523D01*
X55933333Y-97004761D01*
X56076190Y-97052380D01*
X56314285Y-97052380D01*
X54790476Y-97052380D02*
X55361904Y-97052380D01*
X55076190Y-97052380D02*
X55076190Y-96052380D01*
X55171428Y-96195238D01*
X55266666Y-96290476D01*
X55361904Y-96338095D01*
X54314285Y-97052380D02*
X54123809Y-97052380D01*
X54028571Y-97004761D01*
X53980952Y-96957142D01*
X53885714Y-96814285D01*
X53838095Y-96623809D01*
X53838095Y-96242857D01*
X53885714Y-96147619D01*
X53933333Y-96100000D01*
X54028571Y-96052380D01*
X54219047Y-96052380D01*
X54314285Y-96100000D01*
X54361904Y-96147619D01*
X54409523Y-96242857D01*
X54409523Y-96480952D01*
X54361904Y-96576190D01*
X54314285Y-96623809D01*
X54219047Y-96671428D01*
X54028571Y-96671428D01*
X53933333Y-96623809D01*
X53885714Y-96576190D01*
X53838095Y-96480952D01*
%TO.C,D20*%
X73914285Y-35452380D02*
X73914285Y-34452380D01*
X73676190Y-34452380D01*
X73533333Y-34500000D01*
X73438095Y-34595238D01*
X73390476Y-34690476D01*
X73342857Y-34880952D01*
X73342857Y-35023809D01*
X73390476Y-35214285D01*
X73438095Y-35309523D01*
X73533333Y-35404761D01*
X73676190Y-35452380D01*
X73914285Y-35452380D01*
X72961904Y-34547619D02*
X72914285Y-34500000D01*
X72819047Y-34452380D01*
X72580952Y-34452380D01*
X72485714Y-34500000D01*
X72438095Y-34547619D01*
X72390476Y-34642857D01*
X72390476Y-34738095D01*
X72438095Y-34880952D01*
X73009523Y-35452380D01*
X72390476Y-35452380D01*
X71771428Y-34452380D02*
X71676190Y-34452380D01*
X71580952Y-34500000D01*
X71533333Y-34547619D01*
X71485714Y-34642857D01*
X71438095Y-34833333D01*
X71438095Y-35071428D01*
X71485714Y-35261904D01*
X71533333Y-35357142D01*
X71580952Y-35404761D01*
X71676190Y-35452380D01*
X71771428Y-35452380D01*
X71866666Y-35404761D01*
X71914285Y-35357142D01*
X71961904Y-35261904D01*
X72009523Y-35071428D01*
X72009523Y-34833333D01*
X71961904Y-34642857D01*
X71914285Y-34547619D01*
X71866666Y-34500000D01*
X71771428Y-34452380D01*
%TO.C,D21*%
X73714285Y-51852380D02*
X73714285Y-50852380D01*
X73476190Y-50852380D01*
X73333333Y-50900000D01*
X73238095Y-50995238D01*
X73190476Y-51090476D01*
X73142857Y-51280952D01*
X73142857Y-51423809D01*
X73190476Y-51614285D01*
X73238095Y-51709523D01*
X73333333Y-51804761D01*
X73476190Y-51852380D01*
X73714285Y-51852380D01*
X72761904Y-50947619D02*
X72714285Y-50900000D01*
X72619047Y-50852380D01*
X72380952Y-50852380D01*
X72285714Y-50900000D01*
X72238095Y-50947619D01*
X72190476Y-51042857D01*
X72190476Y-51138095D01*
X72238095Y-51280952D01*
X72809523Y-51852380D01*
X72190476Y-51852380D01*
X71238095Y-51852380D02*
X71809523Y-51852380D01*
X71523809Y-51852380D02*
X71523809Y-50852380D01*
X71619047Y-50995238D01*
X71714285Y-51090476D01*
X71809523Y-51138095D01*
%TO.C,D22*%
X73714285Y-68252380D02*
X73714285Y-67252380D01*
X73476190Y-67252380D01*
X73333333Y-67300000D01*
X73238095Y-67395238D01*
X73190476Y-67490476D01*
X73142857Y-67680952D01*
X73142857Y-67823809D01*
X73190476Y-68014285D01*
X73238095Y-68109523D01*
X73333333Y-68204761D01*
X73476190Y-68252380D01*
X73714285Y-68252380D01*
X72761904Y-67347619D02*
X72714285Y-67300000D01*
X72619047Y-67252380D01*
X72380952Y-67252380D01*
X72285714Y-67300000D01*
X72238095Y-67347619D01*
X72190476Y-67442857D01*
X72190476Y-67538095D01*
X72238095Y-67680952D01*
X72809523Y-68252380D01*
X72190476Y-68252380D01*
X71809523Y-67347619D02*
X71761904Y-67300000D01*
X71666666Y-67252380D01*
X71428571Y-67252380D01*
X71333333Y-67300000D01*
X71285714Y-67347619D01*
X71238095Y-67442857D01*
X71238095Y-67538095D01*
X71285714Y-67680952D01*
X71857142Y-68252380D01*
X71238095Y-68252380D01*
%TO.C,D23*%
X73714285Y-84652380D02*
X73714285Y-83652380D01*
X73476190Y-83652380D01*
X73333333Y-83700000D01*
X73238095Y-83795238D01*
X73190476Y-83890476D01*
X73142857Y-84080952D01*
X73142857Y-84223809D01*
X73190476Y-84414285D01*
X73238095Y-84509523D01*
X73333333Y-84604761D01*
X73476190Y-84652380D01*
X73714285Y-84652380D01*
X72761904Y-83747619D02*
X72714285Y-83700000D01*
X72619047Y-83652380D01*
X72380952Y-83652380D01*
X72285714Y-83700000D01*
X72238095Y-83747619D01*
X72190476Y-83842857D01*
X72190476Y-83938095D01*
X72238095Y-84080952D01*
X72809523Y-84652380D01*
X72190476Y-84652380D01*
X71857142Y-83652380D02*
X71238095Y-83652380D01*
X71571428Y-84033333D01*
X71428571Y-84033333D01*
X71333333Y-84080952D01*
X71285714Y-84128571D01*
X71238095Y-84223809D01*
X71238095Y-84461904D01*
X71285714Y-84557142D01*
X71333333Y-84604761D01*
X71428571Y-84652380D01*
X71714285Y-84652380D01*
X71809523Y-84604761D01*
X71857142Y-84557142D01*
%TO.C,D24*%
X71214285Y-97652380D02*
X71214285Y-96652380D01*
X70976190Y-96652380D01*
X70833333Y-96700000D01*
X70738095Y-96795238D01*
X70690476Y-96890476D01*
X70642857Y-97080952D01*
X70642857Y-97223809D01*
X70690476Y-97414285D01*
X70738095Y-97509523D01*
X70833333Y-97604761D01*
X70976190Y-97652380D01*
X71214285Y-97652380D01*
X70261904Y-96747619D02*
X70214285Y-96700000D01*
X70119047Y-96652380D01*
X69880952Y-96652380D01*
X69785714Y-96700000D01*
X69738095Y-96747619D01*
X69690476Y-96842857D01*
X69690476Y-96938095D01*
X69738095Y-97080952D01*
X70309523Y-97652380D01*
X69690476Y-97652380D01*
X68833333Y-96985714D02*
X68833333Y-97652380D01*
X69071428Y-96604761D02*
X69309523Y-97319047D01*
X68690476Y-97319047D01*
%TO.C,D25*%
X73714285Y-61652380D02*
X73714285Y-60652380D01*
X73476190Y-60652380D01*
X73333333Y-60700000D01*
X73238095Y-60795238D01*
X73190476Y-60890476D01*
X73142857Y-61080952D01*
X73142857Y-61223809D01*
X73190476Y-61414285D01*
X73238095Y-61509523D01*
X73333333Y-61604761D01*
X73476190Y-61652380D01*
X73714285Y-61652380D01*
X72761904Y-60747619D02*
X72714285Y-60700000D01*
X72619047Y-60652380D01*
X72380952Y-60652380D01*
X72285714Y-60700000D01*
X72238095Y-60747619D01*
X72190476Y-60842857D01*
X72190476Y-60938095D01*
X72238095Y-61080952D01*
X72809523Y-61652380D01*
X72190476Y-61652380D01*
X71285714Y-60652380D02*
X71761904Y-60652380D01*
X71809523Y-61128571D01*
X71761904Y-61080952D01*
X71666666Y-61033333D01*
X71428571Y-61033333D01*
X71333333Y-61080952D01*
X71285714Y-61128571D01*
X71238095Y-61223809D01*
X71238095Y-61461904D01*
X71285714Y-61557142D01*
X71333333Y-61604761D01*
X71428571Y-61652380D01*
X71666666Y-61652380D01*
X71761904Y-61604761D01*
X71809523Y-61557142D01*
%TO.C,D26*%
X83539285Y-35452380D02*
X83539285Y-34452380D01*
X83301190Y-34452380D01*
X83158333Y-34500000D01*
X83063095Y-34595238D01*
X83015476Y-34690476D01*
X82967857Y-34880952D01*
X82967857Y-35023809D01*
X83015476Y-35214285D01*
X83063095Y-35309523D01*
X83158333Y-35404761D01*
X83301190Y-35452380D01*
X83539285Y-35452380D01*
X82586904Y-34547619D02*
X82539285Y-34500000D01*
X82444047Y-34452380D01*
X82205952Y-34452380D01*
X82110714Y-34500000D01*
X82063095Y-34547619D01*
X82015476Y-34642857D01*
X82015476Y-34738095D01*
X82063095Y-34880952D01*
X82634523Y-35452380D01*
X82015476Y-35452380D01*
X81158333Y-34452380D02*
X81348809Y-34452380D01*
X81444047Y-34500000D01*
X81491666Y-34547619D01*
X81586904Y-34690476D01*
X81634523Y-34880952D01*
X81634523Y-35261904D01*
X81586904Y-35357142D01*
X81539285Y-35404761D01*
X81444047Y-35452380D01*
X81253571Y-35452380D01*
X81158333Y-35404761D01*
X81110714Y-35357142D01*
X81063095Y-35261904D01*
X81063095Y-35023809D01*
X81110714Y-34928571D01*
X81158333Y-34880952D01*
X81253571Y-34833333D01*
X81444047Y-34833333D01*
X81539285Y-34880952D01*
X81586904Y-34928571D01*
X81634523Y-35023809D01*
%TO.C,D27*%
X90714285Y-48052380D02*
X90714285Y-47052380D01*
X90476190Y-47052380D01*
X90333333Y-47100000D01*
X90238095Y-47195238D01*
X90190476Y-47290476D01*
X90142857Y-47480952D01*
X90142857Y-47623809D01*
X90190476Y-47814285D01*
X90238095Y-47909523D01*
X90333333Y-48004761D01*
X90476190Y-48052380D01*
X90714285Y-48052380D01*
X89761904Y-47147619D02*
X89714285Y-47100000D01*
X89619047Y-47052380D01*
X89380952Y-47052380D01*
X89285714Y-47100000D01*
X89238095Y-47147619D01*
X89190476Y-47242857D01*
X89190476Y-47338095D01*
X89238095Y-47480952D01*
X89809523Y-48052380D01*
X89190476Y-48052380D01*
X88857142Y-47052380D02*
X88190476Y-47052380D01*
X88619047Y-48052380D01*
%TO.C,D28*%
X95114285Y-64452380D02*
X95114285Y-63452380D01*
X94876190Y-63452380D01*
X94733333Y-63500000D01*
X94638095Y-63595238D01*
X94590476Y-63690476D01*
X94542857Y-63880952D01*
X94542857Y-64023809D01*
X94590476Y-64214285D01*
X94638095Y-64309523D01*
X94733333Y-64404761D01*
X94876190Y-64452380D01*
X95114285Y-64452380D01*
X94161904Y-63547619D02*
X94114285Y-63500000D01*
X94019047Y-63452380D01*
X93780952Y-63452380D01*
X93685714Y-63500000D01*
X93638095Y-63547619D01*
X93590476Y-63642857D01*
X93590476Y-63738095D01*
X93638095Y-63880952D01*
X94209523Y-64452380D01*
X93590476Y-64452380D01*
X93019047Y-63880952D02*
X93114285Y-63833333D01*
X93161904Y-63785714D01*
X93209523Y-63690476D01*
X93209523Y-63642857D01*
X93161904Y-63547619D01*
X93114285Y-63500000D01*
X93019047Y-63452380D01*
X92828571Y-63452380D01*
X92733333Y-63500000D01*
X92685714Y-63547619D01*
X92638095Y-63642857D01*
X92638095Y-63690476D01*
X92685714Y-63785714D01*
X92733333Y-63833333D01*
X92828571Y-63880952D01*
X93019047Y-63880952D01*
X93114285Y-63928571D01*
X93161904Y-63976190D01*
X93209523Y-64071428D01*
X93209523Y-64261904D01*
X93161904Y-64357142D01*
X93114285Y-64404761D01*
X93019047Y-64452380D01*
X92828571Y-64452380D01*
X92733333Y-64404761D01*
X92685714Y-64357142D01*
X92638095Y-64261904D01*
X92638095Y-64071428D01*
X92685714Y-63976190D01*
X92733333Y-63928571D01*
X92828571Y-63880952D01*
%TO.C,D29*%
X90314285Y-84652380D02*
X90314285Y-83652380D01*
X90076190Y-83652380D01*
X89933333Y-83700000D01*
X89838095Y-83795238D01*
X89790476Y-83890476D01*
X89742857Y-84080952D01*
X89742857Y-84223809D01*
X89790476Y-84414285D01*
X89838095Y-84509523D01*
X89933333Y-84604761D01*
X90076190Y-84652380D01*
X90314285Y-84652380D01*
X89361904Y-83747619D02*
X89314285Y-83700000D01*
X89219047Y-83652380D01*
X88980952Y-83652380D01*
X88885714Y-83700000D01*
X88838095Y-83747619D01*
X88790476Y-83842857D01*
X88790476Y-83938095D01*
X88838095Y-84080952D01*
X89409523Y-84652380D01*
X88790476Y-84652380D01*
X88314285Y-84652380D02*
X88123809Y-84652380D01*
X88028571Y-84604761D01*
X87980952Y-84557142D01*
X87885714Y-84414285D01*
X87838095Y-84223809D01*
X87838095Y-83842857D01*
X87885714Y-83747619D01*
X87933333Y-83700000D01*
X88028571Y-83652380D01*
X88219047Y-83652380D01*
X88314285Y-83700000D01*
X88361904Y-83747619D01*
X88409523Y-83842857D01*
X88409523Y-84080952D01*
X88361904Y-84176190D01*
X88314285Y-84223809D01*
X88219047Y-84271428D01*
X88028571Y-84271428D01*
X87933333Y-84223809D01*
X87885714Y-84176190D01*
X87838095Y-84080952D01*
%TO.C,D30*%
X86014285Y-97252380D02*
X86014285Y-96252380D01*
X85776190Y-96252380D01*
X85633333Y-96300000D01*
X85538095Y-96395238D01*
X85490476Y-96490476D01*
X85442857Y-96680952D01*
X85442857Y-96823809D01*
X85490476Y-97014285D01*
X85538095Y-97109523D01*
X85633333Y-97204761D01*
X85776190Y-97252380D01*
X86014285Y-97252380D01*
X85109523Y-96252380D02*
X84490476Y-96252380D01*
X84823809Y-96633333D01*
X84680952Y-96633333D01*
X84585714Y-96680952D01*
X84538095Y-96728571D01*
X84490476Y-96823809D01*
X84490476Y-97061904D01*
X84538095Y-97157142D01*
X84585714Y-97204761D01*
X84680952Y-97252380D01*
X84966666Y-97252380D01*
X85061904Y-97204761D01*
X85109523Y-97157142D01*
X83871428Y-96252380D02*
X83776190Y-96252380D01*
X83680952Y-96300000D01*
X83633333Y-96347619D01*
X83585714Y-96442857D01*
X83538095Y-96633333D01*
X83538095Y-96871428D01*
X83585714Y-97061904D01*
X83633333Y-97157142D01*
X83680952Y-97204761D01*
X83776190Y-97252380D01*
X83871428Y-97252380D01*
X83966666Y-97204761D01*
X84014285Y-97157142D01*
X84061904Y-97061904D01*
X84109523Y-96871428D01*
X84109523Y-96633333D01*
X84061904Y-96442857D01*
X84014285Y-96347619D01*
X83966666Y-96300000D01*
X83871428Y-96252380D01*
%TO.C,D31*%
X107314285Y-29052380D02*
X107314285Y-28052380D01*
X107076190Y-28052380D01*
X106933333Y-28100000D01*
X106838095Y-28195238D01*
X106790476Y-28290476D01*
X106742857Y-28480952D01*
X106742857Y-28623809D01*
X106790476Y-28814285D01*
X106838095Y-28909523D01*
X106933333Y-29004761D01*
X107076190Y-29052380D01*
X107314285Y-29052380D01*
X106409523Y-28052380D02*
X105790476Y-28052380D01*
X106123809Y-28433333D01*
X105980952Y-28433333D01*
X105885714Y-28480952D01*
X105838095Y-28528571D01*
X105790476Y-28623809D01*
X105790476Y-28861904D01*
X105838095Y-28957142D01*
X105885714Y-29004761D01*
X105980952Y-29052380D01*
X106266666Y-29052380D01*
X106361904Y-29004761D01*
X106409523Y-28957142D01*
X104838095Y-29052380D02*
X105409523Y-29052380D01*
X105123809Y-29052380D02*
X105123809Y-28052380D01*
X105219047Y-28195238D01*
X105314285Y-28290476D01*
X105409523Y-28338095D01*
%TO.C,D32*%
X126714285Y-51852380D02*
X126714285Y-50852380D01*
X126476190Y-50852380D01*
X126333333Y-50900000D01*
X126238095Y-50995238D01*
X126190476Y-51090476D01*
X126142857Y-51280952D01*
X126142857Y-51423809D01*
X126190476Y-51614285D01*
X126238095Y-51709523D01*
X126333333Y-51804761D01*
X126476190Y-51852380D01*
X126714285Y-51852380D01*
X125809523Y-50852380D02*
X125190476Y-50852380D01*
X125523809Y-51233333D01*
X125380952Y-51233333D01*
X125285714Y-51280952D01*
X125238095Y-51328571D01*
X125190476Y-51423809D01*
X125190476Y-51661904D01*
X125238095Y-51757142D01*
X125285714Y-51804761D01*
X125380952Y-51852380D01*
X125666666Y-51852380D01*
X125761904Y-51804761D01*
X125809523Y-51757142D01*
X124809523Y-50947619D02*
X124761904Y-50900000D01*
X124666666Y-50852380D01*
X124428571Y-50852380D01*
X124333333Y-50900000D01*
X124285714Y-50947619D01*
X124238095Y-51042857D01*
X124238095Y-51138095D01*
X124285714Y-51280952D01*
X124857142Y-51852380D01*
X124238095Y-51852380D01*
%TO.C,D33*%
X115514285Y-68252380D02*
X115514285Y-67252380D01*
X115276190Y-67252380D01*
X115133333Y-67300000D01*
X115038095Y-67395238D01*
X114990476Y-67490476D01*
X114942857Y-67680952D01*
X114942857Y-67823809D01*
X114990476Y-68014285D01*
X115038095Y-68109523D01*
X115133333Y-68204761D01*
X115276190Y-68252380D01*
X115514285Y-68252380D01*
X114609523Y-67252380D02*
X113990476Y-67252380D01*
X114323809Y-67633333D01*
X114180952Y-67633333D01*
X114085714Y-67680952D01*
X114038095Y-67728571D01*
X113990476Y-67823809D01*
X113990476Y-68061904D01*
X114038095Y-68157142D01*
X114085714Y-68204761D01*
X114180952Y-68252380D01*
X114466666Y-68252380D01*
X114561904Y-68204761D01*
X114609523Y-68157142D01*
X113657142Y-67252380D02*
X113038095Y-67252380D01*
X113371428Y-67633333D01*
X113228571Y-67633333D01*
X113133333Y-67680952D01*
X113085714Y-67728571D01*
X113038095Y-67823809D01*
X113038095Y-68061904D01*
X113085714Y-68157142D01*
X113133333Y-68204761D01*
X113228571Y-68252380D01*
X113514285Y-68252380D01*
X113609523Y-68204761D01*
X113657142Y-68157142D01*
%TO.C,D34*%
X107314285Y-84652380D02*
X107314285Y-83652380D01*
X107076190Y-83652380D01*
X106933333Y-83700000D01*
X106838095Y-83795238D01*
X106790476Y-83890476D01*
X106742857Y-84080952D01*
X106742857Y-84223809D01*
X106790476Y-84414285D01*
X106838095Y-84509523D01*
X106933333Y-84604761D01*
X107076190Y-84652380D01*
X107314285Y-84652380D01*
X106409523Y-83652380D02*
X105790476Y-83652380D01*
X106123809Y-84033333D01*
X105980952Y-84033333D01*
X105885714Y-84080952D01*
X105838095Y-84128571D01*
X105790476Y-84223809D01*
X105790476Y-84461904D01*
X105838095Y-84557142D01*
X105885714Y-84604761D01*
X105980952Y-84652380D01*
X106266666Y-84652380D01*
X106361904Y-84604761D01*
X106409523Y-84557142D01*
X104933333Y-83985714D02*
X104933333Y-84652380D01*
X105171428Y-83604761D02*
X105409523Y-84319047D01*
X104790476Y-84319047D01*
%TO.C,D35*%
X106514285Y-97252380D02*
X106514285Y-96252380D01*
X106276190Y-96252380D01*
X106133333Y-96300000D01*
X106038095Y-96395238D01*
X105990476Y-96490476D01*
X105942857Y-96680952D01*
X105942857Y-96823809D01*
X105990476Y-97014285D01*
X106038095Y-97109523D01*
X106133333Y-97204761D01*
X106276190Y-97252380D01*
X106514285Y-97252380D01*
X105609523Y-96252380D02*
X104990476Y-96252380D01*
X105323809Y-96633333D01*
X105180952Y-96633333D01*
X105085714Y-96680952D01*
X105038095Y-96728571D01*
X104990476Y-96823809D01*
X104990476Y-97061904D01*
X105038095Y-97157142D01*
X105085714Y-97204761D01*
X105180952Y-97252380D01*
X105466666Y-97252380D01*
X105561904Y-97204761D01*
X105609523Y-97157142D01*
X104085714Y-96252380D02*
X104561904Y-96252380D01*
X104609523Y-96728571D01*
X104561904Y-96680952D01*
X104466666Y-96633333D01*
X104228571Y-96633333D01*
X104133333Y-96680952D01*
X104085714Y-96728571D01*
X104038095Y-96823809D01*
X104038095Y-97061904D01*
X104085714Y-97157142D01*
X104133333Y-97204761D01*
X104228571Y-97252380D01*
X104466666Y-97252380D01*
X104561904Y-97204761D01*
X104609523Y-97157142D01*
%TO.C,D36*%
X123914285Y-78052380D02*
X123914285Y-77052380D01*
X123676190Y-77052380D01*
X123533333Y-77100000D01*
X123438095Y-77195238D01*
X123390476Y-77290476D01*
X123342857Y-77480952D01*
X123342857Y-77623809D01*
X123390476Y-77814285D01*
X123438095Y-77909523D01*
X123533333Y-78004761D01*
X123676190Y-78052380D01*
X123914285Y-78052380D01*
X123009523Y-77052380D02*
X122390476Y-77052380D01*
X122723809Y-77433333D01*
X122580952Y-77433333D01*
X122485714Y-77480952D01*
X122438095Y-77528571D01*
X122390476Y-77623809D01*
X122390476Y-77861904D01*
X122438095Y-77957142D01*
X122485714Y-78004761D01*
X122580952Y-78052380D01*
X122866666Y-78052380D01*
X122961904Y-78004761D01*
X123009523Y-77957142D01*
X121533333Y-77052380D02*
X121723809Y-77052380D01*
X121819047Y-77100000D01*
X121866666Y-77147619D01*
X121961904Y-77290476D01*
X122009523Y-77480952D01*
X122009523Y-77861904D01*
X121961904Y-77957142D01*
X121914285Y-78004761D01*
X121819047Y-78052380D01*
X121628571Y-78052380D01*
X121533333Y-78004761D01*
X121485714Y-77957142D01*
X121438095Y-77861904D01*
X121438095Y-77623809D01*
X121485714Y-77528571D01*
X121533333Y-77480952D01*
X121628571Y-77433333D01*
X121819047Y-77433333D01*
X121914285Y-77480952D01*
X121961904Y-77528571D01*
X122009523Y-77623809D01*
%TO.C,D37*%
X124114285Y-29052380D02*
X124114285Y-28052380D01*
X123876190Y-28052380D01*
X123733333Y-28100000D01*
X123638095Y-28195238D01*
X123590476Y-28290476D01*
X123542857Y-28480952D01*
X123542857Y-28623809D01*
X123590476Y-28814285D01*
X123638095Y-28909523D01*
X123733333Y-29004761D01*
X123876190Y-29052380D01*
X124114285Y-29052380D01*
X123209523Y-28052380D02*
X122590476Y-28052380D01*
X122923809Y-28433333D01*
X122780952Y-28433333D01*
X122685714Y-28480952D01*
X122638095Y-28528571D01*
X122590476Y-28623809D01*
X122590476Y-28861904D01*
X122638095Y-28957142D01*
X122685714Y-29004761D01*
X122780952Y-29052380D01*
X123066666Y-29052380D01*
X123161904Y-29004761D01*
X123209523Y-28957142D01*
X122257142Y-28052380D02*
X121590476Y-28052380D01*
X122019047Y-29052380D01*
%TO.C,D38*%
X132314285Y-51852380D02*
X132314285Y-50852380D01*
X132076190Y-50852380D01*
X131933333Y-50900000D01*
X131838095Y-50995238D01*
X131790476Y-51090476D01*
X131742857Y-51280952D01*
X131742857Y-51423809D01*
X131790476Y-51614285D01*
X131838095Y-51709523D01*
X131933333Y-51804761D01*
X132076190Y-51852380D01*
X132314285Y-51852380D01*
X131409523Y-50852380D02*
X130790476Y-50852380D01*
X131123809Y-51233333D01*
X130980952Y-51233333D01*
X130885714Y-51280952D01*
X130838095Y-51328571D01*
X130790476Y-51423809D01*
X130790476Y-51661904D01*
X130838095Y-51757142D01*
X130885714Y-51804761D01*
X130980952Y-51852380D01*
X131266666Y-51852380D01*
X131361904Y-51804761D01*
X131409523Y-51757142D01*
X130219047Y-51280952D02*
X130314285Y-51233333D01*
X130361904Y-51185714D01*
X130409523Y-51090476D01*
X130409523Y-51042857D01*
X130361904Y-50947619D01*
X130314285Y-50900000D01*
X130219047Y-50852380D01*
X130028571Y-50852380D01*
X129933333Y-50900000D01*
X129885714Y-50947619D01*
X129838095Y-51042857D01*
X129838095Y-51090476D01*
X129885714Y-51185714D01*
X129933333Y-51233333D01*
X130028571Y-51280952D01*
X130219047Y-51280952D01*
X130314285Y-51328571D01*
X130361904Y-51376190D01*
X130409523Y-51471428D01*
X130409523Y-51661904D01*
X130361904Y-51757142D01*
X130314285Y-51804761D01*
X130219047Y-51852380D01*
X130028571Y-51852380D01*
X129933333Y-51804761D01*
X129885714Y-51757142D01*
X129838095Y-51661904D01*
X129838095Y-51471428D01*
X129885714Y-51376190D01*
X129933333Y-51328571D01*
X130028571Y-51280952D01*
%TO.C,D39*%
X132314285Y-68252380D02*
X132314285Y-67252380D01*
X132076190Y-67252380D01*
X131933333Y-67300000D01*
X131838095Y-67395238D01*
X131790476Y-67490476D01*
X131742857Y-67680952D01*
X131742857Y-67823809D01*
X131790476Y-68014285D01*
X131838095Y-68109523D01*
X131933333Y-68204761D01*
X132076190Y-68252380D01*
X132314285Y-68252380D01*
X131409523Y-67252380D02*
X130790476Y-67252380D01*
X131123809Y-67633333D01*
X130980952Y-67633333D01*
X130885714Y-67680952D01*
X130838095Y-67728571D01*
X130790476Y-67823809D01*
X130790476Y-68061904D01*
X130838095Y-68157142D01*
X130885714Y-68204761D01*
X130980952Y-68252380D01*
X131266666Y-68252380D01*
X131361904Y-68204761D01*
X131409523Y-68157142D01*
X130314285Y-68252380D02*
X130123809Y-68252380D01*
X130028571Y-68204761D01*
X129980952Y-68157142D01*
X129885714Y-68014285D01*
X129838095Y-67823809D01*
X129838095Y-67442857D01*
X129885714Y-67347619D01*
X129933333Y-67300000D01*
X130028571Y-67252380D01*
X130219047Y-67252380D01*
X130314285Y-67300000D01*
X130361904Y-67347619D01*
X130409523Y-67442857D01*
X130409523Y-67680952D01*
X130361904Y-67776190D01*
X130314285Y-67823809D01*
X130219047Y-67871428D01*
X130028571Y-67871428D01*
X129933333Y-67823809D01*
X129885714Y-67776190D01*
X129838095Y-67680952D01*
%TO.C,D40*%
X123914285Y-84652380D02*
X123914285Y-83652380D01*
X123676190Y-83652380D01*
X123533333Y-83700000D01*
X123438095Y-83795238D01*
X123390476Y-83890476D01*
X123342857Y-84080952D01*
X123342857Y-84223809D01*
X123390476Y-84414285D01*
X123438095Y-84509523D01*
X123533333Y-84604761D01*
X123676190Y-84652380D01*
X123914285Y-84652380D01*
X122485714Y-83985714D02*
X122485714Y-84652380D01*
X122723809Y-83604761D02*
X122961904Y-84319047D01*
X122342857Y-84319047D01*
X121771428Y-83652380D02*
X121676190Y-83652380D01*
X121580952Y-83700000D01*
X121533333Y-83747619D01*
X121485714Y-83842857D01*
X121438095Y-84033333D01*
X121438095Y-84271428D01*
X121485714Y-84461904D01*
X121533333Y-84557142D01*
X121580952Y-84604761D01*
X121676190Y-84652380D01*
X121771428Y-84652380D01*
X121866666Y-84604761D01*
X121914285Y-84557142D01*
X121961904Y-84461904D01*
X122009523Y-84271428D01*
X122009523Y-84033333D01*
X121961904Y-83842857D01*
X121914285Y-83747619D01*
X121866666Y-83700000D01*
X121771428Y-83652380D01*
%TO.C,D41*%
X124114285Y-101052380D02*
X124114285Y-100052380D01*
X123876190Y-100052380D01*
X123733333Y-100100000D01*
X123638095Y-100195238D01*
X123590476Y-100290476D01*
X123542857Y-100480952D01*
X123542857Y-100623809D01*
X123590476Y-100814285D01*
X123638095Y-100909523D01*
X123733333Y-101004761D01*
X123876190Y-101052380D01*
X124114285Y-101052380D01*
X122685714Y-100385714D02*
X122685714Y-101052380D01*
X122923809Y-100004761D02*
X123161904Y-100719047D01*
X122542857Y-100719047D01*
X121638095Y-101052380D02*
X122209523Y-101052380D01*
X121923809Y-101052380D02*
X121923809Y-100052380D01*
X122019047Y-100195238D01*
X122114285Y-100290476D01*
X122209523Y-100338095D01*
%TO.C,D42*%
X141114285Y-29052380D02*
X141114285Y-28052380D01*
X140876190Y-28052380D01*
X140733333Y-28100000D01*
X140638095Y-28195238D01*
X140590476Y-28290476D01*
X140542857Y-28480952D01*
X140542857Y-28623809D01*
X140590476Y-28814285D01*
X140638095Y-28909523D01*
X140733333Y-29004761D01*
X140876190Y-29052380D01*
X141114285Y-29052380D01*
X139685714Y-28385714D02*
X139685714Y-29052380D01*
X139923809Y-28004761D02*
X140161904Y-28719047D01*
X139542857Y-28719047D01*
X139209523Y-28147619D02*
X139161904Y-28100000D01*
X139066666Y-28052380D01*
X138828571Y-28052380D01*
X138733333Y-28100000D01*
X138685714Y-28147619D01*
X138638095Y-28242857D01*
X138638095Y-28338095D01*
X138685714Y-28480952D01*
X139257142Y-29052380D01*
X138638095Y-29052380D01*
%TO.C,D43*%
X149314285Y-51852380D02*
X149314285Y-50852380D01*
X149076190Y-50852380D01*
X148933333Y-50900000D01*
X148838095Y-50995238D01*
X148790476Y-51090476D01*
X148742857Y-51280952D01*
X148742857Y-51423809D01*
X148790476Y-51614285D01*
X148838095Y-51709523D01*
X148933333Y-51804761D01*
X149076190Y-51852380D01*
X149314285Y-51852380D01*
X147885714Y-51185714D02*
X147885714Y-51852380D01*
X148123809Y-50804761D02*
X148361904Y-51519047D01*
X147742857Y-51519047D01*
X147457142Y-50852380D02*
X146838095Y-50852380D01*
X147171428Y-51233333D01*
X147028571Y-51233333D01*
X146933333Y-51280952D01*
X146885714Y-51328571D01*
X146838095Y-51423809D01*
X146838095Y-51661904D01*
X146885714Y-51757142D01*
X146933333Y-51804761D01*
X147028571Y-51852380D01*
X147314285Y-51852380D01*
X147409523Y-51804761D01*
X147457142Y-51757142D01*
%TO.C,D44*%
X157514285Y-68252380D02*
X157514285Y-67252380D01*
X157276190Y-67252380D01*
X157133333Y-67300000D01*
X157038095Y-67395238D01*
X156990476Y-67490476D01*
X156942857Y-67680952D01*
X156942857Y-67823809D01*
X156990476Y-68014285D01*
X157038095Y-68109523D01*
X157133333Y-68204761D01*
X157276190Y-68252380D01*
X157514285Y-68252380D01*
X156085714Y-67585714D02*
X156085714Y-68252380D01*
X156323809Y-67204761D02*
X156561904Y-67919047D01*
X155942857Y-67919047D01*
X155133333Y-67585714D02*
X155133333Y-68252380D01*
X155371428Y-67204761D02*
X155609523Y-67919047D01*
X154990476Y-67919047D01*
%TO.C,D45*%
X140714285Y-84652380D02*
X140714285Y-83652380D01*
X140476190Y-83652380D01*
X140333333Y-83700000D01*
X140238095Y-83795238D01*
X140190476Y-83890476D01*
X140142857Y-84080952D01*
X140142857Y-84223809D01*
X140190476Y-84414285D01*
X140238095Y-84509523D01*
X140333333Y-84604761D01*
X140476190Y-84652380D01*
X140714285Y-84652380D01*
X139285714Y-83985714D02*
X139285714Y-84652380D01*
X139523809Y-83604761D02*
X139761904Y-84319047D01*
X139142857Y-84319047D01*
X138285714Y-83652380D02*
X138761904Y-83652380D01*
X138809523Y-84128571D01*
X138761904Y-84080952D01*
X138666666Y-84033333D01*
X138428571Y-84033333D01*
X138333333Y-84080952D01*
X138285714Y-84128571D01*
X138238095Y-84223809D01*
X138238095Y-84461904D01*
X138285714Y-84557142D01*
X138333333Y-84604761D01*
X138428571Y-84652380D01*
X138666666Y-84652380D01*
X138761904Y-84604761D01*
X138809523Y-84557142D01*
%TO.C,D46*%
X136114285Y-97252380D02*
X136114285Y-96252380D01*
X135876190Y-96252380D01*
X135733333Y-96300000D01*
X135638095Y-96395238D01*
X135590476Y-96490476D01*
X135542857Y-96680952D01*
X135542857Y-96823809D01*
X135590476Y-97014285D01*
X135638095Y-97109523D01*
X135733333Y-97204761D01*
X135876190Y-97252380D01*
X136114285Y-97252380D01*
X134685714Y-96585714D02*
X134685714Y-97252380D01*
X134923809Y-96204761D02*
X135161904Y-96919047D01*
X134542857Y-96919047D01*
X133733333Y-96252380D02*
X133923809Y-96252380D01*
X134019047Y-96300000D01*
X134066666Y-96347619D01*
X134161904Y-96490476D01*
X134209523Y-96680952D01*
X134209523Y-97061904D01*
X134161904Y-97157142D01*
X134114285Y-97204761D01*
X134019047Y-97252380D01*
X133828571Y-97252380D01*
X133733333Y-97204761D01*
X133685714Y-97157142D01*
X133638095Y-97061904D01*
X133638095Y-96823809D01*
X133685714Y-96728571D01*
X133733333Y-96680952D01*
X133828571Y-96633333D01*
X134019047Y-96633333D01*
X134114285Y-96680952D01*
X134161904Y-96728571D01*
X134209523Y-96823809D01*
%TO.C,D47*%
X157714285Y-94652380D02*
X157714285Y-93652380D01*
X157476190Y-93652380D01*
X157333333Y-93700000D01*
X157238095Y-93795238D01*
X157190476Y-93890476D01*
X157142857Y-94080952D01*
X157142857Y-94223809D01*
X157190476Y-94414285D01*
X157238095Y-94509523D01*
X157333333Y-94604761D01*
X157476190Y-94652380D01*
X157714285Y-94652380D01*
X156285714Y-93985714D02*
X156285714Y-94652380D01*
X156523809Y-93604761D02*
X156761904Y-94319047D01*
X156142857Y-94319047D01*
X155857142Y-93652380D02*
X155190476Y-93652380D01*
X155619047Y-94652380D01*
%TO.C,D48*%
X157714285Y-35452380D02*
X157714285Y-34452380D01*
X157476190Y-34452380D01*
X157333333Y-34500000D01*
X157238095Y-34595238D01*
X157190476Y-34690476D01*
X157142857Y-34880952D01*
X157142857Y-35023809D01*
X157190476Y-35214285D01*
X157238095Y-35309523D01*
X157333333Y-35404761D01*
X157476190Y-35452380D01*
X157714285Y-35452380D01*
X156285714Y-34785714D02*
X156285714Y-35452380D01*
X156523809Y-34404761D02*
X156761904Y-35119047D01*
X156142857Y-35119047D01*
X155619047Y-34880952D02*
X155714285Y-34833333D01*
X155761904Y-34785714D01*
X155809523Y-34690476D01*
X155809523Y-34642857D01*
X155761904Y-34547619D01*
X155714285Y-34500000D01*
X155619047Y-34452380D01*
X155428571Y-34452380D01*
X155333333Y-34500000D01*
X155285714Y-34547619D01*
X155238095Y-34642857D01*
X155238095Y-34690476D01*
X155285714Y-34785714D01*
X155333333Y-34833333D01*
X155428571Y-34880952D01*
X155619047Y-34880952D01*
X155714285Y-34928571D01*
X155761904Y-34976190D01*
X155809523Y-35071428D01*
X155809523Y-35261904D01*
X155761904Y-35357142D01*
X155714285Y-35404761D01*
X155619047Y-35452380D01*
X155428571Y-35452380D01*
X155333333Y-35404761D01*
X155285714Y-35357142D01*
X155238095Y-35261904D01*
X155238095Y-35071428D01*
X155285714Y-34976190D01*
X155333333Y-34928571D01*
X155428571Y-34880952D01*
%TO.C,D49*%
X166114285Y-51852380D02*
X166114285Y-50852380D01*
X165876190Y-50852380D01*
X165733333Y-50900000D01*
X165638095Y-50995238D01*
X165590476Y-51090476D01*
X165542857Y-51280952D01*
X165542857Y-51423809D01*
X165590476Y-51614285D01*
X165638095Y-51709523D01*
X165733333Y-51804761D01*
X165876190Y-51852380D01*
X166114285Y-51852380D01*
X164685714Y-51185714D02*
X164685714Y-51852380D01*
X164923809Y-50804761D02*
X165161904Y-51519047D01*
X164542857Y-51519047D01*
X164114285Y-51852380D02*
X163923809Y-51852380D01*
X163828571Y-51804761D01*
X163780952Y-51757142D01*
X163685714Y-51614285D01*
X163638095Y-51423809D01*
X163638095Y-51042857D01*
X163685714Y-50947619D01*
X163733333Y-50900000D01*
X163828571Y-50852380D01*
X164019047Y-50852380D01*
X164114285Y-50900000D01*
X164161904Y-50947619D01*
X164209523Y-51042857D01*
X164209523Y-51280952D01*
X164161904Y-51376190D01*
X164114285Y-51423809D01*
X164019047Y-51471428D01*
X163828571Y-51471428D01*
X163733333Y-51423809D01*
X163685714Y-51376190D01*
X163638095Y-51280952D01*
%TO.C,D50*%
X166214285Y-68252380D02*
X166214285Y-67252380D01*
X165976190Y-67252380D01*
X165833333Y-67300000D01*
X165738095Y-67395238D01*
X165690476Y-67490476D01*
X165642857Y-67680952D01*
X165642857Y-67823809D01*
X165690476Y-68014285D01*
X165738095Y-68109523D01*
X165833333Y-68204761D01*
X165976190Y-68252380D01*
X166214285Y-68252380D01*
X164738095Y-67252380D02*
X165214285Y-67252380D01*
X165261904Y-67728571D01*
X165214285Y-67680952D01*
X165119047Y-67633333D01*
X164880952Y-67633333D01*
X164785714Y-67680952D01*
X164738095Y-67728571D01*
X164690476Y-67823809D01*
X164690476Y-68061904D01*
X164738095Y-68157142D01*
X164785714Y-68204761D01*
X164880952Y-68252380D01*
X165119047Y-68252380D01*
X165214285Y-68204761D01*
X165261904Y-68157142D01*
X164071428Y-67252380D02*
X163976190Y-67252380D01*
X163880952Y-67300000D01*
X163833333Y-67347619D01*
X163785714Y-67442857D01*
X163738095Y-67633333D01*
X163738095Y-67871428D01*
X163785714Y-68061904D01*
X163833333Y-68157142D01*
X163880952Y-68204761D01*
X163976190Y-68252380D01*
X164071428Y-68252380D01*
X164166666Y-68204761D01*
X164214285Y-68157142D01*
X164261904Y-68061904D01*
X164309523Y-67871428D01*
X164309523Y-67633333D01*
X164261904Y-67442857D01*
X164214285Y-67347619D01*
X164166666Y-67300000D01*
X164071428Y-67252380D01*
%TO.C,D51*%
X157514285Y-84652380D02*
X157514285Y-83652380D01*
X157276190Y-83652380D01*
X157133333Y-83700000D01*
X157038095Y-83795238D01*
X156990476Y-83890476D01*
X156942857Y-84080952D01*
X156942857Y-84223809D01*
X156990476Y-84414285D01*
X157038095Y-84509523D01*
X157133333Y-84604761D01*
X157276190Y-84652380D01*
X157514285Y-84652380D01*
X156038095Y-83652380D02*
X156514285Y-83652380D01*
X156561904Y-84128571D01*
X156514285Y-84080952D01*
X156419047Y-84033333D01*
X156180952Y-84033333D01*
X156085714Y-84080952D01*
X156038095Y-84128571D01*
X155990476Y-84223809D01*
X155990476Y-84461904D01*
X156038095Y-84557142D01*
X156085714Y-84604761D01*
X156180952Y-84652380D01*
X156419047Y-84652380D01*
X156514285Y-84604761D01*
X156561904Y-84557142D01*
X155038095Y-84652380D02*
X155609523Y-84652380D01*
X155323809Y-84652380D02*
X155323809Y-83652380D01*
X155419047Y-83795238D01*
X155514285Y-83890476D01*
X155609523Y-83938095D01*
%TO.C,D52*%
X157714285Y-101052380D02*
X157714285Y-100052380D01*
X157476190Y-100052380D01*
X157333333Y-100100000D01*
X157238095Y-100195238D01*
X157190476Y-100290476D01*
X157142857Y-100480952D01*
X157142857Y-100623809D01*
X157190476Y-100814285D01*
X157238095Y-100909523D01*
X157333333Y-101004761D01*
X157476190Y-101052380D01*
X157714285Y-101052380D01*
X156238095Y-100052380D02*
X156714285Y-100052380D01*
X156761904Y-100528571D01*
X156714285Y-100480952D01*
X156619047Y-100433333D01*
X156380952Y-100433333D01*
X156285714Y-100480952D01*
X156238095Y-100528571D01*
X156190476Y-100623809D01*
X156190476Y-100861904D01*
X156238095Y-100957142D01*
X156285714Y-101004761D01*
X156380952Y-101052380D01*
X156619047Y-101052380D01*
X156714285Y-101004761D01*
X156761904Y-100957142D01*
X155809523Y-100147619D02*
X155761904Y-100100000D01*
X155666666Y-100052380D01*
X155428571Y-100052380D01*
X155333333Y-100100000D01*
X155285714Y-100147619D01*
X155238095Y-100242857D01*
X155238095Y-100338095D01*
X155285714Y-100480952D01*
X155857142Y-101052380D01*
X155238095Y-101052380D01*
%TO.C,D54*%
X174614285Y-35652380D02*
X174614285Y-34652380D01*
X174376190Y-34652380D01*
X174233333Y-34700000D01*
X174138095Y-34795238D01*
X174090476Y-34890476D01*
X174042857Y-35080952D01*
X174042857Y-35223809D01*
X174090476Y-35414285D01*
X174138095Y-35509523D01*
X174233333Y-35604761D01*
X174376190Y-35652380D01*
X174614285Y-35652380D01*
X173138095Y-34652380D02*
X173614285Y-34652380D01*
X173661904Y-35128571D01*
X173614285Y-35080952D01*
X173519047Y-35033333D01*
X173280952Y-35033333D01*
X173185714Y-35080952D01*
X173138095Y-35128571D01*
X173090476Y-35223809D01*
X173090476Y-35461904D01*
X173138095Y-35557142D01*
X173185714Y-35604761D01*
X173280952Y-35652380D01*
X173519047Y-35652380D01*
X173614285Y-35604761D01*
X173661904Y-35557142D01*
X172233333Y-34985714D02*
X172233333Y-35652380D01*
X172471428Y-34604761D02*
X172709523Y-35319047D01*
X172090476Y-35319047D01*
%TO.C,D55*%
X182914285Y-51852380D02*
X182914285Y-50852380D01*
X182676190Y-50852380D01*
X182533333Y-50900000D01*
X182438095Y-50995238D01*
X182390476Y-51090476D01*
X182342857Y-51280952D01*
X182342857Y-51423809D01*
X182390476Y-51614285D01*
X182438095Y-51709523D01*
X182533333Y-51804761D01*
X182676190Y-51852380D01*
X182914285Y-51852380D01*
X181438095Y-50852380D02*
X181914285Y-50852380D01*
X181961904Y-51328571D01*
X181914285Y-51280952D01*
X181819047Y-51233333D01*
X181580952Y-51233333D01*
X181485714Y-51280952D01*
X181438095Y-51328571D01*
X181390476Y-51423809D01*
X181390476Y-51661904D01*
X181438095Y-51757142D01*
X181485714Y-51804761D01*
X181580952Y-51852380D01*
X181819047Y-51852380D01*
X181914285Y-51804761D01*
X181961904Y-51757142D01*
X180485714Y-50852380D02*
X180961904Y-50852380D01*
X181009523Y-51328571D01*
X180961904Y-51280952D01*
X180866666Y-51233333D01*
X180628571Y-51233333D01*
X180533333Y-51280952D01*
X180485714Y-51328571D01*
X180438095Y-51423809D01*
X180438095Y-51661904D01*
X180485714Y-51757142D01*
X180533333Y-51804761D01*
X180628571Y-51852380D01*
X180866666Y-51852380D01*
X180961904Y-51804761D01*
X181009523Y-51757142D01*
%TO.C,D56*%
X182914285Y-68252380D02*
X182914285Y-67252380D01*
X182676190Y-67252380D01*
X182533333Y-67300000D01*
X182438095Y-67395238D01*
X182390476Y-67490476D01*
X182342857Y-67680952D01*
X182342857Y-67823809D01*
X182390476Y-68014285D01*
X182438095Y-68109523D01*
X182533333Y-68204761D01*
X182676190Y-68252380D01*
X182914285Y-68252380D01*
X181438095Y-67252380D02*
X181914285Y-67252380D01*
X181961904Y-67728571D01*
X181914285Y-67680952D01*
X181819047Y-67633333D01*
X181580952Y-67633333D01*
X181485714Y-67680952D01*
X181438095Y-67728571D01*
X181390476Y-67823809D01*
X181390476Y-68061904D01*
X181438095Y-68157142D01*
X181485714Y-68204761D01*
X181580952Y-68252380D01*
X181819047Y-68252380D01*
X181914285Y-68204761D01*
X181961904Y-68157142D01*
X180533333Y-67252380D02*
X180723809Y-67252380D01*
X180819047Y-67300000D01*
X180866666Y-67347619D01*
X180961904Y-67490476D01*
X181009523Y-67680952D01*
X181009523Y-68061904D01*
X180961904Y-68157142D01*
X180914285Y-68204761D01*
X180819047Y-68252380D01*
X180628571Y-68252380D01*
X180533333Y-68204761D01*
X180485714Y-68157142D01*
X180438095Y-68061904D01*
X180438095Y-67823809D01*
X180485714Y-67728571D01*
X180533333Y-67680952D01*
X180628571Y-67633333D01*
X180819047Y-67633333D01*
X180914285Y-67680952D01*
X180961904Y-67728571D01*
X181009523Y-67823809D01*
%TO.C,D57*%
X174314285Y-84652380D02*
X174314285Y-83652380D01*
X174076190Y-83652380D01*
X173933333Y-83700000D01*
X173838095Y-83795238D01*
X173790476Y-83890476D01*
X173742857Y-84080952D01*
X173742857Y-84223809D01*
X173790476Y-84414285D01*
X173838095Y-84509523D01*
X173933333Y-84604761D01*
X174076190Y-84652380D01*
X174314285Y-84652380D01*
X172838095Y-83652380D02*
X173314285Y-83652380D01*
X173361904Y-84128571D01*
X173314285Y-84080952D01*
X173219047Y-84033333D01*
X172980952Y-84033333D01*
X172885714Y-84080952D01*
X172838095Y-84128571D01*
X172790476Y-84223809D01*
X172790476Y-84461904D01*
X172838095Y-84557142D01*
X172885714Y-84604761D01*
X172980952Y-84652380D01*
X173219047Y-84652380D01*
X173314285Y-84604761D01*
X173361904Y-84557142D01*
X172457142Y-83652380D02*
X171790476Y-83652380D01*
X172219047Y-84652380D01*
%TO.C,D58*%
X169514285Y-97252380D02*
X169514285Y-96252380D01*
X169276190Y-96252380D01*
X169133333Y-96300000D01*
X169038095Y-96395238D01*
X168990476Y-96490476D01*
X168942857Y-96680952D01*
X168942857Y-96823809D01*
X168990476Y-97014285D01*
X169038095Y-97109523D01*
X169133333Y-97204761D01*
X169276190Y-97252380D01*
X169514285Y-97252380D01*
X168038095Y-96252380D02*
X168514285Y-96252380D01*
X168561904Y-96728571D01*
X168514285Y-96680952D01*
X168419047Y-96633333D01*
X168180952Y-96633333D01*
X168085714Y-96680952D01*
X168038095Y-96728571D01*
X167990476Y-96823809D01*
X167990476Y-97061904D01*
X168038095Y-97157142D01*
X168085714Y-97204761D01*
X168180952Y-97252380D01*
X168419047Y-97252380D01*
X168514285Y-97204761D01*
X168561904Y-97157142D01*
X167419047Y-96680952D02*
X167514285Y-96633333D01*
X167561904Y-96585714D01*
X167609523Y-96490476D01*
X167609523Y-96442857D01*
X167561904Y-96347619D01*
X167514285Y-96300000D01*
X167419047Y-96252380D01*
X167228571Y-96252380D01*
X167133333Y-96300000D01*
X167085714Y-96347619D01*
X167038095Y-96442857D01*
X167038095Y-96490476D01*
X167085714Y-96585714D01*
X167133333Y-96633333D01*
X167228571Y-96680952D01*
X167419047Y-96680952D01*
X167514285Y-96728571D01*
X167561904Y-96776190D01*
X167609523Y-96871428D01*
X167609523Y-97061904D01*
X167561904Y-97157142D01*
X167514285Y-97204761D01*
X167419047Y-97252380D01*
X167228571Y-97252380D01*
X167133333Y-97204761D01*
X167085714Y-97157142D01*
X167038095Y-97061904D01*
X167038095Y-96871428D01*
X167085714Y-96776190D01*
X167133333Y-96728571D01*
X167228571Y-96680952D01*
%TO.C,D59*%
X191314285Y-28852380D02*
X191314285Y-27852380D01*
X191076190Y-27852380D01*
X190933333Y-27900000D01*
X190838095Y-27995238D01*
X190790476Y-28090476D01*
X190742857Y-28280952D01*
X190742857Y-28423809D01*
X190790476Y-28614285D01*
X190838095Y-28709523D01*
X190933333Y-28804761D01*
X191076190Y-28852380D01*
X191314285Y-28852380D01*
X189838095Y-27852380D02*
X190314285Y-27852380D01*
X190361904Y-28328571D01*
X190314285Y-28280952D01*
X190219047Y-28233333D01*
X189980952Y-28233333D01*
X189885714Y-28280952D01*
X189838095Y-28328571D01*
X189790476Y-28423809D01*
X189790476Y-28661904D01*
X189838095Y-28757142D01*
X189885714Y-28804761D01*
X189980952Y-28852380D01*
X190219047Y-28852380D01*
X190314285Y-28804761D01*
X190361904Y-28757142D01*
X189314285Y-28852380D02*
X189123809Y-28852380D01*
X189028571Y-28804761D01*
X188980952Y-28757142D01*
X188885714Y-28614285D01*
X188838095Y-28423809D01*
X188838095Y-28042857D01*
X188885714Y-27947619D01*
X188933333Y-27900000D01*
X189028571Y-27852380D01*
X189219047Y-27852380D01*
X189314285Y-27900000D01*
X189361904Y-27947619D01*
X189409523Y-28042857D01*
X189409523Y-28280952D01*
X189361904Y-28376190D01*
X189314285Y-28423809D01*
X189219047Y-28471428D01*
X189028571Y-28471428D01*
X188933333Y-28423809D01*
X188885714Y-28376190D01*
X188838095Y-28280952D01*
%TO.C,D60*%
X191314285Y-35452380D02*
X191314285Y-34452380D01*
X191076190Y-34452380D01*
X190933333Y-34500000D01*
X190838095Y-34595238D01*
X190790476Y-34690476D01*
X190742857Y-34880952D01*
X190742857Y-35023809D01*
X190790476Y-35214285D01*
X190838095Y-35309523D01*
X190933333Y-35404761D01*
X191076190Y-35452380D01*
X191314285Y-35452380D01*
X189885714Y-34452380D02*
X190076190Y-34452380D01*
X190171428Y-34500000D01*
X190219047Y-34547619D01*
X190314285Y-34690476D01*
X190361904Y-34880952D01*
X190361904Y-35261904D01*
X190314285Y-35357142D01*
X190266666Y-35404761D01*
X190171428Y-35452380D01*
X189980952Y-35452380D01*
X189885714Y-35404761D01*
X189838095Y-35357142D01*
X189790476Y-35261904D01*
X189790476Y-35023809D01*
X189838095Y-34928571D01*
X189885714Y-34880952D01*
X189980952Y-34833333D01*
X190171428Y-34833333D01*
X190266666Y-34880952D01*
X190314285Y-34928571D01*
X190361904Y-35023809D01*
X189171428Y-34452380D02*
X189076190Y-34452380D01*
X188980952Y-34500000D01*
X188933333Y-34547619D01*
X188885714Y-34642857D01*
X188838095Y-34833333D01*
X188838095Y-35071428D01*
X188885714Y-35261904D01*
X188933333Y-35357142D01*
X188980952Y-35404761D01*
X189076190Y-35452380D01*
X189171428Y-35452380D01*
X189266666Y-35404761D01*
X189314285Y-35357142D01*
X189361904Y-35261904D01*
X189409523Y-35071428D01*
X189409523Y-34833333D01*
X189361904Y-34642857D01*
X189314285Y-34547619D01*
X189266666Y-34500000D01*
X189171428Y-34452380D01*
%TO.C,D61*%
X199714285Y-51852380D02*
X199714285Y-50852380D01*
X199476190Y-50852380D01*
X199333333Y-50900000D01*
X199238095Y-50995238D01*
X199190476Y-51090476D01*
X199142857Y-51280952D01*
X199142857Y-51423809D01*
X199190476Y-51614285D01*
X199238095Y-51709523D01*
X199333333Y-51804761D01*
X199476190Y-51852380D01*
X199714285Y-51852380D01*
X198285714Y-50852380D02*
X198476190Y-50852380D01*
X198571428Y-50900000D01*
X198619047Y-50947619D01*
X198714285Y-51090476D01*
X198761904Y-51280952D01*
X198761904Y-51661904D01*
X198714285Y-51757142D01*
X198666666Y-51804761D01*
X198571428Y-51852380D01*
X198380952Y-51852380D01*
X198285714Y-51804761D01*
X198238095Y-51757142D01*
X198190476Y-51661904D01*
X198190476Y-51423809D01*
X198238095Y-51328571D01*
X198285714Y-51280952D01*
X198380952Y-51233333D01*
X198571428Y-51233333D01*
X198666666Y-51280952D01*
X198714285Y-51328571D01*
X198761904Y-51423809D01*
X197238095Y-51852380D02*
X197809523Y-51852380D01*
X197523809Y-51852380D02*
X197523809Y-50852380D01*
X197619047Y-50995238D01*
X197714285Y-51090476D01*
X197809523Y-51138095D01*
%TO.C,D62*%
X199714285Y-68252380D02*
X199714285Y-67252380D01*
X199476190Y-67252380D01*
X199333333Y-67300000D01*
X199238095Y-67395238D01*
X199190476Y-67490476D01*
X199142857Y-67680952D01*
X199142857Y-67823809D01*
X199190476Y-68014285D01*
X199238095Y-68109523D01*
X199333333Y-68204761D01*
X199476190Y-68252380D01*
X199714285Y-68252380D01*
X198285714Y-67252380D02*
X198476190Y-67252380D01*
X198571428Y-67300000D01*
X198619047Y-67347619D01*
X198714285Y-67490476D01*
X198761904Y-67680952D01*
X198761904Y-68061904D01*
X198714285Y-68157142D01*
X198666666Y-68204761D01*
X198571428Y-68252380D01*
X198380952Y-68252380D01*
X198285714Y-68204761D01*
X198238095Y-68157142D01*
X198190476Y-68061904D01*
X198190476Y-67823809D01*
X198238095Y-67728571D01*
X198285714Y-67680952D01*
X198380952Y-67633333D01*
X198571428Y-67633333D01*
X198666666Y-67680952D01*
X198714285Y-67728571D01*
X198761904Y-67823809D01*
X197809523Y-67347619D02*
X197761904Y-67300000D01*
X197666666Y-67252380D01*
X197428571Y-67252380D01*
X197333333Y-67300000D01*
X197285714Y-67347619D01*
X197238095Y-67442857D01*
X197238095Y-67538095D01*
X197285714Y-67680952D01*
X197857142Y-68252380D01*
X197238095Y-68252380D01*
%TO.C,D63*%
X191114285Y-84652380D02*
X191114285Y-83652380D01*
X190876190Y-83652380D01*
X190733333Y-83700000D01*
X190638095Y-83795238D01*
X190590476Y-83890476D01*
X190542857Y-84080952D01*
X190542857Y-84223809D01*
X190590476Y-84414285D01*
X190638095Y-84509523D01*
X190733333Y-84604761D01*
X190876190Y-84652380D01*
X191114285Y-84652380D01*
X189685714Y-83652380D02*
X189876190Y-83652380D01*
X189971428Y-83700000D01*
X190019047Y-83747619D01*
X190114285Y-83890476D01*
X190161904Y-84080952D01*
X190161904Y-84461904D01*
X190114285Y-84557142D01*
X190066666Y-84604761D01*
X189971428Y-84652380D01*
X189780952Y-84652380D01*
X189685714Y-84604761D01*
X189638095Y-84557142D01*
X189590476Y-84461904D01*
X189590476Y-84223809D01*
X189638095Y-84128571D01*
X189685714Y-84080952D01*
X189780952Y-84033333D01*
X189971428Y-84033333D01*
X190066666Y-84080952D01*
X190114285Y-84128571D01*
X190161904Y-84223809D01*
X189257142Y-83652380D02*
X188638095Y-83652380D01*
X188971428Y-84033333D01*
X188828571Y-84033333D01*
X188733333Y-84080952D01*
X188685714Y-84128571D01*
X188638095Y-84223809D01*
X188638095Y-84461904D01*
X188685714Y-84557142D01*
X188733333Y-84604761D01*
X188828571Y-84652380D01*
X189114285Y-84652380D01*
X189209523Y-84604761D01*
X189257142Y-84557142D01*
%TO.C,D64*%
X191314285Y-101052380D02*
X191314285Y-100052380D01*
X191076190Y-100052380D01*
X190933333Y-100100000D01*
X190838095Y-100195238D01*
X190790476Y-100290476D01*
X190742857Y-100480952D01*
X190742857Y-100623809D01*
X190790476Y-100814285D01*
X190838095Y-100909523D01*
X190933333Y-101004761D01*
X191076190Y-101052380D01*
X191314285Y-101052380D01*
X189885714Y-100052380D02*
X190076190Y-100052380D01*
X190171428Y-100100000D01*
X190219047Y-100147619D01*
X190314285Y-100290476D01*
X190361904Y-100480952D01*
X190361904Y-100861904D01*
X190314285Y-100957142D01*
X190266666Y-101004761D01*
X190171428Y-101052380D01*
X189980952Y-101052380D01*
X189885714Y-101004761D01*
X189838095Y-100957142D01*
X189790476Y-100861904D01*
X189790476Y-100623809D01*
X189838095Y-100528571D01*
X189885714Y-100480952D01*
X189980952Y-100433333D01*
X190171428Y-100433333D01*
X190266666Y-100480952D01*
X190314285Y-100528571D01*
X190361904Y-100623809D01*
X188933333Y-100385714D02*
X188933333Y-101052380D01*
X189171428Y-100004761D02*
X189409523Y-100719047D01*
X188790476Y-100719047D01*
%TO.C,D66*%
X208214285Y-35652380D02*
X208214285Y-34652380D01*
X207976190Y-34652380D01*
X207833333Y-34700000D01*
X207738095Y-34795238D01*
X207690476Y-34890476D01*
X207642857Y-35080952D01*
X207642857Y-35223809D01*
X207690476Y-35414285D01*
X207738095Y-35509523D01*
X207833333Y-35604761D01*
X207976190Y-35652380D01*
X208214285Y-35652380D01*
X206785714Y-34652380D02*
X206976190Y-34652380D01*
X207071428Y-34700000D01*
X207119047Y-34747619D01*
X207214285Y-34890476D01*
X207261904Y-35080952D01*
X207261904Y-35461904D01*
X207214285Y-35557142D01*
X207166666Y-35604761D01*
X207071428Y-35652380D01*
X206880952Y-35652380D01*
X206785714Y-35604761D01*
X206738095Y-35557142D01*
X206690476Y-35461904D01*
X206690476Y-35223809D01*
X206738095Y-35128571D01*
X206785714Y-35080952D01*
X206880952Y-35033333D01*
X207071428Y-35033333D01*
X207166666Y-35080952D01*
X207214285Y-35128571D01*
X207261904Y-35223809D01*
X205833333Y-34652380D02*
X206023809Y-34652380D01*
X206119047Y-34700000D01*
X206166666Y-34747619D01*
X206261904Y-34890476D01*
X206309523Y-35080952D01*
X206309523Y-35461904D01*
X206261904Y-35557142D01*
X206214285Y-35604761D01*
X206119047Y-35652380D01*
X205928571Y-35652380D01*
X205833333Y-35604761D01*
X205785714Y-35557142D01*
X205738095Y-35461904D01*
X205738095Y-35223809D01*
X205785714Y-35128571D01*
X205833333Y-35080952D01*
X205928571Y-35033333D01*
X206119047Y-35033333D01*
X206214285Y-35080952D01*
X206261904Y-35128571D01*
X206309523Y-35223809D01*
%TO.C,D67*%
X211914285Y-50052380D02*
X211914285Y-49052380D01*
X211676190Y-49052380D01*
X211533333Y-49100000D01*
X211438095Y-49195238D01*
X211390476Y-49290476D01*
X211342857Y-49480952D01*
X211342857Y-49623809D01*
X211390476Y-49814285D01*
X211438095Y-49909523D01*
X211533333Y-50004761D01*
X211676190Y-50052380D01*
X211914285Y-50052380D01*
X210485714Y-49052380D02*
X210676190Y-49052380D01*
X210771428Y-49100000D01*
X210819047Y-49147619D01*
X210914285Y-49290476D01*
X210961904Y-49480952D01*
X210961904Y-49861904D01*
X210914285Y-49957142D01*
X210866666Y-50004761D01*
X210771428Y-50052380D01*
X210580952Y-50052380D01*
X210485714Y-50004761D01*
X210438095Y-49957142D01*
X210390476Y-49861904D01*
X210390476Y-49623809D01*
X210438095Y-49528571D01*
X210485714Y-49480952D01*
X210580952Y-49433333D01*
X210771428Y-49433333D01*
X210866666Y-49480952D01*
X210914285Y-49528571D01*
X210961904Y-49623809D01*
X210057142Y-49052380D02*
X209390476Y-49052380D01*
X209819047Y-50052380D01*
%TO.C,D68*%
X215914285Y-64452380D02*
X215914285Y-63452380D01*
X215676190Y-63452380D01*
X215533333Y-63500000D01*
X215438095Y-63595238D01*
X215390476Y-63690476D01*
X215342857Y-63880952D01*
X215342857Y-64023809D01*
X215390476Y-64214285D01*
X215438095Y-64309523D01*
X215533333Y-64404761D01*
X215676190Y-64452380D01*
X215914285Y-64452380D01*
X214485714Y-63452380D02*
X214676190Y-63452380D01*
X214771428Y-63500000D01*
X214819047Y-63547619D01*
X214914285Y-63690476D01*
X214961904Y-63880952D01*
X214961904Y-64261904D01*
X214914285Y-64357142D01*
X214866666Y-64404761D01*
X214771428Y-64452380D01*
X214580952Y-64452380D01*
X214485714Y-64404761D01*
X214438095Y-64357142D01*
X214390476Y-64261904D01*
X214390476Y-64023809D01*
X214438095Y-63928571D01*
X214485714Y-63880952D01*
X214580952Y-63833333D01*
X214771428Y-63833333D01*
X214866666Y-63880952D01*
X214914285Y-63928571D01*
X214961904Y-64023809D01*
X213819047Y-63880952D02*
X213914285Y-63833333D01*
X213961904Y-63785714D01*
X214009523Y-63690476D01*
X214009523Y-63642857D01*
X213961904Y-63547619D01*
X213914285Y-63500000D01*
X213819047Y-63452380D01*
X213628571Y-63452380D01*
X213533333Y-63500000D01*
X213485714Y-63547619D01*
X213438095Y-63642857D01*
X213438095Y-63690476D01*
X213485714Y-63785714D01*
X213533333Y-63833333D01*
X213628571Y-63880952D01*
X213819047Y-63880952D01*
X213914285Y-63928571D01*
X213961904Y-63976190D01*
X214009523Y-64071428D01*
X214009523Y-64261904D01*
X213961904Y-64357142D01*
X213914285Y-64404761D01*
X213819047Y-64452380D01*
X213628571Y-64452380D01*
X213533333Y-64404761D01*
X213485714Y-64357142D01*
X213438095Y-64261904D01*
X213438095Y-64071428D01*
X213485714Y-63976190D01*
X213533333Y-63928571D01*
X213628571Y-63880952D01*
%TO.C,D69*%
X207914285Y-84652380D02*
X207914285Y-83652380D01*
X207676190Y-83652380D01*
X207533333Y-83700000D01*
X207438095Y-83795238D01*
X207390476Y-83890476D01*
X207342857Y-84080952D01*
X207342857Y-84223809D01*
X207390476Y-84414285D01*
X207438095Y-84509523D01*
X207533333Y-84604761D01*
X207676190Y-84652380D01*
X207914285Y-84652380D01*
X206485714Y-83652380D02*
X206676190Y-83652380D01*
X206771428Y-83700000D01*
X206819047Y-83747619D01*
X206914285Y-83890476D01*
X206961904Y-84080952D01*
X206961904Y-84461904D01*
X206914285Y-84557142D01*
X206866666Y-84604761D01*
X206771428Y-84652380D01*
X206580952Y-84652380D01*
X206485714Y-84604761D01*
X206438095Y-84557142D01*
X206390476Y-84461904D01*
X206390476Y-84223809D01*
X206438095Y-84128571D01*
X206485714Y-84080952D01*
X206580952Y-84033333D01*
X206771428Y-84033333D01*
X206866666Y-84080952D01*
X206914285Y-84128571D01*
X206961904Y-84223809D01*
X205914285Y-84652380D02*
X205723809Y-84652380D01*
X205628571Y-84604761D01*
X205580952Y-84557142D01*
X205485714Y-84414285D01*
X205438095Y-84223809D01*
X205438095Y-83842857D01*
X205485714Y-83747619D01*
X205533333Y-83700000D01*
X205628571Y-83652380D01*
X205819047Y-83652380D01*
X205914285Y-83700000D01*
X205961904Y-83747619D01*
X206009523Y-83842857D01*
X206009523Y-84080952D01*
X205961904Y-84176190D01*
X205914285Y-84223809D01*
X205819047Y-84271428D01*
X205628571Y-84271428D01*
X205533333Y-84223809D01*
X205485714Y-84176190D01*
X205438095Y-84080952D01*
%TO.C,D70*%
X210914285Y-101052380D02*
X210914285Y-100052380D01*
X210676190Y-100052380D01*
X210533333Y-100100000D01*
X210438095Y-100195238D01*
X210390476Y-100290476D01*
X210342857Y-100480952D01*
X210342857Y-100623809D01*
X210390476Y-100814285D01*
X210438095Y-100909523D01*
X210533333Y-101004761D01*
X210676190Y-101052380D01*
X210914285Y-101052380D01*
X210009523Y-100052380D02*
X209342857Y-100052380D01*
X209771428Y-101052380D01*
X208771428Y-100052380D02*
X208676190Y-100052380D01*
X208580952Y-100100000D01*
X208533333Y-100147619D01*
X208485714Y-100242857D01*
X208438095Y-100433333D01*
X208438095Y-100671428D01*
X208485714Y-100861904D01*
X208533333Y-100957142D01*
X208580952Y-101004761D01*
X208676190Y-101052380D01*
X208771428Y-101052380D01*
X208866666Y-101004761D01*
X208914285Y-100957142D01*
X208961904Y-100861904D01*
X209009523Y-100671428D01*
X209009523Y-100433333D01*
X208961904Y-100242857D01*
X208914285Y-100147619D01*
X208866666Y-100100000D01*
X208771428Y-100052380D01*
%TO.C,D71*%
X233114285Y-45252380D02*
X233114285Y-44252380D01*
X232876190Y-44252380D01*
X232733333Y-44300000D01*
X232638095Y-44395238D01*
X232590476Y-44490476D01*
X232542857Y-44680952D01*
X232542857Y-44823809D01*
X232590476Y-45014285D01*
X232638095Y-45109523D01*
X232733333Y-45204761D01*
X232876190Y-45252380D01*
X233114285Y-45252380D01*
X232209523Y-44252380D02*
X231542857Y-44252380D01*
X231971428Y-45252380D01*
X230638095Y-45252380D02*
X231209523Y-45252380D01*
X230923809Y-45252380D02*
X230923809Y-44252380D01*
X231019047Y-44395238D01*
X231114285Y-44490476D01*
X231209523Y-44538095D01*
%TO.C,D72*%
X225114285Y-35452380D02*
X225114285Y-34452380D01*
X224876190Y-34452380D01*
X224733333Y-34500000D01*
X224638095Y-34595238D01*
X224590476Y-34690476D01*
X224542857Y-34880952D01*
X224542857Y-35023809D01*
X224590476Y-35214285D01*
X224638095Y-35309523D01*
X224733333Y-35404761D01*
X224876190Y-35452380D01*
X225114285Y-35452380D01*
X224209523Y-34452380D02*
X223542857Y-34452380D01*
X223971428Y-35452380D01*
X223209523Y-34547619D02*
X223161904Y-34500000D01*
X223066666Y-34452380D01*
X222828571Y-34452380D01*
X222733333Y-34500000D01*
X222685714Y-34547619D01*
X222638095Y-34642857D01*
X222638095Y-34738095D01*
X222685714Y-34880952D01*
X223257142Y-35452380D01*
X222638095Y-35452380D01*
%TO.C,D73*%
X233114285Y-51852380D02*
X233114285Y-50852380D01*
X232876190Y-50852380D01*
X232733333Y-50900000D01*
X232638095Y-50995238D01*
X232590476Y-51090476D01*
X232542857Y-51280952D01*
X232542857Y-51423809D01*
X232590476Y-51614285D01*
X232638095Y-51709523D01*
X232733333Y-51804761D01*
X232876190Y-51852380D01*
X233114285Y-51852380D01*
X232209523Y-50852380D02*
X231542857Y-50852380D01*
X231971428Y-51852380D01*
X231257142Y-50852380D02*
X230638095Y-50852380D01*
X230971428Y-51233333D01*
X230828571Y-51233333D01*
X230733333Y-51280952D01*
X230685714Y-51328571D01*
X230638095Y-51423809D01*
X230638095Y-51661904D01*
X230685714Y-51757142D01*
X230733333Y-51804761D01*
X230828571Y-51852380D01*
X231114285Y-51852380D01*
X231209523Y-51804761D01*
X231257142Y-51757142D01*
%TO.C,D74*%
X232714285Y-64452380D02*
X232714285Y-63452380D01*
X232476190Y-63452380D01*
X232333333Y-63500000D01*
X232238095Y-63595238D01*
X232190476Y-63690476D01*
X232142857Y-63880952D01*
X232142857Y-64023809D01*
X232190476Y-64214285D01*
X232238095Y-64309523D01*
X232333333Y-64404761D01*
X232476190Y-64452380D01*
X232714285Y-64452380D01*
X231809523Y-63452380D02*
X231142857Y-63452380D01*
X231571428Y-64452380D01*
X230333333Y-63785714D02*
X230333333Y-64452380D01*
X230571428Y-63404761D02*
X230809523Y-64119047D01*
X230190476Y-64119047D01*
%TO.C,D75*%
X224914285Y-84652380D02*
X224914285Y-83652380D01*
X224676190Y-83652380D01*
X224533333Y-83700000D01*
X224438095Y-83795238D01*
X224390476Y-83890476D01*
X224342857Y-84080952D01*
X224342857Y-84223809D01*
X224390476Y-84414285D01*
X224438095Y-84509523D01*
X224533333Y-84604761D01*
X224676190Y-84652380D01*
X224914285Y-84652380D01*
X224009523Y-83652380D02*
X223342857Y-83652380D01*
X223771428Y-84652380D01*
X222485714Y-83652380D02*
X222961904Y-83652380D01*
X223009523Y-84128571D01*
X222961904Y-84080952D01*
X222866666Y-84033333D01*
X222628571Y-84033333D01*
X222533333Y-84080952D01*
X222485714Y-84128571D01*
X222438095Y-84223809D01*
X222438095Y-84461904D01*
X222485714Y-84557142D01*
X222533333Y-84604761D01*
X222628571Y-84652380D01*
X222866666Y-84652380D01*
X222961904Y-84604761D01*
X223009523Y-84557142D01*
%TO.C,D76*%
X218114285Y-101052380D02*
X218114285Y-100052380D01*
X217876190Y-100052380D01*
X217733333Y-100100000D01*
X217638095Y-100195238D01*
X217590476Y-100290476D01*
X217542857Y-100480952D01*
X217542857Y-100623809D01*
X217590476Y-100814285D01*
X217638095Y-100909523D01*
X217733333Y-101004761D01*
X217876190Y-101052380D01*
X218114285Y-101052380D01*
X217209523Y-100052380D02*
X216542857Y-100052380D01*
X216971428Y-101052380D01*
X215733333Y-100052380D02*
X215923809Y-100052380D01*
X216019047Y-100100000D01*
X216066666Y-100147619D01*
X216161904Y-100290476D01*
X216209523Y-100480952D01*
X216209523Y-100861904D01*
X216161904Y-100957142D01*
X216114285Y-101004761D01*
X216019047Y-101052380D01*
X215828571Y-101052380D01*
X215733333Y-101004761D01*
X215685714Y-100957142D01*
X215638095Y-100861904D01*
X215638095Y-100623809D01*
X215685714Y-100528571D01*
X215733333Y-100480952D01*
X215828571Y-100433333D01*
X216019047Y-100433333D01*
X216114285Y-100480952D01*
X216161904Y-100528571D01*
X216209523Y-100623809D01*
%TO.C,D78*%
X241814285Y-35652380D02*
X241814285Y-34652380D01*
X241576190Y-34652380D01*
X241433333Y-34700000D01*
X241338095Y-34795238D01*
X241290476Y-34890476D01*
X241242857Y-35080952D01*
X241242857Y-35223809D01*
X241290476Y-35414285D01*
X241338095Y-35509523D01*
X241433333Y-35604761D01*
X241576190Y-35652380D01*
X241814285Y-35652380D01*
X240909523Y-34652380D02*
X240242857Y-34652380D01*
X240671428Y-35652380D01*
X239719047Y-35080952D02*
X239814285Y-35033333D01*
X239861904Y-34985714D01*
X239909523Y-34890476D01*
X239909523Y-34842857D01*
X239861904Y-34747619D01*
X239814285Y-34700000D01*
X239719047Y-34652380D01*
X239528571Y-34652380D01*
X239433333Y-34700000D01*
X239385714Y-34747619D01*
X239338095Y-34842857D01*
X239338095Y-34890476D01*
X239385714Y-34985714D01*
X239433333Y-35033333D01*
X239528571Y-35080952D01*
X239719047Y-35080952D01*
X239814285Y-35128571D01*
X239861904Y-35176190D01*
X239909523Y-35271428D01*
X239909523Y-35461904D01*
X239861904Y-35557142D01*
X239814285Y-35604761D01*
X239719047Y-35652380D01*
X239528571Y-35652380D01*
X239433333Y-35604761D01*
X239385714Y-35557142D01*
X239338095Y-35461904D01*
X239338095Y-35271428D01*
X239385714Y-35176190D01*
X239433333Y-35128571D01*
X239528571Y-35080952D01*
%TO.C,D79*%
X249914285Y-51852380D02*
X249914285Y-50852380D01*
X249676190Y-50852380D01*
X249533333Y-50900000D01*
X249438095Y-50995238D01*
X249390476Y-51090476D01*
X249342857Y-51280952D01*
X249342857Y-51423809D01*
X249390476Y-51614285D01*
X249438095Y-51709523D01*
X249533333Y-51804761D01*
X249676190Y-51852380D01*
X249914285Y-51852380D01*
X249009523Y-50852380D02*
X248342857Y-50852380D01*
X248771428Y-51852380D01*
X247914285Y-51852380D02*
X247723809Y-51852380D01*
X247628571Y-51804761D01*
X247580952Y-51757142D01*
X247485714Y-51614285D01*
X247438095Y-51423809D01*
X247438095Y-51042857D01*
X247485714Y-50947619D01*
X247533333Y-50900000D01*
X247628571Y-50852380D01*
X247819047Y-50852380D01*
X247914285Y-50900000D01*
X247961904Y-50947619D01*
X248009523Y-51042857D01*
X248009523Y-51280952D01*
X247961904Y-51376190D01*
X247914285Y-51423809D01*
X247819047Y-51471428D01*
X247628571Y-51471428D01*
X247533333Y-51423809D01*
X247485714Y-51376190D01*
X247438095Y-51280952D01*
%TO.C,D80*%
X250114285Y-68252380D02*
X250114285Y-67252380D01*
X249876190Y-67252380D01*
X249733333Y-67300000D01*
X249638095Y-67395238D01*
X249590476Y-67490476D01*
X249542857Y-67680952D01*
X249542857Y-67823809D01*
X249590476Y-68014285D01*
X249638095Y-68109523D01*
X249733333Y-68204761D01*
X249876190Y-68252380D01*
X250114285Y-68252380D01*
X248971428Y-67680952D02*
X249066666Y-67633333D01*
X249114285Y-67585714D01*
X249161904Y-67490476D01*
X249161904Y-67442857D01*
X249114285Y-67347619D01*
X249066666Y-67300000D01*
X248971428Y-67252380D01*
X248780952Y-67252380D01*
X248685714Y-67300000D01*
X248638095Y-67347619D01*
X248590476Y-67442857D01*
X248590476Y-67490476D01*
X248638095Y-67585714D01*
X248685714Y-67633333D01*
X248780952Y-67680952D01*
X248971428Y-67680952D01*
X249066666Y-67728571D01*
X249114285Y-67776190D01*
X249161904Y-67871428D01*
X249161904Y-68061904D01*
X249114285Y-68157142D01*
X249066666Y-68204761D01*
X248971428Y-68252380D01*
X248780952Y-68252380D01*
X248685714Y-68204761D01*
X248638095Y-68157142D01*
X248590476Y-68061904D01*
X248590476Y-67871428D01*
X248638095Y-67776190D01*
X248685714Y-67728571D01*
X248780952Y-67680952D01*
X247971428Y-67252380D02*
X247876190Y-67252380D01*
X247780952Y-67300000D01*
X247733333Y-67347619D01*
X247685714Y-67442857D01*
X247638095Y-67633333D01*
X247638095Y-67871428D01*
X247685714Y-68061904D01*
X247733333Y-68157142D01*
X247780952Y-68204761D01*
X247876190Y-68252380D01*
X247971428Y-68252380D01*
X248066666Y-68204761D01*
X248114285Y-68157142D01*
X248161904Y-68061904D01*
X248209523Y-67871428D01*
X248209523Y-67633333D01*
X248161904Y-67442857D01*
X248114285Y-67347619D01*
X248066666Y-67300000D01*
X247971428Y-67252380D01*
%TO.C,D81*%
X241714285Y-84652380D02*
X241714285Y-83652380D01*
X241476190Y-83652380D01*
X241333333Y-83700000D01*
X241238095Y-83795238D01*
X241190476Y-83890476D01*
X241142857Y-84080952D01*
X241142857Y-84223809D01*
X241190476Y-84414285D01*
X241238095Y-84509523D01*
X241333333Y-84604761D01*
X241476190Y-84652380D01*
X241714285Y-84652380D01*
X240571428Y-84080952D02*
X240666666Y-84033333D01*
X240714285Y-83985714D01*
X240761904Y-83890476D01*
X240761904Y-83842857D01*
X240714285Y-83747619D01*
X240666666Y-83700000D01*
X240571428Y-83652380D01*
X240380952Y-83652380D01*
X240285714Y-83700000D01*
X240238095Y-83747619D01*
X240190476Y-83842857D01*
X240190476Y-83890476D01*
X240238095Y-83985714D01*
X240285714Y-84033333D01*
X240380952Y-84080952D01*
X240571428Y-84080952D01*
X240666666Y-84128571D01*
X240714285Y-84176190D01*
X240761904Y-84271428D01*
X240761904Y-84461904D01*
X240714285Y-84557142D01*
X240666666Y-84604761D01*
X240571428Y-84652380D01*
X240380952Y-84652380D01*
X240285714Y-84604761D01*
X240238095Y-84557142D01*
X240190476Y-84461904D01*
X240190476Y-84271428D01*
X240238095Y-84176190D01*
X240285714Y-84128571D01*
X240380952Y-84080952D01*
X239238095Y-84652380D02*
X239809523Y-84652380D01*
X239523809Y-84652380D02*
X239523809Y-83652380D01*
X239619047Y-83795238D01*
X239714285Y-83890476D01*
X239809523Y-83938095D01*
%TO.C,D82*%
X237114285Y-97252380D02*
X237114285Y-96252380D01*
X236876190Y-96252380D01*
X236733333Y-96300000D01*
X236638095Y-96395238D01*
X236590476Y-96490476D01*
X236542857Y-96680952D01*
X236542857Y-96823809D01*
X236590476Y-97014285D01*
X236638095Y-97109523D01*
X236733333Y-97204761D01*
X236876190Y-97252380D01*
X237114285Y-97252380D01*
X235971428Y-96680952D02*
X236066666Y-96633333D01*
X236114285Y-96585714D01*
X236161904Y-96490476D01*
X236161904Y-96442857D01*
X236114285Y-96347619D01*
X236066666Y-96300000D01*
X235971428Y-96252380D01*
X235780952Y-96252380D01*
X235685714Y-96300000D01*
X235638095Y-96347619D01*
X235590476Y-96442857D01*
X235590476Y-96490476D01*
X235638095Y-96585714D01*
X235685714Y-96633333D01*
X235780952Y-96680952D01*
X235971428Y-96680952D01*
X236066666Y-96728571D01*
X236114285Y-96776190D01*
X236161904Y-96871428D01*
X236161904Y-97061904D01*
X236114285Y-97157142D01*
X236066666Y-97204761D01*
X235971428Y-97252380D01*
X235780952Y-97252380D01*
X235685714Y-97204761D01*
X235638095Y-97157142D01*
X235590476Y-97061904D01*
X235590476Y-96871428D01*
X235638095Y-96776190D01*
X235685714Y-96728571D01*
X235780952Y-96680952D01*
X235209523Y-96347619D02*
X235161904Y-96300000D01*
X235066666Y-96252380D01*
X234828571Y-96252380D01*
X234733333Y-96300000D01*
X234685714Y-96347619D01*
X234638095Y-96442857D01*
X234638095Y-96538095D01*
X234685714Y-96680952D01*
X235257142Y-97252380D01*
X234638095Y-97252380D01*
%TO.C,D83*%
X266914285Y-61652380D02*
X266914285Y-60652380D01*
X266676190Y-60652380D01*
X266533333Y-60700000D01*
X266438095Y-60795238D01*
X266390476Y-60890476D01*
X266342857Y-61080952D01*
X266342857Y-61223809D01*
X266390476Y-61414285D01*
X266438095Y-61509523D01*
X266533333Y-61604761D01*
X266676190Y-61652380D01*
X266914285Y-61652380D01*
X265771428Y-61080952D02*
X265866666Y-61033333D01*
X265914285Y-60985714D01*
X265961904Y-60890476D01*
X265961904Y-60842857D01*
X265914285Y-60747619D01*
X265866666Y-60700000D01*
X265771428Y-60652380D01*
X265580952Y-60652380D01*
X265485714Y-60700000D01*
X265438095Y-60747619D01*
X265390476Y-60842857D01*
X265390476Y-60890476D01*
X265438095Y-60985714D01*
X265485714Y-61033333D01*
X265580952Y-61080952D01*
X265771428Y-61080952D01*
X265866666Y-61128571D01*
X265914285Y-61176190D01*
X265961904Y-61271428D01*
X265961904Y-61461904D01*
X265914285Y-61557142D01*
X265866666Y-61604761D01*
X265771428Y-61652380D01*
X265580952Y-61652380D01*
X265485714Y-61604761D01*
X265438095Y-61557142D01*
X265390476Y-61461904D01*
X265390476Y-61271428D01*
X265438095Y-61176190D01*
X265485714Y-61128571D01*
X265580952Y-61080952D01*
X265057142Y-60652380D02*
X264438095Y-60652380D01*
X264771428Y-61033333D01*
X264628571Y-61033333D01*
X264533333Y-61080952D01*
X264485714Y-61128571D01*
X264438095Y-61223809D01*
X264438095Y-61461904D01*
X264485714Y-61557142D01*
X264533333Y-61604761D01*
X264628571Y-61652380D01*
X264914285Y-61652380D01*
X265009523Y-61604761D01*
X265057142Y-61557142D01*
%TO.C,D84*%
X258514285Y-35452380D02*
X258514285Y-34452380D01*
X258276190Y-34452380D01*
X258133333Y-34500000D01*
X258038095Y-34595238D01*
X257990476Y-34690476D01*
X257942857Y-34880952D01*
X257942857Y-35023809D01*
X257990476Y-35214285D01*
X258038095Y-35309523D01*
X258133333Y-35404761D01*
X258276190Y-35452380D01*
X258514285Y-35452380D01*
X257371428Y-34880952D02*
X257466666Y-34833333D01*
X257514285Y-34785714D01*
X257561904Y-34690476D01*
X257561904Y-34642857D01*
X257514285Y-34547619D01*
X257466666Y-34500000D01*
X257371428Y-34452380D01*
X257180952Y-34452380D01*
X257085714Y-34500000D01*
X257038095Y-34547619D01*
X256990476Y-34642857D01*
X256990476Y-34690476D01*
X257038095Y-34785714D01*
X257085714Y-34833333D01*
X257180952Y-34880952D01*
X257371428Y-34880952D01*
X257466666Y-34928571D01*
X257514285Y-34976190D01*
X257561904Y-35071428D01*
X257561904Y-35261904D01*
X257514285Y-35357142D01*
X257466666Y-35404761D01*
X257371428Y-35452380D01*
X257180952Y-35452380D01*
X257085714Y-35404761D01*
X257038095Y-35357142D01*
X256990476Y-35261904D01*
X256990476Y-35071428D01*
X257038095Y-34976190D01*
X257085714Y-34928571D01*
X257180952Y-34880952D01*
X256133333Y-34785714D02*
X256133333Y-35452380D01*
X256371428Y-34404761D02*
X256609523Y-35119047D01*
X255990476Y-35119047D01*
%TO.C,D85*%
X267114285Y-51852380D02*
X267114285Y-50852380D01*
X266876190Y-50852380D01*
X266733333Y-50900000D01*
X266638095Y-50995238D01*
X266590476Y-51090476D01*
X266542857Y-51280952D01*
X266542857Y-51423809D01*
X266590476Y-51614285D01*
X266638095Y-51709523D01*
X266733333Y-51804761D01*
X266876190Y-51852380D01*
X267114285Y-51852380D01*
X265971428Y-51280952D02*
X266066666Y-51233333D01*
X266114285Y-51185714D01*
X266161904Y-51090476D01*
X266161904Y-51042857D01*
X266114285Y-50947619D01*
X266066666Y-50900000D01*
X265971428Y-50852380D01*
X265780952Y-50852380D01*
X265685714Y-50900000D01*
X265638095Y-50947619D01*
X265590476Y-51042857D01*
X265590476Y-51090476D01*
X265638095Y-51185714D01*
X265685714Y-51233333D01*
X265780952Y-51280952D01*
X265971428Y-51280952D01*
X266066666Y-51328571D01*
X266114285Y-51376190D01*
X266161904Y-51471428D01*
X266161904Y-51661904D01*
X266114285Y-51757142D01*
X266066666Y-51804761D01*
X265971428Y-51852380D01*
X265780952Y-51852380D01*
X265685714Y-51804761D01*
X265638095Y-51757142D01*
X265590476Y-51661904D01*
X265590476Y-51471428D01*
X265638095Y-51376190D01*
X265685714Y-51328571D01*
X265780952Y-51280952D01*
X264685714Y-50852380D02*
X265161904Y-50852380D01*
X265209523Y-51328571D01*
X265161904Y-51280952D01*
X265066666Y-51233333D01*
X264828571Y-51233333D01*
X264733333Y-51280952D01*
X264685714Y-51328571D01*
X264638095Y-51423809D01*
X264638095Y-51661904D01*
X264685714Y-51757142D01*
X264733333Y-51804761D01*
X264828571Y-51852380D01*
X265066666Y-51852380D01*
X265161904Y-51804761D01*
X265209523Y-51757142D01*
%TO.C,D86*%
X266914285Y-68252380D02*
X266914285Y-67252380D01*
X266676190Y-67252380D01*
X266533333Y-67300000D01*
X266438095Y-67395238D01*
X266390476Y-67490476D01*
X266342857Y-67680952D01*
X266342857Y-67823809D01*
X266390476Y-68014285D01*
X266438095Y-68109523D01*
X266533333Y-68204761D01*
X266676190Y-68252380D01*
X266914285Y-68252380D01*
X265771428Y-67680952D02*
X265866666Y-67633333D01*
X265914285Y-67585714D01*
X265961904Y-67490476D01*
X265961904Y-67442857D01*
X265914285Y-67347619D01*
X265866666Y-67300000D01*
X265771428Y-67252380D01*
X265580952Y-67252380D01*
X265485714Y-67300000D01*
X265438095Y-67347619D01*
X265390476Y-67442857D01*
X265390476Y-67490476D01*
X265438095Y-67585714D01*
X265485714Y-67633333D01*
X265580952Y-67680952D01*
X265771428Y-67680952D01*
X265866666Y-67728571D01*
X265914285Y-67776190D01*
X265961904Y-67871428D01*
X265961904Y-68061904D01*
X265914285Y-68157142D01*
X265866666Y-68204761D01*
X265771428Y-68252380D01*
X265580952Y-68252380D01*
X265485714Y-68204761D01*
X265438095Y-68157142D01*
X265390476Y-68061904D01*
X265390476Y-67871428D01*
X265438095Y-67776190D01*
X265485714Y-67728571D01*
X265580952Y-67680952D01*
X264533333Y-67252380D02*
X264723809Y-67252380D01*
X264819047Y-67300000D01*
X264866666Y-67347619D01*
X264961904Y-67490476D01*
X265009523Y-67680952D01*
X265009523Y-68061904D01*
X264961904Y-68157142D01*
X264914285Y-68204761D01*
X264819047Y-68252380D01*
X264628571Y-68252380D01*
X264533333Y-68204761D01*
X264485714Y-68157142D01*
X264438095Y-68061904D01*
X264438095Y-67823809D01*
X264485714Y-67728571D01*
X264533333Y-67680952D01*
X264628571Y-67633333D01*
X264819047Y-67633333D01*
X264914285Y-67680952D01*
X264961904Y-67728571D01*
X265009523Y-67823809D01*
%TO.C,D87*%
X258314285Y-84652380D02*
X258314285Y-83652380D01*
X258076190Y-83652380D01*
X257933333Y-83700000D01*
X257838095Y-83795238D01*
X257790476Y-83890476D01*
X257742857Y-84080952D01*
X257742857Y-84223809D01*
X257790476Y-84414285D01*
X257838095Y-84509523D01*
X257933333Y-84604761D01*
X258076190Y-84652380D01*
X258314285Y-84652380D01*
X257171428Y-84080952D02*
X257266666Y-84033333D01*
X257314285Y-83985714D01*
X257361904Y-83890476D01*
X257361904Y-83842857D01*
X257314285Y-83747619D01*
X257266666Y-83700000D01*
X257171428Y-83652380D01*
X256980952Y-83652380D01*
X256885714Y-83700000D01*
X256838095Y-83747619D01*
X256790476Y-83842857D01*
X256790476Y-83890476D01*
X256838095Y-83985714D01*
X256885714Y-84033333D01*
X256980952Y-84080952D01*
X257171428Y-84080952D01*
X257266666Y-84128571D01*
X257314285Y-84176190D01*
X257361904Y-84271428D01*
X257361904Y-84461904D01*
X257314285Y-84557142D01*
X257266666Y-84604761D01*
X257171428Y-84652380D01*
X256980952Y-84652380D01*
X256885714Y-84604761D01*
X256838095Y-84557142D01*
X256790476Y-84461904D01*
X256790476Y-84271428D01*
X256838095Y-84176190D01*
X256885714Y-84128571D01*
X256980952Y-84080952D01*
X256457142Y-83652380D02*
X255790476Y-83652380D01*
X256219047Y-84652380D01*
%TO.C,D88*%
X268214285Y-101052380D02*
X268214285Y-100052380D01*
X267976190Y-100052380D01*
X267833333Y-100100000D01*
X267738095Y-100195238D01*
X267690476Y-100290476D01*
X267642857Y-100480952D01*
X267642857Y-100623809D01*
X267690476Y-100814285D01*
X267738095Y-100909523D01*
X267833333Y-101004761D01*
X267976190Y-101052380D01*
X268214285Y-101052380D01*
X267071428Y-100480952D02*
X267166666Y-100433333D01*
X267214285Y-100385714D01*
X267261904Y-100290476D01*
X267261904Y-100242857D01*
X267214285Y-100147619D01*
X267166666Y-100100000D01*
X267071428Y-100052380D01*
X266880952Y-100052380D01*
X266785714Y-100100000D01*
X266738095Y-100147619D01*
X266690476Y-100242857D01*
X266690476Y-100290476D01*
X266738095Y-100385714D01*
X266785714Y-100433333D01*
X266880952Y-100480952D01*
X267071428Y-100480952D01*
X267166666Y-100528571D01*
X267214285Y-100576190D01*
X267261904Y-100671428D01*
X267261904Y-100861904D01*
X267214285Y-100957142D01*
X267166666Y-101004761D01*
X267071428Y-101052380D01*
X266880952Y-101052380D01*
X266785714Y-101004761D01*
X266738095Y-100957142D01*
X266690476Y-100861904D01*
X266690476Y-100671428D01*
X266738095Y-100576190D01*
X266785714Y-100528571D01*
X266880952Y-100480952D01*
X266119047Y-100480952D02*
X266214285Y-100433333D01*
X266261904Y-100385714D01*
X266309523Y-100290476D01*
X266309523Y-100242857D01*
X266261904Y-100147619D01*
X266214285Y-100100000D01*
X266119047Y-100052380D01*
X265928571Y-100052380D01*
X265833333Y-100100000D01*
X265785714Y-100147619D01*
X265738095Y-100242857D01*
X265738095Y-100290476D01*
X265785714Y-100385714D01*
X265833333Y-100433333D01*
X265928571Y-100480952D01*
X266119047Y-100480952D01*
X266214285Y-100528571D01*
X266261904Y-100576190D01*
X266309523Y-100671428D01*
X266309523Y-100861904D01*
X266261904Y-100957142D01*
X266214285Y-101004761D01*
X266119047Y-101052380D01*
X265928571Y-101052380D01*
X265833333Y-101004761D01*
X265785714Y-100957142D01*
X265738095Y-100861904D01*
X265738095Y-100671428D01*
X265785714Y-100576190D01*
X265833333Y-100528571D01*
X265928571Y-100480952D01*
%TO.C,D90*%
X265214285Y-33952380D02*
X265214285Y-32952380D01*
X264976190Y-32952380D01*
X264833333Y-33000000D01*
X264738095Y-33095238D01*
X264690476Y-33190476D01*
X264642857Y-33380952D01*
X264642857Y-33523809D01*
X264690476Y-33714285D01*
X264738095Y-33809523D01*
X264833333Y-33904761D01*
X264976190Y-33952380D01*
X265214285Y-33952380D01*
X264166666Y-33952380D02*
X263976190Y-33952380D01*
X263880952Y-33904761D01*
X263833333Y-33857142D01*
X263738095Y-33714285D01*
X263690476Y-33523809D01*
X263690476Y-33142857D01*
X263738095Y-33047619D01*
X263785714Y-33000000D01*
X263880952Y-32952380D01*
X264071428Y-32952380D01*
X264166666Y-33000000D01*
X264214285Y-33047619D01*
X264261904Y-33142857D01*
X264261904Y-33380952D01*
X264214285Y-33476190D01*
X264166666Y-33523809D01*
X264071428Y-33571428D01*
X263880952Y-33571428D01*
X263785714Y-33523809D01*
X263738095Y-33476190D01*
X263690476Y-33380952D01*
X263071428Y-32952380D02*
X262976190Y-32952380D01*
X262880952Y-33000000D01*
X262833333Y-33047619D01*
X262785714Y-33142857D01*
X262738095Y-33333333D01*
X262738095Y-33571428D01*
X262785714Y-33761904D01*
X262833333Y-33857142D01*
X262880952Y-33904761D01*
X262976190Y-33952380D01*
X263071428Y-33952380D01*
X263166666Y-33904761D01*
X263214285Y-33857142D01*
X263261904Y-33761904D01*
X263309523Y-33571428D01*
X263309523Y-33333333D01*
X263261904Y-33142857D01*
X263214285Y-33047619D01*
X263166666Y-33000000D01*
X263071428Y-32952380D01*
%TO.C,D91*%
X275314285Y-84652380D02*
X275314285Y-83652380D01*
X275076190Y-83652380D01*
X274933333Y-83700000D01*
X274838095Y-83795238D01*
X274790476Y-83890476D01*
X274742857Y-84080952D01*
X274742857Y-84223809D01*
X274790476Y-84414285D01*
X274838095Y-84509523D01*
X274933333Y-84604761D01*
X275076190Y-84652380D01*
X275314285Y-84652380D01*
X274266666Y-84652380D02*
X274076190Y-84652380D01*
X273980952Y-84604761D01*
X273933333Y-84557142D01*
X273838095Y-84414285D01*
X273790476Y-84223809D01*
X273790476Y-83842857D01*
X273838095Y-83747619D01*
X273885714Y-83700000D01*
X273980952Y-83652380D01*
X274171428Y-83652380D01*
X274266666Y-83700000D01*
X274314285Y-83747619D01*
X274361904Y-83842857D01*
X274361904Y-84080952D01*
X274314285Y-84176190D01*
X274266666Y-84223809D01*
X274171428Y-84271428D01*
X273980952Y-84271428D01*
X273885714Y-84223809D01*
X273838095Y-84176190D01*
X273790476Y-84080952D01*
X272838095Y-84652380D02*
X273409523Y-84652380D01*
X273123809Y-84652380D02*
X273123809Y-83652380D01*
X273219047Y-83795238D01*
X273314285Y-83890476D01*
X273409523Y-83938095D01*
%TO.C,D92*%
X274714285Y-101052380D02*
X274714285Y-100052380D01*
X274476190Y-100052380D01*
X274333333Y-100100000D01*
X274238095Y-100195238D01*
X274190476Y-100290476D01*
X274142857Y-100480952D01*
X274142857Y-100623809D01*
X274190476Y-100814285D01*
X274238095Y-100909523D01*
X274333333Y-101004761D01*
X274476190Y-101052380D01*
X274714285Y-101052380D01*
X273666666Y-101052380D02*
X273476190Y-101052380D01*
X273380952Y-101004761D01*
X273333333Y-100957142D01*
X273238095Y-100814285D01*
X273190476Y-100623809D01*
X273190476Y-100242857D01*
X273238095Y-100147619D01*
X273285714Y-100100000D01*
X273380952Y-100052380D01*
X273571428Y-100052380D01*
X273666666Y-100100000D01*
X273714285Y-100147619D01*
X273761904Y-100242857D01*
X273761904Y-100480952D01*
X273714285Y-100576190D01*
X273666666Y-100623809D01*
X273571428Y-100671428D01*
X273380952Y-100671428D01*
X273285714Y-100623809D01*
X273238095Y-100576190D01*
X273190476Y-100480952D01*
X272809523Y-100147619D02*
X272761904Y-100100000D01*
X272666666Y-100052380D01*
X272428571Y-100052380D01*
X272333333Y-100100000D01*
X272285714Y-100147619D01*
X272238095Y-100242857D01*
X272238095Y-100338095D01*
X272285714Y-100480952D01*
X272857142Y-101052380D01*
X272238095Y-101052380D01*
%TO.C,D93*%
X284714285Y-87452380D02*
X284714285Y-86452380D01*
X284476190Y-86452380D01*
X284333333Y-86500000D01*
X284238095Y-86595238D01*
X284190476Y-86690476D01*
X284142857Y-86880952D01*
X284142857Y-87023809D01*
X284190476Y-87214285D01*
X284238095Y-87309523D01*
X284333333Y-87404761D01*
X284476190Y-87452380D01*
X284714285Y-87452380D01*
X283666666Y-87452380D02*
X283476190Y-87452380D01*
X283380952Y-87404761D01*
X283333333Y-87357142D01*
X283238095Y-87214285D01*
X283190476Y-87023809D01*
X283190476Y-86642857D01*
X283238095Y-86547619D01*
X283285714Y-86500000D01*
X283380952Y-86452380D01*
X283571428Y-86452380D01*
X283666666Y-86500000D01*
X283714285Y-86547619D01*
X283761904Y-86642857D01*
X283761904Y-86880952D01*
X283714285Y-86976190D01*
X283666666Y-87023809D01*
X283571428Y-87071428D01*
X283380952Y-87071428D01*
X283285714Y-87023809D01*
X283238095Y-86976190D01*
X283190476Y-86880952D01*
X282857142Y-86452380D02*
X282238095Y-86452380D01*
X282571428Y-86833333D01*
X282428571Y-86833333D01*
X282333333Y-86880952D01*
X282285714Y-86928571D01*
X282238095Y-87023809D01*
X282238095Y-87261904D01*
X282285714Y-87357142D01*
X282333333Y-87404761D01*
X282428571Y-87452380D01*
X282714285Y-87452380D01*
X282809523Y-87404761D01*
X282857142Y-87357142D01*
%TO.C,D95*%
X286514285Y-35452380D02*
X286514285Y-34452380D01*
X286276190Y-34452380D01*
X286133333Y-34500000D01*
X286038095Y-34595238D01*
X285990476Y-34690476D01*
X285942857Y-34880952D01*
X285942857Y-35023809D01*
X285990476Y-35214285D01*
X286038095Y-35309523D01*
X286133333Y-35404761D01*
X286276190Y-35452380D01*
X286514285Y-35452380D01*
X285466666Y-35452380D02*
X285276190Y-35452380D01*
X285180952Y-35404761D01*
X285133333Y-35357142D01*
X285038095Y-35214285D01*
X284990476Y-35023809D01*
X284990476Y-34642857D01*
X285038095Y-34547619D01*
X285085714Y-34500000D01*
X285180952Y-34452380D01*
X285371428Y-34452380D01*
X285466666Y-34500000D01*
X285514285Y-34547619D01*
X285561904Y-34642857D01*
X285561904Y-34880952D01*
X285514285Y-34976190D01*
X285466666Y-35023809D01*
X285371428Y-35071428D01*
X285180952Y-35071428D01*
X285085714Y-35023809D01*
X285038095Y-34976190D01*
X284990476Y-34880952D01*
X284085714Y-34452380D02*
X284561904Y-34452380D01*
X284609523Y-34928571D01*
X284561904Y-34880952D01*
X284466666Y-34833333D01*
X284228571Y-34833333D01*
X284133333Y-34880952D01*
X284085714Y-34928571D01*
X284038095Y-35023809D01*
X284038095Y-35261904D01*
X284085714Y-35357142D01*
X284133333Y-35404761D01*
X284228571Y-35452380D01*
X284466666Y-35452380D01*
X284561904Y-35404761D01*
X284609523Y-35357142D01*
%TO.C,D96*%
X287314285Y-48052380D02*
X287314285Y-47052380D01*
X287076190Y-47052380D01*
X286933333Y-47100000D01*
X286838095Y-47195238D01*
X286790476Y-47290476D01*
X286742857Y-47480952D01*
X286742857Y-47623809D01*
X286790476Y-47814285D01*
X286838095Y-47909523D01*
X286933333Y-48004761D01*
X287076190Y-48052380D01*
X287314285Y-48052380D01*
X286266666Y-48052380D02*
X286076190Y-48052380D01*
X285980952Y-48004761D01*
X285933333Y-47957142D01*
X285838095Y-47814285D01*
X285790476Y-47623809D01*
X285790476Y-47242857D01*
X285838095Y-47147619D01*
X285885714Y-47100000D01*
X285980952Y-47052380D01*
X286171428Y-47052380D01*
X286266666Y-47100000D01*
X286314285Y-47147619D01*
X286361904Y-47242857D01*
X286361904Y-47480952D01*
X286314285Y-47576190D01*
X286266666Y-47623809D01*
X286171428Y-47671428D01*
X285980952Y-47671428D01*
X285885714Y-47623809D01*
X285838095Y-47576190D01*
X285790476Y-47480952D01*
X284933333Y-47052380D02*
X285123809Y-47052380D01*
X285219047Y-47100000D01*
X285266666Y-47147619D01*
X285361904Y-47290476D01*
X285409523Y-47480952D01*
X285409523Y-47861904D01*
X285361904Y-47957142D01*
X285314285Y-48004761D01*
X285219047Y-48052380D01*
X285028571Y-48052380D01*
X284933333Y-48004761D01*
X284885714Y-47957142D01*
X284838095Y-47861904D01*
X284838095Y-47623809D01*
X284885714Y-47528571D01*
X284933333Y-47480952D01*
X285028571Y-47433333D01*
X285219047Y-47433333D01*
X285314285Y-47480952D01*
X285361904Y-47528571D01*
X285409523Y-47623809D01*
%TO.C,D97*%
X287114285Y-64452380D02*
X287114285Y-63452380D01*
X286876190Y-63452380D01*
X286733333Y-63500000D01*
X286638095Y-63595238D01*
X286590476Y-63690476D01*
X286542857Y-63880952D01*
X286542857Y-64023809D01*
X286590476Y-64214285D01*
X286638095Y-64309523D01*
X286733333Y-64404761D01*
X286876190Y-64452380D01*
X287114285Y-64452380D01*
X286066666Y-64452380D02*
X285876190Y-64452380D01*
X285780952Y-64404761D01*
X285733333Y-64357142D01*
X285638095Y-64214285D01*
X285590476Y-64023809D01*
X285590476Y-63642857D01*
X285638095Y-63547619D01*
X285685714Y-63500000D01*
X285780952Y-63452380D01*
X285971428Y-63452380D01*
X286066666Y-63500000D01*
X286114285Y-63547619D01*
X286161904Y-63642857D01*
X286161904Y-63880952D01*
X286114285Y-63976190D01*
X286066666Y-64023809D01*
X285971428Y-64071428D01*
X285780952Y-64071428D01*
X285685714Y-64023809D01*
X285638095Y-63976190D01*
X285590476Y-63880952D01*
X285257142Y-63452380D02*
X284590476Y-63452380D01*
X285019047Y-64452380D01*
%TO.C,D98*%
X284714285Y-80852380D02*
X284714285Y-79852380D01*
X284476190Y-79852380D01*
X284333333Y-79900000D01*
X284238095Y-79995238D01*
X284190476Y-80090476D01*
X284142857Y-80280952D01*
X284142857Y-80423809D01*
X284190476Y-80614285D01*
X284238095Y-80709523D01*
X284333333Y-80804761D01*
X284476190Y-80852380D01*
X284714285Y-80852380D01*
X283666666Y-80852380D02*
X283476190Y-80852380D01*
X283380952Y-80804761D01*
X283333333Y-80757142D01*
X283238095Y-80614285D01*
X283190476Y-80423809D01*
X283190476Y-80042857D01*
X283238095Y-79947619D01*
X283285714Y-79900000D01*
X283380952Y-79852380D01*
X283571428Y-79852380D01*
X283666666Y-79900000D01*
X283714285Y-79947619D01*
X283761904Y-80042857D01*
X283761904Y-80280952D01*
X283714285Y-80376190D01*
X283666666Y-80423809D01*
X283571428Y-80471428D01*
X283380952Y-80471428D01*
X283285714Y-80423809D01*
X283238095Y-80376190D01*
X283190476Y-80280952D01*
X282619047Y-80280952D02*
X282714285Y-80233333D01*
X282761904Y-80185714D01*
X282809523Y-80090476D01*
X282809523Y-80042857D01*
X282761904Y-79947619D01*
X282714285Y-79900000D01*
X282619047Y-79852380D01*
X282428571Y-79852380D01*
X282333333Y-79900000D01*
X282285714Y-79947619D01*
X282238095Y-80042857D01*
X282238095Y-80090476D01*
X282285714Y-80185714D01*
X282333333Y-80233333D01*
X282428571Y-80280952D01*
X282619047Y-80280952D01*
X282714285Y-80328571D01*
X282761904Y-80376190D01*
X282809523Y-80471428D01*
X282809523Y-80661904D01*
X282761904Y-80757142D01*
X282714285Y-80804761D01*
X282619047Y-80852380D01*
X282428571Y-80852380D01*
X282333333Y-80804761D01*
X282285714Y-80757142D01*
X282238095Y-80661904D01*
X282238095Y-80471428D01*
X282285714Y-80376190D01*
X282333333Y-80328571D01*
X282428571Y-80280952D01*
%TO.C,D99*%
X284114285Y-101052380D02*
X284114285Y-100052380D01*
X283876190Y-100052380D01*
X283733333Y-100100000D01*
X283638095Y-100195238D01*
X283590476Y-100290476D01*
X283542857Y-100480952D01*
X283542857Y-100623809D01*
X283590476Y-100814285D01*
X283638095Y-100909523D01*
X283733333Y-101004761D01*
X283876190Y-101052380D01*
X284114285Y-101052380D01*
X283066666Y-101052380D02*
X282876190Y-101052380D01*
X282780952Y-101004761D01*
X282733333Y-100957142D01*
X282638095Y-100814285D01*
X282590476Y-100623809D01*
X282590476Y-100242857D01*
X282638095Y-100147619D01*
X282685714Y-100100000D01*
X282780952Y-100052380D01*
X282971428Y-100052380D01*
X283066666Y-100100000D01*
X283114285Y-100147619D01*
X283161904Y-100242857D01*
X283161904Y-100480952D01*
X283114285Y-100576190D01*
X283066666Y-100623809D01*
X282971428Y-100671428D01*
X282780952Y-100671428D01*
X282685714Y-100623809D01*
X282638095Y-100576190D01*
X282590476Y-100480952D01*
X282114285Y-101052380D02*
X281923809Y-101052380D01*
X281828571Y-101004761D01*
X281780952Y-100957142D01*
X281685714Y-100814285D01*
X281638095Y-100623809D01*
X281638095Y-100242857D01*
X281685714Y-100147619D01*
X281733333Y-100100000D01*
X281828571Y-100052380D01*
X282019047Y-100052380D01*
X282114285Y-100100000D01*
X282161904Y-100147619D01*
X282209523Y-100242857D01*
X282209523Y-100480952D01*
X282161904Y-100576190D01*
X282114285Y-100623809D01*
X282019047Y-100671428D01*
X281828571Y-100671428D01*
X281733333Y-100623809D01*
X281685714Y-100576190D01*
X281638095Y-100480952D01*
%TO.C,F1*%
X43798571Y-20516666D02*
X43798571Y-20183333D01*
X44322380Y-20183333D02*
X43322380Y-20183333D01*
X43322380Y-20659523D01*
X44322380Y-21564285D02*
X44322380Y-20992857D01*
X44322380Y-21278571D02*
X43322380Y-21278571D01*
X43465238Y-21183333D01*
X43560476Y-21088095D01*
X43608095Y-20992857D01*
%TO.C,JP_LED2*%
X85680833Y-20452380D02*
X86014166Y-19976190D01*
X86252261Y-20452380D02*
X86252261Y-19452380D01*
X85871309Y-19452380D01*
X85776071Y-19500000D01*
X85728452Y-19547619D01*
X85680833Y-19642857D01*
X85680833Y-19785714D01*
X85728452Y-19880952D01*
X85776071Y-19928571D01*
X85871309Y-19976190D01*
X86252261Y-19976190D01*
X85252261Y-20357142D02*
X85204642Y-20404761D01*
X85252261Y-20452380D01*
X85299880Y-20404761D01*
X85252261Y-20357142D01*
X85252261Y-20452380D01*
X84776071Y-19928571D02*
X84442738Y-19928571D01*
X84299880Y-20452380D02*
X84776071Y-20452380D01*
X84776071Y-19452380D01*
X84299880Y-19452380D01*
X83871309Y-20357142D02*
X83823690Y-20404761D01*
X83871309Y-20452380D01*
X83918928Y-20404761D01*
X83871309Y-20357142D01*
X83871309Y-20452380D01*
X82157023Y-20452380D02*
X82633214Y-20452380D01*
X82633214Y-19452380D01*
X81823690Y-19928571D02*
X81490357Y-19928571D01*
X81347500Y-20452380D02*
X81823690Y-20452380D01*
X81823690Y-19452380D01*
X81347500Y-19452380D01*
X80918928Y-20452380D02*
X80918928Y-19452380D01*
X80680833Y-19452380D01*
X80537976Y-19500000D01*
X80442738Y-19595238D01*
X80395119Y-19690476D01*
X80347500Y-19880952D01*
X80347500Y-20023809D01*
X80395119Y-20214285D01*
X80442738Y-20309523D01*
X80537976Y-20404761D01*
X80680833Y-20452380D01*
X80918928Y-20452380D01*
X79966547Y-20404761D02*
X79871309Y-20452380D01*
X79680833Y-20452380D01*
X79585595Y-20404761D01*
X79537976Y-20309523D01*
X79537976Y-20261904D01*
X79585595Y-20166666D01*
X79680833Y-20119047D01*
X79823690Y-20119047D01*
X79918928Y-20071428D01*
X79966547Y-19976190D01*
X79966547Y-19928571D01*
X79918928Y-19833333D01*
X79823690Y-19785714D01*
X79680833Y-19785714D01*
X79585595Y-19833333D01*
X90359404Y-21628571D02*
X90026071Y-21628571D01*
X89883214Y-22152380D02*
X90359404Y-22152380D01*
X90359404Y-21152380D01*
X89883214Y-21152380D01*
X89454642Y-21485714D02*
X89454642Y-22152380D01*
X89454642Y-21580952D02*
X89407023Y-21533333D01*
X89311785Y-21485714D01*
X89168928Y-21485714D01*
X89073690Y-21533333D01*
X89026071Y-21628571D01*
X89026071Y-22152380D01*
X88121309Y-22152380D02*
X88121309Y-21628571D01*
X88168928Y-21533333D01*
X88264166Y-21485714D01*
X88454642Y-21485714D01*
X88549880Y-21533333D01*
X88121309Y-22104761D02*
X88216547Y-22152380D01*
X88454642Y-22152380D01*
X88549880Y-22104761D01*
X88597500Y-22009523D01*
X88597500Y-21914285D01*
X88549880Y-21819047D01*
X88454642Y-21771428D01*
X88216547Y-21771428D01*
X88121309Y-21723809D01*
X87645119Y-22152380D02*
X87645119Y-21152380D01*
X87645119Y-21533333D02*
X87549880Y-21485714D01*
X87359404Y-21485714D01*
X87264166Y-21533333D01*
X87216547Y-21580952D01*
X87168928Y-21676190D01*
X87168928Y-21961904D01*
X87216547Y-22057142D01*
X87264166Y-22104761D01*
X87359404Y-22152380D01*
X87549880Y-22152380D01*
X87645119Y-22104761D01*
X86597500Y-22152380D02*
X86692738Y-22104761D01*
X86740357Y-22009523D01*
X86740357Y-21152380D01*
X85835595Y-22104761D02*
X85930833Y-22152380D01*
X86121309Y-22152380D01*
X86216547Y-22104761D01*
X86264166Y-22009523D01*
X86264166Y-21628571D01*
X86216547Y-21533333D01*
X86121309Y-21485714D01*
X85930833Y-21485714D01*
X85835595Y-21533333D01*
X85787976Y-21628571D01*
X85787976Y-21723809D01*
X86264166Y-21819047D01*
X90635595Y-25052380D02*
X90635595Y-24052380D01*
X90397500Y-24052380D01*
X90254642Y-24100000D01*
X90159404Y-24195238D01*
X90111785Y-24290476D01*
X90064166Y-24480952D01*
X90064166Y-24623809D01*
X90111785Y-24814285D01*
X90159404Y-24909523D01*
X90254642Y-25004761D01*
X90397500Y-25052380D01*
X90635595Y-25052380D01*
X89635595Y-25052380D02*
X89635595Y-24385714D01*
X89635595Y-24052380D02*
X89683214Y-24100000D01*
X89635595Y-24147619D01*
X89587976Y-24100000D01*
X89635595Y-24052380D01*
X89635595Y-24147619D01*
X89207023Y-25004761D02*
X89111785Y-25052380D01*
X88921309Y-25052380D01*
X88826071Y-25004761D01*
X88778452Y-24909523D01*
X88778452Y-24861904D01*
X88826071Y-24766666D01*
X88921309Y-24719047D01*
X89064166Y-24719047D01*
X89159404Y-24671428D01*
X89207023Y-24576190D01*
X89207023Y-24528571D01*
X89159404Y-24433333D01*
X89064166Y-24385714D01*
X88921309Y-24385714D01*
X88826071Y-24433333D01*
X87921309Y-25052380D02*
X87921309Y-24528571D01*
X87968928Y-24433333D01*
X88064166Y-24385714D01*
X88254642Y-24385714D01*
X88349880Y-24433333D01*
X87921309Y-25004761D02*
X88016547Y-25052380D01*
X88254642Y-25052380D01*
X88349880Y-25004761D01*
X88397500Y-24909523D01*
X88397500Y-24814285D01*
X88349880Y-24719047D01*
X88254642Y-24671428D01*
X88016547Y-24671428D01*
X87921309Y-24623809D01*
X87445119Y-25052380D02*
X87445119Y-24052380D01*
X87445119Y-24433333D02*
X87349880Y-24385714D01*
X87159404Y-24385714D01*
X87064166Y-24433333D01*
X87016547Y-24480952D01*
X86968928Y-24576190D01*
X86968928Y-24861904D01*
X87016547Y-24957142D01*
X87064166Y-25004761D01*
X87159404Y-25052380D01*
X87349880Y-25052380D01*
X87445119Y-25004761D01*
X86397500Y-25052380D02*
X86492738Y-25004761D01*
X86540357Y-24909523D01*
X86540357Y-24052380D01*
X85635595Y-25004761D02*
X85730833Y-25052380D01*
X85921309Y-25052380D01*
X86016547Y-25004761D01*
X86064166Y-24909523D01*
X86064166Y-24528571D01*
X86016547Y-24433333D01*
X85921309Y-24385714D01*
X85730833Y-24385714D01*
X85635595Y-24433333D01*
X85587976Y-24528571D01*
X85587976Y-24623809D01*
X86064166Y-24719047D01*
%TO.C,L15*%
X289892857Y-80728571D02*
X289892857Y-80119047D01*
X289588095Y-80423809D02*
X290197619Y-80423809D01*
X290388095Y-79357142D02*
X290388095Y-79738095D01*
X290007142Y-79776190D01*
X290045238Y-79738095D01*
X290083333Y-79661904D01*
X290083333Y-79471428D01*
X290045238Y-79395238D01*
X290007142Y-79357142D01*
X289930952Y-79319047D01*
X289740476Y-79319047D01*
X289664285Y-79357142D01*
X289626190Y-79395238D01*
X289588095Y-79471428D01*
X289588095Y-79661904D01*
X289626190Y-79738095D01*
X289664285Y-79776190D01*
X290388095Y-79090476D02*
X289588095Y-78823809D01*
X290388095Y-78557142D01*
X289588095Y-77514285D02*
X289588095Y-77895238D01*
X290388095Y-77895238D01*
X290007142Y-77247619D02*
X290007142Y-76980952D01*
X289588095Y-76866666D02*
X289588095Y-77247619D01*
X290388095Y-77247619D01*
X290388095Y-76866666D01*
X289588095Y-76523809D02*
X290388095Y-76523809D01*
X290388095Y-76333333D01*
X290350000Y-76219047D01*
X290273809Y-76142857D01*
X290197619Y-76104761D01*
X290045238Y-76066666D01*
X289930952Y-76066666D01*
X289778571Y-76104761D01*
X289702380Y-76142857D01*
X289626190Y-76219047D01*
X289588095Y-76333333D01*
X289588095Y-76523809D01*
X290350000Y-75079523D02*
X290388095Y-75155714D01*
X290388095Y-75270000D01*
X290350000Y-75384285D01*
X290273809Y-75460476D01*
X290197619Y-75498571D01*
X290045238Y-75536666D01*
X289930952Y-75536666D01*
X289778571Y-75498571D01*
X289702380Y-75460476D01*
X289626190Y-75384285D01*
X289588095Y-75270000D01*
X289588095Y-75193809D01*
X289626190Y-75079523D01*
X289664285Y-75041428D01*
X289930952Y-75041428D01*
X289930952Y-75193809D01*
X289588095Y-74698571D02*
X290388095Y-74698571D01*
X289588095Y-74241428D01*
X290388095Y-74241428D01*
X289588095Y-73860476D02*
X290388095Y-73860476D01*
X290388095Y-73670000D01*
X290350000Y-73555714D01*
X290273809Y-73479523D01*
X290197619Y-73441428D01*
X290045238Y-73403333D01*
X289930952Y-73403333D01*
X289778571Y-73441428D01*
X289702380Y-73479523D01*
X289626190Y-73555714D01*
X289588095Y-73670000D01*
X289588095Y-73860476D01*
X288338095Y-79228571D02*
X288338095Y-79609523D01*
X289138095Y-79609523D01*
X288757142Y-78961904D02*
X288757142Y-78695238D01*
X288338095Y-78580952D02*
X288338095Y-78961904D01*
X289138095Y-78961904D01*
X289138095Y-78580952D01*
X288338095Y-78238095D02*
X289138095Y-78238095D01*
X289138095Y-78047619D01*
X289100000Y-77933333D01*
X289023809Y-77857142D01*
X288947619Y-77819047D01*
X288795238Y-77780952D01*
X288680952Y-77780952D01*
X288528571Y-77819047D01*
X288452380Y-77857142D01*
X288376190Y-77933333D01*
X288338095Y-78047619D01*
X288338095Y-78238095D01*
X288376190Y-76866666D02*
X288338095Y-76752380D01*
X288338095Y-76561904D01*
X288376190Y-76485714D01*
X288414285Y-76447619D01*
X288490476Y-76409523D01*
X288566666Y-76409523D01*
X288642857Y-76447619D01*
X288680952Y-76485714D01*
X288719047Y-76561904D01*
X288757142Y-76714285D01*
X288795238Y-76790476D01*
X288833333Y-76828571D01*
X288909523Y-76866666D01*
X288985714Y-76866666D01*
X289061904Y-76828571D01*
X289100000Y-76790476D01*
X289138095Y-76714285D01*
X289138095Y-76523809D01*
X289100000Y-76409523D01*
X288871428Y-76180952D02*
X288871428Y-75876190D01*
X289138095Y-76066666D02*
X288452380Y-76066666D01*
X288376190Y-76028571D01*
X288338095Y-75952380D01*
X288338095Y-75876190D01*
X288338095Y-75609523D02*
X288871428Y-75609523D01*
X288719047Y-75609523D02*
X288795238Y-75571428D01*
X288833333Y-75533333D01*
X288871428Y-75457142D01*
X288871428Y-75380952D01*
X288338095Y-75114285D02*
X288871428Y-75114285D01*
X289138095Y-75114285D02*
X289100000Y-75152380D01*
X289061904Y-75114285D01*
X289100000Y-75076190D01*
X289138095Y-75114285D01*
X289061904Y-75114285D01*
X288871428Y-74733333D02*
X288071428Y-74733333D01*
X288833333Y-74733333D02*
X288871428Y-74657142D01*
X288871428Y-74504761D01*
X288833333Y-74428571D01*
X288795238Y-74390476D01*
X288719047Y-74352380D01*
X288490476Y-74352380D01*
X288414285Y-74390476D01*
X288376190Y-74428571D01*
X288338095Y-74504761D01*
X288338095Y-74657142D01*
X288376190Y-74733333D01*
%TO.C,R1*%
X25266666Y-29252380D02*
X25600000Y-28776190D01*
X25838095Y-29252380D02*
X25838095Y-28252380D01*
X25457142Y-28252380D01*
X25361904Y-28300000D01*
X25314285Y-28347619D01*
X25266666Y-28442857D01*
X25266666Y-28585714D01*
X25314285Y-28680952D01*
X25361904Y-28728571D01*
X25457142Y-28776190D01*
X25838095Y-28776190D01*
X24314285Y-29252380D02*
X24885714Y-29252380D01*
X24600000Y-29252380D02*
X24600000Y-28252380D01*
X24695238Y-28395238D01*
X24790476Y-28490476D01*
X24885714Y-28538095D01*
%TO.C,R4*%
X34266666Y-62052380D02*
X34600000Y-61576190D01*
X34838095Y-62052380D02*
X34838095Y-61052380D01*
X34457142Y-61052380D01*
X34361904Y-61100000D01*
X34314285Y-61147619D01*
X34266666Y-61242857D01*
X34266666Y-61385714D01*
X34314285Y-61480952D01*
X34361904Y-61528571D01*
X34457142Y-61576190D01*
X34838095Y-61576190D01*
X33409523Y-61385714D02*
X33409523Y-62052380D01*
X33647619Y-61004761D02*
X33885714Y-61719047D01*
X33266666Y-61719047D01*
%TO.C,R5*%
X22466666Y-18552380D02*
X22800000Y-18076190D01*
X23038095Y-18552380D02*
X23038095Y-17552380D01*
X22657142Y-17552380D01*
X22561904Y-17600000D01*
X22514285Y-17647619D01*
X22466666Y-17742857D01*
X22466666Y-17885714D01*
X22514285Y-17980952D01*
X22561904Y-18028571D01*
X22657142Y-18076190D01*
X23038095Y-18076190D01*
X21561904Y-17552380D02*
X22038095Y-17552380D01*
X22085714Y-18028571D01*
X22038095Y-17980952D01*
X21942857Y-17933333D01*
X21704761Y-17933333D01*
X21609523Y-17980952D01*
X21561904Y-18028571D01*
X21514285Y-18123809D01*
X21514285Y-18361904D01*
X21561904Y-18457142D01*
X21609523Y-18504761D01*
X21704761Y-18552380D01*
X21942857Y-18552380D01*
X22038095Y-18504761D01*
X22085714Y-18457142D01*
%TO.C,R6*%
X25166666Y-23452380D02*
X25500000Y-22976190D01*
X25738095Y-23452380D02*
X25738095Y-22452380D01*
X25357142Y-22452380D01*
X25261904Y-22500000D01*
X25214285Y-22547619D01*
X25166666Y-22642857D01*
X25166666Y-22785714D01*
X25214285Y-22880952D01*
X25261904Y-22928571D01*
X25357142Y-22976190D01*
X25738095Y-22976190D01*
X24309523Y-22452380D02*
X24500000Y-22452380D01*
X24595238Y-22500000D01*
X24642857Y-22547619D01*
X24738095Y-22690476D01*
X24785714Y-22880952D01*
X24785714Y-23261904D01*
X24738095Y-23357142D01*
X24690476Y-23404761D01*
X24595238Y-23452380D01*
X24404761Y-23452380D01*
X24309523Y-23404761D01*
X24261904Y-23357142D01*
X24214285Y-23261904D01*
X24214285Y-23023809D01*
X24261904Y-22928571D01*
X24309523Y-22880952D01*
X24404761Y-22833333D01*
X24595238Y-22833333D01*
X24690476Y-22880952D01*
X24738095Y-22928571D01*
X24785714Y-23023809D01*
%TO.C,R8*%
X41866666Y-28852380D02*
X42200000Y-28376190D01*
X42438095Y-28852380D02*
X42438095Y-27852380D01*
X42057142Y-27852380D01*
X41961904Y-27900000D01*
X41914285Y-27947619D01*
X41866666Y-28042857D01*
X41866666Y-28185714D01*
X41914285Y-28280952D01*
X41961904Y-28328571D01*
X42057142Y-28376190D01*
X42438095Y-28376190D01*
X41295238Y-28280952D02*
X41390476Y-28233333D01*
X41438095Y-28185714D01*
X41485714Y-28090476D01*
X41485714Y-28042857D01*
X41438095Y-27947619D01*
X41390476Y-27900000D01*
X41295238Y-27852380D01*
X41104761Y-27852380D01*
X41009523Y-27900000D01*
X40961904Y-27947619D01*
X40914285Y-28042857D01*
X40914285Y-28090476D01*
X40961904Y-28185714D01*
X41009523Y-28233333D01*
X41104761Y-28280952D01*
X41295238Y-28280952D01*
X41390476Y-28328571D01*
X41438095Y-28376190D01*
X41485714Y-28471428D01*
X41485714Y-28661904D01*
X41438095Y-28757142D01*
X41390476Y-28804761D01*
X41295238Y-28852380D01*
X41104761Y-28852380D01*
X41009523Y-28804761D01*
X40961904Y-28757142D01*
X40914285Y-28661904D01*
X40914285Y-28471428D01*
X40961904Y-28376190D01*
X41009523Y-28328571D01*
X41104761Y-28280952D01*
%TO.C,R9*%
X106447969Y-63737732D02*
X107020389Y-63636717D01*
X106852030Y-64141793D02*
X107559137Y-63434687D01*
X107289763Y-63165312D01*
X107188748Y-63131641D01*
X107121404Y-63131641D01*
X107020389Y-63165312D01*
X106919374Y-63266328D01*
X106885702Y-63367343D01*
X106885702Y-63434687D01*
X106919374Y-63535702D01*
X107188748Y-63805076D01*
X106111251Y-63401015D02*
X105976564Y-63266328D01*
X105942893Y-63165312D01*
X105942893Y-63097969D01*
X105976564Y-62929610D01*
X106077580Y-62761251D01*
X106346954Y-62491877D01*
X106447969Y-62458206D01*
X106515312Y-62458206D01*
X106616328Y-62491877D01*
X106751015Y-62626564D01*
X106784687Y-62727580D01*
X106784687Y-62794923D01*
X106751015Y-62895938D01*
X106582656Y-63064297D01*
X106481641Y-63097969D01*
X106414297Y-63097969D01*
X106313282Y-63064297D01*
X106178595Y-62929610D01*
X106144923Y-62828595D01*
X106144923Y-62761251D01*
X106178595Y-62660236D01*
%TO.C,ResetSW1*%
X43861904Y-61752380D02*
X44195238Y-61276190D01*
X44433333Y-61752380D02*
X44433333Y-60752380D01*
X44052380Y-60752380D01*
X43957142Y-60800000D01*
X43909523Y-60847619D01*
X43861904Y-60942857D01*
X43861904Y-61085714D01*
X43909523Y-61180952D01*
X43957142Y-61228571D01*
X44052380Y-61276190D01*
X44433333Y-61276190D01*
X43052380Y-61704761D02*
X43147619Y-61752380D01*
X43338095Y-61752380D01*
X43433333Y-61704761D01*
X43480952Y-61609523D01*
X43480952Y-61228571D01*
X43433333Y-61133333D01*
X43338095Y-61085714D01*
X43147619Y-61085714D01*
X43052380Y-61133333D01*
X43004761Y-61228571D01*
X43004761Y-61323809D01*
X43480952Y-61419047D01*
X42623809Y-61704761D02*
X42528571Y-61752380D01*
X42338095Y-61752380D01*
X42242857Y-61704761D01*
X42195238Y-61609523D01*
X42195238Y-61561904D01*
X42242857Y-61466666D01*
X42338095Y-61419047D01*
X42480952Y-61419047D01*
X42576190Y-61371428D01*
X42623809Y-61276190D01*
X42623809Y-61228571D01*
X42576190Y-61133333D01*
X42480952Y-61085714D01*
X42338095Y-61085714D01*
X42242857Y-61133333D01*
X41385714Y-61704761D02*
X41480952Y-61752380D01*
X41671428Y-61752380D01*
X41766666Y-61704761D01*
X41814285Y-61609523D01*
X41814285Y-61228571D01*
X41766666Y-61133333D01*
X41671428Y-61085714D01*
X41480952Y-61085714D01*
X41385714Y-61133333D01*
X41338095Y-61228571D01*
X41338095Y-61323809D01*
X41814285Y-61419047D01*
X41052380Y-61085714D02*
X40671428Y-61085714D01*
X40909523Y-60752380D02*
X40909523Y-61609523D01*
X40861904Y-61704761D01*
X40766666Y-61752380D01*
X40671428Y-61752380D01*
X40385714Y-61704761D02*
X40242857Y-61752380D01*
X40004761Y-61752380D01*
X39909523Y-61704761D01*
X39861904Y-61657142D01*
X39814285Y-61561904D01*
X39814285Y-61466666D01*
X39861904Y-61371428D01*
X39909523Y-61323809D01*
X40004761Y-61276190D01*
X40195238Y-61228571D01*
X40290476Y-61180952D01*
X40338095Y-61133333D01*
X40385714Y-61038095D01*
X40385714Y-60942857D01*
X40338095Y-60847619D01*
X40290476Y-60800000D01*
X40195238Y-60752380D01*
X39957142Y-60752380D01*
X39814285Y-60800000D01*
X39480952Y-60752380D02*
X39242857Y-61752380D01*
X39052380Y-61038095D01*
X38861904Y-61752380D01*
X38623809Y-60752380D01*
X37719047Y-61752380D02*
X38290476Y-61752380D01*
X38004761Y-61752380D02*
X38004761Y-60752380D01*
X38100000Y-60895238D01*
X38195238Y-60990476D01*
X38290476Y-61038095D01*
%TO.C,J1*%
X33633333Y-23152380D02*
X33633333Y-23866666D01*
X33680952Y-24009523D01*
X33776190Y-24104761D01*
X33919047Y-24152380D01*
X34014285Y-24152380D01*
X32633333Y-24152380D02*
X33204761Y-24152380D01*
X32919047Y-24152380D02*
X32919047Y-23152380D01*
X33014285Y-23295238D01*
X33109523Y-23390476D01*
X33204761Y-23438095D01*
%TO.C,J2*%
X139747619Y-45276190D02*
X140747619Y-45276190D01*
X139842857Y-44228571D02*
X139795238Y-44276190D01*
X139747619Y-44419047D01*
X139747619Y-44514285D01*
X139795238Y-44657142D01*
X139890476Y-44752380D01*
X139985714Y-44800000D01*
X140176190Y-44847619D01*
X140319047Y-44847619D01*
X140509523Y-44800000D01*
X140604761Y-44752380D01*
X140700000Y-44657142D01*
X140747619Y-44514285D01*
X140747619Y-44419047D01*
X140700000Y-44276190D01*
X140652380Y-44228571D01*
X139795238Y-43847619D02*
X139747619Y-43704761D01*
X139747619Y-43466666D01*
X139795238Y-43371428D01*
X139842857Y-43323809D01*
X139938095Y-43276190D01*
X140033333Y-43276190D01*
X140128571Y-43323809D01*
X140176190Y-43371428D01*
X140223809Y-43466666D01*
X140271428Y-43657142D01*
X140319047Y-43752380D01*
X140366666Y-43800000D01*
X140461904Y-43847619D01*
X140557142Y-43847619D01*
X140652380Y-43800000D01*
X140700000Y-43752380D01*
X140747619Y-43657142D01*
X140747619Y-43419047D01*
X140700000Y-43276190D01*
X139747619Y-42847619D02*
X140747619Y-42847619D01*
X140747619Y-42466666D01*
X140700000Y-42371428D01*
X140652380Y-42323809D01*
X140557142Y-42276190D01*
X140414285Y-42276190D01*
X140319047Y-42323809D01*
X140271428Y-42371428D01*
X140223809Y-42466666D01*
X140223809Y-42847619D01*
%TO.C,JP_LED1*%
X95964285Y-19452380D02*
X95773809Y-19452380D01*
X95678571Y-19500000D01*
X95583333Y-19595238D01*
X95535714Y-19785714D01*
X95535714Y-20119047D01*
X95583333Y-20309523D01*
X95678571Y-20404761D01*
X95773809Y-20452380D01*
X95964285Y-20452380D01*
X96059523Y-20404761D01*
X96154761Y-20309523D01*
X96202380Y-20119047D01*
X96202380Y-19785714D01*
X96154761Y-19595238D01*
X96059523Y-19500000D01*
X95964285Y-19452380D01*
X95107142Y-19785714D02*
X95107142Y-20785714D01*
X95107142Y-19833333D02*
X95011904Y-19785714D01*
X94821428Y-19785714D01*
X94726190Y-19833333D01*
X94678571Y-19880952D01*
X94630952Y-19976190D01*
X94630952Y-20261904D01*
X94678571Y-20357142D01*
X94726190Y-20404761D01*
X94821428Y-20452380D01*
X95011904Y-20452380D01*
X95107142Y-20404761D01*
X94345238Y-19785714D02*
X93964285Y-19785714D01*
X94202380Y-19452380D02*
X94202380Y-20309523D01*
X94154761Y-20404761D01*
X94059523Y-20452380D01*
X93964285Y-20452380D01*
X93630952Y-20357142D02*
X93583333Y-20404761D01*
X93630952Y-20452380D01*
X93678571Y-20404761D01*
X93630952Y-20357142D01*
X93630952Y-20452380D01*
X91916666Y-20452380D02*
X92392857Y-20452380D01*
X92392857Y-19452380D01*
X91583333Y-19928571D02*
X91250000Y-19928571D01*
X91107142Y-20452380D02*
X91583333Y-20452380D01*
X91583333Y-19452380D01*
X91107142Y-19452380D01*
X90678571Y-20452380D02*
X90678571Y-19452380D01*
X90440476Y-19452380D01*
X90297619Y-19500000D01*
X90202380Y-19595238D01*
X90154761Y-19690476D01*
X90107142Y-19880952D01*
X90107142Y-20023809D01*
X90154761Y-20214285D01*
X90202380Y-20309523D01*
X90297619Y-20404761D01*
X90440476Y-20452380D01*
X90678571Y-20452380D01*
X89726190Y-20404761D02*
X89630952Y-20452380D01*
X89440476Y-20452380D01*
X89345238Y-20404761D01*
X89297619Y-20309523D01*
X89297619Y-20261904D01*
X89345238Y-20166666D01*
X89440476Y-20119047D01*
X89583333Y-20119047D01*
X89678571Y-20071428D01*
X89726190Y-19976190D01*
X89726190Y-19928571D01*
X89678571Y-19833333D01*
X89583333Y-19785714D01*
X89440476Y-19785714D01*
X89345238Y-19833333D01*
%TO.C,J4*%
X118204761Y-17885714D02*
X118252380Y-18028571D01*
X118252380Y-18266666D01*
X118204761Y-18361904D01*
X118157142Y-18409523D01*
X118061904Y-18457142D01*
X117966666Y-18457142D01*
X117871428Y-18409523D01*
X117823809Y-18361904D01*
X117776190Y-18266666D01*
X117728571Y-18076190D01*
X117680952Y-17980952D01*
X117633333Y-17933333D01*
X117538095Y-17885714D01*
X117442857Y-17885714D01*
X117347619Y-17933333D01*
X117300000Y-17980952D01*
X117252380Y-18076190D01*
X117252380Y-18314285D01*
X117300000Y-18457142D01*
X118252380Y-18885714D02*
X117252380Y-18885714D01*
X117252380Y-19123809D01*
X117300000Y-19266666D01*
X117395238Y-19361904D01*
X117490476Y-19409523D01*
X117680952Y-19457142D01*
X117823809Y-19457142D01*
X118014285Y-19409523D01*
X118109523Y-19361904D01*
X118204761Y-19266666D01*
X118252380Y-19123809D01*
X118252380Y-18885714D01*
X117966666Y-19838095D02*
X117966666Y-20314285D01*
X118252380Y-19742857D02*
X117252380Y-20076190D01*
X118252380Y-20409523D01*
X115604761Y-17909523D02*
X115652380Y-18052380D01*
X115652380Y-18290476D01*
X115604761Y-18385714D01*
X115557142Y-18433333D01*
X115461904Y-18480952D01*
X115366666Y-18480952D01*
X115271428Y-18433333D01*
X115223809Y-18385714D01*
X115176190Y-18290476D01*
X115128571Y-18100000D01*
X115080952Y-18004761D01*
X115033333Y-17957142D01*
X114938095Y-17909523D01*
X114842857Y-17909523D01*
X114747619Y-17957142D01*
X114700000Y-18004761D01*
X114652380Y-18100000D01*
X114652380Y-18338095D01*
X114700000Y-18480952D01*
X115557142Y-19480952D02*
X115604761Y-19433333D01*
X115652380Y-19290476D01*
X115652380Y-19195238D01*
X115604761Y-19052380D01*
X115509523Y-18957142D01*
X115414285Y-18909523D01*
X115223809Y-18861904D01*
X115080952Y-18861904D01*
X114890476Y-18909523D01*
X114795238Y-18957142D01*
X114700000Y-19052380D01*
X114652380Y-19195238D01*
X114652380Y-19290476D01*
X114700000Y-19433333D01*
X114747619Y-19480952D01*
X115652380Y-20385714D02*
X115652380Y-19909523D01*
X114652380Y-19909523D01*
%TO.C,U1*%
X104867216Y-53110279D02*
X104294796Y-53682699D01*
X104193781Y-53716371D01*
X104126437Y-53716371D01*
X104025422Y-53682699D01*
X103890735Y-53548012D01*
X103857063Y-53446997D01*
X103857063Y-53379653D01*
X103890735Y-53278638D01*
X104463155Y-52706218D01*
X103048941Y-52706218D02*
X103453002Y-53110279D01*
X103250972Y-52908249D02*
X103958078Y-52201142D01*
X103924407Y-52369501D01*
X103924407Y-52504188D01*
X103958078Y-52605203D01*
%TD*%
M02*
