%TF.GenerationSoftware,KiCad,Pcbnew,(5.1.9-0-10_14)*%
%TF.CreationDate,2021-01-10T14:58:04+09:00*%
%TF.ProjectId,Unison,556e6973-6f6e-42e6-9b69-6361645f7063,v01_1AU*%
%TF.SameCoordinates,Original*%
%TF.FileFunction,Copper,L2,Bot*%
%TF.FilePolarity,Positive*%
%FSLAX46Y46*%
G04 Gerber Fmt 4.6, Leading zero omitted, Abs format (unit mm)*
G04 Created by KiCad (PCBNEW (5.1.9-0-10_14)) date 2021-01-10 14:58:04*
%MOMM*%
%LPD*%
G01*
G04 APERTURE LIST*
%TA.AperFunction,EtchedComponent*%
%ADD10C,1.500000*%
%TD*%
%TA.AperFunction,ComponentPad*%
%ADD11O,2.000000X1.200000*%
%TD*%
%TA.AperFunction,ComponentPad*%
%ADD12O,1.200000X2.000000*%
%TD*%
%TA.AperFunction,SMDPad,CuDef*%
%ADD13R,1.400000X1.000000*%
%TD*%
%TA.AperFunction,SMDPad,CuDef*%
%ADD14R,1.400000X1.200000*%
%TD*%
%TA.AperFunction,SMDPad,CuDef*%
%ADD15C,0.100000*%
%TD*%
%TA.AperFunction,SMDPad,CuDef*%
%ADD16R,0.820000X1.800000*%
%TD*%
%TA.AperFunction,SMDPad,CuDef*%
%ADD17R,0.820000X1.600000*%
%TD*%
%TA.AperFunction,SMDPad,CuDef*%
%ADD18R,0.620000X0.400000*%
%TD*%
%TA.AperFunction,SMDPad,CuDef*%
%ADD19R,0.900000X1.200000*%
%TD*%
%TA.AperFunction,ComponentPad*%
%ADD20C,1.000000*%
%TD*%
%TA.AperFunction,ComponentPad*%
%ADD21C,5.000000*%
%TD*%
%TA.AperFunction,ComponentPad*%
%ADD22O,7.000240X5.000000*%
%TD*%
%TA.AperFunction,SMDPad,CuDef*%
%ADD23R,1.200000X0.900000*%
%TD*%
%TA.AperFunction,SMDPad,CuDef*%
%ADD24R,1.500000X1.000000*%
%TD*%
%TA.AperFunction,SMDPad,CuDef*%
%ADD25R,1.524000X1.524000*%
%TD*%
%TA.AperFunction,ComponentPad*%
%ADD26C,1.397000*%
%TD*%
%TA.AperFunction,SMDPad,CuDef*%
%ADD27R,1.800000X1.100000*%
%TD*%
%TA.AperFunction,ComponentPad*%
%ADD28O,1.108000X2.216000*%
%TD*%
%TA.AperFunction,ComponentPad*%
%ADD29C,0.650000*%
%TD*%
%TA.AperFunction,ComponentPad*%
%ADD30R,2.000000X2.000000*%
%TD*%
%TA.AperFunction,ComponentPad*%
%ADD31C,2.000000*%
%TD*%
%TA.AperFunction,ComponentPad*%
%ADD32R,3.200000X2.000000*%
%TD*%
%TA.AperFunction,ViaPad*%
%ADD33C,0.600000*%
%TD*%
%TA.AperFunction,Conductor*%
%ADD34C,0.381000*%
%TD*%
%TA.AperFunction,Conductor*%
%ADD35C,0.254000*%
%TD*%
%TA.AperFunction,Conductor*%
%ADD36C,0.100000*%
%TD*%
G04 APERTURE END LIST*
D10*
%TO.C,REF\u002A\u002A*%
X300150000Y-71550000D02*
X296350000Y-71550000D01*
X300200000Y-75850000D02*
X296400000Y-75850000D01*
X15250000Y-75850000D02*
X19050000Y-75850000D01*
X15200000Y-71550000D02*
X19000000Y-71550000D01*
X294250000Y-73700000D02*
G75*
G03*
X296400000Y-75850000I2150000J0D01*
G01*
X294250000Y-73700000D02*
G75*
G02*
X296400000Y-71550000I2150000J0D01*
G01*
X21150000Y-73700000D02*
G75*
G02*
X19000000Y-75850000I-2150000J0D01*
G01*
X21150000Y-73700000D02*
G75*
G03*
X19000000Y-71550000I-2150000J0D01*
G01*
%TD*%
D11*
%TO.P,SW_89,1*%
%TO.N,RE4_1*%
X254690000Y-84660000D03*
%TO.P,SW_89,2*%
%TO.N,Net-(D87-Pad2)*%
X261140000Y-82120000D03*
%TD*%
D12*
%TO.P,SW_37_2,1*%
%TO.N,Net-(D25-Pad1)*%
X92160000Y-58210000D03*
%TO.P,SW_37_2,2*%
%TO.N,Net-(D27-Pad2)*%
X89620000Y-51760000D03*
%TD*%
%TO.P,R7,2*%
%TO.N,Net-(D102-Pad3)*%
%TA.AperFunction,SMDPad,CuDef*%
G36*
G01*
X37900000Y-25649999D02*
X37900000Y-26550001D01*
G75*
G02*
X37650001Y-26800000I-249999J0D01*
G01*
X36949999Y-26800000D01*
G75*
G02*
X36700000Y-26550001I0J249999D01*
G01*
X36700000Y-25649999D01*
G75*
G02*
X36949999Y-25400000I249999J0D01*
G01*
X37650001Y-25400000D01*
G75*
G02*
X37900000Y-25649999I0J-249999D01*
G01*
G37*
%TD.AperFunction*%
%TO.P,R7,1*%
%TO.N,D-*%
%TA.AperFunction,SMDPad,CuDef*%
G36*
G01*
X39900000Y-25649999D02*
X39900000Y-26550001D01*
G75*
G02*
X39650001Y-26800000I-249999J0D01*
G01*
X38949999Y-26800000D01*
G75*
G02*
X38700000Y-26550001I0J249999D01*
G01*
X38700000Y-25649999D01*
G75*
G02*
X38949999Y-25400000I249999J0D01*
G01*
X39650001Y-25400000D01*
G75*
G02*
X39900000Y-25649999I0J-249999D01*
G01*
G37*
%TD.AperFunction*%
%TD*%
D13*
%TO.P,D102,4*%
%TO.N,VCC*%
X35200000Y-27900000D03*
%TO.P,D102,3*%
%TO.N,Net-(D102-Pad3)*%
X35200000Y-26000000D03*
%TO.P,D102,2*%
%TO.N,Net-(D102-Pad2)*%
X33000000Y-26000000D03*
D14*
%TO.P,D102,1*%
%TO.N,GND*%
X33000000Y-27720000D03*
%TD*%
D11*
%TO.P,SW_43,1*%
%TO.N,Net-(D36-Pad1)*%
X111890000Y-68260000D03*
%TO.P,SW_43,2*%
%TO.N,Net-(D33-Pad2)*%
X118340000Y-65720000D03*
%TD*%
%TO.P,C3,1*%
%TO.N,Net-(C3-Pad1)*%
%TA.AperFunction,SMDPad,CuDef*%
G36*
G01*
X111586827Y-42284924D02*
X110915076Y-41613173D01*
G75*
G02*
X110915076Y-41259619I176777J176777D01*
G01*
X111392373Y-40782322D01*
G75*
G02*
X111745927Y-40782322I176777J-176777D01*
G01*
X112417678Y-41454073D01*
G75*
G02*
X112417678Y-41807627I-176777J-176777D01*
G01*
X111940381Y-42284924D01*
G75*
G02*
X111586827Y-42284924I-176777J176777D01*
G01*
G37*
%TD.AperFunction*%
%TO.P,C3,2*%
%TO.N,GND*%
%TA.AperFunction,SMDPad,CuDef*%
G36*
G01*
X113054073Y-40817678D02*
X112382322Y-40145927D01*
G75*
G02*
X112382322Y-39792373I176777J176777D01*
G01*
X112859619Y-39315076D01*
G75*
G02*
X113213173Y-39315076I176777J-176777D01*
G01*
X113884924Y-39986827D01*
G75*
G02*
X113884924Y-40340381I-176777J-176777D01*
G01*
X113407627Y-40817678D01*
G75*
G02*
X113054073Y-40817678I-176777J176777D01*
G01*
G37*
%TD.AperFunction*%
%TD*%
%TA.AperFunction,SMDPad,CuDef*%
D15*
%TO.P,U1,1*%
%TO.N,pin2*%
G36*
X99592536Y-47902944D02*
G01*
X99946090Y-47549390D01*
X101006750Y-48610050D01*
X100653196Y-48963604D01*
X99592536Y-47902944D01*
G37*
%TD.AperFunction*%
%TA.AperFunction,SMDPad,CuDef*%
%TO.P,U1,2*%
%TO.N,+5V*%
G36*
X100158221Y-47337259D02*
G01*
X100511775Y-46983705D01*
X101572435Y-48044365D01*
X101218881Y-48397919D01*
X100158221Y-47337259D01*
G37*
%TD.AperFunction*%
%TA.AperFunction,SMDPad,CuDef*%
%TO.P,U1,3*%
%TO.N,D-*%
G36*
X100723907Y-46771573D02*
G01*
X101077461Y-46418019D01*
X102138121Y-47478679D01*
X101784567Y-47832233D01*
X100723907Y-46771573D01*
G37*
%TD.AperFunction*%
%TA.AperFunction,SMDPad,CuDef*%
%TO.P,U1,4*%
%TO.N,D+*%
G36*
X101289592Y-46205888D02*
G01*
X101643146Y-45852334D01*
X102703806Y-46912994D01*
X102350252Y-47266548D01*
X101289592Y-46205888D01*
G37*
%TD.AperFunction*%
%TA.AperFunction,SMDPad,CuDef*%
%TO.P,U1,5*%
%TO.N,GND*%
G36*
X101855278Y-45640202D02*
G01*
X102208832Y-45286648D01*
X103269492Y-46347308D01*
X102915938Y-46700862D01*
X101855278Y-45640202D01*
G37*
%TD.AperFunction*%
%TA.AperFunction,SMDPad,CuDef*%
%TO.P,U1,6*%
%TO.N,Net-(C6-Pad1)*%
G36*
X102420963Y-45074517D02*
G01*
X102774517Y-44720963D01*
X103835177Y-45781623D01*
X103481623Y-46135177D01*
X102420963Y-45074517D01*
G37*
%TD.AperFunction*%
%TA.AperFunction,SMDPad,CuDef*%
%TO.P,U1,7*%
%TO.N,+5V*%
G36*
X102986648Y-44508832D02*
G01*
X103340202Y-44155278D01*
X104400862Y-45215938D01*
X104047308Y-45569492D01*
X102986648Y-44508832D01*
G37*
%TD.AperFunction*%
%TA.AperFunction,SMDPad,CuDef*%
%TO.P,U1,8*%
%TO.N,RE1_A*%
G36*
X103552334Y-43943146D02*
G01*
X103905888Y-43589592D01*
X104966548Y-44650252D01*
X104612994Y-45003806D01*
X103552334Y-43943146D01*
G37*
%TD.AperFunction*%
%TA.AperFunction,SMDPad,CuDef*%
%TO.P,U1,9*%
%TO.N,RE1_B*%
G36*
X104118019Y-43377461D02*
G01*
X104471573Y-43023907D01*
X105532233Y-44084567D01*
X105178679Y-44438121D01*
X104118019Y-43377461D01*
G37*
%TD.AperFunction*%
%TA.AperFunction,SMDPad,CuDef*%
%TO.P,U1,10*%
%TO.N,pin6*%
G36*
X104683705Y-42811775D02*
G01*
X105037259Y-42458221D01*
X106097919Y-43518881D01*
X105744365Y-43872435D01*
X104683705Y-42811775D01*
G37*
%TD.AperFunction*%
%TA.AperFunction,SMDPad,CuDef*%
%TO.P,U1,11*%
%TO.N,pin1*%
G36*
X105249390Y-42246090D02*
G01*
X105602944Y-41892536D01*
X106663604Y-42953196D01*
X106310050Y-43306750D01*
X105249390Y-42246090D01*
G37*
%TD.AperFunction*%
%TA.AperFunction,SMDPad,CuDef*%
%TO.P,U1,12*%
%TO.N,LED*%
G36*
X107936396Y-42953196D02*
G01*
X108997056Y-41892536D01*
X109350610Y-42246090D01*
X108289950Y-43306750D01*
X107936396Y-42953196D01*
G37*
%TD.AperFunction*%
%TA.AperFunction,SMDPad,CuDef*%
%TO.P,U1,13*%
%TO.N,Net-(R4-Pad2)*%
G36*
X108502081Y-43518881D02*
G01*
X109562741Y-42458221D01*
X109916295Y-42811775D01*
X108855635Y-43872435D01*
X108502081Y-43518881D01*
G37*
%TD.AperFunction*%
%TA.AperFunction,SMDPad,CuDef*%
%TO.P,U1,14*%
%TO.N,+5V*%
G36*
X109067767Y-44084567D02*
G01*
X110128427Y-43023907D01*
X110481981Y-43377461D01*
X109421321Y-44438121D01*
X109067767Y-44084567D01*
G37*
%TD.AperFunction*%
%TA.AperFunction,SMDPad,CuDef*%
%TO.P,U1,15*%
%TO.N,GND*%
G36*
X109633452Y-44650252D02*
G01*
X110694112Y-43589592D01*
X111047666Y-43943146D01*
X109987006Y-45003806D01*
X109633452Y-44650252D01*
G37*
%TD.AperFunction*%
%TA.AperFunction,SMDPad,CuDef*%
%TO.P,U1,16*%
%TO.N,Net-(C3-Pad1)*%
G36*
X110199138Y-45215938D02*
G01*
X111259798Y-44155278D01*
X111613352Y-44508832D01*
X110552692Y-45569492D01*
X110199138Y-45215938D01*
G37*
%TD.AperFunction*%
%TA.AperFunction,SMDPad,CuDef*%
%TO.P,U1,17*%
%TO.N,Net-(C2-Pad1)*%
G36*
X110764823Y-45781623D02*
G01*
X111825483Y-44720963D01*
X112179037Y-45074517D01*
X111118377Y-46135177D01*
X110764823Y-45781623D01*
G37*
%TD.AperFunction*%
%TA.AperFunction,SMDPad,CuDef*%
%TO.P,U1,18*%
%TO.N,SCL*%
G36*
X111330508Y-46347308D02*
G01*
X112391168Y-45286648D01*
X112744722Y-45640202D01*
X111684062Y-46700862D01*
X111330508Y-46347308D01*
G37*
%TD.AperFunction*%
%TA.AperFunction,SMDPad,CuDef*%
%TO.P,U1,19*%
%TO.N,SDA*%
G36*
X111896194Y-46912994D02*
G01*
X112956854Y-45852334D01*
X113310408Y-46205888D01*
X112249748Y-47266548D01*
X111896194Y-46912994D01*
G37*
%TD.AperFunction*%
%TA.AperFunction,SMDPad,CuDef*%
%TO.P,U1,20*%
%TO.N,RE2_A*%
G36*
X112461879Y-47478679D02*
G01*
X113522539Y-46418019D01*
X113876093Y-46771573D01*
X112815433Y-47832233D01*
X112461879Y-47478679D01*
G37*
%TD.AperFunction*%
%TA.AperFunction,SMDPad,CuDef*%
%TO.P,U1,21*%
%TO.N,RE2_B*%
G36*
X113027565Y-48044365D02*
G01*
X114088225Y-46983705D01*
X114441779Y-47337259D01*
X113381119Y-48397919D01*
X113027565Y-48044365D01*
G37*
%TD.AperFunction*%
%TA.AperFunction,SMDPad,CuDef*%
%TO.P,U1,22*%
%TO.N,RE3_A*%
G36*
X113593250Y-48610050D02*
G01*
X114653910Y-47549390D01*
X115007464Y-47902944D01*
X113946804Y-48963604D01*
X113593250Y-48610050D01*
G37*
%TD.AperFunction*%
%TA.AperFunction,SMDPad,CuDef*%
%TO.P,U1,23*%
%TO.N,GND*%
G36*
X113593250Y-50589950D02*
G01*
X113946804Y-50236396D01*
X115007464Y-51297056D01*
X114653910Y-51650610D01*
X113593250Y-50589950D01*
G37*
%TD.AperFunction*%
%TA.AperFunction,SMDPad,CuDef*%
%TO.P,U1,24*%
%TO.N,+5V*%
G36*
X113027565Y-51155635D02*
G01*
X113381119Y-50802081D01*
X114441779Y-51862741D01*
X114088225Y-52216295D01*
X113027565Y-51155635D01*
G37*
%TD.AperFunction*%
%TA.AperFunction,SMDPad,CuDef*%
%TO.P,U1,25*%
%TO.N,RE3_B*%
G36*
X112461879Y-51721321D02*
G01*
X112815433Y-51367767D01*
X113876093Y-52428427D01*
X113522539Y-52781981D01*
X112461879Y-51721321D01*
G37*
%TD.AperFunction*%
%TA.AperFunction,SMDPad,CuDef*%
%TO.P,U1,26*%
%TO.N,RE4_A*%
G36*
X111896194Y-52287006D02*
G01*
X112249748Y-51933452D01*
X113310408Y-52994112D01*
X112956854Y-53347666D01*
X111896194Y-52287006D01*
G37*
%TD.AperFunction*%
%TA.AperFunction,SMDPad,CuDef*%
%TO.P,U1,27*%
%TO.N,RE4_B*%
G36*
X111330508Y-52852692D02*
G01*
X111684062Y-52499138D01*
X112744722Y-53559798D01*
X112391168Y-53913352D01*
X111330508Y-52852692D01*
G37*
%TD.AperFunction*%
%TA.AperFunction,SMDPad,CuDef*%
%TO.P,U1,28*%
%TO.N,RE5_A*%
G36*
X110764823Y-53418377D02*
G01*
X111118377Y-53064823D01*
X112179037Y-54125483D01*
X111825483Y-54479037D01*
X110764823Y-53418377D01*
G37*
%TD.AperFunction*%
%TA.AperFunction,SMDPad,CuDef*%
%TO.P,U1,29*%
%TO.N,RE5_B*%
G36*
X110199138Y-53984062D02*
G01*
X110552692Y-53630508D01*
X111613352Y-54691168D01*
X111259798Y-55044722D01*
X110199138Y-53984062D01*
G37*
%TD.AperFunction*%
%TA.AperFunction,SMDPad,CuDef*%
%TO.P,U1,30*%
%TO.N,AUDIO1*%
G36*
X109633452Y-54549748D02*
G01*
X109987006Y-54196194D01*
X111047666Y-55256854D01*
X110694112Y-55610408D01*
X109633452Y-54549748D01*
G37*
%TD.AperFunction*%
%TA.AperFunction,SMDPad,CuDef*%
%TO.P,U1,31*%
G36*
X109067767Y-55115433D02*
G01*
X109421321Y-54761879D01*
X110481981Y-55822539D01*
X110128427Y-56176093D01*
X109067767Y-55115433D01*
G37*
%TD.AperFunction*%
%TA.AperFunction,SMDPad,CuDef*%
%TO.P,U1,32*%
%TO.N,pin10*%
G36*
X108502081Y-55681119D02*
G01*
X108855635Y-55327565D01*
X109916295Y-56388225D01*
X109562741Y-56741779D01*
X108502081Y-55681119D01*
G37*
%TD.AperFunction*%
%TA.AperFunction,SMDPad,CuDef*%
%TO.P,U1,33*%
%TO.N,Net-(R9-Pad2)*%
G36*
X107936396Y-56246804D02*
G01*
X108289950Y-55893250D01*
X109350610Y-56953910D01*
X108997056Y-57307464D01*
X107936396Y-56246804D01*
G37*
%TD.AperFunction*%
%TA.AperFunction,SMDPad,CuDef*%
%TO.P,U1,34*%
%TO.N,+5V*%
G36*
X105249390Y-56953910D02*
G01*
X106310050Y-55893250D01*
X106663604Y-56246804D01*
X105602944Y-57307464D01*
X105249390Y-56953910D01*
G37*
%TD.AperFunction*%
%TA.AperFunction,SMDPad,CuDef*%
%TO.P,U1,35*%
%TO.N,GND*%
G36*
X104683705Y-56388225D02*
G01*
X105744365Y-55327565D01*
X106097919Y-55681119D01*
X105037259Y-56741779D01*
X104683705Y-56388225D01*
G37*
%TD.AperFunction*%
%TA.AperFunction,SMDPad,CuDef*%
%TO.P,U1,36*%
%TO.N,pin5*%
G36*
X104118019Y-55822539D02*
G01*
X105178679Y-54761879D01*
X105532233Y-55115433D01*
X104471573Y-56176093D01*
X104118019Y-55822539D01*
G37*
%TD.AperFunction*%
%TA.AperFunction,SMDPad,CuDef*%
%TO.P,U1,37*%
%TO.N,pin9*%
G36*
X103552334Y-55256854D02*
G01*
X104612994Y-54196194D01*
X104966548Y-54549748D01*
X103905888Y-55610408D01*
X103552334Y-55256854D01*
G37*
%TD.AperFunction*%
%TA.AperFunction,SMDPad,CuDef*%
%TO.P,U1,38*%
%TO.N,pin4*%
G36*
X102986648Y-54691168D02*
G01*
X104047308Y-53630508D01*
X104400862Y-53984062D01*
X103340202Y-55044722D01*
X102986648Y-54691168D01*
G37*
%TD.AperFunction*%
%TA.AperFunction,SMDPad,CuDef*%
%TO.P,U1,39*%
%TO.N,pin8*%
G36*
X102420963Y-54125483D02*
G01*
X103481623Y-53064823D01*
X103835177Y-53418377D01*
X102774517Y-54479037D01*
X102420963Y-54125483D01*
G37*
%TD.AperFunction*%
%TA.AperFunction,SMDPad,CuDef*%
%TO.P,U1,40*%
%TO.N,pin3*%
G36*
X101855278Y-53559798D02*
G01*
X102915938Y-52499138D01*
X103269492Y-52852692D01*
X102208832Y-53913352D01*
X101855278Y-53559798D01*
G37*
%TD.AperFunction*%
%TA.AperFunction,SMDPad,CuDef*%
%TO.P,U1,41*%
%TO.N,pin7*%
G36*
X101289592Y-52994112D02*
G01*
X102350252Y-51933452D01*
X102703806Y-52287006D01*
X101643146Y-53347666D01*
X101289592Y-52994112D01*
G37*
%TD.AperFunction*%
%TA.AperFunction,SMDPad,CuDef*%
%TO.P,U1,42*%
%TO.N,N/C*%
G36*
X100723907Y-52428427D02*
G01*
X101784567Y-51367767D01*
X102138121Y-51721321D01*
X101077461Y-52781981D01*
X100723907Y-52428427D01*
G37*
%TD.AperFunction*%
%TA.AperFunction,SMDPad,CuDef*%
%TO.P,U1,43*%
%TO.N,GND*%
G36*
X100158221Y-51862741D02*
G01*
X101218881Y-50802081D01*
X101572435Y-51155635D01*
X100511775Y-52216295D01*
X100158221Y-51862741D01*
G37*
%TD.AperFunction*%
%TA.AperFunction,SMDPad,CuDef*%
%TO.P,U1,44*%
%TO.N,+5V*%
G36*
X99592536Y-51297056D02*
G01*
X100653196Y-50236396D01*
X101006750Y-50589950D01*
X99946090Y-51650610D01*
X99592536Y-51297056D01*
G37*
%TD.AperFunction*%
%TD*%
D11*
%TO.P,SW_10_2,1*%
%TO.N,Net-(D1-Pad1)*%
X27890000Y-101060000D03*
%TO.P,SW_10_2,2*%
%TO.N,Net-(D7-Pad2)*%
X34340000Y-98520000D03*
%TD*%
%TO.P,SW_12_1,1*%
%TO.N,Net-(D1-Pad1)*%
X36290000Y-51860000D03*
%TO.P,SW_12_1,2*%
%TO.N,Net-(D10-Pad2)*%
X42740000Y-49320000D03*
%TD*%
%TA.AperFunction,SMDPad,CuDef*%
D15*
%TO.P,Y1,4*%
%TO.N,GND*%
G36*
X118817336Y-43718198D02*
G01*
X117544544Y-44990990D01*
X116059620Y-43506066D01*
X117332412Y-42233274D01*
X118817336Y-43718198D01*
G37*
%TD.AperFunction*%
%TA.AperFunction,SMDPad,CuDef*%
%TO.P,Y1,3*%
%TO.N,Net-(C3-Pad1)*%
G36*
X116766726Y-41667588D02*
G01*
X115493934Y-42940380D01*
X114009010Y-41455456D01*
X115281802Y-40182664D01*
X116766726Y-41667588D01*
G37*
%TD.AperFunction*%
%TA.AperFunction,SMDPad,CuDef*%
%TO.P,Y1,2*%
%TO.N,GND*%
G36*
X115140380Y-43293934D02*
G01*
X113867588Y-44566726D01*
X112382664Y-43081802D01*
X113655456Y-41809010D01*
X115140380Y-43293934D01*
G37*
%TD.AperFunction*%
%TA.AperFunction,SMDPad,CuDef*%
%TO.P,Y1,1*%
%TO.N,Net-(C2-Pad1)*%
G36*
X117190990Y-45344544D02*
G01*
X115918198Y-46617336D01*
X114433274Y-45132412D01*
X115706066Y-43859620D01*
X117190990Y-45344544D01*
G37*
%TD.AperFunction*%
%TD*%
D11*
%TO.P,SW_25_2,1*%
%TO.N,RE1_1*%
X69890000Y-92860000D03*
%TO.P,SW_25_2,2*%
%TO.N,Net-(D24-Pad2)*%
X76340000Y-90320000D03*
%TD*%
%TO.P,SW_19_2,1*%
%TO.N,Net-(D1-Pad1)*%
X27890000Y-84660000D03*
%TO.P,SW_19_2,2*%
%TO.N,Net-(D6-Pad2)*%
X34340000Y-82120000D03*
%TD*%
%TO.P,SW_39_2,1*%
%TO.N,Net-(D25-Pad1)*%
X95090000Y-84660000D03*
%TO.P,SW_39_2,2*%
%TO.N,Net-(D29-Pad2)*%
X101540000Y-82120000D03*
%TD*%
%TO.P,SW_17_2,2*%
%TO.N,Net-(D4-Pad2)*%
X30140000Y-49320000D03*
%TO.P,SW_17_2,1*%
%TO.N,Net-(D1-Pad1)*%
X23690000Y-51860000D03*
%TD*%
%TO.P,SW_18_2,2*%
%TO.N,Net-(D5-Pad2)*%
X30140000Y-65720000D03*
%TO.P,SW_18_2,1*%
%TO.N,Net-(D1-Pad1)*%
X23690000Y-68260000D03*
%TD*%
%TO.P,SW_38_2,2*%
%TO.N,Net-(D28-Pad2)*%
X97340000Y-65720000D03*
%TO.P,SW_38_2,1*%
%TO.N,Net-(D25-Pad1)*%
X90890000Y-68260000D03*
%TD*%
%TO.P,SW_7_2,2*%
%TO.N,Net-(D96-Pad2)*%
X290540000Y-49320000D03*
%TO.P,SW_7_2,1*%
%TO.N,Net-(D94-Pad1)*%
X284090000Y-51860000D03*
%TD*%
%TO.P,SW_8_2,2*%
%TO.N,Net-(D97-Pad2)*%
X290540000Y-65720000D03*
%TO.P,SW_8_2,1*%
%TO.N,Net-(D94-Pad1)*%
X284090000Y-68260000D03*
%TD*%
%TO.P,SW_21,1*%
%TO.N,RE1_1*%
X36290000Y-35460000D03*
%TO.P,SW_21,2*%
%TO.N,Net-(D9-Pad2)*%
X42740000Y-32920000D03*
%TD*%
D16*
%TO.P,L7,4*%
%TO.N,Net-(L6-Pad2)*%
X231250000Y-20600000D03*
%TO.P,L7,2*%
%TO.N,Net-(L7-Pad2)*%
X232750000Y-25600000D03*
%TO.P,L7,1*%
%TO.N,+5V*%
X231250000Y-25600000D03*
%TA.AperFunction,SMDPad,CuDef*%
D15*
%TO.P,L7,3*%
%TO.N,GND*%
G36*
X232960000Y-19700001D02*
G01*
X233159999Y-19900000D01*
X232960000Y-20099999D01*
X232760001Y-19900000D01*
X232960000Y-19700001D01*
G37*
%TD.AperFunction*%
D17*
X232750000Y-20700000D03*
D18*
X232650000Y-19900000D03*
%TD*%
D11*
%TO.P,SW_26,1*%
%TO.N,RE1_1*%
X53090000Y-35460000D03*
%TO.P,SW_26,2*%
%TO.N,RE1_2*%
X59540000Y-32920000D03*
%TD*%
D19*
%TO.P,D94,2*%
%TO.N,pin10*%
X281250000Y-95800000D03*
%TO.P,D94,1*%
%TO.N,Net-(D94-Pad1)*%
X284550000Y-95800000D03*
%TD*%
D20*
%TO.P,REF\u002A\u002A,1*%
%TO.N,N/C*%
X298442035Y-71500000D03*
X298450000Y-75850000D03*
X294850000Y-75200000D03*
X296400000Y-71500000D03*
X296400000Y-75850000D03*
X294250000Y-73700000D03*
X294850000Y-72200000D03*
X20550000Y-75200000D03*
D21*
X40400000Y-45100000D03*
D22*
X143400000Y-64200000D03*
X205700000Y-102400000D03*
X275250000Y-45100000D03*
D20*
X40400000Y-43200000D03*
X38500000Y-45100000D03*
X42300000Y-45100000D03*
X40400000Y-47000000D03*
X39050000Y-43750000D03*
X41650000Y-43750000D03*
X39050000Y-46400000D03*
X41650000Y-46450000D03*
X275250000Y-43250000D03*
X275250000Y-46950000D03*
X276450000Y-46950000D03*
X274050000Y-46950000D03*
X274050000Y-43250000D03*
X276450000Y-43233000D03*
X205750000Y-100550000D03*
X205700000Y-104250000D03*
X206950000Y-100550000D03*
X204550000Y-100550000D03*
X204500000Y-104250000D03*
X206900000Y-104250000D03*
X143400000Y-62350000D03*
X144600000Y-62350000D03*
X142200000Y-62350000D03*
X143400000Y-66100000D03*
X142200000Y-66100000D03*
X144600000Y-66100000D03*
X21150000Y-73700000D03*
X19000000Y-71550000D03*
X19000000Y-75900000D03*
X20550000Y-72200000D03*
X16950000Y-71550000D03*
X16957965Y-75900000D03*
%TD*%
%TO.P,C1,2*%
%TO.N,+5V*%
%TA.AperFunction,SMDPad,CuDef*%
G36*
G01*
X120025000Y-50050000D02*
X120975000Y-50050000D01*
G75*
G02*
X121225000Y-50300000I0J-250000D01*
G01*
X121225000Y-50975000D01*
G75*
G02*
X120975000Y-51225000I-250000J0D01*
G01*
X120025000Y-51225000D01*
G75*
G02*
X119775000Y-50975000I0J250000D01*
G01*
X119775000Y-50300000D01*
G75*
G02*
X120025000Y-50050000I250000J0D01*
G01*
G37*
%TD.AperFunction*%
%TO.P,C1,1*%
%TO.N,GND*%
%TA.AperFunction,SMDPad,CuDef*%
G36*
G01*
X120025000Y-47975000D02*
X120975000Y-47975000D01*
G75*
G02*
X121225000Y-48225000I0J-250000D01*
G01*
X121225000Y-48900000D01*
G75*
G02*
X120975000Y-49150000I-250000J0D01*
G01*
X120025000Y-49150000D01*
G75*
G02*
X119775000Y-48900000I0J250000D01*
G01*
X119775000Y-48225000D01*
G75*
G02*
X120025000Y-47975000I250000J0D01*
G01*
G37*
%TD.AperFunction*%
%TD*%
%TO.P,C2,2*%
%TO.N,GND*%
%TA.AperFunction,SMDPad,CuDef*%
G36*
G01*
X119154073Y-46317678D02*
X118482322Y-45645927D01*
G75*
G02*
X118482322Y-45292373I176777J176777D01*
G01*
X118959619Y-44815076D01*
G75*
G02*
X119313173Y-44815076I176777J-176777D01*
G01*
X119984924Y-45486827D01*
G75*
G02*
X119984924Y-45840381I-176777J-176777D01*
G01*
X119507627Y-46317678D01*
G75*
G02*
X119154073Y-46317678I-176777J176777D01*
G01*
G37*
%TD.AperFunction*%
%TO.P,C2,1*%
%TO.N,Net-(C2-Pad1)*%
%TA.AperFunction,SMDPad,CuDef*%
G36*
G01*
X117686827Y-47784924D02*
X117015076Y-47113173D01*
G75*
G02*
X117015076Y-46759619I176777J176777D01*
G01*
X117492373Y-46282322D01*
G75*
G02*
X117845927Y-46282322I176777J-176777D01*
G01*
X118517678Y-46954073D01*
G75*
G02*
X118517678Y-47307627I-176777J-176777D01*
G01*
X118040381Y-47784924D01*
G75*
G02*
X117686827Y-47784924I-176777J176777D01*
G01*
G37*
%TD.AperFunction*%
%TD*%
%TO.P,C4,2*%
%TO.N,+5V*%
%TA.AperFunction,SMDPad,CuDef*%
G36*
G01*
X106082322Y-60454073D02*
X106754073Y-59782322D01*
G75*
G02*
X107107627Y-59782322I176777J-176777D01*
G01*
X107584924Y-60259619D01*
G75*
G02*
X107584924Y-60613173I-176777J-176777D01*
G01*
X106913173Y-61284924D01*
G75*
G02*
X106559619Y-61284924I-176777J176777D01*
G01*
X106082322Y-60807627D01*
G75*
G02*
X106082322Y-60454073I176777J176777D01*
G01*
G37*
%TD.AperFunction*%
%TO.P,C4,1*%
%TO.N,GND*%
%TA.AperFunction,SMDPad,CuDef*%
G36*
G01*
X104615076Y-58986827D02*
X105286827Y-58315076D01*
G75*
G02*
X105640381Y-58315076I176777J-176777D01*
G01*
X106117678Y-58792373D01*
G75*
G02*
X106117678Y-59145927I-176777J-176777D01*
G01*
X105445927Y-59817678D01*
G75*
G02*
X105092373Y-59817678I-176777J176777D01*
G01*
X104615076Y-59340381D01*
G75*
G02*
X104615076Y-58986827I176777J176777D01*
G01*
G37*
%TD.AperFunction*%
%TD*%
%TO.P,C5,2*%
%TO.N,+5V*%
%TA.AperFunction,SMDPad,CuDef*%
G36*
G01*
X101954073Y-42917678D02*
X101282322Y-42245927D01*
G75*
G02*
X101282322Y-41892373I176777J176777D01*
G01*
X101759619Y-41415076D01*
G75*
G02*
X102113173Y-41415076I176777J-176777D01*
G01*
X102784924Y-42086827D01*
G75*
G02*
X102784924Y-42440381I-176777J-176777D01*
G01*
X102307627Y-42917678D01*
G75*
G02*
X101954073Y-42917678I-176777J176777D01*
G01*
G37*
%TD.AperFunction*%
%TO.P,C5,1*%
%TO.N,GND*%
%TA.AperFunction,SMDPad,CuDef*%
G36*
G01*
X100486827Y-44384924D02*
X99815076Y-43713173D01*
G75*
G02*
X99815076Y-43359619I176777J176777D01*
G01*
X100292373Y-42882322D01*
G75*
G02*
X100645927Y-42882322I176777J-176777D01*
G01*
X101317678Y-43554073D01*
G75*
G02*
X101317678Y-43907627I-176777J-176777D01*
G01*
X100840381Y-44384924D01*
G75*
G02*
X100486827Y-44384924I-176777J176777D01*
G01*
G37*
%TD.AperFunction*%
%TD*%
%TO.P,C6,2*%
%TO.N,GND*%
%TA.AperFunction,SMDPad,CuDef*%
G36*
G01*
X99145927Y-41382322D02*
X99817678Y-42054073D01*
G75*
G02*
X99817678Y-42407627I-176777J-176777D01*
G01*
X99340381Y-42884924D01*
G75*
G02*
X98986827Y-42884924I-176777J176777D01*
G01*
X98315076Y-42213173D01*
G75*
G02*
X98315076Y-41859619I176777J176777D01*
G01*
X98792373Y-41382322D01*
G75*
G02*
X99145927Y-41382322I176777J-176777D01*
G01*
G37*
%TD.AperFunction*%
%TO.P,C6,1*%
%TO.N,Net-(C6-Pad1)*%
%TA.AperFunction,SMDPad,CuDef*%
G36*
G01*
X100613173Y-39915076D02*
X101284924Y-40586827D01*
G75*
G02*
X101284924Y-40940381I-176777J-176777D01*
G01*
X100807627Y-41417678D01*
G75*
G02*
X100454073Y-41417678I-176777J176777D01*
G01*
X99782322Y-40745927D01*
G75*
G02*
X99782322Y-40392373I176777J176777D01*
G01*
X100259619Y-39915076D01*
G75*
G02*
X100613173Y-39915076I176777J-176777D01*
G01*
G37*
%TD.AperFunction*%
%TD*%
%TO.P,C7,2*%
%TO.N,+5V*%
%TA.AperFunction,SMDPad,CuDef*%
G36*
G01*
X97275000Y-50150000D02*
X96325000Y-50150000D01*
G75*
G02*
X96075000Y-49900000I0J250000D01*
G01*
X96075000Y-49225000D01*
G75*
G02*
X96325000Y-48975000I250000J0D01*
G01*
X97275000Y-48975000D01*
G75*
G02*
X97525000Y-49225000I0J-250000D01*
G01*
X97525000Y-49900000D01*
G75*
G02*
X97275000Y-50150000I-250000J0D01*
G01*
G37*
%TD.AperFunction*%
%TO.P,C7,1*%
%TO.N,GND*%
%TA.AperFunction,SMDPad,CuDef*%
G36*
G01*
X97275000Y-52225000D02*
X96325000Y-52225000D01*
G75*
G02*
X96075000Y-51975000I0J250000D01*
G01*
X96075000Y-51300000D01*
G75*
G02*
X96325000Y-51050000I250000J0D01*
G01*
X97275000Y-51050000D01*
G75*
G02*
X97525000Y-51300000I0J-250000D01*
G01*
X97525000Y-51975000D01*
G75*
G02*
X97275000Y-52225000I-250000J0D01*
G01*
G37*
%TD.AperFunction*%
%TD*%
D19*
%TO.P,D1,2*%
%TO.N,pin1*%
X23350000Y-30200000D03*
%TO.P,D1,1*%
%TO.N,Net-(D1-Pad1)*%
X20050000Y-30200000D03*
%TD*%
D23*
%TO.P,D2,2*%
%TO.N,GND*%
X21000000Y-19350000D03*
%TO.P,D2,1*%
%TO.N,Net-(D2-Pad1)*%
X21000000Y-22650000D03*
%TD*%
D19*
%TO.P,D3,2*%
%TO.N,Net-(D3-Pad2)*%
X23350000Y-33000000D03*
%TO.P,D3,1*%
%TO.N,pin6*%
X20050000Y-33000000D03*
%TD*%
%TO.P,D4,2*%
%TO.N,Net-(D4-Pad2)*%
X23150000Y-49400000D03*
%TO.P,D4,1*%
%TO.N,pin7*%
X19850000Y-49400000D03*
%TD*%
%TO.P,D5,2*%
%TO.N,Net-(D5-Pad2)*%
X23150000Y-65800000D03*
%TO.P,D5,1*%
%TO.N,pin8*%
X19850000Y-65800000D03*
%TD*%
%TO.P,D6,2*%
%TO.N,Net-(D6-Pad2)*%
X22950000Y-82200000D03*
%TO.P,D6,1*%
%TO.N,pin9*%
X19650000Y-82200000D03*
%TD*%
%TO.P,D7,2*%
%TO.N,Net-(D7-Pad2)*%
X23150000Y-98600000D03*
%TO.P,D7,1*%
%TO.N,pin10*%
X19850000Y-98600000D03*
%TD*%
%TO.P,D9,2*%
%TO.N,Net-(D9-Pad2)*%
X39950000Y-33000000D03*
%TO.P,D9,1*%
%TO.N,pin1*%
X36650000Y-33000000D03*
%TD*%
%TO.P,D10,2*%
%TO.N,Net-(D10-Pad2)*%
X38950000Y-49400000D03*
%TO.P,D10,1*%
%TO.N,pin2*%
X35650000Y-49400000D03*
%TD*%
%TO.P,D11,2*%
%TO.N,Net-(D11-Pad2)*%
X35750000Y-65800000D03*
%TO.P,D11,1*%
%TO.N,pin3*%
X32450000Y-65800000D03*
%TD*%
%TO.P,D12,2*%
%TO.N,Net-(D12-Pad2)*%
X40150000Y-82200000D03*
%TO.P,D12,1*%
%TO.N,pin4*%
X36850000Y-82200000D03*
%TD*%
%TO.P,D13,2*%
%TO.N,Net-(D13-Pad2)*%
X40150000Y-98600000D03*
%TO.P,D13,1*%
%TO.N,pin5*%
X36850000Y-98600000D03*
%TD*%
%TO.P,D14,2*%
%TO.N,pin2*%
X65350000Y-46600000D03*
%TO.P,D14,1*%
%TO.N,RE1_1*%
X62050000Y-46600000D03*
%TD*%
%TO.P,D15,2*%
%TO.N,RE1_2*%
X55550000Y-33600000D03*
%TO.P,D15,1*%
%TO.N,pin6*%
X52250000Y-33600000D03*
%TD*%
%TO.P,D16,2*%
%TO.N,Net-(D16-Pad2)*%
X65350000Y-49400000D03*
%TO.P,D16,1*%
%TO.N,pin7*%
X62050000Y-49400000D03*
%TD*%
%TO.P,D17,2*%
%TO.N,Net-(D17-Pad2)*%
X56750000Y-65800000D03*
%TO.P,D17,1*%
%TO.N,pin8*%
X53450000Y-65800000D03*
%TD*%
%TO.P,D18,2*%
%TO.N,Net-(D18-Pad2)*%
X56750000Y-82200000D03*
%TO.P,D18,1*%
%TO.N,pin9*%
X53450000Y-82200000D03*
%TD*%
%TO.P,D19,2*%
%TO.N,Net-(D19-Pad2)*%
X56750000Y-98600000D03*
%TO.P,D19,1*%
%TO.N,pin10*%
X53450000Y-98600000D03*
%TD*%
%TO.P,D20,2*%
%TO.N,Net-(D20-Pad2)*%
X73550000Y-33000000D03*
%TO.P,D20,1*%
%TO.N,pin1*%
X70250000Y-33000000D03*
%TD*%
%TO.P,D21,2*%
%TO.N,Net-(D21-Pad2)*%
X73750000Y-49400000D03*
%TO.P,D21,1*%
%TO.N,pin2*%
X70450000Y-49400000D03*
%TD*%
%TO.P,D22,2*%
%TO.N,Net-(D22-Pad2)*%
X73750000Y-65800000D03*
%TO.P,D22,1*%
%TO.N,pin3*%
X70450000Y-65800000D03*
%TD*%
%TO.P,D23,2*%
%TO.N,Net-(D23-Pad2)*%
X73350000Y-82200000D03*
%TO.P,D23,1*%
%TO.N,pin4*%
X70050000Y-82200000D03*
%TD*%
%TO.P,D24,2*%
%TO.N,Net-(D24-Pad2)*%
X72550000Y-98900000D03*
%TO.P,D24,1*%
%TO.N,pin5*%
X69250000Y-98900000D03*
%TD*%
%TO.P,D25,2*%
%TO.N,pin3*%
X73750000Y-63000000D03*
%TO.P,D25,1*%
%TO.N,Net-(D25-Pad1)*%
X70450000Y-63000000D03*
%TD*%
%TO.P,D26,2*%
%TO.N,Net-(D26-Pad2)*%
X90550000Y-26400000D03*
%TO.P,D26,1*%
%TO.N,pin6*%
X87250000Y-26400000D03*
%TD*%
%TO.P,D27,2*%
%TO.N,Net-(D27-Pad2)*%
X91150000Y-49400000D03*
%TO.P,D27,1*%
%TO.N,pin7*%
X87850000Y-49400000D03*
%TD*%
%TO.P,D28,2*%
%TO.N,Net-(D28-Pad2)*%
X94350000Y-65800000D03*
%TO.P,D28,1*%
%TO.N,pin8*%
X91050000Y-65800000D03*
%TD*%
%TO.P,D29,2*%
%TO.N,Net-(D29-Pad2)*%
X90150000Y-82200000D03*
%TO.P,D29,1*%
%TO.N,pin9*%
X86850000Y-82200000D03*
%TD*%
%TO.P,D30,2*%
%TO.N,Net-(D30-Pad2)*%
X86450000Y-98600000D03*
%TO.P,D30,1*%
%TO.N,pin10*%
X83150000Y-98600000D03*
%TD*%
%TO.P,D31,2*%
%TO.N,Net-(D31-Pad2)*%
X107350000Y-26600000D03*
%TO.P,D31,1*%
%TO.N,pin1*%
X104050000Y-26600000D03*
%TD*%
%TO.P,D32,2*%
%TO.N,Net-(D32-Pad2)*%
X127150000Y-49400000D03*
%TO.P,D32,1*%
%TO.N,pin2*%
X123850000Y-49400000D03*
%TD*%
%TO.P,D33,2*%
%TO.N,Net-(D33-Pad2)*%
X115350000Y-65800000D03*
%TO.P,D33,1*%
%TO.N,pin3*%
X112050000Y-65800000D03*
%TD*%
%TO.P,D34,2*%
%TO.N,Net-(D34-Pad2)*%
X107350000Y-82200000D03*
%TO.P,D34,1*%
%TO.N,pin4*%
X104050000Y-82200000D03*
%TD*%
%TO.P,D35,2*%
%TO.N,Net-(D35-Pad2)*%
X106950000Y-98600000D03*
%TO.P,D35,1*%
%TO.N,pin5*%
X103650000Y-98600000D03*
%TD*%
%TO.P,D36,2*%
%TO.N,pin4*%
X123350000Y-79400000D03*
%TO.P,D36,1*%
%TO.N,Net-(D36-Pad1)*%
X120050000Y-79400000D03*
%TD*%
%TO.P,D37,2*%
%TO.N,Net-(D37-Pad2)*%
X123950000Y-26600000D03*
%TO.P,D37,1*%
%TO.N,pin6*%
X120650000Y-26600000D03*
%TD*%
%TO.P,D38,2*%
%TO.N,Net-(D38-Pad2)*%
X132550000Y-49400000D03*
%TO.P,D38,1*%
%TO.N,pin7*%
X129250000Y-49400000D03*
%TD*%
%TO.P,D39,2*%
%TO.N,Net-(D39-Pad2)*%
X132150000Y-65800000D03*
%TO.P,D39,1*%
%TO.N,pin8*%
X128850000Y-65800000D03*
%TD*%
%TO.P,D40,2*%
%TO.N,Net-(D40-Pad2)*%
X123350000Y-82200000D03*
%TO.P,D40,1*%
%TO.N,pin9*%
X120050000Y-82200000D03*
%TD*%
%TO.P,D41,2*%
%TO.N,Net-(D41-Pad2)*%
X124150000Y-98600000D03*
%TO.P,D41,1*%
%TO.N,pin10*%
X120850000Y-98600000D03*
%TD*%
%TO.P,D42,2*%
%TO.N,Net-(D42-Pad2)*%
X140750000Y-26600000D03*
%TO.P,D42,1*%
%TO.N,pin1*%
X137450000Y-26600000D03*
%TD*%
%TO.P,D43,2*%
%TO.N,Net-(D43-Pad2)*%
X149150000Y-49400000D03*
%TO.P,D43,1*%
%TO.N,pin2*%
X145850000Y-49400000D03*
%TD*%
%TO.P,D44,2*%
%TO.N,Net-(D44-Pad2)*%
X157950000Y-65800000D03*
%TO.P,D44,1*%
%TO.N,pin3*%
X154650000Y-65800000D03*
%TD*%
%TO.P,D45,2*%
%TO.N,Net-(D45-Pad2)*%
X140550000Y-82200000D03*
%TO.P,D45,1*%
%TO.N,pin4*%
X137250000Y-82200000D03*
%TD*%
%TO.P,D46,2*%
%TO.N,Net-(D46-Pad2)*%
X136350000Y-98600000D03*
%TO.P,D46,1*%
%TO.N,pin5*%
X133050000Y-98600000D03*
%TD*%
%TO.P,D47,2*%
%TO.N,pin5*%
X157750000Y-96000000D03*
%TO.P,D47,1*%
%TO.N,Net-(D47-Pad1)*%
X154450000Y-96000000D03*
%TD*%
%TO.P,D48,2*%
%TO.N,Net-(D48-Pad2)*%
X157550000Y-33000000D03*
%TO.P,D48,1*%
%TO.N,pin6*%
X154250000Y-33000000D03*
%TD*%
%TO.P,D49,2*%
%TO.N,Net-(D49-Pad2)*%
X165950000Y-49400000D03*
%TO.P,D49,1*%
%TO.N,pin7*%
X162650000Y-49400000D03*
%TD*%
%TO.P,D50,2*%
%TO.N,Net-(D50-Pad2)*%
X165750000Y-65800000D03*
%TO.P,D50,1*%
%TO.N,pin8*%
X162450000Y-65800000D03*
%TD*%
%TO.P,D51,2*%
%TO.N,Net-(D51-Pad2)*%
X157350000Y-82200000D03*
%TO.P,D51,1*%
%TO.N,pin9*%
X154050000Y-82200000D03*
%TD*%
%TO.P,D52,2*%
%TO.N,Net-(D52-Pad2)*%
X157750000Y-98600000D03*
%TO.P,D52,1*%
%TO.N,pin10*%
X154450000Y-98600000D03*
%TD*%
%TO.P,D54,2*%
%TO.N,RE2_2*%
X173250000Y-33400000D03*
%TO.P,D54,1*%
%TO.N,pin1*%
X169950000Y-33400000D03*
%TD*%
%TO.P,D55,2*%
%TO.N,Net-(D55-Pad2)*%
X182750000Y-49400000D03*
%TO.P,D55,1*%
%TO.N,pin2*%
X179450000Y-49400000D03*
%TD*%
%TO.P,D56,2*%
%TO.N,Net-(D56-Pad2)*%
X182750000Y-65800000D03*
%TO.P,D56,1*%
%TO.N,pin3*%
X179450000Y-65800000D03*
%TD*%
%TO.P,D57,2*%
%TO.N,Net-(D57-Pad2)*%
X174350000Y-82200000D03*
%TO.P,D57,1*%
%TO.N,pin4*%
X171050000Y-82200000D03*
%TD*%
%TO.P,D58,2*%
%TO.N,Net-(D58-Pad2)*%
X169950000Y-98600000D03*
%TO.P,D58,1*%
%TO.N,pin5*%
X166650000Y-98600000D03*
%TD*%
%TO.P,D59,2*%
%TO.N,pin6*%
X191150000Y-30200000D03*
%TO.P,D59,1*%
%TO.N,RE2_1*%
X187850000Y-30200000D03*
%TD*%
%TO.P,D60,2*%
%TO.N,Net-(D60-Pad2)*%
X191150000Y-33000000D03*
%TO.P,D60,1*%
%TO.N,pin6*%
X187850000Y-33000000D03*
%TD*%
%TO.P,D61,2*%
%TO.N,Net-(D61-Pad2)*%
X199550000Y-49400000D03*
%TO.P,D61,1*%
%TO.N,pin7*%
X196250000Y-49400000D03*
%TD*%
%TO.P,D62,2*%
%TO.N,Net-(D62-Pad2)*%
X199550000Y-65800000D03*
%TO.P,D62,1*%
%TO.N,pin8*%
X196250000Y-65800000D03*
%TD*%
%TO.P,D63,2*%
%TO.N,Net-(D63-Pad2)*%
X191150000Y-82200000D03*
%TO.P,D63,1*%
%TO.N,pin9*%
X187850000Y-82200000D03*
%TD*%
%TO.P,D64,2*%
%TO.N,Net-(D64-Pad2)*%
X189550000Y-98600000D03*
%TO.P,D64,1*%
%TO.N,pin10*%
X186250000Y-98600000D03*
%TD*%
%TO.P,D66,2*%
%TO.N,RE3_2*%
X206850000Y-33400000D03*
%TO.P,D66,1*%
%TO.N,pin1*%
X203550000Y-33400000D03*
%TD*%
%TO.P,D67,2*%
%TO.N,Net-(D67-Pad2)*%
X216350000Y-49400000D03*
%TO.P,D67,1*%
%TO.N,pin2*%
X213050000Y-49400000D03*
%TD*%
%TO.P,D68,2*%
%TO.N,Net-(D68-Pad2)*%
X216350000Y-65800000D03*
%TO.P,D68,1*%
%TO.N,pin3*%
X213050000Y-65800000D03*
%TD*%
%TO.P,D69,2*%
%TO.N,Net-(D69-Pad2)*%
X207950000Y-82200000D03*
%TO.P,D69,1*%
%TO.N,pin4*%
X204650000Y-82200000D03*
%TD*%
%TO.P,D70,2*%
%TO.N,Net-(D70-Pad2)*%
X201150000Y-98600000D03*
%TO.P,D70,1*%
%TO.N,pin5*%
X197850000Y-98600000D03*
%TD*%
%TO.P,D71,2*%
%TO.N,pin7*%
X232950000Y-46600000D03*
%TO.P,D71,1*%
%TO.N,RE3_1*%
X229650000Y-46600000D03*
%TD*%
%TO.P,D72,2*%
%TO.N,Net-(D72-Pad2)*%
X224750000Y-33000000D03*
%TO.P,D72,1*%
%TO.N,pin6*%
X221450000Y-33000000D03*
%TD*%
%TO.P,D73,2*%
%TO.N,Net-(D73-Pad2)*%
X232950000Y-49400000D03*
%TO.P,D73,1*%
%TO.N,pin7*%
X229650000Y-49400000D03*
%TD*%
%TO.P,D74,2*%
%TO.N,Net-(D74-Pad2)*%
X233150000Y-65800000D03*
%TO.P,D74,1*%
%TO.N,pin8*%
X229850000Y-65800000D03*
%TD*%
%TO.P,D75,2*%
%TO.N,Net-(D75-Pad2)*%
X224750000Y-82200000D03*
%TO.P,D75,1*%
%TO.N,pin9*%
X221450000Y-82200000D03*
%TD*%
%TO.P,D76,2*%
%TO.N,Net-(D76-Pad2)*%
X224550000Y-98600000D03*
%TO.P,D76,1*%
%TO.N,pin10*%
X221250000Y-98600000D03*
%TD*%
%TO.P,D78,2*%
%TO.N,RE4_2*%
X240550000Y-33400000D03*
%TO.P,D78,1*%
%TO.N,pin1*%
X237250000Y-33400000D03*
%TD*%
%TO.P,D79,2*%
%TO.N,Net-(D79-Pad2)*%
X250150000Y-49400000D03*
%TO.P,D79,1*%
%TO.N,pin2*%
X246850000Y-49400000D03*
%TD*%
%TO.P,D80,2*%
%TO.N,Net-(D80-Pad2)*%
X250150000Y-65800000D03*
%TO.P,D80,1*%
%TO.N,pin3*%
X246850000Y-65800000D03*
%TD*%
%TO.P,D81,2*%
%TO.N,Net-(D81-Pad2)*%
X241750000Y-82200000D03*
%TO.P,D81,1*%
%TO.N,pin4*%
X238450000Y-82200000D03*
%TD*%
%TO.P,D82,2*%
%TO.N,Net-(D82-Pad2)*%
X237150000Y-98600000D03*
%TO.P,D82,1*%
%TO.N,pin5*%
X233850000Y-98600000D03*
%TD*%
%TO.P,D83,2*%
%TO.N,pin8*%
X266950000Y-63000000D03*
%TO.P,D83,1*%
%TO.N,RE4_1*%
X263650000Y-63000000D03*
%TD*%
%TO.P,D84,2*%
%TO.N,Net-(D84-Pad2)*%
X258350000Y-33000000D03*
%TO.P,D84,1*%
%TO.N,pin6*%
X255050000Y-33000000D03*
%TD*%
%TO.P,D85,2*%
%TO.N,Net-(D85-Pad2)*%
X266950000Y-49400000D03*
%TO.P,D85,1*%
%TO.N,pin7*%
X263650000Y-49400000D03*
%TD*%
%TO.P,D86,2*%
%TO.N,Net-(D86-Pad2)*%
X266950000Y-65800000D03*
%TO.P,D86,1*%
%TO.N,pin8*%
X263650000Y-65800000D03*
%TD*%
%TO.P,D87,2*%
%TO.N,Net-(D87-Pad2)*%
X258350000Y-82200000D03*
%TO.P,D87,1*%
%TO.N,pin9*%
X255050000Y-82200000D03*
%TD*%
%TO.P,D88,2*%
%TO.N,Net-(D88-Pad2)*%
X258650000Y-98600000D03*
%TO.P,D88,1*%
%TO.N,pin10*%
X255350000Y-98600000D03*
%TD*%
%TO.P,D90,2*%
%TO.N,RE5_2*%
X274050000Y-33400000D03*
%TO.P,D90,1*%
%TO.N,pin1*%
X270750000Y-33400000D03*
%TD*%
%TO.P,D91,2*%
%TO.N,Net-(D91-Pad2)*%
X275150000Y-82200000D03*
%TO.P,D91,1*%
%TO.N,pin4*%
X271850000Y-82200000D03*
%TD*%
%TO.P,D92,2*%
%TO.N,Net-(D92-Pad2)*%
X274950000Y-98600000D03*
%TO.P,D92,1*%
%TO.N,pin5*%
X271650000Y-98600000D03*
%TD*%
%TO.P,D93,2*%
%TO.N,pin9*%
X285150000Y-85000000D03*
%TO.P,D93,1*%
%TO.N,RE5_1*%
X281850000Y-85000000D03*
%TD*%
%TO.P,D95,2*%
%TO.N,Net-(D95-Pad2)*%
X287750000Y-33000000D03*
%TO.P,D95,1*%
%TO.N,pin6*%
X284450000Y-33000000D03*
%TD*%
%TO.P,D96,2*%
%TO.N,Net-(D96-Pad2)*%
X287750000Y-49400000D03*
%TO.P,D96,1*%
%TO.N,pin7*%
X284450000Y-49400000D03*
%TD*%
%TO.P,D97,2*%
%TO.N,Net-(D97-Pad2)*%
X287550000Y-65800000D03*
%TO.P,D97,1*%
%TO.N,pin8*%
X284250000Y-65800000D03*
%TD*%
%TO.P,D98,2*%
%TO.N,Net-(D98-Pad2)*%
X285150000Y-82200000D03*
%TO.P,D98,1*%
%TO.N,pin9*%
X281850000Y-82200000D03*
%TD*%
%TO.P,D99,2*%
%TO.N,Net-(D99-Pad2)*%
X284550000Y-98600000D03*
%TO.P,D99,1*%
%TO.N,pin10*%
X281250000Y-98600000D03*
%TD*%
%TO.P,F1,2*%
%TO.N,VCC*%
%TA.AperFunction,SMDPad,CuDef*%
G36*
G01*
X42675000Y-20075000D02*
X41425000Y-20075000D01*
G75*
G02*
X41175000Y-19825000I0J250000D01*
G01*
X41175000Y-18900000D01*
G75*
G02*
X41425000Y-18650000I250000J0D01*
G01*
X42675000Y-18650000D01*
G75*
G02*
X42925000Y-18900000I0J-250000D01*
G01*
X42925000Y-19825000D01*
G75*
G02*
X42675000Y-20075000I-250000J0D01*
G01*
G37*
%TD.AperFunction*%
%TO.P,F1,1*%
%TO.N,+5V*%
%TA.AperFunction,SMDPad,CuDef*%
G36*
G01*
X42675000Y-23050000D02*
X41425000Y-23050000D01*
G75*
G02*
X41175000Y-22800000I0J250000D01*
G01*
X41175000Y-21875000D01*
G75*
G02*
X41425000Y-21625000I250000J0D01*
G01*
X42675000Y-21625000D01*
G75*
G02*
X42925000Y-21875000I0J-250000D01*
G01*
X42925000Y-22800000D01*
G75*
G02*
X42675000Y-23050000I-250000J0D01*
G01*
G37*
%TD.AperFunction*%
%TD*%
D24*
%TO.P,JP_LED2,1*%
%TO.N,Net-(JP_LED2-Pad1)*%
X83200000Y-21800000D03*
%TO.P,JP_LED2,2*%
%TO.N,Net-(JP_LED2-Pad2)*%
X83200000Y-23100000D03*
%TO.P,JP_LED2,3*%
%TO.N,Net-(JP_LED2-Pad3)*%
X83200000Y-24400000D03*
%TD*%
D16*
%TO.P,L1,4*%
%TO.N,LED*%
X67700000Y-20600000D03*
%TO.P,L1,2*%
%TO.N,Net-(L1-Pad2)*%
X69200000Y-25600000D03*
%TO.P,L1,1*%
%TO.N,+5V*%
X67700000Y-25600000D03*
%TA.AperFunction,SMDPad,CuDef*%
D15*
%TO.P,L1,3*%
%TO.N,GND*%
G36*
X69410000Y-19700001D02*
G01*
X69609999Y-19900000D01*
X69410000Y-20099999D01*
X69210001Y-19900000D01*
X69410000Y-19700001D01*
G37*
%TD.AperFunction*%
D17*
X69200000Y-20700000D03*
D18*
X69100000Y-19900000D03*
%TD*%
D16*
%TO.P,L2,4*%
%TO.N,Net-(L1-Pad2)*%
X72950000Y-20600000D03*
%TO.P,L2,2*%
%TO.N,Net-(L2-Pad2)*%
X74450000Y-25600000D03*
%TO.P,L2,1*%
%TO.N,+5V*%
X72950000Y-25600000D03*
%TA.AperFunction,SMDPad,CuDef*%
D15*
%TO.P,L2,3*%
%TO.N,GND*%
G36*
X74660000Y-19700001D02*
G01*
X74859999Y-19900000D01*
X74660000Y-20099999D01*
X74460001Y-19900000D01*
X74660000Y-19700001D01*
G37*
%TD.AperFunction*%
D17*
X74450000Y-20700000D03*
D18*
X74350000Y-19900000D03*
%TD*%
D16*
%TO.P,L3,4*%
%TO.N,Net-(L2-Pad2)*%
X78200000Y-20600000D03*
%TO.P,L3,2*%
%TO.N,Net-(JP_LED2-Pad2)*%
X79700000Y-25600000D03*
%TO.P,L3,1*%
%TO.N,+5V*%
X78200000Y-25600000D03*
%TA.AperFunction,SMDPad,CuDef*%
D15*
%TO.P,L3,3*%
%TO.N,GND*%
G36*
X79910000Y-19700001D02*
G01*
X80109999Y-19900000D01*
X79910000Y-20099999D01*
X79710001Y-19900000D01*
X79910000Y-19700001D01*
G37*
%TD.AperFunction*%
D17*
X79700000Y-20700000D03*
D18*
X79600000Y-19900000D03*
%TD*%
D16*
%TO.P,L4,4*%
%TO.N,Net-(JP_LED2-Pad1)*%
X46450000Y-20600000D03*
%TO.P,L4,2*%
%TO.N,Net-(L4-Pad2)*%
X47950000Y-25600000D03*
%TO.P,L4,1*%
%TO.N,+5V*%
X46450000Y-25600000D03*
%TA.AperFunction,SMDPad,CuDef*%
D15*
%TO.P,L4,3*%
%TO.N,GND*%
G36*
X48160000Y-19700001D02*
G01*
X48359999Y-19900000D01*
X48160000Y-20099999D01*
X47960001Y-19900000D01*
X48160000Y-19700001D01*
G37*
%TD.AperFunction*%
D17*
X47950000Y-20700000D03*
D18*
X47850000Y-19900000D03*
%TD*%
D16*
%TO.P,L5,4*%
%TO.N,Net-(L4-Pad2)*%
X164050000Y-20600000D03*
%TO.P,L5,2*%
%TO.N,Net-(L5-Pad2)*%
X165550000Y-25600000D03*
%TO.P,L5,1*%
%TO.N,+5V*%
X164050000Y-25600000D03*
%TA.AperFunction,SMDPad,CuDef*%
D15*
%TO.P,L5,3*%
%TO.N,GND*%
G36*
X165760000Y-19700001D02*
G01*
X165959999Y-19900000D01*
X165760000Y-20099999D01*
X165560001Y-19900000D01*
X165760000Y-19700001D01*
G37*
%TD.AperFunction*%
D17*
X165550000Y-20700000D03*
D18*
X165450000Y-19900000D03*
%TD*%
D16*
%TO.P,L6,4*%
%TO.N,Net-(L5-Pad2)*%
X197650000Y-20600000D03*
%TO.P,L6,2*%
%TO.N,Net-(L6-Pad2)*%
X199150000Y-25600000D03*
%TO.P,L6,1*%
%TO.N,+5V*%
X197650000Y-25600000D03*
%TA.AperFunction,SMDPad,CuDef*%
D15*
%TO.P,L6,3*%
%TO.N,GND*%
G36*
X199360000Y-19700001D02*
G01*
X199559999Y-19900000D01*
X199360000Y-20099999D01*
X199160001Y-19900000D01*
X199360000Y-19700001D01*
G37*
%TD.AperFunction*%
D17*
X199150000Y-20700000D03*
D18*
X199050000Y-19900000D03*
%TD*%
D25*
%TO.P,L15,3*%
%TO.N,GND*%
X291450000Y-74470000D03*
%TO.P,L15,2*%
%TO.N,Net-(JP_LED2-Pad3)*%
X291450000Y-77010000D03*
%TO.P,L15,1*%
%TO.N,+5V*%
X291450000Y-79550000D03*
%TD*%
D26*
%TO.P,OL1,4*%
%TO.N,GND*%
X111890000Y-19800000D03*
%TO.P,OL1,3*%
%TO.N,+5V*%
X114430000Y-19800000D03*
%TO.P,OL1,2*%
%TO.N,SCL*%
X116970000Y-19800000D03*
%TO.P,OL1,1*%
%TO.N,SDA*%
X119510000Y-19800000D03*
%TD*%
%TO.P,R1,2*%
%TO.N,Net-(D2-Pad1)*%
%TA.AperFunction,SMDPad,CuDef*%
G36*
G01*
X22700000Y-24949999D02*
X22700000Y-25850001D01*
G75*
G02*
X22450001Y-26100000I-249999J0D01*
G01*
X21749999Y-26100000D01*
G75*
G02*
X21500000Y-25850001I0J249999D01*
G01*
X21500000Y-24949999D01*
G75*
G02*
X21749999Y-24700000I249999J0D01*
G01*
X22450001Y-24700000D01*
G75*
G02*
X22700000Y-24949999I0J-249999D01*
G01*
G37*
%TD.AperFunction*%
%TO.P,R1,1*%
%TO.N,AUDIO1*%
%TA.AperFunction,SMDPad,CuDef*%
G36*
G01*
X24700000Y-24949999D02*
X24700000Y-25850001D01*
G75*
G02*
X24450001Y-26100000I-249999J0D01*
G01*
X23749999Y-26100000D01*
G75*
G02*
X23500000Y-25850001I0J249999D01*
G01*
X23500000Y-24949999D01*
G75*
G02*
X23749999Y-24700000I249999J0D01*
G01*
X24450001Y-24700000D01*
G75*
G02*
X24700000Y-24949999I0J-249999D01*
G01*
G37*
%TD.AperFunction*%
%TD*%
%TO.P,R4,2*%
%TO.N,Net-(R4-Pad2)*%
%TA.AperFunction,SMDPad,CuDef*%
G36*
G01*
X34500000Y-63750001D02*
X34500000Y-62849999D01*
G75*
G02*
X34749999Y-62600000I249999J0D01*
G01*
X35450001Y-62600000D01*
G75*
G02*
X35700000Y-62849999I0J-249999D01*
G01*
X35700000Y-63750001D01*
G75*
G02*
X35450001Y-64000000I-249999J0D01*
G01*
X34749999Y-64000000D01*
G75*
G02*
X34500000Y-63750001I0J249999D01*
G01*
G37*
%TD.AperFunction*%
%TO.P,R4,1*%
%TO.N,+5V*%
%TA.AperFunction,SMDPad,CuDef*%
G36*
G01*
X32500000Y-63750001D02*
X32500000Y-62849999D01*
G75*
G02*
X32749999Y-62600000I249999J0D01*
G01*
X33450001Y-62600000D01*
G75*
G02*
X33700000Y-62849999I0J-249999D01*
G01*
X33700000Y-63750001D01*
G75*
G02*
X33450001Y-64000000I-249999J0D01*
G01*
X32749999Y-64000000D01*
G75*
G02*
X32500000Y-63750001I0J249999D01*
G01*
G37*
%TD.AperFunction*%
%TD*%
%TO.P,R5,2*%
%TO.N,Net-(J1-PadB5)*%
%TA.AperFunction,SMDPad,CuDef*%
G36*
G01*
X25400000Y-19350001D02*
X25400000Y-18449999D01*
G75*
G02*
X25649999Y-18200000I249999J0D01*
G01*
X26350001Y-18200000D01*
G75*
G02*
X26600000Y-18449999I0J-249999D01*
G01*
X26600000Y-19350001D01*
G75*
G02*
X26350001Y-19600000I-249999J0D01*
G01*
X25649999Y-19600000D01*
G75*
G02*
X25400000Y-19350001I0J249999D01*
G01*
G37*
%TD.AperFunction*%
%TO.P,R5,1*%
%TO.N,GND*%
%TA.AperFunction,SMDPad,CuDef*%
G36*
G01*
X23400000Y-19350001D02*
X23400000Y-18449999D01*
G75*
G02*
X23649999Y-18200000I249999J0D01*
G01*
X24350001Y-18200000D01*
G75*
G02*
X24600000Y-18449999I0J-249999D01*
G01*
X24600000Y-19350001D01*
G75*
G02*
X24350001Y-19600000I-249999J0D01*
G01*
X23649999Y-19600000D01*
G75*
G02*
X23400000Y-19350001I0J249999D01*
G01*
G37*
%TD.AperFunction*%
%TD*%
%TO.P,R6,2*%
%TO.N,Net-(J1-PadA5)*%
%TA.AperFunction,SMDPad,CuDef*%
G36*
G01*
X25400000Y-21650001D02*
X25400000Y-20749999D01*
G75*
G02*
X25649999Y-20500000I249999J0D01*
G01*
X26350001Y-20500000D01*
G75*
G02*
X26600000Y-20749999I0J-249999D01*
G01*
X26600000Y-21650001D01*
G75*
G02*
X26350001Y-21900000I-249999J0D01*
G01*
X25649999Y-21900000D01*
G75*
G02*
X25400000Y-21650001I0J249999D01*
G01*
G37*
%TD.AperFunction*%
%TO.P,R6,1*%
%TO.N,GND*%
%TA.AperFunction,SMDPad,CuDef*%
G36*
G01*
X23400000Y-21650001D02*
X23400000Y-20749999D01*
G75*
G02*
X23649999Y-20500000I249999J0D01*
G01*
X24350001Y-20500000D01*
G75*
G02*
X24600000Y-20749999I0J-249999D01*
G01*
X24600000Y-21650001D01*
G75*
G02*
X24350001Y-21900000I-249999J0D01*
G01*
X23649999Y-21900000D01*
G75*
G02*
X23400000Y-21650001I0J249999D01*
G01*
G37*
%TD.AperFunction*%
%TD*%
%TO.P,R8,2*%
%TO.N,Net-(D102-Pad2)*%
%TA.AperFunction,SMDPad,CuDef*%
G36*
G01*
X37900000Y-27899999D02*
X37900000Y-28800001D01*
G75*
G02*
X37650001Y-29050000I-249999J0D01*
G01*
X36949999Y-29050000D01*
G75*
G02*
X36700000Y-28800001I0J249999D01*
G01*
X36700000Y-27899999D01*
G75*
G02*
X36949999Y-27650000I249999J0D01*
G01*
X37650001Y-27650000D01*
G75*
G02*
X37900000Y-27899999I0J-249999D01*
G01*
G37*
%TD.AperFunction*%
%TO.P,R8,1*%
%TO.N,D+*%
%TA.AperFunction,SMDPad,CuDef*%
G36*
G01*
X39900000Y-27899999D02*
X39900000Y-28800001D01*
G75*
G02*
X39650001Y-29050000I-249999J0D01*
G01*
X38949999Y-29050000D01*
G75*
G02*
X38700000Y-28800001I0J249999D01*
G01*
X38700000Y-27899999D01*
G75*
G02*
X38949999Y-27650000I249999J0D01*
G01*
X39650001Y-27650000D01*
G75*
G02*
X39900000Y-27899999I0J-249999D01*
G01*
G37*
%TD.AperFunction*%
%TD*%
%TO.P,R9,2*%
%TO.N,Net-(R9-Pad2)*%
%TA.AperFunction,SMDPad,CuDef*%
G36*
G01*
X104557537Y-61893935D02*
X105193935Y-61257537D01*
G75*
G02*
X105547487Y-61257537I176776J-176776D01*
G01*
X106042463Y-61752513D01*
G75*
G02*
X106042463Y-62106065I-176776J-176776D01*
G01*
X105406065Y-62742463D01*
G75*
G02*
X105052513Y-62742463I-176776J176776D01*
G01*
X104557537Y-62247487D01*
G75*
G02*
X104557537Y-61893935I176776J176776D01*
G01*
G37*
%TD.AperFunction*%
%TO.P,R9,1*%
%TO.N,GND*%
%TA.AperFunction,SMDPad,CuDef*%
G36*
G01*
X103143323Y-60479721D02*
X103779721Y-59843323D01*
G75*
G02*
X104133273Y-59843323I176776J-176776D01*
G01*
X104628249Y-60338299D01*
G75*
G02*
X104628249Y-60691851I-176776J-176776D01*
G01*
X103991851Y-61328249D01*
G75*
G02*
X103638299Y-61328249I-176776J176776D01*
G01*
X103143323Y-60833273D01*
G75*
G02*
X103143323Y-60479721I176776J176776D01*
G01*
G37*
%TD.AperFunction*%
%TD*%
D27*
%TO.P,ResetSW1,2*%
%TO.N,Net-(R4-Pad2)*%
X44200000Y-63350000D03*
X38000000Y-63350000D03*
%TO.P,ResetSW1,1*%
%TO.N,GND*%
X44200000Y-67050000D03*
X38000000Y-67050000D03*
%TD*%
D11*
%TO.P,SW_6,1*%
%TO.N,Net-(D94-Pad1)*%
X288290000Y-35460000D03*
%TO.P,SW_6,2*%
%TO.N,Net-(D95-Pad2)*%
X294740000Y-32920000D03*
%TD*%
%TO.P,SW_9,1*%
%TO.N,Net-(D94-Pad1)*%
X288290000Y-84660000D03*
%TO.P,SW_9,2*%
%TO.N,Net-(D98-Pad2)*%
X294740000Y-82120000D03*
%TD*%
%TO.P,SW_14,1*%
%TO.N,Net-(D1-Pad1)*%
X36290000Y-84660000D03*
%TO.P,SW_14,2*%
%TO.N,Net-(D12-Pad2)*%
X42740000Y-82120000D03*
%TD*%
%TO.P,SW_15,1*%
%TO.N,Net-(D1-Pad1)*%
X36290000Y-101060000D03*
%TO.P,SW_15,2*%
%TO.N,Net-(D13-Pad2)*%
X42740000Y-98520000D03*
%TD*%
%TO.P,SW_16,1*%
%TO.N,Net-(D1-Pad1)*%
X19490000Y-35460000D03*
%TO.P,SW_16,2*%
%TO.N,Net-(D3-Pad2)*%
X25940000Y-32920000D03*
%TD*%
%TO.P,SW_29,1*%
%TO.N,RE1_1*%
X53090000Y-84660000D03*
%TO.P,SW_29,2*%
%TO.N,Net-(D18-Pad2)*%
X59540000Y-82120000D03*
%TD*%
%TO.P,SW_30_1,1*%
%TO.N,Net-(D25-Pad1)*%
X86690000Y-101060000D03*
%TO.P,SW_30_1,2*%
%TO.N,Net-(D30-Pad2)*%
X93140000Y-98520000D03*
%TD*%
%TO.P,SW_31,1*%
%TO.N,Net-(D25-Pad1)*%
X69890000Y-35460000D03*
%TO.P,SW_31,2*%
%TO.N,Net-(D20-Pad2)*%
X76340000Y-32920000D03*
%TD*%
%TO.P,SW_34,1*%
%TO.N,Net-(D25-Pad1)*%
X103490000Y-84660000D03*
%TO.P,SW_34,2*%
%TO.N,Net-(D34-Pad2)*%
X109940000Y-82120000D03*
%TD*%
%TO.P,SW_36_1,1*%
%TO.N,Net-(D25-Pad1)*%
X86690000Y-35460000D03*
%TO.P,SW_36_1,2*%
%TO.N,Net-(D26-Pad2)*%
X93140000Y-32920000D03*
%TD*%
%TO.P,SW_41_1,1*%
%TO.N,Net-(D36-Pad1)*%
X103490000Y-35460000D03*
%TO.P,SW_41_1,2*%
%TO.N,Net-(D31-Pad2)*%
X109940000Y-32920000D03*
%TD*%
D12*
%TO.P,SW_42,1*%
%TO.N,Net-(D36-Pad1)*%
X118240000Y-50590000D03*
%TO.P,SW_42,2*%
%TO.N,Net-(D32-Pad2)*%
X120780000Y-57040000D03*
%TD*%
D11*
%TO.P,SW_46_1,1*%
%TO.N,Net-(D36-Pad1)*%
X120290000Y-35460000D03*
%TO.P,SW_46_1,2*%
%TO.N,Net-(D37-Pad2)*%
X126740000Y-32920000D03*
%TD*%
%TO.P,SW_47,1*%
%TO.N,Net-(D36-Pad1)*%
X128690000Y-51860000D03*
%TO.P,SW_47,2*%
%TO.N,Net-(D38-Pad2)*%
X135140000Y-49320000D03*
%TD*%
%TO.P,SW_48,1*%
%TO.N,Net-(D36-Pad1)*%
X128690000Y-68260000D03*
%TO.P,SW_48,2*%
%TO.N,Net-(D39-Pad2)*%
X135140000Y-65720000D03*
%TD*%
%TO.P,SW_49,1*%
%TO.N,Net-(D36-Pad1)*%
X120290000Y-84660000D03*
%TO.P,SW_49,2*%
%TO.N,Net-(D40-Pad2)*%
X126740000Y-82120000D03*
%TD*%
%TO.P,SW_50,1*%
%TO.N,Net-(D47-Pad1)*%
X153890000Y-101060000D03*
%TO.P,SW_50,2*%
%TO.N,Net-(D52-Pad2)*%
X160340000Y-98520000D03*
%TD*%
%TO.P,SW_51_1,1*%
%TO.N,Net-(D47-Pad1)*%
X137090000Y-35460000D03*
%TO.P,SW_51_1,2*%
%TO.N,Net-(D42-Pad2)*%
X143540000Y-32920000D03*
%TD*%
%TO.P,SW_52,1*%
%TO.N,Net-(D47-Pad1)*%
X145490000Y-51860000D03*
%TO.P,SW_52,2*%
%TO.N,Net-(D43-Pad2)*%
X151940000Y-49320000D03*
%TD*%
%TO.P,SW_53,1*%
%TO.N,Net-(D47-Pad1)*%
X145490000Y-68260000D03*
%TO.P,SW_53,2*%
%TO.N,Net-(D44-Pad2)*%
X151940000Y-65720000D03*
%TD*%
%TO.P,SW_54,1*%
%TO.N,Net-(D47-Pad1)*%
X137090000Y-84660000D03*
%TO.P,SW_54,2*%
%TO.N,Net-(D45-Pad2)*%
X143540000Y-82120000D03*
%TD*%
%TO.P,SW_56,1*%
%TO.N,Net-(D47-Pad1)*%
X153890000Y-35460000D03*
%TO.P,SW_56,2*%
%TO.N,Net-(D48-Pad2)*%
X160340000Y-32920000D03*
%TD*%
%TO.P,SW_57,1*%
%TO.N,Net-(D47-Pad1)*%
X162290000Y-51860000D03*
%TO.P,SW_57,2*%
%TO.N,Net-(D49-Pad2)*%
X168740000Y-49320000D03*
%TD*%
%TO.P,SW_58,1*%
%TO.N,Net-(D47-Pad1)*%
X162290000Y-68260000D03*
%TO.P,SW_58,2*%
%TO.N,Net-(D50-Pad2)*%
X168740000Y-65720000D03*
%TD*%
%TO.P,SW_59,1*%
%TO.N,Net-(D47-Pad1)*%
X153890000Y-84660000D03*
%TO.P,SW_59,2*%
%TO.N,Net-(D51-Pad2)*%
X160340000Y-82120000D03*
%TD*%
%TO.P,SW_61,1*%
%TO.N,RE2_1*%
X170690000Y-35460000D03*
%TO.P,SW_61,2*%
%TO.N,RE2_2*%
X177140000Y-32920000D03*
%TD*%
%TO.P,SW_62,1*%
%TO.N,RE2_1*%
X179090000Y-51860000D03*
%TO.P,SW_62,2*%
%TO.N,Net-(D55-Pad2)*%
X185540000Y-49320000D03*
%TD*%
%TO.P,SW_63,1*%
%TO.N,RE2_1*%
X179090000Y-68260000D03*
%TO.P,SW_63,2*%
%TO.N,Net-(D56-Pad2)*%
X185540000Y-65720000D03*
%TD*%
%TO.P,SW_64,1*%
%TO.N,RE2_1*%
X170690000Y-84660000D03*
%TO.P,SW_64,2*%
%TO.N,Net-(D57-Pad2)*%
X177140000Y-82120000D03*
%TD*%
%TO.P,SW_65_1,1*%
%TO.N,RE2_1*%
X170690000Y-101060000D03*
%TO.P,SW_65_1,2*%
%TO.N,Net-(D58-Pad2)*%
X177140000Y-98520000D03*
%TD*%
%TO.P,SW_67,1*%
%TO.N,RE2_1*%
X195890000Y-51860000D03*
%TO.P,SW_67,2*%
%TO.N,Net-(D61-Pad2)*%
X202340000Y-49320000D03*
%TD*%
%TO.P,SW_68,1*%
%TO.N,RE2_1*%
X195890000Y-68260000D03*
%TO.P,SW_68,2*%
%TO.N,Net-(D62-Pad2)*%
X202340000Y-65720000D03*
%TD*%
%TO.P,SW_69,1*%
%TO.N,RE2_1*%
X187490000Y-84660000D03*
%TO.P,SW_69,2*%
%TO.N,Net-(D63-Pad2)*%
X193940000Y-82120000D03*
%TD*%
%TO.P,SW_71,1*%
%TO.N,RE3_1*%
X204290000Y-35460000D03*
%TO.P,SW_71,2*%
%TO.N,RE3_2*%
X210740000Y-32920000D03*
%TD*%
%TO.P,SW_72_1,1*%
%TO.N,RE3_1*%
X212690000Y-51860000D03*
%TO.P,SW_72_1,2*%
%TO.N,Net-(D67-Pad2)*%
X219140000Y-49320000D03*
%TD*%
%TO.P,SW_73_1,1*%
%TO.N,RE3_1*%
X212690000Y-68260000D03*
%TO.P,SW_73_1,2*%
%TO.N,Net-(D68-Pad2)*%
X219140000Y-65720000D03*
%TD*%
%TO.P,SW_74,1*%
%TO.N,RE3_1*%
X204290000Y-84660000D03*
%TO.P,SW_74,2*%
%TO.N,Net-(D69-Pad2)*%
X210740000Y-82120000D03*
%TD*%
%TO.P,SW_76,1*%
%TO.N,RE3_1*%
X187490000Y-35460000D03*
%TO.P,SW_76,2*%
%TO.N,Net-(D60-Pad2)*%
X193940000Y-32920000D03*
%TD*%
%TO.P,SW_78_1,1*%
%TO.N,RE3_1*%
X229490000Y-68260000D03*
%TO.P,SW_78_1,2*%
%TO.N,Net-(D74-Pad2)*%
X235940000Y-65720000D03*
%TD*%
%TO.P,SW_79,1*%
%TO.N,RE3_1*%
X221090000Y-84660000D03*
%TO.P,SW_79,2*%
%TO.N,Net-(D75-Pad2)*%
X227540000Y-82120000D03*
%TD*%
%TO.P,SW_81,1*%
%TO.N,RE4_1*%
X237890000Y-35460000D03*
%TO.P,SW_81,2*%
%TO.N,RE4_2*%
X244340000Y-32920000D03*
%TD*%
%TO.P,SW_82_1,1*%
%TO.N,RE4_1*%
X246290000Y-51860000D03*
%TO.P,SW_82_1,2*%
%TO.N,Net-(D79-Pad2)*%
X252740000Y-49320000D03*
%TD*%
%TO.P,SW_83_1,1*%
%TO.N,RE4_1*%
X246290000Y-68260000D03*
%TO.P,SW_83_1,2*%
%TO.N,Net-(D80-Pad2)*%
X252740000Y-65720000D03*
%TD*%
%TO.P,SW_84,1*%
%TO.N,RE4_1*%
X237890000Y-84660000D03*
%TO.P,SW_84,2*%
%TO.N,Net-(D81-Pad2)*%
X244340000Y-82120000D03*
%TD*%
%TO.P,SW_86,1*%
%TO.N,RE4_1*%
X221090000Y-35460000D03*
%TO.P,SW_86,2*%
%TO.N,Net-(D72-Pad2)*%
X227540000Y-32920000D03*
%TD*%
%TO.P,SW_87_1,1*%
%TO.N,RE4_1*%
X229490000Y-51860000D03*
%TO.P,SW_87_1,2*%
%TO.N,Net-(D73-Pad2)*%
X235940000Y-49320000D03*
%TD*%
%TO.P,SW_90_1,1*%
%TO.N,RE5_1*%
X288290000Y-101060000D03*
%TO.P,SW_90_1,2*%
%TO.N,Net-(D99-Pad2)*%
X294740000Y-98520000D03*
%TD*%
%TO.P,SW_91,1*%
%TO.N,RE5_1*%
X271490000Y-35460000D03*
%TO.P,SW_91,2*%
%TO.N,RE5_2*%
X277940000Y-32920000D03*
%TD*%
%TO.P,SW_94,1*%
%TO.N,RE5_1*%
X271490000Y-84660000D03*
%TO.P,SW_94,2*%
%TO.N,Net-(D91-Pad2)*%
X277940000Y-82120000D03*
%TD*%
%TO.P,SW_95,1*%
%TO.N,RE5_1*%
X271490000Y-101060000D03*
%TO.P,SW_95,2*%
%TO.N,Net-(D92-Pad2)*%
X277940000Y-98520000D03*
%TD*%
%TO.P,SW_96,1*%
%TO.N,RE5_1*%
X254690000Y-35460000D03*
%TO.P,SW_96,2*%
%TO.N,Net-(D84-Pad2)*%
X261140000Y-32920000D03*
%TD*%
%TO.P,SW_10_1,1*%
%TO.N,Net-(D1-Pad1)*%
X19490000Y-101060000D03*
%TO.P,SW_10_1,2*%
%TO.N,Net-(D7-Pad2)*%
X25940000Y-98520000D03*
%TD*%
%TO.P,SW_12_2,1*%
%TO.N,Net-(D1-Pad1)*%
X44690000Y-51860000D03*
%TO.P,SW_12_2,2*%
%TO.N,Net-(D10-Pad2)*%
X51140000Y-49320000D03*
%TD*%
%TO.P,SW_13_1,1*%
%TO.N,Net-(D1-Pad1)*%
X43910000Y-73340000D03*
%TO.P,SW_13_1,2*%
%TO.N,Net-(D11-Pad2)*%
X37460000Y-75880000D03*
%TD*%
%TO.P,SW_13_2,1*%
%TO.N,Net-(D1-Pad1)*%
X52310000Y-73340000D03*
%TO.P,SW_13_2,2*%
%TO.N,Net-(D11-Pad2)*%
X45860000Y-75880000D03*
%TD*%
%TO.P,SW_17_1,1*%
%TO.N,Net-(D1-Pad1)*%
X19490000Y-51860000D03*
%TO.P,SW_17_1,2*%
%TO.N,Net-(D4-Pad2)*%
X25940000Y-49320000D03*
%TD*%
%TO.P,SW_18_1,1*%
%TO.N,Net-(D1-Pad1)*%
X19490000Y-68260000D03*
%TO.P,SW_18_1,2*%
%TO.N,Net-(D5-Pad2)*%
X25940000Y-65720000D03*
%TD*%
%TO.P,SW_19_1,1*%
%TO.N,Net-(D1-Pad1)*%
X19490000Y-84660000D03*
%TO.P,SW_19_1,2*%
%TO.N,Net-(D6-Pad2)*%
X25940000Y-82120000D03*
%TD*%
%TO.P,SW_20_1,1*%
%TO.N,RE1_1*%
X53090000Y-101060000D03*
%TO.P,SW_20_1,2*%
%TO.N,Net-(D19-Pad2)*%
X59540000Y-98520000D03*
%TD*%
%TO.P,SW_23_1,1*%
%TO.N,RE1_1*%
X69890000Y-68260000D03*
%TO.P,SW_23_1,2*%
%TO.N,Net-(D22-Pad2)*%
X76340000Y-65720000D03*
%TD*%
%TO.P,SW_24_1,1*%
%TO.N,RE1_1*%
X69890000Y-84660000D03*
%TO.P,SW_24_1,2*%
%TO.N,Net-(D23-Pad2)*%
X76340000Y-82120000D03*
%TD*%
%TO.P,SW_25_1,1*%
%TO.N,RE1_1*%
X69890000Y-101060000D03*
%TO.P,SW_25_1,2*%
%TO.N,Net-(D24-Pad2)*%
X76340000Y-98520000D03*
%TD*%
%TO.P,SW_27_1,1*%
%TO.N,RE1_1*%
X53090000Y-51860000D03*
%TO.P,SW_27_1,2*%
%TO.N,Net-(D16-Pad2)*%
X59540000Y-49320000D03*
%TD*%
%TO.P,SW_27_2,1*%
%TO.N,RE1_1*%
X61490000Y-51860000D03*
%TO.P,SW_27_2,2*%
%TO.N,Net-(D16-Pad2)*%
X67940000Y-49320000D03*
%TD*%
%TO.P,SW_28_1,1*%
%TO.N,RE1_1*%
X53090000Y-68260000D03*
%TO.P,SW_28_1,2*%
%TO.N,Net-(D17-Pad2)*%
X59540000Y-65720000D03*
%TD*%
%TO.P,SW_28_2,1*%
%TO.N,RE1_1*%
X61490000Y-68260000D03*
%TO.P,SW_28_2,2*%
%TO.N,Net-(D17-Pad2)*%
X67940000Y-65720000D03*
%TD*%
%TO.P,SW_32_1,1*%
%TO.N,Net-(D25-Pad1)*%
X69890000Y-51860000D03*
%TO.P,SW_32_1,2*%
%TO.N,Net-(D21-Pad2)*%
X76340000Y-49320000D03*
%TD*%
%TO.P,SW_35_1,1*%
%TO.N,Net-(D25-Pad1)*%
X103490000Y-101060000D03*
%TO.P,SW_35_1,2*%
%TO.N,Net-(D35-Pad2)*%
X109940000Y-98520000D03*
%TD*%
D12*
%TO.P,SW_37_1,1*%
%TO.N,Net-(D25-Pad1)*%
X96360000Y-58210000D03*
%TO.P,SW_37_1,2*%
%TO.N,Net-(D27-Pad2)*%
X93820000Y-51760000D03*
%TD*%
D11*
%TO.P,SW_38_1,1*%
%TO.N,Net-(D25-Pad1)*%
X95090000Y-68260000D03*
%TO.P,SW_38_1,2*%
%TO.N,Net-(D28-Pad2)*%
X101540000Y-65720000D03*
%TD*%
%TO.P,SW_39_1,1*%
%TO.N,Net-(D25-Pad1)*%
X86690000Y-84660000D03*
%TO.P,SW_39_1,2*%
%TO.N,Net-(D29-Pad2)*%
X93140000Y-82120000D03*
%TD*%
%TO.P,SW_40_1,1*%
%TO.N,Net-(D36-Pad1)*%
X120290000Y-101060000D03*
%TO.P,SW_40_1,2*%
%TO.N,Net-(D41-Pad2)*%
X126740000Y-98520000D03*
%TD*%
%TO.P,SW_45_1,1*%
%TO.N,Net-(D36-Pad1)*%
X137090000Y-101060000D03*
%TO.P,SW_45_1,2*%
%TO.N,Net-(D46-Pad2)*%
X143540000Y-98520000D03*
%TD*%
%TO.P,SW_60_1,1*%
%TO.N,RE2_1*%
X187490000Y-101060000D03*
%TO.P,SW_60_1,2*%
%TO.N,Net-(D64-Pad2)*%
X193940000Y-98520000D03*
%TD*%
%TO.P,SW_70_1,1*%
%TO.N,RE3_1*%
X221090000Y-101060000D03*
%TO.P,SW_70_1,2*%
%TO.N,Net-(D76-Pad2)*%
X227540000Y-98520000D03*
%TD*%
%TO.P,SW_75_1,1*%
%TO.N,RE3_1*%
X211910000Y-106140000D03*
%TO.P,SW_75_1,2*%
%TO.N,Net-(D70-Pad2)*%
X205460000Y-108680000D03*
%TD*%
%TO.P,SW_7_1,1*%
%TO.N,Net-(D94-Pad1)*%
X288290000Y-51860000D03*
%TO.P,SW_7_1,2*%
%TO.N,Net-(D96-Pad2)*%
X294740000Y-49320000D03*
%TD*%
%TO.P,SW_80_1,1*%
%TO.N,RE4_1*%
X254690000Y-101060000D03*
%TO.P,SW_80_1,2*%
%TO.N,Net-(D88-Pad2)*%
X261140000Y-98520000D03*
%TD*%
%TO.P,SW_85_1,1*%
%TO.N,RE4_1*%
X237890000Y-101060000D03*
%TO.P,SW_85_1,2*%
%TO.N,Net-(D82-Pad2)*%
X244340000Y-98520000D03*
%TD*%
%TO.P,SW_8_1,1*%
%TO.N,Net-(D94-Pad1)*%
X288290000Y-68260000D03*
%TO.P,SW_8_1,2*%
%TO.N,Net-(D97-Pad2)*%
X294740000Y-65720000D03*
%TD*%
%TO.P,SW_97_1,1*%
%TO.N,RE5_1*%
X263090000Y-51860000D03*
%TO.P,SW_97_1,2*%
%TO.N,Net-(D85-Pad2)*%
X269540000Y-49320000D03*
%TD*%
%TO.P,SW_98_1,1*%
%TO.N,RE5_1*%
X263090000Y-68260000D03*
%TO.P,SW_98_1,2*%
%TO.N,Net-(D86-Pad2)*%
X269540000Y-65720000D03*
%TD*%
D28*
%TO.P,J1,P4*%
%TO.N,GND*%
X29075000Y-17965000D03*
%TO.P,J1,P3*%
X37725000Y-17965000D03*
%TO.P,J1,P2*%
X37725000Y-21345000D03*
%TO.P,J1,P1*%
X29075000Y-21345000D03*
D29*
%TO.P,J1,B12*%
X30425000Y-20975000D03*
%TO.P,J1,B9*%
%TO.N,VCC*%
X31275000Y-20975000D03*
%TO.P,J1,B8*%
%TO.N,N/C*%
X32125000Y-20975000D03*
%TO.P,J1,B7*%
%TO.N,Net-(D102-Pad3)*%
X32975000Y-20975000D03*
%TO.P,J1,B6*%
%TO.N,Net-(D102-Pad2)*%
X33825000Y-20975000D03*
%TO.P,J1,B5*%
%TO.N,Net-(J1-PadB5)*%
X34675000Y-20975000D03*
%TO.P,J1,B4*%
%TO.N,VCC*%
X35525000Y-20975000D03*
%TO.P,J1,B1*%
%TO.N,GND*%
X36375000Y-20975000D03*
%TO.P,J1,A12*%
X36375000Y-22325000D03*
%TO.P,J1,A9*%
%TO.N,VCC*%
X35525000Y-22325000D03*
%TO.P,J1,A8*%
%TO.N,N/C*%
X34675000Y-22325000D03*
%TO.P,J1,A7*%
%TO.N,Net-(D102-Pad3)*%
X33825000Y-22325000D03*
%TO.P,J1,A6*%
%TO.N,Net-(D102-Pad2)*%
X32975000Y-22325000D03*
%TO.P,J1,A5*%
%TO.N,Net-(J1-PadA5)*%
X32125000Y-22325000D03*
%TO.P,J1,A4*%
%TO.N,VCC*%
X31275000Y-22325000D03*
%TO.P,J1,A1*%
%TO.N,GND*%
X30425000Y-22325000D03*
%TD*%
D11*
%TO.P,SW_23_2,1*%
%TO.N,RE1_1*%
X78290000Y-68260000D03*
%TO.P,SW_23_2,2*%
%TO.N,Net-(D22-Pad2)*%
X84740000Y-65720000D03*
%TD*%
%TO.P,SW_32_2,1*%
%TO.N,Net-(D25-Pad1)*%
X78290000Y-51860000D03*
%TO.P,SW_32_2,2*%
%TO.N,Net-(D21-Pad2)*%
X84740000Y-49320000D03*
%TD*%
%TO.P,SW_20_2,2*%
%TO.N,Net-(D19-Pad2)*%
X63740000Y-98520000D03*
%TO.P,SW_20_2,1*%
%TO.N,RE1_1*%
X57290000Y-101060000D03*
%TD*%
%TO.P,SW_25_3,2*%
%TO.N,Net-(D24-Pad2)*%
X80540000Y-98520000D03*
%TO.P,SW_25_3,1*%
%TO.N,RE1_1*%
X74090000Y-101060000D03*
%TD*%
%TO.P,SW_36_2,2*%
%TO.N,Net-(D26-Pad2)*%
X93140000Y-26420000D03*
%TO.P,SW_36_2,1*%
%TO.N,Net-(D25-Pad1)*%
X86690000Y-28960000D03*
%TD*%
%TO.P,SW_30_2,1*%
%TO.N,Net-(D25-Pad1)*%
X82490000Y-101060000D03*
%TO.P,SW_30_2,2*%
%TO.N,Net-(D30-Pad2)*%
X88940000Y-98520000D03*
%TD*%
%TO.P,SW_35_2,1*%
%TO.N,Net-(D25-Pad1)*%
X111890000Y-101060000D03*
%TO.P,SW_35_2,2*%
%TO.N,Net-(D35-Pad2)*%
X118340000Y-98520000D03*
%TD*%
%TO.P,SW_35_3,1*%
%TO.N,Net-(D25-Pad1)*%
X107690000Y-101060000D03*
%TO.P,SW_35_3,2*%
%TO.N,Net-(D35-Pad2)*%
X114140000Y-98520000D03*
%TD*%
%TO.P,SW_41_2,1*%
%TO.N,Net-(D36-Pad1)*%
X103490000Y-28960000D03*
%TO.P,SW_41_2,2*%
%TO.N,Net-(D31-Pad2)*%
X109940000Y-26420000D03*
%TD*%
%TO.P,SW_45_2,1*%
%TO.N,Net-(D36-Pad1)*%
X145490000Y-101060000D03*
%TO.P,SW_45_2,2*%
%TO.N,Net-(D46-Pad2)*%
X151940000Y-98520000D03*
%TD*%
%TO.P,SW_45_3,2*%
%TO.N,Net-(D46-Pad2)*%
X147740000Y-98520000D03*
%TO.P,SW_45_3,1*%
%TO.N,Net-(D36-Pad1)*%
X141290000Y-101060000D03*
%TD*%
%TO.P,SW_45_4,2*%
%TO.N,Net-(D46-Pad2)*%
X139340000Y-98520000D03*
%TO.P,SW_45_4,1*%
%TO.N,Net-(D36-Pad1)*%
X132890000Y-101060000D03*
%TD*%
%TO.P,SW_46_2,2*%
%TO.N,Net-(D37-Pad2)*%
X126740000Y-26420000D03*
%TO.P,SW_46_2,1*%
%TO.N,Net-(D36-Pad1)*%
X120290000Y-28960000D03*
%TD*%
%TO.P,SW_51_2,1*%
%TO.N,Net-(D47-Pad1)*%
X137090000Y-28960000D03*
%TO.P,SW_51_2,2*%
%TO.N,Net-(D42-Pad2)*%
X143540000Y-26420000D03*
%TD*%
%TO.P,SW_60_2,2*%
%TO.N,Net-(D64-Pad2)*%
X193940000Y-90320000D03*
%TO.P,SW_60_2,1*%
%TO.N,RE2_1*%
X187490000Y-92860000D03*
%TD*%
%TO.P,SW_65_2,1*%
%TO.N,RE2_1*%
X174890000Y-101060000D03*
%TO.P,SW_65_2,2*%
%TO.N,Net-(D58-Pad2)*%
X181340000Y-98520000D03*
%TD*%
%TO.P,SW_65_3,1*%
%TO.N,RE2_1*%
X166490000Y-101060000D03*
%TO.P,SW_65_3,2*%
%TO.N,Net-(D58-Pad2)*%
X172940000Y-98520000D03*
%TD*%
%TO.P,SW_72_2,2*%
%TO.N,Net-(D67-Pad2)*%
X223340000Y-49320000D03*
%TO.P,SW_72_2,1*%
%TO.N,RE3_1*%
X216890000Y-51860000D03*
%TD*%
%TO.P,SW_73_2,1*%
%TO.N,RE3_1*%
X216890000Y-68260000D03*
%TO.P,SW_73_2,2*%
%TO.N,Net-(D68-Pad2)*%
X223340000Y-65720000D03*
%TD*%
%TO.P,SW_75_2,2*%
%TO.N,Net-(D70-Pad2)*%
X201260000Y-108680000D03*
%TO.P,SW_75_2,1*%
%TO.N,RE3_1*%
X207710000Y-106140000D03*
%TD*%
%TO.P,SW_75_3,2*%
%TO.N,Net-(D70-Pad2)*%
X213860000Y-108680000D03*
%TO.P,SW_75_3,1*%
%TO.N,RE3_1*%
X220310000Y-106140000D03*
%TD*%
%TO.P,SW_78_2,1*%
%TO.N,RE3_1*%
X237890000Y-68260000D03*
%TO.P,SW_78_2,2*%
%TO.N,Net-(D74-Pad2)*%
X244340000Y-65720000D03*
%TD*%
%TO.P,SW_82_2,1*%
%TO.N,RE4_1*%
X254690000Y-51860000D03*
%TO.P,SW_82_2,2*%
%TO.N,Net-(D79-Pad2)*%
X261140000Y-49320000D03*
%TD*%
%TO.P,SW_83_2,2*%
%TO.N,Net-(D80-Pad2)*%
X261140000Y-65720000D03*
%TO.P,SW_83_2,1*%
%TO.N,RE4_1*%
X254690000Y-68260000D03*
%TD*%
%TO.P,SW_85_2,2*%
%TO.N,Net-(D82-Pad2)*%
X252740000Y-98520000D03*
%TO.P,SW_85_2,1*%
%TO.N,RE4_1*%
X246290000Y-101060000D03*
%TD*%
%TO.P,SW_85_3,1*%
%TO.N,RE4_1*%
X233690000Y-101060000D03*
%TO.P,SW_85_3,2*%
%TO.N,Net-(D82-Pad2)*%
X240140000Y-98520000D03*
%TD*%
%TO.P,SW_87_2,2*%
%TO.N,Net-(D73-Pad2)*%
X244340000Y-49320000D03*
%TO.P,SW_87_2,1*%
%TO.N,RE4_1*%
X237890000Y-51860000D03*
%TD*%
%TO.P,SW_90_2,1*%
%TO.N,RE5_1*%
X288290000Y-92860000D03*
%TO.P,SW_90_2,2*%
%TO.N,Net-(D99-Pad2)*%
X294740000Y-90320000D03*
%TD*%
%TO.P,SW_97_2,2*%
%TO.N,Net-(D85-Pad2)*%
X277940000Y-49320000D03*
%TO.P,SW_97_2,1*%
%TO.N,RE5_1*%
X271490000Y-51860000D03*
%TD*%
%TO.P,SW_98_2,1*%
%TO.N,RE5_1*%
X271490000Y-68260000D03*
%TO.P,SW_98_2,2*%
%TO.N,Net-(D86-Pad2)*%
X277940000Y-65720000D03*
%TD*%
D18*
%TO.P,L8,3*%
%TO.N,GND*%
X266250000Y-19900000D03*
D17*
X266350000Y-20700000D03*
%TA.AperFunction,SMDPad,CuDef*%
D15*
G36*
X266560000Y-19700001D02*
G01*
X266759999Y-19900000D01*
X266560000Y-20099999D01*
X266360001Y-19900000D01*
X266560000Y-19700001D01*
G37*
%TD.AperFunction*%
D16*
%TO.P,L8,1*%
%TO.N,+5V*%
X264850000Y-25600000D03*
%TO.P,L8,2*%
%TO.N,Net-(JP_LED2-Pad3)*%
X266350000Y-25600000D03*
%TO.P,L8,4*%
%TO.N,Net-(L7-Pad2)*%
X264850000Y-20600000D03*
%TD*%
D30*
%TO.P,SW_RE1,A*%
%TO.N,RE1_A*%
X49400000Y-29000000D03*
D31*
%TO.P,SW_RE1,C*%
%TO.N,GND*%
X49400000Y-31500000D03*
%TO.P,SW_RE1,B*%
%TO.N,RE1_B*%
X49400000Y-34000000D03*
D32*
%TO.P,SW_RE1,MP*%
%TO.N,N/C*%
X56900000Y-25900000D03*
X56900000Y-37100000D03*
D31*
%TO.P,SW_RE1,S2*%
%TO.N,RE1_2*%
X63900000Y-29000000D03*
%TO.P,SW_RE1,S1*%
%TO.N,RE1_1*%
X63900000Y-34000000D03*
%TD*%
%TO.P,SW_RE2,S1*%
%TO.N,RE2_1*%
X181500000Y-34000000D03*
%TO.P,SW_RE2,S2*%
%TO.N,RE2_2*%
X181500000Y-29000000D03*
D32*
%TO.P,SW_RE2,MP*%
%TO.N,N/C*%
X174500000Y-37100000D03*
X174500000Y-25900000D03*
D31*
%TO.P,SW_RE2,B*%
%TO.N,RE2_B*%
X167000000Y-34000000D03*
%TO.P,SW_RE2,C*%
%TO.N,GND*%
X167000000Y-31500000D03*
D30*
%TO.P,SW_RE2,A*%
%TO.N,RE2_A*%
X167000000Y-29000000D03*
%TD*%
D31*
%TO.P,SW_RE3,S1*%
%TO.N,RE3_1*%
X215100000Y-34000000D03*
%TO.P,SW_RE3,S2*%
%TO.N,RE3_2*%
X215100000Y-29000000D03*
D32*
%TO.P,SW_RE3,MP*%
%TO.N,N/C*%
X208100000Y-37100000D03*
X208100000Y-25900000D03*
D31*
%TO.P,SW_RE3,B*%
%TO.N,RE3_B*%
X200600000Y-34000000D03*
%TO.P,SW_RE3,C*%
%TO.N,GND*%
X200600000Y-31500000D03*
D30*
%TO.P,SW_RE3,A*%
%TO.N,RE3_A*%
X200600000Y-29000000D03*
%TD*%
%TO.P,SW_RE4,A*%
%TO.N,RE4_A*%
X234200000Y-29000000D03*
D31*
%TO.P,SW_RE4,C*%
%TO.N,GND*%
X234200000Y-31500000D03*
%TO.P,SW_RE4,B*%
%TO.N,RE4_B*%
X234200000Y-34000000D03*
D32*
%TO.P,SW_RE4,MP*%
%TO.N,N/C*%
X241700000Y-25900000D03*
X241700000Y-37100000D03*
D31*
%TO.P,SW_RE4,S2*%
%TO.N,RE4_2*%
X248700000Y-29000000D03*
%TO.P,SW_RE4,S1*%
%TO.N,RE4_1*%
X248700000Y-34000000D03*
%TD*%
%TO.P,SW_RE5,S1*%
%TO.N,RE5_1*%
X282300000Y-34000000D03*
%TO.P,SW_RE5,S2*%
%TO.N,RE5_2*%
X282300000Y-29000000D03*
D32*
%TO.P,SW_RE5,MP*%
%TO.N,N/C*%
X275300000Y-37100000D03*
X275300000Y-25900000D03*
D31*
%TO.P,SW_RE5,B*%
%TO.N,RE5_B*%
X267800000Y-34000000D03*
%TO.P,SW_RE5,C*%
%TO.N,GND*%
X267800000Y-31500000D03*
D30*
%TO.P,SW_RE5,A*%
%TO.N,RE5_A*%
X267800000Y-29000000D03*
%TD*%
D33*
%TO.N,GND*%
X286600000Y-73600000D03*
X167050000Y-20700000D03*
X200450000Y-20700000D03*
X233950000Y-20700000D03*
X49000000Y-20700000D03*
X21000000Y-18300000D03*
X98100000Y-41200000D03*
X97000000Y-19800000D03*
X31599983Y-27699991D03*
X46299996Y-18000000D03*
X267500000Y-20700000D03*
X272899984Y-30300000D03*
%TO.N,+5V*%
X100800000Y-21500000D03*
X96800000Y-48300000D03*
X121900000Y-50650000D03*
X106600000Y-58000000D03*
X108000000Y-59400000D03*
X122600000Y-76500000D03*
X96800002Y-46950000D03*
X99400000Y-46950000D03*
X77800000Y-62300000D03*
X75700000Y-60200000D03*
X108699999Y-44800001D03*
X102713272Y-41386728D03*
X99600000Y-24100000D03*
X119700038Y-63700000D03*
X112660953Y-50889406D03*
X120079064Y-52579064D03*
X112300010Y-63700002D03*
%TO.N,Net-(D1-Pad1)*%
X18900000Y-30200000D03*
X44067010Y-84632990D03*
%TO.N,pin1*%
X105700000Y-26600000D03*
X105264166Y-40265863D03*
%TO.N,Net-(D2-Pad1)*%
X20900000Y-25400012D03*
%TO.N,pin6*%
X104818987Y-27881013D03*
X104671438Y-39728562D03*
%TO.N,pin7*%
X102900000Y-51700000D03*
X93689031Y-48440457D03*
X85772999Y-50327001D03*
X130500000Y-49400000D03*
X130000000Y-61300000D03*
X86850000Y-63550000D03*
%TO.N,pin8*%
X98627001Y-66727001D03*
X101800006Y-60450000D03*
%TO.N,pin9*%
X105150000Y-83200000D03*
X103100000Y-59500000D03*
%TO.N,pin10*%
X120000000Y-98600000D03*
X109700004Y-58300000D03*
%TO.N,pin2*%
X83300000Y-47600000D03*
X126200000Y-50327001D03*
X120500000Y-61300000D03*
X84700004Y-63300000D03*
%TO.N,Net-(D11-Pad2)*%
X36800000Y-65800000D03*
%TO.N,pin3*%
X101149994Y-59750000D03*
X99200000Y-64700000D03*
%TO.N,pin4*%
X100242990Y-81192990D03*
X102427010Y-58977010D03*
%TO.N,pin5*%
X108907010Y-97592990D03*
X103800000Y-58950000D03*
%TO.N,Net-(D25-Pad1)*%
X87167001Y-51867001D03*
X92160000Y-63990000D03*
%TO.N,Net-(D27-Pad2)*%
X89950000Y-49400000D03*
%TO.N,Net-(D32-Pad2)*%
X125899997Y-49399997D03*
%TO.N,Net-(D36-Pad1)*%
X121100000Y-79400000D03*
%TO.N,Net-(D47-Pad1)*%
X155600000Y-96000000D03*
%TO.N,Net-(D70-Pad2)*%
X200000000Y-98600000D03*
%TO.N,RE1_1*%
X83700000Y-68600006D03*
X82300000Y-51200000D03*
X61000000Y-46599996D03*
X38050000Y-51000000D03*
%TO.N,VCC*%
X40300000Y-19400000D03*
X34999998Y-29050000D03*
%TO.N,AUDIO1*%
X77307304Y-63142696D03*
X25350000Y-25400000D03*
X73807324Y-59509490D03*
X38399999Y-59500001D03*
%TO.N,LED*%
X66100000Y-18900000D03*
X66600000Y-20500000D03*
X101600000Y-19100000D03*
X107818979Y-41977919D03*
%TO.N,Net-(JP_LED2-Pad1)*%
X81499992Y-21800000D03*
X81213505Y-18472990D03*
%TO.N,Net-(JP_LED2-Pad3)*%
X286600000Y-76100000D03*
X267961735Y-26538265D03*
%TO.N,Net-(L4-Pad2)*%
X51500000Y-25600000D03*
X164000000Y-19000000D03*
%TO.N,Net-(R4-Pad2)*%
X100250000Y-59750000D03*
X107750000Y-44650000D03*
%TO.N,D-*%
X41049998Y-27000000D03*
X58200000Y-44800002D03*
%TO.N,D+*%
X40549994Y-28774254D03*
X56099996Y-44150000D03*
%TO.N,RE1_A*%
X102664398Y-40451126D03*
X100300000Y-25500000D03*
%TO.N,RE1_B*%
X102500000Y-39400000D03*
X100972990Y-26700000D03*
%TO.N,RE3_B*%
X197200000Y-58200000D03*
X117400000Y-58800000D03*
X112012007Y-51357260D03*
%TO.N,RE3_A*%
X117600000Y-57900000D03*
X196600000Y-57500000D03*
X113106636Y-49409490D03*
%TO.N,RE4_B*%
X209500000Y-59300000D03*
X210400000Y-41700000D03*
X233200001Y-39600001D03*
%TO.N,RE4_A*%
X208700000Y-58600000D03*
X232235565Y-39554415D03*
X209350000Y-41650000D03*
%TO.N,RE5_A*%
X223100000Y-60000000D03*
X228200000Y-41600000D03*
X265192919Y-40520353D03*
%TO.N,RE5_B*%
X223799998Y-60700000D03*
X229200000Y-41600000D03*
X266050000Y-40550000D03*
%TO.N,RE2_1*%
X185300000Y-30200000D03*
%TO.N,RE3_1*%
X215100000Y-46700000D03*
%TO.N,RE4_1*%
X260900000Y-63000000D03*
X233100000Y-67600000D03*
%TO.N,RE5_1*%
X282900000Y-85000000D03*
X277025942Y-51874058D03*
X278632999Y-68267001D03*
%TO.N,Net-(D94-Pad1)*%
X281547001Y-68252999D03*
X289550000Y-93950000D03*
%TO.N,SCL*%
X110149174Y-46635901D03*
%TO.N,SDA*%
X111800000Y-47400000D03*
%TO.N,RE2_A*%
X112300000Y-48100000D03*
X118600000Y-52700000D03*
X162600000Y-56800000D03*
%TO.N,RE2_B*%
X118100000Y-53370838D03*
X112490545Y-48899146D03*
X163500000Y-56800000D03*
%TD*%
D34*
%TO.N,GND*%
X38000000Y-67050000D02*
X44200000Y-67050000D01*
X21000000Y-19350000D02*
X21950000Y-19350000D01*
X22400000Y-18900000D02*
X24000000Y-18900000D01*
X21950000Y-19350000D02*
X22400000Y-18900000D01*
X24000000Y-18900000D02*
X24000000Y-21200000D01*
X105366377Y-59105195D02*
X103885786Y-60585786D01*
X105366377Y-59066377D02*
X105366377Y-59105195D01*
X99066377Y-42133623D02*
X100566377Y-43633623D01*
X24290510Y-17809490D02*
X24000000Y-18100000D01*
X28919490Y-17809490D02*
X24290510Y-17809490D01*
X24000000Y-18100000D02*
X24000000Y-18900000D01*
X29075000Y-17965000D02*
X28919490Y-17809490D01*
X287470000Y-74470000D02*
X286600000Y-73600000D01*
X291450000Y-74470000D02*
X287470000Y-74470000D01*
X79700000Y-20700000D02*
X81400000Y-20700000D01*
X82300000Y-19800000D02*
X111890000Y-19800000D01*
X81400000Y-20700000D02*
X82300000Y-19800000D01*
X165550000Y-20700000D02*
X167050000Y-20700000D01*
X198381000Y-18750000D02*
X199150000Y-19519000D01*
X199150000Y-19519000D02*
X199150000Y-20700000D01*
X169000000Y-18750000D02*
X198381000Y-18750000D01*
X167050000Y-20700000D02*
X169000000Y-18750000D01*
X199150000Y-20700000D02*
X200450000Y-20700000D01*
X200450000Y-20700000D02*
X203850000Y-20700000D01*
X203850000Y-20700000D02*
X205800000Y-18750000D01*
X232750000Y-19519000D02*
X232750000Y-20700000D01*
X231981000Y-18750000D02*
X232750000Y-19519000D01*
X205800000Y-18750000D02*
X231981000Y-18750000D01*
X232750000Y-20700000D02*
X233950000Y-20700000D01*
X233950000Y-20700000D02*
X234600000Y-20700000D01*
X234600000Y-20700000D02*
X236550000Y-18750000D01*
X236550000Y-18750000D02*
X265581000Y-18750000D01*
X266350000Y-19519000D02*
X266350000Y-20700000D01*
X265581000Y-18750000D02*
X266350000Y-19519000D01*
X47850000Y-20600000D02*
X47950000Y-20700000D01*
X47950000Y-20700000D02*
X49000000Y-20700000D01*
X100566377Y-43997747D02*
X102562385Y-45993755D01*
X100566377Y-43633623D02*
X100566377Y-43997747D01*
X100224516Y-52150000D02*
X100865328Y-51509188D01*
X99680501Y-52150000D02*
X100224516Y-52150000D01*
X99550000Y-52019499D02*
X99680501Y-52150000D01*
X97181999Y-52019499D02*
X99550000Y-52019499D01*
X96800000Y-51637500D02*
X97181999Y-52019499D01*
X21000000Y-19350000D02*
X21000000Y-18300000D01*
X100865328Y-51509188D02*
X100865328Y-51484672D01*
X100865328Y-51484672D02*
X101950000Y-50400000D01*
X102562385Y-45993755D02*
X102562385Y-46012385D01*
X102562385Y-46012385D02*
X103550000Y-47000000D01*
X110340559Y-44296699D02*
X110340559Y-44359441D01*
X110340559Y-44359441D02*
X109500000Y-45200000D01*
X104500000Y-58200000D02*
X105366377Y-59066377D01*
X105390812Y-56059188D02*
X104500000Y-56950000D01*
X104500000Y-56950000D02*
X104500000Y-58200000D01*
X105390812Y-56034672D02*
X105390812Y-56059188D01*
X117157236Y-43330890D02*
X117438478Y-43612132D01*
X113904544Y-43330890D02*
X117157236Y-43330890D01*
X113761522Y-43187868D02*
X113904544Y-43330890D01*
X105390812Y-56034672D02*
X105415328Y-56034672D01*
X105415328Y-56034672D02*
X106250000Y-55200000D01*
X110872491Y-43764767D02*
X110340559Y-44296699D01*
X110872491Y-43215705D02*
X110872491Y-43764767D01*
X110340559Y-42683773D02*
X110872491Y-43215705D01*
X110340559Y-41281869D02*
X110340559Y-42683773D01*
X111556051Y-40066377D02*
X110340559Y-41281869D01*
X113133623Y-40066377D02*
X111556051Y-40066377D01*
X99033623Y-42133623D02*
X98100000Y-41200000D01*
X99066377Y-42133623D02*
X99033623Y-42133623D01*
X49000000Y-20700000D02*
X65321944Y-20700000D01*
X66904433Y-19117511D02*
X68798511Y-19117511D01*
X65321944Y-20700000D02*
X66904433Y-19117511D01*
X68798511Y-19117511D02*
X69200000Y-19519000D01*
X69200000Y-19519000D02*
X69200000Y-20700000D01*
X74048511Y-19117511D02*
X74450000Y-19519000D01*
X72082489Y-19117511D02*
X74048511Y-19117511D01*
X70500000Y-20700000D02*
X72082489Y-19117511D01*
X74450000Y-19519000D02*
X74450000Y-20700000D01*
X69200000Y-20700000D02*
X70500000Y-20700000D01*
X79425512Y-19244512D02*
X79700000Y-19519000D01*
X77155488Y-19244512D02*
X79425512Y-19244512D01*
X79700000Y-19519000D02*
X79700000Y-20700000D01*
X75700000Y-20700000D02*
X77155488Y-19244512D01*
X74450000Y-20700000D02*
X75700000Y-20700000D01*
X165550000Y-19519000D02*
X165550000Y-20700000D01*
X111890000Y-19800000D02*
X113490000Y-18200000D01*
X164231000Y-18200000D02*
X165550000Y-19519000D01*
X113490000Y-18200000D02*
X164231000Y-18200000D01*
X114300357Y-50589949D02*
X113810408Y-50100000D01*
X114300357Y-50943503D02*
X114300357Y-50589949D01*
X113810408Y-50100000D02*
X111700000Y-50100000D01*
X103124104Y-61347468D02*
X49902532Y-61347468D01*
X103885786Y-60585786D02*
X103124104Y-61347468D01*
X49902532Y-61347468D02*
X44200000Y-67050000D01*
X32800000Y-27700000D02*
X31599992Y-27700000D01*
X31599992Y-27700000D02*
X31599983Y-27699991D01*
X46264996Y-17965000D02*
X46299996Y-18000000D01*
X37725000Y-17965000D02*
X46264996Y-17965000D01*
X267500000Y-20700000D02*
X266400000Y-20700000D01*
X268966365Y-31500000D02*
X270166365Y-30300000D01*
X267800000Y-31500000D02*
X268966365Y-31500000D01*
X270166365Y-30300000D02*
X272899984Y-30300000D01*
%TO.N,+5V*%
X44200000Y-25600000D02*
X46450000Y-25600000D01*
X42050000Y-23450000D02*
X44200000Y-25600000D01*
X42050000Y-22337500D02*
X42050000Y-23450000D01*
X102250000Y-43418630D02*
X102250000Y-42382754D01*
X103693755Y-44862385D02*
X102250000Y-43418630D01*
X102250000Y-42382754D02*
X102033623Y-42166377D01*
X99811512Y-51438488D02*
X98675988Y-51438488D01*
X100299643Y-50950357D02*
X99811512Y-51438488D01*
X100299643Y-50943503D02*
X100299643Y-50950357D01*
X98675988Y-51438488D02*
X96800000Y-49562500D01*
X112730000Y-21500000D02*
X114430000Y-19800000D01*
X100800000Y-21500000D02*
X112730000Y-21500000D01*
X96800000Y-48300000D02*
X96800000Y-49562500D01*
X120512500Y-50650000D02*
X120500000Y-50637500D01*
X121900000Y-50650000D02*
X120512500Y-50650000D01*
X105956497Y-57356497D02*
X106600000Y-58000000D01*
X105956497Y-56600357D02*
X105956497Y-57356497D01*
X106866377Y-60533623D02*
X108000000Y-59400000D01*
X106833623Y-60533623D02*
X106866377Y-60533623D01*
X125650000Y-79550000D02*
X122600000Y-76500000D01*
X291450000Y-79550000D02*
X125650000Y-79550000D01*
X100865328Y-47690812D02*
X100124516Y-46950000D01*
X99400000Y-46950000D02*
X96800002Y-46950000D01*
X100124516Y-46950000D02*
X99400000Y-46950000D01*
X33100000Y-62300000D02*
X33100000Y-63300000D01*
X35200000Y-60200000D02*
X33100000Y-62300000D01*
X75700000Y-60200000D02*
X35200000Y-60200000D01*
X104963978Y-63206196D02*
X103686261Y-61928479D01*
X106833623Y-60533623D02*
X106833623Y-61867171D01*
X106833623Y-61867171D02*
X105494598Y-63206196D01*
X78171521Y-61928479D02*
X77800000Y-62300000D01*
X103686261Y-61928479D02*
X78171521Y-61928479D01*
X105494598Y-63206196D02*
X104963978Y-63206196D01*
X109774874Y-43731014D02*
X108705887Y-44800001D01*
X108705887Y-44800001D02*
X108699999Y-44800001D01*
X46450000Y-25600000D02*
X46450000Y-26881000D01*
X63962100Y-25600000D02*
X67700000Y-25600000D01*
X62271599Y-27290501D02*
X63962100Y-25600000D01*
X46450000Y-26881000D02*
X46859501Y-27290501D01*
X46859501Y-27290501D02*
X62271599Y-27290501D01*
X102033623Y-42166377D02*
X102713272Y-41486728D01*
X102713272Y-41486728D02*
X102713272Y-41386728D01*
X78200000Y-25600000D02*
X78200000Y-26881000D01*
X78247479Y-26928479D02*
X83066912Y-26928479D01*
X78200000Y-26881000D02*
X78247479Y-26928479D01*
X99300001Y-23800001D02*
X99600000Y-24100000D01*
X83066912Y-26928479D02*
X86195390Y-23800001D01*
X86195390Y-23800001D02*
X99300001Y-23800001D01*
X72000000Y-25600000D02*
X72950000Y-25600000D01*
X68255488Y-27155488D02*
X70444512Y-27155488D01*
X70444512Y-27155488D02*
X72000000Y-25600000D01*
X67700000Y-26600000D02*
X68255488Y-27155488D01*
X67700000Y-25600000D02*
X67700000Y-26600000D01*
X75744512Y-27155488D02*
X77300000Y-25600000D01*
X77300000Y-25600000D02*
X78200000Y-25600000D01*
X73400000Y-27155488D02*
X75744512Y-27155488D01*
X72950000Y-26705488D02*
X73400000Y-27155488D01*
X72950000Y-25600000D02*
X72950000Y-26705488D01*
X113114890Y-50889406D02*
X113085217Y-50889406D01*
X113734672Y-51509188D02*
X113114890Y-50889406D01*
X113085217Y-50889406D02*
X112660953Y-50889406D01*
X114856790Y-51999996D02*
X119499996Y-51999996D01*
X114266604Y-52041120D02*
X114815666Y-52041120D01*
X119499996Y-51999996D02*
X120079064Y-52579064D01*
X114815666Y-52041120D02*
X114856790Y-51999996D01*
X113734672Y-51509188D02*
X114266604Y-52041120D01*
X119700038Y-63700000D02*
X112300012Y-63700000D01*
X112300012Y-63700000D02*
X112300010Y-63700002D01*
X196800000Y-25600000D02*
X197650000Y-25600000D01*
X195600000Y-24400000D02*
X196800000Y-25600000D01*
X168800000Y-24400000D02*
X195600000Y-24400000D01*
X166100000Y-27100000D02*
X168800000Y-24400000D01*
X164400000Y-27100000D02*
X166100000Y-27100000D01*
X164050000Y-26750000D02*
X164400000Y-27100000D01*
X164050000Y-25600000D02*
X164050000Y-26750000D01*
X230100000Y-25600000D02*
X231250000Y-25600000D01*
X226100000Y-21600000D02*
X230100000Y-25600000D01*
X205100000Y-21600000D02*
X226100000Y-21600000D01*
X199544511Y-27155489D02*
X205100000Y-21600000D01*
X197650000Y-25600000D02*
X197650000Y-26750000D01*
X198055489Y-27155489D02*
X199544511Y-27155489D01*
X197650000Y-26750000D02*
X198055489Y-27155489D01*
X262600000Y-24500000D02*
X263700000Y-25600000D01*
X263700000Y-25600000D02*
X264850000Y-25600000D01*
X231600000Y-27155489D02*
X233144511Y-27155489D01*
X231250000Y-26805489D02*
X231600000Y-27155489D01*
X235800000Y-24500000D02*
X262600000Y-24500000D01*
X233144511Y-27155489D02*
X235800000Y-24500000D01*
X231250000Y-25600000D02*
X231250000Y-26805489D01*
X162700000Y-25600000D02*
X164050000Y-25600000D01*
X162200000Y-25100000D02*
X162700000Y-25600000D01*
X146670728Y-24270728D02*
X147500000Y-25100000D01*
X147500000Y-25100000D02*
X162200000Y-25100000D01*
X118900728Y-24270728D02*
X146670728Y-24270728D01*
X114430000Y-19800000D02*
X118900728Y-24270728D01*
D35*
%TO.N,Net-(C2-Pad1)*%
X115812132Y-45238478D02*
X116773654Y-46200000D01*
X116932754Y-46200000D02*
X117766377Y-47033623D01*
X116773654Y-46200000D02*
X116932754Y-46200000D01*
X115473654Y-44900000D02*
X115812132Y-45238478D01*
X112000000Y-44900000D02*
X115473654Y-44900000D01*
X111471930Y-45428070D02*
X112000000Y-44900000D01*
%TO.N,Net-(C3-Pad1)*%
X111718000Y-41482000D02*
X115308346Y-41482000D01*
X115308346Y-41482000D02*
X115387868Y-41561522D01*
X111666377Y-41533623D02*
X111718000Y-41482000D01*
X111800000Y-43968630D02*
X110906245Y-44862385D01*
X111800000Y-41667246D02*
X111800000Y-43968630D01*
X111666377Y-41533623D02*
X111800000Y-41667246D01*
%TO.N,Net-(C6-Pad1)*%
X101732489Y-43506421D02*
X101732489Y-44032489D01*
X101732489Y-44032489D02*
X103128070Y-45428070D01*
X99950000Y-41723932D02*
X101732489Y-43506421D01*
X99950000Y-41250000D02*
X99950000Y-41723932D01*
X100533623Y-40666377D02*
X99950000Y-41250000D01*
%TO.N,Net-(D1-Pad1)*%
X19490000Y-101060000D02*
X36290000Y-101060000D01*
X19490000Y-84660000D02*
X36290000Y-84660000D01*
X43910000Y-73340000D02*
X52310000Y-73340000D01*
X19490000Y-68260000D02*
X23690000Y-68260000D01*
X19490000Y-51860000D02*
X44690000Y-51860000D01*
X18900000Y-30200000D02*
X20050000Y-30200000D01*
X44040000Y-84660000D02*
X44067010Y-84632990D01*
X36290000Y-84660000D02*
X44040000Y-84660000D01*
X28389162Y-68260000D02*
X23690000Y-68260000D01*
X34787162Y-68260000D02*
X28389162Y-68260000D01*
X36767001Y-70239839D02*
X34787162Y-68260000D01*
X39210838Y-73340000D02*
X36767001Y-70896163D01*
X36767001Y-70896163D02*
X36767001Y-70239839D01*
X43910000Y-73340000D02*
X39210838Y-73340000D01*
%TO.N,pin1*%
X137450000Y-26600000D02*
X135900000Y-26600000D01*
X134792990Y-25492990D02*
X106807010Y-25492990D01*
X135900000Y-26600000D02*
X134792990Y-25492990D01*
X105700000Y-26600000D02*
X104050000Y-26600000D01*
X106807010Y-25492990D02*
X105700000Y-26600000D01*
X27800000Y-33000000D02*
X36650000Y-33000000D01*
X25000000Y-30200000D02*
X27800000Y-33000000D01*
X23350000Y-30200000D02*
X25000000Y-30200000D01*
X105956497Y-42599643D02*
X105956497Y-40958194D01*
X105956497Y-40958194D02*
X105264166Y-40265863D01*
X71300000Y-33000000D02*
X70250000Y-33000000D01*
X72307010Y-31992990D02*
X71300000Y-33000000D01*
X80138881Y-31992990D02*
X72307010Y-31992990D01*
X86658872Y-25472999D02*
X80138881Y-31992990D01*
X88041129Y-25472999D02*
X86658872Y-25472999D01*
X89995132Y-27427002D02*
X88041129Y-25472999D01*
X102372998Y-27427002D02*
X89995132Y-27427002D01*
X103200000Y-26600000D02*
X102372998Y-27427002D01*
X104050000Y-26600000D02*
X103200000Y-26600000D01*
X269127001Y-34636961D02*
X269127001Y-33972999D01*
X269700000Y-33400000D02*
X270750000Y-33400000D01*
X268436961Y-35327001D02*
X269127001Y-34636961D01*
X265327001Y-35327001D02*
X268436961Y-35327001D01*
X261992990Y-31992990D02*
X265327001Y-35327001D01*
X245766969Y-34327001D02*
X248100980Y-31992990D01*
X238911398Y-33400000D02*
X239838399Y-34327001D01*
X248100980Y-31992990D02*
X261992990Y-31992990D01*
X239838399Y-34327001D02*
X245766969Y-34327001D01*
X269127001Y-33972999D02*
X269700000Y-33400000D01*
X237250000Y-33400000D02*
X238911398Y-33400000D01*
X236200000Y-33400000D02*
X237250000Y-33400000D01*
X234836960Y-35327001D02*
X235700000Y-34463961D01*
X233563039Y-35327001D02*
X234836960Y-35327001D01*
X230229028Y-31992990D02*
X233563039Y-35327001D01*
X235700000Y-33900000D02*
X236200000Y-33400000D01*
X235700000Y-34463961D02*
X235700000Y-33900000D01*
X214407010Y-31992990D02*
X230229028Y-31992990D01*
X212000000Y-34400000D02*
X214407010Y-31992990D01*
X206211398Y-34400000D02*
X212000000Y-34400000D01*
X205211398Y-33400000D02*
X206211398Y-34400000D01*
X203550000Y-33400000D02*
X205211398Y-33400000D01*
X37800000Y-33000000D02*
X36650000Y-33000000D01*
X41405278Y-34591980D02*
X39391979Y-34591979D01*
X39391979Y-34591979D02*
X37800000Y-33000000D01*
X50800000Y-33411398D02*
X50800000Y-34563962D01*
X70250000Y-33000000D02*
X69200000Y-33000000D01*
X54911398Y-34600000D02*
X52938408Y-32627010D01*
X69200000Y-33000000D02*
X68418988Y-32218988D01*
X51584388Y-32627010D02*
X50800000Y-33411398D01*
X62424844Y-32218988D02*
X60043832Y-34600000D01*
X60043832Y-34600000D02*
X54911398Y-34600000D01*
X42140298Y-35327000D02*
X41405278Y-34591980D01*
X68418988Y-32218988D02*
X62424844Y-32218988D01*
X50036962Y-35327000D02*
X42140298Y-35327000D01*
X50800000Y-34563962D02*
X50036962Y-35327000D01*
X52938408Y-32627010D02*
X51584388Y-32627010D01*
X138650000Y-25400000D02*
X137450000Y-26600000D01*
X169950000Y-33400000D02*
X169100000Y-33400000D01*
X146200000Y-25400000D02*
X138650000Y-25400000D01*
X152800000Y-32000000D02*
X146200000Y-25400000D01*
X154942068Y-32000000D02*
X152800000Y-32000000D01*
X163930990Y-34800000D02*
X157742068Y-34800000D01*
X164457991Y-35327001D02*
X163930990Y-34800000D01*
X167636961Y-35327001D02*
X164457991Y-35327001D01*
X157742068Y-34800000D02*
X154942068Y-32000000D01*
X168327001Y-34636961D02*
X167636961Y-35327001D01*
X169100000Y-33400000D02*
X168327001Y-34172999D01*
X168327001Y-34172999D02*
X168327001Y-34636961D01*
X171600000Y-33400000D02*
X169950000Y-33400000D01*
X172527001Y-34327001D02*
X171600000Y-33400000D01*
X178272999Y-34327001D02*
X172527001Y-34327001D01*
X180600000Y-32000000D02*
X178272999Y-34327001D01*
X190384933Y-29272999D02*
X187657932Y-32000000D01*
X192815067Y-29272999D02*
X190384933Y-29272999D01*
X202100000Y-33900000D02*
X202100000Y-34399998D01*
X198869069Y-35327001D02*
X192815067Y-29272999D01*
X203550000Y-33400000D02*
X202600000Y-33400000D01*
X201172997Y-35327001D02*
X198869069Y-35327001D01*
X202600000Y-33400000D02*
X202100000Y-33900000D01*
X187657932Y-32000000D02*
X180600000Y-32000000D01*
X202100000Y-34399998D02*
X201172997Y-35327001D01*
%TO.N,Net-(D2-Pad1)*%
X22099988Y-25400012D02*
X22100000Y-25400000D01*
X20900000Y-25400012D02*
X22099988Y-25400012D01*
X22100000Y-22900000D02*
X22100000Y-25400000D01*
X21850000Y-22650000D02*
X22100000Y-22900000D01*
X21000000Y-22650000D02*
X21850000Y-22650000D01*
%TO.N,pin6*%
X189700000Y-30600000D02*
X189700000Y-32400000D01*
X189700000Y-32400000D02*
X189100000Y-33000000D01*
X190100000Y-30200000D02*
X189700000Y-30600000D01*
X191150000Y-30200000D02*
X190100000Y-30200000D01*
X189100000Y-33000000D02*
X187850000Y-33000000D01*
X104593364Y-39806636D02*
X104671438Y-39728562D01*
X104593364Y-42367880D02*
X104593364Y-39806636D01*
X105390812Y-43165328D02*
X104593364Y-42367880D01*
X41217220Y-35045990D02*
X41952241Y-35781011D01*
X41952241Y-35781011D02*
X50318989Y-35781011D01*
X23004011Y-34504011D02*
X38661943Y-34504011D01*
X38661943Y-34504011D02*
X39203921Y-35045989D01*
X21500000Y-33000000D02*
X23004011Y-34504011D01*
X39203921Y-35045989D02*
X41217220Y-35045990D01*
X20050000Y-33000000D02*
X21500000Y-33000000D01*
X119500000Y-26600000D02*
X120650000Y-26600000D01*
X118218987Y-27881013D02*
X119500000Y-26600000D01*
X89681013Y-27881013D02*
X118218987Y-27881013D01*
X88200000Y-26400000D02*
X89681013Y-27881013D01*
X87250000Y-26400000D02*
X88200000Y-26400000D01*
X153100000Y-33000000D02*
X154250000Y-33000000D01*
X147700000Y-27600000D02*
X153100000Y-33000000D01*
X122900000Y-27600000D02*
X147700000Y-27600000D01*
X121900000Y-26600000D02*
X122900000Y-27600000D01*
X120650000Y-26600000D02*
X121900000Y-26600000D01*
X265054010Y-35854010D02*
X263127001Y-33927001D01*
X268552020Y-35854010D02*
X265054010Y-35854010D01*
X256200000Y-33000000D02*
X255050000Y-33000000D01*
X269952020Y-34454010D02*
X268552020Y-35854010D01*
X283300000Y-33000000D02*
X282972999Y-32672999D01*
X281663039Y-32672999D02*
X279882028Y-34454010D01*
X263127001Y-33927001D02*
X257127001Y-33927001D01*
X282972999Y-32672999D02*
X281663039Y-32672999D01*
X279882028Y-34454010D02*
X269952020Y-34454010D01*
X257127001Y-33927001D02*
X256200000Y-33000000D01*
X283300000Y-33000000D02*
X284450000Y-33000000D01*
X52250000Y-33600000D02*
X51600000Y-33600000D01*
X51600000Y-33600000D02*
X51300000Y-33900000D01*
X51300000Y-34800000D02*
X50318989Y-35781011D01*
X51300000Y-33900000D02*
X51300000Y-34800000D01*
X54408011Y-35054011D02*
X52954000Y-33600000D01*
X52954000Y-33600000D02*
X52250000Y-33600000D01*
X60231889Y-35054011D02*
X54408011Y-35054011D01*
X64536961Y-32672999D02*
X62612901Y-32672999D01*
X65790963Y-33927001D02*
X64536961Y-32672999D01*
X78872999Y-33927001D02*
X65790963Y-33927001D01*
X86400000Y-26400000D02*
X78872999Y-33927001D01*
X62612901Y-32672999D02*
X60231889Y-35054011D01*
X87250000Y-26400000D02*
X86400000Y-26400000D01*
X155300000Y-33000000D02*
X154250000Y-33000000D01*
X157627001Y-35327001D02*
X155300000Y-33000000D01*
X167825018Y-35781012D02*
X164269933Y-35781011D01*
X163815924Y-35327001D02*
X157627001Y-35327001D01*
X169073040Y-34532990D02*
X167825018Y-35781012D01*
X172338943Y-34781011D02*
X172090922Y-34532990D01*
X172090922Y-34532990D02*
X169073040Y-34532990D01*
X164269933Y-35781011D02*
X163815924Y-35327001D01*
X178755027Y-34781011D02*
X172338943Y-34781011D01*
X187850000Y-33000000D02*
X186900000Y-33000000D01*
X180863039Y-32672999D02*
X178755027Y-34781011D01*
X186572999Y-32672999D02*
X180863039Y-32672999D01*
X186900000Y-33000000D02*
X186572999Y-32672999D01*
X198512002Y-35781012D02*
X192930990Y-30200000D01*
X202609076Y-34532990D02*
X201361055Y-35781012D01*
X205811943Y-34854011D02*
X205490922Y-34532990D01*
X205490922Y-34532990D02*
X202609076Y-34532990D01*
X212282027Y-34854011D02*
X205811943Y-34854011D01*
X214463039Y-32672999D02*
X212282027Y-34854011D01*
X220172999Y-32672999D02*
X214463039Y-32672999D01*
X220500000Y-33000000D02*
X220172999Y-32672999D01*
X192930990Y-30200000D02*
X191150000Y-30200000D01*
X201361055Y-35781012D02*
X198512002Y-35781012D01*
X221450000Y-33000000D02*
X220500000Y-33000000D01*
X223400000Y-34000000D02*
X222400000Y-33000000D01*
X235025018Y-35781012D02*
X233374981Y-35781011D01*
X231593970Y-34000000D02*
X223400000Y-34000000D01*
X236306030Y-34500000D02*
X235025018Y-35781012D01*
X239369330Y-34500000D02*
X236306030Y-34500000D01*
X233374981Y-35781011D02*
X231593970Y-34000000D01*
X245955026Y-34781012D02*
X239650342Y-34781012D01*
X222400000Y-33000000D02*
X221450000Y-33000000D01*
X248063039Y-32672999D02*
X245955026Y-34781012D01*
X254200000Y-33000000D02*
X253872999Y-32672999D01*
X239650342Y-34781012D02*
X239369330Y-34500000D01*
X253872999Y-32672999D02*
X248063039Y-32672999D01*
X255050000Y-33000000D02*
X254200000Y-33000000D01*
%TO.N,Net-(D3-Pad2)*%
X25860000Y-33000000D02*
X25940000Y-32920000D01*
X23350000Y-33000000D02*
X25860000Y-33000000D01*
%TO.N,pin7*%
X62050000Y-49400000D02*
X63300000Y-49400000D01*
X64227001Y-50327001D02*
X85772999Y-50327001D01*
X63300000Y-49400000D02*
X64227001Y-50327001D01*
X86700000Y-49400000D02*
X87850000Y-49400000D01*
X85772999Y-50327001D02*
X86700000Y-49400000D01*
X160700000Y-49400000D02*
X162650000Y-49400000D01*
X159692990Y-48392990D02*
X160700000Y-49400000D01*
X131507010Y-48392990D02*
X159692990Y-48392990D01*
X130500000Y-49400000D02*
X131507010Y-48392990D01*
X129250000Y-49400000D02*
X130500000Y-49400000D01*
X193292990Y-48392990D02*
X194300000Y-49400000D01*
X165107010Y-48392990D02*
X193292990Y-48392990D01*
X164100000Y-49400000D02*
X165107010Y-48392990D01*
X194300000Y-49400000D02*
X196250000Y-49400000D01*
X162650000Y-49400000D02*
X164100000Y-49400000D01*
X231300000Y-48800000D02*
X231300000Y-47200000D01*
X230700000Y-49400000D02*
X231300000Y-48800000D01*
X231900000Y-46600000D02*
X232950000Y-46600000D01*
X231300000Y-47200000D02*
X231900000Y-46600000D01*
X229650000Y-49400000D02*
X230700000Y-49400000D01*
X263619010Y-49369010D02*
X263650000Y-49400000D01*
X235700000Y-48200000D02*
X261730990Y-48200000D01*
X261730990Y-48200000D02*
X262900000Y-49369010D01*
X262900000Y-49369010D02*
X263619010Y-49369010D01*
X234100000Y-46600000D02*
X235700000Y-48200000D01*
X232950000Y-46600000D02*
X234100000Y-46600000D01*
X101996699Y-52603301D02*
X102900000Y-51700000D01*
X101996699Y-52640559D02*
X101996699Y-52603301D01*
X89859543Y-48440457D02*
X93689031Y-48440457D01*
X88900000Y-49400000D02*
X89859543Y-48440457D01*
X87850000Y-49400000D02*
X88900000Y-49400000D01*
X61300000Y-49400000D02*
X62050000Y-49400000D01*
X22072998Y-50372998D02*
X60327002Y-50372998D01*
X60327002Y-50372998D02*
X61300000Y-49400000D01*
X21100000Y-49400000D02*
X22072998Y-50372998D01*
X19850000Y-49400000D02*
X21100000Y-49400000D01*
X227492990Y-48392990D02*
X228500000Y-49400000D01*
X198918408Y-48392990D02*
X227492990Y-48392990D01*
X228500000Y-49400000D02*
X229650000Y-49400000D01*
X197911398Y-49400000D02*
X198918408Y-48392990D01*
X196250000Y-49400000D02*
X197911398Y-49400000D01*
X283300000Y-49400000D02*
X284450000Y-49400000D01*
X282372999Y-50327001D02*
X283300000Y-49400000D01*
X265627001Y-50327001D02*
X282372999Y-50327001D01*
X264700000Y-49400000D02*
X265627001Y-50327001D01*
X263650000Y-49400000D02*
X264700000Y-49400000D01*
X87045988Y-63354012D02*
X86850000Y-63550000D01*
X103054012Y-63354012D02*
X87045988Y-63354012D01*
X106100000Y-64700000D02*
X104400000Y-64700000D01*
X104400000Y-64700000D02*
X103054012Y-63354012D01*
X107727002Y-63072998D02*
X106100000Y-64700000D01*
X128227002Y-63072998D02*
X107727002Y-63072998D01*
X130000000Y-61300000D02*
X128227002Y-63072998D01*
%TO.N,Net-(D4-Pad2)*%
X25860000Y-49400000D02*
X25940000Y-49320000D01*
X23150000Y-49400000D02*
X25860000Y-49400000D01*
X25940000Y-49320000D02*
X30140000Y-49320000D01*
%TO.N,Net-(D5-Pad2)*%
X30140000Y-65720000D02*
X25940000Y-65720000D01*
X25860000Y-65800000D02*
X25940000Y-65720000D01*
X23150000Y-65800000D02*
X25860000Y-65800000D01*
%TO.N,pin8*%
X53450000Y-65800000D02*
X54700000Y-65800000D01*
X55627001Y-66727001D02*
X88772999Y-66727001D01*
X54700000Y-65800000D02*
X55627001Y-66727001D01*
X89700000Y-65800000D02*
X91050000Y-65800000D01*
X88772999Y-66727001D02*
X89700000Y-65800000D01*
X162450000Y-65800000D02*
X163500000Y-65800000D01*
X165032990Y-67332990D02*
X192767010Y-67332990D01*
X163500000Y-65800000D02*
X165032990Y-67332990D01*
X194300000Y-65800000D02*
X196250000Y-65800000D01*
X192767010Y-67332990D02*
X194300000Y-65800000D01*
X196250000Y-65800000D02*
X197500000Y-65800000D01*
X198427001Y-66727001D02*
X226972999Y-66727001D01*
X197500000Y-65800000D02*
X198427001Y-66727001D01*
X227900000Y-65800000D02*
X229850000Y-65800000D01*
X226972999Y-66727001D02*
X227900000Y-65800000D01*
X229850000Y-65800000D02*
X230900000Y-65800000D01*
X231827001Y-66727001D02*
X261972999Y-66727001D01*
X230900000Y-65800000D02*
X231827001Y-66727001D01*
X262900000Y-65800000D02*
X263650000Y-65800000D01*
X261972999Y-66727001D02*
X262900000Y-65800000D01*
X263650000Y-65800000D02*
X264700000Y-65800000D01*
X264700000Y-65800000D02*
X265300000Y-65200000D01*
X265300000Y-65200000D02*
X265300000Y-63600000D01*
X265900000Y-63000000D02*
X266950000Y-63000000D01*
X265300000Y-63600000D02*
X265900000Y-63000000D01*
X281300000Y-64600000D02*
X282500000Y-65800000D01*
X282500000Y-65800000D02*
X284250000Y-65800000D01*
X269900000Y-64600000D02*
X281300000Y-64600000D01*
X268300000Y-63000000D02*
X269900000Y-64600000D01*
X266950000Y-63000000D02*
X268300000Y-63000000D01*
X160700000Y-65800000D02*
X162450000Y-65800000D01*
X159300000Y-67200000D02*
X160700000Y-65800000D01*
X130300000Y-65800000D02*
X131700000Y-67200000D01*
X131700000Y-67200000D02*
X159300000Y-67200000D01*
X128850000Y-65800000D02*
X130300000Y-65800000D01*
X91050000Y-65800000D02*
X92300000Y-65800000D01*
X92300000Y-65800000D02*
X93227001Y-66727001D01*
X127300000Y-65800000D02*
X128850000Y-65800000D01*
X126372999Y-66727001D02*
X127300000Y-65800000D01*
X98627001Y-66727001D02*
X126372999Y-66727001D01*
X93227001Y-66727001D02*
X98627001Y-66727001D01*
X103128070Y-53771930D02*
X101800006Y-55099994D01*
X101800006Y-60025736D02*
X101800006Y-60450000D01*
X101800006Y-55099994D02*
X101800006Y-60025736D01*
X52100000Y-65800000D02*
X53450000Y-65800000D01*
X22832990Y-67332990D02*
X34932990Y-67332990D01*
X34932990Y-67332990D02*
X35981012Y-68381012D01*
X49518988Y-68381012D02*
X52100000Y-65800000D01*
X21300000Y-65800000D02*
X22832990Y-67332990D01*
X35981012Y-68381012D02*
X49518988Y-68381012D01*
X19850000Y-65800000D02*
X21300000Y-65800000D01*
%TO.N,pin9*%
X19650000Y-82200000D02*
X20700000Y-82200000D01*
X21627001Y-83127001D02*
X50972999Y-83127001D01*
X20700000Y-82200000D02*
X21627001Y-83127001D01*
X51900000Y-82200000D02*
X53450000Y-82200000D01*
X50972999Y-83127001D02*
X51900000Y-82200000D01*
X53450000Y-82200000D02*
X54700000Y-82200000D01*
X55627001Y-83127001D02*
X84372999Y-83127001D01*
X54700000Y-82200000D02*
X55627001Y-83127001D01*
X85300000Y-82200000D02*
X86850000Y-82200000D01*
X84372999Y-83127001D02*
X85300000Y-82200000D01*
X120050000Y-82200000D02*
X121300000Y-82200000D01*
X122227001Y-83127001D02*
X151572999Y-83127001D01*
X121300000Y-82200000D02*
X122227001Y-83127001D01*
X152500000Y-82200000D02*
X154050000Y-82200000D01*
X151572999Y-83127001D02*
X152500000Y-82200000D01*
X154050000Y-82200000D02*
X155100000Y-82200000D01*
X156027001Y-83127001D02*
X185172999Y-83127001D01*
X155100000Y-82200000D02*
X156027001Y-83127001D01*
X186100000Y-82200000D02*
X187850000Y-82200000D01*
X185172999Y-83127001D02*
X186100000Y-82200000D01*
X187850000Y-82200000D02*
X189100000Y-82200000D01*
X190027001Y-83127001D02*
X218572999Y-83127001D01*
X189100000Y-82200000D02*
X190027001Y-83127001D01*
X219500000Y-82200000D02*
X221450000Y-82200000D01*
X218572999Y-83127001D02*
X219500000Y-82200000D01*
X221450000Y-82200000D02*
X222700000Y-82200000D01*
X223627001Y-83127001D02*
X252372999Y-83127001D01*
X222700000Y-82200000D02*
X223627001Y-83127001D01*
X253300000Y-82200000D02*
X255050000Y-82200000D01*
X252372999Y-83127001D02*
X253300000Y-82200000D01*
X255050000Y-82200000D02*
X256100000Y-82200000D01*
X257027001Y-83127001D02*
X279372999Y-83127001D01*
X256100000Y-82200000D02*
X257027001Y-83127001D01*
X280300000Y-82200000D02*
X281850000Y-82200000D01*
X279372999Y-83127001D02*
X280300000Y-82200000D01*
X284100000Y-85000000D02*
X285150000Y-85000000D01*
X283500000Y-84400000D02*
X284100000Y-85000000D01*
X282900000Y-82200000D02*
X283500000Y-82800000D01*
X283500000Y-82800000D02*
X283500000Y-84400000D01*
X281850000Y-82200000D02*
X282900000Y-82200000D01*
X88400000Y-82200000D02*
X86850000Y-82200000D01*
X89400000Y-83200000D02*
X88400000Y-82200000D01*
X118800000Y-82200000D02*
X117800000Y-83200000D01*
X120050000Y-82200000D02*
X118800000Y-82200000D01*
X117800000Y-83200000D02*
X89400000Y-83200000D01*
X103054020Y-59454020D02*
X103100000Y-59500000D01*
X103054020Y-58850000D02*
X103054020Y-59454020D01*
X103054020Y-56108722D02*
X103054020Y-58850000D01*
X104259441Y-54903301D02*
X103054020Y-56108722D01*
%TO.N,Net-(D6-Pad2)*%
X34340000Y-82120000D02*
X25940000Y-82120000D01*
X25860000Y-82200000D02*
X25940000Y-82120000D01*
X22950000Y-82200000D02*
X25860000Y-82200000D01*
%TO.N,Net-(D7-Pad2)*%
X25860000Y-98600000D02*
X25940000Y-98520000D01*
X23150000Y-98600000D02*
X25860000Y-98600000D01*
X25940000Y-98520000D02*
X34340000Y-98520000D01*
%TO.N,pin10*%
X120000000Y-98600000D02*
X120850000Y-98600000D01*
X85427001Y-99527001D02*
X119072999Y-99527001D01*
X84500000Y-98600000D02*
X85427001Y-99527001D01*
X119072999Y-99527001D02*
X120000000Y-98600000D01*
X83150000Y-98600000D02*
X84500000Y-98600000D01*
X55775000Y-99900000D02*
X80900000Y-99900000D01*
X54475000Y-98600000D02*
X55775000Y-99900000D01*
X82200000Y-98600000D02*
X83150000Y-98600000D01*
X80900000Y-99900000D02*
X82200000Y-98600000D01*
X53450000Y-98600000D02*
X54475000Y-98600000D01*
X122902001Y-99527001D02*
X152772999Y-99527001D01*
X153700000Y-98600000D02*
X154450000Y-98600000D01*
X121975000Y-98600000D02*
X122902001Y-99527001D01*
X152772999Y-99527001D02*
X153700000Y-98600000D01*
X120850000Y-98600000D02*
X121975000Y-98600000D01*
X184700000Y-98600000D02*
X186250000Y-98600000D01*
X183772999Y-99527001D02*
X184700000Y-98600000D01*
X156627001Y-99527001D02*
X183772999Y-99527001D01*
X155700000Y-98600000D02*
X156627001Y-99527001D01*
X154450000Y-98600000D02*
X155700000Y-98600000D01*
X219775000Y-98600000D02*
X221250000Y-98600000D01*
X188427001Y-99527001D02*
X218847999Y-99527001D01*
X218847999Y-99527001D02*
X219775000Y-98600000D01*
X187500000Y-98600000D02*
X188427001Y-99527001D01*
X186250000Y-98600000D02*
X187500000Y-98600000D01*
X254500000Y-98600000D02*
X255350000Y-98600000D01*
X222500000Y-98600000D02*
X223427001Y-99527001D01*
X253572999Y-99527001D02*
X254500000Y-98600000D01*
X223427001Y-99527001D02*
X253572999Y-99527001D01*
X221250000Y-98600000D02*
X222500000Y-98600000D01*
X280100000Y-98600000D02*
X281250000Y-98600000D01*
X279172999Y-99527001D02*
X280100000Y-98600000D01*
X257627001Y-99527001D02*
X279172999Y-99527001D01*
X256700000Y-98600000D02*
X257627001Y-99527001D01*
X255350000Y-98600000D02*
X256700000Y-98600000D01*
X109209188Y-56034672D02*
X109700004Y-56525488D01*
X109700004Y-56525488D02*
X109700004Y-58300000D01*
X281250000Y-95800000D02*
X281250000Y-98600000D01*
X21300000Y-98600000D02*
X22300000Y-99600000D01*
X51900000Y-98600000D02*
X53450000Y-98600000D01*
X50900000Y-99600000D02*
X51900000Y-98600000D01*
X22300000Y-99600000D02*
X50900000Y-99600000D01*
X19850000Y-98600000D02*
X21300000Y-98600000D01*
%TO.N,RE1_2*%
X62100000Y-29000000D02*
X63900000Y-29000000D01*
X59540000Y-31560000D02*
X62100000Y-29000000D01*
X59540000Y-32920000D02*
X59540000Y-31560000D01*
X58860000Y-33600000D02*
X59540000Y-32920000D01*
X55550000Y-33600000D02*
X58860000Y-33600000D01*
%TO.N,Net-(D9-Pad2)*%
X42660000Y-33000000D02*
X42740000Y-32920000D01*
X39950000Y-33000000D02*
X42660000Y-33000000D01*
%TO.N,pin2*%
X69730990Y-49400000D02*
X70450000Y-49400000D01*
X66930990Y-46600000D02*
X69730990Y-49400000D01*
X65350000Y-46600000D02*
X66930990Y-46600000D01*
X213050000Y-49400000D02*
X214100000Y-49400000D01*
X145850000Y-49400000D02*
X146900000Y-49400000D01*
X147827001Y-50327001D02*
X176772999Y-50327001D01*
X146900000Y-49400000D02*
X147827001Y-50327001D01*
X177700000Y-49400000D02*
X179450000Y-49400000D01*
X176772999Y-50327001D02*
X177700000Y-49400000D01*
X245043989Y-50327001D02*
X245900000Y-49470990D01*
X215027001Y-50327001D02*
X245043989Y-50327001D01*
X214100000Y-49400000D02*
X215027001Y-50327001D01*
X245900000Y-49470990D02*
X246779010Y-49470990D01*
X99620147Y-47577001D02*
X100299643Y-48256497D01*
X71750000Y-49400000D02*
X73572999Y-47577001D01*
X70450000Y-49400000D02*
X71750000Y-49400000D01*
X83277001Y-47577001D02*
X83300000Y-47600000D01*
X83300000Y-47600000D02*
X99620147Y-47577001D01*
X73572999Y-47577001D02*
X83277001Y-47577001D01*
X125927001Y-50327001D02*
X126200000Y-50327001D01*
X125000000Y-49400000D02*
X125927001Y-50327001D01*
X123850000Y-49400000D02*
X125000000Y-49400000D01*
X105911943Y-64245989D02*
X104629834Y-64245989D01*
X107538945Y-62618987D02*
X105911943Y-64245989D01*
X85100003Y-62900001D02*
X84700004Y-63300000D01*
X103283846Y-62900001D02*
X85100003Y-62900001D01*
X119181013Y-62618987D02*
X107538945Y-62618987D01*
X104629834Y-64245989D02*
X103283846Y-62900001D01*
X120500000Y-61300000D02*
X119181013Y-62618987D01*
X181627001Y-50327001D02*
X211122999Y-50327001D01*
X180700000Y-49400000D02*
X181627001Y-50327001D01*
X212050000Y-49400000D02*
X213050000Y-49400000D01*
X211122999Y-50327001D02*
X212050000Y-49400000D01*
X179450000Y-49400000D02*
X180700000Y-49400000D01*
X143872999Y-50327001D02*
X126200000Y-50327001D01*
X144800000Y-49400000D02*
X143872999Y-50327001D01*
X145850000Y-49400000D02*
X144800000Y-49400000D01*
X36900000Y-49400000D02*
X38300000Y-48000000D01*
X64100000Y-46600000D02*
X65350000Y-46600000D01*
X62700000Y-48000000D02*
X64100000Y-46600000D01*
X38300000Y-48000000D02*
X62700000Y-48000000D01*
X35650000Y-49400000D02*
X36900000Y-49400000D01*
%TO.N,Net-(D10-Pad2)*%
X42660000Y-49400000D02*
X42740000Y-49320000D01*
X38950000Y-49400000D02*
X42660000Y-49400000D01*
X42740000Y-49320000D02*
X51140000Y-49320000D01*
%TO.N,Net-(D11-Pad2)*%
X37460000Y-75880000D02*
X45860000Y-75880000D01*
X35750000Y-65800000D02*
X36800000Y-65800000D01*
%TO.N,pin3*%
X70450000Y-65800000D02*
X71500000Y-65800000D01*
X71500000Y-65800000D02*
X72100000Y-65200000D01*
X72100000Y-65200000D02*
X72100000Y-63600000D01*
X72700000Y-63000000D02*
X73750000Y-63000000D01*
X72100000Y-63600000D02*
X72700000Y-63000000D01*
X154650000Y-65800000D02*
X155900000Y-65800000D01*
X156907010Y-64792990D02*
X176892990Y-64792990D01*
X155900000Y-65800000D02*
X156907010Y-64792990D01*
X177900000Y-65800000D02*
X179450000Y-65800000D01*
X176892990Y-64792990D02*
X177900000Y-65800000D01*
X179450000Y-65800000D02*
X180900000Y-65800000D01*
X181907010Y-64792990D02*
X210292990Y-64792990D01*
X180900000Y-65800000D02*
X181907010Y-64792990D01*
X211300000Y-65800000D02*
X213050000Y-65800000D01*
X210292990Y-64792990D02*
X211300000Y-65800000D01*
X213050000Y-65800000D02*
X214300000Y-65800000D01*
X215307010Y-64792990D02*
X245123980Y-64792990D01*
X245123980Y-64792990D02*
X246100000Y-65769010D01*
X214300000Y-65800000D02*
X215307010Y-64792990D01*
X246819010Y-65769010D02*
X246850000Y-65800000D01*
X246100000Y-65769010D02*
X246819010Y-65769010D01*
X69730990Y-65800000D02*
X70450000Y-65800000D01*
X52307010Y-64792990D02*
X68723980Y-64792990D01*
X49172999Y-67927001D02*
X52307010Y-64792990D01*
X68723980Y-64792990D02*
X69730990Y-65800000D01*
X36227001Y-67927001D02*
X49172999Y-67927001D01*
X34100000Y-65800000D02*
X36227001Y-67927001D01*
X32450000Y-65800000D02*
X34100000Y-65800000D01*
X102562385Y-53206245D02*
X101299999Y-54468631D01*
X101299999Y-54468631D02*
X101299999Y-59599995D01*
X101299999Y-59599995D02*
X101149994Y-59750000D01*
X88456760Y-64700000D02*
X99200000Y-64700000D01*
X76600000Y-64700000D02*
X88456760Y-64700000D01*
X74900000Y-63000000D02*
X76600000Y-64700000D01*
X73750000Y-63000000D02*
X74900000Y-63000000D01*
X104200000Y-65200000D02*
X103700000Y-64700000D01*
X110000000Y-65200000D02*
X104200000Y-65200000D01*
X112050000Y-65800000D02*
X110600000Y-65800000D01*
X110600000Y-65800000D02*
X110000000Y-65200000D01*
X103700000Y-64700000D02*
X99200000Y-64700000D01*
X149372990Y-61372990D02*
X153800000Y-65800000D01*
X114034974Y-64792990D02*
X137808895Y-64792990D01*
X141228895Y-61372990D02*
X149372990Y-61372990D01*
X153800000Y-65800000D02*
X154650000Y-65800000D01*
X112050000Y-65800000D02*
X113027964Y-65800000D01*
X137808895Y-64792990D02*
X141228895Y-61372990D01*
X113027964Y-65800000D02*
X114034974Y-64792990D01*
%TO.N,pin4*%
X36850000Y-82200000D02*
X38100000Y-82200000D01*
X39107010Y-81192990D02*
X67092990Y-81192990D01*
X38100000Y-82200000D02*
X39107010Y-81192990D01*
X68100000Y-82200000D02*
X70050000Y-82200000D01*
X67092990Y-81192990D02*
X68100000Y-82200000D01*
X103330990Y-82200000D02*
X104050000Y-82200000D01*
X102323980Y-81192990D02*
X103330990Y-82200000D01*
X71500000Y-82200000D02*
X72507010Y-81192990D01*
X70050000Y-82200000D02*
X71500000Y-82200000D01*
X104050000Y-82200000D02*
X105300000Y-82200000D01*
X106307010Y-81192990D02*
X120292990Y-81192990D01*
X105300000Y-82200000D02*
X106307010Y-81192990D01*
X122085980Y-79400000D02*
X123350000Y-79400000D01*
X120292990Y-81192990D02*
X122085980Y-79400000D01*
X123350000Y-79400000D02*
X124700000Y-79400000D01*
X124700000Y-79400000D02*
X126300000Y-81000000D01*
X126300000Y-81000000D02*
X134500000Y-81000000D01*
X135700000Y-82200000D02*
X137250000Y-82200000D01*
X134500000Y-81000000D02*
X135700000Y-82200000D01*
X137250000Y-82200000D02*
X138700000Y-82200000D01*
X139707010Y-81192990D02*
X168292990Y-81192990D01*
X138700000Y-82200000D02*
X139707010Y-81192990D01*
X169300000Y-82200000D02*
X171050000Y-82200000D01*
X168292990Y-81192990D02*
X169300000Y-82200000D01*
X171050000Y-82200000D02*
X172500000Y-82200000D01*
X173507010Y-81192990D02*
X201892990Y-81192990D01*
X172500000Y-82200000D02*
X173507010Y-81192990D01*
X202900000Y-82200000D02*
X204650000Y-82200000D01*
X201892990Y-81192990D02*
X202900000Y-82200000D01*
X204650000Y-82200000D02*
X206100000Y-82200000D01*
X207107010Y-81192990D02*
X235892990Y-81192990D01*
X206100000Y-82200000D02*
X207107010Y-81192990D01*
X236900000Y-82200000D02*
X238450000Y-82200000D01*
X235892990Y-81192990D02*
X236900000Y-82200000D01*
X238450000Y-82200000D02*
X239700000Y-82200000D01*
X240707010Y-81192990D02*
X269292990Y-81192990D01*
X239700000Y-82200000D02*
X240707010Y-81192990D01*
X270300000Y-82200000D02*
X271850000Y-82200000D01*
X269292990Y-81192990D02*
X270300000Y-82200000D01*
X100242990Y-81192990D02*
X102323980Y-81192990D01*
X72507010Y-81192990D02*
X100242990Y-81192990D01*
X102427010Y-55604360D02*
X102427010Y-58977010D01*
X103693755Y-54337615D02*
X102427010Y-55604360D01*
%TO.N,Net-(D12-Pad2)*%
X42660000Y-82200000D02*
X42740000Y-82120000D01*
X40150000Y-82200000D02*
X42660000Y-82200000D01*
%TO.N,Net-(D13-Pad2)*%
X42660000Y-98600000D02*
X42740000Y-98520000D01*
X40150000Y-98600000D02*
X42660000Y-98600000D01*
%TO.N,pin5*%
X101592990Y-97592990D02*
X102600000Y-98600000D01*
X69250000Y-98900000D02*
X70300000Y-98900000D01*
X75432009Y-97717001D02*
X75556020Y-97592990D01*
X102600000Y-98600000D02*
X103650000Y-98600000D01*
X70300000Y-98900000D02*
X71482999Y-97717001D01*
X71482999Y-97717001D02*
X75432009Y-97717001D01*
X75556020Y-97592990D02*
X101592990Y-97592990D01*
X68300000Y-98900000D02*
X69200000Y-98900000D01*
X66800000Y-97400000D02*
X68300000Y-98900000D01*
X39300000Y-97400000D02*
X66800000Y-97400000D01*
X38100000Y-98600000D02*
X39300000Y-97400000D01*
X36850000Y-98600000D02*
X38100000Y-98600000D01*
X132000000Y-98600000D02*
X133050000Y-98600000D01*
X104900000Y-98600000D02*
X105907010Y-97592990D01*
X130992990Y-97592990D02*
X132000000Y-98600000D01*
X103650000Y-98600000D02*
X104900000Y-98600000D01*
X193032009Y-97717001D02*
X193156020Y-97592990D01*
X195492990Y-97592990D02*
X196500000Y-98600000D01*
X193156020Y-97592990D02*
X195492990Y-97592990D01*
X190063828Y-97592990D02*
X190187839Y-97717001D01*
X168707010Y-97592990D02*
X190063828Y-97592990D01*
X196500000Y-98600000D02*
X197850000Y-98600000D01*
X167700000Y-98600000D02*
X168707010Y-97592990D01*
X190187839Y-97717001D02*
X193032009Y-97717001D01*
X166650000Y-98600000D02*
X167700000Y-98600000D01*
X235100000Y-98600000D02*
X233850000Y-98600000D01*
X270500000Y-98600000D02*
X269492990Y-97592990D01*
X236107010Y-97592990D02*
X235100000Y-98600000D01*
X269492990Y-97592990D02*
X236107010Y-97592990D01*
X271650000Y-98600000D02*
X270500000Y-98600000D01*
X108907010Y-97592990D02*
X130992990Y-97592990D01*
X105907010Y-97592990D02*
X108907010Y-97592990D01*
X104825126Y-55468986D02*
X103800000Y-56494112D01*
X103800000Y-56494112D02*
X103800000Y-58950000D01*
X162300000Y-98600000D02*
X166650000Y-98600000D01*
X159700000Y-96000000D02*
X162300000Y-98600000D01*
X156700000Y-96000000D02*
X159700000Y-96000000D01*
X155200000Y-97500000D02*
X156700000Y-96000000D01*
X135200000Y-97500000D02*
X155200000Y-97500000D01*
X134100000Y-98600000D02*
X135200000Y-97500000D01*
X133050000Y-98600000D02*
X134100000Y-98600000D01*
X231267990Y-97592990D02*
X232275000Y-98600000D01*
X232275000Y-98600000D02*
X233850000Y-98600000D01*
X199807010Y-97592990D02*
X231267990Y-97592990D01*
X198800000Y-98600000D02*
X199807010Y-97592990D01*
X197850000Y-98600000D02*
X198800000Y-98600000D01*
%TO.N,Net-(D16-Pad2)*%
X67860000Y-49400000D02*
X67940000Y-49320000D01*
X65350000Y-49400000D02*
X67860000Y-49400000D01*
X60387001Y-48472999D02*
X63372999Y-48472999D01*
X59540000Y-49320000D02*
X60387001Y-48472999D01*
X64300000Y-49400000D02*
X65350000Y-49400000D01*
X63372999Y-48472999D02*
X64300000Y-49400000D01*
%TO.N,Net-(D17-Pad2)*%
X59460000Y-65800000D02*
X59540000Y-65720000D01*
X56750000Y-65800000D02*
X59460000Y-65800000D01*
X59540000Y-65720000D02*
X67940000Y-65720000D01*
%TO.N,Net-(D18-Pad2)*%
X59460000Y-82200000D02*
X59540000Y-82120000D01*
X56750000Y-82200000D02*
X59460000Y-82200000D01*
%TO.N,Net-(D19-Pad2)*%
X59460000Y-98600000D02*
X59540000Y-98520000D01*
X56750000Y-98600000D02*
X59460000Y-98600000D01*
X63740000Y-98520000D02*
X59540000Y-98520000D01*
%TO.N,Net-(D20-Pad2)*%
X76260000Y-33000000D02*
X76340000Y-32920000D01*
X73550000Y-33000000D02*
X76260000Y-33000000D01*
%TO.N,Net-(D21-Pad2)*%
X76340000Y-49320000D02*
X84740000Y-49320000D01*
X76260000Y-49400000D02*
X76340000Y-49320000D01*
X73750000Y-49400000D02*
X76260000Y-49400000D01*
%TO.N,Net-(D22-Pad2)*%
X76260000Y-65800000D02*
X76340000Y-65720000D01*
X73750000Y-65800000D02*
X76260000Y-65800000D01*
X76340000Y-65720000D02*
X84740000Y-65720000D01*
%TO.N,Net-(D23-Pad2)*%
X76260000Y-82200000D02*
X76340000Y-82120000D01*
X73350000Y-82200000D02*
X76260000Y-82200000D01*
%TO.N,Net-(D24-Pad2)*%
X76340000Y-98520000D02*
X80540000Y-98520000D01*
X75960000Y-98900000D02*
X76340000Y-98520000D01*
X72550000Y-98900000D02*
X75960000Y-98900000D01*
%TO.N,Net-(D25-Pad1)*%
X82490000Y-101060000D02*
X86690000Y-101060000D01*
X111890000Y-101060000D02*
X103490000Y-101060000D01*
X86690000Y-84660000D02*
X103490000Y-84660000D01*
X90890000Y-68260000D02*
X95090000Y-68260000D01*
X95882999Y-57732999D02*
X96360000Y-58210000D01*
X92637001Y-57732999D02*
X95882999Y-57732999D01*
X92160000Y-58210000D02*
X92637001Y-57732999D01*
X69890000Y-51860000D02*
X78290000Y-51860000D01*
X69890000Y-35460000D02*
X86690000Y-35460000D01*
X86690000Y-101060000D02*
X103490000Y-101060000D01*
X87160000Y-51860000D02*
X87167001Y-51867001D01*
X78290000Y-51860000D02*
X87160000Y-51860000D01*
X76895989Y-64245989D02*
X91904011Y-64245989D01*
X71400000Y-62050000D02*
X74700000Y-62050000D01*
X91904011Y-64245989D02*
X92160000Y-63990000D01*
X74700000Y-62050000D02*
X76895989Y-64245989D01*
X70450000Y-63000000D02*
X71400000Y-62050000D01*
%TO.N,Net-(D26-Pad2)*%
X90570000Y-26420000D02*
X90550000Y-26400000D01*
X93140000Y-26420000D02*
X90570000Y-26420000D01*
%TO.N,Net-(D27-Pad2)*%
X89620000Y-51760000D02*
X93820000Y-51760000D01*
X89950000Y-49400000D02*
X91150000Y-49400000D01*
%TO.N,Net-(D28-Pad2)*%
X97260000Y-65800000D02*
X97340000Y-65720000D01*
X94350000Y-65800000D02*
X97260000Y-65800000D01*
X97340000Y-65720000D02*
X97401012Y-65781012D01*
X101478988Y-65781012D02*
X101540000Y-65720000D01*
X97401012Y-65781012D02*
X101478988Y-65781012D01*
%TO.N,Net-(D29-Pad2)*%
X93060000Y-82200000D02*
X93140000Y-82120000D01*
X90150000Y-82200000D02*
X93060000Y-82200000D01*
X93140000Y-82120000D02*
X101540000Y-82120000D01*
%TO.N,Net-(D30-Pad2)*%
X93140000Y-98520000D02*
X88940000Y-98520000D01*
X88860000Y-98600000D02*
X88940000Y-98520000D01*
X86450000Y-98600000D02*
X88860000Y-98600000D01*
%TO.N,Net-(D31-Pad2)*%
X109760000Y-26600000D02*
X109940000Y-26420000D01*
X107350000Y-26600000D02*
X109760000Y-26600000D01*
%TO.N,Net-(D32-Pad2)*%
X127150000Y-49400000D02*
X125900000Y-49400000D01*
X125900000Y-49400000D02*
X125899997Y-49399997D01*
%TO.N,Net-(D33-Pad2)*%
X118260000Y-65800000D02*
X118340000Y-65720000D01*
X115350000Y-65800000D02*
X118260000Y-65800000D01*
%TO.N,Net-(D34-Pad2)*%
X109860000Y-82200000D02*
X109940000Y-82120000D01*
X107350000Y-82200000D02*
X109860000Y-82200000D01*
%TO.N,Net-(D35-Pad2)*%
X118340000Y-98520000D02*
X109940000Y-98520000D01*
X109860000Y-98600000D02*
X109940000Y-98520000D01*
X106950000Y-98600000D02*
X109860000Y-98600000D01*
%TO.N,Net-(D36-Pad1)*%
X145490000Y-101060000D02*
X120290000Y-101060000D01*
X103490000Y-28960000D02*
X120290000Y-28960000D01*
X111890000Y-68260000D02*
X128690000Y-68260000D01*
X121100000Y-79400000D02*
X120050000Y-79400000D01*
X118240000Y-50590000D02*
X118823982Y-50590000D01*
X118823982Y-50590000D02*
X119833982Y-51600000D01*
X128430000Y-51600000D02*
X128690000Y-51860000D01*
X119833982Y-51600000D02*
X128430000Y-51600000D01*
%TO.N,Net-(D37-Pad2)*%
X126560000Y-26600000D02*
X126740000Y-26420000D01*
X123950000Y-26600000D02*
X126560000Y-26600000D01*
%TO.N,Net-(D38-Pad2)*%
X135060000Y-49400000D02*
X135140000Y-49320000D01*
X132550000Y-49400000D02*
X135060000Y-49400000D01*
%TO.N,Net-(D39-Pad2)*%
X135060000Y-65800000D02*
X135140000Y-65720000D01*
X132150000Y-65800000D02*
X135060000Y-65800000D01*
%TO.N,Net-(D40-Pad2)*%
X126660000Y-82200000D02*
X126740000Y-82120000D01*
X123350000Y-82200000D02*
X126660000Y-82200000D01*
%TO.N,Net-(D41-Pad2)*%
X126660000Y-98600000D02*
X126740000Y-98520000D01*
X124150000Y-98600000D02*
X126660000Y-98600000D01*
%TO.N,Net-(D42-Pad2)*%
X143360000Y-26600000D02*
X143540000Y-26420000D01*
X140750000Y-26600000D02*
X143360000Y-26600000D01*
%TO.N,Net-(D43-Pad2)*%
X151860000Y-49400000D02*
X151940000Y-49320000D01*
X149150000Y-49400000D02*
X151860000Y-49400000D01*
%TO.N,Net-(D44-Pad2)*%
X156900000Y-65800000D02*
X157950000Y-65800000D01*
X155954011Y-66745989D02*
X156900000Y-65800000D01*
X152965989Y-66745989D02*
X155954011Y-66745989D01*
X151940000Y-65720000D02*
X152965989Y-66745989D01*
%TO.N,Net-(D45-Pad2)*%
X143460000Y-82200000D02*
X143540000Y-82120000D01*
X140550000Y-82200000D02*
X143460000Y-82200000D01*
%TO.N,Net-(D46-Pad2)*%
X139260000Y-98600000D02*
X139340000Y-98520000D01*
X136350000Y-98600000D02*
X139260000Y-98600000D01*
X151940000Y-98520000D02*
X139340000Y-98520000D01*
%TO.N,Net-(D47-Pad1)*%
X145490000Y-51860000D02*
X162290000Y-51860000D01*
X137090000Y-35460000D02*
X153890000Y-35460000D01*
X137090000Y-84660000D02*
X153890000Y-84660000D01*
X145490000Y-68260000D02*
X162290000Y-68260000D01*
X154450000Y-96000000D02*
X155600000Y-96000000D01*
%TO.N,Net-(D48-Pad2)*%
X160260000Y-33000000D02*
X160340000Y-32920000D01*
X157550000Y-33000000D02*
X160260000Y-33000000D01*
%TO.N,Net-(D49-Pad2)*%
X168660000Y-49400000D02*
X168740000Y-49320000D01*
X165950000Y-49400000D02*
X168660000Y-49400000D01*
%TO.N,Net-(D50-Pad2)*%
X168660000Y-65800000D02*
X168740000Y-65720000D01*
X165750000Y-65800000D02*
X168660000Y-65800000D01*
%TO.N,Net-(D51-Pad2)*%
X160260000Y-82200000D02*
X160340000Y-82120000D01*
X157350000Y-82200000D02*
X160260000Y-82200000D01*
%TO.N,Net-(D52-Pad2)*%
X160260000Y-98600000D02*
X160340000Y-98520000D01*
X157750000Y-98600000D02*
X160260000Y-98600000D01*
%TO.N,RE3_2*%
X210260000Y-33400000D02*
X210740000Y-32920000D01*
X206850000Y-33400000D02*
X210260000Y-33400000D01*
X213356168Y-29000000D02*
X215100000Y-29000000D01*
X210740000Y-31616168D02*
X213356168Y-29000000D01*
X210740000Y-32920000D02*
X210740000Y-31616168D01*
%TO.N,Net-(D55-Pad2)*%
X185460000Y-49400000D02*
X185540000Y-49320000D01*
X182750000Y-49400000D02*
X185460000Y-49400000D01*
%TO.N,Net-(D56-Pad2)*%
X185460000Y-65800000D02*
X185540000Y-65720000D01*
X182750000Y-65800000D02*
X185460000Y-65800000D01*
%TO.N,Net-(D57-Pad2)*%
X177060000Y-82200000D02*
X177140000Y-82120000D01*
X174350000Y-82200000D02*
X177060000Y-82200000D01*
%TO.N,Net-(D58-Pad2)*%
X172860000Y-98600000D02*
X172940000Y-98520000D01*
X169950000Y-98600000D02*
X172860000Y-98600000D01*
X172940000Y-98520000D02*
X181340000Y-98520000D01*
%TO.N,Net-(D60-Pad2)*%
X193860000Y-33000000D02*
X193940000Y-32920000D01*
X191150000Y-33000000D02*
X193860000Y-33000000D01*
%TO.N,Net-(D61-Pad2)*%
X202260000Y-49400000D02*
X202340000Y-49320000D01*
X199550000Y-49400000D02*
X202260000Y-49400000D01*
%TO.N,Net-(D62-Pad2)*%
X202260000Y-65800000D02*
X202340000Y-65720000D01*
X199550000Y-65800000D02*
X202260000Y-65800000D01*
%TO.N,Net-(D63-Pad2)*%
X193860000Y-82200000D02*
X193940000Y-82120000D01*
X191150000Y-82200000D02*
X193860000Y-82200000D01*
%TO.N,Net-(D64-Pad2)*%
X193860000Y-98600000D02*
X193940000Y-98520000D01*
X189550000Y-98600000D02*
X193860000Y-98600000D01*
%TO.N,RE4_2*%
X243860000Y-33400000D02*
X244340000Y-32920000D01*
X240550000Y-33400000D02*
X243860000Y-33400000D01*
X246956168Y-29000000D02*
X248700000Y-29000000D01*
X244340000Y-31616168D02*
X246956168Y-29000000D01*
X244340000Y-32920000D02*
X244340000Y-31616168D01*
%TO.N,Net-(D67-Pad2)*%
X219060000Y-49400000D02*
X219140000Y-49320000D01*
X216350000Y-49400000D02*
X219060000Y-49400000D01*
X219140000Y-49320000D02*
X223340000Y-49320000D01*
%TO.N,Net-(D68-Pad2)*%
X219060000Y-65800000D02*
X219140000Y-65720000D01*
X216350000Y-65800000D02*
X219060000Y-65800000D01*
X219140000Y-65720000D02*
X223340000Y-65720000D01*
%TO.N,Net-(D69-Pad2)*%
X210660000Y-82200000D02*
X210740000Y-82120000D01*
X207950000Y-82200000D02*
X210660000Y-82200000D01*
%TO.N,Net-(D70-Pad2)*%
X213860000Y-108680000D02*
X201260000Y-108680000D01*
X201150000Y-98600000D02*
X200000000Y-98600000D01*
%TO.N,Net-(D72-Pad2)*%
X227460000Y-33000000D02*
X227540000Y-32920000D01*
X224750000Y-33000000D02*
X227460000Y-33000000D01*
%TO.N,Net-(D73-Pad2)*%
X244340000Y-49320000D02*
X235940000Y-49320000D01*
X235860000Y-49400000D02*
X235940000Y-49320000D01*
X232950000Y-49400000D02*
X235860000Y-49400000D01*
%TO.N,Net-(D74-Pad2)*%
X235860000Y-65800000D02*
X235940000Y-65720000D01*
X233150000Y-65800000D02*
X235860000Y-65800000D01*
X235940000Y-65720000D02*
X244340000Y-65720000D01*
%TO.N,Net-(D75-Pad2)*%
X227460000Y-82200000D02*
X227540000Y-82120000D01*
X224750000Y-82200000D02*
X227460000Y-82200000D01*
%TO.N,Net-(D76-Pad2)*%
X227460000Y-98600000D02*
X227540000Y-98520000D01*
X224550000Y-98600000D02*
X227460000Y-98600000D01*
%TO.N,RE5_2*%
X277460000Y-33400000D02*
X277940000Y-32920000D01*
X274050000Y-33400000D02*
X277460000Y-33400000D01*
X280556168Y-29000000D02*
X282300000Y-29000000D01*
X277940000Y-31616168D02*
X280556168Y-29000000D01*
X277940000Y-32920000D02*
X277940000Y-31616168D01*
%TO.N,Net-(D79-Pad2)*%
X252660000Y-49400000D02*
X252740000Y-49320000D01*
X250150000Y-49400000D02*
X252660000Y-49400000D01*
X252740000Y-49320000D02*
X261140000Y-49320000D01*
%TO.N,Net-(D80-Pad2)*%
X252660000Y-65800000D02*
X252740000Y-65720000D01*
X250150000Y-65800000D02*
X252660000Y-65800000D01*
X252740000Y-65720000D02*
X261140000Y-65720000D01*
%TO.N,Net-(D81-Pad2)*%
X244260000Y-82200000D02*
X244340000Y-82120000D01*
X241750000Y-82200000D02*
X244260000Y-82200000D01*
%TO.N,Net-(D82-Pad2)*%
X240060000Y-98600000D02*
X240140000Y-98520000D01*
X237150000Y-98600000D02*
X240060000Y-98600000D01*
X240140000Y-98520000D02*
X252740000Y-98520000D01*
%TO.N,Net-(D84-Pad2)*%
X261060000Y-33000000D02*
X261140000Y-32920000D01*
X258350000Y-33000000D02*
X261060000Y-33000000D01*
%TO.N,Net-(D85-Pad2)*%
X269460000Y-49400000D02*
X269540000Y-49320000D01*
X266950000Y-49400000D02*
X269460000Y-49400000D01*
X269540000Y-49320000D02*
X277940000Y-49320000D01*
%TO.N,Net-(D86-Pad2)*%
X269460000Y-65800000D02*
X269540000Y-65720000D01*
X266950000Y-65800000D02*
X269460000Y-65800000D01*
X269540000Y-65720000D02*
X277940000Y-65720000D01*
%TO.N,Net-(D87-Pad2)*%
X261060000Y-82200000D02*
X261140000Y-82120000D01*
X258350000Y-82200000D02*
X261060000Y-82200000D01*
%TO.N,Net-(D88-Pad2)*%
X261060000Y-98600000D02*
X261140000Y-98520000D01*
X258650000Y-98600000D02*
X261060000Y-98600000D01*
%TO.N,Net-(D91-Pad2)*%
X277860000Y-82200000D02*
X277940000Y-82120000D01*
X275150000Y-82200000D02*
X277860000Y-82200000D01*
%TO.N,Net-(D92-Pad2)*%
X277860000Y-98600000D02*
X277940000Y-98520000D01*
X274950000Y-98600000D02*
X277860000Y-98600000D01*
%TO.N,RE1_1*%
X53090000Y-101060000D02*
X74090000Y-101060000D01*
X53090000Y-68260000D02*
X78290000Y-68260000D01*
X53090000Y-51860000D02*
X61490000Y-51860000D01*
X53090000Y-84660000D02*
X69890000Y-84660000D01*
X83359994Y-68260000D02*
X83700000Y-68600006D01*
X78290000Y-68260000D02*
X83359994Y-68260000D01*
X82000001Y-50900001D02*
X82300000Y-51200000D01*
X62449999Y-50900001D02*
X82000001Y-50900001D01*
X61490000Y-51860000D02*
X62449999Y-50900001D01*
X62050000Y-46600000D02*
X61000004Y-46600000D01*
X61000004Y-46600000D02*
X61000000Y-46599996D01*
X51300000Y-35500000D02*
X53050000Y-35500000D01*
X50564978Y-36235022D02*
X51300000Y-35500000D01*
X41764184Y-36235022D02*
X50564978Y-36235022D01*
X36330000Y-35500000D02*
X41029162Y-35500000D01*
X53050000Y-35500000D02*
X53090000Y-35460000D01*
X36290000Y-35460000D02*
X36330000Y-35500000D01*
X41029162Y-35500000D02*
X41764184Y-36235022D01*
X38117010Y-50932990D02*
X38050000Y-51000000D01*
X52162990Y-50932990D02*
X38117010Y-50932990D01*
X53090000Y-51860000D02*
X52162990Y-50932990D01*
X53138022Y-35508022D02*
X62391978Y-35508022D01*
X53090000Y-35460000D02*
X53138022Y-35508022D01*
X62391978Y-35508022D02*
X63900000Y-34000000D01*
%TO.N,Net-(D95-Pad2)*%
X294660000Y-33000000D02*
X294740000Y-32920000D01*
X287750000Y-33000000D02*
X294660000Y-33000000D01*
%TO.N,Net-(D96-Pad2)*%
X290460000Y-49400000D02*
X290540000Y-49320000D01*
X287750000Y-49400000D02*
X290460000Y-49400000D01*
X290540000Y-49320000D02*
X294740000Y-49320000D01*
%TO.N,Net-(D97-Pad2)*%
X290460000Y-65800000D02*
X290540000Y-65720000D01*
X287550000Y-65800000D02*
X290460000Y-65800000D01*
X290540000Y-65720000D02*
X294740000Y-65720000D01*
%TO.N,Net-(D98-Pad2)*%
X294660000Y-82200000D02*
X294740000Y-82120000D01*
X285150000Y-82200000D02*
X294660000Y-82200000D01*
%TO.N,Net-(D99-Pad2)*%
X294660000Y-98600000D02*
X294740000Y-98520000D01*
X284550000Y-98600000D02*
X294660000Y-98600000D01*
%TO.N,RE2_2*%
X179700000Y-29000000D02*
X181500000Y-29000000D01*
X177140000Y-31560000D02*
X179700000Y-29000000D01*
X177140000Y-32920000D02*
X177140000Y-31560000D01*
X176660000Y-33400000D02*
X177140000Y-32920000D01*
X173250000Y-33400000D02*
X176660000Y-33400000D01*
%TO.N,Net-(D102-Pad2)*%
X32975000Y-25975000D02*
X33000000Y-26000000D01*
X32975000Y-22325000D02*
X32975000Y-25975000D01*
X36161601Y-27072999D02*
X37300000Y-28211398D01*
X34272999Y-27072999D02*
X36161601Y-27072999D01*
X37300000Y-28211398D02*
X37300000Y-28350000D01*
X33200000Y-26000000D02*
X34272999Y-27072999D01*
X33000000Y-26000000D02*
X33200000Y-26000000D01*
%TO.N,Net-(D102-Pad3)*%
X33825000Y-22210038D02*
X33825000Y-22325000D01*
X32975000Y-21360038D02*
X33825000Y-22210038D01*
X32975000Y-20975000D02*
X32975000Y-21360038D01*
X37200000Y-26000000D02*
X37300000Y-26100000D01*
X35200000Y-26000000D02*
X37200000Y-26000000D01*
X33825000Y-24925000D02*
X34900000Y-26000000D01*
X34900000Y-26000000D02*
X35200000Y-26000000D01*
X33825000Y-22325000D02*
X33825000Y-24925000D01*
D34*
%TO.N,VCC*%
X42012500Y-19400000D02*
X42050000Y-19362500D01*
X40300000Y-19400000D02*
X42012500Y-19400000D01*
X35150000Y-28899998D02*
X34999998Y-29050000D01*
X35150000Y-28000000D02*
X35150000Y-28899998D01*
D35*
%TO.N,Net-(J1-PadA5)*%
X32125000Y-22325000D02*
X32125000Y-23975000D01*
X32125000Y-23975000D02*
X31900000Y-24200000D01*
X31900000Y-24200000D02*
X27800000Y-24200000D01*
X26000000Y-22400000D02*
X26000000Y-21200000D01*
X27800000Y-24200000D02*
X26000000Y-22400000D01*
%TO.N,Net-(J1-PadB5)*%
X27000000Y-18900000D02*
X26000000Y-18900000D01*
X27500010Y-19400010D02*
X27000000Y-18900000D01*
X33559629Y-19400010D02*
X27500010Y-19400010D01*
X34675000Y-20515381D02*
X33559629Y-19400010D01*
X34675000Y-20975000D02*
X34675000Y-20515381D01*
%TO.N,AUDIO1*%
X110340559Y-54903301D02*
X109774874Y-55468986D01*
X25350000Y-25400000D02*
X24100000Y-25400000D01*
X73807324Y-59509490D02*
X38409488Y-59509490D01*
X38409488Y-59509490D02*
X38399999Y-59500001D01*
X104749620Y-63723707D02*
X103471903Y-62445990D01*
X83929342Y-63142696D02*
X77307304Y-63142696D01*
X110571421Y-56265533D02*
X110571421Y-58944443D01*
X103471903Y-62445990D02*
X84626048Y-62445990D01*
X109774874Y-55468986D02*
X110571421Y-56265533D01*
X84626048Y-62445990D02*
X83929342Y-63142696D01*
X110571421Y-58944443D02*
X105792157Y-63723707D01*
X105792157Y-63723707D02*
X104749620Y-63723707D01*
%TO.N,LED*%
X67600000Y-20500000D02*
X67700000Y-20600000D01*
X66600000Y-20500000D02*
X67600000Y-20500000D01*
X81827962Y-19100000D02*
X101600000Y-19100000D01*
X80899048Y-19100000D02*
X81827962Y-19100000D01*
X80399049Y-18600001D02*
X80899048Y-19100000D01*
X66100000Y-18900000D02*
X66399999Y-18600001D01*
X66399999Y-18600001D02*
X80399049Y-18600001D01*
X108021779Y-41977919D02*
X107818979Y-41977919D01*
X108643503Y-42599643D02*
X108021779Y-41977919D01*
%TO.N,Net-(JP_LED2-Pad1)*%
X83200000Y-21800000D02*
X81499992Y-21800000D01*
X47996001Y-17899999D02*
X80640514Y-17899999D01*
X46450000Y-19446000D02*
X47996001Y-17899999D01*
X80640514Y-17899999D02*
X81213505Y-18472990D01*
X46450000Y-20600000D02*
X46450000Y-19446000D01*
%TO.N,Net-(JP_LED2-Pad2)*%
X80600000Y-25600000D02*
X79700000Y-25600000D01*
X81400000Y-24800000D02*
X80600000Y-25600000D01*
X81400000Y-23715400D02*
X81400000Y-24800000D01*
X81800000Y-23315400D02*
X81400000Y-23715400D01*
X81800000Y-23300000D02*
X81800000Y-23315400D01*
X82000000Y-23100000D02*
X81800000Y-23300000D01*
X83200000Y-23100000D02*
X82000000Y-23100000D01*
%TO.N,Net-(JP_LED2-Pad3)*%
X266350000Y-26754000D02*
X266350000Y-25600000D01*
X265431001Y-27672999D02*
X266350000Y-26754000D01*
X163741129Y-27672999D02*
X265431001Y-27672999D01*
X161768130Y-25700000D02*
X163741129Y-27672999D01*
X147300000Y-25700000D02*
X161768130Y-25700000D01*
X146388239Y-24788239D02*
X147300000Y-25700000D01*
X106488239Y-24788239D02*
X146388239Y-24788239D01*
X104972999Y-23272999D02*
X106488239Y-24788239D01*
X85990521Y-23272999D02*
X104972999Y-23272999D01*
X84863520Y-24400000D02*
X85990521Y-23272999D01*
X83200000Y-24400000D02*
X84863520Y-24400000D01*
X287510000Y-77010000D02*
X291450000Y-77010000D01*
X286600000Y-76100000D02*
X287510000Y-77010000D01*
X266350000Y-25600000D02*
X267023470Y-25600000D01*
X267023470Y-25600000D02*
X267961735Y-26538265D01*
%TO.N,Net-(L1-Pad2)*%
X70100000Y-25600000D02*
X69200000Y-25600000D01*
X71100000Y-24600000D02*
X70100000Y-25600000D01*
X71100000Y-21600000D02*
X71100000Y-24600000D01*
X72100000Y-20600000D02*
X71100000Y-21600000D01*
X72950000Y-20600000D02*
X72100000Y-20600000D01*
%TO.N,Net-(L2-Pad2)*%
X77300000Y-20600000D02*
X78200000Y-20600000D01*
X76300000Y-21600000D02*
X77300000Y-20600000D01*
X76300000Y-24600000D02*
X76300000Y-21600000D01*
X75300000Y-25600000D02*
X76300000Y-24600000D01*
X74450000Y-25600000D02*
X75300000Y-25600000D01*
%TO.N,Net-(L4-Pad2)*%
X47950000Y-25600000D02*
X51500000Y-25600000D01*
X164000000Y-20550000D02*
X164050000Y-20600000D01*
X164000000Y-19000000D02*
X164000000Y-20550000D01*
%TO.N,Net-(L5-Pad2)*%
X196400000Y-20600000D02*
X197650000Y-20600000D01*
X193200000Y-23800000D02*
X196400000Y-20600000D01*
X168300000Y-23800000D02*
X193200000Y-23800000D01*
X166500000Y-25600000D02*
X168300000Y-23800000D01*
X165550000Y-25600000D02*
X166500000Y-25600000D01*
%TO.N,Net-(L6-Pad2)*%
X205100000Y-20600000D02*
X231250000Y-20600000D01*
X200100000Y-25600000D02*
X205100000Y-20600000D01*
X199150000Y-25600000D02*
X200100000Y-25600000D01*
%TO.N,Net-(L7-Pad2)*%
X264100000Y-20600000D02*
X264850000Y-20600000D01*
X260800000Y-23900000D02*
X264100000Y-20600000D01*
X233900000Y-25600000D02*
X235600000Y-23900000D01*
X235600000Y-23900000D02*
X260800000Y-23900000D01*
X232750000Y-25600000D02*
X233900000Y-25600000D01*
%TO.N,Net-(R4-Pad2)*%
X37950000Y-63300000D02*
X38000000Y-63350000D01*
X35100000Y-63300000D02*
X37950000Y-63300000D01*
X38000000Y-63350000D02*
X44200000Y-63350000D01*
X109209188Y-43190812D02*
X107750000Y-44650000D01*
X109209188Y-43165328D02*
X109209188Y-43190812D01*
X46720043Y-60829957D02*
X44200000Y-63350000D01*
X99594307Y-60829957D02*
X46720043Y-60829957D01*
X100250000Y-60174264D02*
X99594307Y-60829957D01*
X100250000Y-59750000D02*
X100250000Y-60174264D01*
%TO.N,D-*%
X39300000Y-26100000D02*
X40149998Y-26100000D01*
X40149998Y-26100000D02*
X41049998Y-27000000D01*
X101431014Y-47125126D02*
X99105890Y-44800002D01*
X99105890Y-44800002D02*
X58624264Y-44800002D01*
X58624264Y-44800002D02*
X58200000Y-44800002D01*
%TO.N,D+*%
X39300000Y-28350000D02*
X40125740Y-28350000D01*
X40125740Y-28350000D02*
X40549994Y-28774254D01*
X99587258Y-44150000D02*
X56099996Y-44150000D01*
X101996699Y-46559441D02*
X99587258Y-44150000D01*
%TO.N,Net-(R9-Pad2)*%
X108900000Y-56856854D02*
X108643503Y-56600357D01*
X108900000Y-57100000D02*
X108900000Y-56856854D01*
X105300000Y-60700000D02*
X108900000Y-57100000D01*
X105300000Y-62000000D02*
X105300000Y-60700000D01*
%TO.N,RE1_A*%
X103637968Y-43675226D02*
X103637968Y-41424696D01*
X104259441Y-44296699D02*
X103637968Y-43675226D01*
X103637968Y-41424696D02*
X102664398Y-40451126D01*
X50454011Y-27945989D02*
X62347981Y-27945989D01*
X100075736Y-25500000D02*
X100300000Y-25500000D01*
X98921725Y-24345989D02*
X100075736Y-25500000D01*
X49400000Y-29000000D02*
X50454011Y-27945989D01*
X65515067Y-27672999D02*
X83054263Y-27672999D01*
X62347981Y-27945989D02*
X63147981Y-27145989D01*
X64988058Y-27145990D02*
X65515067Y-27672999D01*
X63147981Y-27145989D02*
X64988058Y-27145990D01*
X83054263Y-27672999D02*
X86381273Y-24345989D01*
X86381273Y-24345989D02*
X98921725Y-24345989D01*
%TO.N,RE1_B*%
X104091979Y-40991979D02*
X104091979Y-42997867D01*
X104091979Y-42997867D02*
X104825126Y-43731014D01*
X102500000Y-39400000D02*
X104091979Y-40991979D01*
X86569330Y-24800000D02*
X98648726Y-24800000D01*
X64800000Y-27600000D02*
X65327010Y-28127010D01*
X63336038Y-27600000D02*
X64800000Y-27600000D01*
X62536038Y-28400000D02*
X63336038Y-27600000D01*
X53700000Y-28400000D02*
X62536038Y-28400000D01*
X98648726Y-24800000D02*
X100548726Y-26700000D01*
X83242321Y-28127009D02*
X86569330Y-24800000D01*
X51100000Y-31000000D02*
X53700000Y-28400000D01*
X49400000Y-34000000D02*
X49400000Y-33400000D01*
X65327010Y-28127010D02*
X83242321Y-28127009D01*
X100548726Y-26700000D02*
X100972990Y-26700000D01*
X51100000Y-31700000D02*
X51100000Y-31000000D01*
X49400000Y-33400000D02*
X51100000Y-31700000D01*
%TO.N,RE3_B*%
X197200000Y-58200000D02*
X196578980Y-58821020D01*
X196578980Y-58821020D02*
X117421020Y-58821020D01*
X117421020Y-58821020D02*
X117400000Y-58800000D01*
X113168986Y-52074874D02*
X112700554Y-51606442D01*
X112700554Y-51606442D02*
X112261189Y-51606442D01*
X112261189Y-51606442D02*
X112012007Y-51357260D01*
%TO.N,RE3_A*%
X118067010Y-58367010D02*
X195732990Y-58367010D01*
X117600000Y-57900000D02*
X118067010Y-58367010D01*
X195732990Y-58367010D02*
X196600000Y-57500000D01*
X113147364Y-49409490D02*
X113106636Y-49409490D01*
X114300357Y-48256497D02*
X113147364Y-49409490D01*
%TO.N,RE4_B*%
X209070961Y-59729039D02*
X209500000Y-59300000D01*
X112506047Y-53674677D02*
X112506047Y-58821911D01*
X112037615Y-53206245D02*
X112506047Y-53674677D01*
X114876114Y-61191978D02*
X116923886Y-61191978D01*
X112506047Y-58821911D02*
X114876114Y-61191978D01*
X118386825Y-59729039D02*
X209070961Y-59729039D01*
X116923886Y-61191978D02*
X118386825Y-59729039D01*
X232600003Y-40199999D02*
X233200001Y-39600001D01*
X226771231Y-40199999D02*
X232600003Y-40199999D01*
X225571230Y-41400000D02*
X226771231Y-40199999D01*
X210700000Y-41400000D02*
X225571230Y-41400000D01*
X210400000Y-41700000D02*
X210700000Y-41400000D01*
%TO.N,RE4_A*%
X114973205Y-60647001D02*
X116826795Y-60647001D01*
X113071732Y-53108990D02*
X113071732Y-58745528D01*
X113071732Y-58745528D02*
X114973205Y-60647001D01*
X112603301Y-52640559D02*
X113071732Y-53108990D01*
X116826795Y-60647001D02*
X118198768Y-59275028D01*
X118198768Y-59275028D02*
X208024972Y-59275028D01*
X208024972Y-59275028D02*
X208700000Y-58600000D01*
X232235565Y-39554415D02*
X226774747Y-39554415D01*
X226774747Y-39554415D02*
X225383173Y-40945989D01*
X225383173Y-40945989D02*
X210054011Y-40945989D01*
X210054011Y-40945989D02*
X209350000Y-41650000D01*
%TO.N,RE5_A*%
X112045990Y-59003922D02*
X114688057Y-61645989D01*
X118574882Y-60183050D02*
X222916950Y-60183050D01*
X222916950Y-60183050D02*
X223100000Y-60000000D01*
X117111943Y-61645989D02*
X118574882Y-60183050D01*
X111471930Y-53771930D02*
X112045990Y-54345990D01*
X112045990Y-54345990D02*
X112045990Y-59003922D01*
X114688057Y-61645989D02*
X117111943Y-61645989D01*
X229125220Y-40674780D02*
X265038492Y-40674780D01*
X228200000Y-41600000D02*
X229125220Y-40674780D01*
X265038492Y-40674780D02*
X265192919Y-40520353D01*
%TO.N,RE5_B*%
X117457932Y-62100000D02*
X118911944Y-60645988D01*
X118911944Y-60645988D02*
X223745986Y-60645988D01*
X111591979Y-55023349D02*
X111591979Y-59191979D01*
X223745986Y-60645988D02*
X223799998Y-60700000D01*
X110906245Y-54337615D02*
X111591979Y-55023349D01*
X111591979Y-59191979D02*
X114500000Y-62100000D01*
X114500000Y-62100000D02*
X117457932Y-62100000D01*
X265450000Y-41150000D02*
X266050000Y-40550000D01*
X229650000Y-41150000D02*
X265450000Y-41150000D01*
X229200000Y-41600000D02*
X229650000Y-41150000D01*
%TO.N,RE2_1*%
X166490000Y-101060000D02*
X187490000Y-101060000D01*
X195890000Y-51860000D02*
X179090000Y-51860000D01*
X180040000Y-35460000D02*
X181500000Y-34000000D01*
X170690000Y-35460000D02*
X180040000Y-35460000D01*
X170690000Y-84660000D02*
X187490000Y-84660000D01*
X179090000Y-68260000D02*
X195890000Y-68260000D01*
X185300000Y-30200000D02*
X187850000Y-30200000D01*
%TO.N,RE3_1*%
X220310000Y-106140000D02*
X207710000Y-106140000D01*
X212690000Y-68260000D02*
X216890000Y-68260000D01*
X212690000Y-51860000D02*
X216890000Y-51860000D01*
X229490000Y-68260000D02*
X216890000Y-68260000D01*
X227217001Y-102487839D02*
X227217001Y-104712161D01*
X227217001Y-104712161D02*
X225789162Y-106140000D01*
X225789162Y-101060000D02*
X227217001Y-102487839D01*
X225789162Y-106140000D02*
X220310000Y-106140000D01*
X221090000Y-101060000D02*
X225789162Y-101060000D01*
X204290000Y-84660000D02*
X221090000Y-84660000D01*
X229490000Y-68260000D02*
X229507001Y-68277001D01*
X237872999Y-68277001D02*
X237890000Y-68260000D01*
X229507001Y-68277001D02*
X237872999Y-68277001D01*
X215200000Y-46600000D02*
X215100000Y-46700000D01*
X229650000Y-46600000D02*
X215200000Y-46600000D01*
X204250000Y-35500000D02*
X204290000Y-35460000D01*
X202400000Y-35500000D02*
X204250000Y-35500000D01*
X201664977Y-36235023D02*
X202400000Y-35500000D01*
X198235023Y-36235023D02*
X201664977Y-36235023D01*
X197460000Y-35460000D02*
X198235023Y-36235023D01*
X187490000Y-35460000D02*
X197460000Y-35460000D01*
X213640000Y-35460000D02*
X215100000Y-34000000D01*
X204290000Y-35460000D02*
X213640000Y-35460000D01*
%TO.N,RE4_1*%
X233690000Y-101060000D02*
X254690000Y-101060000D01*
X246290000Y-68260000D02*
X254690000Y-68260000D01*
X229490000Y-51860000D02*
X254690000Y-51860000D01*
X247240000Y-35460000D02*
X248700000Y-34000000D01*
X237890000Y-35460000D02*
X247240000Y-35460000D01*
X237890000Y-84660000D02*
X254690000Y-84660000D01*
X260900000Y-63000000D02*
X263650000Y-63000000D01*
X245330001Y-67300001D02*
X233399999Y-67300001D01*
X233399999Y-67300001D02*
X233100000Y-67600000D01*
X246290000Y-68260000D02*
X245330001Y-67300001D01*
X237850000Y-35500000D02*
X237890000Y-35460000D01*
X236100000Y-35500000D02*
X237850000Y-35500000D01*
X235300000Y-36300000D02*
X236100000Y-35500000D01*
X233200000Y-36300000D02*
X235300000Y-36300000D01*
X232360000Y-35460000D02*
X233200000Y-36300000D01*
X221090000Y-35460000D02*
X232360000Y-35460000D01*
%TO.N,RE5_1*%
X271490000Y-68260000D02*
X263090000Y-68260000D01*
X263090000Y-51860000D02*
X271490000Y-51860000D01*
X280840000Y-35460000D02*
X282300000Y-34000000D01*
X271490000Y-35460000D02*
X280840000Y-35460000D01*
X282900000Y-85000000D02*
X281850000Y-85000000D01*
X271490000Y-101060000D02*
X288290000Y-101060000D01*
X271490000Y-51860000D02*
X277011884Y-51860000D01*
X277011884Y-51860000D02*
X277025942Y-51874058D01*
X278625998Y-68260000D02*
X278632999Y-68267001D01*
X271490000Y-68260000D02*
X278625998Y-68260000D01*
X269700000Y-35500000D02*
X271450000Y-35500000D01*
X268891979Y-36308021D02*
X269700000Y-35500000D01*
X264808021Y-36308021D02*
X268891979Y-36308021D01*
X271450000Y-35500000D02*
X271490000Y-35460000D01*
X263960000Y-35460000D02*
X264808021Y-36308021D01*
X254690000Y-35460000D02*
X263960000Y-35460000D01*
X280660000Y-84660000D02*
X271490000Y-84660000D01*
X281000000Y-85000000D02*
X280660000Y-84660000D01*
X281850000Y-85000000D02*
X281000000Y-85000000D01*
%TO.N,Net-(D94-Pad1)*%
X284090000Y-68260000D02*
X288290000Y-68260000D01*
X284090000Y-51860000D02*
X288290000Y-51860000D01*
X281554002Y-68260000D02*
X281547001Y-68252999D01*
X284090000Y-68260000D02*
X281554002Y-68260000D01*
X284550000Y-94946000D02*
X285546000Y-93950000D01*
X285546000Y-93950000D02*
X289550000Y-93950000D01*
X284550000Y-95800000D02*
X284550000Y-94946000D01*
%TO.N,SCL*%
X111395469Y-46635901D02*
X110149174Y-46635901D01*
X112037615Y-45993755D02*
X111395469Y-46635901D01*
%TO.N,SDA*%
X112603301Y-46596699D02*
X111800000Y-47400000D01*
X112603301Y-46559441D02*
X112603301Y-46596699D01*
%TO.N,RE2_A*%
X113168986Y-47231014D02*
X112300000Y-48100000D01*
X113168986Y-47125126D02*
X113168986Y-47231014D01*
X123000000Y-56800000D02*
X162600000Y-56800000D01*
X119054011Y-52854011D02*
X123000000Y-56800000D01*
X118600000Y-52700000D02*
X118754011Y-52854011D01*
X118754011Y-52854011D02*
X119054011Y-52854011D01*
%TO.N,RE2_B*%
X112526338Y-48899146D02*
X112490545Y-48899146D01*
X113734672Y-47690812D02*
X112526338Y-48899146D01*
X118100000Y-53370838D02*
X118928770Y-53370838D01*
X118928770Y-53370838D02*
X123007931Y-57449999D01*
X162850001Y-57449999D02*
X163500000Y-56800000D01*
X123007931Y-57449999D02*
X162850001Y-57449999D01*
%TD*%
%TO.N,GND*%
X36536000Y-17838000D02*
X37598000Y-17838000D01*
X37598000Y-17818000D01*
X37852000Y-17818000D01*
X37852000Y-17838000D01*
X38808230Y-17838000D01*
X38840934Y-17855389D01*
X38906737Y-17882511D01*
X38972102Y-17910526D01*
X38982572Y-17913768D01*
X39075990Y-17941973D01*
X39145776Y-17955791D01*
X39215383Y-17970586D01*
X39226284Y-17971732D01*
X39323401Y-17981254D01*
X39323406Y-17981254D01*
X39361439Y-17985000D01*
X39673000Y-17985000D01*
X39673000Y-18704710D01*
X39573738Y-18803972D01*
X39471414Y-18957111D01*
X39400932Y-19127271D01*
X39365000Y-19307911D01*
X39365000Y-19492089D01*
X39400932Y-19672729D01*
X39471414Y-19842889D01*
X39573738Y-19996028D01*
X39673000Y-20095290D01*
X39673000Y-23972038D01*
X34587000Y-23933653D01*
X34587000Y-23285000D01*
X34769552Y-23285000D01*
X34955022Y-23248108D01*
X35100000Y-23188056D01*
X35244978Y-23248108D01*
X35430448Y-23285000D01*
X35619552Y-23285000D01*
X35805022Y-23248108D01*
X35950420Y-23187882D01*
X36089992Y-23246581D01*
X36275260Y-23284475D01*
X36464361Y-23285497D01*
X36650028Y-23249608D01*
X36825126Y-23178187D01*
X36834323Y-23173270D01*
X36847931Y-22977536D01*
X36452639Y-22582244D01*
X36485000Y-22419552D01*
X36485000Y-22230448D01*
X36484171Y-22226281D01*
X36568748Y-22310858D01*
X36554605Y-22325000D01*
X36656095Y-22426490D01*
X36675108Y-22471343D01*
X36806940Y-22665169D01*
X36974052Y-22829552D01*
X37170023Y-22958174D01*
X37387321Y-23046093D01*
X37414627Y-23046776D01*
X37598000Y-22921392D01*
X37598000Y-21472000D01*
X37852000Y-21472000D01*
X37852000Y-22921392D01*
X38035373Y-23046776D01*
X38062679Y-23046093D01*
X38279977Y-22958174D01*
X38475948Y-22829552D01*
X38643060Y-22665169D01*
X38774892Y-22471343D01*
X38866377Y-22255522D01*
X38914000Y-22026000D01*
X38914000Y-21472000D01*
X37852000Y-21472000D01*
X37598000Y-21472000D01*
X37578000Y-21472000D01*
X37578000Y-21218000D01*
X37598000Y-21218000D01*
X37598000Y-19768608D01*
X37431849Y-19655000D01*
X37598000Y-19541392D01*
X37598000Y-18092000D01*
X37852000Y-18092000D01*
X37852000Y-19541392D01*
X38018151Y-19655000D01*
X37852000Y-19768608D01*
X37852000Y-21218000D01*
X38914000Y-21218000D01*
X38914000Y-20664000D01*
X38866377Y-20434478D01*
X38774892Y-20218657D01*
X38643060Y-20024831D01*
X38475948Y-19860448D01*
X38279977Y-19731826D01*
X38090096Y-19655000D01*
X38279977Y-19578174D01*
X38475948Y-19449552D01*
X38643060Y-19285169D01*
X38774892Y-19091343D01*
X38866377Y-18875522D01*
X38914000Y-18646000D01*
X38914000Y-18092000D01*
X37852000Y-18092000D01*
X37598000Y-18092000D01*
X36536000Y-18092000D01*
X36536000Y-18646000D01*
X36583623Y-18875522D01*
X36675108Y-19091343D01*
X36806940Y-19285169D01*
X36974052Y-19449552D01*
X37170023Y-19578174D01*
X37359904Y-19655000D01*
X37170023Y-19731826D01*
X36974052Y-19860448D01*
X36806940Y-20024831D01*
X36759139Y-20095110D01*
X36660008Y-20053419D01*
X36474740Y-20015525D01*
X36285639Y-20014503D01*
X36099972Y-20050392D01*
X35949538Y-20111753D01*
X35805022Y-20051892D01*
X35619552Y-20015000D01*
X35430448Y-20015000D01*
X35275412Y-20045838D01*
X35240279Y-20003029D01*
X35216422Y-19973959D01*
X35187352Y-19950102D01*
X34124913Y-18887664D01*
X34101051Y-18858588D01*
X33985021Y-18763365D01*
X33852644Y-18692608D01*
X33709007Y-18649036D01*
X33597055Y-18638010D01*
X33597052Y-18638010D01*
X33559629Y-18634324D01*
X33522206Y-18638010D01*
X30264000Y-18638010D01*
X30264000Y-18092000D01*
X29202000Y-18092000D01*
X29202000Y-18112000D01*
X28948000Y-18112000D01*
X28948000Y-18092000D01*
X27886000Y-18092000D01*
X27886000Y-18638010D01*
X27815640Y-18638010D01*
X27565284Y-18387654D01*
X27541422Y-18358578D01*
X27425392Y-18263355D01*
X27293015Y-18192598D01*
X27185598Y-18160013D01*
X27170472Y-18110149D01*
X27103578Y-17985000D01*
X27438561Y-17985000D01*
X27471695Y-17981736D01*
X27474637Y-17981757D01*
X27485545Y-17980688D01*
X27533317Y-17975667D01*
X27553887Y-17973641D01*
X27554573Y-17973433D01*
X27582593Y-17970488D01*
X27652309Y-17956178D01*
X27722176Y-17942849D01*
X27732669Y-17939682D01*
X27825888Y-17910826D01*
X27891507Y-17883242D01*
X27957449Y-17856599D01*
X27967119Y-17851458D01*
X27967122Y-17851457D01*
X27967124Y-17851455D01*
X27967127Y-17851454D01*
X27992009Y-17838000D01*
X28948000Y-17838000D01*
X28948000Y-17818000D01*
X29202000Y-17818000D01*
X29202000Y-17838000D01*
X30264000Y-17838000D01*
X30264000Y-17485000D01*
X36536000Y-17485000D01*
X36536000Y-17838000D01*
%TA.AperFunction,Conductor*%
D36*
G36*
X36536000Y-17838000D02*
G01*
X37598000Y-17838000D01*
X37598000Y-17818000D01*
X37852000Y-17818000D01*
X37852000Y-17838000D01*
X38808230Y-17838000D01*
X38840934Y-17855389D01*
X38906737Y-17882511D01*
X38972102Y-17910526D01*
X38982572Y-17913768D01*
X39075990Y-17941973D01*
X39145776Y-17955791D01*
X39215383Y-17970586D01*
X39226284Y-17971732D01*
X39323401Y-17981254D01*
X39323406Y-17981254D01*
X39361439Y-17985000D01*
X39673000Y-17985000D01*
X39673000Y-18704710D01*
X39573738Y-18803972D01*
X39471414Y-18957111D01*
X39400932Y-19127271D01*
X39365000Y-19307911D01*
X39365000Y-19492089D01*
X39400932Y-19672729D01*
X39471414Y-19842889D01*
X39573738Y-19996028D01*
X39673000Y-20095290D01*
X39673000Y-23972038D01*
X34587000Y-23933653D01*
X34587000Y-23285000D01*
X34769552Y-23285000D01*
X34955022Y-23248108D01*
X35100000Y-23188056D01*
X35244978Y-23248108D01*
X35430448Y-23285000D01*
X35619552Y-23285000D01*
X35805022Y-23248108D01*
X35950420Y-23187882D01*
X36089992Y-23246581D01*
X36275260Y-23284475D01*
X36464361Y-23285497D01*
X36650028Y-23249608D01*
X36825126Y-23178187D01*
X36834323Y-23173270D01*
X36847931Y-22977536D01*
X36452639Y-22582244D01*
X36485000Y-22419552D01*
X36485000Y-22230448D01*
X36484171Y-22226281D01*
X36568748Y-22310858D01*
X36554605Y-22325000D01*
X36656095Y-22426490D01*
X36675108Y-22471343D01*
X36806940Y-22665169D01*
X36974052Y-22829552D01*
X37170023Y-22958174D01*
X37387321Y-23046093D01*
X37414627Y-23046776D01*
X37598000Y-22921392D01*
X37598000Y-21472000D01*
X37852000Y-21472000D01*
X37852000Y-22921392D01*
X38035373Y-23046776D01*
X38062679Y-23046093D01*
X38279977Y-22958174D01*
X38475948Y-22829552D01*
X38643060Y-22665169D01*
X38774892Y-22471343D01*
X38866377Y-22255522D01*
X38914000Y-22026000D01*
X38914000Y-21472000D01*
X37852000Y-21472000D01*
X37598000Y-21472000D01*
X37578000Y-21472000D01*
X37578000Y-21218000D01*
X37598000Y-21218000D01*
X37598000Y-19768608D01*
X37431849Y-19655000D01*
X37598000Y-19541392D01*
X37598000Y-18092000D01*
X37852000Y-18092000D01*
X37852000Y-19541392D01*
X38018151Y-19655000D01*
X37852000Y-19768608D01*
X37852000Y-21218000D01*
X38914000Y-21218000D01*
X38914000Y-20664000D01*
X38866377Y-20434478D01*
X38774892Y-20218657D01*
X38643060Y-20024831D01*
X38475948Y-19860448D01*
X38279977Y-19731826D01*
X38090096Y-19655000D01*
X38279977Y-19578174D01*
X38475948Y-19449552D01*
X38643060Y-19285169D01*
X38774892Y-19091343D01*
X38866377Y-18875522D01*
X38914000Y-18646000D01*
X38914000Y-18092000D01*
X37852000Y-18092000D01*
X37598000Y-18092000D01*
X36536000Y-18092000D01*
X36536000Y-18646000D01*
X36583623Y-18875522D01*
X36675108Y-19091343D01*
X36806940Y-19285169D01*
X36974052Y-19449552D01*
X37170023Y-19578174D01*
X37359904Y-19655000D01*
X37170023Y-19731826D01*
X36974052Y-19860448D01*
X36806940Y-20024831D01*
X36759139Y-20095110D01*
X36660008Y-20053419D01*
X36474740Y-20015525D01*
X36285639Y-20014503D01*
X36099972Y-20050392D01*
X35949538Y-20111753D01*
X35805022Y-20051892D01*
X35619552Y-20015000D01*
X35430448Y-20015000D01*
X35275412Y-20045838D01*
X35240279Y-20003029D01*
X35216422Y-19973959D01*
X35187352Y-19950102D01*
X34124913Y-18887664D01*
X34101051Y-18858588D01*
X33985021Y-18763365D01*
X33852644Y-18692608D01*
X33709007Y-18649036D01*
X33597055Y-18638010D01*
X33597052Y-18638010D01*
X33559629Y-18634324D01*
X33522206Y-18638010D01*
X30264000Y-18638010D01*
X30264000Y-18092000D01*
X29202000Y-18092000D01*
X29202000Y-18112000D01*
X28948000Y-18112000D01*
X28948000Y-18092000D01*
X27886000Y-18092000D01*
X27886000Y-18638010D01*
X27815640Y-18638010D01*
X27565284Y-18387654D01*
X27541422Y-18358578D01*
X27425392Y-18263355D01*
X27293015Y-18192598D01*
X27185598Y-18160013D01*
X27170472Y-18110149D01*
X27103578Y-17985000D01*
X27438561Y-17985000D01*
X27471695Y-17981736D01*
X27474637Y-17981757D01*
X27485545Y-17980688D01*
X27533317Y-17975667D01*
X27553887Y-17973641D01*
X27554573Y-17973433D01*
X27582593Y-17970488D01*
X27652309Y-17956178D01*
X27722176Y-17942849D01*
X27732669Y-17939682D01*
X27825888Y-17910826D01*
X27891507Y-17883242D01*
X27957449Y-17856599D01*
X27967119Y-17851458D01*
X27967122Y-17851457D01*
X27967124Y-17851455D01*
X27967127Y-17851454D01*
X27992009Y-17838000D01*
X28948000Y-17838000D01*
X28948000Y-17818000D01*
X29202000Y-17818000D01*
X29202000Y-17838000D01*
X30264000Y-17838000D01*
X30264000Y-17485000D01*
X36536000Y-17485000D01*
X36536000Y-17838000D01*
G37*
%TD.AperFunction*%
D35*
X27013554Y-19986541D02*
X27074617Y-20036655D01*
X27103124Y-20051892D01*
X27206995Y-20107412D01*
X27350632Y-20150984D01*
X27462584Y-20162010D01*
X27462587Y-20162010D01*
X27500010Y-20165696D01*
X27537433Y-20162010D01*
X28063637Y-20162010D01*
X28025108Y-20218657D01*
X27933623Y-20434478D01*
X27886000Y-20664000D01*
X27886000Y-21218000D01*
X28948000Y-21218000D01*
X28948000Y-21198000D01*
X29202000Y-21198000D01*
X29202000Y-21218000D01*
X29222000Y-21218000D01*
X29222000Y-21472000D01*
X29202000Y-21472000D01*
X29202000Y-22921392D01*
X29385373Y-23046776D01*
X29412679Y-23046093D01*
X29629977Y-22958174D01*
X29825948Y-22829552D01*
X29993060Y-22665169D01*
X30124892Y-22471343D01*
X30143905Y-22426490D01*
X30245395Y-22325000D01*
X30231253Y-22310858D01*
X30315829Y-22226281D01*
X30315000Y-22230448D01*
X30315000Y-22419552D01*
X30347361Y-22582244D01*
X29952069Y-22977536D01*
X29965677Y-23173270D01*
X30139992Y-23246581D01*
X30325260Y-23284475D01*
X30514361Y-23285497D01*
X30700028Y-23249608D01*
X30850462Y-23188247D01*
X30994978Y-23248108D01*
X31180448Y-23285000D01*
X31363001Y-23285000D01*
X31363001Y-23438000D01*
X28115631Y-23438000D01*
X26965676Y-22288045D01*
X26977962Y-22277962D01*
X27088405Y-22143387D01*
X27170472Y-21989851D01*
X27221008Y-21823255D01*
X27238072Y-21650001D01*
X27238072Y-21472000D01*
X27886000Y-21472000D01*
X27886000Y-22026000D01*
X27933623Y-22255522D01*
X28025108Y-22471343D01*
X28156940Y-22665169D01*
X28324052Y-22829552D01*
X28520023Y-22958174D01*
X28737321Y-23046093D01*
X28764627Y-23046776D01*
X28948000Y-22921392D01*
X28948000Y-21472000D01*
X27886000Y-21472000D01*
X27238072Y-21472000D01*
X27238072Y-20749999D01*
X27221008Y-20576745D01*
X27170472Y-20410149D01*
X27088405Y-20256613D01*
X26977962Y-20122038D01*
X26890184Y-20050000D01*
X26977962Y-19977962D01*
X26988079Y-19965634D01*
X27013554Y-19986541D01*
%TA.AperFunction,Conductor*%
D36*
G36*
X27013554Y-19986541D02*
G01*
X27074617Y-20036655D01*
X27103124Y-20051892D01*
X27206995Y-20107412D01*
X27350632Y-20150984D01*
X27462584Y-20162010D01*
X27462587Y-20162010D01*
X27500010Y-20165696D01*
X27537433Y-20162010D01*
X28063637Y-20162010D01*
X28025108Y-20218657D01*
X27933623Y-20434478D01*
X27886000Y-20664000D01*
X27886000Y-21218000D01*
X28948000Y-21218000D01*
X28948000Y-21198000D01*
X29202000Y-21198000D01*
X29202000Y-21218000D01*
X29222000Y-21218000D01*
X29222000Y-21472000D01*
X29202000Y-21472000D01*
X29202000Y-22921392D01*
X29385373Y-23046776D01*
X29412679Y-23046093D01*
X29629977Y-22958174D01*
X29825948Y-22829552D01*
X29993060Y-22665169D01*
X30124892Y-22471343D01*
X30143905Y-22426490D01*
X30245395Y-22325000D01*
X30231253Y-22310858D01*
X30315829Y-22226281D01*
X30315000Y-22230448D01*
X30315000Y-22419552D01*
X30347361Y-22582244D01*
X29952069Y-22977536D01*
X29965677Y-23173270D01*
X30139992Y-23246581D01*
X30325260Y-23284475D01*
X30514361Y-23285497D01*
X30700028Y-23249608D01*
X30850462Y-23188247D01*
X30994978Y-23248108D01*
X31180448Y-23285000D01*
X31363001Y-23285000D01*
X31363001Y-23438000D01*
X28115631Y-23438000D01*
X26965676Y-22288045D01*
X26977962Y-22277962D01*
X27088405Y-22143387D01*
X27170472Y-21989851D01*
X27221008Y-21823255D01*
X27238072Y-21650001D01*
X27238072Y-21472000D01*
X27886000Y-21472000D01*
X27886000Y-22026000D01*
X27933623Y-22255522D01*
X28025108Y-22471343D01*
X28156940Y-22665169D01*
X28324052Y-22829552D01*
X28520023Y-22958174D01*
X28737321Y-23046093D01*
X28764627Y-23046776D01*
X28948000Y-22921392D01*
X28948000Y-21472000D01*
X27886000Y-21472000D01*
X27238072Y-21472000D01*
X27238072Y-20749999D01*
X27221008Y-20576745D01*
X27170472Y-20410149D01*
X27088405Y-20256613D01*
X26977962Y-20122038D01*
X26890184Y-20050000D01*
X26977962Y-19977962D01*
X26988079Y-19965634D01*
X27013554Y-19986541D01*
G37*
%TD.AperFunction*%
D35*
X30315000Y-20880448D02*
X30315000Y-21069552D01*
X30315829Y-21073719D01*
X30264000Y-21021890D01*
X30264000Y-20928110D01*
X30315829Y-20876281D01*
X30315000Y-20880448D01*
%TA.AperFunction,Conductor*%
D36*
G36*
X30315000Y-20880448D02*
G01*
X30315000Y-21069552D01*
X30315829Y-21073719D01*
X30264000Y-21021890D01*
X30264000Y-20928110D01*
X30315829Y-20876281D01*
X30315000Y-20880448D01*
G37*
%TD.AperFunction*%
D35*
X36536000Y-20928110D02*
X36536000Y-21021890D01*
X36484171Y-21073719D01*
X36485000Y-21069552D01*
X36485000Y-20880448D01*
X36484171Y-20876281D01*
X36536000Y-20928110D01*
%TA.AperFunction,Conductor*%
D36*
G36*
X36536000Y-20928110D02*
G01*
X36536000Y-21021890D01*
X36484171Y-21073719D01*
X36485000Y-21069552D01*
X36485000Y-20880448D01*
X36484171Y-20876281D01*
X36536000Y-20928110D01*
G37*
%TD.AperFunction*%
%TD*%
D35*
%TO.N,GND*%
X124320028Y-46600366D02*
X121862138Y-49058256D01*
X121860000Y-48848250D01*
X121701250Y-48689500D01*
X120627000Y-48689500D01*
X120627000Y-48709500D01*
X120373000Y-48709500D01*
X120373000Y-48689500D01*
X119298750Y-48689500D01*
X119140000Y-48848250D01*
X119136928Y-49150000D01*
X119149188Y-49274482D01*
X119185498Y-49394180D01*
X119187294Y-49397540D01*
X119117502Y-49312498D01*
X118929449Y-49158167D01*
X118714901Y-49043489D01*
X118482102Y-48972870D01*
X118240000Y-48949025D01*
X117997899Y-48972870D01*
X117765100Y-49043489D01*
X117550552Y-49158167D01*
X117362499Y-49312498D01*
X117277619Y-49415925D01*
X117175000Y-49314137D01*
X117175000Y-49174725D01*
X117118317Y-48889758D01*
X117007128Y-48621325D01*
X116845707Y-48379742D01*
X116640258Y-48174293D01*
X116398675Y-48012872D01*
X116130242Y-47901683D01*
X115845275Y-47845000D01*
X115693870Y-47845000D01*
X115633978Y-47785593D01*
X115633276Y-47778462D01*
X115596966Y-47658764D01*
X115538001Y-47548450D01*
X115458649Y-47451759D01*
X115105095Y-47098205D01*
X115008404Y-47018853D01*
X114984887Y-47006282D01*
X114972316Y-46982765D01*
X114892964Y-46886074D01*
X114539410Y-46532520D01*
X114442719Y-46453168D01*
X114419201Y-46440597D01*
X114406630Y-46417079D01*
X114327278Y-46320388D01*
X113973724Y-45966834D01*
X113877033Y-45887482D01*
X113853516Y-45874911D01*
X113840945Y-45851394D01*
X113761593Y-45754703D01*
X113668890Y-45662000D01*
X114060492Y-45662000D01*
X115467013Y-47068521D01*
X115563704Y-47147873D01*
X115674018Y-47206838D01*
X115793716Y-47243148D01*
X115918198Y-47255408D01*
X116042680Y-47243148D01*
X116162378Y-47206838D01*
X116272692Y-47147873D01*
X116320727Y-47108452D01*
X116320845Y-47109650D01*
X116371381Y-47276246D01*
X116453448Y-47429782D01*
X116563891Y-47564358D01*
X117235642Y-48236109D01*
X117370218Y-48346552D01*
X117523754Y-48428619D01*
X117690350Y-48479155D01*
X117863604Y-48496219D01*
X118036858Y-48479155D01*
X118203454Y-48428619D01*
X118356990Y-48346552D01*
X118491566Y-48236109D01*
X118752675Y-47975000D01*
X119136928Y-47975000D01*
X119140000Y-48276750D01*
X119298750Y-48435500D01*
X120373000Y-48435500D01*
X120373000Y-47498750D01*
X120627000Y-47498750D01*
X120627000Y-48435500D01*
X121701250Y-48435500D01*
X121860000Y-48276750D01*
X121863072Y-47975000D01*
X121850812Y-47850518D01*
X121814502Y-47730820D01*
X121755537Y-47620506D01*
X121676185Y-47523815D01*
X121579494Y-47444463D01*
X121469180Y-47385498D01*
X121349482Y-47349188D01*
X121225000Y-47336928D01*
X120785750Y-47340000D01*
X120627000Y-47498750D01*
X120373000Y-47498750D01*
X120214250Y-47340000D01*
X119775000Y-47336928D01*
X119650518Y-47349188D01*
X119530820Y-47385498D01*
X119420506Y-47444463D01*
X119323815Y-47523815D01*
X119244463Y-47620506D01*
X119185498Y-47730820D01*
X119149188Y-47850518D01*
X119136928Y-47975000D01*
X118752675Y-47975000D01*
X118968863Y-47758812D01*
X119079306Y-47624236D01*
X119161373Y-47470700D01*
X119211909Y-47304104D01*
X119228973Y-47130850D01*
X119228142Y-47122411D01*
X119330850Y-47132527D01*
X119455331Y-47120266D01*
X119575030Y-47083957D01*
X119685344Y-47024993D01*
X119782035Y-46945640D01*
X119993232Y-46730098D01*
X119993232Y-46505592D01*
X119233623Y-45745982D01*
X119219481Y-45760125D01*
X119039876Y-45580520D01*
X119054018Y-45566377D01*
X119413228Y-45566377D01*
X120172838Y-46325986D01*
X120397344Y-46325986D01*
X120612886Y-46114789D01*
X120692239Y-46018098D01*
X120751203Y-45907784D01*
X120787512Y-45788085D01*
X120799773Y-45663604D01*
X120787512Y-45539123D01*
X120751203Y-45419425D01*
X120692239Y-45309110D01*
X120612886Y-45212419D01*
X120300117Y-44903995D01*
X120075610Y-44903995D01*
X119413228Y-45566377D01*
X119054018Y-45566377D01*
X118427897Y-44940257D01*
X118427897Y-44781156D01*
X117438478Y-43791737D01*
X117424336Y-43805880D01*
X117244731Y-43626275D01*
X117258873Y-43612132D01*
X117618083Y-43612132D01*
X118474014Y-44468063D01*
X118474014Y-44627162D01*
X119233623Y-45386772D01*
X119896005Y-44724390D01*
X119896005Y-44499883D01*
X119587581Y-44187114D01*
X119490890Y-44107761D01*
X119380575Y-44048797D01*
X119363427Y-44043595D01*
X119406838Y-43962378D01*
X119443148Y-43842679D01*
X119455408Y-43718198D01*
X119443148Y-43593717D01*
X119406838Y-43474018D01*
X119347874Y-43363704D01*
X119268521Y-43267013D01*
X118725943Y-42728779D01*
X118501436Y-42728779D01*
X117618083Y-43612132D01*
X117258873Y-43612132D01*
X117244731Y-43597990D01*
X117424336Y-43418385D01*
X117438478Y-43432527D01*
X118321831Y-42549174D01*
X118321831Y-42324667D01*
X117783597Y-41782089D01*
X117686906Y-41702736D01*
X117576592Y-41643772D01*
X117456893Y-41607462D01*
X117398308Y-41601692D01*
X117392538Y-41543106D01*
X117356228Y-41423408D01*
X117297263Y-41313094D01*
X117217911Y-41216403D01*
X115732987Y-39731479D01*
X115636296Y-39652127D01*
X115525982Y-39593162D01*
X115406284Y-39556852D01*
X115281802Y-39544592D01*
X115157320Y-39556852D01*
X115037622Y-39593162D01*
X114927308Y-39652127D01*
X114830617Y-39731479D01*
X114648231Y-39913865D01*
X114592239Y-39809110D01*
X114512886Y-39712419D01*
X114200117Y-39403995D01*
X113975610Y-39403995D01*
X113313228Y-40066377D01*
X113327371Y-40080519D01*
X113147765Y-40260125D01*
X113133623Y-40245982D01*
X113119481Y-40260125D01*
X112939876Y-40080520D01*
X112954018Y-40066377D01*
X112939875Y-40052235D01*
X113119481Y-39872629D01*
X113133623Y-39886772D01*
X113796005Y-39224390D01*
X113796005Y-38999883D01*
X113611134Y-38812408D01*
X113687128Y-38698675D01*
X113798317Y-38430242D01*
X113855000Y-38145275D01*
X113855000Y-37854725D01*
X113798317Y-37569758D01*
X113687128Y-37301325D01*
X113525707Y-37059742D01*
X113320258Y-36854293D01*
X113078675Y-36692872D01*
X112810242Y-36581683D01*
X112525275Y-36525000D01*
X112234725Y-36525000D01*
X112090000Y-36553787D01*
X111945275Y-36525000D01*
X111654725Y-36525000D01*
X111369758Y-36581683D01*
X111101325Y-36692872D01*
X110859742Y-36854293D01*
X110654293Y-37059742D01*
X110492872Y-37301325D01*
X110381683Y-37569758D01*
X110325000Y-37854725D01*
X110325000Y-38145275D01*
X110381683Y-38430242D01*
X110492872Y-38698675D01*
X110654293Y-38940258D01*
X110859742Y-39145707D01*
X111101325Y-39307128D01*
X111369758Y-39418317D01*
X111654725Y-39475000D01*
X111798209Y-39475000D01*
X111754360Y-39517965D01*
X111675007Y-39614656D01*
X111616043Y-39724970D01*
X111579734Y-39844669D01*
X111567473Y-39969150D01*
X111577589Y-40071858D01*
X111569150Y-40071027D01*
X111395896Y-40088091D01*
X111229300Y-40138627D01*
X111075764Y-40220694D01*
X110941188Y-40331137D01*
X110463891Y-40808434D01*
X110353448Y-40943010D01*
X110271381Y-41096546D01*
X110220845Y-41263142D01*
X110203781Y-41436396D01*
X110220845Y-41609650D01*
X110271381Y-41776246D01*
X110353448Y-41929782D01*
X110463891Y-42064358D01*
X111038000Y-42638467D01*
X111038001Y-43052463D01*
X111024588Y-43045548D01*
X111012518Y-43022967D01*
X110933166Y-42926276D01*
X110579612Y-42572722D01*
X110482921Y-42493370D01*
X110459403Y-42480799D01*
X110446832Y-42457281D01*
X110367480Y-42360590D01*
X110013926Y-42007036D01*
X109917235Y-41927684D01*
X109893718Y-41915113D01*
X109881147Y-41891596D01*
X109801795Y-41794905D01*
X109448241Y-41441351D01*
X109351550Y-41361999D01*
X109241236Y-41303034D01*
X109121538Y-41266724D01*
X109055320Y-41260202D01*
X108240309Y-40451790D01*
X108543404Y-40326245D01*
X108973340Y-40038970D01*
X109338970Y-39673340D01*
X109626245Y-39243404D01*
X109824122Y-38765684D01*
X109925000Y-38258540D01*
X109925000Y-37741460D01*
X109824122Y-37234316D01*
X109713165Y-36966441D01*
X112150365Y-34529241D01*
X124320028Y-46600366D01*
%TA.AperFunction,Conductor*%
D36*
G36*
X124320028Y-46600366D02*
G01*
X121862138Y-49058256D01*
X121860000Y-48848250D01*
X121701250Y-48689500D01*
X120627000Y-48689500D01*
X120627000Y-48709500D01*
X120373000Y-48709500D01*
X120373000Y-48689500D01*
X119298750Y-48689500D01*
X119140000Y-48848250D01*
X119136928Y-49150000D01*
X119149188Y-49274482D01*
X119185498Y-49394180D01*
X119187294Y-49397540D01*
X119117502Y-49312498D01*
X118929449Y-49158167D01*
X118714901Y-49043489D01*
X118482102Y-48972870D01*
X118240000Y-48949025D01*
X117997899Y-48972870D01*
X117765100Y-49043489D01*
X117550552Y-49158167D01*
X117362499Y-49312498D01*
X117277619Y-49415925D01*
X117175000Y-49314137D01*
X117175000Y-49174725D01*
X117118317Y-48889758D01*
X117007128Y-48621325D01*
X116845707Y-48379742D01*
X116640258Y-48174293D01*
X116398675Y-48012872D01*
X116130242Y-47901683D01*
X115845275Y-47845000D01*
X115693870Y-47845000D01*
X115633978Y-47785593D01*
X115633276Y-47778462D01*
X115596966Y-47658764D01*
X115538001Y-47548450D01*
X115458649Y-47451759D01*
X115105095Y-47098205D01*
X115008404Y-47018853D01*
X114984887Y-47006282D01*
X114972316Y-46982765D01*
X114892964Y-46886074D01*
X114539410Y-46532520D01*
X114442719Y-46453168D01*
X114419201Y-46440597D01*
X114406630Y-46417079D01*
X114327278Y-46320388D01*
X113973724Y-45966834D01*
X113877033Y-45887482D01*
X113853516Y-45874911D01*
X113840945Y-45851394D01*
X113761593Y-45754703D01*
X113668890Y-45662000D01*
X114060492Y-45662000D01*
X115467013Y-47068521D01*
X115563704Y-47147873D01*
X115674018Y-47206838D01*
X115793716Y-47243148D01*
X115918198Y-47255408D01*
X116042680Y-47243148D01*
X116162378Y-47206838D01*
X116272692Y-47147873D01*
X116320727Y-47108452D01*
X116320845Y-47109650D01*
X116371381Y-47276246D01*
X116453448Y-47429782D01*
X116563891Y-47564358D01*
X117235642Y-48236109D01*
X117370218Y-48346552D01*
X117523754Y-48428619D01*
X117690350Y-48479155D01*
X117863604Y-48496219D01*
X118036858Y-48479155D01*
X118203454Y-48428619D01*
X118356990Y-48346552D01*
X118491566Y-48236109D01*
X118752675Y-47975000D01*
X119136928Y-47975000D01*
X119140000Y-48276750D01*
X119298750Y-48435500D01*
X120373000Y-48435500D01*
X120373000Y-47498750D01*
X120627000Y-47498750D01*
X120627000Y-48435500D01*
X121701250Y-48435500D01*
X121860000Y-48276750D01*
X121863072Y-47975000D01*
X121850812Y-47850518D01*
X121814502Y-47730820D01*
X121755537Y-47620506D01*
X121676185Y-47523815D01*
X121579494Y-47444463D01*
X121469180Y-47385498D01*
X121349482Y-47349188D01*
X121225000Y-47336928D01*
X120785750Y-47340000D01*
X120627000Y-47498750D01*
X120373000Y-47498750D01*
X120214250Y-47340000D01*
X119775000Y-47336928D01*
X119650518Y-47349188D01*
X119530820Y-47385498D01*
X119420506Y-47444463D01*
X119323815Y-47523815D01*
X119244463Y-47620506D01*
X119185498Y-47730820D01*
X119149188Y-47850518D01*
X119136928Y-47975000D01*
X118752675Y-47975000D01*
X118968863Y-47758812D01*
X119079306Y-47624236D01*
X119161373Y-47470700D01*
X119211909Y-47304104D01*
X119228973Y-47130850D01*
X119228142Y-47122411D01*
X119330850Y-47132527D01*
X119455331Y-47120266D01*
X119575030Y-47083957D01*
X119685344Y-47024993D01*
X119782035Y-46945640D01*
X119993232Y-46730098D01*
X119993232Y-46505592D01*
X119233623Y-45745982D01*
X119219481Y-45760125D01*
X119039876Y-45580520D01*
X119054018Y-45566377D01*
X119413228Y-45566377D01*
X120172838Y-46325986D01*
X120397344Y-46325986D01*
X120612886Y-46114789D01*
X120692239Y-46018098D01*
X120751203Y-45907784D01*
X120787512Y-45788085D01*
X120799773Y-45663604D01*
X120787512Y-45539123D01*
X120751203Y-45419425D01*
X120692239Y-45309110D01*
X120612886Y-45212419D01*
X120300117Y-44903995D01*
X120075610Y-44903995D01*
X119413228Y-45566377D01*
X119054018Y-45566377D01*
X118427897Y-44940257D01*
X118427897Y-44781156D01*
X117438478Y-43791737D01*
X117424336Y-43805880D01*
X117244731Y-43626275D01*
X117258873Y-43612132D01*
X117618083Y-43612132D01*
X118474014Y-44468063D01*
X118474014Y-44627162D01*
X119233623Y-45386772D01*
X119896005Y-44724390D01*
X119896005Y-44499883D01*
X119587581Y-44187114D01*
X119490890Y-44107761D01*
X119380575Y-44048797D01*
X119363427Y-44043595D01*
X119406838Y-43962378D01*
X119443148Y-43842679D01*
X119455408Y-43718198D01*
X119443148Y-43593717D01*
X119406838Y-43474018D01*
X119347874Y-43363704D01*
X119268521Y-43267013D01*
X118725943Y-42728779D01*
X118501436Y-42728779D01*
X117618083Y-43612132D01*
X117258873Y-43612132D01*
X117244731Y-43597990D01*
X117424336Y-43418385D01*
X117438478Y-43432527D01*
X118321831Y-42549174D01*
X118321831Y-42324667D01*
X117783597Y-41782089D01*
X117686906Y-41702736D01*
X117576592Y-41643772D01*
X117456893Y-41607462D01*
X117398308Y-41601692D01*
X117392538Y-41543106D01*
X117356228Y-41423408D01*
X117297263Y-41313094D01*
X117217911Y-41216403D01*
X115732987Y-39731479D01*
X115636296Y-39652127D01*
X115525982Y-39593162D01*
X115406284Y-39556852D01*
X115281802Y-39544592D01*
X115157320Y-39556852D01*
X115037622Y-39593162D01*
X114927308Y-39652127D01*
X114830617Y-39731479D01*
X114648231Y-39913865D01*
X114592239Y-39809110D01*
X114512886Y-39712419D01*
X114200117Y-39403995D01*
X113975610Y-39403995D01*
X113313228Y-40066377D01*
X113327371Y-40080519D01*
X113147765Y-40260125D01*
X113133623Y-40245982D01*
X113119481Y-40260125D01*
X112939876Y-40080520D01*
X112954018Y-40066377D01*
X112939875Y-40052235D01*
X113119481Y-39872629D01*
X113133623Y-39886772D01*
X113796005Y-39224390D01*
X113796005Y-38999883D01*
X113611134Y-38812408D01*
X113687128Y-38698675D01*
X113798317Y-38430242D01*
X113855000Y-38145275D01*
X113855000Y-37854725D01*
X113798317Y-37569758D01*
X113687128Y-37301325D01*
X113525707Y-37059742D01*
X113320258Y-36854293D01*
X113078675Y-36692872D01*
X112810242Y-36581683D01*
X112525275Y-36525000D01*
X112234725Y-36525000D01*
X112090000Y-36553787D01*
X111945275Y-36525000D01*
X111654725Y-36525000D01*
X111369758Y-36581683D01*
X111101325Y-36692872D01*
X110859742Y-36854293D01*
X110654293Y-37059742D01*
X110492872Y-37301325D01*
X110381683Y-37569758D01*
X110325000Y-37854725D01*
X110325000Y-38145275D01*
X110381683Y-38430242D01*
X110492872Y-38698675D01*
X110654293Y-38940258D01*
X110859742Y-39145707D01*
X111101325Y-39307128D01*
X111369758Y-39418317D01*
X111654725Y-39475000D01*
X111798209Y-39475000D01*
X111754360Y-39517965D01*
X111675007Y-39614656D01*
X111616043Y-39724970D01*
X111579734Y-39844669D01*
X111567473Y-39969150D01*
X111577589Y-40071858D01*
X111569150Y-40071027D01*
X111395896Y-40088091D01*
X111229300Y-40138627D01*
X111075764Y-40220694D01*
X110941188Y-40331137D01*
X110463891Y-40808434D01*
X110353448Y-40943010D01*
X110271381Y-41096546D01*
X110220845Y-41263142D01*
X110203781Y-41436396D01*
X110220845Y-41609650D01*
X110271381Y-41776246D01*
X110353448Y-41929782D01*
X110463891Y-42064358D01*
X111038000Y-42638467D01*
X111038001Y-43052463D01*
X111024588Y-43045548D01*
X111012518Y-43022967D01*
X110933166Y-42926276D01*
X110579612Y-42572722D01*
X110482921Y-42493370D01*
X110459403Y-42480799D01*
X110446832Y-42457281D01*
X110367480Y-42360590D01*
X110013926Y-42007036D01*
X109917235Y-41927684D01*
X109893718Y-41915113D01*
X109881147Y-41891596D01*
X109801795Y-41794905D01*
X109448241Y-41441351D01*
X109351550Y-41361999D01*
X109241236Y-41303034D01*
X109121538Y-41266724D01*
X109055320Y-41260202D01*
X108240309Y-40451790D01*
X108543404Y-40326245D01*
X108973340Y-40038970D01*
X109338970Y-39673340D01*
X109626245Y-39243404D01*
X109824122Y-38765684D01*
X109925000Y-38258540D01*
X109925000Y-37741460D01*
X109824122Y-37234316D01*
X109713165Y-36966441D01*
X112150365Y-34529241D01*
X124320028Y-46600366D01*
G37*
%TD.AperFunction*%
D35*
X113955270Y-43173726D02*
X113941127Y-43187868D01*
X113955270Y-43202011D01*
X113775665Y-43381616D01*
X113761522Y-43367473D01*
X113747380Y-43381616D01*
X113567775Y-43202011D01*
X113581917Y-43187868D01*
X113567775Y-43173726D01*
X113747380Y-42994121D01*
X113761522Y-43008263D01*
X113775665Y-42994121D01*
X113955270Y-43173726D01*
%TA.AperFunction,Conductor*%
D36*
G36*
X113955270Y-43173726D02*
G01*
X113941127Y-43187868D01*
X113955270Y-43202011D01*
X113775665Y-43381616D01*
X113761522Y-43367473D01*
X113747380Y-43381616D01*
X113567775Y-43202011D01*
X113581917Y-43187868D01*
X113567775Y-43173726D01*
X113747380Y-42994121D01*
X113761522Y-43008263D01*
X113775665Y-42994121D01*
X113955270Y-43173726D01*
G37*
%TD.AperFunction*%
%TD*%
D35*
%TO.N,GND*%
X107310584Y-43077678D02*
X107346894Y-43197376D01*
X107405859Y-43307690D01*
X107485211Y-43404381D01*
X107701600Y-43620770D01*
X107594820Y-43727550D01*
X107477271Y-43750932D01*
X107307111Y-43821414D01*
X107153972Y-43923738D01*
X107023738Y-44053972D01*
X106921414Y-44207111D01*
X106850932Y-44377271D01*
X106815000Y-44557911D01*
X106815000Y-44742089D01*
X106850932Y-44922729D01*
X106921414Y-45092889D01*
X107023738Y-45246028D01*
X107153972Y-45376262D01*
X107307111Y-45478586D01*
X107477271Y-45549068D01*
X107657911Y-45585000D01*
X107842089Y-45585000D01*
X108022729Y-45549068D01*
X108096302Y-45518594D01*
X108103971Y-45526263D01*
X108257110Y-45628587D01*
X108427270Y-45699069D01*
X108607910Y-45735001D01*
X108792088Y-45735001D01*
X108972728Y-45699069D01*
X109142888Y-45628587D01*
X109296027Y-45526263D01*
X109426261Y-45396029D01*
X109448268Y-45363094D01*
X109451020Y-45365846D01*
X109560443Y-45256423D01*
X109560443Y-45475269D01*
X109640440Y-45539555D01*
X109656531Y-45547851D01*
X109668601Y-45570432D01*
X109747953Y-45667123D01*
X109834880Y-45754050D01*
X109706285Y-45807315D01*
X109553146Y-45909639D01*
X109422912Y-46039873D01*
X109320588Y-46193012D01*
X109250106Y-46363172D01*
X109214174Y-46543812D01*
X109214174Y-46727990D01*
X109250106Y-46908630D01*
X109320588Y-47078790D01*
X109422912Y-47231929D01*
X109553146Y-47362163D01*
X109706285Y-47464487D01*
X109876445Y-47534969D01*
X110057085Y-47570901D01*
X110241263Y-47570901D01*
X110421903Y-47534969D01*
X110592063Y-47464487D01*
X110691716Y-47397901D01*
X110865000Y-47397901D01*
X110865000Y-47492089D01*
X110900932Y-47672729D01*
X110971414Y-47842889D01*
X111073738Y-47996028D01*
X111203972Y-48126262D01*
X111357111Y-48228586D01*
X111373620Y-48235424D01*
X111400932Y-48372729D01*
X111471414Y-48542889D01*
X111573738Y-48696028D01*
X111576985Y-48699275D01*
X111555545Y-48807057D01*
X111555545Y-48991235D01*
X111591477Y-49171875D01*
X111661959Y-49342035D01*
X111764283Y-49495174D01*
X111894517Y-49625408D01*
X112047656Y-49727732D01*
X112217816Y-49798214D01*
X112259008Y-49806408D01*
X112278050Y-49852379D01*
X112374131Y-49996175D01*
X112218064Y-50060820D01*
X112064925Y-50163144D01*
X111934691Y-50293378D01*
X111837639Y-50438626D01*
X111739278Y-50458192D01*
X111569118Y-50528674D01*
X111415979Y-50630998D01*
X111285745Y-50761232D01*
X111183421Y-50914371D01*
X111112939Y-51084531D01*
X111077007Y-51265171D01*
X111077007Y-51449349D01*
X111112939Y-51629989D01*
X111183421Y-51800149D01*
X111285745Y-51953288D01*
X111313909Y-51981452D01*
X111232877Y-52047953D01*
X110879323Y-52401507D01*
X110799971Y-52498198D01*
X110787400Y-52521715D01*
X110763883Y-52534286D01*
X110667192Y-52613638D01*
X110313638Y-52967192D01*
X110234286Y-53063883D01*
X110221715Y-53087400D01*
X110198198Y-53099971D01*
X110101507Y-53179323D01*
X109747953Y-53532877D01*
X109668601Y-53629568D01*
X109656030Y-53653086D01*
X109632512Y-53665657D01*
X109535821Y-53745009D01*
X109182267Y-54098563D01*
X109102915Y-54195254D01*
X109090344Y-54218771D01*
X109066827Y-54231342D01*
X108970136Y-54310694D01*
X108616582Y-54664248D01*
X108537230Y-54760939D01*
X108524659Y-54784457D01*
X108501141Y-54797028D01*
X108404450Y-54876380D01*
X108050896Y-55229934D01*
X107971544Y-55326625D01*
X107958973Y-55350142D01*
X107935456Y-55362713D01*
X107838765Y-55442065D01*
X107485211Y-55795619D01*
X107405859Y-55892310D01*
X107346894Y-56002624D01*
X107310584Y-56122322D01*
X107300000Y-56229787D01*
X107289416Y-56122322D01*
X107253106Y-56002624D01*
X107194141Y-55892310D01*
X107114789Y-55795619D01*
X106761235Y-55442065D01*
X106664544Y-55362713D01*
X106641963Y-55350643D01*
X106633668Y-55334553D01*
X106569382Y-55254556D01*
X106344876Y-55254556D01*
X106341187Y-55258245D01*
X106310050Y-55255178D01*
X106185568Y-55267438D01*
X106146061Y-55279422D01*
X106158045Y-55239915D01*
X106170305Y-55115433D01*
X106167239Y-55084297D01*
X106170928Y-55080608D01*
X106170928Y-54856102D01*
X106090931Y-54791816D01*
X106074840Y-54783520D01*
X106062770Y-54760939D01*
X105983418Y-54664248D01*
X105629864Y-54310694D01*
X105533173Y-54231342D01*
X105509656Y-54218771D01*
X105497085Y-54195254D01*
X105417733Y-54098563D01*
X105064179Y-53745009D01*
X104967488Y-53665657D01*
X104943970Y-53653086D01*
X104931399Y-53629568D01*
X104852047Y-53532877D01*
X104498493Y-53179323D01*
X104401802Y-53099971D01*
X104378285Y-53087400D01*
X104365714Y-53063883D01*
X104286362Y-52967192D01*
X103932808Y-52613638D01*
X103836117Y-52534286D01*
X103812600Y-52521715D01*
X103800029Y-52498198D01*
X103720677Y-52401507D01*
X103620730Y-52301560D01*
X103626262Y-52296028D01*
X103728586Y-52142889D01*
X103799068Y-51972729D01*
X103835000Y-51792089D01*
X103835000Y-51607911D01*
X103799068Y-51427271D01*
X103728586Y-51257111D01*
X103626262Y-51103972D01*
X103496028Y-50973738D01*
X103342889Y-50871414D01*
X103172729Y-50800932D01*
X102992089Y-50765000D01*
X102807911Y-50765000D01*
X102627271Y-50800932D01*
X102457111Y-50871414D01*
X102303972Y-50973738D01*
X102298440Y-50979270D01*
X102235752Y-50916582D01*
X102139061Y-50837230D01*
X102116480Y-50825160D01*
X102108184Y-50809069D01*
X102043898Y-50729072D01*
X101819392Y-50729072D01*
X101815703Y-50732761D01*
X101784567Y-50729695D01*
X101660085Y-50741955D01*
X101620578Y-50753939D01*
X101632562Y-50714432D01*
X101644822Y-50589950D01*
X101641755Y-50558813D01*
X101645444Y-50555124D01*
X101645444Y-50330618D01*
X101565447Y-50266332D01*
X101549357Y-50258037D01*
X101537287Y-50235456D01*
X101457935Y-50138765D01*
X101104381Y-49785211D01*
X101007690Y-49705859D01*
X100897376Y-49646894D01*
X100777678Y-49610584D01*
X100670213Y-49600000D01*
X100777678Y-49589416D01*
X100897376Y-49553106D01*
X101007690Y-49494141D01*
X101104381Y-49414789D01*
X101457935Y-49061235D01*
X101537287Y-48964544D01*
X101549858Y-48941027D01*
X101573375Y-48928456D01*
X101670066Y-48849104D01*
X102023620Y-48495550D01*
X102102972Y-48398859D01*
X102115543Y-48375341D01*
X102139061Y-48362770D01*
X102235752Y-48283418D01*
X102589306Y-47929864D01*
X102668658Y-47833173D01*
X102681229Y-47809656D01*
X102704746Y-47797085D01*
X102801437Y-47717733D01*
X103154991Y-47364179D01*
X103234343Y-47267488D01*
X103246413Y-47244907D01*
X103262504Y-47236611D01*
X103342501Y-47172325D01*
X103342501Y-46947819D01*
X103338812Y-46944130D01*
X103341878Y-46912994D01*
X103329618Y-46788512D01*
X103317634Y-46749005D01*
X103357141Y-46760989D01*
X103481623Y-46773249D01*
X103512760Y-46770182D01*
X103516449Y-46773871D01*
X103740955Y-46773871D01*
X103805241Y-46693874D01*
X103813536Y-46677784D01*
X103836117Y-46665714D01*
X103932808Y-46586362D01*
X104286362Y-46232808D01*
X104365714Y-46136117D01*
X104378285Y-46112600D01*
X104401802Y-46100029D01*
X104498493Y-46020677D01*
X104852047Y-45667123D01*
X104931399Y-45570432D01*
X104943970Y-45546914D01*
X104967488Y-45534343D01*
X105064179Y-45454991D01*
X105417733Y-45101437D01*
X105497085Y-45004746D01*
X105509656Y-44981229D01*
X105533173Y-44968658D01*
X105629864Y-44889306D01*
X105983418Y-44535752D01*
X106062770Y-44439061D01*
X106075341Y-44415543D01*
X106098859Y-44402972D01*
X106195550Y-44323620D01*
X106549104Y-43970066D01*
X106628456Y-43873375D01*
X106641027Y-43849858D01*
X106664544Y-43837287D01*
X106761235Y-43757935D01*
X107114789Y-43404381D01*
X107194141Y-43307690D01*
X107253106Y-43197376D01*
X107289416Y-43077678D01*
X107300000Y-42970213D01*
X107310584Y-43077678D01*
%TA.AperFunction,Conductor*%
D36*
G36*
X107310584Y-43077678D02*
G01*
X107346894Y-43197376D01*
X107405859Y-43307690D01*
X107485211Y-43404381D01*
X107701600Y-43620770D01*
X107594820Y-43727550D01*
X107477271Y-43750932D01*
X107307111Y-43821414D01*
X107153972Y-43923738D01*
X107023738Y-44053972D01*
X106921414Y-44207111D01*
X106850932Y-44377271D01*
X106815000Y-44557911D01*
X106815000Y-44742089D01*
X106850932Y-44922729D01*
X106921414Y-45092889D01*
X107023738Y-45246028D01*
X107153972Y-45376262D01*
X107307111Y-45478586D01*
X107477271Y-45549068D01*
X107657911Y-45585000D01*
X107842089Y-45585000D01*
X108022729Y-45549068D01*
X108096302Y-45518594D01*
X108103971Y-45526263D01*
X108257110Y-45628587D01*
X108427270Y-45699069D01*
X108607910Y-45735001D01*
X108792088Y-45735001D01*
X108972728Y-45699069D01*
X109142888Y-45628587D01*
X109296027Y-45526263D01*
X109426261Y-45396029D01*
X109448268Y-45363094D01*
X109451020Y-45365846D01*
X109560443Y-45256423D01*
X109560443Y-45475269D01*
X109640440Y-45539555D01*
X109656531Y-45547851D01*
X109668601Y-45570432D01*
X109747953Y-45667123D01*
X109834880Y-45754050D01*
X109706285Y-45807315D01*
X109553146Y-45909639D01*
X109422912Y-46039873D01*
X109320588Y-46193012D01*
X109250106Y-46363172D01*
X109214174Y-46543812D01*
X109214174Y-46727990D01*
X109250106Y-46908630D01*
X109320588Y-47078790D01*
X109422912Y-47231929D01*
X109553146Y-47362163D01*
X109706285Y-47464487D01*
X109876445Y-47534969D01*
X110057085Y-47570901D01*
X110241263Y-47570901D01*
X110421903Y-47534969D01*
X110592063Y-47464487D01*
X110691716Y-47397901D01*
X110865000Y-47397901D01*
X110865000Y-47492089D01*
X110900932Y-47672729D01*
X110971414Y-47842889D01*
X111073738Y-47996028D01*
X111203972Y-48126262D01*
X111357111Y-48228586D01*
X111373620Y-48235424D01*
X111400932Y-48372729D01*
X111471414Y-48542889D01*
X111573738Y-48696028D01*
X111576985Y-48699275D01*
X111555545Y-48807057D01*
X111555545Y-48991235D01*
X111591477Y-49171875D01*
X111661959Y-49342035D01*
X111764283Y-49495174D01*
X111894517Y-49625408D01*
X112047656Y-49727732D01*
X112217816Y-49798214D01*
X112259008Y-49806408D01*
X112278050Y-49852379D01*
X112374131Y-49996175D01*
X112218064Y-50060820D01*
X112064925Y-50163144D01*
X111934691Y-50293378D01*
X111837639Y-50438626D01*
X111739278Y-50458192D01*
X111569118Y-50528674D01*
X111415979Y-50630998D01*
X111285745Y-50761232D01*
X111183421Y-50914371D01*
X111112939Y-51084531D01*
X111077007Y-51265171D01*
X111077007Y-51449349D01*
X111112939Y-51629989D01*
X111183421Y-51800149D01*
X111285745Y-51953288D01*
X111313909Y-51981452D01*
X111232877Y-52047953D01*
X110879323Y-52401507D01*
X110799971Y-52498198D01*
X110787400Y-52521715D01*
X110763883Y-52534286D01*
X110667192Y-52613638D01*
X110313638Y-52967192D01*
X110234286Y-53063883D01*
X110221715Y-53087400D01*
X110198198Y-53099971D01*
X110101507Y-53179323D01*
X109747953Y-53532877D01*
X109668601Y-53629568D01*
X109656030Y-53653086D01*
X109632512Y-53665657D01*
X109535821Y-53745009D01*
X109182267Y-54098563D01*
X109102915Y-54195254D01*
X109090344Y-54218771D01*
X109066827Y-54231342D01*
X108970136Y-54310694D01*
X108616582Y-54664248D01*
X108537230Y-54760939D01*
X108524659Y-54784457D01*
X108501141Y-54797028D01*
X108404450Y-54876380D01*
X108050896Y-55229934D01*
X107971544Y-55326625D01*
X107958973Y-55350142D01*
X107935456Y-55362713D01*
X107838765Y-55442065D01*
X107485211Y-55795619D01*
X107405859Y-55892310D01*
X107346894Y-56002624D01*
X107310584Y-56122322D01*
X107300000Y-56229787D01*
X107289416Y-56122322D01*
X107253106Y-56002624D01*
X107194141Y-55892310D01*
X107114789Y-55795619D01*
X106761235Y-55442065D01*
X106664544Y-55362713D01*
X106641963Y-55350643D01*
X106633668Y-55334553D01*
X106569382Y-55254556D01*
X106344876Y-55254556D01*
X106341187Y-55258245D01*
X106310050Y-55255178D01*
X106185568Y-55267438D01*
X106146061Y-55279422D01*
X106158045Y-55239915D01*
X106170305Y-55115433D01*
X106167239Y-55084297D01*
X106170928Y-55080608D01*
X106170928Y-54856102D01*
X106090931Y-54791816D01*
X106074840Y-54783520D01*
X106062770Y-54760939D01*
X105983418Y-54664248D01*
X105629864Y-54310694D01*
X105533173Y-54231342D01*
X105509656Y-54218771D01*
X105497085Y-54195254D01*
X105417733Y-54098563D01*
X105064179Y-53745009D01*
X104967488Y-53665657D01*
X104943970Y-53653086D01*
X104931399Y-53629568D01*
X104852047Y-53532877D01*
X104498493Y-53179323D01*
X104401802Y-53099971D01*
X104378285Y-53087400D01*
X104365714Y-53063883D01*
X104286362Y-52967192D01*
X103932808Y-52613638D01*
X103836117Y-52534286D01*
X103812600Y-52521715D01*
X103800029Y-52498198D01*
X103720677Y-52401507D01*
X103620730Y-52301560D01*
X103626262Y-52296028D01*
X103728586Y-52142889D01*
X103799068Y-51972729D01*
X103835000Y-51792089D01*
X103835000Y-51607911D01*
X103799068Y-51427271D01*
X103728586Y-51257111D01*
X103626262Y-51103972D01*
X103496028Y-50973738D01*
X103342889Y-50871414D01*
X103172729Y-50800932D01*
X102992089Y-50765000D01*
X102807911Y-50765000D01*
X102627271Y-50800932D01*
X102457111Y-50871414D01*
X102303972Y-50973738D01*
X102298440Y-50979270D01*
X102235752Y-50916582D01*
X102139061Y-50837230D01*
X102116480Y-50825160D01*
X102108184Y-50809069D01*
X102043898Y-50729072D01*
X101819392Y-50729072D01*
X101815703Y-50732761D01*
X101784567Y-50729695D01*
X101660085Y-50741955D01*
X101620578Y-50753939D01*
X101632562Y-50714432D01*
X101644822Y-50589950D01*
X101641755Y-50558813D01*
X101645444Y-50555124D01*
X101645444Y-50330618D01*
X101565447Y-50266332D01*
X101549357Y-50258037D01*
X101537287Y-50235456D01*
X101457935Y-50138765D01*
X101104381Y-49785211D01*
X101007690Y-49705859D01*
X100897376Y-49646894D01*
X100777678Y-49610584D01*
X100670213Y-49600000D01*
X100777678Y-49589416D01*
X100897376Y-49553106D01*
X101007690Y-49494141D01*
X101104381Y-49414789D01*
X101457935Y-49061235D01*
X101537287Y-48964544D01*
X101549858Y-48941027D01*
X101573375Y-48928456D01*
X101670066Y-48849104D01*
X102023620Y-48495550D01*
X102102972Y-48398859D01*
X102115543Y-48375341D01*
X102139061Y-48362770D01*
X102235752Y-48283418D01*
X102589306Y-47929864D01*
X102668658Y-47833173D01*
X102681229Y-47809656D01*
X102704746Y-47797085D01*
X102801437Y-47717733D01*
X103154991Y-47364179D01*
X103234343Y-47267488D01*
X103246413Y-47244907D01*
X103262504Y-47236611D01*
X103342501Y-47172325D01*
X103342501Y-46947819D01*
X103338812Y-46944130D01*
X103341878Y-46912994D01*
X103329618Y-46788512D01*
X103317634Y-46749005D01*
X103357141Y-46760989D01*
X103481623Y-46773249D01*
X103512760Y-46770182D01*
X103516449Y-46773871D01*
X103740955Y-46773871D01*
X103805241Y-46693874D01*
X103813536Y-46677784D01*
X103836117Y-46665714D01*
X103932808Y-46586362D01*
X104286362Y-46232808D01*
X104365714Y-46136117D01*
X104378285Y-46112600D01*
X104401802Y-46100029D01*
X104498493Y-46020677D01*
X104852047Y-45667123D01*
X104931399Y-45570432D01*
X104943970Y-45546914D01*
X104967488Y-45534343D01*
X105064179Y-45454991D01*
X105417733Y-45101437D01*
X105497085Y-45004746D01*
X105509656Y-44981229D01*
X105533173Y-44968658D01*
X105629864Y-44889306D01*
X105983418Y-44535752D01*
X106062770Y-44439061D01*
X106075341Y-44415543D01*
X106098859Y-44402972D01*
X106195550Y-44323620D01*
X106549104Y-43970066D01*
X106628456Y-43873375D01*
X106641027Y-43849858D01*
X106664544Y-43837287D01*
X106761235Y-43757935D01*
X107114789Y-43404381D01*
X107194141Y-43307690D01*
X107253106Y-43197376D01*
X107289416Y-43077678D01*
X107300000Y-42970213D01*
X107310584Y-43077678D01*
G37*
%TD.AperFunction*%
D35*
X114494105Y-50929361D02*
X114477134Y-50946331D01*
X114491276Y-50960474D01*
X114466579Y-50985171D01*
X114258689Y-50777281D01*
X114283386Y-50752584D01*
X114297529Y-50766726D01*
X114314500Y-50749756D01*
X114494105Y-50929361D01*
%TA.AperFunction,Conductor*%
D36*
G36*
X114494105Y-50929361D02*
G01*
X114477134Y-50946331D01*
X114491276Y-50960474D01*
X114466579Y-50985171D01*
X114258689Y-50777281D01*
X114283386Y-50752584D01*
X114297529Y-50766726D01*
X114314500Y-50749756D01*
X114494105Y-50929361D01*
G37*
%TD.AperFunction*%
%TD*%
M02*
