%TF.GenerationSoftware,KiCad,Pcbnew,(5.1.9-0-10_14)*%
%TF.CreationDate,2021-01-10T14:58:04+09:00*%
%TF.ProjectId,Unison,556e6973-6f6e-42e6-9b69-6361645f7063,v01_1AU*%
%TF.SameCoordinates,Original*%
%TF.FileFunction,Soldermask,Top*%
%TF.FilePolarity,Negative*%
%FSLAX46Y46*%
G04 Gerber Fmt 4.6, Leading zero omitted, Abs format (unit mm)*
G04 Created by KiCad (PCBNEW (5.1.9-0-10_14)) date 2021-01-10 14:58:04*
%MOMM*%
%LPD*%
G01*
G04 APERTURE LIST*
%ADD10C,1.500000*%
%ADD11C,1.680000*%
%ADD12C,3.980000*%
%ADD13C,2.140000*%
%ADD14C,1.000000*%
%ADD15C,5.000000*%
%ADD16O,7.000240X5.000000*%
%ADD17R,3.400000X1.300000*%
%ADD18C,1.397000*%
%ADD19O,1.108000X2.216000*%
%ADD20C,0.650000*%
%ADD21O,1.900000X1.600000*%
%ADD22C,2.100000*%
%ADD23R,2.000000X2.000000*%
%ADD24C,2.000000*%
%ADD25R,3.200000X2.000000*%
G04 APERTURE END LIST*
D10*
%TO.C,REF\u002A\u002A*%
X300150000Y-71550000D02*
X296350000Y-71550000D01*
X300200000Y-75850000D02*
X296400000Y-75850000D01*
X15250000Y-75850000D02*
X19050000Y-75850000D01*
X15200000Y-71550000D02*
X19000000Y-71550000D01*
X294250000Y-73700000D02*
G75*
G03*
X296400000Y-75850000I2150000J0D01*
G01*
X294250000Y-73700000D02*
G75*
G02*
X296400000Y-71550000I2150000J0D01*
G01*
X21150000Y-73700000D02*
G75*
G02*
X19000000Y-75850000I-2150000J0D01*
G01*
X21150000Y-73700000D02*
G75*
G03*
X19000000Y-71550000I-2150000J0D01*
G01*
%TD*%
D11*
%TO.C,SW_89*%
X254000000Y-87200000D03*
X263000000Y-87200000D03*
D12*
X258500000Y-87200000D03*
D11*
X253420000Y-87200000D03*
X263580000Y-87200000D03*
%TD*%
D13*
%TO.C,*%
X298000000Y-109300000D03*
%TD*%
%TO.C,*%
X297700000Y-109300000D03*
%TD*%
%TO.C,*%
X297400000Y-109300000D03*
%TD*%
%TO.C,*%
X18000000Y-109300000D03*
%TD*%
%TO.C,*%
X17700000Y-109300000D03*
%TD*%
%TO.C,*%
X17400000Y-109300000D03*
%TD*%
%TO.C,*%
X17400000Y-27300000D03*
%TD*%
%TO.C,*%
X17700000Y-27300000D03*
%TD*%
%TO.C,*%
X18000000Y-27300000D03*
%TD*%
%TO.C,*%
X297400000Y-27300000D03*
%TD*%
%TO.C,*%
X297700000Y-27300000D03*
%TD*%
%TO.C,*%
X298000000Y-27300000D03*
%TD*%
D11*
%TO.C,SW_37_2*%
X94700000Y-58900000D03*
X94700000Y-49900000D03*
D12*
X94700000Y-54400000D03*
D11*
X94700000Y-59480000D03*
X94700000Y-49320000D03*
%TD*%
D13*
%TO.C,*%
X18000000Y-43500000D03*
%TD*%
%TO.C,*%
X17400000Y-43500000D03*
%TD*%
%TO.C,*%
X17700000Y-43500000D03*
%TD*%
%TO.C,*%
X18000000Y-19700000D03*
%TD*%
%TO.C,*%
X17400000Y-19700000D03*
%TD*%
%TO.C,*%
X17700000Y-19700000D03*
%TD*%
%TO.C,*%
X298000000Y-19700000D03*
%TD*%
%TO.C,*%
X297400000Y-19700000D03*
%TD*%
%TO.C,*%
X297700000Y-19700000D03*
%TD*%
%TO.C,*%
X297700000Y-43500000D03*
%TD*%
%TO.C,*%
X297400000Y-43500000D03*
%TD*%
%TO.C,*%
X297400000Y-23100000D03*
%TD*%
%TO.C,*%
X18000000Y-23100000D03*
%TD*%
%TO.C,*%
X207800000Y-23100000D03*
%TD*%
%TO.C,*%
X208100000Y-23100000D03*
%TD*%
%TO.C,*%
X208400000Y-23100000D03*
%TD*%
%TO.C,*%
X107000000Y-23100000D03*
%TD*%
%TO.C,*%
X107300000Y-23100000D03*
%TD*%
%TO.C,*%
X107600000Y-23100000D03*
%TD*%
%TO.C,*%
X298000000Y-43500000D03*
%TD*%
D11*
%TO.C,SW_43*%
X111200000Y-70800000D03*
X120200000Y-70800000D03*
D12*
X115700000Y-70800000D03*
D11*
X110620000Y-70800000D03*
X120780000Y-70800000D03*
%TD*%
%TO.C,SW_10_2*%
X27200000Y-103600000D03*
X36200000Y-103600000D03*
D12*
X31700000Y-103600000D03*
D11*
X26620000Y-103600000D03*
X36780000Y-103600000D03*
%TD*%
%TO.C,SW_12_1*%
X35600000Y-54400000D03*
X44600000Y-54400000D03*
D12*
X40100000Y-54400000D03*
D11*
X35020000Y-54400000D03*
X45180000Y-54400000D03*
%TD*%
D13*
%TO.C,*%
X298000000Y-23100000D03*
%TD*%
%TO.C,*%
X17700000Y-23100000D03*
%TD*%
%TO.C,*%
X297700000Y-23100000D03*
%TD*%
D11*
%TO.C,SW_25_2*%
X69200000Y-95400000D03*
X78200000Y-95400000D03*
D12*
X73700000Y-95400000D03*
D11*
X68620000Y-95400000D03*
X78780000Y-95400000D03*
%TD*%
%TO.C,SW_19_2*%
X27200000Y-87200000D03*
X36200000Y-87200000D03*
D12*
X31700000Y-87200000D03*
D11*
X26620000Y-87200000D03*
X36780000Y-87200000D03*
%TD*%
%TO.C,SW_39_2*%
X94400000Y-87200000D03*
X103400000Y-87200000D03*
D12*
X98900000Y-87200000D03*
D11*
X93820000Y-87200000D03*
X103980000Y-87200000D03*
%TD*%
%TO.C,SW_17_2*%
X32580000Y-54400000D03*
X22420000Y-54400000D03*
D12*
X27500000Y-54400000D03*
D11*
X32000000Y-54400000D03*
X23000000Y-54400000D03*
%TD*%
%TO.C,SW_18_2*%
X32580000Y-70800000D03*
X22420000Y-70800000D03*
D12*
X27500000Y-70800000D03*
D11*
X32000000Y-70800000D03*
X23000000Y-70800000D03*
%TD*%
%TO.C,SW_38_2*%
X99780000Y-70800000D03*
X89620000Y-70800000D03*
D12*
X94700000Y-70800000D03*
D11*
X99200000Y-70800000D03*
X90200000Y-70800000D03*
%TD*%
%TO.C,SW_7_2*%
X292980000Y-54400000D03*
X282820000Y-54400000D03*
D12*
X287900000Y-54400000D03*
D11*
X292400000Y-54400000D03*
X283400000Y-54400000D03*
%TD*%
%TO.C,SW_8_2*%
X292980000Y-70800000D03*
X282820000Y-70800000D03*
D12*
X287900000Y-70800000D03*
D11*
X292400000Y-70800000D03*
X283400000Y-70800000D03*
%TD*%
%TO.C,SW_21*%
X35600000Y-38000000D03*
X44600000Y-38000000D03*
D12*
X40100000Y-38000000D03*
D11*
X35020000Y-38000000D03*
X45180000Y-38000000D03*
%TD*%
%TO.C,SW_26*%
X52400000Y-38000000D03*
X61400000Y-38000000D03*
D12*
X56900000Y-38000000D03*
D11*
X51820000Y-38000000D03*
X61980000Y-38000000D03*
%TD*%
D13*
%TO.C,*%
X17400000Y-23100000D03*
%TD*%
D14*
%TO.C,REF\u002A\u002A*%
X298442035Y-71500000D03*
X298450000Y-75850000D03*
X294850000Y-75200000D03*
X296400000Y-71500000D03*
X296400000Y-75850000D03*
X294250000Y-73700000D03*
X294850000Y-72200000D03*
X20550000Y-75200000D03*
D15*
X40400000Y-45100000D03*
D16*
X143400000Y-64200000D03*
X205700000Y-102400000D03*
X275250000Y-45100000D03*
D14*
X40400000Y-43200000D03*
X38500000Y-45100000D03*
X42300000Y-45100000D03*
X40400000Y-47000000D03*
X39050000Y-43750000D03*
X41650000Y-43750000D03*
X39050000Y-46400000D03*
X41650000Y-46450000D03*
X275250000Y-43250000D03*
X275250000Y-46950000D03*
X276450000Y-46950000D03*
X274050000Y-46950000D03*
X274050000Y-43250000D03*
X276450000Y-43233000D03*
X205750000Y-100550000D03*
X205700000Y-104250000D03*
X206950000Y-100550000D03*
X204550000Y-100550000D03*
X204500000Y-104250000D03*
X206900000Y-104250000D03*
X143400000Y-62350000D03*
X144600000Y-62350000D03*
X142200000Y-62350000D03*
X143400000Y-66100000D03*
X142200000Y-66100000D03*
X144600000Y-66100000D03*
X21150000Y-73700000D03*
X19000000Y-71550000D03*
X19000000Y-75900000D03*
X20550000Y-72200000D03*
X16950000Y-71550000D03*
X16957965Y-75900000D03*
%TD*%
D17*
%TO.C,LS1*%
X23350000Y-27550000D03*
X23350000Y-18850000D03*
%TD*%
D18*
%TO.C,OL1*%
X111890000Y-19800000D03*
X114430000Y-19800000D03*
X116970000Y-19800000D03*
X119510000Y-19800000D03*
%TD*%
D11*
%TO.C,SW_6*%
X287600000Y-38000000D03*
X296600000Y-38000000D03*
D12*
X292100000Y-38000000D03*
D11*
X287020000Y-38000000D03*
X297180000Y-38000000D03*
%TD*%
%TO.C,SW_9*%
X287600000Y-87200000D03*
X296600000Y-87200000D03*
D12*
X292100000Y-87200000D03*
D11*
X287020000Y-87200000D03*
X297180000Y-87200000D03*
%TD*%
%TO.C,SW_14*%
X35600000Y-87200000D03*
X44600000Y-87200000D03*
D12*
X40100000Y-87200000D03*
D11*
X35020000Y-87200000D03*
X45180000Y-87200000D03*
%TD*%
%TO.C,SW_15*%
X35600000Y-103600000D03*
X44600000Y-103600000D03*
D12*
X40100000Y-103600000D03*
D11*
X35020000Y-103600000D03*
X45180000Y-103600000D03*
%TD*%
%TO.C,SW_16*%
X18800000Y-38000000D03*
X27800000Y-38000000D03*
D12*
X23300000Y-38000000D03*
D11*
X18220000Y-38000000D03*
X28380000Y-38000000D03*
%TD*%
%TO.C,SW_29*%
X52400000Y-87200000D03*
X61400000Y-87200000D03*
D12*
X56900000Y-87200000D03*
D11*
X51820000Y-87200000D03*
X61980000Y-87200000D03*
%TD*%
%TO.C,SW_30_1*%
X86000000Y-103600000D03*
X95000000Y-103600000D03*
D12*
X90500000Y-103600000D03*
D11*
X85420000Y-103600000D03*
X95580000Y-103600000D03*
%TD*%
%TO.C,SW_31*%
X69200000Y-38000000D03*
X78200000Y-38000000D03*
D12*
X73700000Y-38000000D03*
D11*
X68620000Y-38000000D03*
X78780000Y-38000000D03*
%TD*%
%TO.C,SW_34*%
X102800000Y-87200000D03*
X111800000Y-87200000D03*
D12*
X107300000Y-87200000D03*
D11*
X102220000Y-87200000D03*
X112380000Y-87200000D03*
%TD*%
%TO.C,SW_36_1*%
X86000000Y-38000000D03*
X95000000Y-38000000D03*
D12*
X90500000Y-38000000D03*
D11*
X85420000Y-38000000D03*
X95580000Y-38000000D03*
%TD*%
%TO.C,SW_41_1*%
X102800000Y-38000000D03*
X111800000Y-38000000D03*
D12*
X107300000Y-38000000D03*
D11*
X102220000Y-38000000D03*
X112380000Y-38000000D03*
%TD*%
%TO.C,SW_42*%
X115700000Y-49900000D03*
X115700000Y-58900000D03*
D12*
X115700000Y-54400000D03*
D11*
X115700000Y-49320000D03*
X115700000Y-59480000D03*
%TD*%
%TO.C,SW_46_1*%
X119600000Y-38000000D03*
X128600000Y-38000000D03*
D12*
X124100000Y-38000000D03*
D11*
X119020000Y-38000000D03*
X129180000Y-38000000D03*
%TD*%
%TO.C,SW_47*%
X128000000Y-54400000D03*
X137000000Y-54400000D03*
D12*
X132500000Y-54400000D03*
D11*
X127420000Y-54400000D03*
X137580000Y-54400000D03*
%TD*%
%TO.C,SW_48*%
X128000000Y-70800000D03*
X137000000Y-70800000D03*
D12*
X132500000Y-70800000D03*
D11*
X127420000Y-70800000D03*
X137580000Y-70800000D03*
%TD*%
%TO.C,SW_49*%
X119600000Y-87200000D03*
X128600000Y-87200000D03*
D12*
X124100000Y-87200000D03*
D11*
X119020000Y-87200000D03*
X129180000Y-87200000D03*
%TD*%
%TO.C,SW_50*%
X153200000Y-103600000D03*
X162200000Y-103600000D03*
D12*
X157700000Y-103600000D03*
D11*
X152620000Y-103600000D03*
X162780000Y-103600000D03*
%TD*%
%TO.C,SW_51_1*%
X136400000Y-38000000D03*
X145400000Y-38000000D03*
D12*
X140900000Y-38000000D03*
D11*
X135820000Y-38000000D03*
X145980000Y-38000000D03*
%TD*%
%TO.C,SW_52*%
X144800000Y-54400000D03*
X153800000Y-54400000D03*
D12*
X149300000Y-54400000D03*
D11*
X144220000Y-54400000D03*
X154380000Y-54400000D03*
%TD*%
%TO.C,SW_53*%
X144800000Y-70800000D03*
X153800000Y-70800000D03*
D12*
X149300000Y-70800000D03*
D11*
X144220000Y-70800000D03*
X154380000Y-70800000D03*
%TD*%
%TO.C,SW_54*%
X136400000Y-87200000D03*
X145400000Y-87200000D03*
D12*
X140900000Y-87200000D03*
D11*
X135820000Y-87200000D03*
X145980000Y-87200000D03*
%TD*%
%TO.C,SW_56*%
X153200000Y-38000000D03*
X162200000Y-38000000D03*
D12*
X157700000Y-38000000D03*
D11*
X152620000Y-38000000D03*
X162780000Y-38000000D03*
%TD*%
%TO.C,SW_57*%
X161600000Y-54400000D03*
X170600000Y-54400000D03*
D12*
X166100000Y-54400000D03*
D11*
X161020000Y-54400000D03*
X171180000Y-54400000D03*
%TD*%
%TO.C,SW_58*%
X161600000Y-70800000D03*
X170600000Y-70800000D03*
D12*
X166100000Y-70800000D03*
D11*
X161020000Y-70800000D03*
X171180000Y-70800000D03*
%TD*%
%TO.C,SW_59*%
X153200000Y-87200000D03*
X162200000Y-87200000D03*
D12*
X157700000Y-87200000D03*
D11*
X152620000Y-87200000D03*
X162780000Y-87200000D03*
%TD*%
%TO.C,SW_61*%
X170000000Y-38000000D03*
X179000000Y-38000000D03*
D12*
X174500000Y-38000000D03*
D11*
X169420000Y-38000000D03*
X179580000Y-38000000D03*
%TD*%
%TO.C,SW_62*%
X178400000Y-54400000D03*
X187400000Y-54400000D03*
D12*
X182900000Y-54400000D03*
D11*
X177820000Y-54400000D03*
X187980000Y-54400000D03*
%TD*%
%TO.C,SW_63*%
X178400000Y-70800000D03*
X187400000Y-70800000D03*
D12*
X182900000Y-70800000D03*
D11*
X177820000Y-70800000D03*
X187980000Y-70800000D03*
%TD*%
%TO.C,SW_64*%
X170000000Y-87200000D03*
X179000000Y-87200000D03*
D12*
X174500000Y-87200000D03*
D11*
X169420000Y-87200000D03*
X179580000Y-87200000D03*
%TD*%
%TO.C,SW_65_1*%
X170000000Y-103600000D03*
X179000000Y-103600000D03*
D12*
X174500000Y-103600000D03*
D11*
X169420000Y-103600000D03*
X179580000Y-103600000D03*
%TD*%
%TO.C,SW_67*%
X195200000Y-54400000D03*
X204200000Y-54400000D03*
D12*
X199700000Y-54400000D03*
D11*
X194620000Y-54400000D03*
X204780000Y-54400000D03*
%TD*%
%TO.C,SW_68*%
X195200000Y-70800000D03*
X204200000Y-70800000D03*
D12*
X199700000Y-70800000D03*
D11*
X194620000Y-70800000D03*
X204780000Y-70800000D03*
%TD*%
%TO.C,SW_69*%
X186800000Y-87200000D03*
X195800000Y-87200000D03*
D12*
X191300000Y-87200000D03*
D11*
X186220000Y-87200000D03*
X196380000Y-87200000D03*
%TD*%
%TO.C,SW_71*%
X203600000Y-38000000D03*
X212600000Y-38000000D03*
D12*
X208100000Y-38000000D03*
D11*
X203020000Y-38000000D03*
X213180000Y-38000000D03*
%TD*%
%TO.C,SW_72_1*%
X212000000Y-54400000D03*
X221000000Y-54400000D03*
D12*
X216500000Y-54400000D03*
D11*
X211420000Y-54400000D03*
X221580000Y-54400000D03*
%TD*%
%TO.C,SW_73_1*%
X212000000Y-70800000D03*
X221000000Y-70800000D03*
D12*
X216500000Y-70800000D03*
D11*
X211420000Y-70800000D03*
X221580000Y-70800000D03*
%TD*%
%TO.C,SW_74*%
X203600000Y-87200000D03*
X212600000Y-87200000D03*
D12*
X208100000Y-87200000D03*
D11*
X203020000Y-87200000D03*
X213180000Y-87200000D03*
%TD*%
%TO.C,SW_76*%
X186800000Y-38000000D03*
X195800000Y-38000000D03*
D12*
X191300000Y-38000000D03*
D11*
X186220000Y-38000000D03*
X196380000Y-38000000D03*
%TD*%
%TO.C,SW_78_1*%
X228800000Y-70800000D03*
X237800000Y-70800000D03*
D12*
X233300000Y-70800000D03*
D11*
X228220000Y-70800000D03*
X238380000Y-70800000D03*
%TD*%
%TO.C,SW_79*%
X220400000Y-87200000D03*
X229400000Y-87200000D03*
D12*
X224900000Y-87200000D03*
D11*
X219820000Y-87200000D03*
X229980000Y-87200000D03*
%TD*%
%TO.C,SW_81*%
X237200000Y-38000000D03*
X246200000Y-38000000D03*
D12*
X241700000Y-38000000D03*
D11*
X236620000Y-38000000D03*
X246780000Y-38000000D03*
%TD*%
%TO.C,SW_82_1*%
X245600000Y-54400000D03*
X254600000Y-54400000D03*
D12*
X250100000Y-54400000D03*
D11*
X245020000Y-54400000D03*
X255180000Y-54400000D03*
%TD*%
%TO.C,SW_83_1*%
X245600000Y-70800000D03*
X254600000Y-70800000D03*
D12*
X250100000Y-70800000D03*
D11*
X245020000Y-70800000D03*
X255180000Y-70800000D03*
%TD*%
%TO.C,SW_84*%
X237200000Y-87200000D03*
X246200000Y-87200000D03*
D12*
X241700000Y-87200000D03*
D11*
X236620000Y-87200000D03*
X246780000Y-87200000D03*
%TD*%
%TO.C,SW_86*%
X220400000Y-38000000D03*
X229400000Y-38000000D03*
D12*
X224900000Y-38000000D03*
D11*
X219820000Y-38000000D03*
X229980000Y-38000000D03*
%TD*%
%TO.C,SW_87_1*%
X228800000Y-54400000D03*
X237800000Y-54400000D03*
D12*
X233300000Y-54400000D03*
D11*
X228220000Y-54400000D03*
X238380000Y-54400000D03*
%TD*%
%TO.C,SW_90_1*%
X287600000Y-103600000D03*
X296600000Y-103600000D03*
D12*
X292100000Y-103600000D03*
D11*
X287020000Y-103600000D03*
X297180000Y-103600000D03*
%TD*%
%TO.C,SW_91*%
X270800000Y-38000000D03*
X279800000Y-38000000D03*
D12*
X275300000Y-38000000D03*
D11*
X270220000Y-38000000D03*
X280380000Y-38000000D03*
%TD*%
%TO.C,SW_94*%
X270800000Y-87200000D03*
X279800000Y-87200000D03*
D12*
X275300000Y-87200000D03*
D11*
X270220000Y-87200000D03*
X280380000Y-87200000D03*
%TD*%
%TO.C,SW_95*%
X270800000Y-103600000D03*
X279800000Y-103600000D03*
D12*
X275300000Y-103600000D03*
D11*
X270220000Y-103600000D03*
X280380000Y-103600000D03*
%TD*%
%TO.C,SW_96*%
X254000000Y-38000000D03*
X263000000Y-38000000D03*
D12*
X258500000Y-38000000D03*
D11*
X253420000Y-38000000D03*
X263580000Y-38000000D03*
%TD*%
%TO.C,SW_10_1*%
X18800000Y-103600000D03*
X27800000Y-103600000D03*
D12*
X23300000Y-103600000D03*
D11*
X18220000Y-103600000D03*
X28380000Y-103600000D03*
%TD*%
%TO.C,SW_12_2*%
X44000000Y-54400000D03*
X53000000Y-54400000D03*
D12*
X48500000Y-54400000D03*
D11*
X43420000Y-54400000D03*
X53580000Y-54400000D03*
%TD*%
%TO.C,SW_13_1*%
X44600000Y-70800000D03*
X35600000Y-70800000D03*
D12*
X40100000Y-70800000D03*
D11*
X45180000Y-70800000D03*
X35020000Y-70800000D03*
%TD*%
%TO.C,SW_13_2*%
X53000000Y-70800000D03*
X44000000Y-70800000D03*
D12*
X48500000Y-70800000D03*
D11*
X53580000Y-70800000D03*
X43420000Y-70800000D03*
%TD*%
%TO.C,SW_17_1*%
X18800000Y-54400000D03*
X27800000Y-54400000D03*
D12*
X23300000Y-54400000D03*
D11*
X18220000Y-54400000D03*
X28380000Y-54400000D03*
%TD*%
%TO.C,SW_18_1*%
X18800000Y-70800000D03*
X27800000Y-70800000D03*
D12*
X23300000Y-70800000D03*
D11*
X18220000Y-70800000D03*
X28380000Y-70800000D03*
%TD*%
%TO.C,SW_19_1*%
X18800000Y-87200000D03*
X27800000Y-87200000D03*
D12*
X23300000Y-87200000D03*
D11*
X18220000Y-87200000D03*
X28380000Y-87200000D03*
%TD*%
%TO.C,SW_20_1*%
X52400000Y-103600000D03*
X61400000Y-103600000D03*
D12*
X56900000Y-103600000D03*
D11*
X51820000Y-103600000D03*
X61980000Y-103600000D03*
%TD*%
%TO.C,SW_23_1*%
X69200000Y-70800000D03*
X78200000Y-70800000D03*
D12*
X73700000Y-70800000D03*
D11*
X68620000Y-70800000D03*
X78780000Y-70800000D03*
%TD*%
%TO.C,SW_24_1*%
X69200000Y-87200000D03*
X78200000Y-87200000D03*
D12*
X73700000Y-87200000D03*
D11*
X68620000Y-87200000D03*
X78780000Y-87200000D03*
%TD*%
%TO.C,SW_25_1*%
X69200000Y-103600000D03*
X78200000Y-103600000D03*
D12*
X73700000Y-103600000D03*
D11*
X68620000Y-103600000D03*
X78780000Y-103600000D03*
%TD*%
%TO.C,SW_27_1*%
X52400000Y-54400000D03*
X61400000Y-54400000D03*
D12*
X56900000Y-54400000D03*
D11*
X51820000Y-54400000D03*
X61980000Y-54400000D03*
%TD*%
%TO.C,SW_27_2*%
X60800000Y-54400000D03*
X69800000Y-54400000D03*
D12*
X65300000Y-54400000D03*
D11*
X60220000Y-54400000D03*
X70380000Y-54400000D03*
%TD*%
%TO.C,SW_28_1*%
X52400000Y-70800000D03*
X61400000Y-70800000D03*
D12*
X56900000Y-70800000D03*
D11*
X51820000Y-70800000D03*
X61980000Y-70800000D03*
%TD*%
%TO.C,SW_28_2*%
X60800000Y-70800000D03*
X69800000Y-70800000D03*
D12*
X65300000Y-70800000D03*
D11*
X60220000Y-70800000D03*
X70380000Y-70800000D03*
%TD*%
%TO.C,SW_32_1*%
X69200000Y-54400000D03*
X78200000Y-54400000D03*
D12*
X73700000Y-54400000D03*
D11*
X68620000Y-54400000D03*
X78780000Y-54400000D03*
%TD*%
%TO.C,SW_35_1*%
X102800000Y-103600000D03*
X111800000Y-103600000D03*
D12*
X107300000Y-103600000D03*
D11*
X102220000Y-103600000D03*
X112380000Y-103600000D03*
%TD*%
%TO.C,SW_37_1*%
X98900000Y-58900000D03*
X98900000Y-49900000D03*
D12*
X98900000Y-54400000D03*
D11*
X98900000Y-59480000D03*
X98900000Y-49320000D03*
%TD*%
%TO.C,SW_38_1*%
X94400000Y-70800000D03*
X103400000Y-70800000D03*
D12*
X98900000Y-70800000D03*
D11*
X93820000Y-70800000D03*
X103980000Y-70800000D03*
%TD*%
%TO.C,SW_39_1*%
X86000000Y-87200000D03*
X95000000Y-87200000D03*
D12*
X90500000Y-87200000D03*
D11*
X85420000Y-87200000D03*
X95580000Y-87200000D03*
%TD*%
%TO.C,SW_40_1*%
X119600000Y-103600000D03*
X128600000Y-103600000D03*
D12*
X124100000Y-103600000D03*
D11*
X119020000Y-103600000D03*
X129180000Y-103600000D03*
%TD*%
%TO.C,SW_45_1*%
X136400000Y-103600000D03*
X145400000Y-103600000D03*
D12*
X140900000Y-103600000D03*
D11*
X135820000Y-103600000D03*
X145980000Y-103600000D03*
%TD*%
%TO.C,SW_60_1*%
X186800000Y-103600000D03*
X195800000Y-103600000D03*
D12*
X191300000Y-103600000D03*
D11*
X186220000Y-103600000D03*
X196380000Y-103600000D03*
%TD*%
%TO.C,SW_70_1*%
X220400000Y-103600000D03*
X229400000Y-103600000D03*
D12*
X224900000Y-103600000D03*
D11*
X219820000Y-103600000D03*
X229980000Y-103600000D03*
%TD*%
%TO.C,SW_75_1*%
X212600000Y-103600000D03*
X203600000Y-103600000D03*
D12*
X208100000Y-103600000D03*
D11*
X213180000Y-103600000D03*
X203020000Y-103600000D03*
%TD*%
%TO.C,SW_7_1*%
X287600000Y-54400000D03*
X296600000Y-54400000D03*
D12*
X292100000Y-54400000D03*
D11*
X287020000Y-54400000D03*
X297180000Y-54400000D03*
%TD*%
%TO.C,SW_80_1*%
X254000000Y-103600000D03*
X263000000Y-103600000D03*
D12*
X258500000Y-103600000D03*
D11*
X253420000Y-103600000D03*
X263580000Y-103600000D03*
%TD*%
%TO.C,SW_85_1*%
X237200000Y-103600000D03*
X246200000Y-103600000D03*
D12*
X241700000Y-103600000D03*
D11*
X236620000Y-103600000D03*
X246780000Y-103600000D03*
%TD*%
%TO.C,SW_8_1*%
X287600000Y-70800000D03*
X296600000Y-70800000D03*
D12*
X292100000Y-70800000D03*
D11*
X287020000Y-70800000D03*
X297180000Y-70800000D03*
%TD*%
%TO.C,SW_97_1*%
X262400000Y-54400000D03*
X271400000Y-54400000D03*
D12*
X266900000Y-54400000D03*
D11*
X261820000Y-54400000D03*
X271980000Y-54400000D03*
%TD*%
%TO.C,SW_98_1*%
X262400000Y-70800000D03*
X271400000Y-70800000D03*
D12*
X266900000Y-70800000D03*
D11*
X261820000Y-70800000D03*
X271980000Y-70800000D03*
%TD*%
D19*
%TO.C,J1*%
X29075000Y-17965000D03*
X37725000Y-17965000D03*
X37725000Y-21345000D03*
X29075000Y-21345000D03*
D20*
X30425000Y-20975000D03*
X31275000Y-20975000D03*
X32125000Y-20975000D03*
X32975000Y-20975000D03*
X33825000Y-20975000D03*
X34675000Y-20975000D03*
X35525000Y-20975000D03*
X36375000Y-20975000D03*
X36375000Y-22325000D03*
X35525000Y-22325000D03*
X34675000Y-22325000D03*
X33825000Y-22325000D03*
X32975000Y-22325000D03*
X32125000Y-22325000D03*
X31275000Y-22325000D03*
X30425000Y-22325000D03*
%TD*%
D11*
%TO.C,SW_23_2*%
X77600000Y-70800000D03*
X86600000Y-70800000D03*
D12*
X82100000Y-70800000D03*
D11*
X77020000Y-70800000D03*
X87180000Y-70800000D03*
%TD*%
%TO.C,SW_32_2*%
X77600000Y-54400000D03*
X86600000Y-54400000D03*
D12*
X82100000Y-54400000D03*
D11*
X77020000Y-54400000D03*
X87180000Y-54400000D03*
%TD*%
%TO.C,SW_20_2*%
X66180000Y-103600000D03*
X56020000Y-103600000D03*
D12*
X61100000Y-103600000D03*
D11*
X65600000Y-103600000D03*
X56600000Y-103600000D03*
%TD*%
%TO.C,SW_25_3*%
X82980000Y-103600000D03*
X72820000Y-103600000D03*
D12*
X77900000Y-103600000D03*
D11*
X82400000Y-103600000D03*
X73400000Y-103600000D03*
%TD*%
%TO.C,SW_36_2*%
X95580000Y-31500000D03*
X85420000Y-31500000D03*
D12*
X90500000Y-31500000D03*
D11*
X95000000Y-31500000D03*
X86000000Y-31500000D03*
%TD*%
%TO.C,SW_30_2*%
X81800000Y-103600000D03*
X90800000Y-103600000D03*
D12*
X86300000Y-103600000D03*
D11*
X81220000Y-103600000D03*
X91380000Y-103600000D03*
%TD*%
%TO.C,SW_35_2*%
X111200000Y-103600000D03*
X120200000Y-103600000D03*
D12*
X115700000Y-103600000D03*
D11*
X110620000Y-103600000D03*
X120780000Y-103600000D03*
%TD*%
%TO.C,SW_35_3*%
X107000000Y-103600000D03*
X116000000Y-103600000D03*
D12*
X111500000Y-103600000D03*
D11*
X106420000Y-103600000D03*
X116580000Y-103600000D03*
%TD*%
%TO.C,SW_41_2*%
X102800000Y-31500000D03*
X111800000Y-31500000D03*
D12*
X107300000Y-31500000D03*
D11*
X102220000Y-31500000D03*
X112380000Y-31500000D03*
%TD*%
%TO.C,SW_45_2*%
X144800000Y-103600000D03*
X153800000Y-103600000D03*
D12*
X149300000Y-103600000D03*
D11*
X144220000Y-103600000D03*
X154380000Y-103600000D03*
%TD*%
%TO.C,SW_45_3*%
X150180000Y-103600000D03*
X140020000Y-103600000D03*
D12*
X145100000Y-103600000D03*
D11*
X149600000Y-103600000D03*
X140600000Y-103600000D03*
%TD*%
%TO.C,SW_45_4*%
X141780000Y-103600000D03*
X131620000Y-103600000D03*
D12*
X136700000Y-103600000D03*
D11*
X141200000Y-103600000D03*
X132200000Y-103600000D03*
%TD*%
%TO.C,SW_46_2*%
X129180000Y-31500000D03*
X119020000Y-31500000D03*
D12*
X124100000Y-31500000D03*
D11*
X128600000Y-31500000D03*
X119600000Y-31500000D03*
%TD*%
%TO.C,SW_51_2*%
X136400000Y-31500000D03*
X145400000Y-31500000D03*
D12*
X140900000Y-31500000D03*
D11*
X135820000Y-31500000D03*
X145980000Y-31500000D03*
%TD*%
%TO.C,SW_60_2*%
X196380000Y-95400000D03*
X186220000Y-95400000D03*
D12*
X191300000Y-95400000D03*
D11*
X195800000Y-95400000D03*
X186800000Y-95400000D03*
%TD*%
%TO.C,SW_65_2*%
X174200000Y-103600000D03*
X183200000Y-103600000D03*
D12*
X178700000Y-103600000D03*
D11*
X173620000Y-103600000D03*
X183780000Y-103600000D03*
%TD*%
%TO.C,SW_65_3*%
X165800000Y-103600000D03*
X174800000Y-103600000D03*
D12*
X170300000Y-103600000D03*
D11*
X165220000Y-103600000D03*
X175380000Y-103600000D03*
%TD*%
%TO.C,SW_72_2*%
X225780000Y-54400000D03*
X215620000Y-54400000D03*
D12*
X220700000Y-54400000D03*
D11*
X225200000Y-54400000D03*
X216200000Y-54400000D03*
%TD*%
%TO.C,SW_73_2*%
X216200000Y-70800000D03*
X225200000Y-70800000D03*
D12*
X220700000Y-70800000D03*
D11*
X215620000Y-70800000D03*
X225780000Y-70800000D03*
%TD*%
%TO.C,SW_75_2*%
X198820000Y-103600000D03*
X208980000Y-103600000D03*
D12*
X203900000Y-103600000D03*
D11*
X199400000Y-103600000D03*
X208400000Y-103600000D03*
%TD*%
%TO.C,SW_75_3*%
X211420000Y-103600000D03*
X221580000Y-103600000D03*
D12*
X216500000Y-103600000D03*
D11*
X212000000Y-103600000D03*
X221000000Y-103600000D03*
%TD*%
%TO.C,SW_78_2*%
X237200000Y-70800000D03*
X246200000Y-70800000D03*
D12*
X241700000Y-70800000D03*
D11*
X236620000Y-70800000D03*
X246780000Y-70800000D03*
%TD*%
%TO.C,SW_82_2*%
X254000000Y-54400000D03*
X263000000Y-54400000D03*
D12*
X258500000Y-54400000D03*
D11*
X253420000Y-54400000D03*
X263580000Y-54400000D03*
%TD*%
%TO.C,SW_83_2*%
X263580000Y-70800000D03*
X253420000Y-70800000D03*
D12*
X258500000Y-70800000D03*
D11*
X263000000Y-70800000D03*
X254000000Y-70800000D03*
%TD*%
%TO.C,SW_85_2*%
X255180000Y-103600000D03*
X245020000Y-103600000D03*
D12*
X250100000Y-103600000D03*
D11*
X254600000Y-103600000D03*
X245600000Y-103600000D03*
%TD*%
%TO.C,SW_85_3*%
X233000000Y-103600000D03*
X242000000Y-103600000D03*
D12*
X237500000Y-103600000D03*
D11*
X232420000Y-103600000D03*
X242580000Y-103600000D03*
%TD*%
%TO.C,SW_87_2*%
X246780000Y-54400000D03*
X236620000Y-54400000D03*
D12*
X241700000Y-54400000D03*
D11*
X246200000Y-54400000D03*
X237200000Y-54400000D03*
%TD*%
%TO.C,SW_90_2*%
X287600000Y-95400000D03*
X296600000Y-95400000D03*
D12*
X292100000Y-95400000D03*
D11*
X287020000Y-95400000D03*
X297180000Y-95400000D03*
%TD*%
%TO.C,SW_97_2*%
X280380000Y-54400000D03*
X270220000Y-54400000D03*
D12*
X275300000Y-54400000D03*
D11*
X279800000Y-54400000D03*
X270800000Y-54400000D03*
%TD*%
%TO.C,SW_98_2*%
X270800000Y-70800000D03*
X279800000Y-70800000D03*
D12*
X275300000Y-70800000D03*
D11*
X270220000Y-70800000D03*
X280380000Y-70800000D03*
%TD*%
D21*
%TO.C,SW_RE1*%
X61400000Y-31500000D03*
X52400000Y-31500000D03*
D22*
X56900000Y-31500000D03*
D23*
X49400000Y-29000000D03*
D24*
X49400000Y-31500000D03*
X49400000Y-34000000D03*
D25*
X56900000Y-25900000D03*
X56900000Y-37100000D03*
D24*
X63900000Y-29000000D03*
X63900000Y-34000000D03*
%TD*%
%TO.C,SW_RE2*%
X181500000Y-34000000D03*
X181500000Y-29000000D03*
D25*
X174500000Y-37100000D03*
X174500000Y-25900000D03*
D24*
X167000000Y-34000000D03*
X167000000Y-31500000D03*
D23*
X167000000Y-29000000D03*
D22*
X174500000Y-31500000D03*
D21*
X170000000Y-31500000D03*
X179000000Y-31500000D03*
%TD*%
D24*
%TO.C,SW_RE3*%
X215100000Y-34000000D03*
X215100000Y-29000000D03*
D25*
X208100000Y-37100000D03*
X208100000Y-25900000D03*
D24*
X200600000Y-34000000D03*
X200600000Y-31500000D03*
D23*
X200600000Y-29000000D03*
D22*
X208100000Y-31500000D03*
D21*
X203600000Y-31500000D03*
X212600000Y-31500000D03*
%TD*%
%TO.C,SW_RE4*%
X246200000Y-31500000D03*
X237200000Y-31500000D03*
D22*
X241700000Y-31500000D03*
D23*
X234200000Y-29000000D03*
D24*
X234200000Y-31500000D03*
X234200000Y-34000000D03*
D25*
X241700000Y-25900000D03*
X241700000Y-37100000D03*
D24*
X248700000Y-29000000D03*
X248700000Y-34000000D03*
%TD*%
%TO.C,SW_RE5*%
X282300000Y-34000000D03*
X282300000Y-29000000D03*
D25*
X275300000Y-37100000D03*
X275300000Y-25900000D03*
D24*
X267800000Y-34000000D03*
X267800000Y-31500000D03*
D23*
X267800000Y-29000000D03*
D22*
X275300000Y-31500000D03*
D21*
X270800000Y-31500000D03*
X279800000Y-31500000D03*
%TD*%
M02*
