%TF.GenerationSoftware,KiCad,Pcbnew,(5.1.9-0-10_14)*%
%TF.CreationDate,2021-02-02T05:51:32+09:00*%
%TF.ProjectId,Unison,556e6973-6f6e-42e6-9b69-6361645f7063,v01_1AU*%
%TF.SameCoordinates,Original*%
%TF.FileFunction,Copper,L2,Bot*%
%TF.FilePolarity,Positive*%
%FSLAX46Y46*%
G04 Gerber Fmt 4.6, Leading zero omitted, Abs format (unit mm)*
G04 Created by KiCad (PCBNEW (5.1.9-0-10_14)) date 2021-02-02 05:51:32*
%MOMM*%
%LPD*%
G01*
G04 APERTURE LIST*
%TA.AperFunction,ComponentPad*%
%ADD10C,2.250000*%
%TD*%
%TA.AperFunction,ComponentPad*%
%ADD11C,1.000000*%
%TD*%
%TA.AperFunction,ComponentPad*%
%ADD12C,4.800000*%
%TD*%
%TA.AperFunction,SMDPad,CuDef*%
%ADD13R,1.400000X1.000000*%
%TD*%
%TA.AperFunction,SMDPad,CuDef*%
%ADD14R,1.400000X1.200000*%
%TD*%
%TA.AperFunction,SMDPad,CuDef*%
%ADD15C,0.100000*%
%TD*%
%TA.AperFunction,SMDPad,CuDef*%
%ADD16R,0.900000X1.200000*%
%TD*%
%TA.AperFunction,SMDPad,CuDef*%
%ADD17R,1.500000X1.000000*%
%TD*%
%TA.AperFunction,SMDPad,CuDef*%
%ADD18R,1.524000X1.524000*%
%TD*%
%TA.AperFunction,SMDPad,CuDef*%
%ADD19R,1.800000X1.100000*%
%TD*%
%TA.AperFunction,ComponentPad*%
%ADD20O,1.108000X2.216000*%
%TD*%
%TA.AperFunction,ComponentPad*%
%ADD21C,0.650000*%
%TD*%
%TA.AperFunction,ComponentPad*%
%ADD22R,2.000000X2.000000*%
%TD*%
%TA.AperFunction,ComponentPad*%
%ADD23C,2.000000*%
%TD*%
%TA.AperFunction,ComponentPad*%
%ADD24R,3.200000X2.000000*%
%TD*%
%TA.AperFunction,ComponentPad*%
%ADD25R,1.700000X1.700000*%
%TD*%
%TA.AperFunction,ComponentPad*%
%ADD26O,1.700000X1.700000*%
%TD*%
%TA.AperFunction,ComponentPad*%
%ADD27O,2.000000X1.200000*%
%TD*%
%TA.AperFunction,ComponentPad*%
%ADD28O,1.200000X2.000000*%
%TD*%
%TA.AperFunction,ViaPad*%
%ADD29C,0.600000*%
%TD*%
%TA.AperFunction,Conductor*%
%ADD30C,0.381000*%
%TD*%
%TA.AperFunction,Conductor*%
%ADD31C,0.254000*%
%TD*%
%TA.AperFunction,Conductor*%
%ADD32C,0.100000*%
%TD*%
G04 APERTURE END LIST*
%TO.P,C2,2*%
%TO.N,GND*%
%TA.AperFunction,SMDPad,CuDef*%
G36*
G01*
X118804073Y-46217678D02*
X118132322Y-45545927D01*
G75*
G02*
X118132322Y-45192373I176777J176777D01*
G01*
X118609619Y-44715076D01*
G75*
G02*
X118963173Y-44715076I176777J-176777D01*
G01*
X119634924Y-45386827D01*
G75*
G02*
X119634924Y-45740381I-176777J-176777D01*
G01*
X119157627Y-46217678D01*
G75*
G02*
X118804073Y-46217678I-176777J176777D01*
G01*
G37*
%TD.AperFunction*%
%TO.P,C2,1*%
%TO.N,Net-(C2-Pad1)*%
%TA.AperFunction,SMDPad,CuDef*%
G36*
G01*
X117336827Y-47684924D02*
X116665076Y-47013173D01*
G75*
G02*
X116665076Y-46659619I176777J176777D01*
G01*
X117142373Y-46182322D01*
G75*
G02*
X117495927Y-46182322I176777J-176777D01*
G01*
X118167678Y-46854073D01*
G75*
G02*
X118167678Y-47207627I-176777J-176777D01*
G01*
X117690381Y-47684924D01*
G75*
G02*
X117336827Y-47684924I-176777J176777D01*
G01*
G37*
%TD.AperFunction*%
%TD*%
D10*
%TO.P,SW_91,2*%
%TO.N,RE5_2*%
X277840000Y-32920008D03*
%TO.P,SW_91,1*%
%TO.N,RE5_1*%
X271490000Y-35460008D03*
%TD*%
%TO.P,SW_60_3,2*%
%TO.N,Net-(D64-Pad2)*%
X202240000Y-98520000D03*
%TO.P,SW_60_3,1*%
%TO.N,RE2_1*%
X195890000Y-101060000D03*
%TD*%
%TO.P,SW_75_1,2*%
%TO.N,Net-(D70-Pad2)*%
X205560000Y-108680000D03*
%TO.P,SW_75_1,1*%
%TO.N,RE3_1*%
X211910000Y-106140000D03*
%TD*%
%TO.P,SW_75_2,2*%
%TO.N,Net-(D70-Pad2)*%
X201360000Y-108680000D03*
%TO.P,SW_75_2,1*%
%TO.N,RE3_1*%
X207710000Y-106140000D03*
%TD*%
%TO.P,SW_21,2*%
%TO.N,Net-(D9-Pad2)*%
X42640000Y-32920000D03*
%TO.P,SW_21,1*%
%TO.N,RE1_1*%
X36290000Y-35460000D03*
%TD*%
%TO.P,SW_53,2*%
%TO.N,Net-(D44-Pad2)*%
X151840000Y-65720000D03*
%TO.P,SW_53,1*%
%TO.N,Net-(D47-Pad1)*%
X145490000Y-68260000D03*
%TD*%
%TO.P,SW_18_1,2*%
%TO.N,Net-(D5-Pad2)*%
X25840000Y-65720000D03*
%TO.P,SW_18_1,1*%
%TO.N,Net-(D1-Pad1)*%
X19490000Y-68260000D03*
%TD*%
%TO.P,SW_8_1,2*%
%TO.N,Net-(D97-Pad2)*%
X294640000Y-65720000D03*
%TO.P,SW_8_1,1*%
%TO.N,Net-(D94-Pad1)*%
X288290000Y-68260000D03*
%TD*%
D11*
%TO.P,REF\u002A\u002A,1*%
%TO.N,N/C*%
X41650000Y-46450000D03*
X39050000Y-46400000D03*
X41650000Y-43750000D03*
X39050000Y-43750000D03*
X40400000Y-47000000D03*
X42300000Y-45100000D03*
X38500000Y-45100000D03*
X40400000Y-43200000D03*
D12*
X40400000Y-45100000D03*
%TD*%
%TO.P,R7,2*%
%TO.N,Net-(D102-Pad3)*%
%TA.AperFunction,SMDPad,CuDef*%
G36*
G01*
X37900000Y-25649999D02*
X37900000Y-26550001D01*
G75*
G02*
X37650001Y-26800000I-249999J0D01*
G01*
X36949999Y-26800000D01*
G75*
G02*
X36700000Y-26550001I0J249999D01*
G01*
X36700000Y-25649999D01*
G75*
G02*
X36949999Y-25400000I249999J0D01*
G01*
X37650001Y-25400000D01*
G75*
G02*
X37900000Y-25649999I0J-249999D01*
G01*
G37*
%TD.AperFunction*%
%TO.P,R7,1*%
%TO.N,D-*%
%TA.AperFunction,SMDPad,CuDef*%
G36*
G01*
X39900000Y-25649999D02*
X39900000Y-26550001D01*
G75*
G02*
X39650001Y-26800000I-249999J0D01*
G01*
X38949999Y-26800000D01*
G75*
G02*
X38700000Y-26550001I0J249999D01*
G01*
X38700000Y-25649999D01*
G75*
G02*
X38949999Y-25400000I249999J0D01*
G01*
X39650001Y-25400000D01*
G75*
G02*
X39900000Y-25649999I0J-249999D01*
G01*
G37*
%TD.AperFunction*%
%TD*%
D13*
%TO.P,D102,4*%
%TO.N,VCC*%
X35200000Y-27900000D03*
%TO.P,D102,3*%
%TO.N,Net-(D102-Pad3)*%
X35200000Y-26000000D03*
%TO.P,D102,2*%
%TO.N,Net-(D102-Pad2)*%
X33000000Y-26000000D03*
D14*
%TO.P,D102,1*%
%TO.N,GND*%
X33000000Y-27720000D03*
%TD*%
%TO.P,C3,1*%
%TO.N,Net-(C3-Pad1)*%
%TA.AperFunction,SMDPad,CuDef*%
G36*
G01*
X111386827Y-42434924D02*
X110715076Y-41763173D01*
G75*
G02*
X110715076Y-41409619I176777J176777D01*
G01*
X111192373Y-40932322D01*
G75*
G02*
X111545927Y-40932322I176777J-176777D01*
G01*
X112217678Y-41604073D01*
G75*
G02*
X112217678Y-41957627I-176777J-176777D01*
G01*
X111740381Y-42434924D01*
G75*
G02*
X111386827Y-42434924I-176777J176777D01*
G01*
G37*
%TD.AperFunction*%
%TO.P,C3,2*%
%TO.N,GND*%
%TA.AperFunction,SMDPad,CuDef*%
G36*
G01*
X112854073Y-40967678D02*
X112182322Y-40295927D01*
G75*
G02*
X112182322Y-39942373I176777J176777D01*
G01*
X112659619Y-39465076D01*
G75*
G02*
X113013173Y-39465076I176777J-176777D01*
G01*
X113684924Y-40136827D01*
G75*
G02*
X113684924Y-40490381I-176777J-176777D01*
G01*
X113207627Y-40967678D01*
G75*
G02*
X112854073Y-40967678I-176777J176777D01*
G01*
G37*
%TD.AperFunction*%
%TD*%
%TA.AperFunction,SMDPad,CuDef*%
D15*
%TO.P,Y1,4*%
%TO.N,GND*%
G36*
X118517336Y-43768198D02*
G01*
X117244544Y-45040990D01*
X115759620Y-43556066D01*
X117032412Y-42283274D01*
X118517336Y-43768198D01*
G37*
%TD.AperFunction*%
%TA.AperFunction,SMDPad,CuDef*%
%TO.P,Y1,3*%
%TO.N,Net-(C3-Pad1)*%
G36*
X116466726Y-41717588D02*
G01*
X115193934Y-42990380D01*
X113709010Y-41505456D01*
X114981802Y-40232664D01*
X116466726Y-41717588D01*
G37*
%TD.AperFunction*%
%TA.AperFunction,SMDPad,CuDef*%
%TO.P,Y1,2*%
%TO.N,GND*%
G36*
X114840380Y-43343934D02*
G01*
X113567588Y-44616726D01*
X112082664Y-43131802D01*
X113355456Y-41859010D01*
X114840380Y-43343934D01*
G37*
%TD.AperFunction*%
%TA.AperFunction,SMDPad,CuDef*%
%TO.P,Y1,1*%
%TO.N,Net-(C2-Pad1)*%
G36*
X116890990Y-45394544D02*
G01*
X115618198Y-46667336D01*
X114133274Y-45182412D01*
X115406066Y-43909620D01*
X116890990Y-45394544D01*
G37*
%TD.AperFunction*%
%TD*%
D16*
%TO.P,D94,2*%
%TO.N,pin10*%
X284550000Y-95800000D03*
%TO.P,D94,1*%
%TO.N,Net-(D94-Pad1)*%
X281250000Y-95800000D03*
%TD*%
%TO.P,C1,2*%
%TO.N,+5V*%
%TA.AperFunction,SMDPad,CuDef*%
G36*
G01*
X120965000Y-51030000D02*
X120015000Y-51030000D01*
G75*
G02*
X119765000Y-50780000I0J250000D01*
G01*
X119765000Y-50105000D01*
G75*
G02*
X120015000Y-49855000I250000J0D01*
G01*
X120965000Y-49855000D01*
G75*
G02*
X121215000Y-50105000I0J-250000D01*
G01*
X121215000Y-50780000D01*
G75*
G02*
X120965000Y-51030000I-250000J0D01*
G01*
G37*
%TD.AperFunction*%
%TO.P,C1,1*%
%TO.N,GND*%
%TA.AperFunction,SMDPad,CuDef*%
G36*
G01*
X120965000Y-53105000D02*
X120015000Y-53105000D01*
G75*
G02*
X119765000Y-52855000I0J250000D01*
G01*
X119765000Y-52180000D01*
G75*
G02*
X120015000Y-51930000I250000J0D01*
G01*
X120965000Y-51930000D01*
G75*
G02*
X121215000Y-52180000I0J-250000D01*
G01*
X121215000Y-52855000D01*
G75*
G02*
X120965000Y-53105000I-250000J0D01*
G01*
G37*
%TD.AperFunction*%
%TD*%
%TO.P,C4,2*%
%TO.N,+5V*%
%TA.AperFunction,SMDPad,CuDef*%
G36*
G01*
X106082322Y-60454073D02*
X106754073Y-59782322D01*
G75*
G02*
X107107627Y-59782322I176777J-176777D01*
G01*
X107584924Y-60259619D01*
G75*
G02*
X107584924Y-60613173I-176777J-176777D01*
G01*
X106913173Y-61284924D01*
G75*
G02*
X106559619Y-61284924I-176777J176777D01*
G01*
X106082322Y-60807627D01*
G75*
G02*
X106082322Y-60454073I176777J176777D01*
G01*
G37*
%TD.AperFunction*%
%TO.P,C4,1*%
%TO.N,GND*%
%TA.AperFunction,SMDPad,CuDef*%
G36*
G01*
X104615076Y-58986827D02*
X105286827Y-58315076D01*
G75*
G02*
X105640381Y-58315076I176777J-176777D01*
G01*
X106117678Y-58792373D01*
G75*
G02*
X106117678Y-59145927I-176777J-176777D01*
G01*
X105445927Y-59817678D01*
G75*
G02*
X105092373Y-59817678I-176777J176777D01*
G01*
X104615076Y-59340381D01*
G75*
G02*
X104615076Y-58986827I176777J176777D01*
G01*
G37*
%TD.AperFunction*%
%TD*%
%TO.P,C5,2*%
%TO.N,+5V*%
%TA.AperFunction,SMDPad,CuDef*%
G36*
G01*
X101954073Y-42917678D02*
X101282322Y-42245927D01*
G75*
G02*
X101282322Y-41892373I176777J176777D01*
G01*
X101759619Y-41415076D01*
G75*
G02*
X102113173Y-41415076I176777J-176777D01*
G01*
X102784924Y-42086827D01*
G75*
G02*
X102784924Y-42440381I-176777J-176777D01*
G01*
X102307627Y-42917678D01*
G75*
G02*
X101954073Y-42917678I-176777J176777D01*
G01*
G37*
%TD.AperFunction*%
%TO.P,C5,1*%
%TO.N,GND*%
%TA.AperFunction,SMDPad,CuDef*%
G36*
G01*
X100486827Y-44384924D02*
X99815076Y-43713173D01*
G75*
G02*
X99815076Y-43359619I176777J176777D01*
G01*
X100292373Y-42882322D01*
G75*
G02*
X100645927Y-42882322I176777J-176777D01*
G01*
X101317678Y-43554073D01*
G75*
G02*
X101317678Y-43907627I-176777J-176777D01*
G01*
X100840381Y-44384924D01*
G75*
G02*
X100486827Y-44384924I-176777J176777D01*
G01*
G37*
%TD.AperFunction*%
%TD*%
%TO.P,C6,2*%
%TO.N,GND*%
%TA.AperFunction,SMDPad,CuDef*%
G36*
G01*
X99145927Y-41382322D02*
X99817678Y-42054073D01*
G75*
G02*
X99817678Y-42407627I-176777J-176777D01*
G01*
X99340381Y-42884924D01*
G75*
G02*
X98986827Y-42884924I-176777J176777D01*
G01*
X98315076Y-42213173D01*
G75*
G02*
X98315076Y-41859619I176777J176777D01*
G01*
X98792373Y-41382322D01*
G75*
G02*
X99145927Y-41382322I176777J-176777D01*
G01*
G37*
%TD.AperFunction*%
%TO.P,C6,1*%
%TO.N,Net-(C6-Pad1)*%
%TA.AperFunction,SMDPad,CuDef*%
G36*
G01*
X100613173Y-39915076D02*
X101284924Y-40586827D01*
G75*
G02*
X101284924Y-40940381I-176777J-176777D01*
G01*
X100807627Y-41417678D01*
G75*
G02*
X100454073Y-41417678I-176777J176777D01*
G01*
X99782322Y-40745927D01*
G75*
G02*
X99782322Y-40392373I176777J176777D01*
G01*
X100259619Y-39915076D01*
G75*
G02*
X100613173Y-39915076I176777J-176777D01*
G01*
G37*
%TD.AperFunction*%
%TD*%
%TO.P,C7,2*%
%TO.N,+5V*%
%TA.AperFunction,SMDPad,CuDef*%
G36*
G01*
X97275000Y-50150000D02*
X96325000Y-50150000D01*
G75*
G02*
X96075000Y-49900000I0J250000D01*
G01*
X96075000Y-49225000D01*
G75*
G02*
X96325000Y-48975000I250000J0D01*
G01*
X97275000Y-48975000D01*
G75*
G02*
X97525000Y-49225000I0J-250000D01*
G01*
X97525000Y-49900000D01*
G75*
G02*
X97275000Y-50150000I-250000J0D01*
G01*
G37*
%TD.AperFunction*%
%TO.P,C7,1*%
%TO.N,GND*%
%TA.AperFunction,SMDPad,CuDef*%
G36*
G01*
X97275000Y-52225000D02*
X96325000Y-52225000D01*
G75*
G02*
X96075000Y-51975000I0J250000D01*
G01*
X96075000Y-51300000D01*
G75*
G02*
X96325000Y-51050000I250000J0D01*
G01*
X97275000Y-51050000D01*
G75*
G02*
X97525000Y-51300000I0J-250000D01*
G01*
X97525000Y-51975000D01*
G75*
G02*
X97275000Y-52225000I-250000J0D01*
G01*
G37*
%TD.AperFunction*%
%TD*%
%TO.P,D1,2*%
%TO.N,pin1*%
X23350000Y-30200000D03*
%TO.P,D1,1*%
%TO.N,Net-(D1-Pad1)*%
X20050000Y-30200000D03*
%TD*%
%TO.P,D2,2*%
%TO.N,GND*%
X23350000Y-25200000D03*
%TO.P,D2,1*%
%TO.N,Net-(D2-Pad1)*%
X20050000Y-25200000D03*
%TD*%
%TO.P,D3,2*%
%TO.N,Net-(D3-Pad2)*%
X23350000Y-33000000D03*
%TO.P,D3,1*%
%TO.N,pin6*%
X20050000Y-33000000D03*
%TD*%
%TO.P,D4,2*%
%TO.N,Net-(D4-Pad2)*%
X23150000Y-49400000D03*
%TO.P,D4,1*%
%TO.N,pin7*%
X19850000Y-49400000D03*
%TD*%
%TO.P,D5,2*%
%TO.N,Net-(D5-Pad2)*%
X23150000Y-65800000D03*
%TO.P,D5,1*%
%TO.N,pin8*%
X19850000Y-65800000D03*
%TD*%
%TO.P,D6,2*%
%TO.N,Net-(D6-Pad2)*%
X22950000Y-82200000D03*
%TO.P,D6,1*%
%TO.N,pin9*%
X19650000Y-82200000D03*
%TD*%
%TO.P,D7,2*%
%TO.N,Net-(D7-Pad2)*%
X23150000Y-98600000D03*
%TO.P,D7,1*%
%TO.N,pin10*%
X19850000Y-98600000D03*
%TD*%
%TO.P,D9,2*%
%TO.N,Net-(D9-Pad2)*%
X39950000Y-32800000D03*
%TO.P,D9,1*%
%TO.N,pin1*%
X36650000Y-32800000D03*
%TD*%
%TO.P,D10,2*%
%TO.N,Net-(D10-Pad2)*%
X38950000Y-49400000D03*
%TO.P,D10,1*%
%TO.N,pin2*%
X35650000Y-49400000D03*
%TD*%
%TO.P,D11,2*%
%TO.N,Net-(D11-Pad2)*%
X35750000Y-65800000D03*
%TO.P,D11,1*%
%TO.N,pin3*%
X32450000Y-65800000D03*
%TD*%
%TO.P,D12,2*%
%TO.N,Net-(D12-Pad2)*%
X40150000Y-82200000D03*
%TO.P,D12,1*%
%TO.N,pin4*%
X36850000Y-82200000D03*
%TD*%
%TO.P,D13,2*%
%TO.N,Net-(D13-Pad2)*%
X40150000Y-98600000D03*
%TO.P,D13,1*%
%TO.N,pin5*%
X36850000Y-98600000D03*
%TD*%
%TO.P,D14,2*%
%TO.N,pin2*%
X65350000Y-46600000D03*
%TO.P,D14,1*%
%TO.N,RE1_1*%
X62050000Y-46600000D03*
%TD*%
%TO.P,D15,2*%
%TO.N,RE1_2*%
X55550000Y-33600000D03*
%TO.P,D15,1*%
%TO.N,pin6*%
X52250000Y-33600000D03*
%TD*%
%TO.P,D16,2*%
%TO.N,Net-(D16-Pad2)*%
X65350000Y-49400000D03*
%TO.P,D16,1*%
%TO.N,pin7*%
X62050000Y-49400000D03*
%TD*%
%TO.P,D17,2*%
%TO.N,Net-(D17-Pad2)*%
X56750000Y-65800000D03*
%TO.P,D17,1*%
%TO.N,pin8*%
X53450000Y-65800000D03*
%TD*%
%TO.P,D18,2*%
%TO.N,Net-(D18-Pad2)*%
X56750000Y-82200000D03*
%TO.P,D18,1*%
%TO.N,pin9*%
X53450000Y-82200000D03*
%TD*%
%TO.P,D19,2*%
%TO.N,Net-(D19-Pad2)*%
X56750000Y-98600000D03*
%TO.P,D19,1*%
%TO.N,pin10*%
X53450000Y-98600000D03*
%TD*%
%TO.P,D20,2*%
%TO.N,Net-(D20-Pad2)*%
X73550000Y-33000000D03*
%TO.P,D20,1*%
%TO.N,pin1*%
X70250000Y-33000000D03*
%TD*%
%TO.P,D21,2*%
%TO.N,Net-(D21-Pad2)*%
X73750000Y-49400000D03*
%TO.P,D21,1*%
%TO.N,pin2*%
X70450000Y-49400000D03*
%TD*%
%TO.P,D22,2*%
%TO.N,Net-(D22-Pad2)*%
X73750000Y-65800000D03*
%TO.P,D22,1*%
%TO.N,pin3*%
X70450000Y-65800000D03*
%TD*%
%TO.P,D23,2*%
%TO.N,Net-(D23-Pad2)*%
X73350000Y-82200000D03*
%TO.P,D23,1*%
%TO.N,pin4*%
X70050000Y-82200000D03*
%TD*%
%TO.P,D24,2*%
%TO.N,Net-(D24-Pad2)*%
X72550000Y-98900000D03*
%TO.P,D24,1*%
%TO.N,pin5*%
X69250000Y-98900000D03*
%TD*%
%TO.P,D25,2*%
%TO.N,pin3*%
X73750000Y-63000000D03*
%TO.P,D25,1*%
%TO.N,Net-(D25-Pad1)*%
X70450000Y-63000000D03*
%TD*%
%TO.P,D26,2*%
%TO.N,Net-(D26-Pad2)*%
X83575000Y-33000000D03*
%TO.P,D26,1*%
%TO.N,pin6*%
X80275000Y-33000000D03*
%TD*%
%TO.P,D27,2*%
%TO.N,Net-(D27-Pad2)*%
X91150000Y-49400000D03*
%TO.P,D27,1*%
%TO.N,pin7*%
X87850000Y-49400000D03*
%TD*%
%TO.P,D28,2*%
%TO.N,Net-(D28-Pad2)*%
X94350000Y-65800000D03*
%TO.P,D28,1*%
%TO.N,pin8*%
X91050000Y-65800000D03*
%TD*%
%TO.P,D29,2*%
%TO.N,Net-(D29-Pad2)*%
X90150000Y-82200000D03*
%TO.P,D29,1*%
%TO.N,pin9*%
X86850000Y-82200000D03*
%TD*%
%TO.P,D30,2*%
%TO.N,Net-(D30-Pad2)*%
X86450000Y-98600000D03*
%TO.P,D30,1*%
%TO.N,pin10*%
X83150000Y-98600000D03*
%TD*%
%TO.P,D31,2*%
%TO.N,Net-(D31-Pad2)*%
X107350000Y-26600000D03*
%TO.P,D31,1*%
%TO.N,pin1*%
X104050000Y-26600000D03*
%TD*%
%TO.P,D32,2*%
%TO.N,Net-(D32-Pad2)*%
X127150000Y-49400000D03*
%TO.P,D32,1*%
%TO.N,pin2*%
X123850000Y-49400000D03*
%TD*%
%TO.P,D33,2*%
%TO.N,Net-(D33-Pad2)*%
X115350000Y-65800000D03*
%TO.P,D33,1*%
%TO.N,pin3*%
X112050000Y-65800000D03*
%TD*%
%TO.P,D34,2*%
%TO.N,Net-(D34-Pad2)*%
X107350000Y-82200000D03*
%TO.P,D34,1*%
%TO.N,pin4*%
X104050000Y-82200000D03*
%TD*%
%TO.P,D35,2*%
%TO.N,Net-(D35-Pad2)*%
X106950000Y-98600000D03*
%TO.P,D35,1*%
%TO.N,pin5*%
X103650000Y-98600000D03*
%TD*%
%TO.P,D36,2*%
%TO.N,pin4*%
X123350000Y-79400000D03*
%TO.P,D36,1*%
%TO.N,Net-(D36-Pad1)*%
X120050000Y-79400000D03*
%TD*%
%TO.P,D37,2*%
%TO.N,Net-(D37-Pad2)*%
X123950000Y-26600000D03*
%TO.P,D37,1*%
%TO.N,pin6*%
X120650000Y-26600000D03*
%TD*%
%TO.P,D38,2*%
%TO.N,Net-(D38-Pad2)*%
X132550000Y-49400000D03*
%TO.P,D38,1*%
%TO.N,pin7*%
X129250000Y-49400000D03*
%TD*%
%TO.P,D39,2*%
%TO.N,Net-(D39-Pad2)*%
X132150000Y-65800000D03*
%TO.P,D39,1*%
%TO.N,pin8*%
X128850000Y-65800000D03*
%TD*%
%TO.P,D40,2*%
%TO.N,Net-(D40-Pad2)*%
X123350000Y-82200000D03*
%TO.P,D40,1*%
%TO.N,pin9*%
X120050000Y-82200000D03*
%TD*%
%TO.P,D41,2*%
%TO.N,Net-(D41-Pad2)*%
X124150000Y-98600000D03*
%TO.P,D41,1*%
%TO.N,pin10*%
X120850000Y-98600000D03*
%TD*%
%TO.P,D42,2*%
%TO.N,Net-(D42-Pad2)*%
X140750000Y-26600000D03*
%TO.P,D42,1*%
%TO.N,pin1*%
X137450000Y-26600000D03*
%TD*%
%TO.P,D43,2*%
%TO.N,Net-(D43-Pad2)*%
X149150000Y-49400000D03*
%TO.P,D43,1*%
%TO.N,pin2*%
X145850000Y-49400000D03*
%TD*%
%TO.P,D44,2*%
%TO.N,Net-(D44-Pad2)*%
X157950000Y-65800000D03*
%TO.P,D44,1*%
%TO.N,pin3*%
X154650000Y-65800000D03*
%TD*%
%TO.P,D45,2*%
%TO.N,Net-(D45-Pad2)*%
X140550000Y-82200000D03*
%TO.P,D45,1*%
%TO.N,pin4*%
X137250000Y-82200000D03*
%TD*%
%TO.P,D46,2*%
%TO.N,Net-(D46-Pad2)*%
X136350000Y-98600000D03*
%TO.P,D46,1*%
%TO.N,pin5*%
X133050000Y-98600000D03*
%TD*%
%TO.P,D47,2*%
%TO.N,pin5*%
X157750000Y-96000000D03*
%TO.P,D47,1*%
%TO.N,Net-(D47-Pad1)*%
X154450000Y-96000000D03*
%TD*%
%TO.P,D48,2*%
%TO.N,Net-(D48-Pad2)*%
X157550000Y-33000000D03*
%TO.P,D48,1*%
%TO.N,pin6*%
X154250000Y-33000000D03*
%TD*%
%TO.P,D49,2*%
%TO.N,Net-(D49-Pad2)*%
X165950000Y-49400000D03*
%TO.P,D49,1*%
%TO.N,pin7*%
X162650000Y-49400000D03*
%TD*%
%TO.P,D50,2*%
%TO.N,Net-(D50-Pad2)*%
X165750000Y-65800000D03*
%TO.P,D50,1*%
%TO.N,pin8*%
X162450000Y-65800000D03*
%TD*%
%TO.P,D51,2*%
%TO.N,Net-(D51-Pad2)*%
X157350000Y-82200000D03*
%TO.P,D51,1*%
%TO.N,pin9*%
X154050000Y-82200000D03*
%TD*%
%TO.P,D52,2*%
%TO.N,Net-(D52-Pad2)*%
X157750000Y-98600000D03*
%TO.P,D52,1*%
%TO.N,pin10*%
X154450000Y-98600000D03*
%TD*%
%TO.P,D54,2*%
%TO.N,RE2_2*%
X173250000Y-33400000D03*
%TO.P,D54,1*%
%TO.N,pin1*%
X169950000Y-33400000D03*
%TD*%
%TO.P,D55,2*%
%TO.N,Net-(D55-Pad2)*%
X182750000Y-49400000D03*
%TO.P,D55,1*%
%TO.N,pin2*%
X179450000Y-49400000D03*
%TD*%
%TO.P,D56,2*%
%TO.N,Net-(D56-Pad2)*%
X182750000Y-65800000D03*
%TO.P,D56,1*%
%TO.N,pin3*%
X179450000Y-65800000D03*
%TD*%
%TO.P,D57,2*%
%TO.N,Net-(D57-Pad2)*%
X174350000Y-82200000D03*
%TO.P,D57,1*%
%TO.N,pin4*%
X171050000Y-82200000D03*
%TD*%
%TO.P,D58,2*%
%TO.N,Net-(D58-Pad2)*%
X169950000Y-98600000D03*
%TO.P,D58,1*%
%TO.N,pin5*%
X166650000Y-98600000D03*
%TD*%
%TO.P,D59,2*%
%TO.N,pin6*%
X191150000Y-30200000D03*
%TO.P,D59,1*%
%TO.N,RE2_1*%
X187850000Y-30200000D03*
%TD*%
%TO.P,D60,2*%
%TO.N,Net-(D60-Pad2)*%
X191150000Y-33000000D03*
%TO.P,D60,1*%
%TO.N,pin6*%
X187850000Y-33000000D03*
%TD*%
%TO.P,D61,2*%
%TO.N,Net-(D61-Pad2)*%
X199550000Y-49400000D03*
%TO.P,D61,1*%
%TO.N,pin7*%
X196250000Y-49400000D03*
%TD*%
%TO.P,D62,2*%
%TO.N,Net-(D62-Pad2)*%
X199550000Y-65800000D03*
%TO.P,D62,1*%
%TO.N,pin8*%
X196250000Y-65800000D03*
%TD*%
%TO.P,D63,2*%
%TO.N,Net-(D63-Pad2)*%
X191150000Y-82200000D03*
%TO.P,D63,1*%
%TO.N,pin9*%
X187850000Y-82200000D03*
%TD*%
%TO.P,D64,2*%
%TO.N,Net-(D64-Pad2)*%
X189550000Y-98600000D03*
%TO.P,D64,1*%
%TO.N,pin10*%
X186250000Y-98600000D03*
%TD*%
%TO.P,D66,2*%
%TO.N,RE3_2*%
X206850000Y-33400000D03*
%TO.P,D66,1*%
%TO.N,pin1*%
X203550000Y-33400000D03*
%TD*%
%TO.P,D67,2*%
%TO.N,Net-(D67-Pad2)*%
X216350000Y-49400000D03*
%TO.P,D67,1*%
%TO.N,pin2*%
X213050000Y-49400000D03*
%TD*%
%TO.P,D68,2*%
%TO.N,Net-(D68-Pad2)*%
X216350000Y-65800000D03*
%TO.P,D68,1*%
%TO.N,pin3*%
X213050000Y-65800000D03*
%TD*%
%TO.P,D69,2*%
%TO.N,Net-(D69-Pad2)*%
X207950000Y-82200000D03*
%TO.P,D69,1*%
%TO.N,pin4*%
X204650000Y-82200000D03*
%TD*%
%TO.P,D70,2*%
%TO.N,Net-(D70-Pad2)*%
X211350000Y-98600000D03*
%TO.P,D70,1*%
%TO.N,pin5*%
X208050000Y-98600000D03*
%TD*%
%TO.P,D71,2*%
%TO.N,pin7*%
X232950000Y-46600000D03*
%TO.P,D71,1*%
%TO.N,RE3_1*%
X229650000Y-46600000D03*
%TD*%
%TO.P,D72,2*%
%TO.N,Net-(D72-Pad2)*%
X224750000Y-33000000D03*
%TO.P,D72,1*%
%TO.N,pin6*%
X221450000Y-33000000D03*
%TD*%
%TO.P,D73,2*%
%TO.N,Net-(D73-Pad2)*%
X232950000Y-49400000D03*
%TO.P,D73,1*%
%TO.N,pin7*%
X229650000Y-49400000D03*
%TD*%
%TO.P,D74,2*%
%TO.N,Net-(D74-Pad2)*%
X233150000Y-65800000D03*
%TO.P,D74,1*%
%TO.N,pin8*%
X229850000Y-65800000D03*
%TD*%
%TO.P,D75,2*%
%TO.N,Net-(D75-Pad2)*%
X224750000Y-82200000D03*
%TO.P,D75,1*%
%TO.N,pin9*%
X221450000Y-82200000D03*
%TD*%
%TO.P,D76,2*%
%TO.N,Net-(D76-Pad2)*%
X217750000Y-98600000D03*
%TO.P,D76,1*%
%TO.N,pin10*%
X214450000Y-98600000D03*
%TD*%
%TO.P,D78,2*%
%TO.N,RE4_2*%
X240550000Y-33400000D03*
%TO.P,D78,1*%
%TO.N,pin1*%
X237250000Y-33400000D03*
%TD*%
%TO.P,D79,2*%
%TO.N,Net-(D79-Pad2)*%
X250150000Y-49400000D03*
%TO.P,D79,1*%
%TO.N,pin2*%
X246850000Y-49400000D03*
%TD*%
%TO.P,D80,2*%
%TO.N,Net-(D80-Pad2)*%
X250150000Y-65800000D03*
%TO.P,D80,1*%
%TO.N,pin3*%
X246850000Y-65800000D03*
%TD*%
%TO.P,D81,2*%
%TO.N,Net-(D81-Pad2)*%
X241750000Y-82200000D03*
%TO.P,D81,1*%
%TO.N,pin4*%
X238450000Y-82200000D03*
%TD*%
%TO.P,D82,2*%
%TO.N,Net-(D82-Pad2)*%
X237550000Y-98600000D03*
%TO.P,D82,1*%
%TO.N,pin5*%
X234250000Y-98600000D03*
%TD*%
%TO.P,D83,2*%
%TO.N,pin8*%
X266950000Y-63000000D03*
%TO.P,D83,1*%
%TO.N,RE4_1*%
X263650000Y-63000000D03*
%TD*%
%TO.P,D84,2*%
%TO.N,Net-(D84-Pad2)*%
X258350000Y-33000000D03*
%TO.P,D84,1*%
%TO.N,pin6*%
X255050000Y-33000000D03*
%TD*%
%TO.P,D85,2*%
%TO.N,Net-(D85-Pad2)*%
X266950000Y-49400000D03*
%TO.P,D85,1*%
%TO.N,pin7*%
X263650000Y-49400000D03*
%TD*%
%TO.P,D86,2*%
%TO.N,Net-(D86-Pad2)*%
X266950000Y-65800000D03*
%TO.P,D86,1*%
%TO.N,pin8*%
X263650000Y-65800000D03*
%TD*%
%TO.P,D87,2*%
%TO.N,Net-(D87-Pad2)*%
X258350000Y-82200000D03*
%TO.P,D87,1*%
%TO.N,pin9*%
X255050000Y-82200000D03*
%TD*%
%TO.P,D88,2*%
%TO.N,Net-(D88-Pad2)*%
X268350000Y-98600000D03*
%TO.P,D88,1*%
%TO.N,pin10*%
X265050000Y-98600000D03*
%TD*%
%TO.P,D90,2*%
%TO.N,RE5_2*%
X264800000Y-35350000D03*
%TO.P,D90,1*%
%TO.N,pin1*%
X261500000Y-35350000D03*
%TD*%
%TO.P,D91,2*%
%TO.N,Net-(D91-Pad2)*%
X275150000Y-82200000D03*
%TO.P,D91,1*%
%TO.N,pin4*%
X271850000Y-82200000D03*
%TD*%
%TO.P,D92,2*%
%TO.N,Net-(D92-Pad2)*%
X274350000Y-98600000D03*
%TO.P,D92,1*%
%TO.N,pin5*%
X271050000Y-98600000D03*
%TD*%
%TO.P,D93,2*%
%TO.N,pin9*%
X285150000Y-85000000D03*
%TO.P,D93,1*%
%TO.N,RE5_1*%
X281850000Y-85000000D03*
%TD*%
%TO.P,D95,2*%
%TO.N,Net-(D95-Pad2)*%
X287750000Y-33000000D03*
%TO.P,D95,1*%
%TO.N,pin6*%
X284450000Y-33000000D03*
%TD*%
%TO.P,D96,2*%
%TO.N,Net-(D96-Pad2)*%
X287750000Y-49400000D03*
%TO.P,D96,1*%
%TO.N,pin7*%
X284450000Y-49400000D03*
%TD*%
%TO.P,D97,2*%
%TO.N,Net-(D97-Pad2)*%
X287550000Y-65800000D03*
%TO.P,D97,1*%
%TO.N,pin8*%
X284250000Y-65800000D03*
%TD*%
%TO.P,D98,2*%
%TO.N,Net-(D98-Pad2)*%
X285150000Y-82200000D03*
%TO.P,D98,1*%
%TO.N,pin9*%
X281850000Y-82200000D03*
%TD*%
%TO.P,D99,2*%
%TO.N,Net-(D99-Pad2)*%
X284550000Y-98600000D03*
%TO.P,D99,1*%
%TO.N,pin10*%
X281250000Y-98600000D03*
%TD*%
%TO.P,F1,2*%
%TO.N,VCC*%
%TA.AperFunction,SMDPad,CuDef*%
G36*
G01*
X42675000Y-20075000D02*
X41425000Y-20075000D01*
G75*
G02*
X41175000Y-19825000I0J250000D01*
G01*
X41175000Y-18900000D01*
G75*
G02*
X41425000Y-18650000I250000J0D01*
G01*
X42675000Y-18650000D01*
G75*
G02*
X42925000Y-18900000I0J-250000D01*
G01*
X42925000Y-19825000D01*
G75*
G02*
X42675000Y-20075000I-250000J0D01*
G01*
G37*
%TD.AperFunction*%
%TO.P,F1,1*%
%TO.N,+5V*%
%TA.AperFunction,SMDPad,CuDef*%
G36*
G01*
X42675000Y-23050000D02*
X41425000Y-23050000D01*
G75*
G02*
X41175000Y-22800000I0J250000D01*
G01*
X41175000Y-21875000D01*
G75*
G02*
X41425000Y-21625000I250000J0D01*
G01*
X42675000Y-21625000D01*
G75*
G02*
X42925000Y-21875000I0J-250000D01*
G01*
X42925000Y-22800000D01*
G75*
G02*
X42675000Y-23050000I-250000J0D01*
G01*
G37*
%TD.AperFunction*%
%TD*%
D17*
%TO.P,JP_LED2,1*%
%TO.N,Net-(JP_LED2-Pad1)*%
X83200000Y-21800000D03*
%TO.P,JP_LED2,2*%
%TO.N,Net-(JP_LED2-Pad2)*%
X83200000Y-23100000D03*
%TO.P,JP_LED2,3*%
%TO.N,Net-(JP_LED2-Pad3)*%
X83200000Y-24400000D03*
%TD*%
D18*
%TO.P,L15,3*%
%TO.N,GND*%
X291450000Y-74470000D03*
%TO.P,L15,2*%
%TO.N,Net-(JP_LED2-Pad3)*%
X291450000Y-77010000D03*
%TO.P,L15,1*%
%TO.N,+5V*%
X291450000Y-79550000D03*
%TD*%
%TO.P,R1,2*%
%TO.N,Net-(D2-Pad1)*%
%TA.AperFunction,SMDPad,CuDef*%
G36*
G01*
X28100000Y-28349999D02*
X28100000Y-29250001D01*
G75*
G02*
X27850001Y-29500000I-249999J0D01*
G01*
X27149999Y-29500000D01*
G75*
G02*
X26900000Y-29250001I0J249999D01*
G01*
X26900000Y-28349999D01*
G75*
G02*
X27149999Y-28100000I249999J0D01*
G01*
X27850001Y-28100000D01*
G75*
G02*
X28100000Y-28349999I0J-249999D01*
G01*
G37*
%TD.AperFunction*%
%TO.P,R1,1*%
%TO.N,AUDIO*%
%TA.AperFunction,SMDPad,CuDef*%
G36*
G01*
X30100000Y-28349999D02*
X30100000Y-29250001D01*
G75*
G02*
X29850001Y-29500000I-249999J0D01*
G01*
X29149999Y-29500000D01*
G75*
G02*
X28900000Y-29250001I0J249999D01*
G01*
X28900000Y-28349999D01*
G75*
G02*
X29149999Y-28100000I249999J0D01*
G01*
X29850001Y-28100000D01*
G75*
G02*
X30100000Y-28349999I0J-249999D01*
G01*
G37*
%TD.AperFunction*%
%TD*%
%TO.P,R4,2*%
%TO.N,RESET*%
%TA.AperFunction,SMDPad,CuDef*%
G36*
G01*
X34500000Y-63750001D02*
X34500000Y-62849999D01*
G75*
G02*
X34749999Y-62600000I249999J0D01*
G01*
X35450001Y-62600000D01*
G75*
G02*
X35700000Y-62849999I0J-249999D01*
G01*
X35700000Y-63750001D01*
G75*
G02*
X35450001Y-64000000I-249999J0D01*
G01*
X34749999Y-64000000D01*
G75*
G02*
X34500000Y-63750001I0J249999D01*
G01*
G37*
%TD.AperFunction*%
%TO.P,R4,1*%
%TO.N,+5V*%
%TA.AperFunction,SMDPad,CuDef*%
G36*
G01*
X32500000Y-63750001D02*
X32500000Y-62849999D01*
G75*
G02*
X32749999Y-62600000I249999J0D01*
G01*
X33450001Y-62600000D01*
G75*
G02*
X33700000Y-62849999I0J-249999D01*
G01*
X33700000Y-63750001D01*
G75*
G02*
X33450001Y-64000000I-249999J0D01*
G01*
X32749999Y-64000000D01*
G75*
G02*
X32500000Y-63750001I0J249999D01*
G01*
G37*
%TD.AperFunction*%
%TD*%
%TO.P,R5,2*%
%TO.N,Net-(J1-PadB5)*%
%TA.AperFunction,SMDPad,CuDef*%
G36*
G01*
X25400000Y-19350001D02*
X25400000Y-18449999D01*
G75*
G02*
X25649999Y-18200000I249999J0D01*
G01*
X26350001Y-18200000D01*
G75*
G02*
X26600000Y-18449999I0J-249999D01*
G01*
X26600000Y-19350001D01*
G75*
G02*
X26350001Y-19600000I-249999J0D01*
G01*
X25649999Y-19600000D01*
G75*
G02*
X25400000Y-19350001I0J249999D01*
G01*
G37*
%TD.AperFunction*%
%TO.P,R5,1*%
%TO.N,GND*%
%TA.AperFunction,SMDPad,CuDef*%
G36*
G01*
X23400000Y-19350001D02*
X23400000Y-18449999D01*
G75*
G02*
X23649999Y-18200000I249999J0D01*
G01*
X24350001Y-18200000D01*
G75*
G02*
X24600000Y-18449999I0J-249999D01*
G01*
X24600000Y-19350001D01*
G75*
G02*
X24350001Y-19600000I-249999J0D01*
G01*
X23649999Y-19600000D01*
G75*
G02*
X23400000Y-19350001I0J249999D01*
G01*
G37*
%TD.AperFunction*%
%TD*%
%TO.P,R6,2*%
%TO.N,Net-(J1-PadA5)*%
%TA.AperFunction,SMDPad,CuDef*%
G36*
G01*
X25400000Y-21650001D02*
X25400000Y-20749999D01*
G75*
G02*
X25649999Y-20500000I249999J0D01*
G01*
X26350001Y-20500000D01*
G75*
G02*
X26600000Y-20749999I0J-249999D01*
G01*
X26600000Y-21650001D01*
G75*
G02*
X26350001Y-21900000I-249999J0D01*
G01*
X25649999Y-21900000D01*
G75*
G02*
X25400000Y-21650001I0J249999D01*
G01*
G37*
%TD.AperFunction*%
%TO.P,R6,1*%
%TO.N,GND*%
%TA.AperFunction,SMDPad,CuDef*%
G36*
G01*
X23400000Y-21650001D02*
X23400000Y-20749999D01*
G75*
G02*
X23649999Y-20500000I249999J0D01*
G01*
X24350001Y-20500000D01*
G75*
G02*
X24600000Y-20749999I0J-249999D01*
G01*
X24600000Y-21650001D01*
G75*
G02*
X24350001Y-21900000I-249999J0D01*
G01*
X23649999Y-21900000D01*
G75*
G02*
X23400000Y-21650001I0J249999D01*
G01*
G37*
%TD.AperFunction*%
%TD*%
%TO.P,R8,2*%
%TO.N,Net-(D102-Pad2)*%
%TA.AperFunction,SMDPad,CuDef*%
G36*
G01*
X37900000Y-27899999D02*
X37900000Y-28800001D01*
G75*
G02*
X37650001Y-29050000I-249999J0D01*
G01*
X36949999Y-29050000D01*
G75*
G02*
X36700000Y-28800001I0J249999D01*
G01*
X36700000Y-27899999D01*
G75*
G02*
X36949999Y-27650000I249999J0D01*
G01*
X37650001Y-27650000D01*
G75*
G02*
X37900000Y-27899999I0J-249999D01*
G01*
G37*
%TD.AperFunction*%
%TO.P,R8,1*%
%TO.N,D+*%
%TA.AperFunction,SMDPad,CuDef*%
G36*
G01*
X39900000Y-27899999D02*
X39900000Y-28800001D01*
G75*
G02*
X39650001Y-29050000I-249999J0D01*
G01*
X38949999Y-29050000D01*
G75*
G02*
X38700000Y-28800001I0J249999D01*
G01*
X38700000Y-27899999D01*
G75*
G02*
X38949999Y-27650000I249999J0D01*
G01*
X39650001Y-27650000D01*
G75*
G02*
X39900000Y-27899999I0J-249999D01*
G01*
G37*
%TD.AperFunction*%
%TD*%
%TO.P,R9,2*%
%TO.N,Net-(R9-Pad2)*%
%TA.AperFunction,SMDPad,CuDef*%
G36*
G01*
X104557537Y-61893935D02*
X105193935Y-61257537D01*
G75*
G02*
X105547487Y-61257537I176776J-176776D01*
G01*
X106042463Y-61752513D01*
G75*
G02*
X106042463Y-62106065I-176776J-176776D01*
G01*
X105406065Y-62742463D01*
G75*
G02*
X105052513Y-62742463I-176776J176776D01*
G01*
X104557537Y-62247487D01*
G75*
G02*
X104557537Y-61893935I176776J176776D01*
G01*
G37*
%TD.AperFunction*%
%TO.P,R9,1*%
%TO.N,GND*%
%TA.AperFunction,SMDPad,CuDef*%
G36*
G01*
X103143323Y-60479721D02*
X103779721Y-59843323D01*
G75*
G02*
X104133273Y-59843323I176776J-176776D01*
G01*
X104628249Y-60338299D01*
G75*
G02*
X104628249Y-60691851I-176776J-176776D01*
G01*
X103991851Y-61328249D01*
G75*
G02*
X103638299Y-61328249I-176776J176776D01*
G01*
X103143323Y-60833273D01*
G75*
G02*
X103143323Y-60479721I176776J176776D01*
G01*
G37*
%TD.AperFunction*%
%TD*%
D19*
%TO.P,ResetSW1,2*%
%TO.N,RESET*%
X44200000Y-63350000D03*
X38000000Y-63350000D03*
%TO.P,ResetSW1,1*%
%TO.N,GND*%
X44200000Y-67050000D03*
X38000000Y-67050000D03*
%TD*%
D20*
%TO.P,J1,P4*%
%TO.N,GND*%
X29075000Y-17965000D03*
%TO.P,J1,P3*%
X37725000Y-17965000D03*
%TO.P,J1,P2*%
X37725000Y-21345000D03*
%TO.P,J1,P1*%
X29075000Y-21345000D03*
D21*
%TO.P,J1,B12*%
X30425000Y-20975000D03*
%TO.P,J1,B9*%
%TO.N,VCC*%
X31275000Y-20975000D03*
%TO.P,J1,B8*%
%TO.N,N/C*%
X32125000Y-20975000D03*
%TO.P,J1,B7*%
%TO.N,Net-(D102-Pad3)*%
X32975000Y-20975000D03*
%TO.P,J1,B6*%
%TO.N,Net-(D102-Pad2)*%
X33825000Y-20975000D03*
%TO.P,J1,B5*%
%TO.N,Net-(J1-PadB5)*%
X34675000Y-20975000D03*
%TO.P,J1,B4*%
%TO.N,VCC*%
X35525000Y-20975000D03*
%TO.P,J1,B1*%
%TO.N,GND*%
X36375000Y-20975000D03*
%TO.P,J1,A12*%
X36375000Y-22325000D03*
%TO.P,J1,A9*%
%TO.N,VCC*%
X35525000Y-22325000D03*
%TO.P,J1,A8*%
%TO.N,N/C*%
X34675000Y-22325000D03*
%TO.P,J1,A7*%
%TO.N,Net-(D102-Pad3)*%
X33825000Y-22325000D03*
%TO.P,J1,A6*%
%TO.N,Net-(D102-Pad2)*%
X32975000Y-22325000D03*
%TO.P,J1,A5*%
%TO.N,Net-(J1-PadA5)*%
X32125000Y-22325000D03*
%TO.P,J1,A4*%
%TO.N,VCC*%
X31275000Y-22325000D03*
%TO.P,J1,A1*%
%TO.N,GND*%
X30425000Y-22325000D03*
%TD*%
D22*
%TO.P,SW_RE1,A*%
%TO.N,RE1_A*%
X49400000Y-29000000D03*
D23*
%TO.P,SW_RE1,C*%
%TO.N,GND*%
X49400000Y-31500000D03*
%TO.P,SW_RE1,B*%
%TO.N,RE1_B*%
X49400000Y-34000000D03*
D24*
%TO.P,SW_RE1,MP*%
%TO.N,N/C*%
X56900000Y-25900000D03*
X56900000Y-37100000D03*
D23*
%TO.P,SW_RE1,S2*%
%TO.N,RE1_2*%
X63900000Y-29000000D03*
%TO.P,SW_RE1,S1*%
%TO.N,RE1_1*%
X63900000Y-34000000D03*
%TD*%
%TO.P,SW_RE2,S1*%
%TO.N,RE2_1*%
X181500000Y-34000000D03*
%TO.P,SW_RE2,S2*%
%TO.N,RE2_2*%
X181500000Y-29000000D03*
D24*
%TO.P,SW_RE2,MP*%
%TO.N,N/C*%
X174500000Y-37100000D03*
X174500000Y-25900000D03*
D23*
%TO.P,SW_RE2,B*%
%TO.N,RE2_B*%
X167000000Y-34000000D03*
%TO.P,SW_RE2,C*%
%TO.N,GND*%
X167000000Y-31500000D03*
D22*
%TO.P,SW_RE2,A*%
%TO.N,RE2_A*%
X167000000Y-29000000D03*
%TD*%
D23*
%TO.P,SW_RE3,S1*%
%TO.N,RE3_1*%
X215100000Y-34000000D03*
%TO.P,SW_RE3,S2*%
%TO.N,RE3_2*%
X215100000Y-29000000D03*
D24*
%TO.P,SW_RE3,MP*%
%TO.N,N/C*%
X208100000Y-37100000D03*
X208100000Y-25900000D03*
D23*
%TO.P,SW_RE3,B*%
%TO.N,RE3_B*%
X200600000Y-34000000D03*
%TO.P,SW_RE3,C*%
%TO.N,GND*%
X200600000Y-31500000D03*
D22*
%TO.P,SW_RE3,A*%
%TO.N,RE3_A*%
X200600000Y-29000000D03*
%TD*%
%TO.P,SW_RE4,A*%
%TO.N,RE4_A*%
X234200000Y-29000000D03*
D23*
%TO.P,SW_RE4,C*%
%TO.N,GND*%
X234200000Y-31500000D03*
%TO.P,SW_RE4,B*%
%TO.N,RE4_B*%
X234200000Y-34000000D03*
D24*
%TO.P,SW_RE4,MP*%
%TO.N,N/C*%
X241700000Y-25900000D03*
X241700000Y-37100000D03*
D23*
%TO.P,SW_RE4,S2*%
%TO.N,RE4_2*%
X248700000Y-29000000D03*
%TO.P,SW_RE4,S1*%
%TO.N,RE4_1*%
X248700000Y-34000000D03*
%TD*%
%TO.P,SW_RE5,S1*%
%TO.N,RE5_1*%
X282300000Y-34000000D03*
%TO.P,SW_RE5,S2*%
%TO.N,RE5_2*%
X282300000Y-29000000D03*
D24*
%TO.P,SW_RE5,MP*%
%TO.N,N/C*%
X275300000Y-37100000D03*
X275300000Y-25900000D03*
D23*
%TO.P,SW_RE5,B*%
%TO.N,RE5_B*%
X267800000Y-34000000D03*
%TO.P,SW_RE5,C*%
%TO.N,GND*%
X267800000Y-31500000D03*
D22*
%TO.P,SW_RE5,A*%
%TO.N,RE5_A*%
X267800000Y-29000000D03*
%TD*%
D25*
%TO.P,J3,1*%
%TO.N,N/C*%
X73700000Y-20600000D03*
D26*
%TO.P,J3,2*%
X73700000Y-23140000D03*
%TO.P,J3,3*%
X73700000Y-25680000D03*
%TD*%
D25*
%TO.P,J2,1*%
%TO.N,pin1*%
X137550000Y-45100000D03*
D26*
%TO.P,J2,2*%
%TO.N,+5V*%
X137550000Y-42560000D03*
%TO.P,J2,3*%
%TO.N,RE1_B*%
X135010000Y-45100000D03*
%TO.P,J2,4*%
%TO.N,pin6*%
X135010000Y-42560000D03*
%TO.P,J2,5*%
%TO.N,RESET*%
X132470000Y-45100000D03*
%TO.P,J2,6*%
%TO.N,GND*%
X132470000Y-42560000D03*
%TD*%
D17*
%TO.P,JP_LED1,3*%
%TO.N,Net-(JP_LED1-Pad3)*%
X93000000Y-24400000D03*
%TO.P,JP_LED1,2*%
%TO.N,Net-(JP_LED1-Pad2)*%
X93000000Y-23100000D03*
%TO.P,JP_LED1,1*%
%TO.N,Net-(JP_LED1-Pad1)*%
X93000000Y-21800000D03*
%TD*%
D25*
%TO.P,J4,1*%
%TO.N,SDA*%
X117800000Y-22000000D03*
D26*
%TO.P,J4,2*%
%TO.N,SCL*%
X115260000Y-22000000D03*
%TD*%
D27*
%TO.P,SW_6,1*%
%TO.N,Net-(D94-Pad1)*%
X288290000Y-35460000D03*
%TO.P,SW_6,2*%
%TO.N,Net-(D95-Pad2)*%
X294740000Y-32920000D03*
%TD*%
%TO.P,SW_9,2*%
%TO.N,Net-(D98-Pad2)*%
X294740000Y-82120000D03*
%TO.P,SW_9,1*%
%TO.N,Net-(D94-Pad1)*%
X288290000Y-84660000D03*
%TD*%
%TO.P,SW_14,1*%
%TO.N,Net-(D1-Pad1)*%
X36290000Y-84660000D03*
%TO.P,SW_14,2*%
%TO.N,Net-(D12-Pad2)*%
X42740000Y-82120000D03*
%TD*%
%TO.P,SW_15,2*%
%TO.N,Net-(D13-Pad2)*%
X42740000Y-98520000D03*
%TO.P,SW_15,1*%
%TO.N,Net-(D1-Pad1)*%
X36290000Y-101060000D03*
%TD*%
%TO.P,SW_16,1*%
%TO.N,Net-(D1-Pad1)*%
X19490000Y-35460000D03*
%TO.P,SW_16,2*%
%TO.N,Net-(D3-Pad2)*%
X25940000Y-32920000D03*
%TD*%
%TO.P,SW_26,1*%
%TO.N,RE1_1*%
X53090000Y-35460000D03*
%TO.P,SW_26,2*%
%TO.N,RE1_2*%
X59540000Y-32920000D03*
%TD*%
%TO.P,SW_29,2*%
%TO.N,Net-(D18-Pad2)*%
X59540000Y-82120000D03*
%TO.P,SW_29,1*%
%TO.N,RE1_1*%
X53090000Y-84660000D03*
%TD*%
%TO.P,SW_31,1*%
%TO.N,Net-(D25-Pad1)*%
X69890000Y-35460000D03*
%TO.P,SW_31,2*%
%TO.N,Net-(D20-Pad2)*%
X76340000Y-32920000D03*
%TD*%
%TO.P,SW_34,2*%
%TO.N,Net-(D34-Pad2)*%
X109940000Y-82120000D03*
%TO.P,SW_34,1*%
%TO.N,Net-(D25-Pad1)*%
X103490000Y-84660000D03*
%TD*%
D28*
%TO.P,SW_42,1*%
%TO.N,Net-(D36-Pad1)*%
X118240000Y-50590000D03*
%TO.P,SW_42,2*%
%TO.N,Net-(D32-Pad2)*%
X120780000Y-57040000D03*
%TD*%
D27*
%TO.P,SW_43,2*%
%TO.N,Net-(D33-Pad2)*%
X118340000Y-65720000D03*
%TO.P,SW_43,1*%
%TO.N,Net-(D36-Pad1)*%
X111890000Y-68260000D03*
%TD*%
%TO.P,SW_47,2*%
%TO.N,Net-(D38-Pad2)*%
X135140000Y-49320000D03*
%TO.P,SW_47,1*%
%TO.N,Net-(D36-Pad1)*%
X128690000Y-51860000D03*
%TD*%
%TO.P,SW_48,2*%
%TO.N,Net-(D39-Pad2)*%
X135140000Y-65720000D03*
%TO.P,SW_48,1*%
%TO.N,Net-(D36-Pad1)*%
X128690000Y-68260000D03*
%TD*%
%TO.P,SW_49,2*%
%TO.N,Net-(D40-Pad2)*%
X126740000Y-82120000D03*
%TO.P,SW_49,1*%
%TO.N,Net-(D36-Pad1)*%
X120290000Y-84660000D03*
%TD*%
%TO.P,SW_50,2*%
%TO.N,Net-(D52-Pad2)*%
X160340000Y-98520000D03*
%TO.P,SW_50,1*%
%TO.N,Net-(D47-Pad1)*%
X153890000Y-101060000D03*
%TD*%
%TO.P,SW_52,2*%
%TO.N,Net-(D43-Pad2)*%
X151940000Y-49320000D03*
%TO.P,SW_52,1*%
%TO.N,Net-(D47-Pad1)*%
X145490000Y-51860000D03*
%TD*%
%TO.P,SW_54,1*%
%TO.N,Net-(D47-Pad1)*%
X137090000Y-84660000D03*
%TO.P,SW_54,2*%
%TO.N,Net-(D45-Pad2)*%
X143540000Y-82120000D03*
%TD*%
%TO.P,SW_56,2*%
%TO.N,Net-(D48-Pad2)*%
X160340000Y-32920000D03*
%TO.P,SW_56,1*%
%TO.N,Net-(D47-Pad1)*%
X153890000Y-35460000D03*
%TD*%
%TO.P,SW_57,2*%
%TO.N,Net-(D49-Pad2)*%
X168740000Y-49320000D03*
%TO.P,SW_57,1*%
%TO.N,Net-(D47-Pad1)*%
X162290000Y-51860000D03*
%TD*%
%TO.P,SW_58,2*%
%TO.N,Net-(D50-Pad2)*%
X168740000Y-65720000D03*
%TO.P,SW_58,1*%
%TO.N,Net-(D47-Pad1)*%
X162290000Y-68260000D03*
%TD*%
%TO.P,SW_59,2*%
%TO.N,Net-(D51-Pad2)*%
X160340000Y-82120000D03*
%TO.P,SW_59,1*%
%TO.N,Net-(D47-Pad1)*%
X153890000Y-84660000D03*
%TD*%
%TO.P,SW_61,2*%
%TO.N,RE2_2*%
X177140000Y-32920000D03*
%TO.P,SW_61,1*%
%TO.N,RE2_1*%
X170690000Y-35460000D03*
%TD*%
%TO.P,SW_62,2*%
%TO.N,Net-(D55-Pad2)*%
X185540000Y-49320000D03*
%TO.P,SW_62,1*%
%TO.N,RE2_1*%
X179090000Y-51860000D03*
%TD*%
%TO.P,SW_63,2*%
%TO.N,Net-(D56-Pad2)*%
X185540000Y-65720000D03*
%TO.P,SW_63,1*%
%TO.N,RE2_1*%
X179090000Y-68260000D03*
%TD*%
%TO.P,SW_64,1*%
%TO.N,RE2_1*%
X170690000Y-84660000D03*
%TO.P,SW_64,2*%
%TO.N,Net-(D57-Pad2)*%
X177140000Y-82120000D03*
%TD*%
%TO.P,SW_67,1*%
%TO.N,RE2_1*%
X195890000Y-51860000D03*
%TO.P,SW_67,2*%
%TO.N,Net-(D61-Pad2)*%
X202340000Y-49320000D03*
%TD*%
%TO.P,SW_68,1*%
%TO.N,RE2_1*%
X195890000Y-68260000D03*
%TO.P,SW_68,2*%
%TO.N,Net-(D62-Pad2)*%
X202340000Y-65720000D03*
%TD*%
%TO.P,SW_69,1*%
%TO.N,RE2_1*%
X187490000Y-84660000D03*
%TO.P,SW_69,2*%
%TO.N,Net-(D63-Pad2)*%
X193940000Y-82120000D03*
%TD*%
%TO.P,SW_71,1*%
%TO.N,RE3_1*%
X204290000Y-35460000D03*
%TO.P,SW_71,2*%
%TO.N,RE3_2*%
X210740000Y-32920000D03*
%TD*%
%TO.P,SW_74,2*%
%TO.N,Net-(D69-Pad2)*%
X210740000Y-82120000D03*
%TO.P,SW_74,1*%
%TO.N,RE3_1*%
X204290000Y-84660000D03*
%TD*%
%TO.P,SW_76,1*%
%TO.N,RE3_1*%
X187490000Y-35460000D03*
%TO.P,SW_76,2*%
%TO.N,Net-(D60-Pad2)*%
X193940000Y-32920000D03*
%TD*%
%TO.P,SW_79,1*%
%TO.N,RE3_1*%
X221090000Y-84660000D03*
%TO.P,SW_79,2*%
%TO.N,Net-(D75-Pad2)*%
X227540000Y-82120000D03*
%TD*%
%TO.P,SW_81,1*%
%TO.N,RE4_1*%
X237890000Y-35460000D03*
%TO.P,SW_81,2*%
%TO.N,RE4_2*%
X244340000Y-32920000D03*
%TD*%
%TO.P,SW_84,1*%
%TO.N,RE4_1*%
X237890000Y-84660000D03*
%TO.P,SW_84,2*%
%TO.N,Net-(D81-Pad2)*%
X244340000Y-82120000D03*
%TD*%
%TO.P,SW_86,2*%
%TO.N,Net-(D72-Pad2)*%
X227540000Y-32920000D03*
%TO.P,SW_86,1*%
%TO.N,RE4_1*%
X221090000Y-35460000D03*
%TD*%
%TO.P,SW_89,1*%
%TO.N,RE4_1*%
X254690000Y-84660000D03*
%TO.P,SW_89,2*%
%TO.N,Net-(D87-Pad2)*%
X261140000Y-82120000D03*
%TD*%
%TO.P,SW_94,2*%
%TO.N,Net-(D91-Pad2)*%
X277940000Y-82120000D03*
%TO.P,SW_94,1*%
%TO.N,RE5_1*%
X271490000Y-84660000D03*
%TD*%
%TO.P,SW_95,1*%
%TO.N,RE5_1*%
X271490000Y-101060000D03*
%TO.P,SW_95,2*%
%TO.N,Net-(D92-Pad2)*%
X277940000Y-98520000D03*
%TD*%
%TO.P,SW_96,1*%
%TO.N,RE5_1*%
X254690000Y-35460000D03*
%TO.P,SW_96,2*%
%TO.N,Net-(D84-Pad2)*%
X261140000Y-32920000D03*
%TD*%
%TO.P,SW_10_1,1*%
%TO.N,Net-(D1-Pad1)*%
X19490000Y-101060000D03*
%TO.P,SW_10_1,2*%
%TO.N,Net-(D7-Pad2)*%
X25940000Y-98520000D03*
%TD*%
%TO.P,SW_12_1,2*%
%TO.N,Net-(D10-Pad2)*%
X42740000Y-49320000D03*
%TO.P,SW_12_1,1*%
%TO.N,Net-(D1-Pad1)*%
X36290000Y-51860000D03*
%TD*%
%TO.P,SW_12_2,1*%
%TO.N,Net-(D1-Pad1)*%
X44690000Y-51860000D03*
%TO.P,SW_12_2,2*%
%TO.N,Net-(D10-Pad2)*%
X51140000Y-49320000D03*
%TD*%
%TO.P,SW_13_1,1*%
%TO.N,Net-(D1-Pad1)*%
X43910000Y-73340000D03*
%TO.P,SW_13_1,2*%
%TO.N,Net-(D11-Pad2)*%
X37460000Y-75880000D03*
%TD*%
%TO.P,SW_13_2,2*%
%TO.N,Net-(D11-Pad2)*%
X45860000Y-75880000D03*
%TO.P,SW_13_2,1*%
%TO.N,Net-(D1-Pad1)*%
X52310000Y-73340000D03*
%TD*%
%TO.P,SW_17_1,1*%
%TO.N,Net-(D1-Pad1)*%
X19490000Y-51860000D03*
%TO.P,SW_17_1,2*%
%TO.N,Net-(D4-Pad2)*%
X25940000Y-49320000D03*
%TD*%
%TO.P,SW_19_1,1*%
%TO.N,Net-(D1-Pad1)*%
X19490000Y-84660000D03*
%TO.P,SW_19_1,2*%
%TO.N,Net-(D6-Pad2)*%
X25940000Y-82120000D03*
%TD*%
%TO.P,SW_20_1,2*%
%TO.N,Net-(D19-Pad2)*%
X59540000Y-98520000D03*
%TO.P,SW_20_1,1*%
%TO.N,RE1_1*%
X53090000Y-101060000D03*
%TD*%
%TO.P,SW_23_1,2*%
%TO.N,Net-(D22-Pad2)*%
X76340000Y-65720000D03*
%TO.P,SW_23_1,1*%
%TO.N,RE1_1*%
X69890000Y-68260000D03*
%TD*%
%TO.P,SW_23_2,2*%
%TO.N,Net-(D22-Pad2)*%
X84740000Y-65720000D03*
%TO.P,SW_23_2,1*%
%TO.N,RE1_1*%
X78290000Y-68260000D03*
%TD*%
%TO.P,SW_24_1,2*%
%TO.N,Net-(D23-Pad2)*%
X76340000Y-82120000D03*
%TO.P,SW_24_1,1*%
%TO.N,RE1_1*%
X69890000Y-84660000D03*
%TD*%
%TO.P,SW_25_1,2*%
%TO.N,Net-(D24-Pad2)*%
X76340000Y-98520000D03*
%TO.P,SW_25_1,1*%
%TO.N,RE1_1*%
X69890000Y-101060000D03*
%TD*%
%TO.P,SW_27_1,1*%
%TO.N,RE1_1*%
X53090000Y-51860000D03*
%TO.P,SW_27_1,2*%
%TO.N,Net-(D16-Pad2)*%
X59540000Y-49320000D03*
%TD*%
%TO.P,SW_27_2,1*%
%TO.N,RE1_1*%
X61490000Y-51860000D03*
%TO.P,SW_27_2,2*%
%TO.N,Net-(D16-Pad2)*%
X67940000Y-49320000D03*
%TD*%
%TO.P,SW_28_1,1*%
%TO.N,RE1_1*%
X53090000Y-68260000D03*
%TO.P,SW_28_1,2*%
%TO.N,Net-(D17-Pad2)*%
X59540000Y-65720000D03*
%TD*%
%TO.P,SW_28_2,1*%
%TO.N,RE1_1*%
X61490000Y-68260000D03*
%TO.P,SW_28_2,2*%
%TO.N,Net-(D17-Pad2)*%
X67940000Y-65720000D03*
%TD*%
%TO.P,SW_30_1,1*%
%TO.N,Net-(D25-Pad1)*%
X86690000Y-101060000D03*
%TO.P,SW_30_1,2*%
%TO.N,Net-(D30-Pad2)*%
X93140000Y-98520000D03*
%TD*%
%TO.P,SW_32_1,1*%
%TO.N,Net-(D25-Pad1)*%
X69890000Y-51860000D03*
%TO.P,SW_32_1,2*%
%TO.N,Net-(D21-Pad2)*%
X76340000Y-49320000D03*
%TD*%
%TO.P,SW_32_2,2*%
%TO.N,Net-(D21-Pad2)*%
X84740000Y-49320000D03*
%TO.P,SW_32_2,1*%
%TO.N,Net-(D25-Pad1)*%
X78290000Y-51860000D03*
%TD*%
%TO.P,SW_36_1,2*%
%TO.N,Net-(D26-Pad2)*%
X93140000Y-32920000D03*
%TO.P,SW_36_1,1*%
%TO.N,Net-(D25-Pad1)*%
X86690000Y-35460000D03*
%TD*%
%TO.P,SW_36_2,2*%
%TO.N,Net-(D26-Pad2)*%
X93140000Y-26420000D03*
%TO.P,SW_36_2,1*%
%TO.N,Net-(D25-Pad1)*%
X86690000Y-28960000D03*
%TD*%
D28*
%TO.P,SW_37_1,1*%
%TO.N,Net-(D25-Pad1)*%
X96360000Y-58210000D03*
%TO.P,SW_37_1,2*%
%TO.N,Net-(D27-Pad2)*%
X93820000Y-51760000D03*
%TD*%
D27*
%TO.P,SW_38_1,2*%
%TO.N,Net-(D28-Pad2)*%
X101540000Y-65720000D03*
%TO.P,SW_38_1,1*%
%TO.N,Net-(D25-Pad1)*%
X95090000Y-68260000D03*
%TD*%
%TO.P,SW_39_1,2*%
%TO.N,Net-(D29-Pad2)*%
X93140000Y-82120000D03*
%TO.P,SW_39_1,1*%
%TO.N,Net-(D25-Pad1)*%
X86690000Y-84660000D03*
%TD*%
%TO.P,SW_40_1,1*%
%TO.N,Net-(D36-Pad1)*%
X120290000Y-101060000D03*
%TO.P,SW_40_1,2*%
%TO.N,Net-(D41-Pad2)*%
X126740000Y-98520000D03*
%TD*%
%TO.P,SW_41_1,1*%
%TO.N,Net-(D36-Pad1)*%
X103490000Y-35460000D03*
%TO.P,SW_41_1,2*%
%TO.N,Net-(D31-Pad2)*%
X109940000Y-32920000D03*
%TD*%
%TO.P,SW_41_2,1*%
%TO.N,Net-(D36-Pad1)*%
X103490000Y-28960000D03*
%TO.P,SW_41_2,2*%
%TO.N,Net-(D31-Pad2)*%
X109940000Y-26420000D03*
%TD*%
%TO.P,SW_46_1,2*%
%TO.N,Net-(D37-Pad2)*%
X126740000Y-32920000D03*
%TO.P,SW_46_1,1*%
%TO.N,Net-(D36-Pad1)*%
X120290000Y-35460000D03*
%TD*%
%TO.P,SW_46_2,1*%
%TO.N,Net-(D36-Pad1)*%
X120290000Y-28960000D03*
%TO.P,SW_46_2,2*%
%TO.N,Net-(D37-Pad2)*%
X126740000Y-26420000D03*
%TD*%
%TO.P,SW_51_1,2*%
%TO.N,Net-(D42-Pad2)*%
X143540000Y-32920000D03*
%TO.P,SW_51_1,1*%
%TO.N,Net-(D47-Pad1)*%
X137090000Y-35460000D03*
%TD*%
%TO.P,SW_51_2,1*%
%TO.N,Net-(D47-Pad1)*%
X137090000Y-28960000D03*
%TO.P,SW_51_2,2*%
%TO.N,Net-(D42-Pad2)*%
X143540000Y-26420000D03*
%TD*%
%TO.P,SW_60_1,1*%
%TO.N,RE2_1*%
X187490000Y-101060000D03*
%TO.P,SW_60_1,2*%
%TO.N,Net-(D64-Pad2)*%
X193940000Y-98520000D03*
%TD*%
%TO.P,SW_70_1,1*%
%TO.N,RE3_1*%
X221090000Y-101060000D03*
%TO.P,SW_70_1,2*%
%TO.N,Net-(D76-Pad2)*%
X227540000Y-98520000D03*
%TD*%
%TO.P,SW_72_1,2*%
%TO.N,Net-(D67-Pad2)*%
X219140000Y-49320000D03*
%TO.P,SW_72_1,1*%
%TO.N,RE3_1*%
X212690000Y-51860000D03*
%TD*%
%TO.P,SW_73_1,2*%
%TO.N,Net-(D68-Pad2)*%
X219140000Y-65720000D03*
%TO.P,SW_73_1,1*%
%TO.N,RE3_1*%
X212690000Y-68260000D03*
%TD*%
%TO.P,SW_78_1,2*%
%TO.N,Net-(D74-Pad2)*%
X235940000Y-65720000D03*
%TO.P,SW_78_1,1*%
%TO.N,RE3_1*%
X229490000Y-68260000D03*
%TD*%
%TO.P,SW_78_2,2*%
%TO.N,Net-(D74-Pad2)*%
X244340000Y-65720000D03*
%TO.P,SW_78_2,1*%
%TO.N,RE3_1*%
X237890000Y-68260000D03*
%TD*%
%TO.P,SW_7_1,1*%
%TO.N,Net-(D94-Pad1)*%
X288290000Y-51860000D03*
%TO.P,SW_7_1,2*%
%TO.N,Net-(D96-Pad2)*%
X294740000Y-49320000D03*
%TD*%
%TO.P,SW_80_1,2*%
%TO.N,Net-(D88-Pad2)*%
X261140000Y-98520000D03*
%TO.P,SW_80_1,1*%
%TO.N,RE4_1*%
X254690000Y-101060000D03*
%TD*%
%TO.P,SW_82_1,1*%
%TO.N,RE4_1*%
X246290000Y-51860000D03*
%TO.P,SW_82_1,2*%
%TO.N,Net-(D79-Pad2)*%
X252740000Y-49320000D03*
%TD*%
%TO.P,SW_82_2,2*%
%TO.N,Net-(D79-Pad2)*%
X261140000Y-49320000D03*
%TO.P,SW_82_2,1*%
%TO.N,RE4_1*%
X254690000Y-51860000D03*
%TD*%
%TO.P,SW_83_1,1*%
%TO.N,RE4_1*%
X246290000Y-68260000D03*
%TO.P,SW_83_1,2*%
%TO.N,Net-(D80-Pad2)*%
X252740000Y-65720000D03*
%TD*%
%TO.P,SW_83_2,2*%
%TO.N,Net-(D80-Pad2)*%
X261140000Y-65720000D03*
%TO.P,SW_83_2,1*%
%TO.N,RE4_1*%
X254690000Y-68260000D03*
%TD*%
%TO.P,SW_85_1,1*%
%TO.N,RE4_1*%
X237890000Y-101060000D03*
%TO.P,SW_85_1,2*%
%TO.N,Net-(D82-Pad2)*%
X244340000Y-98520000D03*
%TD*%
%TO.P,SW_87_1,2*%
%TO.N,Net-(D73-Pad2)*%
X235940000Y-49320000D03*
%TO.P,SW_87_1,1*%
%TO.N,RE4_1*%
X229490000Y-51860000D03*
%TD*%
%TO.P,SW_87_2,2*%
%TO.N,Net-(D73-Pad2)*%
X244340000Y-49320000D03*
%TO.P,SW_87_2,1*%
%TO.N,RE4_1*%
X237890000Y-51860000D03*
%TD*%
%TO.P,SW_90_1,1*%
%TO.N,RE5_1*%
X288290000Y-101060000D03*
%TO.P,SW_90_1,2*%
%TO.N,Net-(D99-Pad2)*%
X294740000Y-98520000D03*
%TD*%
%TO.P,SW_97_1,2*%
%TO.N,Net-(D85-Pad2)*%
X269540000Y-49320000D03*
%TO.P,SW_97_1,1*%
%TO.N,RE5_1*%
X263090000Y-51860000D03*
%TD*%
%TO.P,SW_97_2,1*%
%TO.N,RE5_1*%
X271490000Y-51860000D03*
%TO.P,SW_97_2,2*%
%TO.N,Net-(D85-Pad2)*%
X277940000Y-49320000D03*
%TD*%
%TO.P,SW_98_1,2*%
%TO.N,Net-(D86-Pad2)*%
X269540000Y-65720000D03*
%TO.P,SW_98_1,1*%
%TO.N,RE5_1*%
X263090000Y-68260000D03*
%TD*%
%TO.P,SW_98_2,1*%
%TO.N,RE5_1*%
X271490000Y-68260000D03*
%TO.P,SW_98_2,2*%
%TO.N,Net-(D86-Pad2)*%
X277940000Y-65720000D03*
%TD*%
%TO.P,SW_10_2,2*%
%TO.N,Net-(D7-Pad2)*%
X34340000Y-98520000D03*
%TO.P,SW_10_2,1*%
%TO.N,Net-(D1-Pad1)*%
X27890000Y-101060000D03*
%TD*%
%TO.P,SW_17_2,2*%
%TO.N,Net-(D4-Pad2)*%
X30140000Y-49320000D03*
%TO.P,SW_17_2,1*%
%TO.N,Net-(D1-Pad1)*%
X23690000Y-51860000D03*
%TD*%
%TO.P,SW_18_2,1*%
%TO.N,Net-(D1-Pad1)*%
X23690000Y-68260000D03*
%TO.P,SW_18_2,2*%
%TO.N,Net-(D5-Pad2)*%
X30140000Y-65720000D03*
%TD*%
%TO.P,SW_19_2,2*%
%TO.N,Net-(D6-Pad2)*%
X34340000Y-82120000D03*
%TO.P,SW_19_2,1*%
%TO.N,Net-(D1-Pad1)*%
X27890000Y-84660000D03*
%TD*%
%TO.P,SW_20_2,1*%
%TO.N,RE1_1*%
X57290000Y-101060000D03*
%TO.P,SW_20_2,2*%
%TO.N,Net-(D19-Pad2)*%
X63740000Y-98520000D03*
%TD*%
%TO.P,SW_25_3,1*%
%TO.N,RE1_1*%
X74090000Y-101060000D03*
%TO.P,SW_25_3,2*%
%TO.N,Net-(D24-Pad2)*%
X80540000Y-98520000D03*
%TD*%
%TO.P,SW_30_2,2*%
%TO.N,Net-(D30-Pad2)*%
X88940000Y-98520000D03*
%TO.P,SW_30_2,1*%
%TO.N,Net-(D25-Pad1)*%
X82490000Y-101060000D03*
%TD*%
%TO.P,SW_35_1,1*%
%TO.N,Net-(D25-Pad1)*%
X103490000Y-101060000D03*
%TO.P,SW_35_1,2*%
%TO.N,Net-(D35-Pad2)*%
X109940000Y-98520000D03*
%TD*%
%TO.P,SW_35_2,1*%
%TO.N,Net-(D25-Pad1)*%
X111890000Y-101060000D03*
%TO.P,SW_35_2,2*%
%TO.N,Net-(D35-Pad2)*%
X118340000Y-98520000D03*
%TD*%
%TO.P,SW_35_3,2*%
%TO.N,Net-(D35-Pad2)*%
X114140000Y-98520000D03*
%TO.P,SW_35_3,1*%
%TO.N,Net-(D25-Pad1)*%
X107690000Y-101060000D03*
%TD*%
%TO.P,SW_38_2,2*%
%TO.N,Net-(D28-Pad2)*%
X97340000Y-65720000D03*
%TO.P,SW_38_2,1*%
%TO.N,Net-(D25-Pad1)*%
X90890000Y-68260000D03*
%TD*%
%TO.P,SW_39_2,2*%
%TO.N,Net-(D29-Pad2)*%
X101540000Y-82120000D03*
%TO.P,SW_39_2,1*%
%TO.N,Net-(D25-Pad1)*%
X95090000Y-84660000D03*
%TD*%
%TO.P,SW_45_1,1*%
%TO.N,Net-(D36-Pad1)*%
X137090000Y-101060000D03*
%TO.P,SW_45_1,2*%
%TO.N,Net-(D46-Pad2)*%
X143540000Y-98520000D03*
%TD*%
%TO.P,SW_45_2,1*%
%TO.N,Net-(D36-Pad1)*%
X145490000Y-101060000D03*
%TO.P,SW_45_2,2*%
%TO.N,Net-(D46-Pad2)*%
X151940000Y-98520000D03*
%TD*%
%TO.P,SW_45_3,2*%
%TO.N,Net-(D46-Pad2)*%
X147740000Y-98520000D03*
%TO.P,SW_45_3,1*%
%TO.N,Net-(D36-Pad1)*%
X141290000Y-101060000D03*
%TD*%
%TO.P,SW_45_4,1*%
%TO.N,Net-(D36-Pad1)*%
X132890000Y-101060000D03*
%TO.P,SW_45_4,2*%
%TO.N,Net-(D46-Pad2)*%
X139340000Y-98520000D03*
%TD*%
%TO.P,SW_65_1,1*%
%TO.N,RE2_1*%
X170690000Y-101060000D03*
%TO.P,SW_65_1,2*%
%TO.N,Net-(D58-Pad2)*%
X177140000Y-98520000D03*
%TD*%
%TO.P,SW_65_2,2*%
%TO.N,Net-(D58-Pad2)*%
X181340000Y-98520000D03*
%TO.P,SW_65_2,1*%
%TO.N,RE2_1*%
X174890000Y-101060000D03*
%TD*%
%TO.P,SW_65_3,1*%
%TO.N,RE2_1*%
X166490000Y-101060000D03*
%TO.P,SW_65_3,2*%
%TO.N,Net-(D58-Pad2)*%
X172940000Y-98520000D03*
%TD*%
%TO.P,SW_70_2,2*%
%TO.N,Net-(D76-Pad2)*%
X231740000Y-98520000D03*
%TO.P,SW_70_2,1*%
%TO.N,RE3_1*%
X225290000Y-101060000D03*
%TD*%
%TO.P,SW_72_2,1*%
%TO.N,RE3_1*%
X216890000Y-51860000D03*
%TO.P,SW_72_2,2*%
%TO.N,Net-(D67-Pad2)*%
X223340000Y-49320000D03*
%TD*%
%TO.P,SW_73_2,1*%
%TO.N,RE3_1*%
X216890000Y-68260000D03*
%TO.P,SW_73_2,2*%
%TO.N,Net-(D68-Pad2)*%
X223340000Y-65720000D03*
%TD*%
%TO.P,SW_75_3,2*%
%TO.N,Net-(D70-Pad2)*%
X213860000Y-108680000D03*
%TO.P,SW_75_3,1*%
%TO.N,RE3_1*%
X220310000Y-106140000D03*
%TD*%
%TO.P,SW_7_2,2*%
%TO.N,Net-(D96-Pad2)*%
X290540000Y-49320000D03*
%TO.P,SW_7_2,1*%
%TO.N,Net-(D94-Pad1)*%
X284090000Y-51860000D03*
%TD*%
%TO.P,SW_80_2,1*%
%TO.N,RE4_1*%
X250490000Y-101060000D03*
%TO.P,SW_80_2,2*%
%TO.N,Net-(D88-Pad2)*%
X256940000Y-98520000D03*
%TD*%
%TO.P,SW_85_2,2*%
%TO.N,Net-(D82-Pad2)*%
X252740000Y-98520000D03*
%TO.P,SW_85_2,1*%
%TO.N,RE4_1*%
X246290000Y-101060000D03*
%TD*%
%TO.P,SW_85_3,2*%
%TO.N,Net-(D82-Pad2)*%
X240140000Y-98520000D03*
%TO.P,SW_85_3,1*%
%TO.N,RE4_1*%
X233690000Y-101060000D03*
%TD*%
%TO.P,SW_8_2,1*%
%TO.N,Net-(D94-Pad1)*%
X284090000Y-68260000D03*
%TO.P,SW_8_2,2*%
%TO.N,Net-(D97-Pad2)*%
X290540000Y-65720000D03*
%TD*%
%TO.P,SW_25_2,2*%
%TO.N,Net-(D24-Pad2)*%
X76340000Y-90320000D03*
%TO.P,SW_25_2,1*%
%TO.N,RE1_1*%
X69890000Y-92860000D03*
%TD*%
D28*
%TO.P,SW_37_2,2*%
%TO.N,Net-(D27-Pad2)*%
X89620000Y-51760000D03*
%TO.P,SW_37_2,1*%
%TO.N,Net-(D25-Pad1)*%
X92160000Y-58210000D03*
%TD*%
D27*
%TO.P,SW_60_2,2*%
%TO.N,Net-(D64-Pad2)*%
X193940000Y-90320000D03*
%TO.P,SW_60_2,1*%
%TO.N,RE2_1*%
X187490000Y-92860000D03*
%TD*%
%TO.P,SW_90_2,1*%
%TO.N,RE5_1*%
X288290000Y-92860000D03*
%TO.P,SW_90_2,2*%
%TO.N,Net-(D99-Pad2)*%
X294740000Y-90320000D03*
%TD*%
%TA.AperFunction,SMDPad,CuDef*%
D15*
%TO.P,U1,45*%
%TO.N,GND*%
G36*
X103658400Y-49600000D02*
G01*
X104568800Y-48689600D01*
X105479200Y-49600000D01*
X104568800Y-50510400D01*
X103658400Y-49600000D01*
G37*
%TD.AperFunction*%
%TA.AperFunction,SMDPad,CuDef*%
G36*
X104568800Y-48689600D02*
G01*
X105479200Y-47779200D01*
X106389600Y-48689600D01*
X105479200Y-49600000D01*
X104568800Y-48689600D01*
G37*
%TD.AperFunction*%
%TA.AperFunction,SMDPad,CuDef*%
G36*
X105479200Y-47779200D02*
G01*
X106389600Y-46868800D01*
X107300000Y-47779200D01*
X106389600Y-48689600D01*
X105479200Y-47779200D01*
G37*
%TD.AperFunction*%
%TA.AperFunction,SMDPad,CuDef*%
G36*
X106389600Y-46868800D02*
G01*
X107300000Y-45958400D01*
X108210400Y-46868800D01*
X107300000Y-47779200D01*
X106389600Y-46868800D01*
G37*
%TD.AperFunction*%
%TA.AperFunction,SMDPad,CuDef*%
G36*
X104568800Y-50510400D02*
G01*
X105479200Y-49600000D01*
X106389600Y-50510400D01*
X105479200Y-51420800D01*
X104568800Y-50510400D01*
G37*
%TD.AperFunction*%
%TA.AperFunction,SMDPad,CuDef*%
G36*
X105479200Y-49600000D02*
G01*
X106389600Y-48689600D01*
X107300000Y-49600000D01*
X106389600Y-50510400D01*
X105479200Y-49600000D01*
G37*
%TD.AperFunction*%
%TA.AperFunction,SMDPad,CuDef*%
G36*
X106389600Y-48689600D02*
G01*
X107300000Y-47779200D01*
X108210400Y-48689600D01*
X107300000Y-49600000D01*
X106389600Y-48689600D01*
G37*
%TD.AperFunction*%
%TA.AperFunction,SMDPad,CuDef*%
G36*
X107300000Y-47779200D02*
G01*
X108210400Y-46868800D01*
X109120800Y-47779200D01*
X108210400Y-48689600D01*
X107300000Y-47779200D01*
G37*
%TD.AperFunction*%
%TA.AperFunction,SMDPad,CuDef*%
G36*
X105479200Y-51420800D02*
G01*
X106389600Y-50510400D01*
X107300000Y-51420800D01*
X106389600Y-52331200D01*
X105479200Y-51420800D01*
G37*
%TD.AperFunction*%
%TA.AperFunction,SMDPad,CuDef*%
G36*
X106389600Y-50510400D02*
G01*
X107300000Y-49600000D01*
X108210400Y-50510400D01*
X107300000Y-51420800D01*
X106389600Y-50510400D01*
G37*
%TD.AperFunction*%
%TA.AperFunction,SMDPad,CuDef*%
G36*
X107300000Y-49600000D02*
G01*
X108210400Y-48689600D01*
X109120800Y-49600000D01*
X108210400Y-50510400D01*
X107300000Y-49600000D01*
G37*
%TD.AperFunction*%
%TA.AperFunction,SMDPad,CuDef*%
G36*
X108210400Y-48689600D02*
G01*
X109120800Y-47779200D01*
X110031200Y-48689600D01*
X109120800Y-49600000D01*
X108210400Y-48689600D01*
G37*
%TD.AperFunction*%
%TA.AperFunction,SMDPad,CuDef*%
G36*
X106389600Y-52331200D02*
G01*
X107300000Y-51420800D01*
X108210400Y-52331200D01*
X107300000Y-53241600D01*
X106389600Y-52331200D01*
G37*
%TD.AperFunction*%
%TA.AperFunction,SMDPad,CuDef*%
G36*
X107300000Y-51420800D02*
G01*
X108210400Y-50510400D01*
X109120800Y-51420800D01*
X108210400Y-52331200D01*
X107300000Y-51420800D01*
G37*
%TD.AperFunction*%
%TA.AperFunction,SMDPad,CuDef*%
G36*
X108210400Y-50510400D02*
G01*
X109120800Y-49600000D01*
X110031200Y-50510400D01*
X109120800Y-51420800D01*
X108210400Y-50510400D01*
G37*
%TD.AperFunction*%
%TA.AperFunction,SMDPad,CuDef*%
G36*
X109120800Y-49600000D02*
G01*
X110031200Y-48689600D01*
X110941600Y-49600000D01*
X110031200Y-50510400D01*
X109120800Y-49600000D01*
G37*
%TD.AperFunction*%
%TA.AperFunction,SMDPad,CuDef*%
%TO.P,U1,44*%
%TO.N,+5V*%
G36*
X103287169Y-49900520D02*
G01*
X103463946Y-50077297D01*
X102968971Y-50572272D01*
X102792194Y-50395495D01*
X103287169Y-49900520D01*
G37*
%TD.AperFunction*%
%TA.AperFunction,SMDPad,CuDef*%
%TO.P,U1,43*%
%TO.N,GND*%
G36*
X103640722Y-50254073D02*
G01*
X103817499Y-50430850D01*
X103322524Y-50925825D01*
X103145747Y-50749048D01*
X103640722Y-50254073D01*
G37*
%TD.AperFunction*%
%TA.AperFunction,SMDPad,CuDef*%
%TO.P,U1,42*%
%TO.N,N/C*%
G36*
X103994276Y-50607627D02*
G01*
X104171053Y-50784404D01*
X103676078Y-51279379D01*
X103499301Y-51102602D01*
X103994276Y-50607627D01*
G37*
%TD.AperFunction*%
%TA.AperFunction,SMDPad,CuDef*%
%TO.P,U1,41*%
%TO.N,pin7*%
G36*
X104347829Y-50961180D02*
G01*
X104524606Y-51137957D01*
X104029631Y-51632932D01*
X103852854Y-51456155D01*
X104347829Y-50961180D01*
G37*
%TD.AperFunction*%
%TA.AperFunction,SMDPad,CuDef*%
%TO.P,U1,40*%
%TO.N,pin3*%
G36*
X104701383Y-51314734D02*
G01*
X104878160Y-51491511D01*
X104383185Y-51986486D01*
X104206408Y-51809709D01*
X104701383Y-51314734D01*
G37*
%TD.AperFunction*%
%TA.AperFunction,SMDPad,CuDef*%
%TO.P,U1,39*%
%TO.N,pin8*%
G36*
X105054936Y-51668287D02*
G01*
X105231713Y-51845064D01*
X104736738Y-52340039D01*
X104559961Y-52163262D01*
X105054936Y-51668287D01*
G37*
%TD.AperFunction*%
%TA.AperFunction,SMDPad,CuDef*%
%TO.P,U1,38*%
%TO.N,pin4*%
G36*
X105408489Y-52021840D02*
G01*
X105585266Y-52198617D01*
X105090291Y-52693592D01*
X104913514Y-52516815D01*
X105408489Y-52021840D01*
G37*
%TD.AperFunction*%
%TA.AperFunction,SMDPad,CuDef*%
%TO.P,U1,37*%
%TO.N,pin9*%
G36*
X105762043Y-52375394D02*
G01*
X105938820Y-52552171D01*
X105443845Y-53047146D01*
X105267068Y-52870369D01*
X105762043Y-52375394D01*
G37*
%TD.AperFunction*%
%TA.AperFunction,SMDPad,CuDef*%
%TO.P,U1,36*%
%TO.N,pin5*%
G36*
X106115596Y-52728947D02*
G01*
X106292373Y-52905724D01*
X105797398Y-53400699D01*
X105620621Y-53223922D01*
X106115596Y-52728947D01*
G37*
%TD.AperFunction*%
%TA.AperFunction,SMDPad,CuDef*%
%TO.P,U1,35*%
%TO.N,GND*%
G36*
X106469150Y-53082501D02*
G01*
X106645927Y-53259278D01*
X106150952Y-53754253D01*
X105974175Y-53577476D01*
X106469150Y-53082501D01*
G37*
%TD.AperFunction*%
%TA.AperFunction,SMDPad,CuDef*%
%TO.P,U1,34*%
%TO.N,+5V*%
G36*
X106822703Y-53436054D02*
G01*
X106999480Y-53612831D01*
X106504505Y-54107806D01*
X106327728Y-53931029D01*
X106822703Y-53436054D01*
G37*
%TD.AperFunction*%
%TA.AperFunction,SMDPad,CuDef*%
%TO.P,U1,33*%
%TO.N,Net-(R9-Pad2)*%
G36*
X107600520Y-53612831D02*
G01*
X107777297Y-53436054D01*
X108272272Y-53931029D01*
X108095495Y-54107806D01*
X107600520Y-53612831D01*
G37*
%TD.AperFunction*%
%TA.AperFunction,SMDPad,CuDef*%
%TO.P,U1,32*%
%TO.N,pin10*%
G36*
X107954073Y-53259278D02*
G01*
X108130850Y-53082501D01*
X108625825Y-53577476D01*
X108449048Y-53754253D01*
X107954073Y-53259278D01*
G37*
%TD.AperFunction*%
%TA.AperFunction,SMDPad,CuDef*%
%TO.P,U1,31*%
%TO.N,AUDIO*%
G36*
X108307627Y-52905724D02*
G01*
X108484404Y-52728947D01*
X108979379Y-53223922D01*
X108802602Y-53400699D01*
X108307627Y-52905724D01*
G37*
%TD.AperFunction*%
%TA.AperFunction,SMDPad,CuDef*%
%TO.P,U1,30*%
%TO.N,N/C*%
G36*
X108661180Y-52552171D02*
G01*
X108837957Y-52375394D01*
X109332932Y-52870369D01*
X109156155Y-53047146D01*
X108661180Y-52552171D01*
G37*
%TD.AperFunction*%
%TA.AperFunction,SMDPad,CuDef*%
%TO.P,U1,29*%
%TO.N,RE5_B*%
G36*
X109014734Y-52198617D02*
G01*
X109191511Y-52021840D01*
X109686486Y-52516815D01*
X109509709Y-52693592D01*
X109014734Y-52198617D01*
G37*
%TD.AperFunction*%
%TA.AperFunction,SMDPad,CuDef*%
%TO.P,U1,28*%
%TO.N,RE5_A*%
G36*
X109368287Y-51845064D02*
G01*
X109545064Y-51668287D01*
X110040039Y-52163262D01*
X109863262Y-52340039D01*
X109368287Y-51845064D01*
G37*
%TD.AperFunction*%
%TA.AperFunction,SMDPad,CuDef*%
%TO.P,U1,27*%
%TO.N,RE4_B*%
G36*
X109721840Y-51491511D02*
G01*
X109898617Y-51314734D01*
X110393592Y-51809709D01*
X110216815Y-51986486D01*
X109721840Y-51491511D01*
G37*
%TD.AperFunction*%
%TA.AperFunction,SMDPad,CuDef*%
%TO.P,U1,26*%
%TO.N,RE4_A*%
G36*
X110075394Y-51137957D02*
G01*
X110252171Y-50961180D01*
X110747146Y-51456155D01*
X110570369Y-51632932D01*
X110075394Y-51137957D01*
G37*
%TD.AperFunction*%
%TA.AperFunction,SMDPad,CuDef*%
%TO.P,U1,25*%
%TO.N,RE3_B*%
G36*
X110428947Y-50784404D02*
G01*
X110605724Y-50607627D01*
X111100699Y-51102602D01*
X110923922Y-51279379D01*
X110428947Y-50784404D01*
G37*
%TD.AperFunction*%
%TA.AperFunction,SMDPad,CuDef*%
%TO.P,U1,24*%
%TO.N,+5V*%
G36*
X110782501Y-50430850D02*
G01*
X110959278Y-50254073D01*
X111454253Y-50749048D01*
X111277476Y-50925825D01*
X110782501Y-50430850D01*
G37*
%TD.AperFunction*%
%TA.AperFunction,SMDPad,CuDef*%
%TO.P,U1,23*%
%TO.N,GND*%
G36*
X111136054Y-50077297D02*
G01*
X111312831Y-49900520D01*
X111807806Y-50395495D01*
X111631029Y-50572272D01*
X111136054Y-50077297D01*
G37*
%TD.AperFunction*%
%TA.AperFunction,SMDPad,CuDef*%
%TO.P,U1,22*%
%TO.N,RE3_A*%
G36*
X111631029Y-48627728D02*
G01*
X111807806Y-48804505D01*
X111312831Y-49299480D01*
X111136054Y-49122703D01*
X111631029Y-48627728D01*
G37*
%TD.AperFunction*%
%TA.AperFunction,SMDPad,CuDef*%
%TO.P,U1,21*%
%TO.N,RE2_B*%
G36*
X111277476Y-48274175D02*
G01*
X111454253Y-48450952D01*
X110959278Y-48945927D01*
X110782501Y-48769150D01*
X111277476Y-48274175D01*
G37*
%TD.AperFunction*%
%TA.AperFunction,SMDPad,CuDef*%
%TO.P,U1,20*%
%TO.N,RE2_A*%
G36*
X110923922Y-47920621D02*
G01*
X111100699Y-48097398D01*
X110605724Y-48592373D01*
X110428947Y-48415596D01*
X110923922Y-47920621D01*
G37*
%TD.AperFunction*%
%TA.AperFunction,SMDPad,CuDef*%
%TO.P,U1,19*%
%TO.N,SDA*%
G36*
X110570369Y-47567068D02*
G01*
X110747146Y-47743845D01*
X110252171Y-48238820D01*
X110075394Y-48062043D01*
X110570369Y-47567068D01*
G37*
%TD.AperFunction*%
%TA.AperFunction,SMDPad,CuDef*%
%TO.P,U1,18*%
%TO.N,SCL*%
G36*
X110216815Y-47213514D02*
G01*
X110393592Y-47390291D01*
X109898617Y-47885266D01*
X109721840Y-47708489D01*
X110216815Y-47213514D01*
G37*
%TD.AperFunction*%
%TA.AperFunction,SMDPad,CuDef*%
%TO.P,U1,17*%
%TO.N,Net-(C2-Pad1)*%
G36*
X109863262Y-46859961D02*
G01*
X110040039Y-47036738D01*
X109545064Y-47531713D01*
X109368287Y-47354936D01*
X109863262Y-46859961D01*
G37*
%TD.AperFunction*%
%TA.AperFunction,SMDPad,CuDef*%
%TO.P,U1,16*%
%TO.N,Net-(C3-Pad1)*%
G36*
X109509709Y-46506408D02*
G01*
X109686486Y-46683185D01*
X109191511Y-47178160D01*
X109014734Y-47001383D01*
X109509709Y-46506408D01*
G37*
%TD.AperFunction*%
%TA.AperFunction,SMDPad,CuDef*%
%TO.P,U1,15*%
%TO.N,GND*%
G36*
X109156155Y-46152854D02*
G01*
X109332932Y-46329631D01*
X108837957Y-46824606D01*
X108661180Y-46647829D01*
X109156155Y-46152854D01*
G37*
%TD.AperFunction*%
%TA.AperFunction,SMDPad,CuDef*%
%TO.P,U1,14*%
%TO.N,+5V*%
G36*
X108802602Y-45799301D02*
G01*
X108979379Y-45976078D01*
X108484404Y-46471053D01*
X108307627Y-46294276D01*
X108802602Y-45799301D01*
G37*
%TD.AperFunction*%
%TA.AperFunction,SMDPad,CuDef*%
%TO.P,U1,13*%
%TO.N,RESET*%
G36*
X108449048Y-45445747D02*
G01*
X108625825Y-45622524D01*
X108130850Y-46117499D01*
X107954073Y-45940722D01*
X108449048Y-45445747D01*
G37*
%TD.AperFunction*%
%TA.AperFunction,SMDPad,CuDef*%
%TO.P,U1,12*%
%TO.N,LED*%
G36*
X108095495Y-45092194D02*
G01*
X108272272Y-45268971D01*
X107777297Y-45763946D01*
X107600520Y-45587169D01*
X108095495Y-45092194D01*
G37*
%TD.AperFunction*%
%TA.AperFunction,SMDPad,CuDef*%
%TO.P,U1,11*%
%TO.N,pin1*%
G36*
X106327728Y-45268971D02*
G01*
X106504505Y-45092194D01*
X106999480Y-45587169D01*
X106822703Y-45763946D01*
X106327728Y-45268971D01*
G37*
%TD.AperFunction*%
%TA.AperFunction,SMDPad,CuDef*%
%TO.P,U1,10*%
%TO.N,pin6*%
G36*
X105974175Y-45622524D02*
G01*
X106150952Y-45445747D01*
X106645927Y-45940722D01*
X106469150Y-46117499D01*
X105974175Y-45622524D01*
G37*
%TD.AperFunction*%
%TA.AperFunction,SMDPad,CuDef*%
%TO.P,U1,9*%
%TO.N,RE1_B*%
G36*
X105620621Y-45976078D02*
G01*
X105797398Y-45799301D01*
X106292373Y-46294276D01*
X106115596Y-46471053D01*
X105620621Y-45976078D01*
G37*
%TD.AperFunction*%
%TA.AperFunction,SMDPad,CuDef*%
%TO.P,U1,8*%
%TO.N,RE1_A*%
G36*
X105267068Y-46329631D02*
G01*
X105443845Y-46152854D01*
X105938820Y-46647829D01*
X105762043Y-46824606D01*
X105267068Y-46329631D01*
G37*
%TD.AperFunction*%
%TA.AperFunction,SMDPad,CuDef*%
%TO.P,U1,7*%
%TO.N,+5V*%
G36*
X104913514Y-46683185D02*
G01*
X105090291Y-46506408D01*
X105585266Y-47001383D01*
X105408489Y-47178160D01*
X104913514Y-46683185D01*
G37*
%TD.AperFunction*%
%TA.AperFunction,SMDPad,CuDef*%
%TO.P,U1,6*%
%TO.N,Net-(C6-Pad1)*%
G36*
X104559961Y-47036738D02*
G01*
X104736738Y-46859961D01*
X105231713Y-47354936D01*
X105054936Y-47531713D01*
X104559961Y-47036738D01*
G37*
%TD.AperFunction*%
%TA.AperFunction,SMDPad,CuDef*%
%TO.P,U1,5*%
%TO.N,GND*%
G36*
X104206408Y-47390291D02*
G01*
X104383185Y-47213514D01*
X104878160Y-47708489D01*
X104701383Y-47885266D01*
X104206408Y-47390291D01*
G37*
%TD.AperFunction*%
%TA.AperFunction,SMDPad,CuDef*%
%TO.P,U1,4*%
%TO.N,D+*%
G36*
X103852854Y-47743845D02*
G01*
X104029631Y-47567068D01*
X104524606Y-48062043D01*
X104347829Y-48238820D01*
X103852854Y-47743845D01*
G37*
%TD.AperFunction*%
%TA.AperFunction,SMDPad,CuDef*%
%TO.P,U1,3*%
%TO.N,D-*%
G36*
X103499301Y-48097398D02*
G01*
X103676078Y-47920621D01*
X104171053Y-48415596D01*
X103994276Y-48592373D01*
X103499301Y-48097398D01*
G37*
%TD.AperFunction*%
%TA.AperFunction,SMDPad,CuDef*%
%TO.P,U1,2*%
%TO.N,+5V*%
G36*
X103145747Y-48450952D02*
G01*
X103322524Y-48274175D01*
X103817499Y-48769150D01*
X103640722Y-48945927D01*
X103145747Y-48450952D01*
G37*
%TD.AperFunction*%
%TA.AperFunction,SMDPad,CuDef*%
%TO.P,U1,1*%
%TO.N,pin2*%
G36*
X102792194Y-48804505D02*
G01*
X102968971Y-48627728D01*
X103463946Y-49122703D01*
X103287169Y-49299480D01*
X102792194Y-48804505D01*
G37*
%TD.AperFunction*%
%TD*%
D29*
%TO.N,GND*%
X31599983Y-27699991D03*
X46325000Y-17900000D03*
X68825000Y-17900000D03*
X96750000Y-17900000D03*
X130350000Y-17900000D03*
X163925000Y-17900000D03*
X197550000Y-17900000D03*
X231125000Y-17900000D03*
X285506284Y-31129050D03*
X287300000Y-73900000D03*
X97540501Y-40459511D03*
X76850000Y-17900000D03*
X260450002Y-17900000D03*
%TO.N,+5V*%
X121900000Y-50650000D03*
X106600000Y-58000000D03*
X108000000Y-59400000D03*
X122600000Y-76500000D03*
X77800000Y-62300000D03*
X75700000Y-60200000D03*
X119700038Y-63700000D03*
X112300010Y-63700002D03*
X137119490Y-50869490D03*
X266500000Y-26425000D03*
X70590501Y-27290501D03*
X78584499Y-27290501D03*
X48065501Y-27290501D03*
X165675000Y-26225000D03*
X199275000Y-26225000D03*
X232875000Y-26275000D03*
X98367657Y-26267653D03*
X133650000Y-24675000D03*
X121750000Y-53490000D03*
X107430000Y-43040000D03*
X103144446Y-43250004D03*
X96790023Y-48554012D03*
X98000000Y-47500000D03*
X111743938Y-51170843D03*
%TO.N,Net-(D1-Pad1)*%
X18900000Y-30200000D03*
X44067010Y-84632990D03*
%TO.N,pin1*%
X105700000Y-26600000D03*
X132675000Y-26600000D03*
X104825000Y-39900000D03*
%TO.N,Net-(D2-Pad1)*%
X20700000Y-27600000D03*
%TO.N,pin6*%
X131900000Y-27549996D03*
X104818987Y-28118987D03*
X104027643Y-39697614D03*
%TO.N,pin7*%
X85772999Y-50327001D03*
X130500000Y-49400000D03*
X130000000Y-61300000D03*
X86850000Y-63550000D03*
X85432999Y-56717001D03*
%TO.N,pin8*%
X98627001Y-66727001D03*
X101800006Y-60450000D03*
%TO.N,pin9*%
X105150000Y-83200000D03*
X103100000Y-59500000D03*
%TO.N,pin10*%
X120000000Y-98600000D03*
X108819917Y-57450000D03*
%TO.N,pin2*%
X83300000Y-47600000D03*
X84700004Y-63300000D03*
X126200000Y-50178980D03*
X122800001Y-62200001D03*
%TO.N,Net-(D11-Pad2)*%
X36800000Y-65800000D03*
%TO.N,pin3*%
X99200000Y-64700000D03*
X101149994Y-59750000D03*
%TO.N,pin4*%
X100242990Y-81192990D03*
X102427010Y-58977010D03*
%TO.N,pin5*%
X108907010Y-97592990D03*
X103800000Y-58950000D03*
%TO.N,Net-(D25-Pad1)*%
X87167001Y-51867001D03*
X92160000Y-63990000D03*
%TO.N,Net-(D27-Pad2)*%
X89950000Y-49400000D03*
%TO.N,Net-(D32-Pad2)*%
X125899997Y-49399997D03*
%TO.N,Net-(D36-Pad1)*%
X121100000Y-79400000D03*
%TO.N,Net-(D47-Pad1)*%
X154450000Y-94549992D03*
%TO.N,Net-(D70-Pad2)*%
X188600000Y-102500000D03*
X191400005Y-99597990D03*
%TO.N,RE1_1*%
X83700000Y-68600006D03*
X82300000Y-51200000D03*
X61000000Y-46599996D03*
X38050000Y-51000000D03*
%TO.N,VCC*%
X40300000Y-19400000D03*
X34999998Y-29050000D03*
%TO.N,LED*%
X70050000Y-28000000D03*
X99925000Y-27550000D03*
X105650000Y-41175000D03*
%TO.N,Net-(JP_LED2-Pad1)*%
X45675000Y-23125000D03*
%TO.N,Net-(JP_LED2-Pad2)*%
X79050000Y-23100000D03*
%TO.N,Net-(JP_LED2-Pad3)*%
X293100000Y-77000000D03*
X84925000Y-24400000D03*
X267625000Y-21350000D03*
X88475000Y-20800000D03*
%TO.N,D-*%
X40700000Y-26100000D03*
X54300000Y-42272037D03*
%TO.N,D+*%
X40550000Y-28550000D03*
X52700000Y-41600000D03*
%TO.N,RE1_A*%
X99600000Y-37800000D03*
X99025000Y-27997990D03*
%TO.N,RE1_B*%
X100400000Y-37725000D03*
X99900000Y-28650000D03*
X128775000Y-25390510D03*
%TO.N,RE3_B*%
X186800004Y-57200000D03*
%TO.N,RE3_A*%
X187100000Y-56400000D03*
X112096344Y-49789832D03*
X112370948Y-52679591D03*
%TO.N,RE4_B*%
X233200001Y-39600001D03*
X186800000Y-59200000D03*
X205900000Y-41000000D03*
%TO.N,RE4_A*%
X232235565Y-39554415D03*
X187106637Y-58006635D03*
X204896920Y-40381521D03*
%TO.N,RE5_A*%
X218700000Y-60025339D03*
X232700002Y-41700000D03*
X263500002Y-39800000D03*
%TO.N,RE5_B*%
X219500000Y-60300000D03*
X233582208Y-41704521D03*
X264400000Y-39800000D03*
%TO.N,RE2_1*%
X185300000Y-30200000D03*
%TO.N,RE3_1*%
X215100000Y-46700000D03*
%TO.N,RE4_1*%
X260900000Y-63000000D03*
X233100000Y-67600000D03*
%TO.N,RE5_1*%
X282900000Y-85000000D03*
X277025942Y-51874058D03*
X278300000Y-68500000D03*
%TO.N,Net-(D94-Pad1)*%
X281547001Y-68252999D03*
X289500000Y-94200000D03*
%TO.N,SCL*%
X130850000Y-51650000D03*
X120000000Y-54200000D03*
X112400004Y-47300000D03*
%TO.N,SDA*%
X119192412Y-54500000D03*
X131825001Y-51624999D03*
X111383872Y-47219697D03*
%TO.N,RE2_A*%
X162600000Y-56800000D03*
X118700000Y-56800006D03*
X113340831Y-49148706D03*
%TO.N,RE2_B*%
X163500000Y-56800000D03*
X117825000Y-57400000D03*
X112997952Y-50320957D03*
%TO.N,AUDIO*%
X77307304Y-63142696D03*
X73807324Y-59509490D03*
X38399999Y-59500001D03*
X29500000Y-30400000D03*
%TO.N,RESET*%
X100250000Y-59750000D03*
X107650000Y-34275000D03*
X106539510Y-43200000D03*
X106524998Y-40675000D03*
%TO.N,Net-(JP_LED1-Pad3)*%
X133275000Y-21350000D03*
%TO.N,Net-(JP_LED1-Pad2)*%
X48899999Y-19350001D03*
%TO.N,Net-(JP_LED1-Pad1)*%
X96736735Y-23413265D03*
%TD*%
D30*
%TO.N,GND*%
X38000000Y-67050000D02*
X44200000Y-67050000D01*
X24000000Y-18900000D02*
X24000000Y-21200000D01*
X105366377Y-59105195D02*
X103885786Y-60585786D01*
X105366377Y-59066377D02*
X105366377Y-59105195D01*
X99066377Y-42133623D02*
X100566377Y-43633623D01*
X99066377Y-42133623D02*
X99033623Y-42133623D01*
X32800000Y-27700000D02*
X31599992Y-27700000D01*
X31599992Y-27700000D02*
X31599983Y-27699991D01*
X24000000Y-21200000D02*
X24000000Y-22700000D01*
X23350000Y-23350000D02*
X23350000Y-25200000D01*
X24000000Y-22700000D02*
X23350000Y-23350000D01*
X38660000Y-17965000D02*
X38725000Y-17900000D01*
X37725000Y-17965000D02*
X38660000Y-17965000D01*
X38725000Y-17900000D02*
X46325000Y-17900000D01*
X46325000Y-17900000D02*
X68825000Y-17900000D01*
X96750000Y-17900000D02*
X130350000Y-17900000D01*
X130350000Y-17900000D02*
X163925000Y-17900000D01*
X163925000Y-17900000D02*
X197550000Y-17900000D01*
X197550000Y-17900000D02*
X231125000Y-17900000D01*
X291450000Y-74470000D02*
X287870000Y-74470000D01*
X287870000Y-74470000D02*
X287300000Y-73900000D01*
X97540501Y-40607747D02*
X97540501Y-40459511D01*
X99066377Y-42133623D02*
X97540501Y-40607747D01*
X68825000Y-17900000D02*
X76850000Y-17900000D01*
X231125000Y-17900000D02*
X260450002Y-17900000D01*
X49075000Y-67050000D02*
X44200000Y-67050000D01*
X103121572Y-61350000D02*
X70306870Y-61350000D01*
X52257489Y-63867511D02*
X49075000Y-67050000D01*
X67789360Y-63867511D02*
X52257489Y-63867511D01*
X70306870Y-61350000D02*
X67789360Y-63867511D01*
X103885786Y-60585786D02*
X103121572Y-61350000D01*
X76850000Y-17900000D02*
X96750000Y-17900000D01*
D31*
X104542284Y-47549390D02*
X104132894Y-47140000D01*
D30*
X100655494Y-43633623D02*
X104140000Y-47118129D01*
X100566377Y-43633623D02*
X100655494Y-43633623D01*
D31*
X103481623Y-50589949D02*
X103100000Y-50971572D01*
D30*
X101399516Y-50975000D02*
X103125000Y-50975000D01*
X100549516Y-51825000D02*
X101399516Y-50975000D01*
X96987500Y-51825000D02*
X100549516Y-51825000D01*
X96800000Y-51637500D02*
X96987500Y-51825000D01*
D31*
X104471572Y-49600000D02*
X104568800Y-49600000D01*
X103481623Y-50589949D02*
X104471572Y-49600000D01*
X107300000Y-52428428D02*
X107300000Y-52331200D01*
X106310051Y-53418377D02*
X107300000Y-52428428D01*
X110835534Y-49600000D02*
X111471930Y-50236396D01*
X110031200Y-49600000D02*
X110835534Y-49600000D01*
X108210400Y-47275386D02*
X108210400Y-47779200D01*
X108997056Y-46488730D02*
X108210400Y-47275386D01*
X106310051Y-53419949D02*
X105940000Y-53790000D01*
X106310051Y-53418377D02*
X106310051Y-53419949D01*
X109021270Y-46488730D02*
X109370000Y-46140000D01*
X108997056Y-46488730D02*
X109021270Y-46488730D01*
X105479200Y-48486306D02*
X105479200Y-48689600D01*
X104542284Y-47549390D02*
X105479200Y-48486306D01*
D30*
X105366377Y-54363623D02*
X105940000Y-53790000D01*
X105366377Y-59066377D02*
X105366377Y-54363623D01*
X285506284Y-30171505D02*
X285506284Y-31129050D01*
X282944278Y-27609499D02*
X285506284Y-30171505D01*
X271890501Y-27609499D02*
X282944278Y-27609499D01*
X268000000Y-31500000D02*
X271890501Y-27609499D01*
X267800000Y-31500000D02*
X268000000Y-31500000D01*
X24000000Y-18200000D02*
X24000000Y-18900000D01*
X24390510Y-17809490D02*
X24000000Y-18200000D01*
X28919490Y-17809490D02*
X24390510Y-17809490D01*
X29075000Y-17965000D02*
X28919490Y-17809490D01*
X109370000Y-46094584D02*
X109370000Y-46140000D01*
X109701010Y-45763574D02*
X109370000Y-46094584D01*
X109701010Y-41848990D02*
X109701010Y-45763574D01*
X111300000Y-40250000D02*
X109701010Y-41848990D01*
X112900000Y-40250000D02*
X111300000Y-40250000D01*
X116926346Y-43450000D02*
X117138478Y-43662132D01*
X113673654Y-43450000D02*
X116926346Y-43450000D01*
X113461522Y-43237868D02*
X113673654Y-43450000D01*
X112128248Y-50480333D02*
X113076904Y-51428989D01*
X113076904Y-51428989D02*
X117278198Y-51428989D01*
X117278198Y-51428989D02*
X118366708Y-52517500D01*
X111755333Y-50480333D02*
X112128248Y-50480333D01*
X118366708Y-52517500D02*
X120490000Y-52517500D01*
X111525000Y-50250000D02*
X111755333Y-50480333D01*
%TO.N,+5V*%
X120512500Y-50650000D02*
X120500000Y-50637500D01*
X121900000Y-50650000D02*
X120512500Y-50650000D01*
X106866377Y-60533623D02*
X108000000Y-59400000D01*
X106833623Y-60533623D02*
X106866377Y-60533623D01*
X125650000Y-79550000D02*
X122600000Y-76500000D01*
X291450000Y-79550000D02*
X125650000Y-79550000D01*
X33100000Y-62300000D02*
X33100000Y-63300000D01*
X35200000Y-60200000D02*
X33100000Y-62300000D01*
X75700000Y-60200000D02*
X35200000Y-60200000D01*
X119700038Y-63700000D02*
X112300012Y-63700000D01*
X112300012Y-63700000D02*
X112300010Y-63700002D01*
X122119490Y-50869490D02*
X137119490Y-50869490D01*
X121900000Y-50650000D02*
X122119490Y-50869490D01*
X70590501Y-27290501D02*
X78584499Y-27290501D01*
X42050000Y-22337500D02*
X47003001Y-27290501D01*
X47003001Y-27290501D02*
X48065501Y-27290501D01*
X104963978Y-63206196D02*
X103688791Y-61931009D01*
X103688791Y-61931009D02*
X78168991Y-61931009D01*
X106833623Y-60533623D02*
X106833623Y-61867171D01*
X106833623Y-61867171D02*
X105494598Y-63206196D01*
X78168991Y-61931009D02*
X77800000Y-62300000D01*
X105494598Y-63206196D02*
X104963978Y-63206196D01*
X65900000Y-27300000D02*
X70581002Y-27300000D01*
X65128479Y-26528479D02*
X65900000Y-27300000D01*
X62697583Y-26528479D02*
X65128479Y-26528479D01*
X70581002Y-27300000D02*
X70590501Y-27290501D01*
X61935561Y-27290501D02*
X62697583Y-26528479D01*
X48065501Y-27290501D02*
X61935561Y-27290501D01*
D31*
X104800000Y-46392894D02*
X104800000Y-46200000D01*
X105249390Y-46842284D02*
X104800000Y-46392894D01*
D30*
X102250000Y-42382754D02*
X102033623Y-42166377D01*
D31*
X103481623Y-48610051D02*
X103121572Y-48250000D01*
X103121572Y-48250000D02*
X102975000Y-48250000D01*
D30*
X98218989Y-51243989D02*
X96800000Y-49825000D01*
X100006011Y-51243989D02*
X98218989Y-51243989D01*
X96800000Y-49825000D02*
X96800000Y-49562500D01*
X101025000Y-50225000D02*
X100006011Y-51243989D01*
X103075000Y-50225000D02*
X101025000Y-50225000D01*
X106600000Y-53870000D02*
X106600000Y-58000000D01*
X106650000Y-53820000D02*
X106600000Y-53870000D01*
D31*
X108643503Y-46080761D02*
X109120000Y-45604264D01*
X108643503Y-46135177D02*
X108643503Y-46080761D01*
D30*
X103144446Y-44624446D02*
X103144446Y-43250004D01*
X103117250Y-43250004D02*
X103144446Y-43250004D01*
X104710000Y-46190000D02*
X103144446Y-44624446D01*
X102033623Y-42166377D02*
X103117250Y-43250004D01*
X109120000Y-44730000D02*
X109120000Y-45522912D01*
X107430000Y-43040000D02*
X109120000Y-44730000D01*
X97500004Y-25400000D02*
X98367657Y-26267653D01*
X86100000Y-25400000D02*
X97500004Y-25400000D01*
X84209499Y-27290501D02*
X86100000Y-25400000D01*
X78584499Y-27290501D02*
X84209499Y-27290501D01*
X98367657Y-26267653D02*
X101264218Y-26267653D01*
X101264218Y-26267653D02*
X102856871Y-24675000D01*
X102856871Y-24675000D02*
X133650000Y-24675000D01*
X150675000Y-26225000D02*
X149125000Y-24675000D01*
X149125000Y-24675000D02*
X133650000Y-24675000D01*
X165675000Y-26225000D02*
X150675000Y-26225000D01*
X96800000Y-48563989D02*
X96790023Y-48554012D01*
X96800000Y-49562500D02*
X96800000Y-48563989D01*
X98424264Y-47500000D02*
X98000000Y-47500000D01*
X102300000Y-47500000D02*
X98424264Y-47500000D01*
X103025000Y-48225000D02*
X102300000Y-47500000D01*
X212300000Y-26275000D02*
X232875000Y-26275000D01*
X211275000Y-27300000D02*
X212300000Y-26275000D01*
X204234538Y-26225000D02*
X205309538Y-27300000D01*
X205309538Y-27300000D02*
X211275000Y-27300000D01*
X199275000Y-26225000D02*
X204234538Y-26225000D01*
X177675000Y-26225000D02*
X199275000Y-26225000D01*
X171975000Y-27400000D02*
X176500000Y-27400000D01*
X170800000Y-26225000D02*
X171975000Y-27400000D01*
X176500000Y-27400000D02*
X177675000Y-26225000D01*
X165675000Y-26225000D02*
X170800000Y-26225000D01*
X244900000Y-27300000D02*
X245775000Y-26425000D01*
X238343998Y-27300000D02*
X244900000Y-27300000D01*
X237318998Y-26275000D02*
X238343998Y-27300000D01*
X245775000Y-26425000D02*
X266500000Y-26425000D01*
X232875000Y-26275000D02*
X237318998Y-26275000D01*
X121744490Y-53495510D02*
X118523046Y-53495510D01*
X112583095Y-52010000D02*
X111743938Y-51170843D01*
D31*
X111699271Y-51170843D02*
X111743938Y-51170843D01*
X111118377Y-50589949D02*
X111699271Y-51170843D01*
D30*
X121750000Y-53490000D02*
X121744490Y-53495510D01*
X117037536Y-52010000D02*
X112583095Y-52010000D01*
X118523046Y-53495510D02*
X117037536Y-52010000D01*
D31*
%TO.N,Net-(C2-Pad1)*%
X115771232Y-45288478D02*
X115512132Y-45288478D01*
X117416377Y-46933623D02*
X115771232Y-45288478D01*
X111611522Y-45288478D02*
X109704163Y-47195837D01*
X115512132Y-45288478D02*
X111611522Y-45288478D01*
%TO.N,Net-(C3-Pad1)*%
X115008346Y-41532000D02*
X115087868Y-41611522D01*
X111618000Y-41532000D02*
X115008346Y-41532000D01*
X111466377Y-41683623D02*
X111618000Y-41532000D01*
X109350610Y-46842284D02*
X109415648Y-46842284D01*
X109415648Y-46842284D02*
X111466377Y-44791555D01*
X111466377Y-44791555D02*
X111466377Y-41683623D01*
%TO.N,Net-(C6-Pad1)*%
X104895837Y-47130797D02*
X104895837Y-47195837D01*
X102600000Y-44834960D02*
X104895837Y-47130797D01*
X100533623Y-42083623D02*
X102600000Y-44150000D01*
X102600000Y-44150000D02*
X102600000Y-44834960D01*
X100533623Y-40666377D02*
X100533623Y-42083623D01*
%TO.N,Net-(D1-Pad1)*%
X19490000Y-101060000D02*
X36290000Y-101060000D01*
X19490000Y-84660000D02*
X36290000Y-84660000D01*
X43910000Y-73340000D02*
X52310000Y-73340000D01*
X19490000Y-68260000D02*
X23690000Y-68260000D01*
X19490000Y-51860000D02*
X44690000Y-51860000D01*
X18900000Y-30200000D02*
X20050000Y-30200000D01*
X44040000Y-84660000D02*
X44067010Y-84632990D01*
X36290000Y-84660000D02*
X44040000Y-84660000D01*
X35060000Y-68260000D02*
X23690000Y-68260000D01*
X37100000Y-71229162D02*
X37100000Y-70300000D01*
X39210838Y-73340000D02*
X37100000Y-71229162D01*
X37100000Y-70300000D02*
X35060000Y-68260000D01*
X43910000Y-73340000D02*
X39210838Y-73340000D01*
%TO.N,pin1*%
X105700000Y-26600000D02*
X104050000Y-26600000D01*
X132675000Y-26600000D02*
X137450000Y-26600000D01*
X25700000Y-30200000D02*
X23350000Y-30200000D01*
X42051115Y-34591979D02*
X39391979Y-34591979D01*
X50398000Y-35327000D02*
X42786136Y-35327000D01*
X51075000Y-33136398D02*
X51075000Y-34650000D01*
X28325000Y-32825000D02*
X25700000Y-30200000D01*
X51075000Y-34650000D02*
X50398000Y-35327000D01*
X62650927Y-32170989D02*
X60225927Y-34595989D01*
X42786136Y-35327000D02*
X42051115Y-34591979D01*
X51584388Y-32627010D02*
X51075000Y-33136398D01*
X54907387Y-34595989D02*
X52938408Y-32627010D01*
X69275000Y-33000000D02*
X68445989Y-32170989D01*
X70250000Y-33000000D02*
X69275000Y-33000000D01*
X60225927Y-34595989D02*
X54907387Y-34595989D01*
X39391979Y-34591979D02*
X37625000Y-32825000D01*
X52938408Y-32627010D02*
X51584388Y-32627010D01*
X37625000Y-32825000D02*
X28325000Y-32825000D01*
X68445989Y-32170989D02*
X62650927Y-32170989D01*
X169000000Y-33400000D02*
X169950000Y-33400000D01*
X168600000Y-33800000D02*
X169000000Y-33400000D01*
X168600000Y-34363962D02*
X168600000Y-33800000D01*
X167636961Y-35327001D02*
X168600000Y-34363962D01*
X166265027Y-35228989D02*
X166363039Y-35327001D01*
X166363039Y-35327001D02*
X167636961Y-35327001D01*
X148404388Y-25492990D02*
X158140386Y-35228988D01*
X140007010Y-25492990D02*
X148404388Y-25492990D01*
X158140386Y-35228988D02*
X166265027Y-35228989D01*
X138900000Y-26600000D02*
X140007010Y-25492990D01*
X137450000Y-26600000D02*
X138900000Y-26600000D01*
X255810058Y-31992990D02*
X258459046Y-34641978D01*
X258459046Y-34641978D02*
X259991978Y-34641978D01*
X247972874Y-31992990D02*
X255810058Y-31992990D01*
X245638863Y-34327001D02*
X247972874Y-31992990D01*
X260700000Y-35350000D02*
X261500000Y-35350000D01*
X259991978Y-34641978D02*
X260700000Y-35350000D01*
X239838399Y-34327001D02*
X245638863Y-34327001D01*
X238911398Y-33400000D02*
X239838399Y-34327001D01*
X237250000Y-33400000D02*
X238911398Y-33400000D01*
X235800000Y-33850000D02*
X236250000Y-33400000D01*
X233563039Y-35327001D02*
X234836961Y-35327001D01*
X235800000Y-34363962D02*
X235800000Y-33850000D01*
X234836961Y-35327001D02*
X235800000Y-34363962D01*
X230229028Y-31992990D02*
X233563039Y-35327001D01*
X236250000Y-33400000D02*
X237250000Y-33400000D01*
X206211398Y-34400000D02*
X211757932Y-34400000D01*
X205211398Y-33400000D02*
X206211398Y-34400000D01*
X203550000Y-33400000D02*
X205211398Y-33400000D01*
X214164942Y-31992990D02*
X230229028Y-31992990D01*
X211757932Y-34400000D02*
X214164942Y-31992990D01*
X128630990Y-26600000D02*
X132675000Y-26600000D01*
X127703989Y-27527001D02*
X128630990Y-26600000D01*
X123238399Y-27527001D02*
X127703989Y-27527001D01*
X121361601Y-25672999D02*
X121363602Y-25675000D01*
X119938399Y-25672999D02*
X121361601Y-25672999D01*
X121386398Y-25675000D02*
X123238399Y-27527001D01*
X117722999Y-27527001D02*
X119575000Y-25675000D01*
X119575000Y-25675000D02*
X119936398Y-25675000D01*
X119936398Y-25675000D02*
X119938399Y-25672999D01*
X121363602Y-25675000D02*
X121386398Y-25675000D01*
X106627001Y-27527001D02*
X117722999Y-27527001D01*
X105700000Y-26600000D02*
X106627001Y-27527001D01*
X72607010Y-31992990D02*
X71600000Y-33000000D01*
X80885058Y-31992990D02*
X72607010Y-31992990D01*
X71600000Y-33000000D02*
X70250000Y-33000000D01*
X104050000Y-26600000D02*
X102942947Y-26600000D01*
X88384933Y-33927001D02*
X82819069Y-33927001D01*
X82819069Y-33927001D02*
X80885058Y-31992990D01*
X88728943Y-34271011D02*
X88384933Y-33927001D01*
X95271936Y-34271011D02*
X88728943Y-34271011D01*
X102942947Y-26600000D02*
X95271936Y-34271011D01*
X202500000Y-33400000D02*
X203550000Y-33400000D01*
X202200000Y-33700000D02*
X202500000Y-33400000D01*
X202200000Y-34600000D02*
X202200000Y-33700000D01*
X201472999Y-35327001D02*
X202200000Y-34600000D01*
X191972999Y-27672999D02*
X199627001Y-35327001D01*
X170562038Y-33400000D02*
X173962038Y-30000000D01*
X178427001Y-27672999D02*
X191972999Y-27672999D01*
X176100000Y-30000000D02*
X178427001Y-27672999D01*
X199627001Y-35327001D02*
X201472999Y-35327001D01*
X173962038Y-30000000D02*
X176100000Y-30000000D01*
X169950000Y-33400000D02*
X170562038Y-33400000D01*
X105133489Y-43933489D02*
X105133489Y-41611453D01*
X104825000Y-41302964D02*
X104825000Y-39900000D01*
X105133489Y-41611453D02*
X104825000Y-41302964D01*
X106600000Y-45400000D02*
X105133489Y-43933489D01*
%TO.N,Net-(D2-Pad1)*%
X20050000Y-26950000D02*
X20700000Y-27600000D01*
X20050000Y-25200000D02*
X20050000Y-26950000D01*
X21900000Y-28800000D02*
X20700000Y-27600000D01*
X27500000Y-28800000D02*
X21900000Y-28800000D01*
%TO.N,pin6*%
X189700000Y-30600000D02*
X189700000Y-32400000D01*
X189700000Y-32400000D02*
X189100000Y-33000000D01*
X190100000Y-30200000D02*
X189700000Y-30600000D01*
X191150000Y-30200000D02*
X190100000Y-30200000D01*
X189100000Y-33000000D02*
X187850000Y-33000000D01*
X77447999Y-33927001D02*
X77450000Y-33925000D01*
X78375000Y-33000000D02*
X77447999Y-33927001D01*
X80275000Y-33000000D02*
X78375000Y-33000000D01*
X131468985Y-27981011D02*
X131900000Y-27549996D01*
X123031011Y-27981011D02*
X131468985Y-27981011D01*
X121650000Y-26600000D02*
X123031011Y-27981011D01*
X120650000Y-26600000D02*
X121650000Y-26600000D01*
X54650000Y-35050000D02*
X60413984Y-35050000D01*
X69538399Y-33927001D02*
X77447999Y-33927001D01*
X53200000Y-33600000D02*
X54650000Y-35050000D01*
X52250000Y-33600000D02*
X53200000Y-33600000D01*
X62838984Y-32625000D02*
X68236398Y-32625000D01*
X68236398Y-32625000D02*
X69538399Y-33927001D01*
X60413984Y-35050000D02*
X62838984Y-32625000D01*
X88196876Y-34381012D02*
X82631012Y-34381012D01*
X82631012Y-34381012D02*
X81250000Y-33000000D01*
X88540886Y-34725022D02*
X88196876Y-34381012D01*
X102152025Y-28032990D02*
X95459993Y-34725022D01*
X119475000Y-26600000D02*
X118042010Y-28032990D01*
X118042010Y-28032990D02*
X102152025Y-28032990D01*
X81250000Y-33000000D02*
X80275000Y-33000000D01*
X120650000Y-26600000D02*
X119475000Y-26600000D01*
X95459993Y-34725022D02*
X88540886Y-34725022D01*
X180477001Y-32672999D02*
X182372999Y-32672999D01*
X178822999Y-34327001D02*
X180477001Y-32672999D01*
X182372999Y-32672999D02*
X182700000Y-33000000D01*
X169279029Y-34327001D02*
X178822999Y-34327001D01*
X167825019Y-35781011D02*
X169279029Y-34327001D01*
X166076969Y-35682999D02*
X166174982Y-35781012D01*
X155200000Y-33000000D02*
X157882999Y-35682999D01*
X166174982Y-35781012D02*
X167825019Y-35781011D01*
X182700000Y-33000000D02*
X187850000Y-33000000D01*
X157882999Y-35682999D02*
X166076969Y-35682999D01*
X154250000Y-33000000D02*
X155200000Y-33000000D01*
X193857932Y-30200000D02*
X191150000Y-30200000D01*
X199438944Y-35781012D02*
X193857932Y-30200000D01*
X203059078Y-34532990D02*
X201811056Y-35781012D01*
X205490922Y-34532990D02*
X203059078Y-34532990D01*
X211945989Y-34854011D02*
X205811943Y-34854011D01*
X214127001Y-32672999D02*
X211945989Y-34854011D01*
X215922999Y-32672999D02*
X214127001Y-32672999D01*
X205811943Y-34854011D02*
X205490922Y-34532990D01*
X216250000Y-33000000D02*
X215922999Y-32672999D01*
X201811056Y-35781012D02*
X199438944Y-35781012D01*
X221450000Y-33000000D02*
X216250000Y-33000000D01*
X236306030Y-34500000D02*
X235025018Y-35781012D01*
X231593970Y-34000000D02*
X223600000Y-34000000D01*
X223600000Y-34000000D02*
X222600000Y-33000000D01*
X233374981Y-35781011D02*
X231593970Y-34000000D01*
X235025018Y-35781012D02*
X233374981Y-35781011D01*
X239369330Y-34500000D02*
X236306030Y-34500000D01*
X239650342Y-34781012D02*
X239369330Y-34500000D01*
X245826920Y-34781012D02*
X239650342Y-34781012D01*
X255050000Y-33000000D02*
X249750000Y-33000000D01*
X222600000Y-33000000D02*
X221450000Y-33000000D01*
X249750000Y-33000000D02*
X249325000Y-32575000D01*
X248032932Y-32575000D02*
X245826920Y-34781012D01*
X249325000Y-32575000D02*
X248032932Y-32575000D01*
X255950000Y-33000000D02*
X255050000Y-33000000D01*
X258045989Y-35095989D02*
X255950000Y-33000000D01*
X283222999Y-32672999D02*
X280734933Y-32672999D01*
X278907932Y-34500000D02*
X272900000Y-34500000D01*
X268325000Y-36300000D02*
X260917068Y-36300000D01*
X270650000Y-33975000D02*
X268325000Y-36300000D01*
X272375000Y-33975000D02*
X270650000Y-33975000D01*
X272900000Y-34500000D02*
X272375000Y-33975000D01*
X284450000Y-33000000D02*
X283550000Y-33000000D01*
X259713057Y-35095989D02*
X258045989Y-35095989D01*
X260917068Y-36300000D02*
X259713057Y-35095989D01*
X283550000Y-33000000D02*
X283222999Y-32672999D01*
X280734933Y-32672999D02*
X278907932Y-34500000D01*
X153350000Y-33000000D02*
X147899996Y-27549996D01*
X147899996Y-27549996D02*
X131900000Y-27549996D01*
X154250000Y-33000000D02*
X153350000Y-33000000D01*
X22377001Y-33927001D02*
X21450000Y-33000000D01*
X38027001Y-33927001D02*
X22377001Y-33927001D01*
X21450000Y-33000000D02*
X20050000Y-33000000D01*
X41867068Y-35050000D02*
X39150000Y-35050000D01*
X52250000Y-33600000D02*
X52250000Y-34454000D01*
X42598079Y-35781011D02*
X41867068Y-35050000D01*
X50922989Y-35781011D02*
X42598079Y-35781011D01*
X39150000Y-35050000D02*
X38027001Y-33927001D01*
X52250000Y-34454000D02*
X50922989Y-35781011D01*
X104027643Y-41147675D02*
X104027643Y-39697614D01*
X106200000Y-45663994D02*
X104679478Y-44143472D01*
X106200000Y-45700000D02*
X106200000Y-45663994D01*
X104679478Y-41799510D02*
X104027643Y-41147675D01*
X104679478Y-44143472D02*
X104679478Y-41799510D01*
%TO.N,Net-(D3-Pad2)*%
X25860000Y-33000000D02*
X25940000Y-32920000D01*
X23350000Y-33000000D02*
X25860000Y-33000000D01*
%TO.N,pin7*%
X62050000Y-49400000D02*
X63300000Y-49400000D01*
X64227001Y-50327001D02*
X85772999Y-50327001D01*
X63300000Y-49400000D02*
X64227001Y-50327001D01*
X86700000Y-49400000D02*
X87850000Y-49400000D01*
X85772999Y-50327001D02*
X86700000Y-49400000D01*
X160700000Y-49400000D02*
X162650000Y-49400000D01*
X159692990Y-48392990D02*
X160700000Y-49400000D01*
X131507010Y-48392990D02*
X159692990Y-48392990D01*
X130500000Y-49400000D02*
X131507010Y-48392990D01*
X129250000Y-49400000D02*
X130500000Y-49400000D01*
X193292990Y-48392990D02*
X194300000Y-49400000D01*
X165107010Y-48392990D02*
X193292990Y-48392990D01*
X164100000Y-49400000D02*
X165107010Y-48392990D01*
X194300000Y-49400000D02*
X196250000Y-49400000D01*
X162650000Y-49400000D02*
X164100000Y-49400000D01*
X231300000Y-48800000D02*
X231300000Y-47200000D01*
X230700000Y-49400000D02*
X231300000Y-48800000D01*
X231900000Y-46600000D02*
X232950000Y-46600000D01*
X231300000Y-47200000D02*
X231900000Y-46600000D01*
X229650000Y-49400000D02*
X230700000Y-49400000D01*
X263619010Y-49369010D02*
X263650000Y-49400000D01*
X235700000Y-48200000D02*
X261730990Y-48200000D01*
X261730990Y-48200000D02*
X262900000Y-49369010D01*
X262900000Y-49369010D02*
X263619010Y-49369010D01*
X234100000Y-46600000D02*
X235700000Y-48200000D01*
X232950000Y-46600000D02*
X234100000Y-46600000D01*
X61300000Y-49400000D02*
X62050000Y-49400000D01*
X22072998Y-50372998D02*
X60327002Y-50372998D01*
X60327002Y-50372998D02*
X61300000Y-49400000D01*
X21100000Y-49400000D02*
X22072998Y-50372998D01*
X19850000Y-49400000D02*
X21100000Y-49400000D01*
X227492990Y-48392990D02*
X228500000Y-49400000D01*
X198918408Y-48392990D02*
X227492990Y-48392990D01*
X228500000Y-49400000D02*
X229650000Y-49400000D01*
X197911398Y-49400000D02*
X198918408Y-48392990D01*
X196250000Y-49400000D02*
X197911398Y-49400000D01*
X101283956Y-55783045D02*
X100350000Y-56717001D01*
X101283956Y-54201830D02*
X101283956Y-55783045D01*
X100350000Y-56717001D02*
X85432999Y-56717001D01*
X104188730Y-51297056D02*
X101283956Y-54201830D01*
X283300000Y-49400000D02*
X284450000Y-49400000D01*
X263650000Y-49400000D02*
X264700000Y-49400000D01*
X264700000Y-49400000D02*
X265627001Y-50327001D01*
X282372999Y-50327001D02*
X283300000Y-49400000D01*
X265627001Y-50327001D02*
X282372999Y-50327001D01*
X103056542Y-63356542D02*
X87043458Y-63356542D01*
X87043458Y-63356542D02*
X86850000Y-63550000D01*
X107727002Y-63072998D02*
X106100000Y-64700000D01*
X124800000Y-61300000D02*
X123027002Y-63072998D01*
X106100000Y-64700000D02*
X104400000Y-64700000D01*
X104400000Y-64700000D02*
X103056542Y-63356542D01*
X123027002Y-63072998D02*
X107727002Y-63072998D01*
X130000000Y-61300000D02*
X124800000Y-61300000D01*
%TO.N,Net-(D4-Pad2)*%
X25860000Y-49400000D02*
X25940000Y-49320000D01*
X23150000Y-49400000D02*
X25860000Y-49400000D01*
X25940000Y-49320000D02*
X30140000Y-49320000D01*
%TO.N,Net-(D5-Pad2)*%
X30140000Y-65720000D02*
X25940000Y-65720000D01*
X25860000Y-65800000D02*
X25940000Y-65720000D01*
X23150000Y-65800000D02*
X25860000Y-65800000D01*
%TO.N,pin8*%
X196250000Y-65800000D02*
X197500000Y-65800000D01*
X198427001Y-66727001D02*
X226972999Y-66727001D01*
X197500000Y-65800000D02*
X198427001Y-66727001D01*
X227900000Y-65800000D02*
X229850000Y-65800000D01*
X226972999Y-66727001D02*
X227900000Y-65800000D01*
X229850000Y-65800000D02*
X230900000Y-65800000D01*
X231827001Y-66727001D02*
X261972999Y-66727001D01*
X230900000Y-65800000D02*
X231827001Y-66727001D01*
X262900000Y-65800000D02*
X263650000Y-65800000D01*
X261972999Y-66727001D02*
X262900000Y-65800000D01*
X263650000Y-65800000D02*
X264700000Y-65800000D01*
X264700000Y-65800000D02*
X265300000Y-65200000D01*
X265300000Y-65200000D02*
X265300000Y-63600000D01*
X265900000Y-63000000D02*
X266950000Y-63000000D01*
X265300000Y-63600000D02*
X265900000Y-63000000D01*
X281300000Y-64600000D02*
X282500000Y-65800000D01*
X282500000Y-65800000D02*
X284250000Y-65800000D01*
X269900000Y-64600000D02*
X281300000Y-64600000D01*
X268300000Y-63000000D02*
X269900000Y-64600000D01*
X266950000Y-63000000D02*
X268300000Y-63000000D01*
X91050000Y-65800000D02*
X92300000Y-65800000D01*
X92300000Y-65800000D02*
X93227001Y-66727001D01*
X127300000Y-65800000D02*
X128850000Y-65800000D01*
X126372999Y-66727001D02*
X127300000Y-65800000D01*
X98627001Y-66727001D02*
X126372999Y-66727001D01*
X93227001Y-66727001D02*
X98627001Y-66727001D01*
X89700000Y-65800000D02*
X91050000Y-65800000D01*
X53450000Y-65800000D02*
X54700000Y-65800000D01*
X88772999Y-66727001D02*
X89700000Y-65800000D01*
X54700000Y-65800000D02*
X55627001Y-66727001D01*
X55627001Y-66727001D02*
X88772999Y-66727001D01*
X159250000Y-67250000D02*
X160700000Y-65800000D01*
X149525000Y-67250000D02*
X159250000Y-67250000D01*
X149075000Y-66800000D02*
X149525000Y-67250000D01*
X131300000Y-66800000D02*
X149075000Y-66800000D01*
X130300000Y-65800000D02*
X131300000Y-66800000D01*
X160700000Y-65800000D02*
X162450000Y-65800000D01*
X128850000Y-65800000D02*
X130300000Y-65800000D01*
X104900000Y-52000000D02*
X102191978Y-54708022D01*
X102191978Y-54708022D02*
X102191977Y-58200091D01*
X101800006Y-58592062D02*
X101800006Y-60450000D01*
X102191977Y-58200091D02*
X101800006Y-58592062D01*
X193300000Y-66800000D02*
X194300000Y-65800000D01*
X164500000Y-66800000D02*
X193300000Y-66800000D01*
X194300000Y-65800000D02*
X196250000Y-65800000D01*
X163500000Y-65800000D02*
X164500000Y-66800000D01*
X162450000Y-65800000D02*
X163500000Y-65800000D01*
X49518988Y-68381012D02*
X52100000Y-65800000D01*
X52100000Y-65800000D02*
X53450000Y-65800000D01*
X34800000Y-67200000D02*
X35981012Y-68381012D01*
X21300000Y-65800000D02*
X22700000Y-67200000D01*
X22700000Y-67200000D02*
X34800000Y-67200000D01*
X35981012Y-68381012D02*
X49518988Y-68381012D01*
X19850000Y-65800000D02*
X21300000Y-65800000D01*
%TO.N,pin9*%
X19650000Y-82200000D02*
X20700000Y-82200000D01*
X21627001Y-83127001D02*
X50972999Y-83127001D01*
X20700000Y-82200000D02*
X21627001Y-83127001D01*
X51900000Y-82200000D02*
X53450000Y-82200000D01*
X50972999Y-83127001D02*
X51900000Y-82200000D01*
X53450000Y-82200000D02*
X54700000Y-82200000D01*
X55627001Y-83127001D02*
X84372999Y-83127001D01*
X54700000Y-82200000D02*
X55627001Y-83127001D01*
X85300000Y-82200000D02*
X86850000Y-82200000D01*
X84372999Y-83127001D02*
X85300000Y-82200000D01*
X120050000Y-82200000D02*
X121300000Y-82200000D01*
X122227001Y-83127001D02*
X151572999Y-83127001D01*
X121300000Y-82200000D02*
X122227001Y-83127001D01*
X152500000Y-82200000D02*
X154050000Y-82200000D01*
X151572999Y-83127001D02*
X152500000Y-82200000D01*
X154050000Y-82200000D02*
X155100000Y-82200000D01*
X156027001Y-83127001D02*
X185172999Y-83127001D01*
X155100000Y-82200000D02*
X156027001Y-83127001D01*
X186100000Y-82200000D02*
X187850000Y-82200000D01*
X185172999Y-83127001D02*
X186100000Y-82200000D01*
X187850000Y-82200000D02*
X189100000Y-82200000D01*
X190027001Y-83127001D02*
X218572999Y-83127001D01*
X189100000Y-82200000D02*
X190027001Y-83127001D01*
X219500000Y-82200000D02*
X221450000Y-82200000D01*
X218572999Y-83127001D02*
X219500000Y-82200000D01*
X221450000Y-82200000D02*
X222700000Y-82200000D01*
X223627001Y-83127001D02*
X252372999Y-83127001D01*
X222700000Y-82200000D02*
X223627001Y-83127001D01*
X253300000Y-82200000D02*
X255050000Y-82200000D01*
X252372999Y-83127001D02*
X253300000Y-82200000D01*
X255050000Y-82200000D02*
X256100000Y-82200000D01*
X257027001Y-83127001D02*
X279372999Y-83127001D01*
X256100000Y-82200000D02*
X257027001Y-83127001D01*
X280300000Y-82200000D02*
X281850000Y-82200000D01*
X279372999Y-83127001D02*
X280300000Y-82200000D01*
X284100000Y-85000000D02*
X285150000Y-85000000D01*
X283500000Y-84400000D02*
X284100000Y-85000000D01*
X282900000Y-82200000D02*
X283500000Y-82800000D01*
X283500000Y-82800000D02*
X283500000Y-84400000D01*
X281850000Y-82200000D02*
X282900000Y-82200000D01*
X88400000Y-82200000D02*
X86850000Y-82200000D01*
X89400000Y-83200000D02*
X88400000Y-82200000D01*
X118800000Y-82200000D02*
X117800000Y-83200000D01*
X120050000Y-82200000D02*
X118800000Y-82200000D01*
X117800000Y-83200000D02*
X89400000Y-83200000D01*
X105600000Y-52700000D02*
X103100000Y-55200000D01*
X103100000Y-55200000D02*
X103100000Y-59500000D01*
%TO.N,Net-(D6-Pad2)*%
X34340000Y-82120000D02*
X25940000Y-82120000D01*
X25860000Y-82200000D02*
X25940000Y-82120000D01*
X22950000Y-82200000D02*
X25860000Y-82200000D01*
%TO.N,Net-(D7-Pad2)*%
X25860000Y-98600000D02*
X25940000Y-98520000D01*
X23150000Y-98600000D02*
X25860000Y-98600000D01*
X25940000Y-98520000D02*
X34340000Y-98520000D01*
%TO.N,pin10*%
X120000000Y-98600000D02*
X120850000Y-98600000D01*
X85427001Y-99527001D02*
X119072999Y-99527001D01*
X84500000Y-98600000D02*
X85427001Y-99527001D01*
X119072999Y-99527001D02*
X120000000Y-98600000D01*
X83150000Y-98600000D02*
X84500000Y-98600000D01*
X122902001Y-99527001D02*
X152772999Y-99527001D01*
X153700000Y-98600000D02*
X154450000Y-98600000D01*
X121975000Y-98600000D02*
X122902001Y-99527001D01*
X152772999Y-99527001D02*
X153700000Y-98600000D01*
X120850000Y-98600000D02*
X121975000Y-98600000D01*
X184700000Y-98600000D02*
X186250000Y-98600000D01*
X183772999Y-99527001D02*
X184700000Y-98600000D01*
X156627001Y-99527001D02*
X183772999Y-99527001D01*
X155700000Y-98600000D02*
X156627001Y-99527001D01*
X154450000Y-98600000D02*
X155700000Y-98600000D01*
X21300000Y-98600000D02*
X22300000Y-99600000D01*
X51900000Y-98600000D02*
X53450000Y-98600000D01*
X50900000Y-99600000D02*
X51900000Y-98600000D01*
X22300000Y-99600000D02*
X50900000Y-99600000D01*
X19850000Y-98600000D02*
X21300000Y-98600000D01*
X265050000Y-98600000D02*
X266000000Y-98600000D01*
X266927001Y-99527001D02*
X278772999Y-99527001D01*
X266000000Y-98600000D02*
X266927001Y-99527001D01*
X279700000Y-98600000D02*
X281250000Y-98600000D01*
X278772999Y-99527001D02*
X279700000Y-98600000D01*
X215800000Y-98600000D02*
X214450000Y-98600000D01*
X262572999Y-99527001D02*
X216727001Y-99527001D01*
X263500000Y-98600000D02*
X262572999Y-99527001D01*
X216727001Y-99527001D02*
X215800000Y-98600000D01*
X265050000Y-98600000D02*
X263500000Y-98600000D01*
X194588058Y-100225000D02*
X188850000Y-100225000D01*
X188850000Y-100225000D02*
X187225000Y-98600000D01*
X195205059Y-99607999D02*
X194588058Y-100225000D01*
X196586961Y-99607999D02*
X195205059Y-99607999D01*
X197432973Y-100454011D02*
X196586961Y-99607999D01*
X187225000Y-98600000D02*
X186250000Y-98600000D01*
X211420989Y-100454011D02*
X197432973Y-100454011D01*
X213275000Y-98600000D02*
X211420989Y-100454011D01*
X214450000Y-98600000D02*
X213275000Y-98600000D01*
X108300000Y-53400000D02*
X108819917Y-53919917D01*
X108819917Y-57025736D02*
X108819917Y-57450000D01*
X108819917Y-53919917D02*
X108819917Y-57025736D01*
X282900000Y-96425000D02*
X283525000Y-95800000D01*
X282900000Y-97800000D02*
X282900000Y-96425000D01*
X283525000Y-95800000D02*
X284550000Y-95800000D01*
X282100000Y-98600000D02*
X282900000Y-97800000D01*
X281250000Y-98600000D02*
X282100000Y-98600000D01*
X82200000Y-98600000D02*
X83150000Y-98600000D01*
X80950000Y-99850000D02*
X82200000Y-98600000D01*
X54475000Y-98600000D02*
X55725000Y-99850000D01*
X55725000Y-99850000D02*
X80950000Y-99850000D01*
X53450000Y-98600000D02*
X54475000Y-98600000D01*
%TO.N,RE1_2*%
X58860000Y-33600000D02*
X59540000Y-32920000D01*
X55550000Y-33600000D02*
X58860000Y-33600000D01*
X62125000Y-29000000D02*
X63900000Y-29000000D01*
X61925000Y-29000000D02*
X62125000Y-29000000D01*
X59540000Y-31385000D02*
X61925000Y-29000000D01*
X59540000Y-32920000D02*
X59540000Y-31385000D01*
%TO.N,Net-(D9-Pad2)*%
X42660000Y-33000000D02*
X42740000Y-32920000D01*
X39950000Y-33000000D02*
X42660000Y-33000000D01*
%TO.N,pin2*%
X69730990Y-49400000D02*
X70450000Y-49400000D01*
X66930990Y-46600000D02*
X69730990Y-49400000D01*
X65350000Y-46600000D02*
X66930990Y-46600000D01*
X213050000Y-49400000D02*
X214100000Y-49400000D01*
X145850000Y-49400000D02*
X146900000Y-49400000D01*
X147827001Y-50327001D02*
X176772999Y-50327001D01*
X146900000Y-49400000D02*
X147827001Y-50327001D01*
X177700000Y-49400000D02*
X179450000Y-49400000D01*
X176772999Y-50327001D02*
X177700000Y-49400000D01*
X245043989Y-50327001D02*
X245900000Y-49470990D01*
X215027001Y-50327001D02*
X245043989Y-50327001D01*
X214100000Y-49400000D02*
X215027001Y-50327001D01*
X245900000Y-49470990D02*
X246779010Y-49470990D01*
X71750000Y-49400000D02*
X73572999Y-47577001D01*
X70450000Y-49400000D02*
X71750000Y-49400000D01*
X83277001Y-47577001D02*
X83300000Y-47600000D01*
X73572999Y-47577001D02*
X83277001Y-47577001D01*
X36900000Y-49400000D02*
X38300000Y-48000000D01*
X64100000Y-46600000D02*
X65350000Y-46600000D01*
X62700000Y-48000000D02*
X64100000Y-46600000D01*
X38300000Y-48000000D02*
X62700000Y-48000000D01*
X35650000Y-49400000D02*
X36900000Y-49400000D01*
X125778980Y-50178980D02*
X126200000Y-50178980D01*
X123850000Y-49400000D02*
X125000000Y-49400000D01*
X125000000Y-49400000D02*
X125778980Y-50178980D01*
X145850000Y-49400000D02*
X137661018Y-49400000D01*
X137661018Y-49400000D02*
X136734017Y-50327001D01*
X136734017Y-50327001D02*
X126348021Y-50327001D01*
X126348021Y-50327001D02*
X126200000Y-50178980D01*
X211800000Y-49400000D02*
X213050000Y-49400000D01*
X210872999Y-50327001D02*
X211800000Y-49400000D01*
X181627001Y-50327001D02*
X210872999Y-50327001D01*
X180700000Y-49400000D02*
X181627001Y-50327001D01*
X179450000Y-49400000D02*
X180700000Y-49400000D01*
X101402990Y-48152990D02*
X97675028Y-48152990D01*
X102213604Y-48963604D02*
X101402990Y-48152990D01*
X97122038Y-47600000D02*
X83300000Y-47600000D01*
X97675028Y-48152990D02*
X97122038Y-47600000D01*
X103128070Y-48963604D02*
X102213604Y-48963604D01*
X107607930Y-62550002D02*
X122450000Y-62550002D01*
X105980214Y-64177718D02*
X107607930Y-62550002D01*
X122450000Y-62550002D02*
X122800001Y-62200001D01*
X104561560Y-64177717D02*
X105980214Y-64177718D01*
X103286375Y-62902531D02*
X104561560Y-64177717D01*
X85097473Y-62902531D02*
X103286375Y-62902531D01*
X84700004Y-63300000D02*
X85097473Y-62902531D01*
%TO.N,Net-(D10-Pad2)*%
X42660000Y-49400000D02*
X42740000Y-49320000D01*
X38950000Y-49400000D02*
X42660000Y-49400000D01*
X42740000Y-49320000D02*
X51140000Y-49320000D01*
%TO.N,Net-(D11-Pad2)*%
X37460000Y-75880000D02*
X45860000Y-75880000D01*
X35750000Y-65800000D02*
X36800000Y-65800000D01*
%TO.N,pin3*%
X70450000Y-65800000D02*
X71500000Y-65800000D01*
X71500000Y-65800000D02*
X72100000Y-65200000D01*
X72100000Y-65200000D02*
X72100000Y-63600000D01*
X72700000Y-63000000D02*
X73750000Y-63000000D01*
X72100000Y-63600000D02*
X72700000Y-63000000D01*
X154650000Y-65800000D02*
X155900000Y-65800000D01*
X156907010Y-64792990D02*
X176892990Y-64792990D01*
X155900000Y-65800000D02*
X156907010Y-64792990D01*
X177900000Y-65800000D02*
X179450000Y-65800000D01*
X176892990Y-64792990D02*
X177900000Y-65800000D01*
X179450000Y-65800000D02*
X180900000Y-65800000D01*
X181907010Y-64792990D02*
X210292990Y-64792990D01*
X180900000Y-65800000D02*
X181907010Y-64792990D01*
X211300000Y-65800000D02*
X213050000Y-65800000D01*
X210292990Y-64792990D02*
X211300000Y-65800000D01*
X213050000Y-65800000D02*
X214300000Y-65800000D01*
X215307010Y-64792990D02*
X245123980Y-64792990D01*
X245123980Y-64792990D02*
X246100000Y-65769010D01*
X214300000Y-65800000D02*
X215307010Y-64792990D01*
X246819010Y-65769010D02*
X246850000Y-65800000D01*
X246100000Y-65769010D02*
X246819010Y-65769010D01*
X69730990Y-65800000D02*
X70450000Y-65800000D01*
X52307010Y-64792990D02*
X68723980Y-64792990D01*
X49172999Y-67927001D02*
X52307010Y-64792990D01*
X68723980Y-64792990D02*
X69730990Y-65800000D01*
X36227001Y-67927001D02*
X49172999Y-67927001D01*
X34100000Y-65800000D02*
X36227001Y-67927001D01*
X32450000Y-65800000D02*
X34100000Y-65800000D01*
X104200000Y-65200000D02*
X103700000Y-64700000D01*
X110000000Y-65200000D02*
X104200000Y-65200000D01*
X112050000Y-65800000D02*
X110600000Y-65800000D01*
X110600000Y-65800000D02*
X110000000Y-65200000D01*
X103700000Y-64700000D02*
X99200000Y-64700000D01*
X99200000Y-64700000D02*
X76500000Y-64700000D01*
X74800000Y-63000000D02*
X73750000Y-63000000D01*
X76500000Y-64700000D02*
X74800000Y-63000000D01*
X101149994Y-58600006D02*
X101149994Y-59750000D01*
X101737967Y-54437033D02*
X101737967Y-58012033D01*
X101737967Y-58012033D02*
X101149994Y-58600006D01*
X104550000Y-51625000D02*
X101737967Y-54437033D01*
X154075000Y-65800000D02*
X154650000Y-65800000D01*
X150550000Y-64200000D02*
X152468962Y-64200000D01*
X153725000Y-65450000D02*
X154075000Y-65800000D01*
X152468962Y-64200000D02*
X153718962Y-65450000D01*
X148450000Y-66300000D02*
X150550000Y-64200000D01*
X139315905Y-66300000D02*
X148450000Y-66300000D01*
X113027964Y-65800000D02*
X114034974Y-64792990D01*
X114034974Y-64792990D02*
X137808895Y-64792990D01*
X137808895Y-64792990D02*
X139315905Y-66300000D01*
X153718962Y-65450000D02*
X153725000Y-65450000D01*
X112050000Y-65800000D02*
X113027964Y-65800000D01*
%TO.N,pin4*%
X36850000Y-82200000D02*
X38100000Y-82200000D01*
X39107010Y-81192990D02*
X67092990Y-81192990D01*
X38100000Y-82200000D02*
X39107010Y-81192990D01*
X68100000Y-82200000D02*
X70050000Y-82200000D01*
X67092990Y-81192990D02*
X68100000Y-82200000D01*
X103330990Y-82200000D02*
X104050000Y-82200000D01*
X102323980Y-81192990D02*
X103330990Y-82200000D01*
X71500000Y-82200000D02*
X72507010Y-81192990D01*
X70050000Y-82200000D02*
X71500000Y-82200000D01*
X104050000Y-82200000D02*
X105300000Y-82200000D01*
X106307010Y-81192990D02*
X120292990Y-81192990D01*
X105300000Y-82200000D02*
X106307010Y-81192990D01*
X122085980Y-79400000D02*
X123350000Y-79400000D01*
X120292990Y-81192990D02*
X122085980Y-79400000D01*
X123350000Y-79400000D02*
X124700000Y-79400000D01*
X124700000Y-79400000D02*
X126300000Y-81000000D01*
X126300000Y-81000000D02*
X134500000Y-81000000D01*
X135700000Y-82200000D02*
X137250000Y-82200000D01*
X134500000Y-81000000D02*
X135700000Y-82200000D01*
X137250000Y-82200000D02*
X138700000Y-82200000D01*
X139707010Y-81192990D02*
X168292990Y-81192990D01*
X138700000Y-82200000D02*
X139707010Y-81192990D01*
X169300000Y-82200000D02*
X171050000Y-82200000D01*
X168292990Y-81192990D02*
X169300000Y-82200000D01*
X171050000Y-82200000D02*
X172500000Y-82200000D01*
X173507010Y-81192990D02*
X201892990Y-81192990D01*
X172500000Y-82200000D02*
X173507010Y-81192990D01*
X202900000Y-82200000D02*
X204650000Y-82200000D01*
X201892990Y-81192990D02*
X202900000Y-82200000D01*
X204650000Y-82200000D02*
X206100000Y-82200000D01*
X207107010Y-81192990D02*
X235892990Y-81192990D01*
X206100000Y-82200000D02*
X207107010Y-81192990D01*
X236900000Y-82200000D02*
X238450000Y-82200000D01*
X235892990Y-81192990D02*
X236900000Y-82200000D01*
X238450000Y-82200000D02*
X239700000Y-82200000D01*
X240707010Y-81192990D02*
X269292990Y-81192990D01*
X239700000Y-82200000D02*
X240707010Y-81192990D01*
X270300000Y-82200000D02*
X271850000Y-82200000D01*
X269292990Y-81192990D02*
X270300000Y-82200000D01*
X100242990Y-81192990D02*
X102323980Y-81192990D01*
X72507010Y-81192990D02*
X100242990Y-81192990D01*
X105250000Y-52350000D02*
X102645989Y-54954011D01*
X102645989Y-58758031D02*
X102427010Y-58977010D01*
X102645989Y-54954011D02*
X102645989Y-58758031D01*
%TO.N,Net-(D12-Pad2)*%
X42660000Y-82200000D02*
X42740000Y-82120000D01*
X40150000Y-82200000D02*
X42660000Y-82200000D01*
%TO.N,Net-(D13-Pad2)*%
X42660000Y-98600000D02*
X42740000Y-98520000D01*
X40150000Y-98600000D02*
X42660000Y-98600000D01*
%TO.N,pin5*%
X101592990Y-97592990D02*
X102600000Y-98600000D01*
X69250000Y-98900000D02*
X70300000Y-98900000D01*
X75432009Y-97717001D02*
X75556020Y-97592990D01*
X102600000Y-98600000D02*
X103650000Y-98600000D01*
X70300000Y-98900000D02*
X71482999Y-97717001D01*
X71482999Y-97717001D02*
X75432009Y-97717001D01*
X75556020Y-97592990D02*
X101592990Y-97592990D01*
X104900000Y-98600000D02*
X105907010Y-97592990D01*
X103650000Y-98600000D02*
X104900000Y-98600000D01*
X105907010Y-97592990D02*
X108907010Y-97592990D01*
X232523980Y-97592990D02*
X233530990Y-98600000D01*
X210307010Y-97592990D02*
X232523980Y-97592990D01*
X233530990Y-98600000D02*
X234250000Y-98600000D01*
X209300000Y-98600000D02*
X210307010Y-97592990D01*
X208050000Y-98600000D02*
X209300000Y-98600000D01*
X235500000Y-98600000D02*
X234300000Y-98600000D01*
X236881012Y-97218988D02*
X235500000Y-98600000D01*
X268618988Y-97218988D02*
X236881012Y-97218988D01*
X270000000Y-98600000D02*
X268618988Y-97218988D01*
X271050000Y-98600000D02*
X270000000Y-98600000D01*
X206500000Y-98600000D02*
X208050000Y-98600000D01*
X204875000Y-96975000D02*
X206500000Y-98600000D01*
X193325000Y-96975000D02*
X204875000Y-96975000D01*
X192582999Y-97717001D02*
X193325000Y-96975000D01*
X190187839Y-97717001D02*
X192582999Y-97717001D01*
X190063828Y-97592990D02*
X190187839Y-97717001D01*
X168907010Y-97592990D02*
X190063828Y-97592990D01*
X167900000Y-98600000D02*
X168907010Y-97592990D01*
X166650000Y-98600000D02*
X167900000Y-98600000D01*
X103800000Y-55198130D02*
X103800000Y-58950000D01*
X105948130Y-53050000D02*
X103800000Y-55198130D01*
X105950000Y-53050000D02*
X105948130Y-53050000D01*
X162300000Y-98600000D02*
X166650000Y-98600000D01*
X156450000Y-96000000D02*
X159700000Y-96000000D01*
X154950000Y-97500000D02*
X156450000Y-96000000D01*
X159700000Y-96000000D02*
X162300000Y-98600000D01*
X135350000Y-97500000D02*
X154950000Y-97500000D01*
X134250000Y-98600000D02*
X135350000Y-97500000D01*
X133050000Y-98600000D02*
X134250000Y-98600000D01*
X131850000Y-98600000D02*
X133050000Y-98600000D01*
X130842990Y-97592990D02*
X131850000Y-98600000D01*
X108907010Y-97592990D02*
X130842990Y-97592990D01*
X68300000Y-98900000D02*
X69200000Y-98900000D01*
X66950000Y-97550000D02*
X68300000Y-98900000D01*
X39150000Y-97550000D02*
X66950000Y-97550000D01*
X38100000Y-98600000D02*
X39150000Y-97550000D01*
X36850000Y-98600000D02*
X38100000Y-98600000D01*
%TO.N,Net-(D16-Pad2)*%
X67860000Y-49400000D02*
X67940000Y-49320000D01*
X65350000Y-49400000D02*
X67860000Y-49400000D01*
X60387001Y-48472999D02*
X63372999Y-48472999D01*
X59540000Y-49320000D02*
X60387001Y-48472999D01*
X64300000Y-49400000D02*
X65350000Y-49400000D01*
X63372999Y-48472999D02*
X64300000Y-49400000D01*
%TO.N,Net-(D17-Pad2)*%
X59460000Y-65800000D02*
X59540000Y-65720000D01*
X56750000Y-65800000D02*
X59460000Y-65800000D01*
X59540000Y-65720000D02*
X67940000Y-65720000D01*
%TO.N,Net-(D18-Pad2)*%
X59460000Y-82200000D02*
X59540000Y-82120000D01*
X56750000Y-82200000D02*
X59460000Y-82200000D01*
%TO.N,Net-(D19-Pad2)*%
X59460000Y-98600000D02*
X59540000Y-98520000D01*
X56750000Y-98600000D02*
X59460000Y-98600000D01*
X63740000Y-98520000D02*
X59540000Y-98520000D01*
%TO.N,Net-(D20-Pad2)*%
X76260000Y-33000000D02*
X76340000Y-32920000D01*
X73550000Y-33000000D02*
X76260000Y-33000000D01*
%TO.N,Net-(D21-Pad2)*%
X76340000Y-49320000D02*
X84740000Y-49320000D01*
X76260000Y-49400000D02*
X76340000Y-49320000D01*
X73750000Y-49400000D02*
X76260000Y-49400000D01*
%TO.N,Net-(D22-Pad2)*%
X76260000Y-65800000D02*
X76340000Y-65720000D01*
X73750000Y-65800000D02*
X76260000Y-65800000D01*
X76340000Y-65720000D02*
X84740000Y-65720000D01*
%TO.N,Net-(D23-Pad2)*%
X76260000Y-82200000D02*
X76340000Y-82120000D01*
X73350000Y-82200000D02*
X76260000Y-82200000D01*
%TO.N,Net-(D24-Pad2)*%
X76340000Y-98520000D02*
X80540000Y-98520000D01*
X75960000Y-98900000D02*
X76340000Y-98520000D01*
X72550000Y-98900000D02*
X75960000Y-98900000D01*
%TO.N,Net-(D25-Pad1)*%
X82490000Y-101060000D02*
X86690000Y-101060000D01*
X111890000Y-101060000D02*
X103490000Y-101060000D01*
X86690000Y-84660000D02*
X103490000Y-84660000D01*
X90890000Y-68260000D02*
X95090000Y-68260000D01*
X95882999Y-57732999D02*
X96360000Y-58210000D01*
X92637001Y-57732999D02*
X95882999Y-57732999D01*
X92160000Y-58210000D02*
X92637001Y-57732999D01*
X69890000Y-51860000D02*
X78290000Y-51860000D01*
X69890000Y-35460000D02*
X86690000Y-35460000D01*
X86690000Y-101060000D02*
X103490000Y-101060000D01*
X87160000Y-51860000D02*
X87167001Y-51867001D01*
X78290000Y-51860000D02*
X87160000Y-51860000D01*
X76895989Y-64245989D02*
X91904011Y-64245989D01*
X74700000Y-62050000D02*
X76895989Y-64245989D01*
X72750000Y-62050000D02*
X74700000Y-62050000D01*
X71800000Y-63000000D02*
X72750000Y-62050000D01*
X91904011Y-64245989D02*
X92160000Y-63990000D01*
X70450000Y-63000000D02*
X71800000Y-63000000D01*
%TO.N,Net-(D26-Pad2)*%
X88100000Y-33000000D02*
X88917001Y-33817001D01*
X92242999Y-33817001D02*
X93140000Y-32920000D01*
X83575000Y-33000000D02*
X88100000Y-33000000D01*
X88917001Y-33817001D02*
X92242999Y-33817001D01*
%TO.N,Net-(D27-Pad2)*%
X89620000Y-51760000D02*
X93820000Y-51760000D01*
X89950000Y-49400000D02*
X91150000Y-49400000D01*
%TO.N,Net-(D28-Pad2)*%
X97260000Y-65800000D02*
X97340000Y-65720000D01*
X94350000Y-65800000D02*
X97260000Y-65800000D01*
X97340000Y-65720000D02*
X97401012Y-65781012D01*
X101478988Y-65781012D02*
X101540000Y-65720000D01*
X97401012Y-65781012D02*
X101478988Y-65781012D01*
%TO.N,Net-(D29-Pad2)*%
X93060000Y-82200000D02*
X93140000Y-82120000D01*
X90150000Y-82200000D02*
X93060000Y-82200000D01*
X93140000Y-82120000D02*
X101540000Y-82120000D01*
%TO.N,Net-(D30-Pad2)*%
X93140000Y-98520000D02*
X88940000Y-98520000D01*
X88860000Y-98600000D02*
X88940000Y-98520000D01*
X86450000Y-98600000D02*
X88860000Y-98600000D01*
%TO.N,Net-(D31-Pad2)*%
X109760000Y-26600000D02*
X109940000Y-26420000D01*
X107350000Y-26600000D02*
X109760000Y-26600000D01*
%TO.N,Net-(D32-Pad2)*%
X127150000Y-49400000D02*
X125900000Y-49400000D01*
X125900000Y-49400000D02*
X125899997Y-49399997D01*
%TO.N,Net-(D33-Pad2)*%
X118260000Y-65800000D02*
X118340000Y-65720000D01*
X115350000Y-65800000D02*
X118260000Y-65800000D01*
%TO.N,Net-(D34-Pad2)*%
X109860000Y-82200000D02*
X109940000Y-82120000D01*
X107350000Y-82200000D02*
X109860000Y-82200000D01*
%TO.N,Net-(D35-Pad2)*%
X118340000Y-98520000D02*
X109940000Y-98520000D01*
X109860000Y-98600000D02*
X109940000Y-98520000D01*
X106950000Y-98600000D02*
X109860000Y-98600000D01*
%TO.N,Net-(D36-Pad1)*%
X145490000Y-101060000D02*
X120290000Y-101060000D01*
X103490000Y-28960000D02*
X120290000Y-28960000D01*
X111890000Y-68260000D02*
X128690000Y-68260000D01*
X121100000Y-79400000D02*
X120050000Y-79400000D01*
X118240000Y-50590000D02*
X118823982Y-50590000D01*
X118823982Y-50590000D02*
X119833982Y-51600000D01*
X128430000Y-51600000D02*
X128690000Y-51860000D01*
X119833982Y-51600000D02*
X128430000Y-51600000D01*
%TO.N,Net-(D37-Pad2)*%
X126560000Y-26600000D02*
X126740000Y-26420000D01*
X123950000Y-26600000D02*
X126560000Y-26600000D01*
%TO.N,Net-(D38-Pad2)*%
X135060000Y-49400000D02*
X135140000Y-49320000D01*
X132550000Y-49400000D02*
X135060000Y-49400000D01*
%TO.N,Net-(D39-Pad2)*%
X135060000Y-65800000D02*
X135140000Y-65720000D01*
X132150000Y-65800000D02*
X135060000Y-65800000D01*
%TO.N,Net-(D40-Pad2)*%
X126660000Y-82200000D02*
X126740000Y-82120000D01*
X123350000Y-82200000D02*
X126660000Y-82200000D01*
%TO.N,Net-(D41-Pad2)*%
X126660000Y-98600000D02*
X126740000Y-98520000D01*
X124150000Y-98600000D02*
X126660000Y-98600000D01*
%TO.N,Net-(D42-Pad2)*%
X143360000Y-26600000D02*
X143540000Y-26420000D01*
X140750000Y-26600000D02*
X143360000Y-26600000D01*
%TO.N,Net-(D43-Pad2)*%
X151860000Y-49400000D02*
X151940000Y-49320000D01*
X149150000Y-49400000D02*
X151860000Y-49400000D01*
%TO.N,Net-(D44-Pad2)*%
X155361601Y-66727001D02*
X155367613Y-66720989D01*
X157029011Y-66720989D02*
X157950000Y-65800000D01*
X151940000Y-65720000D02*
X152931398Y-65720000D01*
X155367613Y-66720989D02*
X157029011Y-66720989D01*
X152931398Y-65720000D02*
X153938399Y-66727001D01*
X153938399Y-66727001D02*
X155361601Y-66727001D01*
%TO.N,Net-(D45-Pad2)*%
X143460000Y-82200000D02*
X143540000Y-82120000D01*
X140550000Y-82200000D02*
X143460000Y-82200000D01*
%TO.N,Net-(D46-Pad2)*%
X139260000Y-98600000D02*
X139340000Y-98520000D01*
X136350000Y-98600000D02*
X139260000Y-98600000D01*
X151940000Y-98520000D02*
X139340000Y-98520000D01*
%TO.N,Net-(D47-Pad1)*%
X145490000Y-51860000D02*
X162290000Y-51860000D01*
X137090000Y-35460000D02*
X153890000Y-35460000D01*
X137090000Y-84660000D02*
X153890000Y-84660000D01*
X145490000Y-68260000D02*
X162290000Y-68260000D01*
X154450000Y-96000000D02*
X154450000Y-94549992D01*
%TO.N,Net-(D48-Pad2)*%
X160260000Y-33000000D02*
X160340000Y-32920000D01*
X157550000Y-33000000D02*
X160260000Y-33000000D01*
%TO.N,Net-(D49-Pad2)*%
X168660000Y-49400000D02*
X168740000Y-49320000D01*
X165950000Y-49400000D02*
X168660000Y-49400000D01*
%TO.N,Net-(D50-Pad2)*%
X168660000Y-65800000D02*
X168740000Y-65720000D01*
X165750000Y-65800000D02*
X168660000Y-65800000D01*
%TO.N,Net-(D51-Pad2)*%
X160260000Y-82200000D02*
X160340000Y-82120000D01*
X157350000Y-82200000D02*
X160260000Y-82200000D01*
%TO.N,Net-(D52-Pad2)*%
X160260000Y-98600000D02*
X160340000Y-98520000D01*
X157750000Y-98600000D02*
X160260000Y-98600000D01*
%TO.N,RE3_2*%
X210260000Y-33400000D02*
X210740000Y-32920000D01*
X206850000Y-33400000D02*
X210260000Y-33400000D01*
X213150000Y-29000000D02*
X215100000Y-29000000D01*
X210740000Y-31410000D02*
X213150000Y-29000000D01*
X210740000Y-32920000D02*
X210740000Y-31410000D01*
%TO.N,Net-(D55-Pad2)*%
X185460000Y-49400000D02*
X185540000Y-49320000D01*
X182750000Y-49400000D02*
X185460000Y-49400000D01*
%TO.N,Net-(D56-Pad2)*%
X185460000Y-65800000D02*
X185540000Y-65720000D01*
X182750000Y-65800000D02*
X185460000Y-65800000D01*
%TO.N,Net-(D57-Pad2)*%
X177060000Y-82200000D02*
X177140000Y-82120000D01*
X174350000Y-82200000D02*
X177060000Y-82200000D01*
%TO.N,Net-(D58-Pad2)*%
X172860000Y-98600000D02*
X172940000Y-98520000D01*
X169950000Y-98600000D02*
X172860000Y-98600000D01*
X172940000Y-98520000D02*
X181340000Y-98520000D01*
%TO.N,Net-(D60-Pad2)*%
X193860000Y-33000000D02*
X193940000Y-32920000D01*
X191150000Y-33000000D02*
X193860000Y-33000000D01*
%TO.N,Net-(D61-Pad2)*%
X202260000Y-49400000D02*
X202340000Y-49320000D01*
X199550000Y-49400000D02*
X202260000Y-49400000D01*
%TO.N,Net-(D62-Pad2)*%
X202260000Y-65800000D02*
X202340000Y-65720000D01*
X199550000Y-65800000D02*
X202260000Y-65800000D01*
%TO.N,Net-(D63-Pad2)*%
X193860000Y-82200000D02*
X193940000Y-82120000D01*
X191150000Y-82200000D02*
X193860000Y-82200000D01*
%TO.N,Net-(D64-Pad2)*%
X202340000Y-98520000D02*
X193940000Y-98520000D01*
X189550000Y-98600000D02*
X189630000Y-98520000D01*
X189630000Y-98520000D02*
X193940000Y-98520000D01*
%TO.N,RE4_2*%
X243860000Y-33400000D02*
X244340000Y-32920000D01*
X240550000Y-33400000D02*
X243860000Y-33400000D01*
X246725000Y-29000000D02*
X248700000Y-29000000D01*
X244340000Y-31385000D02*
X246725000Y-29000000D01*
X244340000Y-32920000D02*
X244340000Y-31385000D01*
%TO.N,Net-(D67-Pad2)*%
X219060000Y-49400000D02*
X219140000Y-49320000D01*
X216350000Y-49400000D02*
X219060000Y-49400000D01*
X219140000Y-49320000D02*
X223340000Y-49320000D01*
%TO.N,Net-(D68-Pad2)*%
X219060000Y-65800000D02*
X219140000Y-65720000D01*
X216350000Y-65800000D02*
X219060000Y-65800000D01*
X219140000Y-65720000D02*
X223340000Y-65720000D01*
%TO.N,Net-(D69-Pad2)*%
X210660000Y-82200000D02*
X210740000Y-82120000D01*
X207950000Y-82200000D02*
X210660000Y-82200000D01*
%TO.N,Net-(D70-Pad2)*%
X194573000Y-99597990D02*
X191400005Y-99597990D01*
X211350000Y-98600000D02*
X210125000Y-98600000D01*
X197621030Y-100000000D02*
X196775018Y-99153988D01*
X208725000Y-100000000D02*
X197621030Y-100000000D01*
X210125000Y-98600000D02*
X208725000Y-100000000D01*
X195017002Y-99153988D02*
X194573000Y-99597990D01*
X196775018Y-99153988D02*
X195017002Y-99153988D01*
X188600000Y-104329162D02*
X188600000Y-102500000D01*
X201260000Y-108680000D02*
X199580000Y-107000000D01*
X191270838Y-107000000D02*
X188600000Y-104329162D01*
X199580000Y-107000000D02*
X191270838Y-107000000D01*
X213860000Y-108680000D02*
X201260000Y-108680000D01*
%TO.N,Net-(D72-Pad2)*%
X227460000Y-33000000D02*
X227540000Y-32920000D01*
X224750000Y-33000000D02*
X227460000Y-33000000D01*
%TO.N,Net-(D73-Pad2)*%
X244340000Y-49320000D02*
X235940000Y-49320000D01*
X235860000Y-49400000D02*
X235940000Y-49320000D01*
X232950000Y-49400000D02*
X235860000Y-49400000D01*
%TO.N,Net-(D74-Pad2)*%
X235860000Y-65800000D02*
X235940000Y-65720000D01*
X233150000Y-65800000D02*
X235860000Y-65800000D01*
X235940000Y-65720000D02*
X244340000Y-65720000D01*
%TO.N,Net-(D75-Pad2)*%
X227460000Y-82200000D02*
X227540000Y-82120000D01*
X224750000Y-82200000D02*
X227460000Y-82200000D01*
%TO.N,Net-(D76-Pad2)*%
X231740000Y-98520000D02*
X227540000Y-98520000D01*
X217830000Y-98520000D02*
X217750000Y-98600000D01*
X227540000Y-98520000D02*
X217830000Y-98520000D01*
%TO.N,RE5_2*%
X277940000Y-32920000D02*
X277940000Y-31435000D01*
X277940000Y-31435000D02*
X280375000Y-29000000D01*
X280375000Y-29000000D02*
X282300000Y-29000000D01*
X271062924Y-32920008D02*
X277840000Y-32920008D01*
X268507932Y-35475000D02*
X271062924Y-32920008D01*
X264925000Y-35475000D02*
X268507932Y-35475000D01*
X264800000Y-35350000D02*
X264925000Y-35475000D01*
%TO.N,Net-(D79-Pad2)*%
X252660000Y-49400000D02*
X252740000Y-49320000D01*
X250150000Y-49400000D02*
X252660000Y-49400000D01*
X252740000Y-49320000D02*
X261140000Y-49320000D01*
%TO.N,Net-(D80-Pad2)*%
X252660000Y-65800000D02*
X252740000Y-65720000D01*
X250150000Y-65800000D02*
X252660000Y-65800000D01*
X252740000Y-65720000D02*
X261140000Y-65720000D01*
%TO.N,Net-(D81-Pad2)*%
X244260000Y-82200000D02*
X244340000Y-82120000D01*
X241750000Y-82200000D02*
X244260000Y-82200000D01*
%TO.N,Net-(D82-Pad2)*%
X240140000Y-98520000D02*
X252740000Y-98520000D01*
X240060000Y-98600000D02*
X240140000Y-98520000D01*
X237500000Y-98600000D02*
X240060000Y-98600000D01*
%TO.N,Net-(D84-Pad2)*%
X261060000Y-33000000D02*
X261140000Y-32920000D01*
X258350000Y-33000000D02*
X261060000Y-33000000D01*
%TO.N,Net-(D85-Pad2)*%
X269460000Y-49400000D02*
X269540000Y-49320000D01*
X266950000Y-49400000D02*
X269460000Y-49400000D01*
X269540000Y-49320000D02*
X277940000Y-49320000D01*
%TO.N,Net-(D86-Pad2)*%
X269460000Y-65800000D02*
X269540000Y-65720000D01*
X266950000Y-65800000D02*
X269460000Y-65800000D01*
X269540000Y-65720000D02*
X277940000Y-65720000D01*
%TO.N,Net-(D87-Pad2)*%
X261060000Y-82200000D02*
X261140000Y-82120000D01*
X258350000Y-82200000D02*
X261060000Y-82200000D01*
%TO.N,Net-(D88-Pad2)*%
X256940000Y-98520000D02*
X261140000Y-98520000D01*
X267100000Y-98600000D02*
X268350000Y-98600000D01*
X266172999Y-97672999D02*
X267100000Y-98600000D01*
X263477001Y-97672999D02*
X266172999Y-97672999D01*
X262630000Y-98520000D02*
X263477001Y-97672999D01*
X261140000Y-98520000D02*
X262630000Y-98520000D01*
%TO.N,Net-(D91-Pad2)*%
X277860000Y-82200000D02*
X277940000Y-82120000D01*
X275150000Y-82200000D02*
X277860000Y-82200000D01*
%TO.N,Net-(D92-Pad2)*%
X277860000Y-98600000D02*
X277940000Y-98520000D01*
X274350000Y-98600000D02*
X277860000Y-98600000D01*
%TO.N,RE1_1*%
X53090000Y-101060000D02*
X74090000Y-101060000D01*
X53090000Y-68260000D02*
X78290000Y-68260000D01*
X53090000Y-51860000D02*
X61490000Y-51860000D01*
X53090000Y-84660000D02*
X69890000Y-84660000D01*
X83359994Y-68260000D02*
X83700000Y-68600006D01*
X78290000Y-68260000D02*
X83359994Y-68260000D01*
X82000001Y-50900001D02*
X82300000Y-51200000D01*
X62449999Y-50900001D02*
X82000001Y-50900001D01*
X61490000Y-51860000D02*
X62449999Y-50900001D01*
X62050000Y-46600000D02*
X61000004Y-46600000D01*
X61000004Y-46600000D02*
X61000000Y-46599996D01*
X53050000Y-35500000D02*
X53090000Y-35460000D01*
X36290000Y-35460000D02*
X36330000Y-35500000D01*
X38117010Y-50932990D02*
X38050000Y-51000000D01*
X52162990Y-50932990D02*
X38117010Y-50932990D01*
X53090000Y-51860000D02*
X52162990Y-50932990D01*
X36334011Y-35504011D02*
X36290000Y-35460000D01*
X42410022Y-36235022D02*
X41679011Y-35504011D01*
X52314978Y-36235022D02*
X42410022Y-36235022D01*
X53090000Y-35460000D02*
X52314978Y-36235022D01*
X41679011Y-35504011D02*
X36334011Y-35504011D01*
X62175000Y-34000000D02*
X63900000Y-34000000D01*
X60645989Y-35529011D02*
X62175000Y-34000000D01*
X53159011Y-35529011D02*
X60645989Y-35529011D01*
X53090000Y-35460000D02*
X53159011Y-35529011D01*
%TO.N,Net-(D95-Pad2)*%
X294660000Y-33000000D02*
X294740000Y-32920000D01*
X287750000Y-33000000D02*
X294660000Y-33000000D01*
%TO.N,Net-(D96-Pad2)*%
X290460000Y-49400000D02*
X290540000Y-49320000D01*
X287750000Y-49400000D02*
X290460000Y-49400000D01*
X290540000Y-49320000D02*
X294740000Y-49320000D01*
%TO.N,Net-(D97-Pad2)*%
X290460000Y-65800000D02*
X290540000Y-65720000D01*
X287550000Y-65800000D02*
X290460000Y-65800000D01*
X290540000Y-65720000D02*
X294740000Y-65720000D01*
%TO.N,Net-(D98-Pad2)*%
X294660000Y-82200000D02*
X294740000Y-82120000D01*
X285150000Y-82200000D02*
X294660000Y-82200000D01*
%TO.N,Net-(D99-Pad2)*%
X294660000Y-98600000D02*
X294740000Y-98520000D01*
X284550000Y-98600000D02*
X294660000Y-98600000D01*
%TO.N,RE2_2*%
X176660000Y-33400000D02*
X177140000Y-32920000D01*
X173250000Y-33400000D02*
X176660000Y-33400000D01*
X179600000Y-29000000D02*
X181500000Y-29000000D01*
X177140000Y-31460000D02*
X179600000Y-29000000D01*
X177140000Y-32920000D02*
X177140000Y-31460000D01*
%TO.N,Net-(D102-Pad2)*%
X32975000Y-25975000D02*
X33000000Y-26000000D01*
X32975000Y-22325000D02*
X32975000Y-25975000D01*
X36161601Y-27072999D02*
X37300000Y-28211398D01*
X34272999Y-27072999D02*
X36161601Y-27072999D01*
X37300000Y-28211398D02*
X37300000Y-28350000D01*
X33200000Y-26000000D02*
X34272999Y-27072999D01*
X33000000Y-26000000D02*
X33200000Y-26000000D01*
%TO.N,Net-(D102-Pad3)*%
X33825000Y-22210038D02*
X33825000Y-22325000D01*
X32975000Y-21360038D02*
X33825000Y-22210038D01*
X32975000Y-20975000D02*
X32975000Y-21360038D01*
X37200000Y-26000000D02*
X37300000Y-26100000D01*
X35200000Y-26000000D02*
X37200000Y-26000000D01*
X33825000Y-24925000D02*
X34900000Y-26000000D01*
X34900000Y-26000000D02*
X35200000Y-26000000D01*
X33825000Y-22325000D02*
X33825000Y-24925000D01*
D30*
%TO.N,VCC*%
X42012500Y-19400000D02*
X42050000Y-19362500D01*
X40300000Y-19400000D02*
X42012500Y-19400000D01*
X35150000Y-28899998D02*
X34999998Y-29050000D01*
X35150000Y-28000000D02*
X35150000Y-28899998D01*
D31*
%TO.N,Net-(J1-PadA5)*%
X32125000Y-22325000D02*
X32125000Y-23975000D01*
X32125000Y-23975000D02*
X31900000Y-24200000D01*
X31900000Y-24200000D02*
X27800000Y-24200000D01*
X26000000Y-22400000D02*
X26000000Y-21200000D01*
X27800000Y-24200000D02*
X26000000Y-22400000D01*
%TO.N,Net-(J1-PadB5)*%
X27000000Y-18900000D02*
X26000000Y-18900000D01*
X27500010Y-19400010D02*
X27000000Y-18900000D01*
X33559629Y-19400010D02*
X27500010Y-19400010D01*
X34675000Y-20515381D02*
X33559629Y-19400010D01*
X34675000Y-20975000D02*
X34675000Y-20515381D01*
%TO.N,LED*%
X84365864Y-28000000D02*
X85398884Y-26966980D01*
X70050000Y-28000000D02*
X84365864Y-28000000D01*
X87971483Y-26966979D02*
X88375492Y-27370988D01*
X85398884Y-26966980D02*
X87971483Y-26966979D01*
X88375492Y-27370988D02*
X99745988Y-27370988D01*
X99745988Y-27370988D02*
X99925000Y-27550000D01*
X107936396Y-45428070D02*
X107600106Y-45428070D01*
X105650000Y-43477964D02*
X105650000Y-41175000D01*
X107600106Y-45428070D02*
X105650000Y-43477964D01*
%TO.N,Net-(JP_LED2-Pad1)*%
X83200000Y-21800000D02*
X47000000Y-21800000D01*
X47000000Y-21800000D02*
X45675000Y-23125000D01*
%TO.N,Net-(JP_LED2-Pad2)*%
X79050000Y-23100000D02*
X83200000Y-23100000D01*
%TO.N,Net-(JP_LED2-Pad3)*%
X291460000Y-77000000D02*
X291450000Y-77010000D01*
X293100000Y-77000000D02*
X291460000Y-77000000D01*
X83200000Y-24400000D02*
X84925000Y-24400000D01*
X88477999Y-20797001D02*
X88475000Y-20800000D01*
X112202999Y-20797001D02*
X88477999Y-20797001D01*
X134375000Y-21350000D02*
X133375000Y-20350000D01*
X267625000Y-21350000D02*
X134375000Y-21350000D01*
X133375000Y-20350000D02*
X112650000Y-20350000D01*
X112650000Y-20350000D02*
X112202999Y-20797001D01*
%TO.N,D-*%
X40700000Y-26100000D02*
X39300000Y-26100000D01*
X103850000Y-48275000D02*
X102029011Y-46454011D01*
X95129969Y-42272037D02*
X54300000Y-42272037D01*
X102029011Y-46454011D02*
X99311942Y-46454010D01*
X99311942Y-46454010D02*
X95129969Y-42272037D01*
%TO.N,D+*%
X40350000Y-28350000D02*
X40550000Y-28550000D01*
X39300000Y-28350000D02*
X40350000Y-28350000D01*
X95100000Y-41600000D02*
X52700000Y-41600000D01*
X104190000Y-47910000D02*
X102280000Y-46000000D01*
X99500000Y-46000000D02*
X95100000Y-41600000D01*
X102280000Y-46000000D02*
X99500000Y-46000000D01*
%TO.N,Net-(R9-Pad2)*%
X105300000Y-60700000D02*
X107900000Y-58100000D01*
X107900000Y-58100000D02*
X107900000Y-53750000D01*
X105300000Y-62000000D02*
X105300000Y-60700000D01*
%TO.N,RE1_A*%
X105254011Y-46154011D02*
X105254011Y-46002141D01*
X105600000Y-46500000D02*
X105254011Y-46154011D01*
X103771456Y-42395720D02*
X99600000Y-38224264D01*
X99600000Y-38224264D02*
X99600000Y-37800000D01*
X103771456Y-44519586D02*
X103771456Y-42395720D01*
X105254011Y-46002141D02*
X103771456Y-44519586D01*
X87783427Y-27420991D02*
X88360426Y-27997990D01*
X85586942Y-27420990D02*
X87783427Y-27420991D01*
X84332932Y-28675000D02*
X85586942Y-27420990D01*
X64863058Y-27045990D02*
X66492068Y-28675000D01*
X62136943Y-27820989D02*
X62911943Y-27045989D01*
X66492068Y-28675000D02*
X84332932Y-28675000D01*
X53379011Y-27820989D02*
X62136943Y-27820989D01*
X62911943Y-27045989D02*
X64863058Y-27045990D01*
X88360426Y-27997990D02*
X99025000Y-27997990D01*
X52200000Y-29000000D02*
X53379011Y-27820989D01*
X49400000Y-29000000D02*
X52200000Y-29000000D01*
%TO.N,RE1_B*%
X88370368Y-28650000D02*
X99900000Y-28650000D01*
X50875000Y-31050000D02*
X53650001Y-28274999D01*
X50875000Y-32525000D02*
X50875000Y-31050000D01*
X84500000Y-29150000D02*
X85774999Y-27875001D01*
X66325000Y-29150000D02*
X84500000Y-29150000D01*
X64675000Y-27500000D02*
X66325000Y-29150000D01*
X63100000Y-27500000D02*
X64675000Y-27500000D01*
X53650001Y-28274999D02*
X62325001Y-28274999D01*
X62325001Y-28274999D02*
X63100000Y-27500000D01*
X87595369Y-27875001D02*
X88370368Y-28650000D01*
X85774999Y-27875001D02*
X87595369Y-27875001D01*
X49400000Y-34000000D02*
X50875000Y-32525000D01*
X99900000Y-28650000D02*
X103332489Y-25217511D01*
X103332489Y-25217511D02*
X128602001Y-25217511D01*
X128602001Y-25217511D02*
X128775000Y-25390510D01*
X105900000Y-46100000D02*
X105708022Y-45908022D01*
X105708021Y-45814083D02*
X104225467Y-44331529D01*
X105708022Y-45908022D02*
X105708021Y-45814083D01*
X100400000Y-38162100D02*
X100400000Y-37725000D01*
X104225467Y-41987567D02*
X100400000Y-38162100D01*
X104225467Y-44331529D02*
X104225467Y-41987567D01*
%TO.N,RE3_B*%
X121959136Y-59325000D02*
X122451115Y-58833021D01*
X111116936Y-51442753D02*
X111716973Y-52042790D01*
X110764823Y-50943503D02*
X111116936Y-51295616D01*
X115007990Y-57732990D02*
X116183391Y-57732990D01*
X111716973Y-52042790D02*
X111716973Y-54441973D01*
X116183391Y-57732990D02*
X117775401Y-59325000D01*
X117775401Y-59325000D02*
X121959136Y-59325000D01*
X122451115Y-58833021D02*
X185166983Y-58833021D01*
X185166983Y-58833021D02*
X186800004Y-57200000D01*
X111116936Y-51295616D02*
X111116936Y-51442753D01*
X111716973Y-54441973D02*
X115007990Y-57732990D01*
%TO.N,RE3_A*%
X111500000Y-48950000D02*
X112096344Y-49546344D01*
X112096344Y-49546344D02*
X112096344Y-49789832D01*
X116347034Y-57250000D02*
X115167068Y-57250000D01*
X186675736Y-56400000D02*
X184696726Y-58379010D01*
X184696726Y-58379010D02*
X122263058Y-58379010D01*
X187100000Y-56400000D02*
X186675736Y-56400000D01*
X121771079Y-58870989D02*
X117968023Y-58870989D01*
X122263058Y-58379010D02*
X121771079Y-58870989D01*
X112370948Y-54453880D02*
X112370948Y-52679591D01*
X117968023Y-58870989D02*
X116347034Y-57250000D01*
X115167068Y-57250000D02*
X112370948Y-54453880D01*
%TO.N,RE4_B*%
X233200001Y-39600001D02*
X231972993Y-40827009D01*
X206072991Y-40827009D02*
X205900000Y-41000000D01*
X231972993Y-40827009D02*
X206072991Y-40827009D01*
X110808951Y-52418906D02*
X110808951Y-56899814D01*
X110808951Y-56899814D02*
X115013147Y-61104010D01*
X121464262Y-61104010D02*
X122827231Y-59741041D01*
X115013147Y-61104010D02*
X121464262Y-61104010D01*
X110050000Y-51650000D02*
X110050000Y-51659953D01*
X186258959Y-59741041D02*
X186800000Y-59200000D01*
X110050000Y-51659953D02*
X110808951Y-52418906D01*
X122827231Y-59741041D02*
X186258959Y-59741041D01*
%TO.N,RE4_A*%
X232235565Y-39554415D02*
X231416982Y-40372998D01*
X204905443Y-40372998D02*
X204896920Y-40381521D01*
X231416982Y-40372998D02*
X204905443Y-40372998D01*
X185826242Y-59287030D02*
X187106637Y-58006635D01*
X121276204Y-60650000D02*
X122639174Y-59287030D01*
X115216606Y-60647007D02*
X120947007Y-60647007D01*
X111262962Y-52230849D02*
X111262962Y-56693363D01*
X110720602Y-51688489D02*
X111262962Y-52230849D01*
X122639174Y-59287030D02*
X185826242Y-59287030D01*
X110720602Y-51674256D02*
X110720602Y-51688489D01*
X110400000Y-51353654D02*
X110720602Y-51674256D01*
X120950000Y-60650000D02*
X121276204Y-60650000D01*
X110400000Y-51300000D02*
X110400000Y-51353654D01*
X111262962Y-56693363D02*
X115216606Y-60647007D01*
X120947007Y-60647007D02*
X120950000Y-60650000D01*
%TO.N,RE5_A*%
X262954013Y-40345989D02*
X263500002Y-39800000D01*
X234054013Y-40345989D02*
X262954013Y-40345989D01*
X232700002Y-41700000D02*
X234054013Y-40345989D01*
X109700000Y-52000000D02*
X110354940Y-52654940D01*
X114825089Y-61558020D02*
X121652320Y-61558020D01*
X110354940Y-52654940D02*
X110354941Y-57087872D01*
X121652320Y-61558020D02*
X123012001Y-60198339D01*
X123012001Y-60198339D02*
X218527000Y-60198339D01*
X110354941Y-57087872D02*
X114825089Y-61558020D01*
X218527000Y-60198339D02*
X218700000Y-60025339D01*
%TO.N,RE5_B*%
X263400000Y-40800000D02*
X264400000Y-39800000D01*
X234486729Y-40800000D02*
X263400000Y-40800000D01*
X233582208Y-41704521D02*
X234486729Y-40800000D01*
X109900930Y-57275930D02*
X114637030Y-62012030D01*
X219147651Y-60652349D02*
X219500000Y-60300000D01*
X121840378Y-62012030D02*
X123200058Y-60652350D01*
X109900930Y-52900930D02*
X109900930Y-57275930D01*
X109350000Y-52350000D02*
X109900930Y-52900930D01*
X114637030Y-62012030D02*
X121840378Y-62012030D01*
X123200058Y-60652350D02*
X219147651Y-60652349D01*
%TO.N,RE2_1*%
X166490000Y-101060000D02*
X187490000Y-101060000D01*
X195890000Y-51860000D02*
X179090000Y-51860000D01*
X170690000Y-84660000D02*
X187490000Y-84660000D01*
X179090000Y-68260000D02*
X195890000Y-68260000D01*
X185300000Y-30200000D02*
X187850000Y-30200000D01*
X195890000Y-101060000D02*
X187490000Y-101060000D01*
X179900000Y-34000000D02*
X181500000Y-34000000D01*
X178440000Y-35460000D02*
X179900000Y-34000000D01*
X170690000Y-35460000D02*
X178440000Y-35460000D01*
%TO.N,RE3_1*%
X220310000Y-106140000D02*
X207710000Y-106140000D01*
X212690000Y-68260000D02*
X216890000Y-68260000D01*
X212690000Y-51860000D02*
X216890000Y-51860000D01*
X229490000Y-68260000D02*
X216890000Y-68260000D01*
X204290000Y-84660000D02*
X221090000Y-84660000D01*
X229490000Y-68260000D02*
X229507001Y-68277001D01*
X237872999Y-68277001D02*
X237890000Y-68260000D01*
X229507001Y-68277001D02*
X237872999Y-68277001D01*
X215200000Y-46600000D02*
X215100000Y-46700000D01*
X229650000Y-46600000D02*
X215200000Y-46600000D01*
X225290000Y-101060000D02*
X221090000Y-101060000D01*
X226250000Y-100100000D02*
X225290000Y-101060000D01*
X258429162Y-100100000D02*
X226250000Y-100100000D01*
X260817001Y-102487839D02*
X258429162Y-100100000D01*
X260817001Y-104712161D02*
X260817001Y-102487839D01*
X259389162Y-106140000D02*
X260817001Y-104712161D01*
X220310000Y-106140000D02*
X259389162Y-106140000D01*
X204280000Y-35450000D02*
X204290000Y-35460000D01*
X202114977Y-36235023D02*
X202900000Y-35450000D01*
X198360000Y-35460000D02*
X199135023Y-36235023D01*
X202900000Y-35450000D02*
X204280000Y-35450000D01*
X199135023Y-36235023D02*
X202114977Y-36235023D01*
X187490000Y-35460000D02*
X198360000Y-35460000D01*
X213450000Y-34000000D02*
X215100000Y-34000000D01*
X211990000Y-35460000D02*
X213450000Y-34000000D01*
X204290000Y-35460000D02*
X211990000Y-35460000D01*
%TO.N,RE4_1*%
X233690000Y-101060000D02*
X254690000Y-101060000D01*
X246290000Y-68260000D02*
X254690000Y-68260000D01*
X229490000Y-51860000D02*
X254690000Y-51860000D01*
X237890000Y-84660000D02*
X254690000Y-84660000D01*
X260900000Y-63000000D02*
X263650000Y-63000000D01*
X245330001Y-67300001D02*
X233399999Y-67300001D01*
X233399999Y-67300001D02*
X233100000Y-67600000D01*
X246290000Y-68260000D02*
X245330001Y-67300001D01*
X237850000Y-35500000D02*
X237890000Y-35460000D01*
X236100000Y-35500000D02*
X237850000Y-35500000D01*
X235300000Y-36300000D02*
X236100000Y-35500000D01*
X233200000Y-36300000D02*
X235300000Y-36300000D01*
X232360000Y-35460000D02*
X233200000Y-36300000D01*
X221090000Y-35460000D02*
X232360000Y-35460000D01*
X237890000Y-35460000D02*
X245790000Y-35460000D01*
X245790000Y-35460000D02*
X247250000Y-34000000D01*
X247250000Y-34000000D02*
X248700000Y-34000000D01*
%TO.N,RE5_1*%
X271490000Y-68260000D02*
X263090000Y-68260000D01*
X263090000Y-51860000D02*
X271490000Y-51860000D01*
X282900000Y-85000000D02*
X281850000Y-85000000D01*
X271490000Y-101060000D02*
X288290000Y-101060000D01*
X271490000Y-51860000D02*
X277011884Y-51860000D01*
X277011884Y-51860000D02*
X277025942Y-51874058D01*
X280660000Y-84660000D02*
X271490000Y-84660000D01*
X281000000Y-85000000D02*
X280660000Y-84660000D01*
X281850000Y-85000000D02*
X281000000Y-85000000D01*
X278060000Y-68260000D02*
X278300000Y-68500000D01*
X271490000Y-68260000D02*
X278060000Y-68260000D01*
X254690000Y-35460000D02*
X254780000Y-35550000D01*
X254780000Y-35550000D02*
X259525000Y-35550000D01*
X270089992Y-35460008D02*
X271490000Y-35460008D01*
X259525000Y-35550000D02*
X260729011Y-36754011D01*
X268795989Y-36754011D02*
X270089992Y-35460008D01*
X260729011Y-36754011D02*
X268795989Y-36754011D01*
X280050000Y-34000000D02*
X278575000Y-35475000D01*
X271504992Y-35475000D02*
X271490000Y-35460008D01*
X282300000Y-34000000D02*
X280050000Y-34000000D01*
X278575000Y-35475000D02*
X271504992Y-35475000D01*
%TO.N,Net-(D94-Pad1)*%
X284090000Y-68260000D02*
X288290000Y-68260000D01*
X284090000Y-51860000D02*
X288290000Y-51860000D01*
X281554002Y-68260000D02*
X281547001Y-68252999D01*
X284090000Y-68260000D02*
X281554002Y-68260000D01*
X281250000Y-95800000D02*
X282500000Y-95800000D01*
X284100000Y-94200000D02*
X289500000Y-94200000D01*
X282500000Y-95800000D02*
X284100000Y-94200000D01*
%TO.N,SCL*%
X125500000Y-54200000D02*
X120000000Y-54200000D01*
X129450000Y-53050000D02*
X126650000Y-53050000D01*
X126650000Y-53050000D02*
X125500000Y-54200000D01*
X130850000Y-51650000D02*
X129450000Y-53050000D01*
X110057716Y-47549390D02*
X111014410Y-46592696D01*
X111692700Y-46592696D02*
X112400004Y-47300000D01*
X111014410Y-46592696D02*
X111692700Y-46592696D01*
%TO.N,SDA*%
X126167010Y-55567010D02*
X129182990Y-55567010D01*
X129182990Y-55567010D02*
X129750000Y-55000000D01*
X119542411Y-54849999D02*
X125449999Y-54849999D01*
X129750000Y-53700000D02*
X131825001Y-51624999D01*
X125449999Y-54849999D02*
X126167010Y-55567010D01*
X119192412Y-54500000D02*
X119542411Y-54849999D01*
X129750000Y-55000000D02*
X129750000Y-53700000D01*
X111094517Y-47219697D02*
X111383872Y-47219697D01*
X110411270Y-47902944D02*
X111094517Y-47219697D01*
%TO.N,RE2_A*%
X110750000Y-48300000D02*
X111203292Y-47846708D01*
X111203292Y-47846708D02*
X112038833Y-47846708D01*
X112038833Y-47846708D02*
X113340831Y-49148706D01*
X121450001Y-55700001D02*
X119800005Y-55700001D01*
X119800005Y-55700001D02*
X118700000Y-56800006D01*
X122550000Y-56800000D02*
X121450001Y-55700001D01*
X162600000Y-56800000D02*
X122550000Y-56800000D01*
%TO.N,RE2_B*%
X121600000Y-58400000D02*
X118825000Y-58400000D01*
X118825000Y-58400000D02*
X117825000Y-57400000D01*
X162850001Y-57449999D02*
X122550001Y-57449999D01*
X163500000Y-56800000D02*
X162850001Y-57449999D01*
X122550001Y-57449999D02*
X121600000Y-58400000D01*
X112723345Y-49257581D02*
X112723345Y-50046350D01*
X111427710Y-48300718D02*
X111766482Y-48300718D01*
X111118377Y-48610051D02*
X111427710Y-48300718D01*
X111766482Y-48300718D02*
X112723345Y-49257581D01*
X112723345Y-50046350D02*
X112997952Y-50320957D01*
%TO.N,AUDIO*%
X73807324Y-59509490D02*
X38409488Y-59509490D01*
X38409488Y-59509490D02*
X38399999Y-59500001D01*
X29500000Y-30400000D02*
X29500000Y-28800000D01*
X83929342Y-63142696D02*
X77307304Y-63142696D01*
X84623518Y-62448520D02*
X83929342Y-63142696D01*
X103474431Y-62448520D02*
X84623518Y-62448520D01*
X104749618Y-63723707D02*
X103474431Y-62448520D01*
X105792157Y-63723707D02*
X104749618Y-63723707D01*
X108650000Y-53050000D02*
X109446927Y-53846927D01*
X109446927Y-60068937D02*
X105792157Y-63723707D01*
X109446927Y-53846927D02*
X109446927Y-60068937D01*
%TO.N,RESET*%
X37950000Y-63300000D02*
X38000000Y-63350000D01*
X35100000Y-63300000D02*
X37950000Y-63300000D01*
X38000000Y-63350000D02*
X44200000Y-63350000D01*
X100250000Y-59850000D02*
X99270043Y-60829957D01*
X70095043Y-60829957D02*
X67575000Y-63350000D01*
X67575000Y-63350000D02*
X44200000Y-63350000D01*
X100250000Y-59750000D02*
X100250000Y-59850000D01*
X99270043Y-60829957D02*
X70095043Y-60829957D01*
X124375000Y-34275000D02*
X107650000Y-34275000D01*
X126950000Y-36850000D02*
X124375000Y-34275000D01*
X126950000Y-39580000D02*
X126950000Y-36850000D01*
X132470000Y-45100000D02*
X126950000Y-39580000D01*
X106665764Y-43200000D02*
X106539510Y-43200000D01*
X108260000Y-45750000D02*
X108599282Y-45410718D01*
X108599282Y-45133518D02*
X106665764Y-43200000D01*
X108599282Y-45410718D02*
X108599282Y-45133518D01*
X106539510Y-43200000D02*
X106539510Y-40689512D01*
X106539510Y-40689512D02*
X106524998Y-40675000D01*
%TO.N,Net-(JP_LED1-Pad3)*%
X132747999Y-20822999D02*
X133275000Y-21350000D01*
X112819069Y-20822999D02*
X132747999Y-20822999D01*
X102400000Y-24400000D02*
X105548988Y-21251012D01*
X105548988Y-21251012D02*
X112391056Y-21251012D01*
X93000000Y-24400000D02*
X102400000Y-24400000D01*
X112391056Y-21251012D02*
X112819069Y-20822999D01*
%TO.N,Net-(JP_LED1-Pad2)*%
X85650001Y-19350001D02*
X48899999Y-19350001D01*
X89400000Y-23100000D02*
X85650001Y-19350001D01*
X93000000Y-23100000D02*
X89400000Y-23100000D01*
%TO.N,Net-(JP_LED1-Pad1)*%
X93000000Y-21800000D02*
X95123470Y-21800000D01*
X95123470Y-21800000D02*
X96736735Y-23413265D01*
%TD*%
%TO.N,GND*%
X36536000Y-17838000D02*
X37598000Y-17838000D01*
X37598000Y-17818000D01*
X37852000Y-17818000D01*
X37852000Y-17838000D01*
X38808230Y-17838000D01*
X38840934Y-17855389D01*
X38906737Y-17882511D01*
X38972102Y-17910526D01*
X38982572Y-17913768D01*
X39075990Y-17941973D01*
X39145776Y-17955791D01*
X39215383Y-17970586D01*
X39226284Y-17971732D01*
X39323401Y-17981254D01*
X39323406Y-17981254D01*
X39361439Y-17985000D01*
X39673000Y-17985000D01*
X39673000Y-18704710D01*
X39573738Y-18803972D01*
X39471414Y-18957111D01*
X39400932Y-19127271D01*
X39365000Y-19307911D01*
X39365000Y-19492089D01*
X39400932Y-19672729D01*
X39471414Y-19842889D01*
X39573738Y-19996028D01*
X39673000Y-20095290D01*
X39673000Y-23972038D01*
X34587000Y-23933653D01*
X34587000Y-23285000D01*
X34769552Y-23285000D01*
X34955022Y-23248108D01*
X35100000Y-23188056D01*
X35244978Y-23248108D01*
X35430448Y-23285000D01*
X35619552Y-23285000D01*
X35805022Y-23248108D01*
X35950420Y-23187882D01*
X36089992Y-23246581D01*
X36275260Y-23284475D01*
X36464361Y-23285497D01*
X36650028Y-23249608D01*
X36825126Y-23178187D01*
X36834323Y-23173270D01*
X36847931Y-22977536D01*
X36452639Y-22582244D01*
X36485000Y-22419552D01*
X36485000Y-22230448D01*
X36484171Y-22226281D01*
X36568748Y-22310858D01*
X36554605Y-22325000D01*
X36656095Y-22426490D01*
X36675108Y-22471343D01*
X36806940Y-22665169D01*
X36974052Y-22829552D01*
X37170023Y-22958174D01*
X37387321Y-23046093D01*
X37414627Y-23046776D01*
X37598000Y-22921392D01*
X37598000Y-21472000D01*
X37852000Y-21472000D01*
X37852000Y-22921392D01*
X38035373Y-23046776D01*
X38062679Y-23046093D01*
X38279977Y-22958174D01*
X38475948Y-22829552D01*
X38643060Y-22665169D01*
X38774892Y-22471343D01*
X38866377Y-22255522D01*
X38914000Y-22026000D01*
X38914000Y-21472000D01*
X37852000Y-21472000D01*
X37598000Y-21472000D01*
X37578000Y-21472000D01*
X37578000Y-21218000D01*
X37598000Y-21218000D01*
X37598000Y-19768608D01*
X37431849Y-19655000D01*
X37598000Y-19541392D01*
X37598000Y-18092000D01*
X37852000Y-18092000D01*
X37852000Y-19541392D01*
X38018151Y-19655000D01*
X37852000Y-19768608D01*
X37852000Y-21218000D01*
X38914000Y-21218000D01*
X38914000Y-20664000D01*
X38866377Y-20434478D01*
X38774892Y-20218657D01*
X38643060Y-20024831D01*
X38475948Y-19860448D01*
X38279977Y-19731826D01*
X38090096Y-19655000D01*
X38279977Y-19578174D01*
X38475948Y-19449552D01*
X38643060Y-19285169D01*
X38774892Y-19091343D01*
X38866377Y-18875522D01*
X38914000Y-18646000D01*
X38914000Y-18092000D01*
X37852000Y-18092000D01*
X37598000Y-18092000D01*
X36536000Y-18092000D01*
X36536000Y-18646000D01*
X36583623Y-18875522D01*
X36675108Y-19091343D01*
X36806940Y-19285169D01*
X36974052Y-19449552D01*
X37170023Y-19578174D01*
X37359904Y-19655000D01*
X37170023Y-19731826D01*
X36974052Y-19860448D01*
X36806940Y-20024831D01*
X36759139Y-20095110D01*
X36660008Y-20053419D01*
X36474740Y-20015525D01*
X36285639Y-20014503D01*
X36099972Y-20050392D01*
X35949538Y-20111753D01*
X35805022Y-20051892D01*
X35619552Y-20015000D01*
X35430448Y-20015000D01*
X35275412Y-20045838D01*
X35240279Y-20003029D01*
X35216422Y-19973959D01*
X35187352Y-19950102D01*
X34124913Y-18887664D01*
X34101051Y-18858588D01*
X33985021Y-18763365D01*
X33852644Y-18692608D01*
X33709007Y-18649036D01*
X33597055Y-18638010D01*
X33597052Y-18638010D01*
X33559629Y-18634324D01*
X33522206Y-18638010D01*
X30264000Y-18638010D01*
X30264000Y-18092000D01*
X29202000Y-18092000D01*
X29202000Y-18112000D01*
X28948000Y-18112000D01*
X28948000Y-18092000D01*
X27886000Y-18092000D01*
X27886000Y-18638010D01*
X27815640Y-18638010D01*
X27565284Y-18387654D01*
X27541422Y-18358578D01*
X27425392Y-18263355D01*
X27293015Y-18192598D01*
X27185598Y-18160013D01*
X27170472Y-18110149D01*
X27103578Y-17985000D01*
X27438561Y-17985000D01*
X27471695Y-17981736D01*
X27474637Y-17981757D01*
X27485545Y-17980688D01*
X27533317Y-17975667D01*
X27553887Y-17973641D01*
X27554573Y-17973433D01*
X27582593Y-17970488D01*
X27652309Y-17956178D01*
X27722176Y-17942849D01*
X27732669Y-17939682D01*
X27825888Y-17910826D01*
X27891507Y-17883242D01*
X27957449Y-17856599D01*
X27967119Y-17851458D01*
X27967122Y-17851457D01*
X27967124Y-17851455D01*
X27967127Y-17851454D01*
X27992009Y-17838000D01*
X28948000Y-17838000D01*
X28948000Y-17818000D01*
X29202000Y-17818000D01*
X29202000Y-17838000D01*
X30264000Y-17838000D01*
X30264000Y-17485000D01*
X36536000Y-17485000D01*
X36536000Y-17838000D01*
%TA.AperFunction,Conductor*%
D32*
G36*
X36536000Y-17838000D02*
G01*
X37598000Y-17838000D01*
X37598000Y-17818000D01*
X37852000Y-17818000D01*
X37852000Y-17838000D01*
X38808230Y-17838000D01*
X38840934Y-17855389D01*
X38906737Y-17882511D01*
X38972102Y-17910526D01*
X38982572Y-17913768D01*
X39075990Y-17941973D01*
X39145776Y-17955791D01*
X39215383Y-17970586D01*
X39226284Y-17971732D01*
X39323401Y-17981254D01*
X39323406Y-17981254D01*
X39361439Y-17985000D01*
X39673000Y-17985000D01*
X39673000Y-18704710D01*
X39573738Y-18803972D01*
X39471414Y-18957111D01*
X39400932Y-19127271D01*
X39365000Y-19307911D01*
X39365000Y-19492089D01*
X39400932Y-19672729D01*
X39471414Y-19842889D01*
X39573738Y-19996028D01*
X39673000Y-20095290D01*
X39673000Y-23972038D01*
X34587000Y-23933653D01*
X34587000Y-23285000D01*
X34769552Y-23285000D01*
X34955022Y-23248108D01*
X35100000Y-23188056D01*
X35244978Y-23248108D01*
X35430448Y-23285000D01*
X35619552Y-23285000D01*
X35805022Y-23248108D01*
X35950420Y-23187882D01*
X36089992Y-23246581D01*
X36275260Y-23284475D01*
X36464361Y-23285497D01*
X36650028Y-23249608D01*
X36825126Y-23178187D01*
X36834323Y-23173270D01*
X36847931Y-22977536D01*
X36452639Y-22582244D01*
X36485000Y-22419552D01*
X36485000Y-22230448D01*
X36484171Y-22226281D01*
X36568748Y-22310858D01*
X36554605Y-22325000D01*
X36656095Y-22426490D01*
X36675108Y-22471343D01*
X36806940Y-22665169D01*
X36974052Y-22829552D01*
X37170023Y-22958174D01*
X37387321Y-23046093D01*
X37414627Y-23046776D01*
X37598000Y-22921392D01*
X37598000Y-21472000D01*
X37852000Y-21472000D01*
X37852000Y-22921392D01*
X38035373Y-23046776D01*
X38062679Y-23046093D01*
X38279977Y-22958174D01*
X38475948Y-22829552D01*
X38643060Y-22665169D01*
X38774892Y-22471343D01*
X38866377Y-22255522D01*
X38914000Y-22026000D01*
X38914000Y-21472000D01*
X37852000Y-21472000D01*
X37598000Y-21472000D01*
X37578000Y-21472000D01*
X37578000Y-21218000D01*
X37598000Y-21218000D01*
X37598000Y-19768608D01*
X37431849Y-19655000D01*
X37598000Y-19541392D01*
X37598000Y-18092000D01*
X37852000Y-18092000D01*
X37852000Y-19541392D01*
X38018151Y-19655000D01*
X37852000Y-19768608D01*
X37852000Y-21218000D01*
X38914000Y-21218000D01*
X38914000Y-20664000D01*
X38866377Y-20434478D01*
X38774892Y-20218657D01*
X38643060Y-20024831D01*
X38475948Y-19860448D01*
X38279977Y-19731826D01*
X38090096Y-19655000D01*
X38279977Y-19578174D01*
X38475948Y-19449552D01*
X38643060Y-19285169D01*
X38774892Y-19091343D01*
X38866377Y-18875522D01*
X38914000Y-18646000D01*
X38914000Y-18092000D01*
X37852000Y-18092000D01*
X37598000Y-18092000D01*
X36536000Y-18092000D01*
X36536000Y-18646000D01*
X36583623Y-18875522D01*
X36675108Y-19091343D01*
X36806940Y-19285169D01*
X36974052Y-19449552D01*
X37170023Y-19578174D01*
X37359904Y-19655000D01*
X37170023Y-19731826D01*
X36974052Y-19860448D01*
X36806940Y-20024831D01*
X36759139Y-20095110D01*
X36660008Y-20053419D01*
X36474740Y-20015525D01*
X36285639Y-20014503D01*
X36099972Y-20050392D01*
X35949538Y-20111753D01*
X35805022Y-20051892D01*
X35619552Y-20015000D01*
X35430448Y-20015000D01*
X35275412Y-20045838D01*
X35240279Y-20003029D01*
X35216422Y-19973959D01*
X35187352Y-19950102D01*
X34124913Y-18887664D01*
X34101051Y-18858588D01*
X33985021Y-18763365D01*
X33852644Y-18692608D01*
X33709007Y-18649036D01*
X33597055Y-18638010D01*
X33597052Y-18638010D01*
X33559629Y-18634324D01*
X33522206Y-18638010D01*
X30264000Y-18638010D01*
X30264000Y-18092000D01*
X29202000Y-18092000D01*
X29202000Y-18112000D01*
X28948000Y-18112000D01*
X28948000Y-18092000D01*
X27886000Y-18092000D01*
X27886000Y-18638010D01*
X27815640Y-18638010D01*
X27565284Y-18387654D01*
X27541422Y-18358578D01*
X27425392Y-18263355D01*
X27293015Y-18192598D01*
X27185598Y-18160013D01*
X27170472Y-18110149D01*
X27103578Y-17985000D01*
X27438561Y-17985000D01*
X27471695Y-17981736D01*
X27474637Y-17981757D01*
X27485545Y-17980688D01*
X27533317Y-17975667D01*
X27553887Y-17973641D01*
X27554573Y-17973433D01*
X27582593Y-17970488D01*
X27652309Y-17956178D01*
X27722176Y-17942849D01*
X27732669Y-17939682D01*
X27825888Y-17910826D01*
X27891507Y-17883242D01*
X27957449Y-17856599D01*
X27967119Y-17851458D01*
X27967122Y-17851457D01*
X27967124Y-17851455D01*
X27967127Y-17851454D01*
X27992009Y-17838000D01*
X28948000Y-17838000D01*
X28948000Y-17818000D01*
X29202000Y-17818000D01*
X29202000Y-17838000D01*
X30264000Y-17838000D01*
X30264000Y-17485000D01*
X36536000Y-17485000D01*
X36536000Y-17838000D01*
G37*
%TD.AperFunction*%
D31*
X27013554Y-19986541D02*
X27074617Y-20036655D01*
X27103124Y-20051892D01*
X27206995Y-20107412D01*
X27350632Y-20150984D01*
X27462584Y-20162010D01*
X27462587Y-20162010D01*
X27500010Y-20165696D01*
X27537433Y-20162010D01*
X28063637Y-20162010D01*
X28025108Y-20218657D01*
X27933623Y-20434478D01*
X27886000Y-20664000D01*
X27886000Y-21218000D01*
X28948000Y-21218000D01*
X28948000Y-21198000D01*
X29202000Y-21198000D01*
X29202000Y-21218000D01*
X29222000Y-21218000D01*
X29222000Y-21472000D01*
X29202000Y-21472000D01*
X29202000Y-22921392D01*
X29385373Y-23046776D01*
X29412679Y-23046093D01*
X29629977Y-22958174D01*
X29825948Y-22829552D01*
X29993060Y-22665169D01*
X30124892Y-22471343D01*
X30143905Y-22426490D01*
X30245395Y-22325000D01*
X30231253Y-22310858D01*
X30315829Y-22226281D01*
X30315000Y-22230448D01*
X30315000Y-22419552D01*
X30347361Y-22582244D01*
X29952069Y-22977536D01*
X29965677Y-23173270D01*
X30139992Y-23246581D01*
X30325260Y-23284475D01*
X30514361Y-23285497D01*
X30700028Y-23249608D01*
X30850462Y-23188247D01*
X30994978Y-23248108D01*
X31180448Y-23285000D01*
X31363001Y-23285000D01*
X31363001Y-23438000D01*
X28115631Y-23438000D01*
X26965676Y-22288045D01*
X26977962Y-22277962D01*
X27088405Y-22143387D01*
X27170472Y-21989851D01*
X27221008Y-21823255D01*
X27238072Y-21650001D01*
X27238072Y-21472000D01*
X27886000Y-21472000D01*
X27886000Y-22026000D01*
X27933623Y-22255522D01*
X28025108Y-22471343D01*
X28156940Y-22665169D01*
X28324052Y-22829552D01*
X28520023Y-22958174D01*
X28737321Y-23046093D01*
X28764627Y-23046776D01*
X28948000Y-22921392D01*
X28948000Y-21472000D01*
X27886000Y-21472000D01*
X27238072Y-21472000D01*
X27238072Y-20749999D01*
X27221008Y-20576745D01*
X27170472Y-20410149D01*
X27088405Y-20256613D01*
X26977962Y-20122038D01*
X26890184Y-20050000D01*
X26977962Y-19977962D01*
X26988079Y-19965634D01*
X27013554Y-19986541D01*
%TA.AperFunction,Conductor*%
D32*
G36*
X27013554Y-19986541D02*
G01*
X27074617Y-20036655D01*
X27103124Y-20051892D01*
X27206995Y-20107412D01*
X27350632Y-20150984D01*
X27462584Y-20162010D01*
X27462587Y-20162010D01*
X27500010Y-20165696D01*
X27537433Y-20162010D01*
X28063637Y-20162010D01*
X28025108Y-20218657D01*
X27933623Y-20434478D01*
X27886000Y-20664000D01*
X27886000Y-21218000D01*
X28948000Y-21218000D01*
X28948000Y-21198000D01*
X29202000Y-21198000D01*
X29202000Y-21218000D01*
X29222000Y-21218000D01*
X29222000Y-21472000D01*
X29202000Y-21472000D01*
X29202000Y-22921392D01*
X29385373Y-23046776D01*
X29412679Y-23046093D01*
X29629977Y-22958174D01*
X29825948Y-22829552D01*
X29993060Y-22665169D01*
X30124892Y-22471343D01*
X30143905Y-22426490D01*
X30245395Y-22325000D01*
X30231253Y-22310858D01*
X30315829Y-22226281D01*
X30315000Y-22230448D01*
X30315000Y-22419552D01*
X30347361Y-22582244D01*
X29952069Y-22977536D01*
X29965677Y-23173270D01*
X30139992Y-23246581D01*
X30325260Y-23284475D01*
X30514361Y-23285497D01*
X30700028Y-23249608D01*
X30850462Y-23188247D01*
X30994978Y-23248108D01*
X31180448Y-23285000D01*
X31363001Y-23285000D01*
X31363001Y-23438000D01*
X28115631Y-23438000D01*
X26965676Y-22288045D01*
X26977962Y-22277962D01*
X27088405Y-22143387D01*
X27170472Y-21989851D01*
X27221008Y-21823255D01*
X27238072Y-21650001D01*
X27238072Y-21472000D01*
X27886000Y-21472000D01*
X27886000Y-22026000D01*
X27933623Y-22255522D01*
X28025108Y-22471343D01*
X28156940Y-22665169D01*
X28324052Y-22829552D01*
X28520023Y-22958174D01*
X28737321Y-23046093D01*
X28764627Y-23046776D01*
X28948000Y-22921392D01*
X28948000Y-21472000D01*
X27886000Y-21472000D01*
X27238072Y-21472000D01*
X27238072Y-20749999D01*
X27221008Y-20576745D01*
X27170472Y-20410149D01*
X27088405Y-20256613D01*
X26977962Y-20122038D01*
X26890184Y-20050000D01*
X26977962Y-19977962D01*
X26988079Y-19965634D01*
X27013554Y-19986541D01*
G37*
%TD.AperFunction*%
D31*
X30315000Y-20880448D02*
X30315000Y-21069552D01*
X30315829Y-21073719D01*
X30264000Y-21021890D01*
X30264000Y-20928110D01*
X30315829Y-20876281D01*
X30315000Y-20880448D01*
%TA.AperFunction,Conductor*%
D32*
G36*
X30315000Y-20880448D02*
G01*
X30315000Y-21069552D01*
X30315829Y-21073719D01*
X30264000Y-21021890D01*
X30264000Y-20928110D01*
X30315829Y-20876281D01*
X30315000Y-20880448D01*
G37*
%TD.AperFunction*%
D31*
X36536000Y-20928110D02*
X36536000Y-21021890D01*
X36484171Y-21073719D01*
X36485000Y-21069552D01*
X36485000Y-20880448D01*
X36484171Y-20876281D01*
X36536000Y-20928110D01*
%TA.AperFunction,Conductor*%
D32*
G36*
X36536000Y-20928110D02*
G01*
X36536000Y-21021890D01*
X36484171Y-21073719D01*
X36485000Y-21069552D01*
X36485000Y-20880448D01*
X36484171Y-20876281D01*
X36536000Y-20928110D01*
G37*
%TD.AperFunction*%
%TD*%
D31*
%TO.N,GND*%
X123506066Y-46296523D02*
X120711540Y-49216928D01*
X120015000Y-49216928D01*
X119841746Y-49233992D01*
X119675150Y-49284528D01*
X119521614Y-49366595D01*
X119387038Y-49477038D01*
X119309661Y-49571323D01*
X119271833Y-49500551D01*
X119117502Y-49312498D01*
X118929449Y-49158167D01*
X118714901Y-49043489D01*
X118482102Y-48972870D01*
X118240000Y-48949025D01*
X117997899Y-48972870D01*
X117765100Y-49043489D01*
X117550552Y-49158167D01*
X117362499Y-49312498D01*
X117208168Y-49500551D01*
X117175000Y-49562604D01*
X117175000Y-49247548D01*
X117153657Y-49030850D01*
X117069315Y-48752811D01*
X116932351Y-48496569D01*
X116748027Y-48271972D01*
X116523430Y-48087649D01*
X116267188Y-47950685D01*
X115989149Y-47866343D01*
X115700000Y-47837864D01*
X115410850Y-47866343D01*
X115132811Y-47950685D01*
X114876569Y-48087649D01*
X114651972Y-48271973D01*
X114596188Y-48339946D01*
X113299526Y-47029552D01*
X113299072Y-47027271D01*
X113228590Y-46857111D01*
X113126266Y-46703972D01*
X112996032Y-46573738D01*
X112842893Y-46471414D01*
X112680799Y-46404273D01*
X112330711Y-46050478D01*
X114098970Y-46050478D01*
X115167013Y-47118521D01*
X115263704Y-47197873D01*
X115374018Y-47256838D01*
X115493716Y-47293148D01*
X115618198Y-47305408D01*
X115742680Y-47293148D01*
X115862378Y-47256838D01*
X115972692Y-47197873D01*
X116016929Y-47161569D01*
X116021381Y-47176246D01*
X116103448Y-47329782D01*
X116213891Y-47464358D01*
X116885642Y-48136109D01*
X117020218Y-48246552D01*
X117173754Y-48328619D01*
X117340350Y-48379155D01*
X117513604Y-48396219D01*
X117686858Y-48379155D01*
X117853454Y-48328619D01*
X118006990Y-48246552D01*
X118141566Y-48136109D01*
X118618863Y-47658812D01*
X118729306Y-47524236D01*
X118811373Y-47370700D01*
X118861909Y-47204104D01*
X118878973Y-47030850D01*
X118878142Y-47022411D01*
X118980850Y-47032527D01*
X119105331Y-47020266D01*
X119225030Y-46983957D01*
X119335344Y-46924993D01*
X119432035Y-46845640D01*
X119643232Y-46630098D01*
X119643232Y-46405592D01*
X118883623Y-45645982D01*
X118869481Y-45660125D01*
X118689876Y-45480520D01*
X118704018Y-45466377D01*
X119063228Y-45466377D01*
X119822838Y-46225986D01*
X120047344Y-46225986D01*
X120262886Y-46014789D01*
X120342239Y-45918098D01*
X120401203Y-45807784D01*
X120437512Y-45688085D01*
X120449773Y-45563604D01*
X120437512Y-45439123D01*
X120401203Y-45319425D01*
X120342239Y-45209110D01*
X120262886Y-45112419D01*
X119950117Y-44803995D01*
X119725610Y-44803995D01*
X119063228Y-45466377D01*
X118704018Y-45466377D01*
X118127897Y-44890257D01*
X118127897Y-44831156D01*
X117138478Y-43841737D01*
X117124336Y-43855880D01*
X116944731Y-43676275D01*
X116958873Y-43662132D01*
X117318083Y-43662132D01*
X118124014Y-44468063D01*
X118124014Y-44527162D01*
X118883623Y-45286772D01*
X119546005Y-44624390D01*
X119546005Y-44399883D01*
X119237581Y-44087114D01*
X119140890Y-44007761D01*
X119112794Y-43992744D01*
X119143148Y-43892679D01*
X119155408Y-43768198D01*
X119143148Y-43643717D01*
X119106838Y-43524018D01*
X119047874Y-43413704D01*
X118968521Y-43317013D01*
X118425943Y-42778779D01*
X118201436Y-42778779D01*
X117318083Y-43662132D01*
X116958873Y-43662132D01*
X116944731Y-43647990D01*
X117124336Y-43468385D01*
X117138478Y-43482527D01*
X118021831Y-42599174D01*
X118021831Y-42374667D01*
X117483597Y-41832089D01*
X117386906Y-41752736D01*
X117276592Y-41693772D01*
X117156893Y-41657462D01*
X117098308Y-41651692D01*
X117092538Y-41593106D01*
X117056228Y-41473408D01*
X116997263Y-41363094D01*
X116917911Y-41266403D01*
X115432987Y-39781479D01*
X115336296Y-39702127D01*
X115225982Y-39643162D01*
X115106284Y-39606852D01*
X114981802Y-39594592D01*
X114857320Y-39606852D01*
X114737622Y-39643162D01*
X114627308Y-39702127D01*
X114530617Y-39781479D01*
X114374545Y-39937551D01*
X114312886Y-39862419D01*
X114000117Y-39553995D01*
X113775610Y-39553995D01*
X113113228Y-40216377D01*
X113127371Y-40230519D01*
X112947766Y-40410125D01*
X112933623Y-40395982D01*
X112919481Y-40410125D01*
X112739876Y-40230520D01*
X112754018Y-40216377D01*
X112739875Y-40202235D01*
X112919481Y-40022629D01*
X112933623Y-40036772D01*
X113596005Y-39374390D01*
X113596005Y-39149883D01*
X113458705Y-39010648D01*
X113612351Y-38823431D01*
X113749315Y-38567189D01*
X113833657Y-38289150D01*
X113862136Y-38000000D01*
X113833657Y-37710850D01*
X113749315Y-37432811D01*
X113612351Y-37176569D01*
X113428028Y-36951972D01*
X113203431Y-36767649D01*
X112947189Y-36630685D01*
X112669150Y-36546343D01*
X112452452Y-36525000D01*
X111727548Y-36525000D01*
X111510850Y-36546343D01*
X111232811Y-36630685D01*
X110976569Y-36767649D01*
X110751972Y-36951972D01*
X110567649Y-37176569D01*
X110430685Y-37432811D01*
X110346343Y-37710850D01*
X110317864Y-38000000D01*
X110346343Y-38289150D01*
X110430685Y-38567189D01*
X110567649Y-38823431D01*
X110751972Y-39048028D01*
X110976569Y-39232351D01*
X111232811Y-39369315D01*
X111510850Y-39453657D01*
X111727548Y-39475000D01*
X111751295Y-39475000D01*
X111554360Y-39667965D01*
X111475007Y-39764656D01*
X111416043Y-39874970D01*
X111379734Y-39994669D01*
X111367473Y-40119150D01*
X111377589Y-40221858D01*
X111369150Y-40221027D01*
X111195896Y-40238091D01*
X111029300Y-40288627D01*
X110875764Y-40370694D01*
X110741188Y-40481137D01*
X110263891Y-40958434D01*
X110153448Y-41093010D01*
X110071381Y-41246546D01*
X110020845Y-41413142D01*
X110003781Y-41586396D01*
X110020845Y-41759650D01*
X110071381Y-41926246D01*
X110153448Y-42079782D01*
X110263891Y-42214358D01*
X110704378Y-42654845D01*
X110704377Y-44406920D01*
X107381979Y-41049337D01*
X107424066Y-40947729D01*
X107459998Y-40767089D01*
X107459998Y-40625000D01*
X107558540Y-40625000D01*
X108065684Y-40524122D01*
X108543404Y-40326245D01*
X108973340Y-40038970D01*
X109338970Y-39673340D01*
X109626245Y-39243404D01*
X109824122Y-38765684D01*
X109925000Y-38258540D01*
X109925000Y-37741460D01*
X109824122Y-37234316D01*
X109750616Y-37056856D01*
X111683409Y-35037000D01*
X112364535Y-35037000D01*
X123506066Y-46296523D01*
%TA.AperFunction,Conductor*%
D32*
G36*
X123506066Y-46296523D02*
G01*
X120711540Y-49216928D01*
X120015000Y-49216928D01*
X119841746Y-49233992D01*
X119675150Y-49284528D01*
X119521614Y-49366595D01*
X119387038Y-49477038D01*
X119309661Y-49571323D01*
X119271833Y-49500551D01*
X119117502Y-49312498D01*
X118929449Y-49158167D01*
X118714901Y-49043489D01*
X118482102Y-48972870D01*
X118240000Y-48949025D01*
X117997899Y-48972870D01*
X117765100Y-49043489D01*
X117550552Y-49158167D01*
X117362499Y-49312498D01*
X117208168Y-49500551D01*
X117175000Y-49562604D01*
X117175000Y-49247548D01*
X117153657Y-49030850D01*
X117069315Y-48752811D01*
X116932351Y-48496569D01*
X116748027Y-48271972D01*
X116523430Y-48087649D01*
X116267188Y-47950685D01*
X115989149Y-47866343D01*
X115700000Y-47837864D01*
X115410850Y-47866343D01*
X115132811Y-47950685D01*
X114876569Y-48087649D01*
X114651972Y-48271973D01*
X114596188Y-48339946D01*
X113299526Y-47029552D01*
X113299072Y-47027271D01*
X113228590Y-46857111D01*
X113126266Y-46703972D01*
X112996032Y-46573738D01*
X112842893Y-46471414D01*
X112680799Y-46404273D01*
X112330711Y-46050478D01*
X114098970Y-46050478D01*
X115167013Y-47118521D01*
X115263704Y-47197873D01*
X115374018Y-47256838D01*
X115493716Y-47293148D01*
X115618198Y-47305408D01*
X115742680Y-47293148D01*
X115862378Y-47256838D01*
X115972692Y-47197873D01*
X116016929Y-47161569D01*
X116021381Y-47176246D01*
X116103448Y-47329782D01*
X116213891Y-47464358D01*
X116885642Y-48136109D01*
X117020218Y-48246552D01*
X117173754Y-48328619D01*
X117340350Y-48379155D01*
X117513604Y-48396219D01*
X117686858Y-48379155D01*
X117853454Y-48328619D01*
X118006990Y-48246552D01*
X118141566Y-48136109D01*
X118618863Y-47658812D01*
X118729306Y-47524236D01*
X118811373Y-47370700D01*
X118861909Y-47204104D01*
X118878973Y-47030850D01*
X118878142Y-47022411D01*
X118980850Y-47032527D01*
X119105331Y-47020266D01*
X119225030Y-46983957D01*
X119335344Y-46924993D01*
X119432035Y-46845640D01*
X119643232Y-46630098D01*
X119643232Y-46405592D01*
X118883623Y-45645982D01*
X118869481Y-45660125D01*
X118689876Y-45480520D01*
X118704018Y-45466377D01*
X119063228Y-45466377D01*
X119822838Y-46225986D01*
X120047344Y-46225986D01*
X120262886Y-46014789D01*
X120342239Y-45918098D01*
X120401203Y-45807784D01*
X120437512Y-45688085D01*
X120449773Y-45563604D01*
X120437512Y-45439123D01*
X120401203Y-45319425D01*
X120342239Y-45209110D01*
X120262886Y-45112419D01*
X119950117Y-44803995D01*
X119725610Y-44803995D01*
X119063228Y-45466377D01*
X118704018Y-45466377D01*
X118127897Y-44890257D01*
X118127897Y-44831156D01*
X117138478Y-43841737D01*
X117124336Y-43855880D01*
X116944731Y-43676275D01*
X116958873Y-43662132D01*
X117318083Y-43662132D01*
X118124014Y-44468063D01*
X118124014Y-44527162D01*
X118883623Y-45286772D01*
X119546005Y-44624390D01*
X119546005Y-44399883D01*
X119237581Y-44087114D01*
X119140890Y-44007761D01*
X119112794Y-43992744D01*
X119143148Y-43892679D01*
X119155408Y-43768198D01*
X119143148Y-43643717D01*
X119106838Y-43524018D01*
X119047874Y-43413704D01*
X118968521Y-43317013D01*
X118425943Y-42778779D01*
X118201436Y-42778779D01*
X117318083Y-43662132D01*
X116958873Y-43662132D01*
X116944731Y-43647990D01*
X117124336Y-43468385D01*
X117138478Y-43482527D01*
X118021831Y-42599174D01*
X118021831Y-42374667D01*
X117483597Y-41832089D01*
X117386906Y-41752736D01*
X117276592Y-41693772D01*
X117156893Y-41657462D01*
X117098308Y-41651692D01*
X117092538Y-41593106D01*
X117056228Y-41473408D01*
X116997263Y-41363094D01*
X116917911Y-41266403D01*
X115432987Y-39781479D01*
X115336296Y-39702127D01*
X115225982Y-39643162D01*
X115106284Y-39606852D01*
X114981802Y-39594592D01*
X114857320Y-39606852D01*
X114737622Y-39643162D01*
X114627308Y-39702127D01*
X114530617Y-39781479D01*
X114374545Y-39937551D01*
X114312886Y-39862419D01*
X114000117Y-39553995D01*
X113775610Y-39553995D01*
X113113228Y-40216377D01*
X113127371Y-40230519D01*
X112947766Y-40410125D01*
X112933623Y-40395982D01*
X112919481Y-40410125D01*
X112739876Y-40230520D01*
X112754018Y-40216377D01*
X112739875Y-40202235D01*
X112919481Y-40022629D01*
X112933623Y-40036772D01*
X113596005Y-39374390D01*
X113596005Y-39149883D01*
X113458705Y-39010648D01*
X113612351Y-38823431D01*
X113749315Y-38567189D01*
X113833657Y-38289150D01*
X113862136Y-38000000D01*
X113833657Y-37710850D01*
X113749315Y-37432811D01*
X113612351Y-37176569D01*
X113428028Y-36951972D01*
X113203431Y-36767649D01*
X112947189Y-36630685D01*
X112669150Y-36546343D01*
X112452452Y-36525000D01*
X111727548Y-36525000D01*
X111510850Y-36546343D01*
X111232811Y-36630685D01*
X110976569Y-36767649D01*
X110751972Y-36951972D01*
X110567649Y-37176569D01*
X110430685Y-37432811D01*
X110346343Y-37710850D01*
X110317864Y-38000000D01*
X110346343Y-38289150D01*
X110430685Y-38567189D01*
X110567649Y-38823431D01*
X110751972Y-39048028D01*
X110976569Y-39232351D01*
X111232811Y-39369315D01*
X111510850Y-39453657D01*
X111727548Y-39475000D01*
X111751295Y-39475000D01*
X111554360Y-39667965D01*
X111475007Y-39764656D01*
X111416043Y-39874970D01*
X111379734Y-39994669D01*
X111367473Y-40119150D01*
X111377589Y-40221858D01*
X111369150Y-40221027D01*
X111195896Y-40238091D01*
X111029300Y-40288627D01*
X110875764Y-40370694D01*
X110741188Y-40481137D01*
X110263891Y-40958434D01*
X110153448Y-41093010D01*
X110071381Y-41246546D01*
X110020845Y-41413142D01*
X110003781Y-41586396D01*
X110020845Y-41759650D01*
X110071381Y-41926246D01*
X110153448Y-42079782D01*
X110263891Y-42214358D01*
X110704378Y-42654845D01*
X110704377Y-44406920D01*
X107381979Y-41049337D01*
X107424066Y-40947729D01*
X107459998Y-40767089D01*
X107459998Y-40625000D01*
X107558540Y-40625000D01*
X108065684Y-40524122D01*
X108543404Y-40326245D01*
X108973340Y-40038970D01*
X109338970Y-39673340D01*
X109626245Y-39243404D01*
X109824122Y-38765684D01*
X109925000Y-38258540D01*
X109925000Y-37741460D01*
X109824122Y-37234316D01*
X109750616Y-37056856D01*
X111683409Y-35037000D01*
X112364535Y-35037000D01*
X123506066Y-46296523D01*
G37*
%TD.AperFunction*%
D31*
X113655270Y-43223726D02*
X113641127Y-43237868D01*
X113655270Y-43252011D01*
X113475665Y-43431616D01*
X113461522Y-43417473D01*
X112578169Y-44300826D01*
X112578169Y-44525333D01*
X112579305Y-44526478D01*
X112228377Y-44526478D01*
X112228377Y-44121221D01*
X112398564Y-44121221D01*
X113281917Y-43237868D01*
X113267775Y-43223726D01*
X113447380Y-43044121D01*
X113461522Y-43058263D01*
X113475665Y-43044121D01*
X113655270Y-43223726D01*
%TA.AperFunction,Conductor*%
D32*
G36*
X113655270Y-43223726D02*
G01*
X113641127Y-43237868D01*
X113655270Y-43252011D01*
X113475665Y-43431616D01*
X113461522Y-43417473D01*
X112578169Y-44300826D01*
X112578169Y-44525333D01*
X112579305Y-44526478D01*
X112228377Y-44526478D01*
X112228377Y-44121221D01*
X112398564Y-44121221D01*
X113281917Y-43237868D01*
X113267775Y-43223726D01*
X113447380Y-43044121D01*
X113461522Y-43058263D01*
X113475665Y-43044121D01*
X113655270Y-43223726D01*
G37*
%TD.AperFunction*%
%TD*%
D31*
%TO.N,GND*%
X107493748Y-46854658D02*
X107479605Y-46868800D01*
X108210400Y-47599595D01*
X108224543Y-47585453D01*
X108404148Y-47765058D01*
X108390005Y-47779200D01*
X109120800Y-48509995D01*
X109134943Y-48495853D01*
X109314548Y-48675458D01*
X109300405Y-48689600D01*
X110031200Y-49420395D01*
X110045343Y-49406253D01*
X110224948Y-49585858D01*
X110210805Y-49600000D01*
X110224948Y-49614143D01*
X110045343Y-49793748D01*
X110031200Y-49779605D01*
X109300405Y-50510400D01*
X109314548Y-50524543D01*
X109134943Y-50704148D01*
X109120800Y-50690005D01*
X108390005Y-51420800D01*
X108404148Y-51434943D01*
X108224543Y-51614548D01*
X108210400Y-51600405D01*
X107479605Y-52331200D01*
X107493748Y-52345343D01*
X107314143Y-52524948D01*
X107300000Y-52510805D01*
X107285858Y-52524948D01*
X107106253Y-52345343D01*
X107120395Y-52331200D01*
X106389600Y-51600405D01*
X106375458Y-51614548D01*
X106195853Y-51434943D01*
X106209995Y-51420800D01*
X106569205Y-51420800D01*
X106597843Y-51449438D01*
X106597843Y-51616669D01*
X106848815Y-51871985D01*
X107104131Y-52122957D01*
X107271362Y-52122957D01*
X107300000Y-52151595D01*
X107328638Y-52122957D01*
X107495869Y-52122957D01*
X107751185Y-51871985D01*
X108002157Y-51616669D01*
X108002157Y-51449438D01*
X108030795Y-51420800D01*
X108002157Y-51392162D01*
X108002157Y-51224931D01*
X107751185Y-50969615D01*
X107495869Y-50718643D01*
X107328638Y-50718643D01*
X107300000Y-50690005D01*
X107271362Y-50718643D01*
X107104131Y-50718643D01*
X106848815Y-50969615D01*
X106597843Y-51224931D01*
X106597843Y-51392162D01*
X106569205Y-51420800D01*
X106209995Y-51420800D01*
X105479200Y-50690005D01*
X105465058Y-50704148D01*
X105285453Y-50524543D01*
X105299595Y-50510400D01*
X105658805Y-50510400D01*
X105687443Y-50539038D01*
X105687443Y-50706269D01*
X105938415Y-50961585D01*
X106193731Y-51212557D01*
X106360962Y-51212557D01*
X106389600Y-51241195D01*
X106418238Y-51212557D01*
X106585469Y-51212557D01*
X106840785Y-50961585D01*
X107091757Y-50706269D01*
X107091757Y-50539038D01*
X107120395Y-50510400D01*
X107479605Y-50510400D01*
X107508243Y-50539038D01*
X107508243Y-50706269D01*
X107759215Y-50961585D01*
X108014531Y-51212557D01*
X108181762Y-51212557D01*
X108210400Y-51241195D01*
X108239038Y-51212557D01*
X108406269Y-51212557D01*
X108661585Y-50961585D01*
X108912557Y-50706269D01*
X108912557Y-50539038D01*
X108941195Y-50510400D01*
X108912557Y-50481762D01*
X108912557Y-50314531D01*
X108661585Y-50059215D01*
X108406269Y-49808243D01*
X108239038Y-49808243D01*
X108210400Y-49779605D01*
X108181762Y-49808243D01*
X108014531Y-49808243D01*
X107759215Y-50059215D01*
X107508243Y-50314531D01*
X107508243Y-50481762D01*
X107479605Y-50510400D01*
X107120395Y-50510400D01*
X107091757Y-50481762D01*
X107091757Y-50314531D01*
X106840785Y-50059215D01*
X106585469Y-49808243D01*
X106418238Y-49808243D01*
X106389600Y-49779605D01*
X106360962Y-49808243D01*
X106193731Y-49808243D01*
X105938415Y-50059215D01*
X105687443Y-50314531D01*
X105687443Y-50481762D01*
X105658805Y-50510400D01*
X105299595Y-50510400D01*
X104568800Y-49779605D01*
X104554658Y-49793748D01*
X104375053Y-49614143D01*
X104389195Y-49600000D01*
X104748405Y-49600000D01*
X104777043Y-49628638D01*
X104777043Y-49795869D01*
X105028015Y-50051185D01*
X105283331Y-50302157D01*
X105450562Y-50302157D01*
X105479200Y-50330795D01*
X105507838Y-50302157D01*
X105675069Y-50302157D01*
X105930385Y-50051185D01*
X106181357Y-49795869D01*
X106181357Y-49628638D01*
X106209995Y-49600000D01*
X106569205Y-49600000D01*
X106597843Y-49628638D01*
X106597843Y-49795869D01*
X106848815Y-50051185D01*
X107104131Y-50302157D01*
X107271362Y-50302157D01*
X107300000Y-50330795D01*
X107328638Y-50302157D01*
X107495869Y-50302157D01*
X107751185Y-50051185D01*
X108002157Y-49795869D01*
X108002157Y-49628638D01*
X108030795Y-49600000D01*
X108390005Y-49600000D01*
X108418643Y-49628638D01*
X108418643Y-49795869D01*
X108669615Y-50051185D01*
X108924931Y-50302157D01*
X109092162Y-50302157D01*
X109120800Y-50330795D01*
X109149438Y-50302157D01*
X109316669Y-50302157D01*
X109571985Y-50051185D01*
X109822957Y-49795869D01*
X109822957Y-49628638D01*
X109851595Y-49600000D01*
X109822957Y-49571362D01*
X109822957Y-49404131D01*
X109571985Y-49148815D01*
X109316669Y-48897843D01*
X109149438Y-48897843D01*
X109120800Y-48869205D01*
X109092162Y-48897843D01*
X108924931Y-48897843D01*
X108669615Y-49148815D01*
X108418643Y-49404131D01*
X108418643Y-49571362D01*
X108390005Y-49600000D01*
X108030795Y-49600000D01*
X108002157Y-49571362D01*
X108002157Y-49404131D01*
X107751185Y-49148815D01*
X107495869Y-48897843D01*
X107328638Y-48897843D01*
X107300000Y-48869205D01*
X107271362Y-48897843D01*
X107104131Y-48897843D01*
X106848815Y-49148815D01*
X106597843Y-49404131D01*
X106597843Y-49571362D01*
X106569205Y-49600000D01*
X106209995Y-49600000D01*
X106181357Y-49571362D01*
X106181357Y-49404131D01*
X105930385Y-49148815D01*
X105675069Y-48897843D01*
X105507838Y-48897843D01*
X105479200Y-48869205D01*
X105450562Y-48897843D01*
X105283331Y-48897843D01*
X105028015Y-49148815D01*
X104777043Y-49404131D01*
X104777043Y-49571362D01*
X104748405Y-49600000D01*
X104389195Y-49600000D01*
X104375053Y-49585858D01*
X104554658Y-49406253D01*
X104568800Y-49420395D01*
X105299595Y-48689600D01*
X105658805Y-48689600D01*
X105687443Y-48718238D01*
X105687443Y-48885469D01*
X105938415Y-49140785D01*
X106193731Y-49391757D01*
X106360962Y-49391757D01*
X106389600Y-49420395D01*
X106418238Y-49391757D01*
X106585469Y-49391757D01*
X106840785Y-49140785D01*
X107091757Y-48885469D01*
X107091757Y-48718238D01*
X107120395Y-48689600D01*
X107479605Y-48689600D01*
X107508243Y-48718238D01*
X107508243Y-48885469D01*
X107759215Y-49140785D01*
X108014531Y-49391757D01*
X108181762Y-49391757D01*
X108210400Y-49420395D01*
X108239038Y-49391757D01*
X108406269Y-49391757D01*
X108661585Y-49140785D01*
X108912557Y-48885469D01*
X108912557Y-48718238D01*
X108941195Y-48689600D01*
X108912557Y-48660962D01*
X108912557Y-48493731D01*
X108661585Y-48238415D01*
X108406269Y-47987443D01*
X108239038Y-47987443D01*
X108210400Y-47958805D01*
X108181762Y-47987443D01*
X108014531Y-47987443D01*
X107759215Y-48238415D01*
X107508243Y-48493731D01*
X107508243Y-48660962D01*
X107479605Y-48689600D01*
X107120395Y-48689600D01*
X107091757Y-48660962D01*
X107091757Y-48493731D01*
X106840785Y-48238415D01*
X106585469Y-47987443D01*
X106418238Y-47987443D01*
X106389600Y-47958805D01*
X106360962Y-47987443D01*
X106193731Y-47987443D01*
X105938415Y-48238415D01*
X105687443Y-48493731D01*
X105687443Y-48660962D01*
X105658805Y-48689600D01*
X105299595Y-48689600D01*
X105285453Y-48675458D01*
X105465058Y-48495853D01*
X105479200Y-48509995D01*
X106209995Y-47779200D01*
X106569205Y-47779200D01*
X106597843Y-47807838D01*
X106597843Y-47975069D01*
X106848815Y-48230385D01*
X107104131Y-48481357D01*
X107271362Y-48481357D01*
X107300000Y-48509995D01*
X107328638Y-48481357D01*
X107495869Y-48481357D01*
X107751185Y-48230385D01*
X108002157Y-47975069D01*
X108002157Y-47807838D01*
X108030795Y-47779200D01*
X108002157Y-47750562D01*
X108002157Y-47583331D01*
X107751185Y-47328015D01*
X107495869Y-47077043D01*
X107328638Y-47077043D01*
X107300000Y-47048405D01*
X107271362Y-47077043D01*
X107104131Y-47077043D01*
X106848815Y-47328015D01*
X106597843Y-47583331D01*
X106597843Y-47750562D01*
X106569205Y-47779200D01*
X106209995Y-47779200D01*
X106195853Y-47765058D01*
X106375458Y-47585453D01*
X106389600Y-47599595D01*
X107120395Y-46868800D01*
X107106253Y-46854658D01*
X107285858Y-46675053D01*
X107300000Y-46689195D01*
X107314143Y-46675053D01*
X107493748Y-46854658D01*
%TA.AperFunction,Conductor*%
D32*
G36*
X107493748Y-46854658D02*
G01*
X107479605Y-46868800D01*
X108210400Y-47599595D01*
X108224543Y-47585453D01*
X108404148Y-47765058D01*
X108390005Y-47779200D01*
X109120800Y-48509995D01*
X109134943Y-48495853D01*
X109314548Y-48675458D01*
X109300405Y-48689600D01*
X110031200Y-49420395D01*
X110045343Y-49406253D01*
X110224948Y-49585858D01*
X110210805Y-49600000D01*
X110224948Y-49614143D01*
X110045343Y-49793748D01*
X110031200Y-49779605D01*
X109300405Y-50510400D01*
X109314548Y-50524543D01*
X109134943Y-50704148D01*
X109120800Y-50690005D01*
X108390005Y-51420800D01*
X108404148Y-51434943D01*
X108224543Y-51614548D01*
X108210400Y-51600405D01*
X107479605Y-52331200D01*
X107493748Y-52345343D01*
X107314143Y-52524948D01*
X107300000Y-52510805D01*
X107285858Y-52524948D01*
X107106253Y-52345343D01*
X107120395Y-52331200D01*
X106389600Y-51600405D01*
X106375458Y-51614548D01*
X106195853Y-51434943D01*
X106209995Y-51420800D01*
X106569205Y-51420800D01*
X106597843Y-51449438D01*
X106597843Y-51616669D01*
X106848815Y-51871985D01*
X107104131Y-52122957D01*
X107271362Y-52122957D01*
X107300000Y-52151595D01*
X107328638Y-52122957D01*
X107495869Y-52122957D01*
X107751185Y-51871985D01*
X108002157Y-51616669D01*
X108002157Y-51449438D01*
X108030795Y-51420800D01*
X108002157Y-51392162D01*
X108002157Y-51224931D01*
X107751185Y-50969615D01*
X107495869Y-50718643D01*
X107328638Y-50718643D01*
X107300000Y-50690005D01*
X107271362Y-50718643D01*
X107104131Y-50718643D01*
X106848815Y-50969615D01*
X106597843Y-51224931D01*
X106597843Y-51392162D01*
X106569205Y-51420800D01*
X106209995Y-51420800D01*
X105479200Y-50690005D01*
X105465058Y-50704148D01*
X105285453Y-50524543D01*
X105299595Y-50510400D01*
X105658805Y-50510400D01*
X105687443Y-50539038D01*
X105687443Y-50706269D01*
X105938415Y-50961585D01*
X106193731Y-51212557D01*
X106360962Y-51212557D01*
X106389600Y-51241195D01*
X106418238Y-51212557D01*
X106585469Y-51212557D01*
X106840785Y-50961585D01*
X107091757Y-50706269D01*
X107091757Y-50539038D01*
X107120395Y-50510400D01*
X107479605Y-50510400D01*
X107508243Y-50539038D01*
X107508243Y-50706269D01*
X107759215Y-50961585D01*
X108014531Y-51212557D01*
X108181762Y-51212557D01*
X108210400Y-51241195D01*
X108239038Y-51212557D01*
X108406269Y-51212557D01*
X108661585Y-50961585D01*
X108912557Y-50706269D01*
X108912557Y-50539038D01*
X108941195Y-50510400D01*
X108912557Y-50481762D01*
X108912557Y-50314531D01*
X108661585Y-50059215D01*
X108406269Y-49808243D01*
X108239038Y-49808243D01*
X108210400Y-49779605D01*
X108181762Y-49808243D01*
X108014531Y-49808243D01*
X107759215Y-50059215D01*
X107508243Y-50314531D01*
X107508243Y-50481762D01*
X107479605Y-50510400D01*
X107120395Y-50510400D01*
X107091757Y-50481762D01*
X107091757Y-50314531D01*
X106840785Y-50059215D01*
X106585469Y-49808243D01*
X106418238Y-49808243D01*
X106389600Y-49779605D01*
X106360962Y-49808243D01*
X106193731Y-49808243D01*
X105938415Y-50059215D01*
X105687443Y-50314531D01*
X105687443Y-50481762D01*
X105658805Y-50510400D01*
X105299595Y-50510400D01*
X104568800Y-49779605D01*
X104554658Y-49793748D01*
X104375053Y-49614143D01*
X104389195Y-49600000D01*
X104748405Y-49600000D01*
X104777043Y-49628638D01*
X104777043Y-49795869D01*
X105028015Y-50051185D01*
X105283331Y-50302157D01*
X105450562Y-50302157D01*
X105479200Y-50330795D01*
X105507838Y-50302157D01*
X105675069Y-50302157D01*
X105930385Y-50051185D01*
X106181357Y-49795869D01*
X106181357Y-49628638D01*
X106209995Y-49600000D01*
X106569205Y-49600000D01*
X106597843Y-49628638D01*
X106597843Y-49795869D01*
X106848815Y-50051185D01*
X107104131Y-50302157D01*
X107271362Y-50302157D01*
X107300000Y-50330795D01*
X107328638Y-50302157D01*
X107495869Y-50302157D01*
X107751185Y-50051185D01*
X108002157Y-49795869D01*
X108002157Y-49628638D01*
X108030795Y-49600000D01*
X108390005Y-49600000D01*
X108418643Y-49628638D01*
X108418643Y-49795869D01*
X108669615Y-50051185D01*
X108924931Y-50302157D01*
X109092162Y-50302157D01*
X109120800Y-50330795D01*
X109149438Y-50302157D01*
X109316669Y-50302157D01*
X109571985Y-50051185D01*
X109822957Y-49795869D01*
X109822957Y-49628638D01*
X109851595Y-49600000D01*
X109822957Y-49571362D01*
X109822957Y-49404131D01*
X109571985Y-49148815D01*
X109316669Y-48897843D01*
X109149438Y-48897843D01*
X109120800Y-48869205D01*
X109092162Y-48897843D01*
X108924931Y-48897843D01*
X108669615Y-49148815D01*
X108418643Y-49404131D01*
X108418643Y-49571362D01*
X108390005Y-49600000D01*
X108030795Y-49600000D01*
X108002157Y-49571362D01*
X108002157Y-49404131D01*
X107751185Y-49148815D01*
X107495869Y-48897843D01*
X107328638Y-48897843D01*
X107300000Y-48869205D01*
X107271362Y-48897843D01*
X107104131Y-48897843D01*
X106848815Y-49148815D01*
X106597843Y-49404131D01*
X106597843Y-49571362D01*
X106569205Y-49600000D01*
X106209995Y-49600000D01*
X106181357Y-49571362D01*
X106181357Y-49404131D01*
X105930385Y-49148815D01*
X105675069Y-48897843D01*
X105507838Y-48897843D01*
X105479200Y-48869205D01*
X105450562Y-48897843D01*
X105283331Y-48897843D01*
X105028015Y-49148815D01*
X104777043Y-49404131D01*
X104777043Y-49571362D01*
X104748405Y-49600000D01*
X104389195Y-49600000D01*
X104375053Y-49585858D01*
X104554658Y-49406253D01*
X104568800Y-49420395D01*
X105299595Y-48689600D01*
X105658805Y-48689600D01*
X105687443Y-48718238D01*
X105687443Y-48885469D01*
X105938415Y-49140785D01*
X106193731Y-49391757D01*
X106360962Y-49391757D01*
X106389600Y-49420395D01*
X106418238Y-49391757D01*
X106585469Y-49391757D01*
X106840785Y-49140785D01*
X107091757Y-48885469D01*
X107091757Y-48718238D01*
X107120395Y-48689600D01*
X107479605Y-48689600D01*
X107508243Y-48718238D01*
X107508243Y-48885469D01*
X107759215Y-49140785D01*
X108014531Y-49391757D01*
X108181762Y-49391757D01*
X108210400Y-49420395D01*
X108239038Y-49391757D01*
X108406269Y-49391757D01*
X108661585Y-49140785D01*
X108912557Y-48885469D01*
X108912557Y-48718238D01*
X108941195Y-48689600D01*
X108912557Y-48660962D01*
X108912557Y-48493731D01*
X108661585Y-48238415D01*
X108406269Y-47987443D01*
X108239038Y-47987443D01*
X108210400Y-47958805D01*
X108181762Y-47987443D01*
X108014531Y-47987443D01*
X107759215Y-48238415D01*
X107508243Y-48493731D01*
X107508243Y-48660962D01*
X107479605Y-48689600D01*
X107120395Y-48689600D01*
X107091757Y-48660962D01*
X107091757Y-48493731D01*
X106840785Y-48238415D01*
X106585469Y-47987443D01*
X106418238Y-47987443D01*
X106389600Y-47958805D01*
X106360962Y-47987443D01*
X106193731Y-47987443D01*
X105938415Y-48238415D01*
X105687443Y-48493731D01*
X105687443Y-48660962D01*
X105658805Y-48689600D01*
X105299595Y-48689600D01*
X105285453Y-48675458D01*
X105465058Y-48495853D01*
X105479200Y-48509995D01*
X106209995Y-47779200D01*
X106569205Y-47779200D01*
X106597843Y-47807838D01*
X106597843Y-47975069D01*
X106848815Y-48230385D01*
X107104131Y-48481357D01*
X107271362Y-48481357D01*
X107300000Y-48509995D01*
X107328638Y-48481357D01*
X107495869Y-48481357D01*
X107751185Y-48230385D01*
X108002157Y-47975069D01*
X108002157Y-47807838D01*
X108030795Y-47779200D01*
X108002157Y-47750562D01*
X108002157Y-47583331D01*
X107751185Y-47328015D01*
X107495869Y-47077043D01*
X107328638Y-47077043D01*
X107300000Y-47048405D01*
X107271362Y-47077043D01*
X107104131Y-47077043D01*
X106848815Y-47328015D01*
X106597843Y-47583331D01*
X106597843Y-47750562D01*
X106569205Y-47779200D01*
X106209995Y-47779200D01*
X106195853Y-47765058D01*
X106375458Y-47585453D01*
X106389600Y-47599595D01*
X107120395Y-46868800D01*
X107106253Y-46854658D01*
X107285858Y-46675053D01*
X107300000Y-46689195D01*
X107314143Y-46675053D01*
X107493748Y-46854658D01*
G37*
%TD.AperFunction*%
%TD*%
M02*
