%TF.GenerationSoftware,KiCad,Pcbnew,(5.1.8-0-10_14)*%
%TF.CreationDate,2020-12-27T18:14:17+09:00*%
%TF.ProjectId,Unison,556e6973-6f6e-42e6-9b69-6361645f7063,v01*%
%TF.SameCoordinates,Original*%
%TF.FileFunction,Copper,L1,Top*%
%TF.FilePolarity,Positive*%
%FSLAX46Y46*%
G04 Gerber Fmt 4.6, Leading zero omitted, Abs format (unit mm)*
G04 Created by KiCad (PCBNEW (5.1.8-0-10_14)) date 2020-12-27 18:14:17*
%MOMM*%
%LPD*%
G01*
G04 APERTURE LIST*
%TA.AperFunction,EtchedComponent*%
%ADD10C,1.500000*%
%TD*%
%TA.AperFunction,ComponentPad*%
%ADD11O,2.000000X1.200000*%
%TD*%
%TA.AperFunction,ComponentPad*%
%ADD12R,2.000000X2.000000*%
%TD*%
%TA.AperFunction,ComponentPad*%
%ADD13C,2.000000*%
%TD*%
%TA.AperFunction,ComponentPad*%
%ADD14R,3.200000X2.000000*%
%TD*%
%TA.AperFunction,ComponentPad*%
%ADD15C,1.000000*%
%TD*%
%TA.AperFunction,ComponentPad*%
%ADD16C,5.000000*%
%TD*%
%TA.AperFunction,ComponentPad*%
%ADD17O,7.000240X5.000000*%
%TD*%
%TA.AperFunction,ComponentPad*%
%ADD18O,1.700000X1.700000*%
%TD*%
%TA.AperFunction,ComponentPad*%
%ADD19R,1.700000X1.700000*%
%TD*%
%TA.AperFunction,SMDPad,CuDef*%
%ADD20R,3.400000X1.300000*%
%TD*%
%TA.AperFunction,ComponentPad*%
%ADD21C,1.397000*%
%TD*%
%TA.AperFunction,ComponentPad*%
%ADD22O,1.108000X2.216000*%
%TD*%
%TA.AperFunction,ComponentPad*%
%ADD23C,0.650000*%
%TD*%
%TA.AperFunction,ViaPad*%
%ADD24C,0.600000*%
%TD*%
%TA.AperFunction,Conductor*%
%ADD25C,0.381000*%
%TD*%
%TA.AperFunction,Conductor*%
%ADD26C,0.254000*%
%TD*%
%TA.AperFunction,NonConductor*%
%ADD27C,0.254000*%
%TD*%
%TA.AperFunction,NonConductor*%
%ADD28C,0.100000*%
%TD*%
G04 APERTURE END LIST*
D10*
%TO.C,REF\u002A\u002A*%
X15200000Y-71050000D02*
X19000000Y-71050000D01*
X15250000Y-75350000D02*
X19050000Y-75350000D01*
X300200000Y-75350000D02*
X296400000Y-75350000D01*
X300150000Y-71050000D02*
X296350000Y-71050000D01*
X294250000Y-73200000D02*
G75*
G03*
X296400000Y-75350000I2150000J0D01*
G01*
X294250000Y-73200000D02*
G75*
G02*
X296400000Y-71050000I2150000J0D01*
G01*
X21150000Y-73200000D02*
G75*
G02*
X19000000Y-75350000I-2150000J0D01*
G01*
X21150000Y-73200000D02*
G75*
G03*
X19000000Y-71050000I-2150000J0D01*
G01*
%TD*%
D11*
%TO.P,SW_25_2,1*%
%TO.N,Net-(D14-Pad1)*%
X69890000Y-92860000D03*
%TO.P,SW_25_2,2*%
%TO.N,Net-(D24-Pad2)*%
X76340000Y-90320000D03*
%TD*%
%TO.P,SW_60_2,1*%
%TO.N,Net-(D59-Pad1)*%
X187490000Y-92860000D03*
%TO.P,SW_60_2,2*%
%TO.N,Net-(D64-Pad2)*%
X193940000Y-90320000D03*
%TD*%
%TO.P,SW_10_2,1*%
%TO.N,Net-(D1-Pad1)*%
X27890000Y-101060000D03*
%TO.P,SW_10_2,2*%
%TO.N,Net-(D7-Pad2)*%
X34340000Y-98520000D03*
%TD*%
%TO.P,SW_19_2,1*%
%TO.N,Net-(D1-Pad1)*%
X27890000Y-84660000D03*
%TO.P,SW_19_2,2*%
%TO.N,Net-(D6-Pad2)*%
X34340000Y-82120000D03*
%TD*%
%TO.P,SW_24_2,1*%
%TO.N,Net-(D14-Pad1)*%
X78290000Y-84660000D03*
%TO.P,SW_24_2,2*%
%TO.N,Net-(D23-Pad2)*%
X84740000Y-82120000D03*
%TD*%
%TO.P,SW_39_2,1*%
%TO.N,Net-(D25-Pad1)*%
X95090000Y-84660000D03*
%TO.P,SW_39_2,2*%
%TO.N,Net-(D29-Pad2)*%
X101540000Y-82120000D03*
%TD*%
%TO.P,SW_45_4,1*%
%TO.N,Net-(D36-Pad1)*%
X145490000Y-101060000D03*
%TO.P,SW_45_4,2*%
%TO.N,Net-(D46-Pad2)*%
X151940000Y-98520000D03*
%TD*%
%TO.P,SW_17_2,2*%
%TO.N,Net-(D4-Pad2)*%
X30140000Y-49320000D03*
%TO.P,SW_17_2,1*%
%TO.N,Net-(D1-Pad1)*%
X23690000Y-51860000D03*
%TD*%
%TO.P,SW_18_2,2*%
%TO.N,Net-(D5-Pad2)*%
X30140000Y-65720000D03*
%TO.P,SW_18_2,1*%
%TO.N,Net-(D1-Pad1)*%
X23690000Y-68260000D03*
%TD*%
%TO.P,SW_23_2,2*%
%TO.N,Net-(D22-Pad2)*%
X80540000Y-65720000D03*
%TO.P,SW_23_2,1*%
%TO.N,Net-(D14-Pad1)*%
X74090000Y-68260000D03*
%TD*%
%TO.P,SW_25_3,2*%
%TO.N,Net-(D24-Pad2)*%
X80540000Y-98520000D03*
%TO.P,SW_25_3,1*%
%TO.N,Net-(D14-Pad1)*%
X74090000Y-101060000D03*
%TD*%
%TO.P,SW_32_2,2*%
%TO.N,Net-(D21-Pad2)*%
X80540000Y-49320000D03*
%TO.P,SW_32_2,1*%
%TO.N,Net-(D25-Pad1)*%
X74090000Y-51860000D03*
%TD*%
%TO.P,SW_37_2,2*%
%TO.N,Net-(D27-Pad2)*%
X97340000Y-49320000D03*
%TO.P,SW_37_2,1*%
%TO.N,Net-(D25-Pad1)*%
X90890000Y-51860000D03*
%TD*%
%TO.P,SW_38_2,2*%
%TO.N,Net-(D28-Pad2)*%
X97340000Y-65720000D03*
%TO.P,SW_38_2,1*%
%TO.N,Net-(D25-Pad1)*%
X90890000Y-68260000D03*
%TD*%
%TO.P,SW_40_2,2*%
%TO.N,Net-(D41-Pad2)*%
X130940000Y-98520000D03*
%TO.P,SW_40_2,1*%
%TO.N,Net-(D36-Pad1)*%
X124490000Y-101060000D03*
%TD*%
%TO.P,SW_45_2,2*%
%TO.N,Net-(D46-Pad2)*%
X147740000Y-98520000D03*
%TO.P,SW_45_2,1*%
%TO.N,Net-(D36-Pad1)*%
X141290000Y-101060000D03*
%TD*%
%TO.P,SW_70_2,2*%
%TO.N,Net-(D76-Pad2)*%
X223340000Y-98520000D03*
%TO.P,SW_70_2,1*%
%TO.N,Net-(D71-Pad1)*%
X216890000Y-101060000D03*
%TD*%
%TO.P,SW_75_2,2*%
%TO.N,Net-(D70-Pad2)*%
X209660000Y-108680000D03*
%TO.P,SW_75_2,1*%
%TO.N,Net-(D71-Pad1)*%
X216110000Y-106140000D03*
%TD*%
%TO.P,SW_7_2,2*%
%TO.N,Net-(D96-Pad2)*%
X290540000Y-49320000D03*
%TO.P,SW_7_2,1*%
%TO.N,RE1_1*%
X284090000Y-51860000D03*
%TD*%
%TO.P,SW_85_3,2*%
%TO.N,Net-(D82-Pad2)*%
X240140000Y-98520000D03*
%TO.P,SW_85_3,1*%
%TO.N,Net-(D83-Pad1)*%
X233690000Y-101060000D03*
%TD*%
%TO.P,SW_8_2,2*%
%TO.N,Net-(D97-Pad2)*%
X290540000Y-65720000D03*
%TO.P,SW_8_2,1*%
%TO.N,RE1_1*%
X284090000Y-68260000D03*
%TD*%
%TO.P,SW_97_2,2*%
%TO.N,Net-(D85-Pad2)*%
X273740000Y-49320000D03*
%TO.P,SW_97_2,1*%
%TO.N,RE6_1*%
X267290000Y-51860000D03*
%TD*%
%TO.P,SW_98_2,2*%
%TO.N,Net-(D86-Pad2)*%
X273740000Y-65720000D03*
%TO.P,SW_98_2,1*%
%TO.N,RE6_1*%
X267290000Y-68260000D03*
%TD*%
%TO.P,SW_85_4,1*%
%TO.N,Net-(D83-Pad1)*%
X231590000Y-101060000D03*
%TO.P,SW_85_4,2*%
%TO.N,Net-(D82-Pad2)*%
X238040000Y-98520000D03*
%TD*%
%TO.P,SW_85_2,1*%
%TO.N,Net-(D83-Pad1)*%
X235790000Y-101060000D03*
%TO.P,SW_85_2,2*%
%TO.N,Net-(D82-Pad2)*%
X242240000Y-98520000D03*
%TD*%
%TO.P,SW_80_2,1*%
%TO.N,Net-(D83-Pad1)*%
X252590000Y-101060000D03*
%TO.P,SW_80_2,2*%
%TO.N,Net-(D88-Pad2)*%
X259040000Y-98520000D03*
%TD*%
%TO.P,SW_70_3,1*%
%TO.N,Net-(D71-Pad1)*%
X214790000Y-101060000D03*
%TO.P,SW_70_3,2*%
%TO.N,Net-(D76-Pad2)*%
X221240000Y-98520000D03*
%TD*%
%TO.P,SW_45_3,1*%
%TO.N,Net-(D36-Pad1)*%
X143390000Y-101060000D03*
%TO.P,SW_45_3,2*%
%TO.N,Net-(D46-Pad2)*%
X149840000Y-98520000D03*
%TD*%
%TO.P,SW_40_4,1*%
%TO.N,Net-(D36-Pad1)*%
X122390000Y-101060000D03*
%TO.P,SW_40_4,2*%
%TO.N,Net-(D41-Pad2)*%
X128840000Y-98520000D03*
%TD*%
%TO.P,SW_40_3,1*%
%TO.N,Net-(D36-Pad1)*%
X126590000Y-101060000D03*
%TO.P,SW_40_3,2*%
%TO.N,Net-(D41-Pad2)*%
X133040000Y-98520000D03*
%TD*%
%TO.P,SW_35_2,1*%
%TO.N,Net-(D25-Pad1)*%
X105590000Y-101060000D03*
%TO.P,SW_35_2,2*%
%TO.N,Net-(D35-Pad2)*%
X112040000Y-98520000D03*
%TD*%
%TO.P,SW_25_4,1*%
%TO.N,Net-(D14-Pad1)*%
X76190000Y-101060000D03*
%TO.P,SW_25_4,2*%
%TO.N,Net-(D24-Pad2)*%
X82640000Y-98520000D03*
%TD*%
%TO.P,SW_20_2,1*%
%TO.N,Net-(D14-Pad1)*%
X55190000Y-101060000D03*
%TO.P,SW_20_2,2*%
%TO.N,Net-(D19-Pad2)*%
X61640000Y-98520000D03*
%TD*%
D12*
%TO.P,SW_RE1,A*%
%TO.N,RE1_A*%
X49400000Y-20400000D03*
D13*
%TO.P,SW_RE1,C*%
%TO.N,GND*%
X49400000Y-22900000D03*
%TO.P,SW_RE1,B*%
%TO.N,RE1_B*%
X49400000Y-25400000D03*
D14*
%TO.P,SW_RE1,MP*%
%TO.N,N/C*%
X56900000Y-17300000D03*
X56900000Y-28500000D03*
D13*
%TO.P,SW_RE1,S2*%
%TO.N,RE1_2*%
X63900000Y-20400000D03*
%TO.P,SW_RE1,S1*%
%TO.N,RE1_1*%
X63900000Y-25400000D03*
%TD*%
D11*
%TO.P,SW_21,1*%
%TO.N,Net-(D14-Pad1)*%
X36290000Y-35460000D03*
%TO.P,SW_21,2*%
%TO.N,Net-(D9-Pad2)*%
X42740000Y-32920000D03*
%TD*%
%TO.P,SW_26,1*%
%TO.N,Net-(D14-Pad1)*%
X53090000Y-35460000D03*
%TO.P,SW_26,2*%
%TO.N,Net-(D15-Pad2)*%
X59540000Y-32920000D03*
%TD*%
D15*
%TO.P,REF\u002A\u002A,1*%
%TO.N,N/C*%
X298442035Y-71000000D03*
X298450000Y-75350000D03*
X294850000Y-74700000D03*
X296400000Y-71000000D03*
X296400000Y-75350000D03*
X294250000Y-73200000D03*
X294850000Y-71700000D03*
X20550000Y-74700000D03*
D16*
X40400000Y-44600000D03*
D17*
X143400000Y-63700000D03*
X205700000Y-101900000D03*
X275250000Y-44600000D03*
D15*
X40400000Y-42700000D03*
X38500000Y-44600000D03*
X42300000Y-44600000D03*
X40400000Y-46500000D03*
X39050000Y-43250000D03*
X41650000Y-43250000D03*
X39050000Y-45900000D03*
X41650000Y-45950000D03*
X275250000Y-42750000D03*
X275250000Y-46450000D03*
X276450000Y-46450000D03*
X274050000Y-46450000D03*
X274050000Y-42750000D03*
X276450000Y-42733000D03*
X205750000Y-100050000D03*
X205700000Y-103750000D03*
X206950000Y-100050000D03*
X204550000Y-100050000D03*
X204500000Y-103750000D03*
X206900000Y-103750000D03*
X143400000Y-61850000D03*
X144600000Y-61850000D03*
X142200000Y-61850000D03*
X143400000Y-65600000D03*
X142200000Y-65600000D03*
X144600000Y-65600000D03*
X21150000Y-73200000D03*
X19000000Y-71050000D03*
X19000000Y-75400000D03*
X20550000Y-71700000D03*
X16950000Y-71050000D03*
X16957965Y-75400000D03*
%TD*%
D18*
%TO.P,J2,2*%
%TO.N,pin8*%
X280840000Y-74700000D03*
D19*
%TO.P,J2,1*%
%TO.N,RE6_1*%
X278300000Y-74700000D03*
%TD*%
D20*
%TO.P,LS1,2*%
%TO.N,Net-(D2-Pad1)*%
X23350000Y-27550000D03*
%TO.P,LS1,1*%
%TO.N,GND*%
X23350000Y-18850000D03*
%TD*%
D21*
%TO.P,OL1,4*%
%TO.N,GND*%
X142300000Y-19290000D03*
%TO.P,OL1,3*%
%TO.N,+5V*%
X142300000Y-21830000D03*
%TO.P,OL1,2*%
%TO.N,SCL_RE2B*%
X142300000Y-24370000D03*
%TO.P,OL1,1*%
%TO.N,SDA_RE2A*%
X142300000Y-26910000D03*
%TD*%
D11*
%TO.P,SW_6,1*%
%TO.N,RE1_1*%
X288290000Y-35460000D03*
%TO.P,SW_6,2*%
%TO.N,Net-(D95-Pad2)*%
X294740000Y-32920000D03*
%TD*%
%TO.P,SW_9,1*%
%TO.N,RE1_1*%
X288290000Y-84660000D03*
%TO.P,SW_9,2*%
%TO.N,Net-(D98-Pad2)*%
X294740000Y-82120000D03*
%TD*%
%TO.P,SW_14,1*%
%TO.N,Net-(D1-Pad1)*%
X36290000Y-84660000D03*
%TO.P,SW_14,2*%
%TO.N,Net-(D12-Pad2)*%
X42740000Y-82120000D03*
%TD*%
%TO.P,SW_15,1*%
%TO.N,Net-(D1-Pad1)*%
X36290000Y-101060000D03*
%TO.P,SW_15,2*%
%TO.N,Net-(D13-Pad2)*%
X42740000Y-98520000D03*
%TD*%
%TO.P,SW_16,1*%
%TO.N,Net-(D1-Pad1)*%
X19490000Y-35460000D03*
%TO.P,SW_16,2*%
%TO.N,Net-(D3-Pad2)*%
X25940000Y-32920000D03*
%TD*%
%TO.P,SW_29,1*%
%TO.N,Net-(D14-Pad1)*%
X53090000Y-84660000D03*
%TO.P,SW_29,2*%
%TO.N,Net-(D18-Pad2)*%
X59540000Y-82120000D03*
%TD*%
%TO.P,SW_30,1*%
%TO.N,Net-(D25-Pad1)*%
X86690000Y-101060000D03*
%TO.P,SW_30,2*%
%TO.N,Net-(D30-Pad2)*%
X93140000Y-98520000D03*
%TD*%
%TO.P,SW_31,1*%
%TO.N,Net-(D25-Pad1)*%
X69890000Y-35460000D03*
%TO.P,SW_31,2*%
%TO.N,Net-(D20-Pad2)*%
X76340000Y-32920000D03*
%TD*%
%TO.P,SW_34,1*%
%TO.N,Net-(D25-Pad1)*%
X103490000Y-84660000D03*
%TO.P,SW_34,2*%
%TO.N,Net-(D34-Pad2)*%
X109940000Y-82120000D03*
%TD*%
%TO.P,SW_36,1*%
%TO.N,Net-(D25-Pad1)*%
X86690000Y-35460000D03*
%TO.P,SW_36,2*%
%TO.N,Net-(D26-Pad2)*%
X93140000Y-32920000D03*
%TD*%
%TO.P,SW_41,1*%
%TO.N,Net-(D36-Pad1)*%
X103490000Y-35460000D03*
%TO.P,SW_41,2*%
%TO.N,Net-(D31-Pad2)*%
X109940000Y-32920000D03*
%TD*%
%TO.P,SW_42,1*%
%TO.N,Net-(D36-Pad1)*%
X111890000Y-51860000D03*
%TO.P,SW_42,2*%
%TO.N,Net-(D32-Pad2)*%
X118340000Y-49320000D03*
%TD*%
%TO.P,SW_43,1*%
%TO.N,Net-(D36-Pad1)*%
X111890000Y-68260000D03*
%TO.P,SW_43,2*%
%TO.N,Net-(D33-Pad2)*%
X118340000Y-65720000D03*
%TD*%
%TO.P,SW_46,1*%
%TO.N,Net-(D36-Pad1)*%
X120290000Y-35460000D03*
%TO.P,SW_46,2*%
%TO.N,Net-(D37-Pad2)*%
X126740000Y-32920000D03*
%TD*%
%TO.P,SW_47,1*%
%TO.N,Net-(D36-Pad1)*%
X128690000Y-51860000D03*
%TO.P,SW_47,2*%
%TO.N,Net-(D38-Pad2)*%
X135140000Y-49320000D03*
%TD*%
%TO.P,SW_48,1*%
%TO.N,Net-(D36-Pad1)*%
X128690000Y-68260000D03*
%TO.P,SW_48,2*%
%TO.N,Net-(D39-Pad2)*%
X135140000Y-65720000D03*
%TD*%
%TO.P,SW_49,1*%
%TO.N,Net-(D36-Pad1)*%
X120290000Y-84660000D03*
%TO.P,SW_49,2*%
%TO.N,Net-(D40-Pad2)*%
X126740000Y-82120000D03*
%TD*%
%TO.P,SW_50,1*%
%TO.N,Net-(D47-Pad1)*%
X153890000Y-101060000D03*
%TO.P,SW_50,2*%
%TO.N,Net-(D52-Pad2)*%
X160340000Y-98520000D03*
%TD*%
%TO.P,SW_51,1*%
%TO.N,Net-(D47-Pad1)*%
X137090000Y-35460000D03*
%TO.P,SW_51,2*%
%TO.N,Net-(D42-Pad2)*%
X143540000Y-32920000D03*
%TD*%
%TO.P,SW_52,1*%
%TO.N,Net-(D47-Pad1)*%
X145490000Y-51860000D03*
%TO.P,SW_52,2*%
%TO.N,Net-(D43-Pad2)*%
X151940000Y-49320000D03*
%TD*%
%TO.P,SW_53,1*%
%TO.N,Net-(D47-Pad1)*%
X145490000Y-68260000D03*
%TO.P,SW_53,2*%
%TO.N,Net-(D44-Pad2)*%
X151940000Y-65720000D03*
%TD*%
%TO.P,SW_54,1*%
%TO.N,Net-(D47-Pad1)*%
X137090000Y-84660000D03*
%TO.P,SW_54,2*%
%TO.N,Net-(D45-Pad2)*%
X143540000Y-82120000D03*
%TD*%
%TO.P,SW_56,1*%
%TO.N,Net-(D47-Pad1)*%
X153890000Y-35460000D03*
%TO.P,SW_56,2*%
%TO.N,Net-(D48-Pad2)*%
X160340000Y-32920000D03*
%TD*%
%TO.P,SW_57,1*%
%TO.N,Net-(D47-Pad1)*%
X162290000Y-51860000D03*
%TO.P,SW_57,2*%
%TO.N,Net-(D49-Pad2)*%
X168740000Y-49320000D03*
%TD*%
%TO.P,SW_58,1*%
%TO.N,Net-(D47-Pad1)*%
X162290000Y-68260000D03*
%TO.P,SW_58,2*%
%TO.N,Net-(D50-Pad2)*%
X168740000Y-65720000D03*
%TD*%
%TO.P,SW_59,1*%
%TO.N,Net-(D47-Pad1)*%
X153890000Y-84660000D03*
%TO.P,SW_59,2*%
%TO.N,Net-(D51-Pad2)*%
X160340000Y-82120000D03*
%TD*%
%TO.P,SW_61,1*%
%TO.N,Net-(D59-Pad1)*%
X170690000Y-35460000D03*
%TO.P,SW_61,2*%
%TO.N,Net-(D54-Pad2)*%
X177140000Y-32920000D03*
%TD*%
%TO.P,SW_62,1*%
%TO.N,Net-(D59-Pad1)*%
X179090000Y-51860000D03*
%TO.P,SW_62,2*%
%TO.N,Net-(D55-Pad2)*%
X185540000Y-49320000D03*
%TD*%
%TO.P,SW_63,1*%
%TO.N,Net-(D59-Pad1)*%
X179090000Y-68260000D03*
%TO.P,SW_63,2*%
%TO.N,Net-(D56-Pad2)*%
X185540000Y-65720000D03*
%TD*%
%TO.P,SW_64,1*%
%TO.N,Net-(D59-Pad1)*%
X170690000Y-84660000D03*
%TO.P,SW_64,2*%
%TO.N,Net-(D57-Pad2)*%
X177140000Y-82120000D03*
%TD*%
%TO.P,SW_65,1*%
%TO.N,Net-(D59-Pad1)*%
X170690000Y-101060000D03*
%TO.P,SW_65,2*%
%TO.N,Net-(D58-Pad2)*%
X177140000Y-98520000D03*
%TD*%
%TO.P,SW_67,1*%
%TO.N,Net-(D59-Pad1)*%
X195890000Y-51860000D03*
%TO.P,SW_67,2*%
%TO.N,Net-(D61-Pad2)*%
X202340000Y-49320000D03*
%TD*%
%TO.P,SW_68,1*%
%TO.N,Net-(D59-Pad1)*%
X195890000Y-68260000D03*
%TO.P,SW_68,2*%
%TO.N,Net-(D62-Pad2)*%
X202340000Y-65720000D03*
%TD*%
%TO.P,SW_69,1*%
%TO.N,Net-(D59-Pad1)*%
X187490000Y-84660000D03*
%TO.P,SW_69,2*%
%TO.N,Net-(D63-Pad2)*%
X193940000Y-82120000D03*
%TD*%
%TO.P,SW_71,1*%
%TO.N,Net-(D71-Pad1)*%
X204290000Y-35460000D03*
%TO.P,SW_71,2*%
%TO.N,Net-(D66-Pad2)*%
X210740000Y-32920000D03*
%TD*%
%TO.P,SW_72,1*%
%TO.N,Net-(D71-Pad1)*%
X212690000Y-51860000D03*
%TO.P,SW_72,2*%
%TO.N,Net-(D67-Pad2)*%
X219140000Y-49320000D03*
%TD*%
%TO.P,SW_73,1*%
%TO.N,Net-(D71-Pad1)*%
X212690000Y-68260000D03*
%TO.P,SW_73,2*%
%TO.N,Net-(D68-Pad2)*%
X219140000Y-65720000D03*
%TD*%
%TO.P,SW_74,1*%
%TO.N,Net-(D71-Pad1)*%
X204290000Y-84660000D03*
%TO.P,SW_74,2*%
%TO.N,Net-(D69-Pad2)*%
X210740000Y-82120000D03*
%TD*%
%TO.P,SW_76,1*%
%TO.N,Net-(D71-Pad1)*%
X187490000Y-35460000D03*
%TO.P,SW_76,2*%
%TO.N,Net-(D60-Pad2)*%
X193940000Y-32920000D03*
%TD*%
%TO.P,SW_78,1*%
%TO.N,Net-(D71-Pad1)*%
X229490000Y-68260000D03*
%TO.P,SW_78,2*%
%TO.N,Net-(D74-Pad2)*%
X235940000Y-65720000D03*
%TD*%
%TO.P,SW_79,1*%
%TO.N,Net-(D71-Pad1)*%
X221090000Y-84660000D03*
%TO.P,SW_79,2*%
%TO.N,Net-(D75-Pad2)*%
X227540000Y-82120000D03*
%TD*%
%TO.P,SW_81,1*%
%TO.N,Net-(D83-Pad1)*%
X237890000Y-35460000D03*
%TO.P,SW_81,2*%
%TO.N,Net-(D78-Pad2)*%
X244340000Y-32920000D03*
%TD*%
%TO.P,SW_82,1*%
%TO.N,Net-(D83-Pad1)*%
X246290000Y-51860000D03*
%TO.P,SW_82,2*%
%TO.N,Net-(D79-Pad2)*%
X252740000Y-49320000D03*
%TD*%
%TO.P,SW_83,1*%
%TO.N,Net-(D83-Pad1)*%
X246290000Y-68260000D03*
%TO.P,SW_83,2*%
%TO.N,Net-(D80-Pad2)*%
X252740000Y-65720000D03*
%TD*%
%TO.P,SW_84,1*%
%TO.N,Net-(D83-Pad1)*%
X237890000Y-84660000D03*
%TO.P,SW_84,2*%
%TO.N,Net-(D81-Pad2)*%
X244340000Y-82120000D03*
%TD*%
%TO.P,SW_86,1*%
%TO.N,Net-(D83-Pad1)*%
X221090000Y-35460000D03*
%TO.P,SW_86,2*%
%TO.N,Net-(D72-Pad2)*%
X227540000Y-32920000D03*
%TD*%
%TO.P,SW_87,1*%
%TO.N,Net-(D83-Pad1)*%
X229490000Y-51860000D03*
%TO.P,SW_87,2*%
%TO.N,Net-(D73-Pad2)*%
X235940000Y-49320000D03*
%TD*%
%TO.P,SW_89,1*%
%TO.N,Net-(D83-Pad1)*%
X254690000Y-84660000D03*
%TO.P,SW_89,2*%
%TO.N,Net-(D87-Pad2)*%
X261140000Y-82120000D03*
%TD*%
%TO.P,SW_90,1*%
%TO.N,RE6_1*%
X288290000Y-101060000D03*
%TO.P,SW_90,2*%
%TO.N,Net-(D99-Pad2)*%
X294740000Y-98520000D03*
%TD*%
%TO.P,SW_91,1*%
%TO.N,RE6_1*%
X271490000Y-35460000D03*
%TO.P,SW_91,2*%
%TO.N,Net-(D90-Pad2)*%
X277940000Y-32920000D03*
%TD*%
%TO.P,SW_94,1*%
%TO.N,RE6_1*%
X271490000Y-84660000D03*
%TO.P,SW_94,2*%
%TO.N,Net-(D91-Pad2)*%
X277940000Y-82120000D03*
%TD*%
%TO.P,SW_95,1*%
%TO.N,RE6_1*%
X271490000Y-101060000D03*
%TO.P,SW_95,2*%
%TO.N,Net-(D92-Pad2)*%
X277940000Y-98520000D03*
%TD*%
%TO.P,SW_96,1*%
%TO.N,RE6_1*%
X254690000Y-35460000D03*
%TO.P,SW_96,2*%
%TO.N,Net-(D84-Pad2)*%
X261140000Y-32920000D03*
%TD*%
%TO.P,SW_10_1,1*%
%TO.N,Net-(D1-Pad1)*%
X19490000Y-101060000D03*
%TO.P,SW_10_1,2*%
%TO.N,Net-(D7-Pad2)*%
X25940000Y-98520000D03*
%TD*%
%TO.P,SW_12_1,1*%
%TO.N,Net-(D1-Pad1)*%
X43910000Y-56940000D03*
%TO.P,SW_12_1,2*%
%TO.N,Net-(D10-Pad2)*%
X37460000Y-59480000D03*
%TD*%
%TO.P,SW_12_2,1*%
%TO.N,Net-(D1-Pad1)*%
X52310000Y-56940000D03*
%TO.P,SW_12_2,2*%
%TO.N,Net-(D10-Pad2)*%
X45860000Y-59480000D03*
%TD*%
%TO.P,SW_13_1,1*%
%TO.N,Net-(D1-Pad1)*%
X43910000Y-73340000D03*
%TO.P,SW_13_1,2*%
%TO.N,Net-(D11-Pad2)*%
X37460000Y-75880000D03*
%TD*%
%TO.P,SW_13_2,1*%
%TO.N,Net-(D1-Pad1)*%
X52310000Y-73340000D03*
%TO.P,SW_13_2,2*%
%TO.N,Net-(D11-Pad2)*%
X45860000Y-75880000D03*
%TD*%
%TO.P,SW_17_1,1*%
%TO.N,Net-(D1-Pad1)*%
X19490000Y-51860000D03*
%TO.P,SW_17_1,2*%
%TO.N,Net-(D4-Pad2)*%
X25940000Y-49320000D03*
%TD*%
%TO.P,SW_18_1,1*%
%TO.N,Net-(D1-Pad1)*%
X19490000Y-68260000D03*
%TO.P,SW_18_1,2*%
%TO.N,Net-(D5-Pad2)*%
X25940000Y-65720000D03*
%TD*%
%TO.P,SW_19_1,1*%
%TO.N,Net-(D1-Pad1)*%
X19490000Y-84660000D03*
%TO.P,SW_19_1,2*%
%TO.N,Net-(D6-Pad2)*%
X25940000Y-82120000D03*
%TD*%
%TO.P,SW_20_1,1*%
%TO.N,Net-(D14-Pad1)*%
X53090000Y-101060000D03*
%TO.P,SW_20_1,2*%
%TO.N,Net-(D19-Pad2)*%
X59540000Y-98520000D03*
%TD*%
%TO.P,SW_23_1,1*%
%TO.N,Net-(D14-Pad1)*%
X69890000Y-68260000D03*
%TO.P,SW_23_1,2*%
%TO.N,Net-(D22-Pad2)*%
X76340000Y-65720000D03*
%TD*%
%TO.P,SW_24_1,1*%
%TO.N,Net-(D14-Pad1)*%
X69890000Y-84660000D03*
%TO.P,SW_24_1,2*%
%TO.N,Net-(D23-Pad2)*%
X76340000Y-82120000D03*
%TD*%
%TO.P,SW_25_1,1*%
%TO.N,Net-(D14-Pad1)*%
X69890000Y-101060000D03*
%TO.P,SW_25_1,2*%
%TO.N,Net-(D24-Pad2)*%
X76340000Y-98520000D03*
%TD*%
%TO.P,SW_27_1,1*%
%TO.N,Net-(D14-Pad1)*%
X60710000Y-56940000D03*
%TO.P,SW_27_1,2*%
%TO.N,Net-(D16-Pad2)*%
X54260000Y-59480000D03*
%TD*%
%TO.P,SW_27_2,1*%
%TO.N,Net-(D14-Pad1)*%
X61490000Y-51860000D03*
%TO.P,SW_27_2,2*%
%TO.N,Net-(D16-Pad2)*%
X67940000Y-49320000D03*
%TD*%
%TO.P,SW_28_1,1*%
%TO.N,Net-(D14-Pad1)*%
X53090000Y-68260000D03*
%TO.P,SW_28_1,2*%
%TO.N,Net-(D17-Pad2)*%
X59540000Y-65720000D03*
%TD*%
%TO.P,SW_28_2,1*%
%TO.N,Net-(D14-Pad1)*%
X61490000Y-68260000D03*
%TO.P,SW_28_2,2*%
%TO.N,Net-(D17-Pad2)*%
X67940000Y-65720000D03*
%TD*%
%TO.P,SW_32_1,1*%
%TO.N,Net-(D25-Pad1)*%
X69890000Y-51860000D03*
%TO.P,SW_32_1,2*%
%TO.N,Net-(D21-Pad2)*%
X76340000Y-49320000D03*
%TD*%
%TO.P,SW_35_1,1*%
%TO.N,Net-(D25-Pad1)*%
X103490000Y-101060000D03*
%TO.P,SW_35_1,2*%
%TO.N,Net-(D35-Pad2)*%
X109940000Y-98520000D03*
%TD*%
%TO.P,SW_37_1,1*%
%TO.N,Net-(D25-Pad1)*%
X95090000Y-51860000D03*
%TO.P,SW_37_1,2*%
%TO.N,Net-(D27-Pad2)*%
X101540000Y-49320000D03*
%TD*%
%TO.P,SW_38_1,1*%
%TO.N,Net-(D25-Pad1)*%
X95090000Y-68260000D03*
%TO.P,SW_38_1,2*%
%TO.N,Net-(D28-Pad2)*%
X101540000Y-65720000D03*
%TD*%
%TO.P,SW_39_1,1*%
%TO.N,Net-(D25-Pad1)*%
X86690000Y-84660000D03*
%TO.P,SW_39_1,2*%
%TO.N,Net-(D29-Pad2)*%
X93140000Y-82120000D03*
%TD*%
%TO.P,SW_40_1,1*%
%TO.N,Net-(D36-Pad1)*%
X120290000Y-101060000D03*
%TO.P,SW_40_1,2*%
%TO.N,Net-(D41-Pad2)*%
X126740000Y-98520000D03*
%TD*%
%TO.P,SW_45_1,1*%
%TO.N,Net-(D36-Pad1)*%
X137090000Y-101060000D03*
%TO.P,SW_45_1,2*%
%TO.N,Net-(D46-Pad2)*%
X143540000Y-98520000D03*
%TD*%
%TO.P,SW_60_1,1*%
%TO.N,Net-(D59-Pad1)*%
X187490000Y-101060000D03*
%TO.P,SW_60_1,2*%
%TO.N,Net-(D64-Pad2)*%
X193940000Y-98520000D03*
%TD*%
%TO.P,SW_70_1,1*%
%TO.N,Net-(D71-Pad1)*%
X221090000Y-101060000D03*
%TO.P,SW_70_1,2*%
%TO.N,Net-(D76-Pad2)*%
X227540000Y-98520000D03*
%TD*%
%TO.P,SW_75_1,1*%
%TO.N,Net-(D71-Pad1)*%
X211910000Y-106140000D03*
%TO.P,SW_75_1,2*%
%TO.N,Net-(D70-Pad2)*%
X205460000Y-108680000D03*
%TD*%
%TO.P,SW_7_1,1*%
%TO.N,RE1_1*%
X288290000Y-51860000D03*
%TO.P,SW_7_1,2*%
%TO.N,Net-(D96-Pad2)*%
X294740000Y-49320000D03*
%TD*%
%TO.P,SW_80_1,1*%
%TO.N,Net-(D83-Pad1)*%
X254690000Y-101060000D03*
%TO.P,SW_80_1,2*%
%TO.N,Net-(D88-Pad2)*%
X261140000Y-98520000D03*
%TD*%
%TO.P,SW_85_1,1*%
%TO.N,Net-(D83-Pad1)*%
X237890000Y-101060000D03*
%TO.P,SW_85_1,2*%
%TO.N,Net-(D82-Pad2)*%
X244340000Y-98520000D03*
%TD*%
%TO.P,SW_8_1,1*%
%TO.N,RE1_1*%
X288290000Y-68260000D03*
%TO.P,SW_8_1,2*%
%TO.N,Net-(D97-Pad2)*%
X294740000Y-65720000D03*
%TD*%
%TO.P,SW_97_1,1*%
%TO.N,RE6_1*%
X263090000Y-51860000D03*
%TO.P,SW_97_1,2*%
%TO.N,Net-(D85-Pad2)*%
X269540000Y-49320000D03*
%TD*%
%TO.P,SW_98_1,1*%
%TO.N,RE6_1*%
X263090000Y-68260000D03*
%TO.P,SW_98_1,2*%
%TO.N,Net-(D86-Pad2)*%
X269540000Y-65720000D03*
%TD*%
D12*
%TO.P,SW_RE2,A*%
%TO.N,SDA_RE2A*%
X125000000Y-20400000D03*
D13*
%TO.P,SW_RE2,C*%
%TO.N,GND*%
X125000000Y-22900000D03*
%TO.P,SW_RE2,B*%
%TO.N,SCL_RE2B*%
X125000000Y-25400000D03*
D14*
%TO.P,SW_RE2,MP*%
%TO.N,N/C*%
X132500000Y-17300000D03*
X132500000Y-28500000D03*
D13*
%TO.P,SW_RE2,S2*%
%TO.N,RE2_2*%
X139500000Y-20400000D03*
%TO.P,SW_RE2,S1*%
%TO.N,RE1_1*%
X139500000Y-25400000D03*
%TD*%
D12*
%TO.P,SW_RE3,A*%
%TO.N,RE3_A*%
X158600000Y-20400000D03*
D13*
%TO.P,SW_RE3,C*%
%TO.N,GND*%
X158600000Y-22900000D03*
%TO.P,SW_RE3,B*%
%TO.N,RE3_B*%
X158600000Y-25400000D03*
D14*
%TO.P,SW_RE3,MP*%
%TO.N,N/C*%
X166100000Y-17300000D03*
X166100000Y-28500000D03*
D13*
%TO.P,SW_RE3,S2*%
%TO.N,RE3_2*%
X173100000Y-20400000D03*
%TO.P,SW_RE3,S1*%
%TO.N,RE1_1*%
X173100000Y-25400000D03*
%TD*%
D12*
%TO.P,SW_RE4,A*%
%TO.N,RE4_A*%
X192200000Y-20400000D03*
D13*
%TO.P,SW_RE4,C*%
%TO.N,GND*%
X192200000Y-22900000D03*
%TO.P,SW_RE4,B*%
%TO.N,RE4_B*%
X192200000Y-25400000D03*
D14*
%TO.P,SW_RE4,MP*%
%TO.N,N/C*%
X199700000Y-17300000D03*
X199700000Y-28500000D03*
D13*
%TO.P,SW_RE4,S2*%
%TO.N,RE4_2*%
X206700000Y-20400000D03*
%TO.P,SW_RE4,S1*%
%TO.N,RE1_1*%
X206700000Y-25400000D03*
%TD*%
D12*
%TO.P,SW_RE5,A*%
%TO.N,RE5_A*%
X225800000Y-20400000D03*
D13*
%TO.P,SW_RE5,C*%
%TO.N,GND*%
X225800000Y-22900000D03*
%TO.P,SW_RE5,B*%
%TO.N,RE5_B*%
X225800000Y-25400000D03*
D14*
%TO.P,SW_RE5,MP*%
%TO.N,N/C*%
X233300000Y-17300000D03*
X233300000Y-28500000D03*
D13*
%TO.P,SW_RE5,S2*%
%TO.N,RE5_2*%
X240300000Y-20400000D03*
%TO.P,SW_RE5,S1*%
%TO.N,RE1_1*%
X240300000Y-25400000D03*
%TD*%
D12*
%TO.P,SW_RE6,A*%
%TO.N,RE6_A*%
X259400000Y-20400000D03*
D13*
%TO.P,SW_RE6,C*%
%TO.N,GND*%
X259400000Y-22900000D03*
%TO.P,SW_RE6,B*%
%TO.N,RE6_B*%
X259400000Y-25400000D03*
D14*
%TO.P,SW_RE6,MP*%
%TO.N,N/C*%
X266900000Y-17300000D03*
X266900000Y-28500000D03*
D13*
%TO.P,SW_RE6,S2*%
%TO.N,RE6_2*%
X273900000Y-20400000D03*
%TO.P,SW_RE6,S1*%
%TO.N,RE6_1*%
X273900000Y-25400000D03*
%TD*%
D22*
%TO.P,J1,P4*%
%TO.N,GND*%
X29075000Y-17965000D03*
%TO.P,J1,P3*%
X37725000Y-17965000D03*
%TO.P,J1,P2*%
X37725000Y-21345000D03*
%TO.P,J1,P1*%
X29075000Y-21345000D03*
D23*
%TO.P,J1,B12*%
X30425000Y-20975000D03*
%TO.P,J1,B9*%
%TO.N,VCC*%
X31275000Y-20975000D03*
%TO.P,J1,B8*%
%TO.N,Net-(J1-PadB8)*%
X32125000Y-20975000D03*
%TO.P,J1,B7*%
%TO.N,Net-(D102-Pad3)*%
X32975000Y-20975000D03*
%TO.P,J1,B6*%
%TO.N,Net-(D102-Pad2)*%
X33825000Y-20975000D03*
%TO.P,J1,B5*%
%TO.N,Net-(J1-PadB5)*%
X34675000Y-20975000D03*
%TO.P,J1,B4*%
%TO.N,VCC*%
X35525000Y-20975000D03*
%TO.P,J1,B1*%
%TO.N,GND*%
X36375000Y-20975000D03*
%TO.P,J1,A12*%
X36375000Y-22325000D03*
%TO.P,J1,A9*%
%TO.N,VCC*%
X35525000Y-22325000D03*
%TO.P,J1,A8*%
%TO.N,Net-(J1-PadA8)*%
X34675000Y-22325000D03*
%TO.P,J1,A7*%
%TO.N,Net-(D102-Pad3)*%
X33825000Y-22325000D03*
%TO.P,J1,A6*%
%TO.N,Net-(D102-Pad2)*%
X32975000Y-22325000D03*
%TO.P,J1,A5*%
%TO.N,Net-(J1-PadA5)*%
X32125000Y-22325000D03*
%TO.P,J1,A4*%
%TO.N,VCC*%
X31275000Y-22325000D03*
%TO.P,J1,A1*%
%TO.N,GND*%
X30425000Y-22325000D03*
%TD*%
D11*
%TO.P,SW_23_3,1*%
%TO.N,Net-(D14-Pad1)*%
X78290000Y-68260000D03*
%TO.P,SW_23_3,2*%
%TO.N,Net-(D22-Pad2)*%
X84740000Y-65720000D03*
%TD*%
%TO.P,SW_32_3,1*%
%TO.N,Net-(D25-Pad1)*%
X78290000Y-51860000D03*
%TO.P,SW_32_3,2*%
%TO.N,Net-(D21-Pad2)*%
X84740000Y-49320000D03*
%TD*%
D24*
%TO.N,GND*%
X21000000Y-18900000D03*
X44900000Y-30500000D03*
X260950000Y-19199994D03*
X227450000Y-19149990D03*
X193650000Y-19050000D03*
X160100000Y-19100000D03*
X126500000Y-19100000D03*
X50850000Y-19150000D03*
X280967731Y-71130187D03*
X261500000Y-29100000D03*
X31050001Y-26050001D03*
X99475000Y-18450000D03*
X282125000Y-30850000D03*
X43970000Y-18290000D03*
X36244254Y-53225023D03*
X36500012Y-50084330D03*
X45295805Y-28418979D03*
X50270000Y-28418979D03*
%TO.N,+5V*%
X256000000Y-24550000D03*
X280950000Y-73000000D03*
X45625000Y-24275000D03*
X107399994Y-27550000D03*
X154850000Y-24350000D03*
X188450000Y-24450000D03*
X222050000Y-24425000D03*
X121232904Y-24501074D03*
X107450157Y-29197990D03*
X121384468Y-29297990D03*
X255999987Y-28974987D03*
X154850000Y-29747990D03*
X258031976Y-30911969D03*
X279750000Y-31044522D03*
X67375000Y-27175000D03*
X67025000Y-30054020D03*
X42346856Y-28018979D03*
X41353117Y-41079845D03*
X53070000Y-47470000D03*
X46429268Y-46941164D03*
X43095013Y-35394987D03*
X221460000Y-29869992D03*
X54252905Y-41225042D03*
X45137668Y-46312998D03*
X43990268Y-43203760D03*
X59273394Y-40584562D03*
X61134625Y-42464241D03*
X140600018Y-29747990D03*
X188400000Y-29799998D03*
%TO.N,Net-(C6-Pad1)*%
X39414829Y-41766362D03*
X43990510Y-44199490D03*
%TO.N,Net-(D1-Pad1)*%
X38055538Y-69378615D03*
X38960840Y-73339164D03*
%TO.N,pin1*%
X64500000Y-22900000D03*
X58250000Y-21700000D03*
X51259484Y-28690510D03*
X44456743Y-42439379D03*
X36900000Y-31900000D03*
X69200000Y-33400000D03*
%TO.N,Net-(D2-Pad1)*%
X20800000Y-27500000D03*
%TO.N,pin6*%
X44341829Y-41508557D03*
X37800000Y-34200000D03*
%TO.N,pin7*%
X49610566Y-50547967D03*
X50760000Y-51712053D03*
%TO.N,pin8*%
X283372999Y-67127001D03*
X38073798Y-68573796D03*
X48320000Y-50370000D03*
%TO.N,pin9*%
X44553269Y-47511968D03*
X35255559Y-83660059D03*
%TO.N,pin10*%
X112420000Y-47820000D03*
X113762990Y-100132990D03*
%TO.N,pin2*%
X133892990Y-48392990D03*
X133900000Y-21700000D03*
X261700000Y-48200002D03*
X265130000Y-21060000D03*
%TO.N,Net-(D10-Pad2)*%
X34475000Y-50050000D03*
%TO.N,Net-(D11-Pad2)*%
X35590522Y-67209455D03*
%TO.N,pin3*%
X167400000Y-21800000D03*
X162505699Y-64905699D03*
X86250000Y-64700000D03*
X82011636Y-46878364D03*
%TO.N,pin4*%
X201000000Y-21900000D03*
X202750000Y-81250000D03*
X32510000Y-82800000D03*
X32827858Y-50983377D03*
%TO.N,pin5*%
X234700000Y-21700000D03*
X234907010Y-97592990D03*
X83020000Y-47000000D03*
X83630000Y-80490000D03*
X72290000Y-80490000D03*
X72227001Y-98072999D03*
%TO.N,Net-(D14-Pad1)*%
X36748396Y-57564876D03*
X33650000Y-53360000D03*
X61158365Y-47758363D03*
X62539359Y-46810304D03*
%TO.N,Net-(D16-Pad2)*%
X81298645Y-47765979D03*
X69665979Y-47765979D03*
X84302990Y-59000000D03*
%TO.N,Net-(D25-Pad1)*%
X91367001Y-61732999D03*
X109617001Y-86087839D03*
%TO.N,Net-(D36-Pad1)*%
X112400000Y-78600000D03*
%TO.N,Net-(D47-Pad1)*%
X138200000Y-94800000D03*
%TO.N,Net-(D59-Pad1)*%
X180400000Y-35100000D03*
X180800000Y-33400000D03*
%TO.N,Net-(D70-Pad2)*%
X201800000Y-99300000D03*
%TO.N,Net-(D71-Pad1)*%
X222300000Y-51700000D03*
X222600000Y-49900000D03*
%TO.N,Net-(D83-Pad1)*%
X256700000Y-68000000D03*
X257200000Y-66300000D03*
%TO.N,RE6_1*%
X280300000Y-82600004D03*
X279699998Y-84300000D03*
%TO.N,RE1_1*%
X283000000Y-97800000D03*
X137103178Y-31127010D03*
X241606716Y-31127010D03*
X286500000Y-32425000D03*
X64973543Y-29409490D03*
%TO.N,VCC*%
X37900000Y-26200002D03*
X34475000Y-26025000D03*
%TO.N,AUDIO1*%
X32790000Y-47940000D03*
X55680000Y-46450000D03*
X38860000Y-48990000D03*
X31390000Y-30760000D03*
%TO.N,AUDIO2[Reserve]*%
X32044995Y-48231523D03*
X54878265Y-46638265D03*
X37763341Y-49097010D03*
X31370496Y-31650496D03*
%TO.N,Net-(JP_LED1-Pad3)*%
X257150000Y-24500000D03*
X280963265Y-72036735D03*
X257150000Y-29074999D03*
X258228444Y-30136456D03*
X280850000Y-30725000D03*
%TO.N,LED*%
X59420000Y-25300000D03*
X46532025Y-40301672D03*
X62064825Y-42507714D03*
X64227010Y-42567912D03*
%TO.N,Net-(JP_LED2-Pad2)*%
X47150000Y-24360000D03*
X115070028Y-30911969D03*
X47600000Y-26900000D03*
X115800000Y-21100000D03*
%TO.N,Net-(JP_LED2-Pad3)*%
X117550000Y-23200000D03*
X118075214Y-24826315D03*
X123950000Y-26950000D03*
X122175000Y-25174994D03*
%TO.N,Net-(L5-Pad2)*%
X97400000Y-22000000D03*
X99300000Y-20099988D03*
%TO.N,Net-(L6-Pad2)*%
X99438261Y-23561731D03*
X107300004Y-18699996D03*
%TO.N,Net-(L7-Pad2)*%
X107400003Y-22499997D03*
X99415510Y-27400002D03*
%TO.N,Net-(L8-Pad2)*%
X107375000Y-25675000D03*
X50775000Y-17500000D03*
X108074998Y-18125000D03*
X44550000Y-17599490D03*
%TO.N,Net-(L11-Pad2)*%
X156350000Y-24450000D03*
X156975000Y-26100000D03*
%TO.N,Net-(L12-Pad2)*%
X189950000Y-24500000D03*
X190500000Y-26125000D03*
%TO.N,Net-(L13-Pad2)*%
X223550000Y-24475000D03*
X223894136Y-26419136D03*
%TO.N,SDA_RE2A*%
X126800000Y-22200000D03*
X50706649Y-38759086D03*
X121550000Y-41852032D03*
X62497902Y-41164862D03*
%TO.N,SCL_RE2B*%
X49917010Y-38587010D03*
X120745529Y-42306042D03*
X62781316Y-41912990D03*
%TO.N,Net-(R4-Pad2)*%
X38000000Y-62100000D03*
X46467670Y-47789490D03*
X45460000Y-39794011D03*
X40095834Y-49512897D03*
%TO.N,D-*%
X36300000Y-28400000D03*
X33799998Y-47100000D03*
%TO.N,D+*%
X33827010Y-32200000D03*
X33827010Y-46182641D03*
%TO.N,RE1_A*%
X51620000Y-26430000D03*
X51580000Y-20600000D03*
X43940000Y-26089999D03*
X44370000Y-40620000D03*
%TO.N,RE1_B*%
X44690000Y-25460000D03*
X45237433Y-40562440D03*
%TO.N,RE3_B*%
X153620000Y-39940000D03*
X52120000Y-39360000D03*
X62974265Y-39233683D03*
%TO.N,RE3_A*%
X160240000Y-22810000D03*
X154442342Y-40932350D03*
X51324241Y-39267612D03*
X62923886Y-40487694D03*
%TO.N,RE4_B*%
X187840000Y-41510957D03*
%TO.N,RE4_A*%
X193690000Y-22620000D03*
X52890821Y-40287548D03*
X62451013Y-39842396D03*
X188982997Y-40653731D03*
%TO.N,RE5_A*%
X227420002Y-22950000D03*
X222325000Y-41915000D03*
%TO.N,RE5_B*%
X221050000Y-42418979D03*
%TO.N,RE6_A*%
X261890000Y-21580000D03*
X260840000Y-42100000D03*
%TO.N,RE6_B*%
X259980000Y-42900000D03*
%TD*%
D25*
%TO.N,GND*%
X29075000Y-17965000D02*
X29075000Y-21345000D01*
X37725000Y-17965000D02*
X37725000Y-21345000D01*
X227450000Y-21350000D02*
X227450000Y-19149990D01*
X225900000Y-22900000D02*
X227450000Y-21350000D01*
X225800000Y-22900000D02*
X225900000Y-22900000D01*
X193650000Y-21650000D02*
X192400000Y-22900000D01*
X192400000Y-22900000D02*
X192200000Y-22900000D01*
X193650000Y-19050000D02*
X193650000Y-21650000D01*
X158700000Y-22900000D02*
X158600000Y-22900000D01*
X160100000Y-21500000D02*
X158700000Y-22900000D01*
X160100000Y-19100000D02*
X160100000Y-21500000D01*
X49602902Y-22900000D02*
X49400000Y-22900000D01*
X50850000Y-21652902D02*
X49602902Y-22900000D01*
X50850000Y-19150000D02*
X50850000Y-21652902D01*
X260800000Y-24300000D02*
X259400000Y-22900000D01*
X260800000Y-28400000D02*
X260800000Y-24300000D01*
X261500000Y-29100000D02*
X260800000Y-28400000D01*
X30425000Y-25425000D02*
X31050001Y-26050001D01*
X30425000Y-22325000D02*
X30425000Y-25425000D01*
X239492068Y-19149990D02*
X227450000Y-19149990D01*
X240342568Y-18299490D02*
X239492068Y-19149990D01*
X260049496Y-18299490D02*
X240342568Y-18299490D01*
X260950000Y-19199994D02*
X260049496Y-18299490D01*
X201252902Y-19050000D02*
X193650000Y-19050000D01*
X202003412Y-18299490D02*
X201252902Y-19050000D01*
X226599500Y-18299490D02*
X202003412Y-18299490D01*
X227450000Y-19149990D02*
X226599500Y-18299490D01*
X167602902Y-19100000D02*
X160100000Y-19100000D01*
X168403412Y-18299490D02*
X167602902Y-19100000D01*
X192899490Y-18299490D02*
X168403412Y-18299490D01*
X193650000Y-19050000D02*
X192899490Y-18299490D01*
X143290510Y-18299490D02*
X142300000Y-19290000D01*
X159299490Y-18299490D02*
X143290510Y-18299490D01*
X160100000Y-19100000D02*
X159299490Y-18299490D01*
X126590501Y-19009499D02*
X126500000Y-19100000D01*
X142019499Y-19009499D02*
X126590501Y-19009499D01*
X142300000Y-19290000D02*
X142019499Y-19009499D01*
X125699490Y-18299490D02*
X109524490Y-18299490D01*
X126500000Y-19100000D02*
X125699490Y-18299490D01*
X100675510Y-17249490D02*
X99475000Y-18450000D01*
X108474490Y-17249490D02*
X100675510Y-17249490D01*
X109524490Y-18299490D02*
X108474490Y-17249490D01*
X282650000Y-31375000D02*
X282125000Y-30850000D01*
X280967731Y-71130187D02*
X280967731Y-40697151D01*
X280967731Y-40697151D02*
X282650000Y-39014883D01*
X282650000Y-39014883D02*
X282650000Y-31375000D01*
X43970000Y-18290000D02*
X49990000Y-18290000D01*
X49990000Y-18290000D02*
X50850000Y-19150000D01*
X36244254Y-50340088D02*
X36500012Y-50084330D01*
X36244254Y-53225023D02*
X36244254Y-50340088D01*
X260814213Y-19335781D02*
X260950000Y-19199994D01*
X259400000Y-22900000D02*
X260814213Y-22900000D01*
X260814213Y-22900000D02*
X260814213Y-19335781D01*
X126500000Y-19100000D02*
X126500000Y-21509498D01*
X126500000Y-21509498D02*
X125109498Y-22900000D01*
X125109498Y-22900000D02*
X125000000Y-22900000D01*
X44900000Y-30500000D02*
X44900000Y-28814784D01*
X50875500Y-27813479D02*
X50270000Y-28418979D01*
X50875500Y-24375500D02*
X50875500Y-27813479D01*
X44900000Y-28814784D02*
X45295805Y-28418979D01*
X49400000Y-22900000D02*
X50875500Y-24375500D01*
X21050000Y-18850000D02*
X21000000Y-18900000D01*
X23350000Y-18850000D02*
X21050000Y-18850000D01*
%TO.N,+5V*%
X107399994Y-27550000D02*
X107399994Y-29147827D01*
X107399994Y-29147827D02*
X107450157Y-29197990D01*
X121232904Y-24501074D02*
X121232904Y-29146426D01*
X121232904Y-29146426D02*
X121384468Y-29297990D01*
X256000000Y-24550000D02*
X256000000Y-28974974D01*
X256000000Y-28974974D02*
X255999987Y-28974987D01*
X154850000Y-24350000D02*
X154850000Y-29747990D01*
X255999987Y-28974987D02*
X257936969Y-30911969D01*
X257936969Y-30911969D02*
X258031976Y-30911969D01*
X281610501Y-32905023D02*
X279750000Y-31044522D01*
X279750000Y-71800000D02*
X279750000Y-40451141D01*
X280950000Y-73000000D02*
X279750000Y-71800000D01*
X279750000Y-40451141D02*
X281610501Y-38590641D01*
X281610501Y-38590641D02*
X281610501Y-32905023D01*
X67375000Y-27175000D02*
X67025000Y-27525000D01*
X67025000Y-27525000D02*
X67025000Y-30054020D01*
X45625000Y-26154835D02*
X43760856Y-28018979D01*
X43760856Y-28018979D02*
X42346856Y-28018979D01*
X45625000Y-24275000D02*
X45625000Y-26154835D01*
X46425176Y-46945256D02*
X46429268Y-46941164D01*
X45769926Y-46945256D02*
X46425176Y-46945256D01*
X41349490Y-33649464D02*
X43095013Y-35394987D01*
X42346856Y-28018979D02*
X41349490Y-29016345D01*
X41349490Y-29016345D02*
X41349490Y-33649464D01*
X222050000Y-29279992D02*
X221460000Y-29869992D01*
X222050000Y-24425000D02*
X222050000Y-29279992D01*
X47809102Y-47470000D02*
X53070000Y-47470000D01*
X46799111Y-48479991D02*
X47809102Y-47470000D01*
X46136229Y-48479991D02*
X46799111Y-48479991D01*
X45769926Y-48113688D02*
X46136229Y-48479991D01*
X45769926Y-46945256D02*
X45769926Y-48113688D01*
X45769926Y-46945256D02*
X45137668Y-46312998D01*
X41353117Y-41079845D02*
X41866353Y-41079845D01*
X45137668Y-44351160D02*
X43990268Y-43203760D01*
X45137668Y-46312998D02*
X45137668Y-44351160D01*
X41866353Y-41079845D02*
X43990268Y-43203760D01*
X58569435Y-41288521D02*
X59273394Y-40584562D01*
X54252905Y-41225042D02*
X54316384Y-41288521D01*
X54316384Y-41288521D02*
X58569435Y-41288521D01*
X56780410Y-43759590D02*
X59839276Y-43759590D01*
X53070000Y-47470000D02*
X56780410Y-43759590D01*
X59839276Y-43759590D02*
X61134625Y-42464241D01*
X142300000Y-21830000D02*
X140899983Y-23230017D01*
X140899983Y-29448025D02*
X140600018Y-29747990D01*
X140899983Y-23230017D02*
X140899983Y-29448025D01*
X188450000Y-29749998D02*
X188400000Y-29799998D01*
X188450000Y-24450000D02*
X188450000Y-29749998D01*
D26*
%TO.N,Net-(C6-Pad1)*%
X43990510Y-44140510D02*
X43990510Y-44199490D01*
X39414829Y-41766362D02*
X41616362Y-41766362D01*
X41616362Y-41766362D02*
X43990510Y-44140510D01*
%TO.N,Net-(D1-Pad1)*%
X19967001Y-51382999D02*
X19490000Y-51860000D01*
X19967001Y-35937001D02*
X19967001Y-51382999D01*
X19490000Y-35460000D02*
X19967001Y-35937001D01*
X19967001Y-67782999D02*
X19490000Y-68260000D01*
X19967001Y-52337001D02*
X19967001Y-67782999D01*
X19490000Y-51860000D02*
X19967001Y-52337001D01*
X19967001Y-100582999D02*
X19490000Y-101060000D01*
X19967001Y-85137001D02*
X19967001Y-100582999D01*
X19490000Y-84660000D02*
X19967001Y-85137001D01*
X39260839Y-81689161D02*
X39260839Y-73639163D01*
X39260839Y-73639163D02*
X38960840Y-73339164D01*
X36290000Y-84660000D02*
X39260839Y-81689161D01*
X43910000Y-56940000D02*
X43910000Y-63632068D01*
X43910000Y-63632068D02*
X37754011Y-69788057D01*
X37754011Y-69788057D02*
X37754011Y-72132335D01*
X37754011Y-72132335D02*
X38960840Y-73339164D01*
%TO.N,pin1*%
X58250000Y-21700000D02*
X51259490Y-28690510D01*
X51259490Y-28690510D02*
X51259484Y-28690510D01*
X36900000Y-34227962D02*
X36900000Y-31900000D01*
X39123682Y-40452844D02*
X37672999Y-39002161D01*
X42045944Y-40452844D02*
X39123682Y-40452844D01*
X37672999Y-39002161D02*
X37672999Y-35000961D01*
X44032479Y-42439379D02*
X42045944Y-40452844D01*
X37672999Y-35000961D02*
X36900000Y-34227962D01*
X44456743Y-42439379D02*
X44032479Y-42439379D01*
X64500000Y-22900000D02*
X65812990Y-24212990D01*
X65812990Y-24212990D02*
X65812990Y-30012990D01*
X65812990Y-30012990D02*
X69200000Y-33400000D01*
%TO.N,Net-(D2-Pad1)*%
X23300000Y-27500000D02*
X23350000Y-27550000D01*
X20800000Y-27500000D02*
X23300000Y-27500000D01*
%TO.N,pin6*%
X42417001Y-36992737D02*
X39624264Y-34200000D01*
X44341829Y-41508557D02*
X42417001Y-39583729D01*
X42417001Y-39583729D02*
X42417001Y-36992737D01*
X39624264Y-34200000D02*
X37800000Y-34200000D01*
%TO.N,pin7*%
X50760000Y-51697401D02*
X50760000Y-51712053D01*
X49610566Y-50547967D02*
X50760000Y-51697401D01*
%TO.N,pin8*%
X281594733Y-68905267D02*
X283372999Y-67127001D01*
X280840000Y-74700000D02*
X281594733Y-73945267D01*
X281594733Y-73945267D02*
X281594733Y-68905267D01*
X40530000Y-50370000D02*
X48320000Y-50370000D01*
X37782999Y-53117001D02*
X40530000Y-50370000D01*
X38073798Y-68573796D02*
X40600000Y-66047594D01*
X40600000Y-58329162D02*
X37782999Y-55512161D01*
X37782999Y-55512161D02*
X37782999Y-53117001D01*
X40600000Y-66047594D02*
X40600000Y-58329162D01*
%TO.N,pin9*%
X38787010Y-80128608D02*
X35255559Y-83660059D01*
X38800000Y-60300000D02*
X37300000Y-61800000D01*
X37300000Y-74009010D02*
X38787010Y-75496020D01*
X37300000Y-61800000D02*
X37300000Y-74009010D01*
X38800000Y-58500000D02*
X38800000Y-60300000D01*
X36874978Y-56574978D02*
X38800000Y-58500000D01*
X36874978Y-50772954D02*
X36874978Y-56574978D01*
X37136331Y-48531214D02*
X37136331Y-50511601D01*
X38155577Y-47511968D02*
X37136331Y-48531214D01*
X44553269Y-47511968D02*
X38155577Y-47511968D01*
X37136331Y-50511601D02*
X36874978Y-50772954D01*
X38787010Y-75496020D02*
X38787010Y-80128608D01*
%TO.N,pin10*%
X113762990Y-86855828D02*
X113762990Y-100132990D01*
X113217010Y-86309848D02*
X113762990Y-86855828D01*
X113217010Y-48617010D02*
X113217010Y-86309848D01*
X112420000Y-47820000D02*
X113217010Y-48617010D01*
%TO.N,pin2*%
X134599999Y-47685981D02*
X134599999Y-22399999D01*
X133892990Y-48392990D02*
X134599999Y-47685981D01*
X134599999Y-22399999D02*
X133900000Y-21700000D01*
X264950001Y-21239999D02*
X265130000Y-21060000D01*
X264950001Y-44950001D02*
X264950001Y-21239999D01*
X261700000Y-48200002D02*
X264950001Y-44950001D01*
%TO.N,Net-(D10-Pad2)*%
X30832999Y-53864963D02*
X34475000Y-50222962D01*
X30832999Y-54960161D02*
X30832999Y-53864963D01*
X35352838Y-59480000D02*
X30832999Y-54960161D01*
X34475000Y-50222962D02*
X34475000Y-50050000D01*
X37460000Y-59480000D02*
X35352838Y-59480000D01*
%TO.N,Net-(D11-Pad2)*%
X35590522Y-67890522D02*
X35590522Y-67209455D01*
X36772998Y-69072998D02*
X35590522Y-67890522D01*
X36772998Y-75192998D02*
X36772998Y-69072998D01*
X37460000Y-75880000D02*
X36772998Y-75192998D01*
%TO.N,pin3*%
X162767001Y-64644397D02*
X162505699Y-64905699D01*
X162767001Y-53093989D02*
X162767001Y-64644397D01*
X163947001Y-25252999D02*
X163947001Y-51913989D01*
X167400000Y-21800000D02*
X163947001Y-25252999D01*
X163947001Y-51913989D02*
X162767001Y-53093989D01*
X84930000Y-53152068D02*
X82565989Y-50788057D01*
X86250000Y-64700000D02*
X84930000Y-63380000D01*
X84930000Y-63380000D02*
X84930000Y-53152068D01*
X82565989Y-50788057D02*
X82565989Y-47432717D01*
X82565989Y-47432717D02*
X82011636Y-46878364D01*
%TO.N,pin4*%
X202692990Y-50678000D02*
X202692990Y-64362000D01*
X202692990Y-64362000D02*
X203667010Y-65336020D01*
X202750000Y-67020990D02*
X202750000Y-81250000D01*
X203667010Y-66103980D02*
X202750000Y-67020990D01*
X203667010Y-65336020D02*
X203667010Y-66103980D01*
X201852999Y-22752999D02*
X201852999Y-47122009D01*
X201852999Y-47122009D02*
X203667010Y-48936020D01*
X203667010Y-48936020D02*
X203667010Y-49703980D01*
X203667010Y-49703980D02*
X202692990Y-50678000D01*
X201000000Y-21900000D02*
X201852999Y-22752999D01*
X30832999Y-81122999D02*
X30832999Y-70239839D01*
X32510000Y-82800000D02*
X30832999Y-81122999D01*
X30832999Y-70239839D02*
X32070000Y-69002838D01*
X30378988Y-53432247D02*
X32827858Y-50983377D01*
X32070000Y-56839230D02*
X30378988Y-55148218D01*
X30378988Y-55148218D02*
X30378988Y-53432247D01*
X32070000Y-69002838D02*
X32070000Y-56839230D01*
%TO.N,pin5*%
X234907010Y-72622152D02*
X234907010Y-97592990D01*
X235617001Y-71912161D02*
X234907010Y-72622152D01*
X234612990Y-68683828D02*
X235617001Y-69687839D01*
X234612990Y-65336020D02*
X234612990Y-68683828D01*
X235617001Y-53287839D02*
X235617001Y-64332009D01*
X234612990Y-52283828D02*
X235617001Y-53287839D01*
X235617001Y-69687839D02*
X235617001Y-71912161D01*
X235617001Y-64332009D02*
X234612990Y-65336020D01*
X234612990Y-48936020D02*
X234612990Y-52283828D01*
X235227001Y-48322009D02*
X234612990Y-48936020D01*
X235227001Y-22227001D02*
X235227001Y-48322009D01*
X234700000Y-21700000D02*
X235227001Y-22227001D01*
X83020000Y-47000000D02*
X83020000Y-50600000D01*
X85432999Y-53012999D02*
X85432999Y-62942999D01*
X83020000Y-50600000D02*
X85432999Y-53012999D01*
X85432999Y-62942999D02*
X86940000Y-64450000D01*
X85432999Y-78687001D02*
X83630000Y-80490000D01*
X86940000Y-68732838D02*
X85432999Y-70239839D01*
X85432999Y-70239839D02*
X85432999Y-78687001D01*
X86940000Y-64450000D02*
X86940000Y-68732838D01*
X71382999Y-97228997D02*
X72227001Y-98072999D01*
X71382999Y-81397001D02*
X71382999Y-97228997D01*
X72290000Y-80490000D02*
X71382999Y-81397001D01*
%TO.N,Net-(D14-Pad1)*%
X70367001Y-93337001D02*
X70367001Y-100582999D01*
X70367001Y-100582999D02*
X69890000Y-101060000D01*
X69890000Y-92860000D02*
X70367001Y-93337001D01*
X70367001Y-92382999D02*
X69890000Y-92860000D01*
X70367001Y-85137001D02*
X70367001Y-92382999D01*
X69890000Y-84660000D02*
X70367001Y-85137001D01*
X61490000Y-57720000D02*
X61490000Y-68260000D01*
X60710000Y-56940000D02*
X61490000Y-57720000D01*
X84417001Y-69687839D02*
X84417001Y-78532999D01*
X82989162Y-68260000D02*
X84417001Y-69687839D01*
X84417001Y-78532999D02*
X78290000Y-84660000D01*
X78290000Y-68260000D02*
X82989162Y-68260000D01*
X33747001Y-54987745D02*
X33747001Y-53457001D01*
X36324132Y-57564876D02*
X33747001Y-54987745D01*
X36748396Y-57564876D02*
X36324132Y-57564876D01*
X33747001Y-53457001D02*
X33650000Y-53360000D01*
X61490000Y-48089998D02*
X61158365Y-47758363D01*
X61490000Y-51860000D02*
X61490000Y-48089998D01*
X63601266Y-37894104D02*
X63601266Y-39539672D01*
X61167162Y-35460000D02*
X63601266Y-37894104D01*
X63600000Y-45749663D02*
X62539359Y-46810304D01*
X63600000Y-39540938D02*
X63600000Y-45749663D01*
X63601266Y-39539672D02*
X63600000Y-39540938D01*
X53090000Y-35460000D02*
X61167162Y-35460000D01*
X36290000Y-35460000D02*
X36798053Y-35968053D01*
X36798053Y-35968053D02*
X36798053Y-48227424D01*
X36495989Y-48529488D02*
X36495989Y-49124042D01*
X36798053Y-48227424D02*
X36495989Y-48529488D01*
X36495989Y-49124042D02*
X34541012Y-51079018D01*
X34541012Y-52468988D02*
X33650000Y-53360000D01*
X34541012Y-51079018D02*
X34541012Y-52468988D01*
%TO.N,Net-(D16-Pad2)*%
X69494021Y-47765979D02*
X67940000Y-49320000D01*
X69665979Y-47765979D02*
X69494021Y-47765979D01*
X81298645Y-47765979D02*
X82111978Y-48579312D01*
X82111978Y-51134046D02*
X84475989Y-53498057D01*
X84475989Y-53498057D02*
X84475989Y-58827001D01*
X84475989Y-58827001D02*
X84302990Y-59000000D01*
X82111978Y-48579312D02*
X82111978Y-51134046D01*
%TO.N,Net-(D24-Pad2)*%
X76340000Y-90320000D02*
X76340000Y-98520000D01*
%TO.N,Net-(D25-Pad1)*%
X109617001Y-86087839D02*
X109617001Y-97032999D01*
X109617001Y-97032999D02*
X105590000Y-101060000D01*
X70367001Y-51382999D02*
X69890000Y-51860000D01*
X70367001Y-35937001D02*
X70367001Y-51382999D01*
X69890000Y-35460000D02*
X70367001Y-35937001D01*
X91367001Y-67782999D02*
X90890000Y-68260000D01*
X90890000Y-51860000D02*
X91367001Y-52337001D01*
X95090000Y-82359010D02*
X95090000Y-84660000D01*
X91367001Y-78636011D02*
X95090000Y-82359010D01*
X91367001Y-68737001D02*
X91367001Y-78636011D01*
X90890000Y-68260000D02*
X91367001Y-68737001D01*
X91367001Y-61732999D02*
X91367001Y-67782999D01*
X91367001Y-52337001D02*
X91367001Y-61732999D01*
%TO.N,Net-(D36-Pad1)*%
X112367001Y-67782999D02*
X111890000Y-68260000D01*
X112367001Y-52337001D02*
X112367001Y-67782999D01*
X111890000Y-51860000D02*
X112367001Y-52337001D01*
X120290000Y-75406000D02*
X120290000Y-84660000D01*
X127436000Y-68260000D02*
X120290000Y-75406000D01*
X128690000Y-68260000D02*
X127436000Y-68260000D01*
X120767001Y-85137001D02*
X120767001Y-100582999D01*
X120767001Y-100582999D02*
X120290000Y-101060000D01*
X120290000Y-84660000D02*
X120767001Y-85137001D01*
X110636000Y-51860000D02*
X111890000Y-51860000D01*
X103490000Y-35460000D02*
X104400000Y-36370000D01*
X104400000Y-36370000D02*
X104400000Y-45624000D01*
X104400000Y-45624000D02*
X110636000Y-51860000D01*
X112500000Y-70124000D02*
X112500000Y-78500000D01*
X112500000Y-78500000D02*
X112400000Y-78600000D01*
X111890000Y-69514000D02*
X112500000Y-70124000D01*
X111890000Y-68260000D02*
X111890000Y-69514000D01*
%TO.N,Net-(D47-Pad1)*%
X137090000Y-75406000D02*
X137090000Y-84660000D01*
X144236000Y-68260000D02*
X137090000Y-75406000D01*
X145490000Y-68260000D02*
X144236000Y-68260000D01*
X154367001Y-85137001D02*
X154367001Y-100582999D01*
X154367001Y-100582999D02*
X153890000Y-101060000D01*
X153890000Y-84660000D02*
X154367001Y-85137001D01*
X145490000Y-42606000D02*
X145490000Y-51860000D01*
X152636000Y-35460000D02*
X145490000Y-42606000D01*
X153890000Y-35460000D02*
X152636000Y-35460000D01*
X147227130Y-66522870D02*
X145490000Y-68260000D01*
X147227130Y-62529015D02*
X147227130Y-66522870D01*
X145967001Y-61268886D02*
X147227130Y-62529015D01*
X145967001Y-52337001D02*
X145967001Y-61268886D01*
X145490000Y-51860000D02*
X145967001Y-52337001D01*
X138200000Y-85770000D02*
X138200000Y-94800000D01*
X137090000Y-84660000D02*
X138200000Y-85770000D01*
%TO.N,Net-(D59-Pad1)*%
X170690000Y-75406000D02*
X170690000Y-84660000D01*
X177836000Y-68260000D02*
X170690000Y-75406000D01*
X179090000Y-68260000D02*
X177836000Y-68260000D01*
X171167001Y-100582999D02*
X170690000Y-101060000D01*
X171167001Y-85137001D02*
X171167001Y-100582999D01*
X170690000Y-84660000D02*
X171167001Y-85137001D01*
X187967001Y-92382999D02*
X187490000Y-92860000D01*
X187967001Y-85137001D02*
X187967001Y-92382999D01*
X187490000Y-84660000D02*
X187967001Y-85137001D01*
X187967001Y-100582999D02*
X187490000Y-101060000D01*
X187967001Y-93337001D02*
X187967001Y-100582999D01*
X187490000Y-92860000D02*
X187967001Y-93337001D01*
X196367001Y-67782999D02*
X195890000Y-68260000D01*
X196367001Y-52337001D02*
X196367001Y-67782999D01*
X195890000Y-51860000D02*
X196367001Y-52337001D01*
X179567001Y-67782999D02*
X179090000Y-68260000D01*
X179567001Y-52337001D02*
X179567001Y-67782999D01*
X179090000Y-51860000D02*
X179567001Y-52337001D01*
X171167001Y-43937001D02*
X179090000Y-51860000D01*
X171167001Y-35937001D02*
X171167001Y-43937001D01*
X170690000Y-35460000D02*
X171167001Y-35937001D01*
X180400000Y-33800000D02*
X180800000Y-33400000D01*
X180400000Y-35100000D02*
X180400000Y-33800000D01*
%TO.N,Net-(D64-Pad2)*%
X193940000Y-90320000D02*
X193940000Y-98520000D01*
%TO.N,Net-(D70-Pad2)*%
X204206000Y-108680000D02*
X201800000Y-106274000D01*
X205460000Y-108680000D02*
X204206000Y-108680000D01*
X201800000Y-106274000D02*
X201800000Y-99300000D01*
%TO.N,Net-(D71-Pad1)*%
X219912990Y-99882990D02*
X221090000Y-101060000D01*
X219912990Y-98136020D02*
X219912990Y-99882990D01*
X221567001Y-96482009D02*
X219912990Y-98136020D01*
X221567001Y-85137001D02*
X221567001Y-96482009D01*
X221090000Y-84660000D02*
X221567001Y-85137001D01*
X213167001Y-76737001D02*
X221090000Y-84660000D01*
X213167001Y-68737001D02*
X213167001Y-76737001D01*
X212690000Y-68260000D02*
X213167001Y-68737001D01*
X213167001Y-67782999D02*
X212690000Y-68260000D01*
X213167001Y-52337001D02*
X213167001Y-67782999D01*
X212690000Y-51860000D02*
X213167001Y-52337001D01*
X204767001Y-43937001D02*
X212690000Y-51860000D01*
X204767001Y-35937001D02*
X204767001Y-43937001D01*
X204290000Y-35460000D02*
X204767001Y-35937001D01*
X222300000Y-50200000D02*
X222600000Y-49900000D01*
X222300000Y-51700000D02*
X222300000Y-50200000D01*
%TO.N,Net-(D83-Pad1)*%
X236712990Y-98136020D02*
X236712990Y-99882990D01*
X238367001Y-85137001D02*
X238367001Y-96482009D01*
X236712990Y-99882990D02*
X237890000Y-101060000D01*
X238367001Y-96482009D02*
X236712990Y-98136020D01*
X237890000Y-84660000D02*
X238367001Y-85137001D01*
X246767001Y-76737001D02*
X254690000Y-84660000D01*
X246767001Y-68737001D02*
X246767001Y-76737001D01*
X246290000Y-68260000D02*
X246767001Y-68737001D01*
X256700000Y-66800000D02*
X257200000Y-66300000D01*
X256700000Y-68000000D02*
X256700000Y-66800000D01*
X246767001Y-67782999D02*
X246290000Y-68260000D01*
X246767001Y-52337001D02*
X246767001Y-67782999D01*
X246290000Y-51860000D02*
X246767001Y-52337001D01*
X239200000Y-44770000D02*
X246290000Y-51860000D01*
X239200000Y-36770000D02*
X239200000Y-44770000D01*
X237890000Y-35460000D02*
X239200000Y-36770000D01*
%TO.N,RE6_1*%
X263567001Y-67782999D02*
X263090000Y-68260000D01*
X263567001Y-52337001D02*
X263567001Y-67782999D01*
X263090000Y-51860000D02*
X263567001Y-52337001D01*
X278300000Y-71192838D02*
X278300000Y-74700000D01*
X275367162Y-68260000D02*
X278300000Y-71192838D01*
X267290000Y-68260000D02*
X275367162Y-68260000D01*
X271967001Y-85137001D02*
X271967001Y-100582999D01*
X271967001Y-100582999D02*
X271490000Y-101060000D01*
X271490000Y-84660000D02*
X271967001Y-85137001D01*
X273900000Y-33050000D02*
X271490000Y-35460000D01*
X273900000Y-25400000D02*
X273900000Y-33050000D01*
X267290000Y-38406000D02*
X267290000Y-51860000D01*
X270236000Y-35460000D02*
X267290000Y-38406000D01*
X271490000Y-35460000D02*
X270236000Y-35460000D01*
X278300000Y-74700000D02*
X278300000Y-80600004D01*
X278300000Y-80600004D02*
X280300000Y-82600004D01*
X279700000Y-84300000D02*
X279699998Y-84300000D01*
X280000000Y-84000000D02*
X279700000Y-84300000D01*
X280000000Y-82900004D02*
X280000000Y-84000000D01*
X280300000Y-82600004D02*
X280000000Y-82900004D01*
%TO.N,RE1_1*%
X285582999Y-69752999D02*
X284090000Y-68260000D01*
X285582999Y-81952999D02*
X285582999Y-69752999D01*
X288290000Y-84660000D02*
X285582999Y-81952999D01*
X288767001Y-35937001D02*
X288767001Y-51382999D01*
X288767001Y-51382999D02*
X288290000Y-51860000D01*
X288290000Y-35460000D02*
X288767001Y-35937001D01*
X284567001Y-67782999D02*
X284090000Y-68260000D01*
X284567001Y-52337001D02*
X284567001Y-67782999D01*
X284090000Y-51860000D02*
X284567001Y-52337001D01*
X283000000Y-88696000D02*
X283000000Y-97800000D01*
X287036000Y-84660000D02*
X283000000Y-88696000D01*
X288290000Y-84660000D02*
X287036000Y-84660000D01*
X139500000Y-25400000D02*
X139500000Y-28730188D01*
X139500000Y-28730188D02*
X137103178Y-31127010D01*
X240300000Y-29820294D02*
X241606716Y-31127010D01*
X240300000Y-25400000D02*
X240300000Y-29820294D01*
X288290000Y-34215000D02*
X286500000Y-32425000D01*
X288290000Y-35460000D02*
X288290000Y-34215000D01*
X63900000Y-28335947D02*
X64973543Y-29409490D01*
X63900000Y-25400000D02*
X63900000Y-28335947D01*
%TO.N,Net-(D102-Pad2)*%
X32975000Y-22210038D02*
X32975000Y-22325000D01*
X33825000Y-21360038D02*
X32975000Y-22210038D01*
X33825000Y-20975000D02*
X33825000Y-21360038D01*
D25*
%TO.N,VCC*%
X35525000Y-20975000D02*
X35525000Y-22325000D01*
X35525000Y-20515381D02*
X35525000Y-20975000D01*
X35269118Y-20259499D02*
X35525000Y-20515381D01*
X31275000Y-20515381D02*
X31530882Y-20259499D01*
X31530882Y-20259499D02*
X35269118Y-20259499D01*
X31275000Y-20975000D02*
X31275000Y-20515381D01*
X31275000Y-20975000D02*
X31275000Y-22325000D01*
X37900000Y-24912500D02*
X37900000Y-26200002D01*
X35525000Y-22537500D02*
X37900000Y-24912500D01*
X35525000Y-22325000D02*
X35525000Y-22537500D01*
X35525000Y-24975000D02*
X34475000Y-26025000D01*
X35525000Y-22325000D02*
X35525000Y-24975000D01*
D26*
%TO.N,AUDIO1*%
X53084264Y-49470000D02*
X40980903Y-49470000D01*
X55680000Y-46874264D02*
X53084264Y-49470000D01*
X38964107Y-48885893D02*
X38860000Y-48990000D01*
X40396796Y-48885893D02*
X38964107Y-48885893D01*
X55680000Y-46450000D02*
X55680000Y-46874264D01*
X40980903Y-49470000D02*
X40396796Y-48885893D01*
X32284011Y-47434011D02*
X32284011Y-31654011D01*
X32284011Y-31654011D02*
X31390000Y-30760000D01*
X32790000Y-47940000D02*
X32284011Y-47434011D01*
%TO.N,AUDIO2[Reserve]*%
X38497352Y-48362999D02*
X37763341Y-49097010D01*
X52500541Y-49015989D02*
X41168960Y-49015989D01*
X41168960Y-49015989D02*
X40515970Y-48362999D01*
X40515970Y-48362999D02*
X38497352Y-48362999D01*
X54878265Y-46638265D02*
X52500541Y-49015989D01*
X31830000Y-32110000D02*
X31370496Y-31650496D01*
X31830000Y-48016528D02*
X31830000Y-32110000D01*
X32044995Y-48231523D02*
X31830000Y-48016528D01*
%TO.N,Net-(JP_LED1-Pad3)*%
X257150000Y-24500000D02*
X257150000Y-29074999D01*
X258211457Y-30136456D02*
X258228444Y-30136456D01*
X257150000Y-29074999D02*
X258211457Y-30136456D01*
X280267511Y-40665501D02*
X282132489Y-38800523D01*
X282132489Y-32007489D02*
X280850000Y-30725000D01*
X280267511Y-71340981D02*
X280267511Y-40665501D01*
X280963265Y-72036735D02*
X280267511Y-71340981D01*
X282132489Y-38800523D02*
X282132489Y-32007489D01*
%TO.N,LED*%
X60850534Y-41820360D02*
X61377471Y-41820360D01*
X49444429Y-43214076D02*
X59456818Y-43214076D01*
X61377471Y-41820360D02*
X62064825Y-42507714D01*
X59456818Y-43214076D02*
X60850534Y-41820360D01*
X46532025Y-40301672D02*
X49444429Y-43214076D01*
X59420000Y-25300000D02*
X64227010Y-30107010D01*
X64227010Y-30107010D02*
X64227010Y-42567912D01*
%TO.N,Net-(JP_LED2-Pad2)*%
X47150000Y-26450000D02*
X47600000Y-26900000D01*
X47150000Y-24360000D02*
X47150000Y-26450000D01*
X115070028Y-21829972D02*
X115800000Y-21100000D01*
X115070028Y-30911969D02*
X115070028Y-21829972D01*
%TO.N,Net-(JP_LED2-Pad3)*%
X117550000Y-23200000D02*
X117550000Y-24301101D01*
X117550000Y-24301101D02*
X118075214Y-24826315D01*
X123950000Y-26950000D02*
X122175000Y-25175000D01*
X122175000Y-25175000D02*
X122175000Y-25174994D01*
%TO.N,Net-(L5-Pad2)*%
X97400000Y-22000000D02*
X99300000Y-20100000D01*
X99300000Y-20100000D02*
X99300000Y-20099988D01*
%TO.N,Net-(L6-Pad2)*%
X107300004Y-19124260D02*
X107300004Y-18699996D01*
X105311274Y-21112990D02*
X107300004Y-19124260D01*
X99438261Y-23561731D02*
X99438261Y-23114425D01*
X99438261Y-23114425D02*
X101439696Y-21112990D01*
X101439696Y-21112990D02*
X105311274Y-21112990D01*
%TO.N,Net-(L7-Pad2)*%
X107400003Y-22924261D02*
X105411274Y-24912990D01*
X105411274Y-24912990D02*
X101403258Y-24912990D01*
X101403258Y-24912990D02*
X99415510Y-26900738D01*
X107400003Y-22499997D02*
X107400003Y-22924261D01*
X99415510Y-26900738D02*
X99415510Y-27400002D01*
%TO.N,Net-(L8-Pad2)*%
X108074998Y-24975002D02*
X108074998Y-18125000D01*
X107375000Y-25675000D02*
X108074998Y-24975002D01*
X44649490Y-17500000D02*
X44550000Y-17599490D01*
X50775000Y-17500000D02*
X44649490Y-17500000D01*
%TO.N,Net-(L11-Pad2)*%
X156350000Y-25475000D02*
X156975000Y-26100000D01*
X156350000Y-24450000D02*
X156350000Y-25475000D01*
%TO.N,Net-(L12-Pad2)*%
X189950000Y-25575000D02*
X190500000Y-26125000D01*
X189950000Y-24500000D02*
X189950000Y-25575000D01*
%TO.N,Net-(L13-Pad2)*%
X223550000Y-26075000D02*
X223894136Y-26419136D01*
X223550000Y-24475000D02*
X223550000Y-26075000D01*
%TO.N,SDA_RE2A*%
X121550000Y-37020000D02*
X121550000Y-41852032D01*
X126800000Y-25590000D02*
X125412990Y-26977010D01*
X125412990Y-26977010D02*
X125412990Y-33157010D01*
X126800000Y-22200000D02*
X126800000Y-25590000D01*
X125412990Y-33157010D02*
X121550000Y-37020000D01*
X50706649Y-38759086D02*
X50406650Y-39059085D01*
X50406650Y-39059085D02*
X50406650Y-39342514D01*
X59080705Y-42306053D02*
X60721778Y-40664980D01*
X60721778Y-40664980D02*
X61724590Y-40664980D01*
X61724590Y-40664980D02*
X62224472Y-41164862D01*
X62224472Y-41164862D02*
X62497902Y-41164862D01*
X50406650Y-39342514D02*
X53370190Y-42306054D01*
X53370190Y-42306054D02*
X59080705Y-42306053D01*
%TO.N,SCL_RE2B*%
X124958979Y-25441021D02*
X124958979Y-32968953D01*
X120902999Y-42148572D02*
X120745529Y-42306042D01*
X124958979Y-32968953D02*
X120902999Y-37024933D01*
X120902999Y-37024933D02*
X120902999Y-42148572D01*
X125000000Y-25400000D02*
X124958979Y-25441021D01*
X59268763Y-42760063D02*
X60899453Y-41129373D01*
X60899453Y-41129373D02*
X61542855Y-41129373D01*
X49917010Y-39494942D02*
X53182133Y-42760065D01*
X61542855Y-41129373D02*
X62326472Y-41912990D01*
X49917010Y-38587010D02*
X49917010Y-39494942D01*
X53182133Y-42760065D02*
X59268763Y-42760063D01*
X62326472Y-41912990D02*
X62781316Y-41912990D01*
%TO.N,Net-(R4-Pad2)*%
X39254011Y-58301047D02*
X37328989Y-56376025D01*
X37328989Y-52279742D02*
X40095834Y-49512897D01*
X38000000Y-62100000D02*
X39254011Y-60845989D01*
X39254011Y-60845989D02*
X39254011Y-58301047D01*
X37328989Y-56376025D02*
X37328989Y-52279742D01*
X45904991Y-40644991D02*
X45904991Y-40239002D01*
X47100000Y-41840000D02*
X45904991Y-40644991D01*
X47100000Y-47157160D02*
X47100000Y-41840000D01*
X45904991Y-40239002D02*
X45460000Y-39794011D01*
X46467670Y-47789490D02*
X47100000Y-47157160D01*
%TO.N,D-*%
X33200000Y-46500002D02*
X33799998Y-47100000D01*
X33200000Y-31500000D02*
X33200000Y-46500002D01*
X36300000Y-28400000D02*
X33200000Y-31500000D01*
%TO.N,D+*%
X33827010Y-32200000D02*
X33827010Y-32624264D01*
X33827010Y-32624264D02*
X33827010Y-46182641D01*
%TO.N,RE1_A*%
X51620000Y-20640000D02*
X51580000Y-20600000D01*
X51620000Y-26430000D02*
X51620000Y-20640000D01*
X42871012Y-39121012D02*
X44370000Y-40620000D01*
X42871012Y-36699782D02*
X42871012Y-39121012D01*
X40300000Y-34128770D02*
X42871012Y-36699782D01*
X40300000Y-28500000D02*
X40300000Y-34128770D01*
X42710001Y-26089999D02*
X40300000Y-28500000D01*
X43940000Y-26089999D02*
X42710001Y-26089999D01*
%TO.N,RE1_B*%
X44690000Y-26347964D02*
X44250962Y-26787002D01*
X43420000Y-38745007D02*
X45237433Y-40562440D01*
X43420000Y-36606702D02*
X43420000Y-38745007D01*
X44690000Y-25460000D02*
X44690000Y-26347964D01*
X40831979Y-28634061D02*
X40831979Y-34018681D01*
X44250962Y-26787002D02*
X42679038Y-26787002D01*
X40831979Y-34018681D02*
X43420000Y-36606702D01*
X42679038Y-26787002D02*
X40831979Y-28634061D01*
%TO.N,RE3_B*%
X157600001Y-34028769D02*
X157600001Y-26399999D01*
X153620000Y-39417932D02*
X154928988Y-38108944D01*
X154928988Y-36699782D02*
X157600001Y-34028769D01*
X154928988Y-38108944D02*
X154928988Y-36699782D01*
X153620000Y-39940000D02*
X153620000Y-39417932D01*
X157600001Y-26399999D02*
X158600000Y-25400000D01*
X58012161Y-40317001D02*
X59162161Y-39167001D01*
X59162161Y-39167001D02*
X62907583Y-39167001D01*
X62907583Y-39167001D02*
X62974265Y-39233683D01*
X54830838Y-39360000D02*
X55787839Y-40317001D01*
X52120000Y-39360000D02*
X54830838Y-39360000D01*
X55787839Y-40317001D02*
X58012161Y-40317001D01*
%TO.N,RE3_A*%
X51324241Y-39618037D02*
X53558247Y-41852043D01*
X53558247Y-41852043D02*
X58892647Y-41852043D01*
X58892647Y-41852043D02*
X60533721Y-40210969D01*
X62189372Y-40487694D02*
X62923886Y-40487694D01*
X61912647Y-40210969D02*
X62189372Y-40487694D01*
X60533721Y-40210969D02*
X61912647Y-40210969D01*
X51324241Y-39267612D02*
X51324241Y-39618037D01*
X155382999Y-38297001D02*
X154442342Y-39237658D01*
X154442342Y-39237658D02*
X154442342Y-40932350D01*
X155382999Y-36887839D02*
X155382999Y-38297001D01*
X160240000Y-22810000D02*
X160240000Y-25730000D01*
X160240000Y-25730000D02*
X158070000Y-27900000D01*
X158070000Y-27900000D02*
X158070000Y-34200838D01*
X158070000Y-34200838D02*
X155382999Y-36887839D01*
%TO.N,RE4_B*%
X191185989Y-33561943D02*
X188528988Y-36218944D01*
X192200000Y-25400000D02*
X191185989Y-26414011D01*
X188528988Y-40221012D02*
X187840000Y-40910000D01*
X187840000Y-40910000D02*
X187840000Y-41510957D01*
X191185989Y-26414011D02*
X191185989Y-33561943D01*
X188528988Y-36218944D02*
X188528988Y-40221012D01*
%TO.N,RE4_A*%
X62365575Y-39756958D02*
X62451013Y-39842396D01*
X58200219Y-40771011D02*
X59214272Y-39756958D01*
X59214272Y-39756958D02*
X62365575Y-39756958D01*
X52890821Y-40287548D02*
X55116318Y-40287548D01*
X55116318Y-40287548D02*
X55599782Y-40771012D01*
X55599782Y-40771012D02*
X58200219Y-40771011D01*
X191640000Y-33750000D02*
X188982997Y-36407003D01*
X193690000Y-25870000D02*
X191640000Y-27920000D01*
X191640000Y-27920000D02*
X191640000Y-33750000D01*
X188982997Y-36407003D02*
X188982997Y-40653731D01*
X193690000Y-22620000D02*
X193690000Y-25870000D01*
%TO.N,RE5_A*%
X222325000Y-37145838D02*
X222325000Y-41915000D01*
X225270000Y-34200838D02*
X222325000Y-37145838D01*
X225270000Y-27893962D02*
X225270000Y-34200838D01*
X227420002Y-25743960D02*
X225270000Y-27893962D01*
X227420002Y-22950000D02*
X227420002Y-25743960D01*
%TO.N,RE5_B*%
X225800000Y-25400000D02*
X224800001Y-26399999D01*
X224800001Y-26399999D02*
X224800001Y-33597931D01*
X221855989Y-41188726D02*
X221050000Y-41994715D01*
X224800001Y-33597931D02*
X221855989Y-36541943D01*
X221855989Y-36541943D02*
X221855989Y-41188726D01*
X221050000Y-41994715D02*
X221050000Y-42418979D01*
%TO.N,RE6_A*%
X261271012Y-35351056D02*
X261271012Y-41668988D01*
X262924010Y-22614010D02*
X262924010Y-33698058D01*
X262924010Y-33698058D02*
X261271012Y-35351056D01*
X261271012Y-41668988D02*
X260840000Y-42100000D01*
X261890000Y-21580000D02*
X262924010Y-22614010D01*
%TO.N,RE6_B*%
X262467010Y-30997010D02*
X259400000Y-27930000D01*
X259400000Y-27930000D02*
X259400000Y-25400000D01*
X262467010Y-33303980D02*
X262467010Y-30997010D01*
X260817001Y-34953989D02*
X262467010Y-33303980D01*
X260817001Y-39792999D02*
X260817001Y-34953989D01*
X259980000Y-40630000D02*
X260817001Y-39792999D01*
X259980000Y-42900000D02*
X259980000Y-40630000D01*
%TD*%
D27*
X27886000Y-18577411D02*
X27903204Y-18752085D01*
X27971192Y-18976212D01*
X28081600Y-19182769D01*
X28230183Y-19363818D01*
X28249500Y-19379671D01*
X28249501Y-19930328D01*
X28230182Y-19946182D01*
X28081599Y-20127232D01*
X27971192Y-20333789D01*
X27903204Y-20557916D01*
X27886000Y-20732590D01*
X27886000Y-21957411D01*
X27903204Y-22132085D01*
X27971192Y-22356212D01*
X28081600Y-22562769D01*
X28230183Y-22743818D01*
X28411232Y-22892401D01*
X28617789Y-23002808D01*
X28841916Y-23070796D01*
X29075000Y-23093753D01*
X29308085Y-23070796D01*
X29532212Y-23002808D01*
X29599500Y-22966842D01*
X29599500Y-23973000D01*
X27275295Y-23973000D01*
X27187619Y-17485000D01*
X27438561Y-17485000D01*
X27471695Y-17481736D01*
X27474637Y-17481757D01*
X27485545Y-17480688D01*
X27533317Y-17475667D01*
X27553887Y-17473641D01*
X27554573Y-17473433D01*
X27582593Y-17470488D01*
X27652309Y-17456178D01*
X27722176Y-17442849D01*
X27732669Y-17439682D01*
X27825888Y-17410826D01*
X27886000Y-17385557D01*
X27886000Y-18577411D01*
%TA.AperFunction,NonConductor*%
D28*
G36*
X27886000Y-18577411D02*
G01*
X27903204Y-18752085D01*
X27971192Y-18976212D01*
X28081600Y-19182769D01*
X28230183Y-19363818D01*
X28249500Y-19379671D01*
X28249501Y-19930328D01*
X28230182Y-19946182D01*
X28081599Y-20127232D01*
X27971192Y-20333789D01*
X27903204Y-20557916D01*
X27886000Y-20732590D01*
X27886000Y-21957411D01*
X27903204Y-22132085D01*
X27971192Y-22356212D01*
X28081600Y-22562769D01*
X28230183Y-22743818D01*
X28411232Y-22892401D01*
X28617789Y-23002808D01*
X28841916Y-23070796D01*
X29075000Y-23093753D01*
X29308085Y-23070796D01*
X29532212Y-23002808D01*
X29599500Y-22966842D01*
X29599500Y-23973000D01*
X27275295Y-23973000D01*
X27187619Y-17485000D01*
X27438561Y-17485000D01*
X27471695Y-17481736D01*
X27474637Y-17481757D01*
X27485545Y-17480688D01*
X27533317Y-17475667D01*
X27553887Y-17473641D01*
X27554573Y-17473433D01*
X27582593Y-17470488D01*
X27652309Y-17456178D01*
X27722176Y-17442849D01*
X27732669Y-17439682D01*
X27825888Y-17410826D01*
X27886000Y-17385557D01*
X27886000Y-18577411D01*
G37*
%TD.AperFunction*%
D27*
X34394978Y-23248108D02*
X34580448Y-23285000D01*
X34699500Y-23285000D01*
X34699500Y-23973000D01*
X31250500Y-23973000D01*
X31250500Y-23285000D01*
X31369552Y-23285000D01*
X31555022Y-23248108D01*
X31700000Y-23188056D01*
X31844978Y-23248108D01*
X32030448Y-23285000D01*
X32219552Y-23285000D01*
X32405022Y-23248108D01*
X32550000Y-23188056D01*
X32694978Y-23248108D01*
X32880448Y-23285000D01*
X33069552Y-23285000D01*
X33255022Y-23248108D01*
X33400000Y-23188056D01*
X33544978Y-23248108D01*
X33730448Y-23285000D01*
X33919552Y-23285000D01*
X34105022Y-23248108D01*
X34250000Y-23188056D01*
X34394978Y-23248108D01*
%TA.AperFunction,NonConductor*%
D28*
G36*
X34394978Y-23248108D02*
G01*
X34580448Y-23285000D01*
X34699500Y-23285000D01*
X34699500Y-23973000D01*
X31250500Y-23973000D01*
X31250500Y-23285000D01*
X31369552Y-23285000D01*
X31555022Y-23248108D01*
X31700000Y-23188056D01*
X31844978Y-23248108D01*
X32030448Y-23285000D01*
X32219552Y-23285000D01*
X32405022Y-23248108D01*
X32550000Y-23188056D01*
X32694978Y-23248108D01*
X32880448Y-23285000D01*
X33069552Y-23285000D01*
X33255022Y-23248108D01*
X33400000Y-23188056D01*
X33544978Y-23248108D01*
X33730448Y-23285000D01*
X33919552Y-23285000D01*
X34105022Y-23248108D01*
X34250000Y-23188056D01*
X34394978Y-23248108D01*
G37*
%TD.AperFunction*%
D27*
X38972102Y-17410526D02*
X38982572Y-17413768D01*
X39075990Y-17441973D01*
X39145776Y-17455791D01*
X39215383Y-17470586D01*
X39226284Y-17471732D01*
X39323401Y-17481254D01*
X39323406Y-17481254D01*
X39361439Y-17485000D01*
X39673000Y-17485000D01*
X39673000Y-23973000D01*
X38127933Y-23973000D01*
X37106289Y-22951356D01*
X37120681Y-22936964D01*
X37126976Y-22927542D01*
X37267789Y-23002808D01*
X37491916Y-23070796D01*
X37725000Y-23093753D01*
X37958085Y-23070796D01*
X38182212Y-23002808D01*
X38388769Y-22892401D01*
X38569818Y-22743818D01*
X38718401Y-22562769D01*
X38828808Y-22356212D01*
X38896796Y-22132085D01*
X38914000Y-21957411D01*
X38914000Y-20732589D01*
X38896796Y-20557915D01*
X38828808Y-20333788D01*
X38718401Y-20127231D01*
X38569818Y-19946182D01*
X38550500Y-19930328D01*
X38550500Y-19379672D01*
X38569818Y-19363818D01*
X38718401Y-19182769D01*
X38828808Y-18976212D01*
X38896796Y-18752085D01*
X38914000Y-18577411D01*
X38914000Y-17385624D01*
X38972102Y-17410526D01*
%TA.AperFunction,NonConductor*%
D28*
G36*
X38972102Y-17410526D02*
G01*
X38982572Y-17413768D01*
X39075990Y-17441973D01*
X39145776Y-17455791D01*
X39215383Y-17470586D01*
X39226284Y-17471732D01*
X39323401Y-17481254D01*
X39323406Y-17481254D01*
X39361439Y-17485000D01*
X39673000Y-17485000D01*
X39673000Y-23973000D01*
X38127933Y-23973000D01*
X37106289Y-22951356D01*
X37120681Y-22936964D01*
X37126976Y-22927542D01*
X37267789Y-23002808D01*
X37491916Y-23070796D01*
X37725000Y-23093753D01*
X37958085Y-23070796D01*
X38182212Y-23002808D01*
X38388769Y-22892401D01*
X38569818Y-22743818D01*
X38718401Y-22562769D01*
X38828808Y-22356212D01*
X38896796Y-22132085D01*
X38914000Y-21957411D01*
X38914000Y-20732589D01*
X38896796Y-20557915D01*
X38828808Y-20333788D01*
X38718401Y-20127231D01*
X38569818Y-19946182D01*
X38550500Y-19930328D01*
X38550500Y-19379672D01*
X38569818Y-19363818D01*
X38718401Y-19182769D01*
X38828808Y-18976212D01*
X38896796Y-18752085D01*
X38914000Y-18577411D01*
X38914000Y-17385624D01*
X38972102Y-17410526D01*
G37*
%TD.AperFunction*%
D27*
X36553204Y-17177916D02*
X36536000Y-17352590D01*
X36536000Y-18577411D01*
X36553204Y-18752085D01*
X36621192Y-18976212D01*
X36731600Y-19182769D01*
X36880183Y-19363818D01*
X36899500Y-19379671D01*
X36899501Y-19930328D01*
X36880182Y-19946182D01*
X36758315Y-20094678D01*
X36655022Y-20051892D01*
X36469552Y-20015000D01*
X36280448Y-20015000D01*
X36196031Y-20031792D01*
X36111541Y-19928840D01*
X36080040Y-19902988D01*
X35881515Y-19704464D01*
X35855659Y-19672958D01*
X35729960Y-19569800D01*
X35586552Y-19493146D01*
X35430944Y-19445943D01*
X35309671Y-19433999D01*
X35309668Y-19433999D01*
X35269118Y-19430005D01*
X35228568Y-19433999D01*
X31571432Y-19433999D01*
X31530882Y-19430005D01*
X31490331Y-19433999D01*
X31490329Y-19433999D01*
X31369056Y-19445943D01*
X31213448Y-19493146D01*
X31070040Y-19569800D01*
X30944341Y-19672958D01*
X30918488Y-19704460D01*
X30719960Y-19902988D01*
X30688460Y-19928840D01*
X30603969Y-20031792D01*
X30519552Y-20015000D01*
X30330448Y-20015000D01*
X30144978Y-20051892D01*
X30041685Y-20094677D01*
X29919818Y-19946182D01*
X29900500Y-19930328D01*
X29900500Y-19379672D01*
X29919818Y-19363818D01*
X30068401Y-19182769D01*
X30178808Y-18976212D01*
X30246796Y-18752085D01*
X30264000Y-18577411D01*
X30264000Y-17352589D01*
X30246796Y-17177915D01*
X30188276Y-16985000D01*
X36611724Y-16985000D01*
X36553204Y-17177916D01*
%TA.AperFunction,NonConductor*%
D28*
G36*
X36553204Y-17177916D02*
G01*
X36536000Y-17352590D01*
X36536000Y-18577411D01*
X36553204Y-18752085D01*
X36621192Y-18976212D01*
X36731600Y-19182769D01*
X36880183Y-19363818D01*
X36899500Y-19379671D01*
X36899501Y-19930328D01*
X36880182Y-19946182D01*
X36758315Y-20094678D01*
X36655022Y-20051892D01*
X36469552Y-20015000D01*
X36280448Y-20015000D01*
X36196031Y-20031792D01*
X36111541Y-19928840D01*
X36080040Y-19902988D01*
X35881515Y-19704464D01*
X35855659Y-19672958D01*
X35729960Y-19569800D01*
X35586552Y-19493146D01*
X35430944Y-19445943D01*
X35309671Y-19433999D01*
X35309668Y-19433999D01*
X35269118Y-19430005D01*
X35228568Y-19433999D01*
X31571432Y-19433999D01*
X31530882Y-19430005D01*
X31490331Y-19433999D01*
X31490329Y-19433999D01*
X31369056Y-19445943D01*
X31213448Y-19493146D01*
X31070040Y-19569800D01*
X30944341Y-19672958D01*
X30918488Y-19704460D01*
X30719960Y-19902988D01*
X30688460Y-19928840D01*
X30603969Y-20031792D01*
X30519552Y-20015000D01*
X30330448Y-20015000D01*
X30144978Y-20051892D01*
X30041685Y-20094677D01*
X29919818Y-19946182D01*
X29900500Y-19930328D01*
X29900500Y-19379672D01*
X29919818Y-19363818D01*
X30068401Y-19182769D01*
X30178808Y-18976212D01*
X30246796Y-18752085D01*
X30264000Y-18577411D01*
X30264000Y-17352589D01*
X30246796Y-17177915D01*
X30188276Y-16985000D01*
X36611724Y-16985000D01*
X36553204Y-17177916D01*
G37*
%TD.AperFunction*%
M02*
