M48
; DRILL file {KiCad (5.1.8-0-10_14)} date Sunday, December 27, 2020 at 06:14:42 PM
; FORMAT={-:-/ absolute / metric / decimal}
; #@! TF.CreationDate,2020-12-27T18:14:42+09:00
; #@! TF.GenerationSoftware,Kicad,Pcbnew,(5.1.8-0-10_14)
FMAT,2
METRIC
T1C0.400
T2C0.500
T3C0.600
T4C0.813
T5C1.000
T6C1.500
T7C2.499
T8C2.499
T9C1.680
T10C2.140
T11C3.980
%
G90
G05
T1
X20.8Y-27.5
X21.0Y-18.9
X31.05Y-26.05
X31.37Y-31.65
X31.39Y-30.76
X32.045Y-48.232
X32.51Y-82.8
X32.79Y-47.94
X32.828Y-50.983
X33.65Y-53.36
X33.8Y-47.1
X33.827Y-32.2
X33.827Y-46.183
X34.475Y-26.025
X34.475Y-50.05
X35.256Y-83.66
X35.591Y-67.209
X36.244Y-53.225
X36.3Y-28.4
X36.5Y-50.084
X36.748Y-57.565
X36.9Y-31.9
X37.763Y-49.097
X37.8Y-34.2
X37.9Y-26.2
X38.0Y-62.1
X38.056Y-69.379
X38.074Y-68.574
X38.86Y-48.99
X38.961Y-73.339
X39.415Y-41.766
X40.096Y-49.513
X41.353Y-41.08
X42.347Y-28.019
X43.095Y-35.395
X43.94Y-26.09
X43.97Y-18.29
X43.99Y-43.204
X43.991Y-44.199
X44.342Y-41.509
X44.37Y-40.62
X44.457Y-42.439
X44.55Y-17.599
X44.553Y-47.512
X44.69Y-25.46
X44.9Y-30.5
X45.138Y-46.313
X45.237Y-40.562
X45.296Y-28.419
X45.46Y-39.794
X45.625Y-24.275
X46.429Y-46.941
X46.468Y-47.789
X46.532Y-40.302
X47.15Y-24.36
X47.6Y-26.9
X48.32Y-50.37
X49.611Y-50.548
X49.917Y-38.587
X50.27Y-28.419
X50.707Y-38.759
X50.76Y-51.712
X50.775Y-17.5
X50.85Y-19.15
X51.259Y-28.691
X51.324Y-39.268
X51.58Y-20.6
X51.62Y-26.43
X52.12Y-39.36
X52.891Y-40.288
X53.07Y-47.47
X54.253Y-41.225
X54.878Y-46.638
X55.68Y-46.45
X58.25Y-21.7
X59.273Y-40.585
X59.42Y-25.3
X61.135Y-42.464
X61.158Y-47.758
X62.065Y-42.508
X62.451Y-39.842
X62.498Y-41.165
X62.539Y-46.81
X62.781Y-41.913
X62.924Y-40.488
X62.974Y-39.234
X64.227Y-42.568
X64.5Y-22.9
X64.974Y-29.409
X67.025Y-30.054
X67.375Y-27.175
X69.2Y-33.4
X69.666Y-47.766
X72.227Y-98.073
X72.29Y-80.49
X81.299Y-47.766
X82.012Y-46.878
X83.02Y-47.0
X83.63Y-80.49
X84.303Y-59.0
X86.25Y-64.7
X91.367Y-61.733
X97.4Y-22.0
X99.3Y-20.1
X99.416Y-27.4
X99.438Y-23.562
X99.475Y-18.45
X107.3Y-18.7
X107.375Y-25.675
X107.4Y-27.55
X107.4Y-22.5
X107.45Y-29.198
X108.075Y-18.125
X109.617Y-86.088
X112.4Y-78.6
X112.42Y-47.82
X113.763Y-100.133
X115.07Y-30.912
X115.8Y-21.1
X117.55Y-23.2
X118.075Y-24.826
X120.746Y-42.306
X121.233Y-24.501
X121.384Y-29.298
X121.55Y-41.852
X122.175Y-25.175
X123.95Y-26.95
X126.5Y-19.1
X126.8Y-22.2
X133.893Y-48.393
X133.9Y-21.7
X137.103Y-31.127
X138.2Y-94.8
X140.6Y-29.748
X153.62Y-39.94
X154.442Y-40.932
X154.85Y-24.35
X154.85Y-29.748
X156.35Y-24.45
X156.975Y-26.1
X160.1Y-19.1
X160.24Y-22.81
X162.506Y-64.906
X167.4Y-21.8
X180.4Y-35.1
X180.8Y-33.4
X187.84Y-41.511
X188.4Y-29.8
X188.45Y-24.45
X188.983Y-40.654
X189.95Y-24.5
X190.5Y-26.125
X193.65Y-19.05
X193.69Y-22.62
X201.0Y-21.9
X201.8Y-99.3
X202.75Y-81.25
X221.05Y-42.419
X221.46Y-29.87
X222.05Y-24.425
X222.3Y-51.7
X222.325Y-41.915
X222.6Y-49.9
X223.55Y-24.475
X223.894Y-26.419
X227.42Y-22.95
X227.45Y-19.15
X234.7Y-21.7
X234.907Y-97.593
X241.607Y-31.127
X256.0Y-28.975
X256.0Y-24.55
X256.7Y-68.0
X257.15Y-24.5
X257.15Y-29.075
X257.2Y-66.3
X258.032Y-30.912
X258.228Y-30.136
X259.98Y-42.9
X260.84Y-42.1
X260.95Y-19.2
X261.5Y-29.1
X261.7Y-48.2
X261.89Y-21.58
X265.13Y-21.06
X279.7Y-84.3
X279.75Y-31.045
X280.3Y-82.6
X280.85Y-30.725
X280.95Y-73.0
X280.963Y-72.037
X280.968Y-71.13
X282.125Y-30.85
X283.0Y-97.8
X283.373Y-67.127
X286.5Y-32.425
X30.425Y-20.975
X30.425Y-22.325
X31.275Y-20.975
X31.275Y-22.325
X32.125Y-20.975
X32.125Y-22.325
X32.975Y-20.975
X32.975Y-22.325
X33.825Y-20.975
X33.825Y-22.325
X34.675Y-20.975
X34.675Y-22.325
X35.525Y-20.975
X35.525Y-22.325
X36.375Y-20.975
X36.375Y-22.325
T2
X16.95Y-71.05
X16.958Y-75.4
X19.0Y-71.05
X19.0Y-75.4
X20.55Y-71.7
X20.55Y-74.7
X21.15Y-73.2
X38.5Y-44.6
X39.05Y-43.25
X39.05Y-45.9
X40.4Y-42.7
X40.4Y-46.5
X41.65Y-43.25
X41.65Y-45.95
X42.3Y-44.6
X142.2Y-61.85
X142.2Y-65.6
X143.4Y-61.85
X143.4Y-65.6
X144.6Y-61.85
X144.6Y-65.6
X204.5Y-103.75
X204.55Y-100.05
X205.7Y-103.75
X205.75Y-100.05
X206.9Y-103.75
X206.95Y-100.05
X274.05Y-42.75
X274.05Y-46.45
X275.25Y-42.75
X275.25Y-46.45
X276.45Y-42.733
X276.45Y-46.45
X294.25Y-73.2
X294.85Y-71.7
X294.85Y-74.7
X296.4Y-71.0
X296.4Y-75.35
X298.442Y-71.0
X298.45Y-75.35
T4
X142.3Y-19.29
X142.3Y-21.83
X142.3Y-24.37
X142.3Y-26.91
T5
X49.4Y-20.4
X49.4Y-22.9
X49.4Y-25.4
X63.9Y-20.4
X63.9Y-25.4
X192.2Y-20.4
X192.2Y-22.9
X192.2Y-25.4
X206.7Y-20.4
X206.7Y-25.4
X158.6Y-20.4
X158.6Y-22.9
X158.6Y-25.4
X173.1Y-20.4
X173.1Y-25.4
X125.0Y-20.4
X125.0Y-22.9
X125.0Y-25.4
X139.5Y-20.4
X139.5Y-25.4
X225.8Y-20.4
X225.8Y-22.9
X225.8Y-25.4
X240.3Y-20.4
X240.3Y-25.4
X278.3Y-74.7
X280.84Y-74.7
X259.4Y-20.4
X259.4Y-22.9
X259.4Y-25.4
X273.9Y-20.4
X273.9Y-25.4
T8
X40.4Y-44.6
T9
X144.22Y-103.6
X144.8Y-103.6
X153.8Y-103.6
X154.38Y-103.6
X177.82Y-54.4
X178.4Y-54.4
X187.4Y-54.4
X187.98Y-54.4
X253.42Y-38.0
X254.0Y-38.0
X263.0Y-38.0
X263.58Y-38.0
X35.02Y-87.2
X35.6Y-87.2
X44.6Y-87.2
X45.18Y-87.2
X35.02Y-70.8
X35.6Y-70.8
X44.6Y-70.8
X45.18Y-70.8
X266.02Y-70.8
X266.6Y-70.8
X275.6Y-70.8
X276.18Y-70.8
X161.02Y-54.4
X161.6Y-54.4
X170.6Y-54.4
X171.18Y-54.4
X270.22Y-38.0
X270.8Y-38.0
X279.8Y-38.0
X280.38Y-38.0
X135.82Y-103.6
X136.4Y-103.6
X145.4Y-103.6
X145.98Y-103.6
X68.62Y-103.6
X69.2Y-103.6
X78.2Y-103.6
X78.78Y-103.6
X60.22Y-70.8
X60.8Y-70.8
X69.8Y-70.8
X70.38Y-70.8
X119.02Y-87.2
X119.6Y-87.2
X128.6Y-87.2
X129.18Y-87.2
X85.42Y-87.2
X86.0Y-87.2
X95.0Y-87.2
X95.58Y-87.2
X203.02Y-87.2
X203.6Y-87.2
X212.6Y-87.2
X213.18Y-87.2
X261.82Y-70.8
X262.4Y-70.8
X271.4Y-70.8
X271.98Y-70.8
X245.02Y-54.4
X245.6Y-54.4
X254.6Y-54.4
X255.18Y-54.4
X74.92Y-103.6
X75.5Y-103.6
X84.5Y-103.6
X85.08Y-103.6
X77.02Y-70.8
X77.6Y-70.8
X86.6Y-70.8
X87.18Y-70.8
X51.82Y-54.4
X52.4Y-54.4
X61.4Y-54.4
X61.98Y-54.4
X234.52Y-103.6
X235.1Y-103.6
X244.1Y-103.6
X244.68Y-103.6
X127.42Y-54.4
X128.0Y-54.4
X137.0Y-54.4
X137.58Y-54.4
X228.22Y-70.8
X228.8Y-70.8
X237.8Y-70.8
X238.38Y-70.8
X125.32Y-103.6
X125.9Y-103.6
X134.9Y-103.6
X135.48Y-103.6
X102.22Y-103.6
X102.8Y-103.6
X111.8Y-103.6
X112.38Y-103.6
X93.82Y-87.2
X94.4Y-87.2
X103.4Y-87.2
X103.98Y-87.2
X77.02Y-87.2
X77.6Y-87.2
X86.6Y-87.2
X87.18Y-87.2
X215.62Y-103.6
X216.2Y-103.6
X225.2Y-103.6
X225.78Y-103.6
X68.62Y-95.4
X69.2Y-95.4
X78.2Y-95.4
X78.78Y-95.4
X266.02Y-54.4
X266.6Y-54.4
X275.6Y-54.4
X276.18Y-54.4
X194.62Y-54.4
X195.2Y-54.4
X204.2Y-54.4
X204.78Y-54.4
X236.62Y-103.6
X237.2Y-103.6
X246.2Y-103.6
X246.78Y-103.6
X72.82Y-70.8
X73.4Y-70.8
X82.4Y-70.8
X82.98Y-70.8
X110.62Y-54.4
X111.2Y-54.4
X120.2Y-54.4
X120.78Y-54.4
X89.62Y-54.4
X90.2Y-54.4
X99.2Y-54.4
X99.78Y-54.4
X35.02Y-103.6
X35.6Y-103.6
X44.6Y-103.6
X45.18Y-103.6
X102.22Y-87.2
X102.8Y-87.2
X111.8Y-87.2
X112.38Y-87.2
X144.22Y-54.4
X144.8Y-54.4
X153.8Y-54.4
X154.38Y-54.4
X72.82Y-54.4
X73.4Y-54.4
X82.4Y-54.4
X82.98Y-54.4
X18.22Y-38.0
X18.8Y-38.0
X27.8Y-38.0
X28.38Y-38.0
X89.62Y-70.8
X90.2Y-70.8
X99.2Y-70.8
X99.78Y-70.8
X144.22Y-70.8
X144.8Y-70.8
X153.8Y-70.8
X154.38Y-70.8
X228.22Y-54.4
X228.8Y-54.4
X237.8Y-54.4
X238.38Y-54.4
X68.62Y-54.4
X69.2Y-54.4
X78.2Y-54.4
X78.78Y-54.4
X68.62Y-87.2
X69.2Y-87.2
X78.2Y-87.2
X78.78Y-87.2
X203.02Y-38.0
X203.6Y-38.0
X212.6Y-38.0
X213.18Y-38.0
X18.22Y-87.2
X18.8Y-87.2
X27.8Y-87.2
X28.38Y-87.2
X219.82Y-87.2
X220.4Y-87.2
X229.4Y-87.2
X229.98Y-87.2
X287.02Y-70.8
X287.6Y-70.8
X296.6Y-70.8
X297.18Y-70.8
X110.62Y-70.8
X111.2Y-70.8
X120.2Y-70.8
X120.78Y-70.8
X177.82Y-70.8
X178.4Y-70.8
X187.4Y-70.8
X187.98Y-70.8
X18.22Y-103.6
X18.8Y-103.6
X27.8Y-103.6
X28.38Y-103.6
X26.62Y-103.6
X27.2Y-103.6
X36.2Y-103.6
X36.78Y-103.6
X43.42Y-70.8
X44.0Y-70.8
X53.0Y-70.8
X53.58Y-70.8
X161.02Y-70.8
X161.6Y-70.8
X170.6Y-70.8
X171.18Y-70.8
X85.42Y-38.0
X86.0Y-38.0
X95.0Y-38.0
X95.58Y-38.0
X203.02Y-103.6
X203.6Y-103.6
X212.6Y-103.6
X213.18Y-103.6
X207.22Y-103.6
X207.8Y-103.6
X216.8Y-103.6
X217.38Y-103.6
X72.82Y-103.6
X73.4Y-103.6
X82.4Y-103.6
X82.98Y-103.6
X270.22Y-87.2
X270.8Y-87.2
X279.8Y-87.2
X280.38Y-87.2
X22.42Y-54.4
X23.0Y-54.4
X32.0Y-54.4
X32.58Y-54.4
X287.02Y-38.0
X287.6Y-38.0
X296.6Y-38.0
X297.18Y-38.0
X282.82Y-70.8
X283.4Y-70.8
X292.4Y-70.8
X292.98Y-70.8
X186.22Y-95.4
X186.8Y-95.4
X195.8Y-95.4
X196.38Y-95.4
X152.62Y-103.6
X153.2Y-103.6
X162.2Y-103.6
X162.78Y-103.6
X140.02Y-103.6
X140.6Y-103.6
X149.6Y-103.6
X150.18Y-103.6
X232.42Y-103.6
X233.0Y-103.6
X242.0Y-103.6
X242.58Y-103.6
X68.62Y-70.8
X69.2Y-70.8
X78.2Y-70.8
X78.78Y-70.8
X119.02Y-103.6
X119.6Y-103.6
X128.6Y-103.6
X129.18Y-103.6
X77.02Y-54.4
X77.6Y-54.4
X86.6Y-54.4
X87.18Y-54.4
X60.22Y-54.4
X60.8Y-54.4
X69.8Y-54.4
X70.38Y-54.4
X211.42Y-54.4
X212.0Y-54.4
X221.0Y-54.4
X221.58Y-54.4
X127.42Y-70.8
X128.0Y-70.8
X137.0Y-70.8
X137.58Y-70.8
X194.62Y-70.8
X195.2Y-70.8
X204.2Y-70.8
X204.78Y-70.8
X35.02Y-38.0
X35.6Y-38.0
X44.6Y-38.0
X45.18Y-38.0
X26.62Y-87.2
X27.2Y-87.2
X36.2Y-87.2
X36.78Y-87.2
X213.52Y-103.6
X214.1Y-103.6
X223.1Y-103.6
X223.68Y-103.6
X119.02Y-38.0
X119.6Y-38.0
X128.6Y-38.0
X129.18Y-38.0
X104.32Y-103.6
X104.9Y-103.6
X113.9Y-103.6
X114.48Y-103.6
X169.42Y-87.2
X170.0Y-87.2
X179.0Y-87.2
X179.58Y-87.2
X287.02Y-54.4
X287.6Y-54.4
X296.6Y-54.4
X297.18Y-54.4
X253.42Y-103.6
X254.0Y-103.6
X263.0Y-103.6
X263.58Y-103.6
X51.82Y-87.2
X52.4Y-87.2
X61.4Y-87.2
X61.98Y-87.2
X35.02Y-54.4
X35.6Y-54.4
X44.6Y-54.4
X45.18Y-54.4
X51.82Y-38.0
X52.4Y-38.0
X61.4Y-38.0
X61.98Y-38.0
X135.82Y-87.2
X136.4Y-87.2
X145.4Y-87.2
X145.98Y-87.2
X287.02Y-87.2
X287.6Y-87.2
X296.6Y-87.2
X297.18Y-87.2
X186.22Y-103.6
X186.8Y-103.6
X195.8Y-103.6
X196.38Y-103.6
X123.22Y-103.6
X123.8Y-103.6
X132.8Y-103.6
X133.38Y-103.6
X230.32Y-103.6
X230.9Y-103.6
X239.9Y-103.6
X240.48Y-103.6
X251.32Y-103.6
X251.9Y-103.6
X260.9Y-103.6
X261.48Y-103.6
X152.62Y-38.0
X153.2Y-38.0
X162.2Y-38.0
X162.78Y-38.0
X253.42Y-87.2
X254.0Y-87.2
X263.0Y-87.2
X263.58Y-87.2
X53.92Y-103.6
X54.5Y-103.6
X63.5Y-103.6
X64.08Y-103.6
X245.02Y-70.8
X245.6Y-70.8
X254.6Y-70.8
X255.18Y-70.8
X51.82Y-70.8
X52.4Y-70.8
X61.4Y-70.8
X61.98Y-70.8
X93.82Y-54.4
X94.4Y-54.4
X103.4Y-54.4
X103.98Y-54.4
X236.62Y-38.0
X237.2Y-38.0
X246.2Y-38.0
X246.78Y-38.0
X142.12Y-103.6
X142.7Y-103.6
X151.7Y-103.6
X152.28Y-103.6
X261.82Y-54.4
X262.4Y-54.4
X271.4Y-54.4
X271.98Y-54.4
X18.22Y-54.4
X18.8Y-54.4
X27.8Y-54.4
X28.38Y-54.4
X152.62Y-87.2
X153.2Y-87.2
X162.2Y-87.2
X162.78Y-87.2
X169.42Y-103.6
X170.0Y-103.6
X179.0Y-103.6
X179.58Y-103.6
X102.22Y-38.0
X102.8Y-38.0
X111.8Y-38.0
X112.38Y-38.0
X270.22Y-103.6
X270.8Y-103.6
X279.8Y-103.6
X280.38Y-103.6
X85.42Y-103.6
X86.0Y-103.6
X95.0Y-103.6
X95.58Y-103.6
X43.42Y-54.4
X44.0Y-54.4
X53.0Y-54.4
X53.58Y-54.4
X121.12Y-103.6
X121.7Y-103.6
X130.7Y-103.6
X131.28Y-103.6
X68.62Y-38.0
X69.2Y-38.0
X78.2Y-38.0
X78.78Y-38.0
X135.82Y-38.0
X136.4Y-38.0
X145.4Y-38.0
X145.98Y-38.0
X287.02Y-103.6
X287.6Y-103.6
X296.6Y-103.6
X297.18Y-103.6
X219.82Y-103.6
X220.4Y-103.6
X229.4Y-103.6
X229.98Y-103.6
X236.62Y-87.2
X237.2Y-87.2
X246.2Y-87.2
X246.78Y-87.2
X219.82Y-38.0
X220.4Y-38.0
X229.4Y-38.0
X229.98Y-38.0
X211.42Y-70.8
X212.0Y-70.8
X221.0Y-70.8
X221.58Y-70.8
X93.82Y-70.8
X94.4Y-70.8
X103.4Y-70.8
X103.98Y-70.8
X51.82Y-103.6
X52.4Y-103.6
X61.4Y-103.6
X61.98Y-103.6
X22.42Y-70.8
X23.0Y-70.8
X32.0Y-70.8
X32.58Y-70.8
X186.22Y-87.2
X186.8Y-87.2
X195.8Y-87.2
X196.38Y-87.2
X186.22Y-38.0
X186.8Y-38.0
X195.8Y-38.0
X196.38Y-38.0
X282.82Y-54.4
X283.4Y-54.4
X292.4Y-54.4
X292.98Y-54.4
X18.22Y-70.8
X18.8Y-70.8
X27.8Y-70.8
X28.38Y-70.8
X169.42Y-38.0
X170.0Y-38.0
X179.0Y-38.0
X179.58Y-38.0
T10
X92.3Y-23.1
X278.4Y-23.1
X17.1Y-23.1
X297.8Y-23.1
X148.9Y-23.1
X298.3Y-23.1
X17.6Y-23.1
X215.0Y-23.1
X42.3Y-23.1
X111.7Y-23.1
T11
X224.9Y-38.0
X216.5Y-70.8
X98.9Y-70.8
X56.9Y-103.6
X27.5Y-70.8
X191.3Y-87.2
X191.3Y-38.0
X287.9Y-54.4
X23.3Y-70.8
X174.5Y-38.0
X149.3Y-103.6
X182.9Y-54.4
X258.5Y-38.0
X40.1Y-87.2
X40.1Y-70.8
X271.1Y-70.8
X166.1Y-54.4
X275.3Y-38.0
X140.9Y-103.6
X73.7Y-103.6
X65.3Y-70.8
X124.1Y-87.2
X90.5Y-87.2
X208.1Y-87.2
X266.9Y-70.8
X250.1Y-54.4
X80.0Y-103.6
X82.1Y-70.8
X56.9Y-54.4
X239.6Y-103.6
X132.5Y-54.4
X233.3Y-70.8
X130.4Y-103.6
X107.3Y-103.6
X98.9Y-87.2
X82.1Y-87.2
X220.7Y-103.6
X73.7Y-95.4
X271.1Y-54.4
X199.7Y-54.4
X241.7Y-103.6
X77.9Y-70.8
X115.7Y-54.4
X94.7Y-54.4
X40.1Y-103.6
X107.3Y-87.2
X149.3Y-54.4
X77.9Y-54.4
X23.3Y-38.0
X94.7Y-70.8
X149.3Y-70.8
X233.3Y-54.4
X73.7Y-54.4
X73.7Y-87.2
X208.1Y-38.0
X23.3Y-87.2
X224.9Y-87.2
X292.1Y-70.8
X115.7Y-70.8
X182.9Y-70.8
X23.3Y-103.6
X31.7Y-103.6
X48.5Y-70.8
X166.1Y-70.8
X90.5Y-38.0
X208.1Y-103.6
X212.3Y-103.6
X77.9Y-103.6
X275.3Y-87.2
X27.5Y-54.4
X292.1Y-38.0
X287.9Y-70.8
X191.3Y-95.4
X157.7Y-103.6
X145.1Y-103.6
X237.5Y-103.6
X73.7Y-70.8
X124.1Y-103.6
X82.1Y-54.4
X65.3Y-54.4
X216.5Y-54.4
X132.5Y-70.8
X199.7Y-70.8
X40.1Y-38.0
X31.7Y-87.2
X218.6Y-103.6
X124.1Y-38.0
X109.4Y-103.6
X174.5Y-87.2
X292.1Y-54.4
X258.5Y-103.6
X56.9Y-87.2
X40.1Y-54.4
X56.9Y-38.0
X140.9Y-87.2
X292.1Y-87.2
X191.3Y-103.6
X128.3Y-103.6
X235.4Y-103.6
X256.4Y-103.6
X157.7Y-38.0
X258.5Y-87.2
X59.0Y-103.6
X250.1Y-70.8
X56.9Y-70.8
X98.9Y-54.4
X241.7Y-38.0
X147.2Y-103.6
X266.9Y-54.4
X23.3Y-54.4
X157.7Y-87.2
X174.5Y-103.6
X107.3Y-38.0
X275.3Y-103.6
X90.5Y-103.6
X48.5Y-54.4
X126.2Y-103.6
X73.7Y-38.0
X140.9Y-38.0
X292.1Y-103.6
X224.9Y-103.6
X241.7Y-87.2
T1
G00X212.29Y-68.26
M15
G01X213.09Y-68.26
M16
G05
G00X218.64Y-65.72
M15
G01X219.64Y-65.72
M16
G05
G00X94.69Y-68.26
M15
G01X95.49Y-68.26
M16
G05
G00X101.04Y-65.72
M15
G01X102.04Y-65.72
M16
G05
G00X52.69Y-101.06
M15
G01X53.49Y-101.06
M16
G05
G00X59.04Y-98.52
M15
G01X60.04Y-98.52
M16
G05
G00X23.29Y-68.26
M15
G01X24.09Y-68.26
M16
G05
G00X29.64Y-65.72
M15
G01X30.64Y-65.72
M16
G05
G00X187.09Y-84.66
M15
G01X187.89Y-84.66
M16
G05
G00X193.44Y-82.12
M15
G01X194.44Y-82.12
M16
G05
G00X187.09Y-35.46
M15
G01X187.89Y-35.46
M16
G05
G00X193.44Y-32.92
M15
G01X194.44Y-32.92
M16
G05
G00X283.69Y-51.86
M15
G01X284.49Y-51.86
M16
G05
G00X290.04Y-49.32
M15
G01X291.04Y-49.32
M16
G05
G00X19.09Y-68.26
M15
G01X19.89Y-68.26
M16
G05
G00X25.44Y-65.72
M15
G01X26.44Y-65.72
M16
G05
G00X170.29Y-35.46
M15
G01X171.09Y-35.46
M16
G05
G00X176.64Y-32.92
M15
G01X177.64Y-32.92
M16
G05
G00X145.09Y-101.06
M15
G01X145.89Y-101.06
M16
G05
G00X151.44Y-98.52
M15
G01X152.44Y-98.52
M16
G05
G00X178.69Y-51.86
M15
G01X179.49Y-51.86
M16
G05
G00X185.04Y-49.32
M15
G01X186.04Y-49.32
M16
G05
G00X254.29Y-35.46
M15
G01X255.09Y-35.46
M16
G05
G00X260.64Y-32.92
M15
G01X261.64Y-32.92
M16
G05
G00X35.89Y-84.66
M15
G01X36.69Y-84.66
M16
G05
G00X42.24Y-82.12
M15
G01X43.24Y-82.12
M16
G05
G00X37.96Y-75.88
M15
G01X36.96Y-75.88
M16
G05
G00X44.31Y-73.34
M15
G01X43.51Y-73.34
M16
G05
G00X266.89Y-68.26
M15
G01X267.69Y-68.26
M16
G05
G00X273.24Y-65.72
M15
G01X274.24Y-65.72
M16
G05
G00X161.89Y-51.86
M15
G01X162.69Y-51.86
M16
G05
G00X168.24Y-49.32
M15
G01X169.24Y-49.32
M16
G05
G00X271.09Y-35.46
M15
G01X271.89Y-35.46
M16
G05
G00X277.44Y-32.92
M15
G01X278.44Y-32.92
M16
G05
G00X136.69Y-101.06
M15
G01X137.49Y-101.06
M16
G05
G00X143.04Y-98.52
M15
G01X144.04Y-98.52
M16
G05
G00X69.49Y-101.06
M15
G01X70.29Y-101.06
M16
G05
G00X75.84Y-98.52
M15
G01X76.84Y-98.52
M16
G05
G00X61.09Y-68.26
M15
G01X61.89Y-68.26
M16
G05
G00X67.44Y-65.72
M15
G01X68.44Y-65.72
M16
G05
G00X119.89Y-84.66
M15
G01X120.69Y-84.66
M16
G05
G00X126.24Y-82.12
M15
G01X127.24Y-82.12
M16
G05
G00X86.29Y-84.66
M15
G01X87.09Y-84.66
M16
G05
G00X92.64Y-82.12
M15
G01X93.64Y-82.12
M16
G05
G00X203.89Y-84.66
M15
G01X204.69Y-84.66
M16
G05
G00X210.24Y-82.12
M15
G01X211.24Y-82.12
M16
G05
G00X262.69Y-68.26
M15
G01X263.49Y-68.26
M16
G05
G00X269.04Y-65.72
M15
G01X270.04Y-65.72
M16
G05
G00X245.89Y-51.86
M15
G01X246.69Y-51.86
M16
G05
G00X252.24Y-49.32
M15
G01X253.24Y-49.32
M16
G05
G00X75.79Y-101.06
M15
G01X76.59Y-101.06
M16
G05
G00X82.14Y-98.52
M15
G01X83.14Y-98.52
M16
G05
G00X77.89Y-68.26
M15
G01X78.69Y-68.26
M16
G05
G00X84.24Y-65.72
M15
G01X85.24Y-65.72
M16
G05
G00X54.76Y-59.48
M15
G01X53.76Y-59.48
M16
G05
G00X61.11Y-56.94
M15
G01X60.31Y-56.94
M16
G05
G00X235.39Y-101.06
M15
G01X236.19Y-101.06
M16
G05
G00X241.74Y-98.52
M15
G01X242.74Y-98.52
M16
G05
G00X128.29Y-51.86
M15
G01X129.09Y-51.86
M16
G05
G00X134.64Y-49.32
M15
G01X135.64Y-49.32
M16
G05
G00X229.09Y-68.26
M15
G01X229.89Y-68.26
M16
G05
G00X235.44Y-65.72
M15
G01X236.44Y-65.72
M16
G05
G00X126.19Y-101.06
M15
G01X126.99Y-101.06
M16
G05
G00X132.54Y-98.52
M15
G01X133.54Y-98.52
M16
G05
G00X103.09Y-101.06
M15
G01X103.89Y-101.06
M16
G05
G00X109.44Y-98.52
M15
G01X110.44Y-98.52
M16
G05
G00X94.69Y-84.66
M15
G01X95.49Y-84.66
M16
G05
G00X101.04Y-82.12
M15
G01X102.04Y-82.12
M16
G05
G00X77.89Y-84.66
M15
G01X78.69Y-84.66
M16
G05
G00X84.24Y-82.12
M15
G01X85.24Y-82.12
M16
G05
G00X216.49Y-101.06
M15
G01X217.29Y-101.06
M16
G05
G00X222.84Y-98.52
M15
G01X223.84Y-98.52
M16
G05
G00X69.49Y-92.86
M15
G01X70.29Y-92.86
M16
G05
G00X75.84Y-90.32
M15
G01X76.84Y-90.32
M16
G05
G00X266.89Y-51.86
M15
G01X267.69Y-51.86
M16
G05
G00X273.24Y-49.32
M15
G01X274.24Y-49.32
M16
G05
G00X195.49Y-51.86
M15
G01X196.29Y-51.86
M16
G05
G00X201.84Y-49.32
M15
G01X202.84Y-49.32
M16
G05
G00X237.49Y-101.06
M15
G01X238.29Y-101.06
M16
G05
G00X243.84Y-98.52
M15
G01X244.84Y-98.52
M16
G05
G00X73.69Y-68.26
M15
G01X74.49Y-68.26
M16
G05
G00X80.04Y-65.72
M15
G01X81.04Y-65.72
M16
G05
G00X111.49Y-51.86
M15
G01X112.29Y-51.86
M16
G05
G00X117.84Y-49.32
M15
G01X118.84Y-49.32
M16
G05
G00X90.49Y-51.86
M15
G01X91.29Y-51.86
M16
G05
G00X96.84Y-49.32
M15
G01X97.84Y-49.32
M16
G05
G00X35.89Y-101.06
M15
G01X36.69Y-101.06
M16
G05
G00X42.24Y-98.52
M15
G01X43.24Y-98.52
M16
G05
G00X103.09Y-84.66
M15
G01X103.89Y-84.66
M16
G05
G00X109.44Y-82.12
M15
G01X110.44Y-82.12
M16
G05
G00X145.09Y-51.86
M15
G01X145.89Y-51.86
M16
G05
G00X151.44Y-49.32
M15
G01X152.44Y-49.32
M16
G05
G00X73.69Y-51.86
M15
G01X74.49Y-51.86
M16
G05
G00X80.04Y-49.32
M15
G01X81.04Y-49.32
M16
G05
G00X19.09Y-35.46
M15
G01X19.89Y-35.46
M16
G05
G00X25.44Y-32.92
M15
G01X26.44Y-32.92
M16
G05
G00X90.49Y-68.26
M15
G01X91.29Y-68.26
M16
G05
G00X96.84Y-65.72
M15
G01X97.84Y-65.72
M16
G05
G00X145.09Y-68.26
M15
G01X145.89Y-68.26
M16
G05
G00X151.44Y-65.72
M15
G01X152.44Y-65.72
M16
G05
G00X229.09Y-51.86
M15
G01X229.89Y-51.86
M16
G05
G00X235.44Y-49.32
M15
G01X236.44Y-49.32
M16
G05
G00X69.49Y-51.86
M15
G01X70.29Y-51.86
M16
G05
G00X75.84Y-49.32
M15
G01X76.84Y-49.32
M16
G05
G00X69.49Y-84.66
M15
G01X70.29Y-84.66
M16
G05
G00X75.84Y-82.12
M15
G01X76.84Y-82.12
M16
G05
G00X203.89Y-35.46
M15
G01X204.69Y-35.46
M16
G05
G00X210.24Y-32.92
M15
G01X211.24Y-32.92
M16
G05
G00X19.09Y-84.66
M15
G01X19.89Y-84.66
M16
G05
G00X25.44Y-82.12
M15
G01X26.44Y-82.12
M16
G05
G00X220.69Y-84.66
M15
G01X221.49Y-84.66
M16
G05
G00X227.04Y-82.12
M15
G01X228.04Y-82.12
M16
G05
G00X287.89Y-68.26
M15
G01X288.69Y-68.26
M16
G05
G00X294.24Y-65.72
M15
G01X295.24Y-65.72
M16
G05
G00X111.49Y-68.26
M15
G01X112.29Y-68.26
M16
G05
G00X117.84Y-65.72
M15
G01X118.84Y-65.72
M16
G05
G00X178.69Y-68.26
M15
G01X179.49Y-68.26
M16
G05
G00X185.04Y-65.72
M15
G01X186.04Y-65.72
M16
G05
G00X19.09Y-101.06
M15
G01X19.89Y-101.06
M16
G05
G00X25.44Y-98.52
M15
G01X26.44Y-98.52
M16
G05
G00X27.49Y-101.06
M15
G01X28.29Y-101.06
M16
G05
G00X33.84Y-98.52
M15
G01X34.84Y-98.52
M16
G05
G00X46.36Y-75.88
M15
G01X45.36Y-75.88
M16
G05
G00X52.71Y-73.34
M15
G01X51.91Y-73.34
M16
G05
G00X161.89Y-68.26
M15
G01X162.69Y-68.26
M16
G05
G00X168.24Y-65.72
M15
G01X169.24Y-65.72
M16
G05
G00X86.29Y-35.46
M15
G01X87.09Y-35.46
M16
G05
G00X92.64Y-32.92
M15
G01X93.64Y-32.92
M16
G05
G00X205.96Y-108.68
M15
G01X204.96Y-108.68
M16
G05
G00X212.31Y-106.14
M15
G01X211.51Y-106.14
M16
G05
G00X210.16Y-108.68
M15
G01X209.16Y-108.68
M16
G05
G00X216.51Y-106.14
M15
G01X215.71Y-106.14
M16
G05
G00X73.69Y-101.06
M15
G01X74.49Y-101.06
M16
G05
G00X80.04Y-98.52
M15
G01X81.04Y-98.52
M16
G05
G00X271.09Y-84.66
M15
G01X271.89Y-84.66
M16
G05
G00X277.44Y-82.12
M15
G01X278.44Y-82.12
M16
G05
G00X23.29Y-51.86
M15
G01X24.09Y-51.86
M16
G05
G00X29.64Y-49.32
M15
G01X30.64Y-49.32
M16
G05
G00X287.89Y-35.46
M15
G01X288.69Y-35.46
M16
G05
G00X294.24Y-32.92
M15
G01X295.24Y-32.92
M16
G05
G00X283.69Y-68.26
M15
G01X284.49Y-68.26
M16
G05
G00X290.04Y-65.72
M15
G01X291.04Y-65.72
M16
G05
G00X187.09Y-92.86
M15
G01X187.89Y-92.86
M16
G05
G00X193.44Y-90.32
M15
G01X194.44Y-90.32
M16
G05
G00X153.49Y-101.06
M15
G01X154.29Y-101.06
M16
G05
G00X159.84Y-98.52
M15
G01X160.84Y-98.52
M16
G05
G00X140.89Y-101.06
M15
G01X141.69Y-101.06
M16
G05
G00X147.24Y-98.52
M15
G01X148.24Y-98.52
M16
G05
G00X233.29Y-101.06
M15
G01X234.09Y-101.06
M16
G05
G00X239.64Y-98.52
M15
G01X240.64Y-98.52
M16
G05
G00X69.49Y-68.26
M15
G01X70.29Y-68.26
M16
G05
G00X75.84Y-65.72
M15
G01X76.84Y-65.72
M16
G05
G00X119.89Y-101.06
M15
G01X120.69Y-101.06
M16
G05
G00X126.24Y-98.52
M15
G01X127.24Y-98.52
M16
G05
G00X77.89Y-51.86
M15
G01X78.69Y-51.86
M16
G05
G00X84.24Y-49.32
M15
G01X85.24Y-49.32
M16
G05
G00X61.09Y-51.86
M15
G01X61.89Y-51.86
M16
G05
G00X67.44Y-49.32
M15
G01X68.44Y-49.32
M16
G05
G00X212.29Y-51.86
M15
G01X213.09Y-51.86
M16
G05
G00X218.64Y-49.32
M15
G01X219.64Y-49.32
M16
G05
G00X128.29Y-68.26
M15
G01X129.09Y-68.26
M16
G05
G00X134.64Y-65.72
M15
G01X135.64Y-65.72
M16
G05
G00X195.49Y-68.26
M15
G01X196.29Y-68.26
M16
G05
G00X201.84Y-65.72
M15
G01X202.84Y-65.72
M16
G05
G00X35.89Y-35.46
M15
G01X36.69Y-35.46
M16
G05
G00X42.24Y-32.92
M15
G01X43.24Y-32.92
M16
G05
G00X27.49Y-84.66
M15
G01X28.29Y-84.66
M16
G05
G00X33.84Y-82.12
M15
G01X34.84Y-82.12
M16
G05
G00X214.39Y-101.06
M15
G01X215.19Y-101.06
M16
G05
G00X220.74Y-98.52
M15
G01X221.74Y-98.52
M16
G05
G00X119.89Y-35.46
M15
G01X120.69Y-35.46
M16
G05
G00X126.24Y-32.92
M15
G01X127.24Y-32.92
M16
G05
G00X105.19Y-101.06
M15
G01X105.99Y-101.06
M16
G05
G00X111.54Y-98.52
M15
G01X112.54Y-98.52
M16
G05
G00X170.29Y-84.66
M15
G01X171.09Y-84.66
M16
G05
G00X176.64Y-82.12
M15
G01X177.64Y-82.12
M16
G05
G00X287.89Y-51.86
M15
G01X288.69Y-51.86
M16
G05
G00X294.24Y-49.32
M15
G01X295.24Y-49.32
M16
G05
G00X254.29Y-101.06
M15
G01X255.09Y-101.06
M16
G05
G00X260.64Y-98.52
M15
G01X261.64Y-98.52
M16
G05
G00X52.69Y-84.66
M15
G01X53.49Y-84.66
M16
G05
G00X59.04Y-82.12
M15
G01X60.04Y-82.12
M16
G05
G00X37.96Y-59.48
M15
G01X36.96Y-59.48
M16
G05
G00X44.31Y-56.94
M15
G01X43.51Y-56.94
M16
G05
G00X52.69Y-35.46
M15
G01X53.49Y-35.46
M16
G05
G00X59.04Y-32.92
M15
G01X60.04Y-32.92
M16
G05
G00X136.69Y-84.66
M15
G01X137.49Y-84.66
M16
G05
G00X143.04Y-82.12
M15
G01X144.04Y-82.12
M16
G05
G00X287.89Y-84.66
M15
G01X288.69Y-84.66
M16
G05
G00X294.24Y-82.12
M15
G01X295.24Y-82.12
M16
G05
G00X187.09Y-101.06
M15
G01X187.89Y-101.06
M16
G05
G00X193.44Y-98.52
M15
G01X194.44Y-98.52
M16
G05
G00X124.09Y-101.06
M15
G01X124.89Y-101.06
M16
G05
G00X130.44Y-98.52
M15
G01X131.44Y-98.52
M16
G05
G00X231.19Y-101.06
M15
G01X231.99Y-101.06
M16
G05
G00X237.54Y-98.52
M15
G01X238.54Y-98.52
M16
G05
G00X252.19Y-101.06
M15
G01X252.99Y-101.06
M16
G05
G00X258.54Y-98.52
M15
G01X259.54Y-98.52
M16
G05
G00X153.49Y-35.46
M15
G01X154.29Y-35.46
M16
G05
G00X159.84Y-32.92
M15
G01X160.84Y-32.92
M16
G05
G00X254.29Y-84.66
M15
G01X255.09Y-84.66
M16
G05
G00X260.64Y-82.12
M15
G01X261.64Y-82.12
M16
G05
G00X54.79Y-101.06
M15
G01X55.59Y-101.06
M16
G05
G00X61.14Y-98.52
M15
G01X62.14Y-98.52
M16
G05
G00X245.89Y-68.26
M15
G01X246.69Y-68.26
M16
G05
G00X252.24Y-65.72
M15
G01X253.24Y-65.72
M16
G05
G00X52.69Y-68.26
M15
G01X53.49Y-68.26
M16
G05
G00X59.04Y-65.72
M15
G01X60.04Y-65.72
M16
G05
G00X94.69Y-51.86
M15
G01X95.49Y-51.86
M16
G05
G00X101.04Y-49.32
M15
G01X102.04Y-49.32
M16
G05
G00X237.49Y-35.46
M15
G01X238.29Y-35.46
M16
G05
G00X243.84Y-32.92
M15
G01X244.84Y-32.92
M16
G05
G00X142.99Y-101.06
M15
G01X143.79Y-101.06
M16
G05
G00X149.34Y-98.52
M15
G01X150.34Y-98.52
M16
G05
G00X262.69Y-51.86
M15
G01X263.49Y-51.86
M16
G05
G00X269.04Y-49.32
M15
G01X270.04Y-49.32
M16
G05
G00X19.09Y-51.86
M15
G01X19.89Y-51.86
M16
G05
G00X25.44Y-49.32
M15
G01X26.44Y-49.32
M16
G05
G00X153.49Y-84.66
M15
G01X154.29Y-84.66
M16
G05
G00X159.84Y-82.12
M15
G01X160.84Y-82.12
M16
G05
G00X170.29Y-101.06
M15
G01X171.09Y-101.06
M16
G05
G00X176.64Y-98.52
M15
G01X177.64Y-98.52
M16
G05
G00X103.09Y-35.46
M15
G01X103.89Y-35.46
M16
G05
G00X109.44Y-32.92
M15
G01X110.44Y-32.92
M16
G05
G00X271.09Y-101.06
M15
G01X271.89Y-101.06
M16
G05
G00X277.44Y-98.52
M15
G01X278.44Y-98.52
M16
G05
G00X86.29Y-101.06
M15
G01X87.09Y-101.06
M16
G05
G00X92.64Y-98.52
M15
G01X93.64Y-98.52
M16
G05
G00X46.36Y-59.48
M15
G01X45.36Y-59.48
M16
G05
G00X52.71Y-56.94
M15
G01X51.91Y-56.94
M16
G05
G00X121.99Y-101.06
M15
G01X122.79Y-101.06
M16
G05
G00X128.34Y-98.52
M15
G01X129.34Y-98.52
M16
G05
G00X69.49Y-35.46
M15
G01X70.29Y-35.46
M16
G05
G00X75.84Y-32.92
M15
G01X76.84Y-32.92
M16
G05
G00X136.69Y-35.46
M15
G01X137.49Y-35.46
M16
G05
G00X143.04Y-32.92
M15
G01X144.04Y-32.92
M16
G05
G00X287.89Y-101.06
M15
G01X288.69Y-101.06
M16
G05
G00X294.24Y-98.52
M15
G01X295.24Y-98.52
M16
G05
G00X220.69Y-101.06
M15
G01X221.49Y-101.06
M16
G05
G00X227.04Y-98.52
M15
G01X228.04Y-98.52
M16
G05
G00X237.49Y-84.66
M15
G01X238.29Y-84.66
M16
G05
G00X243.84Y-82.12
M15
G01X244.84Y-82.12
M16
G05
G00X220.69Y-35.46
M15
G01X221.49Y-35.46
M16
G05
G00X227.04Y-32.92
M15
G01X228.04Y-32.92
M16
G05
T3
G00X29.075Y-17.565
M15
G01X29.075Y-18.365
M16
G05
G00X29.075Y-20.595
M15
G01X29.075Y-22.095
M16
G05
G00X37.725Y-17.565
M15
G01X37.725Y-18.365
M16
G05
G00X37.725Y-20.595
M15
G01X37.725Y-22.095
M16
G05
T6
G00X56.25Y-17.3
M15
G01X57.55Y-17.3
M16
G05
G00X56.25Y-28.5
M15
G01X57.55Y-28.5
M16
G05
G00X199.05Y-17.3
M15
G01X200.35Y-17.3
M16
G05
G00X199.05Y-28.5
M15
G01X200.35Y-28.5
M16
G05
G00X165.45Y-17.3
M15
G01X166.75Y-17.3
M16
G05
G00X165.45Y-28.5
M15
G01X166.75Y-28.5
M16
G05
G00X131.85Y-17.3
M15
G01X133.15Y-17.3
M16
G05
G00X131.85Y-28.5
M15
G01X133.15Y-28.5
M16
G05
G00X232.65Y-17.3
M15
G01X233.95Y-17.3
M16
G05
G00X232.65Y-28.5
M15
G01X233.95Y-28.5
M16
G05
G00X266.25Y-17.3
M15
G01X267.55Y-17.3
M16
G05
G00X266.25Y-28.5
M15
G01X267.55Y-28.5
M16
G05
T7
G00X142.149Y-63.7
M15
G01X144.651Y-63.7
M16
G05
G00X204.449Y-101.9
M15
G01X206.951Y-101.9
M16
G05
G00X273.999Y-44.6
M15
G01X276.501Y-44.6
M16
G05
T0
M30
