%TF.GenerationSoftware,KiCad,Pcbnew,(5.1.8-0-10_14)*%
%TF.CreationDate,2020-12-29T07:16:28+09:00*%
%TF.ProjectId,Unison,556e6973-6f6e-42e6-9b69-6361645f7063,v01_1*%
%TF.SameCoordinates,Original*%
%TF.FileFunction,Copper,L1,Top*%
%TF.FilePolarity,Positive*%
%FSLAX46Y46*%
G04 Gerber Fmt 4.6, Leading zero omitted, Abs format (unit mm)*
G04 Created by KiCad (PCBNEW (5.1.8-0-10_14)) date 2020-12-29 07:16:28*
%MOMM*%
%LPD*%
G01*
G04 APERTURE LIST*
%TA.AperFunction,EtchedComponent*%
%ADD10C,1.500000*%
%TD*%
%TA.AperFunction,ComponentPad*%
%ADD11O,2.000000X1.200000*%
%TD*%
%TA.AperFunction,ComponentPad*%
%ADD12R,2.000000X2.000000*%
%TD*%
%TA.AperFunction,ComponentPad*%
%ADD13C,2.000000*%
%TD*%
%TA.AperFunction,ComponentPad*%
%ADD14R,3.200000X2.000000*%
%TD*%
%TA.AperFunction,ComponentPad*%
%ADD15C,1.000000*%
%TD*%
%TA.AperFunction,ComponentPad*%
%ADD16C,5.000000*%
%TD*%
%TA.AperFunction,ComponentPad*%
%ADD17O,7.000240X5.000000*%
%TD*%
%TA.AperFunction,ComponentPad*%
%ADD18O,1.700000X1.700000*%
%TD*%
%TA.AperFunction,ComponentPad*%
%ADD19R,1.700000X1.700000*%
%TD*%
%TA.AperFunction,SMDPad,CuDef*%
%ADD20R,3.400000X1.300000*%
%TD*%
%TA.AperFunction,ComponentPad*%
%ADD21C,1.397000*%
%TD*%
%TA.AperFunction,ComponentPad*%
%ADD22O,1.108000X2.216000*%
%TD*%
%TA.AperFunction,ComponentPad*%
%ADD23C,0.650000*%
%TD*%
%TA.AperFunction,ViaPad*%
%ADD24C,0.600000*%
%TD*%
%TA.AperFunction,Conductor*%
%ADD25C,0.381000*%
%TD*%
%TA.AperFunction,Conductor*%
%ADD26C,0.254000*%
%TD*%
%TA.AperFunction,NonConductor*%
%ADD27C,0.254000*%
%TD*%
%TA.AperFunction,NonConductor*%
%ADD28C,0.100000*%
%TD*%
G04 APERTURE END LIST*
D10*
%TO.C,REF\u002A\u002A*%
X15200000Y-71050000D02*
X19000000Y-71050000D01*
X15250000Y-75350000D02*
X19050000Y-75350000D01*
X300200000Y-75350000D02*
X296400000Y-75350000D01*
X300150000Y-71050000D02*
X296350000Y-71050000D01*
X294250000Y-73200000D02*
G75*
G03*
X296400000Y-75350000I2150000J0D01*
G01*
X294250000Y-73200000D02*
G75*
G02*
X296400000Y-71050000I2150000J0D01*
G01*
X21150000Y-73200000D02*
G75*
G02*
X19000000Y-75350000I-2150000J0D01*
G01*
X21150000Y-73200000D02*
G75*
G03*
X19000000Y-71050000I-2150000J0D01*
G01*
%TD*%
D11*
%TO.P,SW_10_2,1*%
%TO.N,Net-(D1-Pad1)*%
X35510000Y-106140000D03*
%TO.P,SW_10_2,2*%
%TO.N,Net-(D7-Pad2)*%
X29060000Y-108680000D03*
%TD*%
%TO.P,SW_12_1,1*%
%TO.N,Net-(D1-Pad1)*%
X36290000Y-51860000D03*
%TO.P,SW_12_1,2*%
%TO.N,Net-(D10-Pad2)*%
X42740000Y-49320000D03*
%TD*%
%TO.P,SW_25_2,1*%
%TO.N,Net-(D14-Pad1)*%
X69890000Y-92860000D03*
%TO.P,SW_25_2,2*%
%TO.N,Net-(D24-Pad2)*%
X76340000Y-90320000D03*
%TD*%
%TO.P,SW_60_2,1*%
%TO.N,Net-(D59-Pad1)*%
X187490000Y-92860000D03*
%TO.P,SW_60_2,2*%
%TO.N,Net-(D64-Pad2)*%
X193940000Y-90320000D03*
%TD*%
%TO.P,SW_19_2,1*%
%TO.N,Net-(D1-Pad1)*%
X27890000Y-84660000D03*
%TO.P,SW_19_2,2*%
%TO.N,Net-(D6-Pad2)*%
X34340000Y-82120000D03*
%TD*%
%TO.P,SW_24_2,1*%
%TO.N,Net-(D14-Pad1)*%
X78290000Y-84660000D03*
%TO.P,SW_24_2,2*%
%TO.N,Net-(D23-Pad2)*%
X84740000Y-82120000D03*
%TD*%
%TO.P,SW_39_2,1*%
%TO.N,Net-(D25-Pad1)*%
X95090000Y-84660000D03*
%TO.P,SW_39_2,2*%
%TO.N,Net-(D29-Pad2)*%
X101540000Y-82120000D03*
%TD*%
%TO.P,SW_45_4,1*%
%TO.N,Net-(D36-Pad1)*%
X145490000Y-101060000D03*
%TO.P,SW_45_4,2*%
%TO.N,Net-(D46-Pad2)*%
X151940000Y-98520000D03*
%TD*%
%TO.P,SW_17_2,2*%
%TO.N,Net-(D4-Pad2)*%
X30140000Y-49320000D03*
%TO.P,SW_17_2,1*%
%TO.N,Net-(D1-Pad1)*%
X23690000Y-51860000D03*
%TD*%
%TO.P,SW_18_2,2*%
%TO.N,Net-(D5-Pad2)*%
X30140000Y-65720000D03*
%TO.P,SW_18_2,1*%
%TO.N,Net-(D1-Pad1)*%
X23690000Y-68260000D03*
%TD*%
%TO.P,SW_23_2,2*%
%TO.N,Net-(D22-Pad2)*%
X80540000Y-65720000D03*
%TO.P,SW_23_2,1*%
%TO.N,Net-(D14-Pad1)*%
X74090000Y-68260000D03*
%TD*%
%TO.P,SW_25_3,2*%
%TO.N,Net-(D24-Pad2)*%
X80540000Y-98520000D03*
%TO.P,SW_25_3,1*%
%TO.N,Net-(D14-Pad1)*%
X74090000Y-101060000D03*
%TD*%
%TO.P,SW_32_2,2*%
%TO.N,Net-(D21-Pad2)*%
X80540000Y-49320000D03*
%TO.P,SW_32_2,1*%
%TO.N,Net-(D25-Pad1)*%
X74090000Y-51860000D03*
%TD*%
%TO.P,SW_37_2,2*%
%TO.N,Net-(D27-Pad2)*%
X97340000Y-49320000D03*
%TO.P,SW_37_2,1*%
%TO.N,Net-(D25-Pad1)*%
X90890000Y-51860000D03*
%TD*%
%TO.P,SW_38_2,2*%
%TO.N,Net-(D28-Pad2)*%
X97340000Y-65720000D03*
%TO.P,SW_38_2,1*%
%TO.N,Net-(D25-Pad1)*%
X90890000Y-68260000D03*
%TD*%
%TO.P,SW_40_2,2*%
%TO.N,Net-(D41-Pad2)*%
X130940000Y-98520000D03*
%TO.P,SW_40_2,1*%
%TO.N,Net-(D36-Pad1)*%
X124490000Y-101060000D03*
%TD*%
%TO.P,SW_45_2,2*%
%TO.N,Net-(D46-Pad2)*%
X147740000Y-98520000D03*
%TO.P,SW_45_2,1*%
%TO.N,Net-(D36-Pad1)*%
X141290000Y-101060000D03*
%TD*%
%TO.P,SW_70_2,2*%
%TO.N,Net-(D76-Pad2)*%
X223340000Y-98520000D03*
%TO.P,SW_70_2,1*%
%TO.N,Net-(D71-Pad1)*%
X216890000Y-101060000D03*
%TD*%
%TO.P,SW_75_2,2*%
%TO.N,Net-(D70-Pad2)*%
X209660000Y-108680000D03*
%TO.P,SW_75_2,1*%
%TO.N,Net-(D71-Pad1)*%
X216110000Y-106140000D03*
%TD*%
%TO.P,SW_7_2,2*%
%TO.N,Net-(D96-Pad2)*%
X290540000Y-49320000D03*
%TO.P,SW_7_2,1*%
%TO.N,RE1_1*%
X284090000Y-51860000D03*
%TD*%
%TO.P,SW_85_3,2*%
%TO.N,Net-(D82-Pad2)*%
X240140000Y-98520000D03*
%TO.P,SW_85_3,1*%
%TO.N,Net-(D83-Pad1)*%
X233690000Y-101060000D03*
%TD*%
%TO.P,SW_8_2,2*%
%TO.N,Net-(D97-Pad2)*%
X290540000Y-65720000D03*
%TO.P,SW_8_2,1*%
%TO.N,RE1_1*%
X284090000Y-68260000D03*
%TD*%
%TO.P,SW_97_2,2*%
%TO.N,Net-(D85-Pad2)*%
X273740000Y-49320000D03*
%TO.P,SW_97_2,1*%
%TO.N,RE6_1*%
X267290000Y-51860000D03*
%TD*%
%TO.P,SW_98_2,2*%
%TO.N,Net-(D86-Pad2)*%
X273740000Y-65720000D03*
%TO.P,SW_98_2,1*%
%TO.N,RE6_1*%
X267290000Y-68260000D03*
%TD*%
%TO.P,SW_85_4,1*%
%TO.N,Net-(D83-Pad1)*%
X231590000Y-101060000D03*
%TO.P,SW_85_4,2*%
%TO.N,Net-(D82-Pad2)*%
X238040000Y-98520000D03*
%TD*%
%TO.P,SW_85_2,1*%
%TO.N,Net-(D83-Pad1)*%
X235790000Y-101060000D03*
%TO.P,SW_85_2,2*%
%TO.N,Net-(D82-Pad2)*%
X242240000Y-98520000D03*
%TD*%
%TO.P,SW_80_2,1*%
%TO.N,Net-(D83-Pad1)*%
X252590000Y-101060000D03*
%TO.P,SW_80_2,2*%
%TO.N,Net-(D88-Pad2)*%
X259040000Y-98520000D03*
%TD*%
%TO.P,SW_70_3,1*%
%TO.N,Net-(D71-Pad1)*%
X214790000Y-101060000D03*
%TO.P,SW_70_3,2*%
%TO.N,Net-(D76-Pad2)*%
X221240000Y-98520000D03*
%TD*%
%TO.P,SW_45_3,1*%
%TO.N,Net-(D36-Pad1)*%
X143390000Y-101060000D03*
%TO.P,SW_45_3,2*%
%TO.N,Net-(D46-Pad2)*%
X149840000Y-98520000D03*
%TD*%
%TO.P,SW_40_4,1*%
%TO.N,Net-(D36-Pad1)*%
X122390000Y-101060000D03*
%TO.P,SW_40_4,2*%
%TO.N,Net-(D41-Pad2)*%
X128840000Y-98520000D03*
%TD*%
%TO.P,SW_40_3,1*%
%TO.N,Net-(D36-Pad1)*%
X126590000Y-101060000D03*
%TO.P,SW_40_3,2*%
%TO.N,Net-(D41-Pad2)*%
X133040000Y-98520000D03*
%TD*%
%TO.P,SW_35_2,1*%
%TO.N,Net-(D25-Pad1)*%
X105590000Y-101060000D03*
%TO.P,SW_35_2,2*%
%TO.N,Net-(D35-Pad2)*%
X112040000Y-98520000D03*
%TD*%
%TO.P,SW_25_4,1*%
%TO.N,Net-(D14-Pad1)*%
X76190000Y-101060000D03*
%TO.P,SW_25_4,2*%
%TO.N,Net-(D24-Pad2)*%
X82640000Y-98520000D03*
%TD*%
%TO.P,SW_20_2,1*%
%TO.N,Net-(D14-Pad1)*%
X62810000Y-106140000D03*
%TO.P,SW_20_2,2*%
%TO.N,Net-(D19-Pad2)*%
X56360000Y-108680000D03*
%TD*%
D12*
%TO.P,SW_RE1,A*%
%TO.N,RE1_A*%
X49400000Y-20400000D03*
D13*
%TO.P,SW_RE1,C*%
%TO.N,GND*%
X49400000Y-22900000D03*
%TO.P,SW_RE1,B*%
%TO.N,RE1_B*%
X49400000Y-25400000D03*
D14*
%TO.P,SW_RE1,MP*%
%TO.N,N/C*%
X56900000Y-17300000D03*
X56900000Y-28500000D03*
D13*
%TO.P,SW_RE1,S2*%
%TO.N,RE1_2*%
X63900000Y-20400000D03*
%TO.P,SW_RE1,S1*%
%TO.N,RE1_1*%
X63900000Y-25400000D03*
%TD*%
D11*
%TO.P,SW_21,1*%
%TO.N,Net-(D14-Pad1)*%
X36290000Y-35460000D03*
%TO.P,SW_21,2*%
%TO.N,Net-(D9-Pad2)*%
X42740000Y-32920000D03*
%TD*%
%TO.P,SW_26,1*%
%TO.N,Net-(D14-Pad1)*%
X53090000Y-35460000D03*
%TO.P,SW_26,2*%
%TO.N,Net-(D15-Pad2)*%
X59540000Y-32920000D03*
%TD*%
D15*
%TO.P,REF\u002A\u002A,1*%
%TO.N,N/C*%
X298442035Y-71000000D03*
X298450000Y-75350000D03*
X294850000Y-74700000D03*
X296400000Y-71000000D03*
X296400000Y-75350000D03*
X294250000Y-73200000D03*
X294850000Y-71700000D03*
X20550000Y-74700000D03*
D16*
X40400000Y-44600000D03*
D17*
X143400000Y-63700000D03*
X205700000Y-101900000D03*
X275250000Y-44600000D03*
D15*
X40400000Y-42700000D03*
X38500000Y-44600000D03*
X42300000Y-44600000D03*
X40400000Y-46500000D03*
X39050000Y-43250000D03*
X41650000Y-43250000D03*
X39050000Y-45900000D03*
X41650000Y-45950000D03*
X275250000Y-42750000D03*
X275250000Y-46450000D03*
X276450000Y-46450000D03*
X274050000Y-46450000D03*
X274050000Y-42750000D03*
X276450000Y-42733000D03*
X205750000Y-100050000D03*
X205700000Y-103750000D03*
X206950000Y-100050000D03*
X204550000Y-100050000D03*
X204500000Y-103750000D03*
X206900000Y-103750000D03*
X143400000Y-61850000D03*
X144600000Y-61850000D03*
X142200000Y-61850000D03*
X143400000Y-65600000D03*
X142200000Y-65600000D03*
X144600000Y-65600000D03*
X21150000Y-73200000D03*
X19000000Y-71050000D03*
X19000000Y-75400000D03*
X20550000Y-71700000D03*
X16950000Y-71050000D03*
X16957965Y-75400000D03*
%TD*%
D18*
%TO.P,J2,2*%
%TO.N,pin8*%
X280840000Y-74700000D03*
D19*
%TO.P,J2,1*%
%TO.N,RE6_1*%
X278300000Y-74700000D03*
%TD*%
D20*
%TO.P,LS1,2*%
%TO.N,Net-(D2-Pad1)*%
X23350000Y-27550000D03*
%TO.P,LS1,1*%
%TO.N,GND*%
X23350000Y-18850000D03*
%TD*%
D21*
%TO.P,OL1,4*%
%TO.N,GND*%
X142300000Y-19290000D03*
%TO.P,OL1,3*%
%TO.N,+5V*%
X142300000Y-21830000D03*
%TO.P,OL1,2*%
%TO.N,SCL_RE2B*%
X142300000Y-24370000D03*
%TO.P,OL1,1*%
%TO.N,SDA_RE2A*%
X142300000Y-26910000D03*
%TD*%
D11*
%TO.P,SW_6,1*%
%TO.N,RE1_1*%
X288290000Y-35460000D03*
%TO.P,SW_6,2*%
%TO.N,Net-(D95-Pad2)*%
X294740000Y-32920000D03*
%TD*%
%TO.P,SW_9,1*%
%TO.N,RE1_1*%
X288290000Y-84660000D03*
%TO.P,SW_9,2*%
%TO.N,Net-(D98-Pad2)*%
X294740000Y-82120000D03*
%TD*%
%TO.P,SW_14,1*%
%TO.N,Net-(D1-Pad1)*%
X36290000Y-84660000D03*
%TO.P,SW_14,2*%
%TO.N,Net-(D12-Pad2)*%
X42740000Y-82120000D03*
%TD*%
%TO.P,SW_15,1*%
%TO.N,Net-(D1-Pad1)*%
X43910000Y-106140000D03*
%TO.P,SW_15,2*%
%TO.N,Net-(D13-Pad2)*%
X37460000Y-108680000D03*
%TD*%
%TO.P,SW_16,1*%
%TO.N,Net-(D1-Pad1)*%
X19490000Y-35460000D03*
%TO.P,SW_16,2*%
%TO.N,Net-(D3-Pad2)*%
X25940000Y-32920000D03*
%TD*%
%TO.P,SW_29,1*%
%TO.N,Net-(D14-Pad1)*%
X53090000Y-84660000D03*
%TO.P,SW_29,2*%
%TO.N,Net-(D18-Pad2)*%
X59540000Y-82120000D03*
%TD*%
%TO.P,SW_30,1*%
%TO.N,Net-(D25-Pad1)*%
X86690000Y-101060000D03*
%TO.P,SW_30,2*%
%TO.N,Net-(D30-Pad2)*%
X93140000Y-98520000D03*
%TD*%
%TO.P,SW_31,1*%
%TO.N,Net-(D25-Pad1)*%
X69890000Y-35460000D03*
%TO.P,SW_31,2*%
%TO.N,Net-(D20-Pad2)*%
X76340000Y-32920000D03*
%TD*%
%TO.P,SW_34,1*%
%TO.N,Net-(D25-Pad1)*%
X103490000Y-84660000D03*
%TO.P,SW_34,2*%
%TO.N,Net-(D34-Pad2)*%
X109940000Y-82120000D03*
%TD*%
%TO.P,SW_36,1*%
%TO.N,Net-(D25-Pad1)*%
X86690000Y-35460000D03*
%TO.P,SW_36,2*%
%TO.N,Net-(D26-Pad2)*%
X93140000Y-32920000D03*
%TD*%
%TO.P,SW_41,1*%
%TO.N,Net-(D36-Pad1)*%
X103490000Y-35460000D03*
%TO.P,SW_41,2*%
%TO.N,Net-(D31-Pad2)*%
X109940000Y-32920000D03*
%TD*%
%TO.P,SW_42,1*%
%TO.N,Net-(D36-Pad1)*%
X111890000Y-51860000D03*
%TO.P,SW_42,2*%
%TO.N,Net-(D32-Pad2)*%
X118340000Y-49320000D03*
%TD*%
%TO.P,SW_43,1*%
%TO.N,Net-(D36-Pad1)*%
X111890000Y-68260000D03*
%TO.P,SW_43,2*%
%TO.N,Net-(D33-Pad2)*%
X118340000Y-65720000D03*
%TD*%
%TO.P,SW_46,1*%
%TO.N,Net-(D36-Pad1)*%
X120290000Y-35460000D03*
%TO.P,SW_46,2*%
%TO.N,Net-(D37-Pad2)*%
X126740000Y-32920000D03*
%TD*%
%TO.P,SW_47,1*%
%TO.N,Net-(D36-Pad1)*%
X128690000Y-51860000D03*
%TO.P,SW_47,2*%
%TO.N,Net-(D38-Pad2)*%
X135140000Y-49320000D03*
%TD*%
%TO.P,SW_48,1*%
%TO.N,Net-(D36-Pad1)*%
X128690000Y-68260000D03*
%TO.P,SW_48,2*%
%TO.N,Net-(D39-Pad2)*%
X135140000Y-65720000D03*
%TD*%
%TO.P,SW_49,1*%
%TO.N,Net-(D36-Pad1)*%
X120290000Y-84660000D03*
%TO.P,SW_49,2*%
%TO.N,Net-(D40-Pad2)*%
X126740000Y-82120000D03*
%TD*%
%TO.P,SW_50,1*%
%TO.N,Net-(D47-Pad1)*%
X153890000Y-101060000D03*
%TO.P,SW_50,2*%
%TO.N,Net-(D52-Pad2)*%
X160340000Y-98520000D03*
%TD*%
%TO.P,SW_51,1*%
%TO.N,Net-(D47-Pad1)*%
X137090000Y-35460000D03*
%TO.P,SW_51,2*%
%TO.N,Net-(D42-Pad2)*%
X143540000Y-32920000D03*
%TD*%
%TO.P,SW_52,1*%
%TO.N,Net-(D47-Pad1)*%
X145490000Y-51860000D03*
%TO.P,SW_52,2*%
%TO.N,Net-(D43-Pad2)*%
X151940000Y-49320000D03*
%TD*%
%TO.P,SW_53,1*%
%TO.N,Net-(D47-Pad1)*%
X145490000Y-68260000D03*
%TO.P,SW_53,2*%
%TO.N,Net-(D44-Pad2)*%
X151940000Y-65720000D03*
%TD*%
%TO.P,SW_54,1*%
%TO.N,Net-(D47-Pad1)*%
X137090000Y-84660000D03*
%TO.P,SW_54,2*%
%TO.N,Net-(D45-Pad2)*%
X143540000Y-82120000D03*
%TD*%
%TO.P,SW_56,1*%
%TO.N,Net-(D47-Pad1)*%
X153890000Y-35460000D03*
%TO.P,SW_56,2*%
%TO.N,Net-(D48-Pad2)*%
X160340000Y-32920000D03*
%TD*%
%TO.P,SW_57,1*%
%TO.N,Net-(D47-Pad1)*%
X162290000Y-51860000D03*
%TO.P,SW_57,2*%
%TO.N,Net-(D49-Pad2)*%
X168740000Y-49320000D03*
%TD*%
%TO.P,SW_58,1*%
%TO.N,Net-(D47-Pad1)*%
X162290000Y-68260000D03*
%TO.P,SW_58,2*%
%TO.N,Net-(D50-Pad2)*%
X168740000Y-65720000D03*
%TD*%
%TO.P,SW_59,1*%
%TO.N,Net-(D47-Pad1)*%
X153890000Y-84660000D03*
%TO.P,SW_59,2*%
%TO.N,Net-(D51-Pad2)*%
X160340000Y-82120000D03*
%TD*%
%TO.P,SW_61,1*%
%TO.N,Net-(D59-Pad1)*%
X170690000Y-35460000D03*
%TO.P,SW_61,2*%
%TO.N,Net-(D54-Pad2)*%
X177140000Y-32920000D03*
%TD*%
%TO.P,SW_62,1*%
%TO.N,Net-(D59-Pad1)*%
X179090000Y-51860000D03*
%TO.P,SW_62,2*%
%TO.N,Net-(D55-Pad2)*%
X185540000Y-49320000D03*
%TD*%
%TO.P,SW_63,1*%
%TO.N,Net-(D59-Pad1)*%
X179090000Y-68260000D03*
%TO.P,SW_63,2*%
%TO.N,Net-(D56-Pad2)*%
X185540000Y-65720000D03*
%TD*%
%TO.P,SW_64,1*%
%TO.N,Net-(D59-Pad1)*%
X170690000Y-84660000D03*
%TO.P,SW_64,2*%
%TO.N,Net-(D57-Pad2)*%
X177140000Y-82120000D03*
%TD*%
%TO.P,SW_65,1*%
%TO.N,Net-(D59-Pad1)*%
X170690000Y-101060000D03*
%TO.P,SW_65,2*%
%TO.N,Net-(D58-Pad2)*%
X177140000Y-98520000D03*
%TD*%
%TO.P,SW_67,1*%
%TO.N,Net-(D59-Pad1)*%
X195890000Y-51860000D03*
%TO.P,SW_67,2*%
%TO.N,Net-(D61-Pad2)*%
X202340000Y-49320000D03*
%TD*%
%TO.P,SW_68,1*%
%TO.N,Net-(D59-Pad1)*%
X195890000Y-68260000D03*
%TO.P,SW_68,2*%
%TO.N,Net-(D62-Pad2)*%
X202340000Y-65720000D03*
%TD*%
%TO.P,SW_69,1*%
%TO.N,Net-(D59-Pad1)*%
X187490000Y-84660000D03*
%TO.P,SW_69,2*%
%TO.N,Net-(D63-Pad2)*%
X193940000Y-82120000D03*
%TD*%
%TO.P,SW_71,1*%
%TO.N,Net-(D71-Pad1)*%
X204290000Y-35460000D03*
%TO.P,SW_71,2*%
%TO.N,Net-(D66-Pad2)*%
X210740000Y-32920000D03*
%TD*%
%TO.P,SW_72,1*%
%TO.N,Net-(D71-Pad1)*%
X212690000Y-51860000D03*
%TO.P,SW_72,2*%
%TO.N,Net-(D67-Pad2)*%
X219140000Y-49320000D03*
%TD*%
%TO.P,SW_73,1*%
%TO.N,Net-(D71-Pad1)*%
X212690000Y-68260000D03*
%TO.P,SW_73,2*%
%TO.N,Net-(D68-Pad2)*%
X219140000Y-65720000D03*
%TD*%
%TO.P,SW_74,1*%
%TO.N,Net-(D71-Pad1)*%
X204290000Y-84660000D03*
%TO.P,SW_74,2*%
%TO.N,Net-(D69-Pad2)*%
X210740000Y-82120000D03*
%TD*%
%TO.P,SW_76,1*%
%TO.N,Net-(D71-Pad1)*%
X187490000Y-35460000D03*
%TO.P,SW_76,2*%
%TO.N,Net-(D60-Pad2)*%
X193940000Y-32920000D03*
%TD*%
%TO.P,SW_78,1*%
%TO.N,Net-(D71-Pad1)*%
X229490000Y-68260000D03*
%TO.P,SW_78,2*%
%TO.N,Net-(D74-Pad2)*%
X235940000Y-65720000D03*
%TD*%
%TO.P,SW_79,1*%
%TO.N,Net-(D71-Pad1)*%
X221090000Y-84660000D03*
%TO.P,SW_79,2*%
%TO.N,Net-(D75-Pad2)*%
X227540000Y-82120000D03*
%TD*%
%TO.P,SW_81,1*%
%TO.N,Net-(D83-Pad1)*%
X237890000Y-35460000D03*
%TO.P,SW_81,2*%
%TO.N,Net-(D78-Pad2)*%
X244340000Y-32920000D03*
%TD*%
%TO.P,SW_82,1*%
%TO.N,Net-(D83-Pad1)*%
X246290000Y-51860000D03*
%TO.P,SW_82,2*%
%TO.N,Net-(D79-Pad2)*%
X252740000Y-49320000D03*
%TD*%
%TO.P,SW_83,1*%
%TO.N,Net-(D83-Pad1)*%
X246290000Y-68260000D03*
%TO.P,SW_83,2*%
%TO.N,Net-(D80-Pad2)*%
X252740000Y-65720000D03*
%TD*%
%TO.P,SW_84,1*%
%TO.N,Net-(D83-Pad1)*%
X237890000Y-84660000D03*
%TO.P,SW_84,2*%
%TO.N,Net-(D81-Pad2)*%
X244340000Y-82120000D03*
%TD*%
%TO.P,SW_86,1*%
%TO.N,Net-(D83-Pad1)*%
X221090000Y-35460000D03*
%TO.P,SW_86,2*%
%TO.N,Net-(D72-Pad2)*%
X227540000Y-32920000D03*
%TD*%
%TO.P,SW_87,1*%
%TO.N,Net-(D83-Pad1)*%
X229490000Y-51860000D03*
%TO.P,SW_87,2*%
%TO.N,Net-(D73-Pad2)*%
X235940000Y-49320000D03*
%TD*%
%TO.P,SW_89,1*%
%TO.N,Net-(D83-Pad1)*%
X254690000Y-84660000D03*
%TO.P,SW_89,2*%
%TO.N,Net-(D87-Pad2)*%
X261140000Y-82120000D03*
%TD*%
%TO.P,SW_90,1*%
%TO.N,RE6_1*%
X288290000Y-101060000D03*
%TO.P,SW_90,2*%
%TO.N,Net-(D99-Pad2)*%
X294740000Y-98520000D03*
%TD*%
%TO.P,SW_91,1*%
%TO.N,RE6_1*%
X271490000Y-35460000D03*
%TO.P,SW_91,2*%
%TO.N,Net-(D90-Pad2)*%
X277940000Y-32920000D03*
%TD*%
%TO.P,SW_94,1*%
%TO.N,RE6_1*%
X271490000Y-84660000D03*
%TO.P,SW_94,2*%
%TO.N,Net-(D91-Pad2)*%
X277940000Y-82120000D03*
%TD*%
%TO.P,SW_95,1*%
%TO.N,RE6_1*%
X271490000Y-101060000D03*
%TO.P,SW_95,2*%
%TO.N,Net-(D92-Pad2)*%
X277940000Y-98520000D03*
%TD*%
%TO.P,SW_96,1*%
%TO.N,RE6_1*%
X254690000Y-35460000D03*
%TO.P,SW_96,2*%
%TO.N,Net-(D84-Pad2)*%
X261140000Y-32920000D03*
%TD*%
%TO.P,SW_10_1,1*%
%TO.N,Net-(D1-Pad1)*%
X27110000Y-106140000D03*
%TO.P,SW_10_1,2*%
%TO.N,Net-(D7-Pad2)*%
X20660000Y-108680000D03*
%TD*%
%TO.P,SW_12_2,1*%
%TO.N,Net-(D1-Pad1)*%
X44690000Y-51860000D03*
%TO.P,SW_12_2,2*%
%TO.N,Net-(D10-Pad2)*%
X51140000Y-49320000D03*
%TD*%
%TO.P,SW_13_1,1*%
%TO.N,Net-(D1-Pad1)*%
X43910000Y-73340000D03*
%TO.P,SW_13_1,2*%
%TO.N,Net-(D11-Pad2)*%
X37460000Y-75880000D03*
%TD*%
%TO.P,SW_13_2,1*%
%TO.N,Net-(D1-Pad1)*%
X52310000Y-73340000D03*
%TO.P,SW_13_2,2*%
%TO.N,Net-(D11-Pad2)*%
X45860000Y-75880000D03*
%TD*%
%TO.P,SW_17_1,1*%
%TO.N,Net-(D1-Pad1)*%
X19490000Y-51860000D03*
%TO.P,SW_17_1,2*%
%TO.N,Net-(D4-Pad2)*%
X25940000Y-49320000D03*
%TD*%
%TO.P,SW_18_1,1*%
%TO.N,Net-(D1-Pad1)*%
X19490000Y-68260000D03*
%TO.P,SW_18_1,2*%
%TO.N,Net-(D5-Pad2)*%
X25940000Y-65720000D03*
%TD*%
%TO.P,SW_19_1,1*%
%TO.N,Net-(D1-Pad1)*%
X19490000Y-84660000D03*
%TO.P,SW_19_1,2*%
%TO.N,Net-(D6-Pad2)*%
X25940000Y-82120000D03*
%TD*%
%TO.P,SW_20_1,1*%
%TO.N,Net-(D14-Pad1)*%
X60710000Y-106140000D03*
%TO.P,SW_20_1,2*%
%TO.N,Net-(D19-Pad2)*%
X54260000Y-108680000D03*
%TD*%
%TO.P,SW_23_1,1*%
%TO.N,Net-(D14-Pad1)*%
X69890000Y-68260000D03*
%TO.P,SW_23_1,2*%
%TO.N,Net-(D22-Pad2)*%
X76340000Y-65720000D03*
%TD*%
%TO.P,SW_24_1,1*%
%TO.N,Net-(D14-Pad1)*%
X69890000Y-84660000D03*
%TO.P,SW_24_1,2*%
%TO.N,Net-(D23-Pad2)*%
X76340000Y-82120000D03*
%TD*%
%TO.P,SW_25_1,1*%
%TO.N,Net-(D14-Pad1)*%
X69890000Y-101060000D03*
%TO.P,SW_25_1,2*%
%TO.N,Net-(D24-Pad2)*%
X76340000Y-98520000D03*
%TD*%
%TO.P,SW_27_1,1*%
%TO.N,Net-(D14-Pad1)*%
X53090000Y-51860000D03*
%TO.P,SW_27_1,2*%
%TO.N,Net-(D16-Pad2)*%
X59540000Y-49320000D03*
%TD*%
%TO.P,SW_27_2,1*%
%TO.N,Net-(D14-Pad1)*%
X61490000Y-51860000D03*
%TO.P,SW_27_2,2*%
%TO.N,Net-(D16-Pad2)*%
X67940000Y-49320000D03*
%TD*%
%TO.P,SW_28_1,1*%
%TO.N,Net-(D14-Pad1)*%
X53090000Y-68260000D03*
%TO.P,SW_28_1,2*%
%TO.N,Net-(D17-Pad2)*%
X59540000Y-65720000D03*
%TD*%
%TO.P,SW_28_2,1*%
%TO.N,Net-(D14-Pad1)*%
X61490000Y-68260000D03*
%TO.P,SW_28_2,2*%
%TO.N,Net-(D17-Pad2)*%
X67940000Y-65720000D03*
%TD*%
%TO.P,SW_32_1,1*%
%TO.N,Net-(D25-Pad1)*%
X69890000Y-51860000D03*
%TO.P,SW_32_1,2*%
%TO.N,Net-(D21-Pad2)*%
X76340000Y-49320000D03*
%TD*%
%TO.P,SW_35_1,1*%
%TO.N,Net-(D25-Pad1)*%
X103490000Y-101060000D03*
%TO.P,SW_35_1,2*%
%TO.N,Net-(D35-Pad2)*%
X109940000Y-98520000D03*
%TD*%
%TO.P,SW_37_1,1*%
%TO.N,Net-(D25-Pad1)*%
X95090000Y-51860000D03*
%TO.P,SW_37_1,2*%
%TO.N,Net-(D27-Pad2)*%
X101540000Y-49320000D03*
%TD*%
%TO.P,SW_38_1,1*%
%TO.N,Net-(D25-Pad1)*%
X95090000Y-68260000D03*
%TO.P,SW_38_1,2*%
%TO.N,Net-(D28-Pad2)*%
X101540000Y-65720000D03*
%TD*%
%TO.P,SW_39_1,1*%
%TO.N,Net-(D25-Pad1)*%
X86690000Y-84660000D03*
%TO.P,SW_39_1,2*%
%TO.N,Net-(D29-Pad2)*%
X93140000Y-82120000D03*
%TD*%
%TO.P,SW_40_1,1*%
%TO.N,Net-(D36-Pad1)*%
X120290000Y-101060000D03*
%TO.P,SW_40_1,2*%
%TO.N,Net-(D41-Pad2)*%
X126740000Y-98520000D03*
%TD*%
%TO.P,SW_45_1,1*%
%TO.N,Net-(D36-Pad1)*%
X137090000Y-101060000D03*
%TO.P,SW_45_1,2*%
%TO.N,Net-(D46-Pad2)*%
X143540000Y-98520000D03*
%TD*%
%TO.P,SW_60_1,1*%
%TO.N,Net-(D59-Pad1)*%
X187490000Y-101060000D03*
%TO.P,SW_60_1,2*%
%TO.N,Net-(D64-Pad2)*%
X193940000Y-98520000D03*
%TD*%
%TO.P,SW_70_1,1*%
%TO.N,Net-(D71-Pad1)*%
X221090000Y-101060000D03*
%TO.P,SW_70_1,2*%
%TO.N,Net-(D76-Pad2)*%
X227540000Y-98520000D03*
%TD*%
%TO.P,SW_75_1,1*%
%TO.N,Net-(D71-Pad1)*%
X211910000Y-106140000D03*
%TO.P,SW_75_1,2*%
%TO.N,Net-(D70-Pad2)*%
X205460000Y-108680000D03*
%TD*%
%TO.P,SW_7_1,1*%
%TO.N,RE1_1*%
X288290000Y-51860000D03*
%TO.P,SW_7_1,2*%
%TO.N,Net-(D96-Pad2)*%
X294740000Y-49320000D03*
%TD*%
%TO.P,SW_80_1,1*%
%TO.N,Net-(D83-Pad1)*%
X254690000Y-101060000D03*
%TO.P,SW_80_1,2*%
%TO.N,Net-(D88-Pad2)*%
X261140000Y-98520000D03*
%TD*%
%TO.P,SW_85_1,1*%
%TO.N,Net-(D83-Pad1)*%
X237890000Y-101060000D03*
%TO.P,SW_85_1,2*%
%TO.N,Net-(D82-Pad2)*%
X244340000Y-98520000D03*
%TD*%
%TO.P,SW_8_1,1*%
%TO.N,RE1_1*%
X288290000Y-68260000D03*
%TO.P,SW_8_1,2*%
%TO.N,Net-(D97-Pad2)*%
X294740000Y-65720000D03*
%TD*%
%TO.P,SW_97_1,1*%
%TO.N,RE6_1*%
X263090000Y-51860000D03*
%TO.P,SW_97_1,2*%
%TO.N,Net-(D85-Pad2)*%
X269540000Y-49320000D03*
%TD*%
%TO.P,SW_98_1,1*%
%TO.N,RE6_1*%
X263090000Y-68260000D03*
%TO.P,SW_98_1,2*%
%TO.N,Net-(D86-Pad2)*%
X269540000Y-65720000D03*
%TD*%
D12*
%TO.P,SW_RE2,A*%
%TO.N,SDA_RE2A*%
X125000000Y-20400000D03*
D13*
%TO.P,SW_RE2,C*%
%TO.N,GND*%
X125000000Y-22900000D03*
%TO.P,SW_RE2,B*%
%TO.N,SCL_RE2B*%
X125000000Y-25400000D03*
D14*
%TO.P,SW_RE2,MP*%
%TO.N,N/C*%
X132500000Y-17300000D03*
X132500000Y-28500000D03*
D13*
%TO.P,SW_RE2,S2*%
%TO.N,RE2_2*%
X139500000Y-20400000D03*
%TO.P,SW_RE2,S1*%
%TO.N,RE1_1*%
X139500000Y-25400000D03*
%TD*%
D12*
%TO.P,SW_RE3,A*%
%TO.N,RE3_A*%
X158600000Y-20400000D03*
D13*
%TO.P,SW_RE3,C*%
%TO.N,GND*%
X158600000Y-22900000D03*
%TO.P,SW_RE3,B*%
%TO.N,RE3_B*%
X158600000Y-25400000D03*
D14*
%TO.P,SW_RE3,MP*%
%TO.N,N/C*%
X166100000Y-17300000D03*
X166100000Y-28500000D03*
D13*
%TO.P,SW_RE3,S2*%
%TO.N,RE3_2*%
X173100000Y-20400000D03*
%TO.P,SW_RE3,S1*%
%TO.N,RE1_1*%
X173100000Y-25400000D03*
%TD*%
D12*
%TO.P,SW_RE4,A*%
%TO.N,RE4_A*%
X192200000Y-20400000D03*
D13*
%TO.P,SW_RE4,C*%
%TO.N,GND*%
X192200000Y-22900000D03*
%TO.P,SW_RE4,B*%
%TO.N,RE4_B*%
X192200000Y-25400000D03*
D14*
%TO.P,SW_RE4,MP*%
%TO.N,N/C*%
X199700000Y-17300000D03*
X199700000Y-28500000D03*
D13*
%TO.P,SW_RE4,S2*%
%TO.N,RE4_2*%
X206700000Y-20400000D03*
%TO.P,SW_RE4,S1*%
%TO.N,RE1_1*%
X206700000Y-25400000D03*
%TD*%
D12*
%TO.P,SW_RE5,A*%
%TO.N,RE5_A*%
X225800000Y-20400000D03*
D13*
%TO.P,SW_RE5,C*%
%TO.N,GND*%
X225800000Y-22900000D03*
%TO.P,SW_RE5,B*%
%TO.N,RE5_B*%
X225800000Y-25400000D03*
D14*
%TO.P,SW_RE5,MP*%
%TO.N,N/C*%
X233300000Y-17300000D03*
X233300000Y-28500000D03*
D13*
%TO.P,SW_RE5,S2*%
%TO.N,RE5_2*%
X240300000Y-20400000D03*
%TO.P,SW_RE5,S1*%
%TO.N,RE1_1*%
X240300000Y-25400000D03*
%TD*%
D12*
%TO.P,SW_RE6,A*%
%TO.N,RE6_A*%
X259400000Y-20400000D03*
D13*
%TO.P,SW_RE6,C*%
%TO.N,GND*%
X259400000Y-22900000D03*
%TO.P,SW_RE6,B*%
%TO.N,RE6_B*%
X259400000Y-25400000D03*
D14*
%TO.P,SW_RE6,MP*%
%TO.N,N/C*%
X266900000Y-17300000D03*
X266900000Y-28500000D03*
D13*
%TO.P,SW_RE6,S2*%
%TO.N,RE6_2*%
X273900000Y-20400000D03*
%TO.P,SW_RE6,S1*%
%TO.N,RE6_1*%
X273900000Y-25400000D03*
%TD*%
D22*
%TO.P,J1,P4*%
%TO.N,GND*%
X29075000Y-17965000D03*
%TO.P,J1,P3*%
X37725000Y-17965000D03*
%TO.P,J1,P2*%
X37725000Y-21345000D03*
%TO.P,J1,P1*%
X29075000Y-21345000D03*
D23*
%TO.P,J1,B12*%
X30425000Y-20975000D03*
%TO.P,J1,B9*%
%TO.N,VCC*%
X31275000Y-20975000D03*
%TO.P,J1,B8*%
%TO.N,Net-(J1-PadB8)*%
X32125000Y-20975000D03*
%TO.P,J1,B7*%
%TO.N,Net-(D102-Pad3)*%
X32975000Y-20975000D03*
%TO.P,J1,B6*%
%TO.N,Net-(D102-Pad2)*%
X33825000Y-20975000D03*
%TO.P,J1,B5*%
%TO.N,Net-(J1-PadB5)*%
X34675000Y-20975000D03*
%TO.P,J1,B4*%
%TO.N,VCC*%
X35525000Y-20975000D03*
%TO.P,J1,B1*%
%TO.N,GND*%
X36375000Y-20975000D03*
%TO.P,J1,A12*%
X36375000Y-22325000D03*
%TO.P,J1,A9*%
%TO.N,VCC*%
X35525000Y-22325000D03*
%TO.P,J1,A8*%
%TO.N,Net-(J1-PadA8)*%
X34675000Y-22325000D03*
%TO.P,J1,A7*%
%TO.N,Net-(D102-Pad3)*%
X33825000Y-22325000D03*
%TO.P,J1,A6*%
%TO.N,Net-(D102-Pad2)*%
X32975000Y-22325000D03*
%TO.P,J1,A5*%
%TO.N,Net-(J1-PadA5)*%
X32125000Y-22325000D03*
%TO.P,J1,A4*%
%TO.N,VCC*%
X31275000Y-22325000D03*
%TO.P,J1,A1*%
%TO.N,GND*%
X30425000Y-22325000D03*
%TD*%
D11*
%TO.P,SW_23_3,1*%
%TO.N,Net-(D14-Pad1)*%
X78290000Y-68260000D03*
%TO.P,SW_23_3,2*%
%TO.N,Net-(D22-Pad2)*%
X84740000Y-65720000D03*
%TD*%
%TO.P,SW_32_3,1*%
%TO.N,Net-(D25-Pad1)*%
X78290000Y-51860000D03*
%TO.P,SW_32_3,2*%
%TO.N,Net-(D21-Pad2)*%
X84740000Y-49320000D03*
%TD*%
D24*
%TO.N,GND*%
X21000000Y-18900000D03*
X260950000Y-19199994D03*
X227450000Y-19149990D03*
X193650000Y-19050000D03*
X160100000Y-19100000D03*
X126500000Y-19100000D03*
X50850000Y-19150000D03*
X280967731Y-71130187D03*
X261500000Y-29100000D03*
X31050001Y-26050001D03*
X99475000Y-18450000D03*
X282125000Y-30850000D03*
X43970000Y-18290000D03*
X45300000Y-99750000D03*
X48259502Y-91990502D03*
X48521944Y-96200000D03*
X40450000Y-67050000D03*
X40979509Y-99750004D03*
X45500000Y-78000000D03*
X53525000Y-101100000D03*
X51838881Y-100206713D03*
%TO.N,+5V*%
X256000000Y-24550000D03*
X280950000Y-73000000D03*
X45625000Y-24275000D03*
X107399994Y-27550000D03*
X154850000Y-24350000D03*
X188450000Y-24450000D03*
X222050000Y-24425000D03*
X121232904Y-24501074D03*
X107450157Y-29197990D03*
X121384468Y-29297990D03*
X255999987Y-28974987D03*
X154850000Y-29747990D03*
X258031976Y-30911969D03*
X279750000Y-31044522D03*
X67375000Y-27175000D03*
X67025000Y-30054020D03*
X42346856Y-28018979D03*
X221460000Y-29869992D03*
X140600018Y-29747990D03*
X188400000Y-29799998D03*
X45637500Y-84850000D03*
X46100000Y-90850000D03*
X35027010Y-59892811D03*
%TO.N,Net-(D1-Pad1)*%
X38801708Y-81072912D03*
X37554059Y-73575403D03*
%TO.N,pin1*%
X64500000Y-22900000D03*
X58250000Y-21700000D03*
X69200000Y-33400000D03*
X28130990Y-33400000D03*
X17600000Y-90500000D03*
X30800000Y-69100000D03*
X51727010Y-28808022D03*
X29078590Y-74034682D03*
%TO.N,Net-(D2-Pad1)*%
X20800000Y-27500000D03*
%TO.N,pin6*%
X24897999Y-34327001D03*
X17705078Y-91491806D03*
X30100000Y-68500000D03*
X28985136Y-73240147D03*
%TO.N,pin7*%
X74600000Y-81000000D03*
X94203603Y-50873380D03*
X92100000Y-80400000D03*
X48408028Y-99986862D03*
X57764398Y-96248874D03*
X71797660Y-90372990D03*
%TO.N,pin8*%
X283372999Y-67127001D03*
X50100000Y-100000000D03*
X58800000Y-97000000D03*
X110800000Y-89600000D03*
X110767010Y-67332990D03*
%TO.N,pin9*%
X16800000Y-92450000D03*
X17450000Y-82600000D03*
X56900004Y-74300000D03*
X57500000Y-82800000D03*
%TO.N,pin10*%
X87250000Y-106900000D03*
X89232990Y-100132990D03*
%TO.N,pin2*%
X133892990Y-48392990D03*
X133900000Y-21700000D03*
X261700000Y-48200002D03*
X265130000Y-21060000D03*
X56900000Y-96100000D03*
X94307010Y-48392990D03*
X74642900Y-80201139D03*
X92072990Y-79535480D03*
X47608153Y-100001704D03*
X70913288Y-89745988D03*
%TO.N,Net-(D11-Pad2)*%
X36100000Y-67700000D03*
X36100000Y-69450000D03*
X36637919Y-72658945D03*
%TO.N,pin3*%
X167400000Y-21800000D03*
X162505699Y-64905699D03*
X49300000Y-100000000D03*
X57800000Y-97100000D03*
X109771698Y-89741574D03*
X111000000Y-66200000D03*
%TO.N,pin4*%
X201000000Y-21900000D03*
X202750000Y-81250000D03*
X16561490Y-91263594D03*
X17327010Y-83583220D03*
%TO.N,pin5*%
X234700000Y-21700000D03*
X234907010Y-97592990D03*
X42600000Y-100500000D03*
X39500000Y-106900000D03*
X57700004Y-99700000D03*
%TO.N,Net-(D14-Pad1)*%
X61000000Y-47800000D03*
%TO.N,Net-(D25-Pad1)*%
X91367001Y-61732999D03*
X109617001Y-86087839D03*
%TO.N,Net-(D36-Pad1)*%
X112400000Y-79045994D03*
%TO.N,Net-(D47-Pad1)*%
X138200000Y-94800000D03*
%TO.N,Net-(D59-Pad1)*%
X180400000Y-35100000D03*
X180800000Y-33400000D03*
%TO.N,Net-(D70-Pad2)*%
X201800000Y-99300000D03*
%TO.N,Net-(D71-Pad1)*%
X222300000Y-51700000D03*
X222600000Y-49900000D03*
%TO.N,Net-(D83-Pad1)*%
X256700000Y-68000000D03*
X257200000Y-66300000D03*
%TO.N,RE6_1*%
X280300000Y-82600004D03*
X279699998Y-84300000D03*
%TO.N,RE1_1*%
X283000000Y-97800000D03*
X137103178Y-31127010D03*
X241606716Y-31127010D03*
X286500000Y-32425000D03*
X64973543Y-29409490D03*
%TO.N,VCC*%
X37900000Y-26200002D03*
X34475000Y-26025000D03*
%TO.N,AUDIO1*%
X18200000Y-28500008D03*
X16800000Y-63100000D03*
X25200002Y-63200000D03*
X50800000Y-95637958D03*
%TO.N,AUDIO2[Reserve]*%
X18214781Y-29412389D03*
X18400001Y-64000000D03*
X26056636Y-64100000D03*
X51699996Y-96264968D03*
%TO.N,Net-(JP_LED1-Pad3)*%
X257150000Y-24500000D03*
X280963265Y-72036735D03*
X257150000Y-29074999D03*
X258228444Y-30136456D03*
X280850000Y-30725000D03*
%TO.N,LED*%
X43800000Y-90100000D03*
X75500000Y-73400000D03*
X88000000Y-73000000D03*
X86000000Y-46500000D03*
X64900000Y-44300000D03*
X59500000Y-25300000D03*
%TO.N,Net-(JP_LED2-Pad2)*%
X47150000Y-24360000D03*
X115070028Y-30911969D03*
X115800000Y-21100000D03*
X47309490Y-27622490D03*
%TO.N,Net-(JP_LED2-Pad3)*%
X117550000Y-23200000D03*
X118075214Y-24826315D03*
X123950000Y-26950000D03*
X122175000Y-25174994D03*
%TO.N,Net-(L5-Pad2)*%
X97400000Y-22000000D03*
X99300000Y-20099988D03*
%TO.N,Net-(L6-Pad2)*%
X99438261Y-23561731D03*
X107300004Y-18699996D03*
%TO.N,Net-(L7-Pad2)*%
X107400003Y-22499997D03*
X99415510Y-27400002D03*
%TO.N,Net-(L8-Pad2)*%
X107375000Y-25675000D03*
X50775000Y-17500000D03*
X108074998Y-18125000D03*
X44550000Y-17599490D03*
%TO.N,Net-(L11-Pad2)*%
X156350000Y-24450000D03*
X156975000Y-26100000D03*
%TO.N,Net-(L12-Pad2)*%
X189950000Y-24500000D03*
X190500000Y-26125000D03*
%TO.N,Net-(L13-Pad2)*%
X223550000Y-24475000D03*
X223894136Y-26419136D03*
%TO.N,SDA_RE2A*%
X50100000Y-91000000D03*
X105100000Y-72800000D03*
X106200000Y-42500000D03*
X127100000Y-39600000D03*
X127455501Y-22855501D03*
X78623078Y-75396305D03*
%TO.N,SCL_RE2B*%
X49300000Y-91000000D03*
X106000000Y-73500000D03*
X107200000Y-43127010D03*
X126593364Y-40993364D03*
X76791111Y-75549922D03*
%TO.N,Net-(R4-Pad2)*%
X17200000Y-81800000D03*
X26650000Y-74850000D03*
X34400000Y-69100000D03*
X35400000Y-64645989D03*
%TO.N,D-*%
X36200000Y-28500000D03*
X41000000Y-97772990D03*
%TO.N,D+*%
X30827010Y-28437657D03*
X41000000Y-96972977D03*
%TO.N,RE1_A*%
X50900000Y-91000000D03*
X78700000Y-74600000D03*
X84600000Y-47100000D03*
X51100000Y-22400000D03*
X50414869Y-45128141D03*
X85528269Y-74522285D03*
%TO.N,RE1_B*%
X51700000Y-91000000D03*
X80100000Y-47300000D03*
X49600000Y-45100000D03*
X84900000Y-74027010D03*
X77559434Y-73907554D03*
%TO.N,RE3_B*%
X61100000Y-92827010D03*
X150514780Y-75392909D03*
X77328667Y-76591977D03*
%TO.N,RE3_A*%
X52600000Y-91300000D03*
X56500000Y-92300000D03*
X160100000Y-22500000D03*
X151114398Y-76018979D03*
X62209780Y-91946733D03*
X76524509Y-76803934D03*
%TO.N,RE4_B*%
X188700000Y-77200000D03*
X76242649Y-78057946D03*
X62063272Y-93756946D03*
%TO.N,RE4_A*%
X194000000Y-22900000D03*
X189670762Y-76310496D03*
X77562108Y-77845989D03*
X61935965Y-92967129D03*
%TO.N,RE5_A*%
X77500000Y-79100000D03*
X224400000Y-76700000D03*
X227400000Y-22400000D03*
X63574863Y-93038410D03*
%TO.N,RE5_B*%
X223000000Y-76900000D03*
X76494228Y-79311957D03*
X63814568Y-94214568D03*
%TO.N,RE6_A*%
X261700000Y-22100000D03*
X259161310Y-91425418D03*
%TO.N,RE6_B*%
X256000000Y-91900000D03*
X50900000Y-100000000D03*
X56100000Y-99100000D03*
%TD*%
D25*
%TO.N,GND*%
X29075000Y-17965000D02*
X29075000Y-21345000D01*
X37725000Y-17965000D02*
X37725000Y-21345000D01*
X227450000Y-21350000D02*
X227450000Y-19149990D01*
X225900000Y-22900000D02*
X227450000Y-21350000D01*
X225800000Y-22900000D02*
X225900000Y-22900000D01*
X193650000Y-21650000D02*
X192400000Y-22900000D01*
X192400000Y-22900000D02*
X192200000Y-22900000D01*
X193650000Y-19050000D02*
X193650000Y-21650000D01*
X158700000Y-22900000D02*
X158600000Y-22900000D01*
X160100000Y-21500000D02*
X158700000Y-22900000D01*
X160100000Y-19100000D02*
X160100000Y-21500000D01*
X49602902Y-22900000D02*
X49400000Y-22900000D01*
X50850000Y-21652902D02*
X49602902Y-22900000D01*
X50850000Y-19150000D02*
X50850000Y-21652902D01*
X260800000Y-24300000D02*
X259400000Y-22900000D01*
X260800000Y-28400000D02*
X260800000Y-24300000D01*
X261500000Y-29100000D02*
X260800000Y-28400000D01*
X30425000Y-25425000D02*
X31050001Y-26050001D01*
X30425000Y-22325000D02*
X30425000Y-25425000D01*
X239492068Y-19149990D02*
X227450000Y-19149990D01*
X240342568Y-18299490D02*
X239492068Y-19149990D01*
X260049496Y-18299490D02*
X240342568Y-18299490D01*
X260950000Y-19199994D02*
X260049496Y-18299490D01*
X201252902Y-19050000D02*
X193650000Y-19050000D01*
X202003412Y-18299490D02*
X201252902Y-19050000D01*
X226599500Y-18299490D02*
X202003412Y-18299490D01*
X227450000Y-19149990D02*
X226599500Y-18299490D01*
X167602902Y-19100000D02*
X160100000Y-19100000D01*
X168403412Y-18299490D02*
X167602902Y-19100000D01*
X192899490Y-18299490D02*
X168403412Y-18299490D01*
X193650000Y-19050000D02*
X192899490Y-18299490D01*
X143290510Y-18299490D02*
X142300000Y-19290000D01*
X159299490Y-18299490D02*
X143290510Y-18299490D01*
X160100000Y-19100000D02*
X159299490Y-18299490D01*
X126590501Y-19009499D02*
X126500000Y-19100000D01*
X142019499Y-19009499D02*
X126590501Y-19009499D01*
X142300000Y-19290000D02*
X142019499Y-19009499D01*
X125699490Y-18299490D02*
X109524490Y-18299490D01*
X126500000Y-19100000D02*
X125699490Y-18299490D01*
X100675510Y-17249490D02*
X99475000Y-18450000D01*
X108474490Y-17249490D02*
X100675510Y-17249490D01*
X109524490Y-18299490D02*
X108474490Y-17249490D01*
X282650000Y-31375000D02*
X282125000Y-30850000D01*
X280967731Y-71130187D02*
X280967731Y-40697151D01*
X280967731Y-40697151D02*
X282650000Y-39014883D01*
X282650000Y-39014883D02*
X282650000Y-31375000D01*
X43970000Y-18290000D02*
X49990000Y-18290000D01*
X49990000Y-18290000D02*
X50850000Y-19150000D01*
X260814213Y-19335781D02*
X260950000Y-19199994D01*
X259400000Y-22900000D02*
X260814213Y-22900000D01*
X260814213Y-22900000D02*
X260814213Y-19335781D01*
X126500000Y-19100000D02*
X126500000Y-21509498D01*
X126500000Y-21509498D02*
X125109498Y-22900000D01*
X125109498Y-22900000D02*
X125000000Y-22900000D01*
X21050000Y-18850000D02*
X21000000Y-18900000D01*
X23350000Y-18850000D02*
X21050000Y-18850000D01*
X48521944Y-92252944D02*
X48259502Y-91990502D01*
X48521944Y-96200000D02*
X48521944Y-92252944D01*
X37719499Y-64419499D02*
X40350000Y-67050000D01*
X37719499Y-53257359D02*
X37719499Y-64419499D01*
X41349490Y-48909718D02*
X41349490Y-49627368D01*
X41349490Y-49627368D02*
X37719499Y-53257359D01*
X40350000Y-67050000D02*
X40450000Y-67050000D01*
X48000000Y-42259208D02*
X41349490Y-48909718D01*
X48000000Y-24300000D02*
X48000000Y-42259208D01*
X49400000Y-22900000D02*
X48000000Y-24300000D01*
X45300000Y-99750000D02*
X40979513Y-99750000D01*
X40979513Y-99750000D02*
X40979509Y-99750004D01*
X40450000Y-67050000D02*
X37600000Y-69900000D01*
X43776858Y-78000000D02*
X45500000Y-78000000D01*
X37719499Y-71942641D02*
X43776858Y-78000000D01*
X37719499Y-70019499D02*
X37719499Y-71942641D01*
X37600000Y-69900000D02*
X37719499Y-70019499D01*
X53525000Y-101100000D02*
X52732168Y-101100000D01*
X52732168Y-101100000D02*
X51838881Y-100206713D01*
%TO.N,+5V*%
X107399994Y-27550000D02*
X107399994Y-29147827D01*
X107399994Y-29147827D02*
X107450157Y-29197990D01*
X121232904Y-24501074D02*
X121232904Y-29146426D01*
X121232904Y-29146426D02*
X121384468Y-29297990D01*
X256000000Y-24550000D02*
X256000000Y-28974974D01*
X256000000Y-28974974D02*
X255999987Y-28974987D01*
X154850000Y-24350000D02*
X154850000Y-29747990D01*
X255999987Y-28974987D02*
X257936969Y-30911969D01*
X257936969Y-30911969D02*
X258031976Y-30911969D01*
X281610501Y-32905023D02*
X279750000Y-31044522D01*
X279750000Y-71800000D02*
X279750000Y-40451141D01*
X280950000Y-73000000D02*
X279750000Y-71800000D01*
X279750000Y-40451141D02*
X281610501Y-38590641D01*
X281610501Y-38590641D02*
X281610501Y-32905023D01*
X67375000Y-27175000D02*
X67025000Y-27525000D01*
X67025000Y-27525000D02*
X67025000Y-30054020D01*
X222050000Y-29279992D02*
X221460000Y-29869992D01*
X222050000Y-24425000D02*
X222050000Y-29279992D01*
X142300000Y-21830000D02*
X140899983Y-23230017D01*
X140899983Y-29448025D02*
X140600018Y-29747990D01*
X140899983Y-23230017D02*
X140899983Y-29448025D01*
X188450000Y-29749998D02*
X188400000Y-29799998D01*
X188450000Y-24450000D02*
X188450000Y-29749998D01*
X46410501Y-90539499D02*
X46100000Y-90850000D01*
X46410501Y-85623001D02*
X46410501Y-90539499D01*
X45637500Y-84850000D02*
X46410501Y-85623001D01*
X45625000Y-24275000D02*
X45625000Y-26646944D01*
X45625000Y-26646944D02*
X44252965Y-28018979D01*
X44252965Y-28018979D02*
X42346856Y-28018979D01*
X38467510Y-49535640D02*
X38467510Y-51687676D01*
X39967511Y-34464359D02*
X37509499Y-36922371D01*
X38467510Y-51687676D02*
X37138488Y-53016697D01*
X37138488Y-53016697D02*
X37138488Y-57781333D01*
X37509499Y-36922371D02*
X37509499Y-48577629D01*
X37138488Y-57781333D02*
X35027010Y-59892811D01*
X42346856Y-28018979D02*
X39967511Y-30398324D01*
X37509499Y-48577629D02*
X38467510Y-49535640D01*
X39967511Y-30398324D02*
X39967511Y-34464359D01*
X45637500Y-84850000D02*
X45637500Y-80682315D01*
X37138488Y-72060161D02*
X37018989Y-71940662D01*
X37138488Y-72183303D02*
X37138488Y-72060161D01*
X37018989Y-61884790D02*
X35027010Y-59892811D01*
X45637500Y-80682315D02*
X37138488Y-72183303D01*
X37018989Y-71940662D02*
X37018989Y-61884790D01*
D26*
%TO.N,Net-(D1-Pad1)*%
X17052999Y-36643001D02*
X17052999Y-49422999D01*
X17052999Y-49422999D02*
X19490000Y-51860000D01*
X18236000Y-35460000D02*
X17052999Y-36643001D01*
X19490000Y-35460000D02*
X18236000Y-35460000D01*
X19967001Y-85137001D02*
X19490000Y-84660000D01*
X22410838Y-106140000D02*
X19967001Y-103696163D01*
X19967001Y-103696163D02*
X19967001Y-85137001D01*
X27110000Y-106140000D02*
X22410838Y-106140000D01*
X19490000Y-64062038D02*
X19490000Y-68260000D01*
X17052999Y-53043001D02*
X17052999Y-61625037D01*
X17052999Y-61625037D02*
X19490000Y-64062038D01*
X18236000Y-51860000D02*
X17052999Y-53043001D01*
X19490000Y-51860000D02*
X18236000Y-51860000D01*
X38801708Y-81072912D02*
X38801708Y-74823052D01*
X38801708Y-74823052D02*
X37554059Y-73575403D01*
%TO.N,pin1*%
X64500000Y-22900000D02*
X65812990Y-24212990D01*
X65812990Y-24212990D02*
X65812990Y-30012990D01*
X65812990Y-30012990D02*
X69200000Y-33400000D01*
X30271012Y-53099782D02*
X30271011Y-55700219D01*
X28800218Y-51628988D02*
X30271012Y-53099782D01*
X28800218Y-40727380D02*
X28800218Y-51628988D01*
X28629041Y-66104777D02*
X30800000Y-68275736D01*
X28629041Y-57342189D02*
X28629041Y-66104777D01*
X30800000Y-68275736D02*
X30800000Y-69100000D01*
X26632999Y-38560161D02*
X28800218Y-40727380D01*
X30271011Y-55700219D02*
X28629041Y-57342189D01*
X26632999Y-34897991D02*
X26632999Y-38560161D01*
X28130990Y-33400000D02*
X26632999Y-34897991D01*
X51727010Y-28222990D02*
X51727010Y-28808022D01*
X58250000Y-21700000D02*
X51727010Y-28222990D01*
X20405250Y-82708022D02*
X29078590Y-74034682D01*
X19730992Y-82708022D02*
X20405250Y-82708022D01*
X17053000Y-89953000D02*
X17053000Y-85386014D01*
X17600000Y-90500000D02*
X17053000Y-89953000D01*
X17053000Y-85386014D02*
X19730992Y-82708022D01*
%TO.N,Net-(D2-Pad1)*%
X23300000Y-27500000D02*
X23350000Y-27550000D01*
X20800000Y-27500000D02*
X23300000Y-27500000D01*
%TO.N,pin6*%
X28175030Y-57154132D02*
X28175030Y-66575030D01*
X28175030Y-66575030D02*
X30100000Y-68500000D01*
X24897999Y-34327001D02*
X26125000Y-35554002D01*
X26125000Y-38700000D02*
X28325000Y-40900000D01*
X29817001Y-53287839D02*
X29817001Y-55512161D01*
X26125000Y-35554002D02*
X26125000Y-38700000D01*
X28325000Y-51795838D02*
X29817001Y-53287839D01*
X29817001Y-55512161D02*
X28175030Y-57154132D01*
X28325000Y-40900000D02*
X28325000Y-51795838D01*
X16598990Y-85197956D02*
X19542935Y-82254011D01*
X28451589Y-73974956D02*
X28451589Y-73773694D01*
X20172534Y-82254011D02*
X28451589Y-73974956D01*
X17705078Y-91491806D02*
X16598989Y-90385717D01*
X28451589Y-73773694D02*
X28985136Y-73240147D01*
X19542935Y-82254011D02*
X20172534Y-82254011D01*
X16598989Y-90385717D02*
X16598990Y-85197956D01*
%TO.N,pin7*%
X92711734Y-79788266D02*
X92100000Y-80400000D01*
X92383000Y-69687838D02*
X92383000Y-78783000D01*
X92699999Y-69370839D02*
X92383000Y-69687838D01*
X92382999Y-55512161D02*
X92700000Y-55829162D01*
X92711734Y-79111734D02*
X92711734Y-79788266D01*
X92700000Y-55829162D02*
X92699999Y-69370839D01*
X92382999Y-53287839D02*
X92382999Y-55512161D01*
X94203603Y-50873380D02*
X93654011Y-51422971D01*
X93654011Y-51422971D02*
X93654010Y-52016828D01*
X92383000Y-78783000D02*
X92711734Y-79111734D01*
X93654010Y-52016828D02*
X92382999Y-53287839D01*
X50211943Y-97345989D02*
X56667283Y-97345989D01*
X48408028Y-99986862D02*
X48408028Y-99149904D01*
X48408028Y-99149904D02*
X50211943Y-97345989D01*
X56667283Y-97345989D02*
X57764398Y-96248874D01*
X71382999Y-88312161D02*
X71797660Y-88726822D01*
X71797660Y-88726822D02*
X71797660Y-90372990D01*
X74600000Y-81000000D02*
X74600000Y-82870838D01*
X74600000Y-82870838D02*
X71382999Y-86087839D01*
X71382999Y-86087839D02*
X71382999Y-88312161D01*
%TO.N,pin8*%
X281594733Y-68905267D02*
X283372999Y-67127001D01*
X280840000Y-74700000D02*
X281594733Y-73945267D01*
X281594733Y-73945267D02*
X281594733Y-68905267D01*
X50100000Y-100000000D02*
X50100000Y-99100000D01*
X50100000Y-99100000D02*
X50900000Y-98300000D01*
X57500000Y-98300000D02*
X58800000Y-97000000D01*
X50900000Y-98300000D02*
X57500000Y-98300000D01*
X111721021Y-85551817D02*
X111721021Y-73628183D01*
X110632999Y-86639839D02*
X111721021Y-85551817D01*
X110632999Y-89432999D02*
X110632999Y-86639839D01*
X111721021Y-73628183D02*
X109400000Y-71307162D01*
X110800000Y-89600000D02*
X110632999Y-89432999D01*
X109400000Y-71307162D02*
X109400000Y-68700000D01*
X109400000Y-68700000D02*
X110767010Y-67332990D01*
%TO.N,pin9*%
X15690966Y-91340966D02*
X15690966Y-84059034D01*
X16800000Y-92450000D02*
X15690966Y-91340966D01*
X17150000Y-82600000D02*
X17450000Y-82600000D01*
X15690966Y-84059034D02*
X17150000Y-82600000D01*
X56900004Y-74300000D02*
X57500000Y-74899996D01*
X57500000Y-74899996D02*
X57500000Y-82800000D01*
%TO.N,pin10*%
X89232990Y-101437848D02*
X89232990Y-100132990D01*
X87250000Y-103420838D02*
X89232990Y-101437848D01*
X87250000Y-106900000D02*
X87250000Y-103420838D01*
%TO.N,pin2*%
X134599999Y-47685981D02*
X134599999Y-22399999D01*
X133892990Y-48392990D02*
X134599999Y-47685981D01*
X134599999Y-22399999D02*
X133900000Y-21700000D01*
X264950001Y-21239999D02*
X265130000Y-21060000D01*
X264950001Y-44950001D02*
X264950001Y-21239999D01*
X261700000Y-48200002D02*
X264950001Y-44950001D01*
X92245989Y-69182781D02*
X91872991Y-69555779D01*
X91928989Y-53099781D02*
X91928988Y-55700218D01*
X91872991Y-69555779D02*
X91872991Y-79335481D01*
X94307010Y-48392990D02*
X93200000Y-49500000D01*
X93200000Y-49500000D02*
X93200000Y-51828770D01*
X91928988Y-55700218D02*
X92245989Y-56017219D01*
X92245989Y-56017219D02*
X92245989Y-69182781D01*
X93200000Y-51828770D02*
X91928989Y-53099781D01*
X91872991Y-79335481D02*
X92072990Y-79535480D01*
X47608153Y-99307711D02*
X47608153Y-100001704D01*
X56108022Y-96891978D02*
X50023885Y-96891979D01*
X56900000Y-96100000D02*
X56108022Y-96891978D01*
X50023885Y-96891979D02*
X47608153Y-99307711D01*
X70913288Y-85347702D02*
X70913288Y-89745988D01*
X73972998Y-82287992D02*
X70913288Y-85347702D01*
X74218636Y-80201139D02*
X73972998Y-80446777D01*
X74642900Y-80201139D02*
X74218636Y-80201139D01*
X73972998Y-80446777D02*
X73972998Y-82287992D01*
%TO.N,Net-(D11-Pad2)*%
X36100000Y-67700000D02*
X36100000Y-69450000D01*
X37460000Y-75880000D02*
X36637919Y-75057919D01*
X36637919Y-75057919D02*
X36637919Y-72658945D01*
%TO.N,pin3*%
X162767001Y-64644397D02*
X162505699Y-64905699D01*
X162767001Y-53093989D02*
X162767001Y-64644397D01*
X163947001Y-25252999D02*
X163947001Y-51913989D01*
X167400000Y-21800000D02*
X163947001Y-25252999D01*
X163947001Y-51913989D02*
X162767001Y-53093989D01*
X49300000Y-100000000D02*
X49300000Y-98900000D01*
X49300000Y-98900000D02*
X50400000Y-97800000D01*
X50400000Y-97800000D02*
X57100000Y-97800000D01*
X57100000Y-97800000D02*
X57800000Y-97100000D01*
X110071697Y-86559073D02*
X111267010Y-85363760D01*
X108945989Y-68254011D02*
X111000000Y-66200000D01*
X109771698Y-89741574D02*
X110071697Y-89441575D01*
X111267010Y-85363760D02*
X111267010Y-73816240D01*
X111267010Y-73816240D02*
X108945989Y-71495219D01*
X110071697Y-89441575D02*
X110071697Y-86559073D01*
X108945989Y-71495219D02*
X108945989Y-68254011D01*
%TO.N,pin4*%
X202692990Y-50678000D02*
X202692990Y-64362000D01*
X202692990Y-64362000D02*
X203667010Y-65336020D01*
X202750000Y-67020990D02*
X202750000Y-81250000D01*
X203667010Y-66103980D02*
X202750000Y-67020990D01*
X203667010Y-65336020D02*
X203667010Y-66103980D01*
X201852999Y-22752999D02*
X201852999Y-47122009D01*
X201852999Y-47122009D02*
X203667010Y-48936020D01*
X203667010Y-48936020D02*
X203667010Y-49703980D01*
X203667010Y-49703980D02*
X202692990Y-50678000D01*
X201000000Y-21900000D02*
X201852999Y-22752999D01*
X16144978Y-84765252D02*
X17327010Y-83583220D01*
X16144978Y-90847082D02*
X16144978Y-84765252D01*
X16561490Y-91263594D02*
X16144978Y-90847082D01*
%TO.N,pin5*%
X234907010Y-72622152D02*
X234907010Y-97592990D01*
X235617001Y-71912161D02*
X234907010Y-72622152D01*
X234612990Y-68683828D02*
X235617001Y-69687839D01*
X234612990Y-65336020D02*
X234612990Y-68683828D01*
X235617001Y-53287839D02*
X235617001Y-64332009D01*
X234612990Y-52283828D02*
X235617001Y-53287839D01*
X235617001Y-69687839D02*
X235617001Y-71912161D01*
X235617001Y-64332009D02*
X234612990Y-65336020D01*
X234612990Y-48936020D02*
X234612990Y-52283828D01*
X235227001Y-48322009D02*
X234612990Y-48936020D01*
X235227001Y-22227001D02*
X235227001Y-48322009D01*
X234700000Y-21700000D02*
X235227001Y-22227001D01*
X40229162Y-106900000D02*
X39500000Y-106900000D01*
X42600000Y-104529162D02*
X40229162Y-106900000D01*
X42600000Y-100500000D02*
X42600000Y-104529162D01*
X42600000Y-100500000D02*
X44000000Y-101900000D01*
X44000000Y-101900000D02*
X55075740Y-101900000D01*
X55075740Y-101900000D02*
X57275740Y-99700000D01*
X57275740Y-99700000D02*
X57700004Y-99700000D01*
%TO.N,Net-(D14-Pad1)*%
X70367001Y-93337001D02*
X70367001Y-100582999D01*
X70367001Y-100582999D02*
X69890000Y-101060000D01*
X69890000Y-92860000D02*
X70367001Y-93337001D01*
X53567001Y-51382999D02*
X53090000Y-51860000D01*
X53567001Y-35937001D02*
X53567001Y-51382999D01*
X53090000Y-35460000D02*
X53567001Y-35937001D01*
X61490000Y-48290000D02*
X61490000Y-51860000D01*
X61000000Y-47800000D02*
X61490000Y-48290000D01*
X63556000Y-106140000D02*
X62810000Y-106140000D01*
X68636000Y-101060000D02*
X63556000Y-106140000D01*
X69890000Y-101060000D02*
X68636000Y-101060000D01*
X84417001Y-73272999D02*
X78290000Y-79400000D01*
X84417001Y-69687839D02*
X84417001Y-73272999D01*
X78290000Y-79400000D02*
X78290000Y-84660000D01*
X82989162Y-68260000D02*
X84417001Y-69687839D01*
X82989162Y-65759848D02*
X82989162Y-68260000D01*
X84417001Y-64332009D02*
X82989162Y-65759848D01*
X61490000Y-51860000D02*
X61490000Y-51006000D01*
X82062152Y-50932990D02*
X84417001Y-53287839D01*
X61490000Y-51006000D02*
X61563010Y-50932990D01*
X84417001Y-53287839D02*
X84417001Y-64332009D01*
X78330000Y-68300000D02*
X82949162Y-68300000D01*
X82949162Y-68300000D02*
X82989162Y-68260000D01*
X78290000Y-68260000D02*
X78330000Y-68300000D01*
X62417010Y-50932990D02*
X82062152Y-50932990D01*
X61490000Y-51860000D02*
X62417010Y-50932990D01*
X70367001Y-89364313D02*
X70367001Y-85137001D01*
X70367001Y-85137001D02*
X69890000Y-84660000D01*
X69890000Y-92860000D02*
X69890000Y-89841314D01*
X69890000Y-89841314D02*
X70367001Y-89364313D01*
%TO.N,Net-(D24-Pad2)*%
X76340000Y-90320000D02*
X76340000Y-98520000D01*
%TO.N,Net-(D25-Pad1)*%
X91367001Y-67782999D02*
X90890000Y-68260000D01*
X90890000Y-51860000D02*
X91367001Y-52337001D01*
X91367001Y-61732999D02*
X91367001Y-67782999D01*
X91367001Y-52337001D02*
X91367001Y-61732999D01*
X90890000Y-50747932D02*
X90890000Y-51860000D01*
X88182999Y-36952999D02*
X88182999Y-48040931D01*
X86690000Y-35460000D02*
X88182999Y-36952999D01*
X88182999Y-48040931D02*
X90890000Y-50747932D01*
X93836000Y-84660000D02*
X95090000Y-84660000D01*
X90890000Y-68260000D02*
X91367001Y-68737001D01*
X91367001Y-82191001D02*
X93836000Y-84660000D01*
X91367001Y-68737001D02*
X91367001Y-82191001D01*
X105590000Y-92339162D02*
X105590000Y-101060000D01*
X109617001Y-86087839D02*
X109617001Y-88312161D01*
X109617001Y-88312161D02*
X105590000Y-92339162D01*
%TO.N,Net-(D36-Pad1)*%
X112367001Y-67782999D02*
X111890000Y-68260000D01*
X112367001Y-52337001D02*
X112367001Y-67782999D01*
X111890000Y-51860000D02*
X112367001Y-52337001D01*
X120290000Y-75406000D02*
X120290000Y-84660000D01*
X127436000Y-68260000D02*
X120290000Y-75406000D01*
X128690000Y-68260000D02*
X127436000Y-68260000D01*
X120767001Y-85137001D02*
X120767001Y-100582999D01*
X120767001Y-100582999D02*
X120290000Y-101060000D01*
X120290000Y-84660000D02*
X120767001Y-85137001D01*
X111890000Y-45890000D02*
X111890000Y-51860000D01*
X104400000Y-38400000D02*
X111890000Y-45890000D01*
X104400000Y-36370000D02*
X104400000Y-38400000D01*
X103490000Y-35460000D02*
X104400000Y-36370000D01*
X111890000Y-69114000D02*
X112400000Y-69624000D01*
X111890000Y-68260000D02*
X111890000Y-69114000D01*
X112400000Y-69624000D02*
X112400000Y-79045994D01*
%TO.N,Net-(D47-Pad1)*%
X137090000Y-75406000D02*
X137090000Y-84660000D01*
X144236000Y-68260000D02*
X137090000Y-75406000D01*
X145490000Y-68260000D02*
X144236000Y-68260000D01*
X154367001Y-85137001D02*
X154367001Y-100582999D01*
X154367001Y-100582999D02*
X153890000Y-101060000D01*
X153890000Y-84660000D02*
X154367001Y-85137001D01*
X145490000Y-42606000D02*
X145490000Y-51860000D01*
X152636000Y-35460000D02*
X145490000Y-42606000D01*
X153890000Y-35460000D02*
X152636000Y-35460000D01*
X147227130Y-66522870D02*
X145490000Y-68260000D01*
X147227130Y-62529015D02*
X147227130Y-66522870D01*
X145967001Y-61268886D02*
X147227130Y-62529015D01*
X145967001Y-52337001D02*
X145967001Y-61268886D01*
X145490000Y-51860000D02*
X145967001Y-52337001D01*
X138200000Y-85770000D02*
X138200000Y-94800000D01*
X137090000Y-84660000D02*
X138200000Y-85770000D01*
%TO.N,Net-(D59-Pad1)*%
X170690000Y-75406000D02*
X170690000Y-84660000D01*
X177836000Y-68260000D02*
X170690000Y-75406000D01*
X179090000Y-68260000D02*
X177836000Y-68260000D01*
X171167001Y-100582999D02*
X170690000Y-101060000D01*
X171167001Y-85137001D02*
X171167001Y-100582999D01*
X170690000Y-84660000D02*
X171167001Y-85137001D01*
X187967001Y-92382999D02*
X187490000Y-92860000D01*
X187967001Y-85137001D02*
X187967001Y-92382999D01*
X187490000Y-84660000D02*
X187967001Y-85137001D01*
X187967001Y-100582999D02*
X187490000Y-101060000D01*
X187967001Y-93337001D02*
X187967001Y-100582999D01*
X187490000Y-92860000D02*
X187967001Y-93337001D01*
X196367001Y-67782999D02*
X195890000Y-68260000D01*
X196367001Y-52337001D02*
X196367001Y-67782999D01*
X195890000Y-51860000D02*
X196367001Y-52337001D01*
X179567001Y-67782999D02*
X179090000Y-68260000D01*
X179567001Y-52337001D02*
X179567001Y-67782999D01*
X179090000Y-51860000D02*
X179567001Y-52337001D01*
X171167001Y-43937001D02*
X179090000Y-51860000D01*
X171167001Y-35937001D02*
X171167001Y-43937001D01*
X170690000Y-35460000D02*
X171167001Y-35937001D01*
X180400000Y-33800000D02*
X180800000Y-33400000D01*
X180400000Y-35100000D02*
X180400000Y-33800000D01*
%TO.N,Net-(D64-Pad2)*%
X193940000Y-90320000D02*
X193940000Y-98520000D01*
%TO.N,Net-(D70-Pad2)*%
X204206000Y-108680000D02*
X201800000Y-106274000D01*
X205460000Y-108680000D02*
X204206000Y-108680000D01*
X201800000Y-106274000D02*
X201800000Y-99300000D01*
%TO.N,Net-(D71-Pad1)*%
X219912990Y-99882990D02*
X221090000Y-101060000D01*
X219912990Y-98136020D02*
X219912990Y-99882990D01*
X221567001Y-96482009D02*
X219912990Y-98136020D01*
X221567001Y-85137001D02*
X221567001Y-96482009D01*
X221090000Y-84660000D02*
X221567001Y-85137001D01*
X213167001Y-76737001D02*
X221090000Y-84660000D01*
X213167001Y-68737001D02*
X213167001Y-76737001D01*
X212690000Y-68260000D02*
X213167001Y-68737001D01*
X213167001Y-67782999D02*
X212690000Y-68260000D01*
X213167001Y-52337001D02*
X213167001Y-67782999D01*
X212690000Y-51860000D02*
X213167001Y-52337001D01*
X204767001Y-43937001D02*
X212690000Y-51860000D01*
X204767001Y-35937001D02*
X204767001Y-43937001D01*
X204290000Y-35460000D02*
X204767001Y-35937001D01*
X222300000Y-50200000D02*
X222600000Y-49900000D01*
X222300000Y-51700000D02*
X222300000Y-50200000D01*
%TO.N,Net-(D83-Pad1)*%
X236712990Y-98136020D02*
X236712990Y-99882990D01*
X238367001Y-85137001D02*
X238367001Y-96482009D01*
X236712990Y-99882990D02*
X237890000Y-101060000D01*
X238367001Y-96482009D02*
X236712990Y-98136020D01*
X237890000Y-84660000D02*
X238367001Y-85137001D01*
X246767001Y-76737001D02*
X254690000Y-84660000D01*
X246767001Y-68737001D02*
X246767001Y-76737001D01*
X246290000Y-68260000D02*
X246767001Y-68737001D01*
X256700000Y-66800000D02*
X257200000Y-66300000D01*
X256700000Y-68000000D02*
X256700000Y-66800000D01*
X246767001Y-67782999D02*
X246290000Y-68260000D01*
X246767001Y-52337001D02*
X246767001Y-67782999D01*
X246290000Y-51860000D02*
X246767001Y-52337001D01*
X239200000Y-44770000D02*
X246290000Y-51860000D01*
X239200000Y-36770000D02*
X239200000Y-44770000D01*
X237890000Y-35460000D02*
X239200000Y-36770000D01*
%TO.N,RE6_1*%
X263567001Y-67782999D02*
X263090000Y-68260000D01*
X263567001Y-52337001D02*
X263567001Y-67782999D01*
X263090000Y-51860000D02*
X263567001Y-52337001D01*
X278300000Y-71192838D02*
X278300000Y-74700000D01*
X275367162Y-68260000D02*
X278300000Y-71192838D01*
X267290000Y-68260000D02*
X275367162Y-68260000D01*
X271967001Y-85137001D02*
X271967001Y-100582999D01*
X271967001Y-100582999D02*
X271490000Y-101060000D01*
X271490000Y-84660000D02*
X271967001Y-85137001D01*
X273900000Y-33050000D02*
X271490000Y-35460000D01*
X273900000Y-25400000D02*
X273900000Y-33050000D01*
X267290000Y-38406000D02*
X267290000Y-51860000D01*
X270236000Y-35460000D02*
X267290000Y-38406000D01*
X271490000Y-35460000D02*
X270236000Y-35460000D01*
X278300000Y-74700000D02*
X278300000Y-80600004D01*
X278300000Y-80600004D02*
X280300000Y-82600004D01*
X279700000Y-84300000D02*
X279699998Y-84300000D01*
X280000000Y-84000000D02*
X279700000Y-84300000D01*
X280000000Y-82900004D02*
X280000000Y-84000000D01*
X280300000Y-82600004D02*
X280000000Y-82900004D01*
%TO.N,RE1_1*%
X285582999Y-69752999D02*
X284090000Y-68260000D01*
X285582999Y-81952999D02*
X285582999Y-69752999D01*
X288290000Y-84660000D02*
X285582999Y-81952999D01*
X288767001Y-35937001D02*
X288767001Y-51382999D01*
X288767001Y-51382999D02*
X288290000Y-51860000D01*
X288290000Y-35460000D02*
X288767001Y-35937001D01*
X284567001Y-67782999D02*
X284090000Y-68260000D01*
X284567001Y-52337001D02*
X284567001Y-67782999D01*
X284090000Y-51860000D02*
X284567001Y-52337001D01*
X283000000Y-88696000D02*
X283000000Y-97800000D01*
X287036000Y-84660000D02*
X283000000Y-88696000D01*
X288290000Y-84660000D02*
X287036000Y-84660000D01*
X139500000Y-25400000D02*
X139500000Y-28730188D01*
X139500000Y-28730188D02*
X137103178Y-31127010D01*
X240300000Y-29820294D02*
X241606716Y-31127010D01*
X240300000Y-25400000D02*
X240300000Y-29820294D01*
X288290000Y-34215000D02*
X286500000Y-32425000D01*
X288290000Y-35460000D02*
X288290000Y-34215000D01*
X63900000Y-28335947D02*
X64973543Y-29409490D01*
X63900000Y-25400000D02*
X63900000Y-28335947D01*
%TO.N,Net-(D102-Pad2)*%
X32975000Y-22210038D02*
X32975000Y-22325000D01*
X33825000Y-21360038D02*
X32975000Y-22210038D01*
X33825000Y-20975000D02*
X33825000Y-21360038D01*
D25*
%TO.N,VCC*%
X35525000Y-20975000D02*
X35525000Y-22325000D01*
X35525000Y-20515381D02*
X35525000Y-20975000D01*
X35269118Y-20259499D02*
X35525000Y-20515381D01*
X31275000Y-20515381D02*
X31530882Y-20259499D01*
X31530882Y-20259499D02*
X35269118Y-20259499D01*
X31275000Y-20975000D02*
X31275000Y-20515381D01*
X31275000Y-20975000D02*
X31275000Y-22325000D01*
X37900000Y-24912500D02*
X37900000Y-26200002D01*
X35525000Y-22537500D02*
X37900000Y-24912500D01*
X35525000Y-22325000D02*
X35525000Y-22537500D01*
X35525000Y-24975000D02*
X34475000Y-26025000D01*
X35525000Y-22325000D02*
X35525000Y-24975000D01*
D26*
%TO.N,AUDIO1*%
X16100000Y-62400000D02*
X16800000Y-63100000D01*
X16100000Y-30600008D02*
X16100000Y-62400000D01*
X18200000Y-28500008D02*
X16100000Y-30600008D01*
X20982999Y-86109069D02*
X20982999Y-88265931D01*
X26127962Y-63200000D02*
X27721021Y-64793059D01*
X30292961Y-69620923D02*
X30292961Y-75442137D01*
X47231732Y-98400000D02*
X49993774Y-95637958D01*
X27721021Y-64793059D02*
X27721021Y-67048983D01*
X21271021Y-84464077D02*
X21271020Y-85821048D01*
X27721021Y-67048983D02*
X30292961Y-69620923D01*
X30292961Y-75442137D02*
X21271021Y-84464077D01*
X49993774Y-95637958D02*
X50800000Y-95637958D01*
X20982999Y-88265931D02*
X31117068Y-98400000D01*
X31117068Y-98400000D02*
X47231732Y-98400000D01*
X21271020Y-85821048D02*
X20982999Y-86109069D01*
X25200002Y-63200000D02*
X26127962Y-63200000D01*
%TO.N,AUDIO2[Reserve]*%
X16581986Y-31045184D02*
X16581986Y-61954024D01*
X18214781Y-29412389D02*
X16581986Y-31045184D01*
X16581986Y-61954024D02*
X18400001Y-63772039D01*
X18400001Y-63772039D02*
X18400001Y-64000000D01*
X26056636Y-64100000D02*
X27267010Y-65310374D01*
X30979011Y-98904011D02*
X47369785Y-98904011D01*
X27267010Y-65310374D02*
X27267010Y-67237040D01*
X27267010Y-67237040D02*
X29838950Y-69808980D01*
X20817010Y-85632990D02*
X20528989Y-85921011D01*
X29838950Y-74603705D02*
X20817010Y-83625645D01*
X29838950Y-69808980D02*
X29838950Y-74603705D01*
X20528989Y-85921011D02*
X20528988Y-88453988D01*
X50008828Y-96264968D02*
X51699996Y-96264968D01*
X47369785Y-98904011D02*
X50008828Y-96264968D01*
X20817010Y-83625645D02*
X20817010Y-85632990D01*
X20528988Y-88453988D02*
X30979011Y-98904011D01*
%TO.N,Net-(JP_LED1-Pad3)*%
X257150000Y-24500000D02*
X257150000Y-29074999D01*
X258211457Y-30136456D02*
X258228444Y-30136456D01*
X257150000Y-29074999D02*
X258211457Y-30136456D01*
X280267511Y-40665501D02*
X282132489Y-38800523D01*
X282132489Y-32007489D02*
X280850000Y-30725000D01*
X280267511Y-71340981D02*
X280267511Y-40665501D01*
X280963265Y-72036735D02*
X280267511Y-71340981D01*
X282132489Y-38800523D02*
X282132489Y-32007489D01*
%TO.N,LED*%
X72500000Y-73400000D02*
X75500000Y-73400000D01*
X59217001Y-86682999D02*
X72500000Y-73400000D01*
X59217001Y-88282999D02*
X59217001Y-86682999D01*
X57982999Y-89517001D02*
X59217001Y-88282999D01*
X49382999Y-89517001D02*
X57982999Y-89517001D01*
X47400000Y-91500000D02*
X49382999Y-89517001D01*
X45200000Y-91500000D02*
X47400000Y-91500000D01*
X43800000Y-90100000D02*
X45200000Y-91500000D01*
X88347001Y-72652999D02*
X88347001Y-48847001D01*
X88000000Y-73000000D02*
X88347001Y-72652999D01*
X88347001Y-48847001D02*
X86000000Y-46500000D01*
X64900000Y-44300000D02*
X64900000Y-31700000D01*
X59500000Y-26300000D02*
X59500000Y-25300000D01*
X64900000Y-31700000D02*
X59500000Y-26300000D01*
%TO.N,Net-(JP_LED2-Pad2)*%
X115070028Y-21829972D02*
X115800000Y-21100000D01*
X115070028Y-30911969D02*
X115070028Y-21829972D01*
X47150000Y-27463000D02*
X47309490Y-27622490D01*
X47150000Y-24360000D02*
X47150000Y-27463000D01*
%TO.N,Net-(JP_LED2-Pad3)*%
X117550000Y-23200000D02*
X117550000Y-24301101D01*
X117550000Y-24301101D02*
X118075214Y-24826315D01*
X123950000Y-26950000D02*
X122175000Y-25175000D01*
X122175000Y-25175000D02*
X122175000Y-25174994D01*
%TO.N,Net-(L5-Pad2)*%
X97400000Y-22000000D02*
X99300000Y-20100000D01*
X99300000Y-20100000D02*
X99300000Y-20099988D01*
%TO.N,Net-(L6-Pad2)*%
X107300004Y-19124260D02*
X107300004Y-18699996D01*
X105311274Y-21112990D02*
X107300004Y-19124260D01*
X99438261Y-23561731D02*
X99438261Y-23114425D01*
X99438261Y-23114425D02*
X101439696Y-21112990D01*
X101439696Y-21112990D02*
X105311274Y-21112990D01*
%TO.N,Net-(L7-Pad2)*%
X107400003Y-22924261D02*
X105411274Y-24912990D01*
X105411274Y-24912990D02*
X101403258Y-24912990D01*
X101403258Y-24912990D02*
X99415510Y-26900738D01*
X107400003Y-22499997D02*
X107400003Y-22924261D01*
X99415510Y-26900738D02*
X99415510Y-27400002D01*
%TO.N,Net-(L8-Pad2)*%
X108074998Y-24975002D02*
X108074998Y-18125000D01*
X107375000Y-25675000D02*
X108074998Y-24975002D01*
X44649490Y-17500000D02*
X44550000Y-17599490D01*
X50775000Y-17500000D02*
X44649490Y-17500000D01*
%TO.N,Net-(L11-Pad2)*%
X156350000Y-25475000D02*
X156975000Y-26100000D01*
X156350000Y-24450000D02*
X156350000Y-25475000D01*
%TO.N,Net-(L12-Pad2)*%
X189950000Y-25575000D02*
X190500000Y-26125000D01*
X189950000Y-24500000D02*
X189950000Y-25575000D01*
%TO.N,Net-(L13-Pad2)*%
X223550000Y-26075000D02*
X223894136Y-26419136D01*
X223550000Y-24475000D02*
X223550000Y-26075000D01*
%TO.N,SDA_RE2A*%
X106200000Y-71700000D02*
X106200000Y-42500000D01*
X105100000Y-72800000D02*
X106200000Y-71700000D01*
X128067010Y-23467010D02*
X127455501Y-22855501D01*
X128067010Y-33303980D02*
X128067010Y-23467010D01*
X127100000Y-34270990D02*
X128067010Y-33303980D01*
X127100000Y-39600000D02*
X127100000Y-34270990D01*
X76490149Y-74922920D02*
X77092062Y-74922920D01*
X50100000Y-91424264D02*
X52416778Y-93741042D01*
X76164109Y-75248960D02*
X76490149Y-74922920D01*
X64262034Y-83564170D02*
X72577244Y-75248960D01*
X61532704Y-90411709D02*
X61762086Y-90411709D01*
X52416778Y-93741042D02*
X58203372Y-93741041D01*
X77565447Y-75396305D02*
X78623078Y-75396305D01*
X58203372Y-93741041D02*
X61532704Y-90411709D01*
X77092062Y-74922920D02*
X77565447Y-75396305D01*
X64262033Y-87911762D02*
X64262034Y-83564170D01*
X72577244Y-75248960D02*
X76164109Y-75248960D01*
X61762086Y-90411709D02*
X64262033Y-87911762D01*
X50100000Y-91000000D02*
X50100000Y-91424264D01*
%TO.N,SCL_RE2B*%
X125000000Y-32890990D02*
X126472999Y-34363989D01*
X107200000Y-72300000D02*
X107200000Y-43127010D01*
X106000000Y-73500000D02*
X107200000Y-72300000D01*
X125000000Y-25400000D02*
X125000000Y-32890990D01*
X126500000Y-40900000D02*
X126593364Y-40993364D01*
X126472999Y-40872999D02*
X126500000Y-40900000D01*
X126472999Y-34363989D02*
X126472999Y-40872999D01*
X61950144Y-90865720D02*
X64716044Y-88099819D01*
X58391428Y-94195053D02*
X61720761Y-90865720D01*
X64716044Y-88099819D02*
X64716044Y-83752228D01*
X76618101Y-75722932D02*
X76791111Y-75549922D01*
X52070789Y-94195053D02*
X58391428Y-94195053D01*
X61720761Y-90865720D02*
X61950144Y-90865720D01*
X49300000Y-91000000D02*
X49300000Y-91424264D01*
X49300000Y-91424264D02*
X52070789Y-94195053D01*
X64716044Y-83752228D02*
X72745340Y-75722932D01*
X72745340Y-75722932D02*
X76618101Y-75722932D01*
%TO.N,Net-(R4-Pad2)*%
X17200000Y-81800000D02*
X19700000Y-81800000D01*
X19700000Y-81800000D02*
X26650000Y-74850000D01*
X35400000Y-68100000D02*
X35400000Y-64645989D01*
X34400000Y-69100000D02*
X35400000Y-68100000D01*
%TO.N,D-*%
X41424264Y-97772990D02*
X41000000Y-97772990D01*
X42871012Y-96326242D02*
X41424264Y-97772990D01*
X42871012Y-86028944D02*
X42871012Y-96326242D01*
X33747001Y-76904933D02*
X42871012Y-86028944D01*
X33747001Y-53839839D02*
X33747001Y-76904933D01*
X33700000Y-31000000D02*
X33700000Y-53792838D01*
X33700000Y-53792838D02*
X33747001Y-53839839D01*
X36200000Y-28500000D02*
X33700000Y-31000000D01*
%TO.N,D+*%
X38483971Y-82283971D02*
X38483971Y-82288711D01*
X42417001Y-86221741D02*
X42417001Y-95555976D01*
X30832999Y-74632999D02*
X38483971Y-82283971D01*
X31500000Y-69627964D02*
X30832999Y-70294965D01*
X31500000Y-64726942D02*
X31500000Y-69627964D01*
X30832999Y-50980059D02*
X30832999Y-64059941D01*
X31921021Y-29531668D02*
X31921021Y-49892037D01*
X30827010Y-28437657D02*
X31921021Y-29531668D01*
X30832999Y-70294965D02*
X30832999Y-74632999D01*
X38483971Y-82288711D02*
X42417001Y-86221741D01*
X42417001Y-95555976D02*
X41000000Y-96972977D01*
X31921021Y-49892037D02*
X30832999Y-50980059D01*
X30832999Y-64059941D02*
X31500000Y-64726942D01*
%TO.N,RE1_A*%
X51100000Y-22400000D02*
X51100000Y-36992838D01*
X51100000Y-36992838D02*
X50414869Y-37677969D01*
X50414869Y-37677969D02*
X50414869Y-45128141D01*
X86067010Y-49703980D02*
X85432999Y-50337991D01*
X84600000Y-47100000D02*
X86067010Y-48567010D01*
X85528269Y-71386201D02*
X85528269Y-74522285D01*
X86067010Y-48567010D02*
X86067010Y-49703980D01*
X86521020Y-65147962D02*
X86521021Y-66292037D01*
X86521021Y-66292037D02*
X85354011Y-67459047D01*
X85354011Y-71211943D02*
X85528269Y-71386201D01*
X85432999Y-50337991D02*
X85432999Y-64059941D01*
X85432999Y-64059941D02*
X86521020Y-65147962D01*
X85354011Y-67459047D02*
X85354011Y-71211943D01*
X77280131Y-74468921D02*
X77411210Y-74600000D01*
X77411210Y-74600000D02*
X78700000Y-74600000D01*
X76302092Y-74468920D02*
X77280131Y-74468921D01*
X63808022Y-83376114D02*
X72530124Y-74654012D01*
X72530124Y-74654012D02*
X76117000Y-74654012D01*
X52762767Y-93287031D02*
X58015314Y-93287031D01*
X61574030Y-89957697D02*
X63808022Y-87723705D01*
X61344647Y-89957698D02*
X61574030Y-89957697D01*
X50900000Y-91424264D02*
X52762767Y-93287031D01*
X58015314Y-93287031D02*
X61344647Y-89957698D01*
X50900000Y-91000000D02*
X50900000Y-91424264D01*
X63808022Y-87723705D02*
X63808022Y-83376114D01*
X76117000Y-74654012D02*
X76302092Y-74468920D01*
%TO.N,RE1_B*%
X49600000Y-25600000D02*
X49400000Y-25400000D01*
X49600000Y-45100000D02*
X49600000Y-25600000D01*
X84900000Y-67270990D02*
X84900000Y-74027010D01*
X80100000Y-47300000D02*
X80524264Y-47300000D01*
X80524264Y-47300000D02*
X84900000Y-51675736D01*
X84900000Y-51675736D02*
X84900000Y-64169010D01*
X86067010Y-65336020D02*
X86067010Y-66103980D01*
X86067010Y-66103980D02*
X84900000Y-67270990D01*
X84900000Y-64169010D02*
X86067010Y-65336020D01*
X76101934Y-74027010D02*
X76221390Y-73907554D01*
X63354011Y-87535648D02*
X63354012Y-83188056D01*
X61156590Y-89503687D02*
X61385972Y-89503687D01*
X63354012Y-83188056D02*
X72515058Y-74027010D01*
X72515058Y-74027010D02*
X76101934Y-74027010D01*
X52728988Y-89971012D02*
X60689265Y-89971012D01*
X60689265Y-89971012D02*
X61156590Y-89503687D01*
X51700000Y-91000000D02*
X52728988Y-89971012D01*
X61385972Y-89503687D02*
X63354011Y-87535648D01*
X76221390Y-73907554D02*
X77559434Y-73907554D01*
%TO.N,RE3_B*%
X158600000Y-25400000D02*
X157600001Y-26399999D01*
X151998042Y-75092910D02*
X150814779Y-75092910D01*
X155547001Y-39918231D02*
X155547001Y-71543951D01*
X157600001Y-34157931D02*
X154928988Y-36828944D01*
X150814779Y-75092910D02*
X150514780Y-75392909D01*
X157600001Y-26399999D02*
X157600001Y-34157931D01*
X154928988Y-39300218D02*
X155547001Y-39918231D01*
X154928988Y-36828944D02*
X154928988Y-39300218D01*
X155547001Y-71543951D02*
X151998042Y-75092910D01*
X72933408Y-76176932D02*
X76913622Y-76176932D01*
X65170055Y-88332691D02*
X65170056Y-83940284D01*
X62183015Y-91319731D02*
X65170055Y-88332691D01*
X61100000Y-92827010D02*
X61100000Y-92128549D01*
X76913622Y-76176932D02*
X77328667Y-76591977D01*
X65170056Y-83940284D02*
X72933408Y-76176932D01*
X61908818Y-91319731D02*
X62183015Y-91319731D01*
X61100000Y-92128549D02*
X61908818Y-91319731D01*
%TO.N,RE3_A*%
X52600000Y-91300000D02*
X53700000Y-92400000D01*
X56400000Y-92400000D02*
X56500000Y-92300000D01*
X53700000Y-92400000D02*
X56400000Y-92400000D01*
X160100000Y-22500000D02*
X160100000Y-31449010D01*
X156001012Y-39730174D02*
X156001012Y-71798988D01*
X155382999Y-39112161D02*
X156001012Y-39730174D01*
X156001012Y-71798988D02*
X151781021Y-76018979D01*
X155382999Y-37017001D02*
X155382999Y-39112161D01*
X160100000Y-31449010D02*
X159012990Y-32536020D01*
X159012990Y-33387010D02*
X155382999Y-37017001D01*
X151781021Y-76018979D02*
X151114398Y-76018979D01*
X159012990Y-32536020D02*
X159012990Y-33387010D01*
X72948474Y-76803934D02*
X76524509Y-76803934D01*
X62209780Y-91946733D02*
X65624066Y-88532447D01*
X65624066Y-84128342D02*
X72948474Y-76803934D01*
X65624066Y-88532447D02*
X65624066Y-84128342D01*
%TO.N,RE4_B*%
X195267010Y-33303980D02*
X195267010Y-28467010D01*
X195267010Y-28467010D02*
X192200000Y-25400000D01*
X193617001Y-34953989D02*
X195267010Y-33303980D01*
X189147001Y-43582161D02*
X193617001Y-39112161D01*
X188700000Y-71807162D02*
X189147001Y-71360161D01*
X188700000Y-77200000D02*
X188700000Y-71807162D01*
X189147001Y-71360161D02*
X189147001Y-43582161D01*
X193617001Y-39112161D02*
X193617001Y-34953989D01*
X62947861Y-92872357D02*
X62063272Y-93756946D01*
X66532088Y-84504456D02*
X66532088Y-89153221D01*
X76242649Y-78057946D02*
X72978598Y-78057946D01*
X72978598Y-78057946D02*
X66532088Y-84504456D01*
X62947861Y-92737448D02*
X62947861Y-92872357D01*
X66532088Y-89153221D02*
X62947861Y-92737448D01*
%TO.N,RE4_A*%
X194071012Y-35142046D02*
X194071012Y-40971056D01*
X195721021Y-33492037D02*
X194071012Y-35142046D01*
X194071012Y-40971056D02*
X189670762Y-45371306D01*
X194000000Y-22900000D02*
X195721021Y-24621021D01*
X195721021Y-24621021D02*
X195721021Y-33492037D01*
X189670762Y-45371306D02*
X189670762Y-76310496D01*
X66078077Y-88965164D02*
X62076112Y-92967129D01*
X66078078Y-84316398D02*
X66078077Y-88965164D01*
X77147063Y-77430944D02*
X72963532Y-77430944D01*
X72963532Y-77430944D02*
X66078078Y-84316398D01*
X62076112Y-92967129D02*
X61935965Y-92967129D01*
X77562108Y-77845989D02*
X77147063Y-77430944D01*
%TO.N,RE5_A*%
X228162990Y-37509848D02*
X228867010Y-36805828D01*
X228162990Y-52729848D02*
X228162990Y-37509848D01*
X228867010Y-36805828D02*
X228867010Y-23867010D01*
X224400000Y-56492838D02*
X228162990Y-52729848D01*
X224400000Y-76700000D02*
X224400000Y-56492838D01*
X228867010Y-23867010D02*
X227400000Y-22400000D01*
X77084956Y-78684956D02*
X72993656Y-78684956D01*
X66986099Y-84692513D02*
X66986099Y-89627174D01*
X72993656Y-78684956D02*
X66986099Y-84692513D01*
X77500000Y-79100000D02*
X77084956Y-78684956D01*
X66986099Y-89627174D02*
X63574863Y-93038410D01*
%TO.N,RE5_B*%
X227217001Y-34307991D02*
X225800000Y-32890990D01*
X227217001Y-53033769D02*
X227217001Y-34307991D01*
X225800000Y-32890990D02*
X225800000Y-25400000D01*
X223000000Y-57250770D02*
X227217001Y-53033769D01*
X223000000Y-76900000D02*
X223000000Y-57250770D01*
X67452999Y-90576137D02*
X63814568Y-94214568D01*
X76494228Y-79311957D02*
X73008723Y-79311957D01*
X67452999Y-84867681D02*
X67452999Y-90576137D01*
X73008723Y-79311957D02*
X67452999Y-84867681D01*
%TO.N,RE6_A*%
X262467010Y-33303980D02*
X261354011Y-34416979D01*
X259754011Y-82445001D02*
X260817001Y-83507991D01*
X261700000Y-22100000D02*
X262467010Y-22867010D01*
X262467010Y-22867010D02*
X262467010Y-33303980D01*
X261354011Y-39217219D02*
X260652999Y-39918231D01*
X260652999Y-39918231D02*
X260652999Y-67789069D01*
X261354011Y-34416979D02*
X261354011Y-39217219D01*
X260652999Y-67789069D02*
X259754011Y-68688057D01*
X259754011Y-68688057D02*
X259754011Y-82445001D01*
X260817001Y-83507991D02*
X260817001Y-89769727D01*
X260817001Y-89769727D02*
X259161310Y-91425418D01*
%TO.N,RE6_B*%
X256000000Y-91900000D02*
X257800000Y-91900000D01*
X256182999Y-90282999D02*
X256182999Y-71617001D01*
X257800000Y-91900000D02*
X256182999Y-90282999D01*
X260198988Y-39730174D02*
X260900000Y-39029162D01*
X256182999Y-71617001D02*
X260198988Y-67601012D01*
X260198988Y-67601012D02*
X260198988Y-39730174D01*
X259400000Y-32890990D02*
X259400000Y-25400000D01*
X260900000Y-34390990D02*
X259400000Y-32890990D01*
X260900000Y-39029162D02*
X260900000Y-34390990D01*
X50900000Y-100000000D02*
X51800000Y-99100000D01*
X51800000Y-99100000D02*
X56100000Y-99100000D01*
%TD*%
D27*
X27886000Y-18577411D02*
X27903204Y-18752085D01*
X27971192Y-18976212D01*
X28081600Y-19182769D01*
X28230183Y-19363818D01*
X28249500Y-19379671D01*
X28249501Y-19930328D01*
X28230182Y-19946182D01*
X28081599Y-20127232D01*
X27971192Y-20333789D01*
X27903204Y-20557916D01*
X27886000Y-20732590D01*
X27886000Y-21957411D01*
X27903204Y-22132085D01*
X27971192Y-22356212D01*
X28081600Y-22562769D01*
X28230183Y-22743818D01*
X28411232Y-22892401D01*
X28617789Y-23002808D01*
X28841916Y-23070796D01*
X29075000Y-23093753D01*
X29308085Y-23070796D01*
X29532212Y-23002808D01*
X29599500Y-22966842D01*
X29599500Y-23973000D01*
X27275295Y-23973000D01*
X27187619Y-17485000D01*
X27438561Y-17485000D01*
X27471695Y-17481736D01*
X27474637Y-17481757D01*
X27485545Y-17480688D01*
X27533317Y-17475667D01*
X27553887Y-17473641D01*
X27554573Y-17473433D01*
X27582593Y-17470488D01*
X27652309Y-17456178D01*
X27722176Y-17442849D01*
X27732669Y-17439682D01*
X27825888Y-17410826D01*
X27886000Y-17385557D01*
X27886000Y-18577411D01*
%TA.AperFunction,NonConductor*%
D28*
G36*
X27886000Y-18577411D02*
G01*
X27903204Y-18752085D01*
X27971192Y-18976212D01*
X28081600Y-19182769D01*
X28230183Y-19363818D01*
X28249500Y-19379671D01*
X28249501Y-19930328D01*
X28230182Y-19946182D01*
X28081599Y-20127232D01*
X27971192Y-20333789D01*
X27903204Y-20557916D01*
X27886000Y-20732590D01*
X27886000Y-21957411D01*
X27903204Y-22132085D01*
X27971192Y-22356212D01*
X28081600Y-22562769D01*
X28230183Y-22743818D01*
X28411232Y-22892401D01*
X28617789Y-23002808D01*
X28841916Y-23070796D01*
X29075000Y-23093753D01*
X29308085Y-23070796D01*
X29532212Y-23002808D01*
X29599500Y-22966842D01*
X29599500Y-23973000D01*
X27275295Y-23973000D01*
X27187619Y-17485000D01*
X27438561Y-17485000D01*
X27471695Y-17481736D01*
X27474637Y-17481757D01*
X27485545Y-17480688D01*
X27533317Y-17475667D01*
X27553887Y-17473641D01*
X27554573Y-17473433D01*
X27582593Y-17470488D01*
X27652309Y-17456178D01*
X27722176Y-17442849D01*
X27732669Y-17439682D01*
X27825888Y-17410826D01*
X27886000Y-17385557D01*
X27886000Y-18577411D01*
G37*
%TD.AperFunction*%
D27*
X34394978Y-23248108D02*
X34580448Y-23285000D01*
X34699500Y-23285000D01*
X34699500Y-23973000D01*
X31250500Y-23973000D01*
X31250500Y-23285000D01*
X31369552Y-23285000D01*
X31555022Y-23248108D01*
X31700000Y-23188056D01*
X31844978Y-23248108D01*
X32030448Y-23285000D01*
X32219552Y-23285000D01*
X32405022Y-23248108D01*
X32550000Y-23188056D01*
X32694978Y-23248108D01*
X32880448Y-23285000D01*
X33069552Y-23285000D01*
X33255022Y-23248108D01*
X33400000Y-23188056D01*
X33544978Y-23248108D01*
X33730448Y-23285000D01*
X33919552Y-23285000D01*
X34105022Y-23248108D01*
X34250000Y-23188056D01*
X34394978Y-23248108D01*
%TA.AperFunction,NonConductor*%
D28*
G36*
X34394978Y-23248108D02*
G01*
X34580448Y-23285000D01*
X34699500Y-23285000D01*
X34699500Y-23973000D01*
X31250500Y-23973000D01*
X31250500Y-23285000D01*
X31369552Y-23285000D01*
X31555022Y-23248108D01*
X31700000Y-23188056D01*
X31844978Y-23248108D01*
X32030448Y-23285000D01*
X32219552Y-23285000D01*
X32405022Y-23248108D01*
X32550000Y-23188056D01*
X32694978Y-23248108D01*
X32880448Y-23285000D01*
X33069552Y-23285000D01*
X33255022Y-23248108D01*
X33400000Y-23188056D01*
X33544978Y-23248108D01*
X33730448Y-23285000D01*
X33919552Y-23285000D01*
X34105022Y-23248108D01*
X34250000Y-23188056D01*
X34394978Y-23248108D01*
G37*
%TD.AperFunction*%
D27*
X38972102Y-17410526D02*
X38982572Y-17413768D01*
X39075990Y-17441973D01*
X39145776Y-17455791D01*
X39215383Y-17470586D01*
X39226284Y-17471732D01*
X39323401Y-17481254D01*
X39323406Y-17481254D01*
X39361439Y-17485000D01*
X39673000Y-17485000D01*
X39673000Y-23973000D01*
X38127933Y-23973000D01*
X37106289Y-22951356D01*
X37120681Y-22936964D01*
X37126976Y-22927542D01*
X37267789Y-23002808D01*
X37491916Y-23070796D01*
X37725000Y-23093753D01*
X37958085Y-23070796D01*
X38182212Y-23002808D01*
X38388769Y-22892401D01*
X38569818Y-22743818D01*
X38718401Y-22562769D01*
X38828808Y-22356212D01*
X38896796Y-22132085D01*
X38914000Y-21957411D01*
X38914000Y-20732589D01*
X38896796Y-20557915D01*
X38828808Y-20333788D01*
X38718401Y-20127231D01*
X38569818Y-19946182D01*
X38550500Y-19930328D01*
X38550500Y-19379672D01*
X38569818Y-19363818D01*
X38718401Y-19182769D01*
X38828808Y-18976212D01*
X38896796Y-18752085D01*
X38914000Y-18577411D01*
X38914000Y-17385624D01*
X38972102Y-17410526D01*
%TA.AperFunction,NonConductor*%
D28*
G36*
X38972102Y-17410526D02*
G01*
X38982572Y-17413768D01*
X39075990Y-17441973D01*
X39145776Y-17455791D01*
X39215383Y-17470586D01*
X39226284Y-17471732D01*
X39323401Y-17481254D01*
X39323406Y-17481254D01*
X39361439Y-17485000D01*
X39673000Y-17485000D01*
X39673000Y-23973000D01*
X38127933Y-23973000D01*
X37106289Y-22951356D01*
X37120681Y-22936964D01*
X37126976Y-22927542D01*
X37267789Y-23002808D01*
X37491916Y-23070796D01*
X37725000Y-23093753D01*
X37958085Y-23070796D01*
X38182212Y-23002808D01*
X38388769Y-22892401D01*
X38569818Y-22743818D01*
X38718401Y-22562769D01*
X38828808Y-22356212D01*
X38896796Y-22132085D01*
X38914000Y-21957411D01*
X38914000Y-20732589D01*
X38896796Y-20557915D01*
X38828808Y-20333788D01*
X38718401Y-20127231D01*
X38569818Y-19946182D01*
X38550500Y-19930328D01*
X38550500Y-19379672D01*
X38569818Y-19363818D01*
X38718401Y-19182769D01*
X38828808Y-18976212D01*
X38896796Y-18752085D01*
X38914000Y-18577411D01*
X38914000Y-17385624D01*
X38972102Y-17410526D01*
G37*
%TD.AperFunction*%
D27*
X36553204Y-17177916D02*
X36536000Y-17352590D01*
X36536000Y-18577411D01*
X36553204Y-18752085D01*
X36621192Y-18976212D01*
X36731600Y-19182769D01*
X36880183Y-19363818D01*
X36899500Y-19379671D01*
X36899501Y-19930328D01*
X36880182Y-19946182D01*
X36758315Y-20094678D01*
X36655022Y-20051892D01*
X36469552Y-20015000D01*
X36280448Y-20015000D01*
X36196031Y-20031792D01*
X36111541Y-19928840D01*
X36080040Y-19902988D01*
X35881515Y-19704464D01*
X35855659Y-19672958D01*
X35729960Y-19569800D01*
X35586552Y-19493146D01*
X35430944Y-19445943D01*
X35309671Y-19433999D01*
X35309668Y-19433999D01*
X35269118Y-19430005D01*
X35228568Y-19433999D01*
X31571432Y-19433999D01*
X31530882Y-19430005D01*
X31490331Y-19433999D01*
X31490329Y-19433999D01*
X31369056Y-19445943D01*
X31213448Y-19493146D01*
X31070040Y-19569800D01*
X30944341Y-19672958D01*
X30918488Y-19704460D01*
X30719960Y-19902988D01*
X30688460Y-19928840D01*
X30603969Y-20031792D01*
X30519552Y-20015000D01*
X30330448Y-20015000D01*
X30144978Y-20051892D01*
X30041685Y-20094677D01*
X29919818Y-19946182D01*
X29900500Y-19930328D01*
X29900500Y-19379672D01*
X29919818Y-19363818D01*
X30068401Y-19182769D01*
X30178808Y-18976212D01*
X30246796Y-18752085D01*
X30264000Y-18577411D01*
X30264000Y-17352589D01*
X30246796Y-17177915D01*
X30188276Y-16985000D01*
X36611724Y-16985000D01*
X36553204Y-17177916D01*
%TA.AperFunction,NonConductor*%
D28*
G36*
X36553204Y-17177916D02*
G01*
X36536000Y-17352590D01*
X36536000Y-18577411D01*
X36553204Y-18752085D01*
X36621192Y-18976212D01*
X36731600Y-19182769D01*
X36880183Y-19363818D01*
X36899500Y-19379671D01*
X36899501Y-19930328D01*
X36880182Y-19946182D01*
X36758315Y-20094678D01*
X36655022Y-20051892D01*
X36469552Y-20015000D01*
X36280448Y-20015000D01*
X36196031Y-20031792D01*
X36111541Y-19928840D01*
X36080040Y-19902988D01*
X35881515Y-19704464D01*
X35855659Y-19672958D01*
X35729960Y-19569800D01*
X35586552Y-19493146D01*
X35430944Y-19445943D01*
X35309671Y-19433999D01*
X35309668Y-19433999D01*
X35269118Y-19430005D01*
X35228568Y-19433999D01*
X31571432Y-19433999D01*
X31530882Y-19430005D01*
X31490331Y-19433999D01*
X31490329Y-19433999D01*
X31369056Y-19445943D01*
X31213448Y-19493146D01*
X31070040Y-19569800D01*
X30944341Y-19672958D01*
X30918488Y-19704460D01*
X30719960Y-19902988D01*
X30688460Y-19928840D01*
X30603969Y-20031792D01*
X30519552Y-20015000D01*
X30330448Y-20015000D01*
X30144978Y-20051892D01*
X30041685Y-20094677D01*
X29919818Y-19946182D01*
X29900500Y-19930328D01*
X29900500Y-19379672D01*
X29919818Y-19363818D01*
X30068401Y-19182769D01*
X30178808Y-18976212D01*
X30246796Y-18752085D01*
X30264000Y-18577411D01*
X30264000Y-17352589D01*
X30246796Y-17177915D01*
X30188276Y-16985000D01*
X36611724Y-16985000D01*
X36553204Y-17177916D01*
G37*
%TD.AperFunction*%
M02*
