%TF.GenerationSoftware,KiCad,Pcbnew,(5.1.9-0-10_14)*%
%TF.CreationDate,2021-02-02T05:51:32+09:00*%
%TF.ProjectId,Unison,556e6973-6f6e-42e6-9b69-6361645f7063,v01_1AU*%
%TF.SameCoordinates,Original*%
%TF.FileFunction,Copper,L1,Top*%
%TF.FilePolarity,Positive*%
%FSLAX46Y46*%
G04 Gerber Fmt 4.6, Leading zero omitted, Abs format (unit mm)*
G04 Created by KiCad (PCBNEW (5.1.9-0-10_14)) date 2021-02-02 05:51:32*
%MOMM*%
%LPD*%
G01*
G04 APERTURE LIST*
%TA.AperFunction,ComponentPad*%
%ADD10C,2.250000*%
%TD*%
%TA.AperFunction,ComponentPad*%
%ADD11C,1.000000*%
%TD*%
%TA.AperFunction,ComponentPad*%
%ADD12C,4.800000*%
%TD*%
%TA.AperFunction,SMDPad,CuDef*%
%ADD13R,3.400000X1.300000*%
%TD*%
%TA.AperFunction,ComponentPad*%
%ADD14O,1.108000X2.216000*%
%TD*%
%TA.AperFunction,ComponentPad*%
%ADD15C,0.650000*%
%TD*%
%TA.AperFunction,ComponentPad*%
%ADD16R,2.000000X2.000000*%
%TD*%
%TA.AperFunction,ComponentPad*%
%ADD17C,2.000000*%
%TD*%
%TA.AperFunction,ComponentPad*%
%ADD18R,3.200000X2.000000*%
%TD*%
%TA.AperFunction,ComponentPad*%
%ADD19R,1.700000X1.700000*%
%TD*%
%TA.AperFunction,ComponentPad*%
%ADD20O,1.700000X1.700000*%
%TD*%
%TA.AperFunction,SMDPad,CuDef*%
%ADD21R,0.850000X1.600000*%
%TD*%
%TA.AperFunction,ComponentPad*%
%ADD22O,2.000000X1.200000*%
%TD*%
%TA.AperFunction,ComponentPad*%
%ADD23O,1.200000X2.000000*%
%TD*%
%TA.AperFunction,ViaPad*%
%ADD24C,0.600000*%
%TD*%
%TA.AperFunction,Conductor*%
%ADD25C,0.381000*%
%TD*%
%TA.AperFunction,Conductor*%
%ADD26C,0.254000*%
%TD*%
%TA.AperFunction,Conductor*%
%ADD27C,0.100000*%
%TD*%
G04 APERTURE END LIST*
D10*
%TO.P,SW_91,2*%
%TO.N,RE5_2*%
X277840000Y-32920008D03*
%TO.P,SW_91,1*%
%TO.N,RE5_1*%
X271490000Y-35460008D03*
%TD*%
%TO.P,SW_60_3,2*%
%TO.N,Net-(D64-Pad2)*%
X202240000Y-98520000D03*
%TO.P,SW_60_3,1*%
%TO.N,RE2_1*%
X195890000Y-101060000D03*
%TD*%
%TO.P,SW_75_1,2*%
%TO.N,Net-(D70-Pad2)*%
X205560000Y-108680000D03*
%TO.P,SW_75_1,1*%
%TO.N,RE3_1*%
X211910000Y-106140000D03*
%TD*%
%TO.P,SW_75_2,2*%
%TO.N,Net-(D70-Pad2)*%
X201360000Y-108680000D03*
%TO.P,SW_75_2,1*%
%TO.N,RE3_1*%
X207710000Y-106140000D03*
%TD*%
%TO.P,SW_21,2*%
%TO.N,Net-(D9-Pad2)*%
X42640000Y-32920000D03*
%TO.P,SW_21,1*%
%TO.N,RE1_1*%
X36290000Y-35460000D03*
%TD*%
%TO.P,SW_53,2*%
%TO.N,Net-(D44-Pad2)*%
X151840000Y-65720000D03*
%TO.P,SW_53,1*%
%TO.N,Net-(D47-Pad1)*%
X145490000Y-68260000D03*
%TD*%
%TO.P,SW_18_1,2*%
%TO.N,Net-(D5-Pad2)*%
X25840000Y-65720000D03*
%TO.P,SW_18_1,1*%
%TO.N,Net-(D1-Pad1)*%
X19490000Y-68260000D03*
%TD*%
%TO.P,SW_8_1,2*%
%TO.N,Net-(D97-Pad2)*%
X294640000Y-65720000D03*
%TO.P,SW_8_1,1*%
%TO.N,Net-(D94-Pad1)*%
X288290000Y-68260000D03*
%TD*%
D11*
%TO.P,REF\u002A\u002A,1*%
%TO.N,N/C*%
X41650000Y-46450000D03*
X39050000Y-46400000D03*
X41650000Y-43750000D03*
X39050000Y-43750000D03*
X40400000Y-47000000D03*
X42300000Y-45100000D03*
X38500000Y-45100000D03*
X40400000Y-43200000D03*
D12*
X40400000Y-45100000D03*
%TD*%
D13*
%TO.P,LS1,2*%
%TO.N,Net-(D2-Pad1)*%
X23800000Y-27550000D03*
%TO.P,LS1,1*%
%TO.N,GND*%
X23800000Y-18850000D03*
%TD*%
D14*
%TO.P,J1,P4*%
%TO.N,GND*%
X29075000Y-17965000D03*
%TO.P,J1,P3*%
X37725000Y-17965000D03*
%TO.P,J1,P2*%
X37725000Y-21345000D03*
%TO.P,J1,P1*%
X29075000Y-21345000D03*
D15*
%TO.P,J1,B12*%
X30425000Y-20975000D03*
%TO.P,J1,B9*%
%TO.N,VCC*%
X31275000Y-20975000D03*
%TO.P,J1,B8*%
%TO.N,N/C*%
X32125000Y-20975000D03*
%TO.P,J1,B7*%
%TO.N,Net-(D102-Pad3)*%
X32975000Y-20975000D03*
%TO.P,J1,B6*%
%TO.N,Net-(D102-Pad2)*%
X33825000Y-20975000D03*
%TO.P,J1,B5*%
%TO.N,Net-(J1-PadB5)*%
X34675000Y-20975000D03*
%TO.P,J1,B4*%
%TO.N,VCC*%
X35525000Y-20975000D03*
%TO.P,J1,B1*%
%TO.N,GND*%
X36375000Y-20975000D03*
%TO.P,J1,A12*%
X36375000Y-22325000D03*
%TO.P,J1,A9*%
%TO.N,VCC*%
X35525000Y-22325000D03*
%TO.P,J1,A8*%
%TO.N,N/C*%
X34675000Y-22325000D03*
%TO.P,J1,A7*%
%TO.N,Net-(D102-Pad3)*%
X33825000Y-22325000D03*
%TO.P,J1,A6*%
%TO.N,Net-(D102-Pad2)*%
X32975000Y-22325000D03*
%TO.P,J1,A5*%
%TO.N,Net-(J1-PadA5)*%
X32125000Y-22325000D03*
%TO.P,J1,A4*%
%TO.N,VCC*%
X31275000Y-22325000D03*
%TO.P,J1,A1*%
%TO.N,GND*%
X30425000Y-22325000D03*
%TD*%
D16*
%TO.P,SW_RE1,A*%
%TO.N,RE1_A*%
X49400000Y-29000000D03*
D17*
%TO.P,SW_RE1,C*%
%TO.N,GND*%
X49400000Y-31500000D03*
%TO.P,SW_RE1,B*%
%TO.N,RE1_B*%
X49400000Y-34000000D03*
D18*
%TO.P,SW_RE1,MP*%
%TO.N,N/C*%
X56900000Y-25900000D03*
X56900000Y-37100000D03*
D17*
%TO.P,SW_RE1,S2*%
%TO.N,RE1_2*%
X63900000Y-29000000D03*
%TO.P,SW_RE1,S1*%
%TO.N,RE1_1*%
X63900000Y-34000000D03*
%TD*%
%TO.P,SW_RE2,S1*%
%TO.N,RE2_1*%
X181500000Y-34000000D03*
%TO.P,SW_RE2,S2*%
%TO.N,RE2_2*%
X181500000Y-29000000D03*
D18*
%TO.P,SW_RE2,MP*%
%TO.N,N/C*%
X174500000Y-37100000D03*
X174500000Y-25900000D03*
D17*
%TO.P,SW_RE2,B*%
%TO.N,RE2_B*%
X167000000Y-34000000D03*
%TO.P,SW_RE2,C*%
%TO.N,GND*%
X167000000Y-31500000D03*
D16*
%TO.P,SW_RE2,A*%
%TO.N,RE2_A*%
X167000000Y-29000000D03*
%TD*%
D17*
%TO.P,SW_RE3,S1*%
%TO.N,RE3_1*%
X215100000Y-34000000D03*
%TO.P,SW_RE3,S2*%
%TO.N,RE3_2*%
X215100000Y-29000000D03*
D18*
%TO.P,SW_RE3,MP*%
%TO.N,N/C*%
X208100000Y-37100000D03*
X208100000Y-25900000D03*
D17*
%TO.P,SW_RE3,B*%
%TO.N,RE3_B*%
X200600000Y-34000000D03*
%TO.P,SW_RE3,C*%
%TO.N,GND*%
X200600000Y-31500000D03*
D16*
%TO.P,SW_RE3,A*%
%TO.N,RE3_A*%
X200600000Y-29000000D03*
%TD*%
%TO.P,SW_RE4,A*%
%TO.N,RE4_A*%
X234200000Y-29000000D03*
D17*
%TO.P,SW_RE4,C*%
%TO.N,GND*%
X234200000Y-31500000D03*
%TO.P,SW_RE4,B*%
%TO.N,RE4_B*%
X234200000Y-34000000D03*
D18*
%TO.P,SW_RE4,MP*%
%TO.N,N/C*%
X241700000Y-25900000D03*
X241700000Y-37100000D03*
D17*
%TO.P,SW_RE4,S2*%
%TO.N,RE4_2*%
X248700000Y-29000000D03*
%TO.P,SW_RE4,S1*%
%TO.N,RE4_1*%
X248700000Y-34000000D03*
%TD*%
%TO.P,SW_RE5,S1*%
%TO.N,RE5_1*%
X282300000Y-34000000D03*
%TO.P,SW_RE5,S2*%
%TO.N,RE5_2*%
X282300000Y-29000000D03*
D18*
%TO.P,SW_RE5,MP*%
%TO.N,N/C*%
X275300000Y-37100000D03*
X275300000Y-25900000D03*
D17*
%TO.P,SW_RE5,B*%
%TO.N,RE5_B*%
X267800000Y-34000000D03*
%TO.P,SW_RE5,C*%
%TO.N,GND*%
X267800000Y-31500000D03*
D16*
%TO.P,SW_RE5,A*%
%TO.N,RE5_A*%
X267800000Y-29000000D03*
%TD*%
D19*
%TO.P,J3,1*%
%TO.N,N/C*%
X73700000Y-20600000D03*
D20*
%TO.P,J3,2*%
X73700000Y-23140000D03*
%TO.P,J3,3*%
X73700000Y-25680000D03*
%TD*%
D19*
%TO.P,J2,1*%
%TO.N,pin1*%
X137550000Y-45100000D03*
D20*
%TO.P,J2,2*%
%TO.N,+5V*%
X137550000Y-42560000D03*
%TO.P,J2,3*%
%TO.N,RE1_B*%
X135010000Y-45100000D03*
%TO.P,J2,4*%
%TO.N,pin6*%
X135010000Y-42560000D03*
%TO.P,J2,5*%
%TO.N,RESET*%
X132470000Y-45100000D03*
%TO.P,J2,6*%
%TO.N,GND*%
X132470000Y-42560000D03*
%TD*%
D19*
%TO.P,J4,1*%
%TO.N,SDA*%
X117800000Y-22000000D03*
D20*
%TO.P,J4,2*%
%TO.N,SCL*%
X115260000Y-22000000D03*
%TD*%
D21*
%TO.P,L1,3*%
%TO.N,LED*%
X68825000Y-24850000D03*
%TO.P,L1,4*%
%TO.N,+5V*%
X70575000Y-24850000D03*
%TO.P,L1,2*%
%TO.N,GND*%
X68825000Y-21350000D03*
%TO.P,L1,1*%
%TO.N,Net-(L1-Pad1)*%
X70575000Y-21350000D03*
%TD*%
%TO.P,L2,1*%
%TO.N,Net-(JP_LED2-Pad2)*%
X78575000Y-21350000D03*
%TO.P,L2,2*%
%TO.N,GND*%
X76825000Y-21350000D03*
%TO.P,L2,4*%
%TO.N,+5V*%
X78575000Y-24850000D03*
%TO.P,L2,3*%
%TO.N,Net-(L1-Pad1)*%
X76825000Y-24850000D03*
%TD*%
%TO.P,L3,3*%
%TO.N,Net-(JP_LED2-Pad1)*%
X46325000Y-24850000D03*
%TO.P,L3,4*%
%TO.N,+5V*%
X48075000Y-24850000D03*
%TO.P,L3,2*%
%TO.N,GND*%
X46325000Y-21350000D03*
%TO.P,L3,1*%
%TO.N,Net-(JP_LED1-Pad2)*%
X48075000Y-21350000D03*
%TD*%
%TO.P,L4,3*%
%TO.N,Net-(JP_LED1-Pad1)*%
X96725000Y-24850000D03*
%TO.P,L4,4*%
%TO.N,+5V*%
X98475000Y-24850000D03*
%TO.P,L4,2*%
%TO.N,GND*%
X96725000Y-21350000D03*
%TO.P,L4,1*%
%TO.N,Net-(L4-Pad1)*%
X98475000Y-21350000D03*
%TD*%
%TO.P,L5,1*%
%TO.N,Net-(JP_LED1-Pad3)*%
X132075000Y-21350000D03*
%TO.P,L5,2*%
%TO.N,GND*%
X130325000Y-21350000D03*
%TO.P,L5,4*%
%TO.N,+5V*%
X132075000Y-24850000D03*
%TO.P,L5,3*%
%TO.N,Net-(L4-Pad1)*%
X130325000Y-24850000D03*
%TD*%
%TO.P,L6,1*%
%TO.N,Net-(L6-Pad1)*%
X165675000Y-21350000D03*
%TO.P,L6,2*%
%TO.N,GND*%
X163925000Y-21350000D03*
%TO.P,L6,4*%
%TO.N,+5V*%
X165675000Y-24850000D03*
%TO.P,L6,3*%
%TO.N,Net-(JP_LED1-Pad3)*%
X163925000Y-24850000D03*
%TD*%
%TO.P,L7,3*%
%TO.N,Net-(L6-Pad1)*%
X197525000Y-24850000D03*
%TO.P,L7,4*%
%TO.N,+5V*%
X199275000Y-24850000D03*
%TO.P,L7,2*%
%TO.N,GND*%
X197525000Y-21350000D03*
%TO.P,L7,1*%
%TO.N,Net-(L7-Pad1)*%
X199275000Y-21350000D03*
%TD*%
%TO.P,L8,1*%
%TO.N,Net-(L8-Pad1)*%
X232875000Y-21350000D03*
%TO.P,L8,2*%
%TO.N,GND*%
X231125000Y-21350000D03*
%TO.P,L8,4*%
%TO.N,+5V*%
X232875000Y-24850000D03*
%TO.P,L8,3*%
%TO.N,Net-(L7-Pad1)*%
X231125000Y-24850000D03*
%TD*%
%TO.P,L9,3*%
%TO.N,Net-(L8-Pad1)*%
X264725000Y-24850000D03*
%TO.P,L9,4*%
%TO.N,+5V*%
X266475000Y-24850000D03*
%TO.P,L9,2*%
%TO.N,GND*%
X264725000Y-21350000D03*
%TO.P,L9,1*%
%TO.N,Net-(JP_LED2-Pad3)*%
X266475000Y-21350000D03*
%TD*%
D22*
%TO.P,SW_6,1*%
%TO.N,Net-(D94-Pad1)*%
X288290000Y-35460000D03*
%TO.P,SW_6,2*%
%TO.N,Net-(D95-Pad2)*%
X294740000Y-32920000D03*
%TD*%
%TO.P,SW_9,2*%
%TO.N,Net-(D98-Pad2)*%
X294740000Y-82120000D03*
%TO.P,SW_9,1*%
%TO.N,Net-(D94-Pad1)*%
X288290000Y-84660000D03*
%TD*%
%TO.P,SW_14,1*%
%TO.N,Net-(D1-Pad1)*%
X36290000Y-84660000D03*
%TO.P,SW_14,2*%
%TO.N,Net-(D12-Pad2)*%
X42740000Y-82120000D03*
%TD*%
%TO.P,SW_15,2*%
%TO.N,Net-(D13-Pad2)*%
X42740000Y-98520000D03*
%TO.P,SW_15,1*%
%TO.N,Net-(D1-Pad1)*%
X36290000Y-101060000D03*
%TD*%
%TO.P,SW_16,1*%
%TO.N,Net-(D1-Pad1)*%
X19490000Y-35460000D03*
%TO.P,SW_16,2*%
%TO.N,Net-(D3-Pad2)*%
X25940000Y-32920000D03*
%TD*%
%TO.P,SW_26,1*%
%TO.N,RE1_1*%
X53090000Y-35460000D03*
%TO.P,SW_26,2*%
%TO.N,RE1_2*%
X59540000Y-32920000D03*
%TD*%
%TO.P,SW_29,2*%
%TO.N,Net-(D18-Pad2)*%
X59540000Y-82120000D03*
%TO.P,SW_29,1*%
%TO.N,RE1_1*%
X53090000Y-84660000D03*
%TD*%
%TO.P,SW_31,1*%
%TO.N,Net-(D25-Pad1)*%
X69890000Y-35460000D03*
%TO.P,SW_31,2*%
%TO.N,Net-(D20-Pad2)*%
X76340000Y-32920000D03*
%TD*%
%TO.P,SW_34,2*%
%TO.N,Net-(D34-Pad2)*%
X109940000Y-82120000D03*
%TO.P,SW_34,1*%
%TO.N,Net-(D25-Pad1)*%
X103490000Y-84660000D03*
%TD*%
D23*
%TO.P,SW_42,1*%
%TO.N,Net-(D36-Pad1)*%
X118240000Y-50590000D03*
%TO.P,SW_42,2*%
%TO.N,Net-(D32-Pad2)*%
X120780000Y-57040000D03*
%TD*%
D22*
%TO.P,SW_43,2*%
%TO.N,Net-(D33-Pad2)*%
X118340000Y-65720000D03*
%TO.P,SW_43,1*%
%TO.N,Net-(D36-Pad1)*%
X111890000Y-68260000D03*
%TD*%
%TO.P,SW_47,2*%
%TO.N,Net-(D38-Pad2)*%
X135140000Y-49320000D03*
%TO.P,SW_47,1*%
%TO.N,Net-(D36-Pad1)*%
X128690000Y-51860000D03*
%TD*%
%TO.P,SW_48,2*%
%TO.N,Net-(D39-Pad2)*%
X135140000Y-65720000D03*
%TO.P,SW_48,1*%
%TO.N,Net-(D36-Pad1)*%
X128690000Y-68260000D03*
%TD*%
%TO.P,SW_49,2*%
%TO.N,Net-(D40-Pad2)*%
X126740000Y-82120000D03*
%TO.P,SW_49,1*%
%TO.N,Net-(D36-Pad1)*%
X120290000Y-84660000D03*
%TD*%
%TO.P,SW_50,2*%
%TO.N,Net-(D52-Pad2)*%
X160340000Y-98520000D03*
%TO.P,SW_50,1*%
%TO.N,Net-(D47-Pad1)*%
X153890000Y-101060000D03*
%TD*%
%TO.P,SW_52,2*%
%TO.N,Net-(D43-Pad2)*%
X151940000Y-49320000D03*
%TO.P,SW_52,1*%
%TO.N,Net-(D47-Pad1)*%
X145490000Y-51860000D03*
%TD*%
%TO.P,SW_54,1*%
%TO.N,Net-(D47-Pad1)*%
X137090000Y-84660000D03*
%TO.P,SW_54,2*%
%TO.N,Net-(D45-Pad2)*%
X143540000Y-82120000D03*
%TD*%
%TO.P,SW_56,2*%
%TO.N,Net-(D48-Pad2)*%
X160340000Y-32920000D03*
%TO.P,SW_56,1*%
%TO.N,Net-(D47-Pad1)*%
X153890000Y-35460000D03*
%TD*%
%TO.P,SW_57,2*%
%TO.N,Net-(D49-Pad2)*%
X168740000Y-49320000D03*
%TO.P,SW_57,1*%
%TO.N,Net-(D47-Pad1)*%
X162290000Y-51860000D03*
%TD*%
%TO.P,SW_58,2*%
%TO.N,Net-(D50-Pad2)*%
X168740000Y-65720000D03*
%TO.P,SW_58,1*%
%TO.N,Net-(D47-Pad1)*%
X162290000Y-68260000D03*
%TD*%
%TO.P,SW_59,2*%
%TO.N,Net-(D51-Pad2)*%
X160340000Y-82120000D03*
%TO.P,SW_59,1*%
%TO.N,Net-(D47-Pad1)*%
X153890000Y-84660000D03*
%TD*%
%TO.P,SW_61,2*%
%TO.N,RE2_2*%
X177140000Y-32920000D03*
%TO.P,SW_61,1*%
%TO.N,RE2_1*%
X170690000Y-35460000D03*
%TD*%
%TO.P,SW_62,2*%
%TO.N,Net-(D55-Pad2)*%
X185540000Y-49320000D03*
%TO.P,SW_62,1*%
%TO.N,RE2_1*%
X179090000Y-51860000D03*
%TD*%
%TO.P,SW_63,2*%
%TO.N,Net-(D56-Pad2)*%
X185540000Y-65720000D03*
%TO.P,SW_63,1*%
%TO.N,RE2_1*%
X179090000Y-68260000D03*
%TD*%
%TO.P,SW_64,1*%
%TO.N,RE2_1*%
X170690000Y-84660000D03*
%TO.P,SW_64,2*%
%TO.N,Net-(D57-Pad2)*%
X177140000Y-82120000D03*
%TD*%
%TO.P,SW_67,1*%
%TO.N,RE2_1*%
X195890000Y-51860000D03*
%TO.P,SW_67,2*%
%TO.N,Net-(D61-Pad2)*%
X202340000Y-49320000D03*
%TD*%
%TO.P,SW_68,1*%
%TO.N,RE2_1*%
X195890000Y-68260000D03*
%TO.P,SW_68,2*%
%TO.N,Net-(D62-Pad2)*%
X202340000Y-65720000D03*
%TD*%
%TO.P,SW_69,1*%
%TO.N,RE2_1*%
X187490000Y-84660000D03*
%TO.P,SW_69,2*%
%TO.N,Net-(D63-Pad2)*%
X193940000Y-82120000D03*
%TD*%
%TO.P,SW_71,1*%
%TO.N,RE3_1*%
X204290000Y-35460000D03*
%TO.P,SW_71,2*%
%TO.N,RE3_2*%
X210740000Y-32920000D03*
%TD*%
%TO.P,SW_74,2*%
%TO.N,Net-(D69-Pad2)*%
X210740000Y-82120000D03*
%TO.P,SW_74,1*%
%TO.N,RE3_1*%
X204290000Y-84660000D03*
%TD*%
%TO.P,SW_76,1*%
%TO.N,RE3_1*%
X187490000Y-35460000D03*
%TO.P,SW_76,2*%
%TO.N,Net-(D60-Pad2)*%
X193940000Y-32920000D03*
%TD*%
%TO.P,SW_79,1*%
%TO.N,RE3_1*%
X221090000Y-84660000D03*
%TO.P,SW_79,2*%
%TO.N,Net-(D75-Pad2)*%
X227540000Y-82120000D03*
%TD*%
%TO.P,SW_81,1*%
%TO.N,RE4_1*%
X237890000Y-35460000D03*
%TO.P,SW_81,2*%
%TO.N,RE4_2*%
X244340000Y-32920000D03*
%TD*%
%TO.P,SW_84,1*%
%TO.N,RE4_1*%
X237890000Y-84660000D03*
%TO.P,SW_84,2*%
%TO.N,Net-(D81-Pad2)*%
X244340000Y-82120000D03*
%TD*%
%TO.P,SW_86,2*%
%TO.N,Net-(D72-Pad2)*%
X227540000Y-32920000D03*
%TO.P,SW_86,1*%
%TO.N,RE4_1*%
X221090000Y-35460000D03*
%TD*%
%TO.P,SW_89,1*%
%TO.N,RE4_1*%
X254690000Y-84660000D03*
%TO.P,SW_89,2*%
%TO.N,Net-(D87-Pad2)*%
X261140000Y-82120000D03*
%TD*%
%TO.P,SW_94,2*%
%TO.N,Net-(D91-Pad2)*%
X277940000Y-82120000D03*
%TO.P,SW_94,1*%
%TO.N,RE5_1*%
X271490000Y-84660000D03*
%TD*%
%TO.P,SW_95,1*%
%TO.N,RE5_1*%
X271490000Y-101060000D03*
%TO.P,SW_95,2*%
%TO.N,Net-(D92-Pad2)*%
X277940000Y-98520000D03*
%TD*%
%TO.P,SW_96,1*%
%TO.N,RE5_1*%
X254690000Y-35460000D03*
%TO.P,SW_96,2*%
%TO.N,Net-(D84-Pad2)*%
X261140000Y-32920000D03*
%TD*%
%TO.P,SW_10_1,1*%
%TO.N,Net-(D1-Pad1)*%
X19490000Y-101060000D03*
%TO.P,SW_10_1,2*%
%TO.N,Net-(D7-Pad2)*%
X25940000Y-98520000D03*
%TD*%
%TO.P,SW_12_1,2*%
%TO.N,Net-(D10-Pad2)*%
X42740000Y-49320000D03*
%TO.P,SW_12_1,1*%
%TO.N,Net-(D1-Pad1)*%
X36290000Y-51860000D03*
%TD*%
%TO.P,SW_12_2,1*%
%TO.N,Net-(D1-Pad1)*%
X44690000Y-51860000D03*
%TO.P,SW_12_2,2*%
%TO.N,Net-(D10-Pad2)*%
X51140000Y-49320000D03*
%TD*%
%TO.P,SW_13_1,1*%
%TO.N,Net-(D1-Pad1)*%
X43910000Y-73340000D03*
%TO.P,SW_13_1,2*%
%TO.N,Net-(D11-Pad2)*%
X37460000Y-75880000D03*
%TD*%
%TO.P,SW_13_2,2*%
%TO.N,Net-(D11-Pad2)*%
X45860000Y-75880000D03*
%TO.P,SW_13_2,1*%
%TO.N,Net-(D1-Pad1)*%
X52310000Y-73340000D03*
%TD*%
%TO.P,SW_17_1,1*%
%TO.N,Net-(D1-Pad1)*%
X19490000Y-51860000D03*
%TO.P,SW_17_1,2*%
%TO.N,Net-(D4-Pad2)*%
X25940000Y-49320000D03*
%TD*%
%TO.P,SW_19_1,1*%
%TO.N,Net-(D1-Pad1)*%
X19490000Y-84660000D03*
%TO.P,SW_19_1,2*%
%TO.N,Net-(D6-Pad2)*%
X25940000Y-82120000D03*
%TD*%
%TO.P,SW_20_1,2*%
%TO.N,Net-(D19-Pad2)*%
X59540000Y-98520000D03*
%TO.P,SW_20_1,1*%
%TO.N,RE1_1*%
X53090000Y-101060000D03*
%TD*%
%TO.P,SW_23_1,2*%
%TO.N,Net-(D22-Pad2)*%
X76340000Y-65720000D03*
%TO.P,SW_23_1,1*%
%TO.N,RE1_1*%
X69890000Y-68260000D03*
%TD*%
%TO.P,SW_23_2,2*%
%TO.N,Net-(D22-Pad2)*%
X84740000Y-65720000D03*
%TO.P,SW_23_2,1*%
%TO.N,RE1_1*%
X78290000Y-68260000D03*
%TD*%
%TO.P,SW_24_1,2*%
%TO.N,Net-(D23-Pad2)*%
X76340000Y-82120000D03*
%TO.P,SW_24_1,1*%
%TO.N,RE1_1*%
X69890000Y-84660000D03*
%TD*%
%TO.P,SW_25_1,2*%
%TO.N,Net-(D24-Pad2)*%
X76340000Y-98520000D03*
%TO.P,SW_25_1,1*%
%TO.N,RE1_1*%
X69890000Y-101060000D03*
%TD*%
%TO.P,SW_27_1,1*%
%TO.N,RE1_1*%
X53090000Y-51860000D03*
%TO.P,SW_27_1,2*%
%TO.N,Net-(D16-Pad2)*%
X59540000Y-49320000D03*
%TD*%
%TO.P,SW_27_2,1*%
%TO.N,RE1_1*%
X61490000Y-51860000D03*
%TO.P,SW_27_2,2*%
%TO.N,Net-(D16-Pad2)*%
X67940000Y-49320000D03*
%TD*%
%TO.P,SW_28_1,1*%
%TO.N,RE1_1*%
X53090000Y-68260000D03*
%TO.P,SW_28_1,2*%
%TO.N,Net-(D17-Pad2)*%
X59540000Y-65720000D03*
%TD*%
%TO.P,SW_28_2,1*%
%TO.N,RE1_1*%
X61490000Y-68260000D03*
%TO.P,SW_28_2,2*%
%TO.N,Net-(D17-Pad2)*%
X67940000Y-65720000D03*
%TD*%
%TO.P,SW_30_1,1*%
%TO.N,Net-(D25-Pad1)*%
X86690000Y-101060000D03*
%TO.P,SW_30_1,2*%
%TO.N,Net-(D30-Pad2)*%
X93140000Y-98520000D03*
%TD*%
%TO.P,SW_32_1,1*%
%TO.N,Net-(D25-Pad1)*%
X69890000Y-51860000D03*
%TO.P,SW_32_1,2*%
%TO.N,Net-(D21-Pad2)*%
X76340000Y-49320000D03*
%TD*%
%TO.P,SW_32_2,2*%
%TO.N,Net-(D21-Pad2)*%
X84740000Y-49320000D03*
%TO.P,SW_32_2,1*%
%TO.N,Net-(D25-Pad1)*%
X78290000Y-51860000D03*
%TD*%
%TO.P,SW_36_1,2*%
%TO.N,Net-(D26-Pad2)*%
X93140000Y-32920000D03*
%TO.P,SW_36_1,1*%
%TO.N,Net-(D25-Pad1)*%
X86690000Y-35460000D03*
%TD*%
%TO.P,SW_36_2,2*%
%TO.N,Net-(D26-Pad2)*%
X93140000Y-26420000D03*
%TO.P,SW_36_2,1*%
%TO.N,Net-(D25-Pad1)*%
X86690000Y-28960000D03*
%TD*%
D23*
%TO.P,SW_37_1,1*%
%TO.N,Net-(D25-Pad1)*%
X96360000Y-58210000D03*
%TO.P,SW_37_1,2*%
%TO.N,Net-(D27-Pad2)*%
X93820000Y-51760000D03*
%TD*%
D22*
%TO.P,SW_38_1,2*%
%TO.N,Net-(D28-Pad2)*%
X101540000Y-65720000D03*
%TO.P,SW_38_1,1*%
%TO.N,Net-(D25-Pad1)*%
X95090000Y-68260000D03*
%TD*%
%TO.P,SW_39_1,2*%
%TO.N,Net-(D29-Pad2)*%
X93140000Y-82120000D03*
%TO.P,SW_39_1,1*%
%TO.N,Net-(D25-Pad1)*%
X86690000Y-84660000D03*
%TD*%
%TO.P,SW_40_1,1*%
%TO.N,Net-(D36-Pad1)*%
X120290000Y-101060000D03*
%TO.P,SW_40_1,2*%
%TO.N,Net-(D41-Pad2)*%
X126740000Y-98520000D03*
%TD*%
%TO.P,SW_41_1,1*%
%TO.N,Net-(D36-Pad1)*%
X103490000Y-35460000D03*
%TO.P,SW_41_1,2*%
%TO.N,Net-(D31-Pad2)*%
X109940000Y-32920000D03*
%TD*%
%TO.P,SW_41_2,1*%
%TO.N,Net-(D36-Pad1)*%
X103490000Y-28960000D03*
%TO.P,SW_41_2,2*%
%TO.N,Net-(D31-Pad2)*%
X109940000Y-26420000D03*
%TD*%
%TO.P,SW_46_1,2*%
%TO.N,Net-(D37-Pad2)*%
X126740000Y-32920000D03*
%TO.P,SW_46_1,1*%
%TO.N,Net-(D36-Pad1)*%
X120290000Y-35460000D03*
%TD*%
%TO.P,SW_46_2,1*%
%TO.N,Net-(D36-Pad1)*%
X120290000Y-28960000D03*
%TO.P,SW_46_2,2*%
%TO.N,Net-(D37-Pad2)*%
X126740000Y-26420000D03*
%TD*%
%TO.P,SW_51_1,2*%
%TO.N,Net-(D42-Pad2)*%
X143540000Y-32920000D03*
%TO.P,SW_51_1,1*%
%TO.N,Net-(D47-Pad1)*%
X137090000Y-35460000D03*
%TD*%
%TO.P,SW_51_2,1*%
%TO.N,Net-(D47-Pad1)*%
X137090000Y-28960000D03*
%TO.P,SW_51_2,2*%
%TO.N,Net-(D42-Pad2)*%
X143540000Y-26420000D03*
%TD*%
%TO.P,SW_60_1,1*%
%TO.N,RE2_1*%
X187490000Y-101060000D03*
%TO.P,SW_60_1,2*%
%TO.N,Net-(D64-Pad2)*%
X193940000Y-98520000D03*
%TD*%
%TO.P,SW_70_1,1*%
%TO.N,RE3_1*%
X221090000Y-101060000D03*
%TO.P,SW_70_1,2*%
%TO.N,Net-(D76-Pad2)*%
X227540000Y-98520000D03*
%TD*%
%TO.P,SW_72_1,2*%
%TO.N,Net-(D67-Pad2)*%
X219140000Y-49320000D03*
%TO.P,SW_72_1,1*%
%TO.N,RE3_1*%
X212690000Y-51860000D03*
%TD*%
%TO.P,SW_73_1,2*%
%TO.N,Net-(D68-Pad2)*%
X219140000Y-65720000D03*
%TO.P,SW_73_1,1*%
%TO.N,RE3_1*%
X212690000Y-68260000D03*
%TD*%
%TO.P,SW_78_1,2*%
%TO.N,Net-(D74-Pad2)*%
X235940000Y-65720000D03*
%TO.P,SW_78_1,1*%
%TO.N,RE3_1*%
X229490000Y-68260000D03*
%TD*%
%TO.P,SW_78_2,2*%
%TO.N,Net-(D74-Pad2)*%
X244340000Y-65720000D03*
%TO.P,SW_78_2,1*%
%TO.N,RE3_1*%
X237890000Y-68260000D03*
%TD*%
%TO.P,SW_7_1,1*%
%TO.N,Net-(D94-Pad1)*%
X288290000Y-51860000D03*
%TO.P,SW_7_1,2*%
%TO.N,Net-(D96-Pad2)*%
X294740000Y-49320000D03*
%TD*%
%TO.P,SW_80_1,2*%
%TO.N,Net-(D88-Pad2)*%
X261140000Y-98520000D03*
%TO.P,SW_80_1,1*%
%TO.N,RE4_1*%
X254690000Y-101060000D03*
%TD*%
%TO.P,SW_82_1,1*%
%TO.N,RE4_1*%
X246290000Y-51860000D03*
%TO.P,SW_82_1,2*%
%TO.N,Net-(D79-Pad2)*%
X252740000Y-49320000D03*
%TD*%
%TO.P,SW_82_2,2*%
%TO.N,Net-(D79-Pad2)*%
X261140000Y-49320000D03*
%TO.P,SW_82_2,1*%
%TO.N,RE4_1*%
X254690000Y-51860000D03*
%TD*%
%TO.P,SW_83_1,1*%
%TO.N,RE4_1*%
X246290000Y-68260000D03*
%TO.P,SW_83_1,2*%
%TO.N,Net-(D80-Pad2)*%
X252740000Y-65720000D03*
%TD*%
%TO.P,SW_83_2,2*%
%TO.N,Net-(D80-Pad2)*%
X261140000Y-65720000D03*
%TO.P,SW_83_2,1*%
%TO.N,RE4_1*%
X254690000Y-68260000D03*
%TD*%
%TO.P,SW_85_1,1*%
%TO.N,RE4_1*%
X237890000Y-101060000D03*
%TO.P,SW_85_1,2*%
%TO.N,Net-(D82-Pad2)*%
X244340000Y-98520000D03*
%TD*%
%TO.P,SW_87_1,2*%
%TO.N,Net-(D73-Pad2)*%
X235940000Y-49320000D03*
%TO.P,SW_87_1,1*%
%TO.N,RE4_1*%
X229490000Y-51860000D03*
%TD*%
%TO.P,SW_87_2,2*%
%TO.N,Net-(D73-Pad2)*%
X244340000Y-49320000D03*
%TO.P,SW_87_2,1*%
%TO.N,RE4_1*%
X237890000Y-51860000D03*
%TD*%
%TO.P,SW_90_1,1*%
%TO.N,RE5_1*%
X288290000Y-101060000D03*
%TO.P,SW_90_1,2*%
%TO.N,Net-(D99-Pad2)*%
X294740000Y-98520000D03*
%TD*%
%TO.P,SW_97_1,2*%
%TO.N,Net-(D85-Pad2)*%
X269540000Y-49320000D03*
%TO.P,SW_97_1,1*%
%TO.N,RE5_1*%
X263090000Y-51860000D03*
%TD*%
%TO.P,SW_97_2,1*%
%TO.N,RE5_1*%
X271490000Y-51860000D03*
%TO.P,SW_97_2,2*%
%TO.N,Net-(D85-Pad2)*%
X277940000Y-49320000D03*
%TD*%
%TO.P,SW_98_1,2*%
%TO.N,Net-(D86-Pad2)*%
X269540000Y-65720000D03*
%TO.P,SW_98_1,1*%
%TO.N,RE5_1*%
X263090000Y-68260000D03*
%TD*%
%TO.P,SW_98_2,1*%
%TO.N,RE5_1*%
X271490000Y-68260000D03*
%TO.P,SW_98_2,2*%
%TO.N,Net-(D86-Pad2)*%
X277940000Y-65720000D03*
%TD*%
%TO.P,SW_10_2,2*%
%TO.N,Net-(D7-Pad2)*%
X34340000Y-98520000D03*
%TO.P,SW_10_2,1*%
%TO.N,Net-(D1-Pad1)*%
X27890000Y-101060000D03*
%TD*%
%TO.P,SW_17_2,2*%
%TO.N,Net-(D4-Pad2)*%
X30140000Y-49320000D03*
%TO.P,SW_17_2,1*%
%TO.N,Net-(D1-Pad1)*%
X23690000Y-51860000D03*
%TD*%
%TO.P,SW_18_2,1*%
%TO.N,Net-(D1-Pad1)*%
X23690000Y-68260000D03*
%TO.P,SW_18_2,2*%
%TO.N,Net-(D5-Pad2)*%
X30140000Y-65720000D03*
%TD*%
%TO.P,SW_19_2,2*%
%TO.N,Net-(D6-Pad2)*%
X34340000Y-82120000D03*
%TO.P,SW_19_2,1*%
%TO.N,Net-(D1-Pad1)*%
X27890000Y-84660000D03*
%TD*%
%TO.P,SW_20_2,1*%
%TO.N,RE1_1*%
X57290000Y-101060000D03*
%TO.P,SW_20_2,2*%
%TO.N,Net-(D19-Pad2)*%
X63740000Y-98520000D03*
%TD*%
%TO.P,SW_25_3,1*%
%TO.N,RE1_1*%
X74090000Y-101060000D03*
%TO.P,SW_25_3,2*%
%TO.N,Net-(D24-Pad2)*%
X80540000Y-98520000D03*
%TD*%
%TO.P,SW_30_2,2*%
%TO.N,Net-(D30-Pad2)*%
X88940000Y-98520000D03*
%TO.P,SW_30_2,1*%
%TO.N,Net-(D25-Pad1)*%
X82490000Y-101060000D03*
%TD*%
%TO.P,SW_35_1,1*%
%TO.N,Net-(D25-Pad1)*%
X103490000Y-101060000D03*
%TO.P,SW_35_1,2*%
%TO.N,Net-(D35-Pad2)*%
X109940000Y-98520000D03*
%TD*%
%TO.P,SW_35_2,1*%
%TO.N,Net-(D25-Pad1)*%
X111890000Y-101060000D03*
%TO.P,SW_35_2,2*%
%TO.N,Net-(D35-Pad2)*%
X118340000Y-98520000D03*
%TD*%
%TO.P,SW_35_3,2*%
%TO.N,Net-(D35-Pad2)*%
X114140000Y-98520000D03*
%TO.P,SW_35_3,1*%
%TO.N,Net-(D25-Pad1)*%
X107690000Y-101060000D03*
%TD*%
%TO.P,SW_38_2,2*%
%TO.N,Net-(D28-Pad2)*%
X97340000Y-65720000D03*
%TO.P,SW_38_2,1*%
%TO.N,Net-(D25-Pad1)*%
X90890000Y-68260000D03*
%TD*%
%TO.P,SW_39_2,2*%
%TO.N,Net-(D29-Pad2)*%
X101540000Y-82120000D03*
%TO.P,SW_39_2,1*%
%TO.N,Net-(D25-Pad1)*%
X95090000Y-84660000D03*
%TD*%
%TO.P,SW_45_1,1*%
%TO.N,Net-(D36-Pad1)*%
X137090000Y-101060000D03*
%TO.P,SW_45_1,2*%
%TO.N,Net-(D46-Pad2)*%
X143540000Y-98520000D03*
%TD*%
%TO.P,SW_45_2,1*%
%TO.N,Net-(D36-Pad1)*%
X145490000Y-101060000D03*
%TO.P,SW_45_2,2*%
%TO.N,Net-(D46-Pad2)*%
X151940000Y-98520000D03*
%TD*%
%TO.P,SW_45_3,2*%
%TO.N,Net-(D46-Pad2)*%
X147740000Y-98520000D03*
%TO.P,SW_45_3,1*%
%TO.N,Net-(D36-Pad1)*%
X141290000Y-101060000D03*
%TD*%
%TO.P,SW_45_4,1*%
%TO.N,Net-(D36-Pad1)*%
X132890000Y-101060000D03*
%TO.P,SW_45_4,2*%
%TO.N,Net-(D46-Pad2)*%
X139340000Y-98520000D03*
%TD*%
%TO.P,SW_65_1,1*%
%TO.N,RE2_1*%
X170690000Y-101060000D03*
%TO.P,SW_65_1,2*%
%TO.N,Net-(D58-Pad2)*%
X177140000Y-98520000D03*
%TD*%
%TO.P,SW_65_2,2*%
%TO.N,Net-(D58-Pad2)*%
X181340000Y-98520000D03*
%TO.P,SW_65_2,1*%
%TO.N,RE2_1*%
X174890000Y-101060000D03*
%TD*%
%TO.P,SW_65_3,1*%
%TO.N,RE2_1*%
X166490000Y-101060000D03*
%TO.P,SW_65_3,2*%
%TO.N,Net-(D58-Pad2)*%
X172940000Y-98520000D03*
%TD*%
%TO.P,SW_70_2,2*%
%TO.N,Net-(D76-Pad2)*%
X231740000Y-98520000D03*
%TO.P,SW_70_2,1*%
%TO.N,RE3_1*%
X225290000Y-101060000D03*
%TD*%
%TO.P,SW_72_2,1*%
%TO.N,RE3_1*%
X216890000Y-51860000D03*
%TO.P,SW_72_2,2*%
%TO.N,Net-(D67-Pad2)*%
X223340000Y-49320000D03*
%TD*%
%TO.P,SW_73_2,1*%
%TO.N,RE3_1*%
X216890000Y-68260000D03*
%TO.P,SW_73_2,2*%
%TO.N,Net-(D68-Pad2)*%
X223340000Y-65720000D03*
%TD*%
%TO.P,SW_75_3,2*%
%TO.N,Net-(D70-Pad2)*%
X213860000Y-108680000D03*
%TO.P,SW_75_3,1*%
%TO.N,RE3_1*%
X220310000Y-106140000D03*
%TD*%
%TO.P,SW_7_2,2*%
%TO.N,Net-(D96-Pad2)*%
X290540000Y-49320000D03*
%TO.P,SW_7_2,1*%
%TO.N,Net-(D94-Pad1)*%
X284090000Y-51860000D03*
%TD*%
%TO.P,SW_80_2,1*%
%TO.N,RE4_1*%
X250490000Y-101060000D03*
%TO.P,SW_80_2,2*%
%TO.N,Net-(D88-Pad2)*%
X256940000Y-98520000D03*
%TD*%
%TO.P,SW_85_2,2*%
%TO.N,Net-(D82-Pad2)*%
X252740000Y-98520000D03*
%TO.P,SW_85_2,1*%
%TO.N,RE4_1*%
X246290000Y-101060000D03*
%TD*%
%TO.P,SW_85_3,2*%
%TO.N,Net-(D82-Pad2)*%
X240140000Y-98520000D03*
%TO.P,SW_85_3,1*%
%TO.N,RE4_1*%
X233690000Y-101060000D03*
%TD*%
%TO.P,SW_8_2,1*%
%TO.N,Net-(D94-Pad1)*%
X284090000Y-68260000D03*
%TO.P,SW_8_2,2*%
%TO.N,Net-(D97-Pad2)*%
X290540000Y-65720000D03*
%TD*%
%TO.P,SW_25_2,2*%
%TO.N,Net-(D24-Pad2)*%
X76340000Y-90320000D03*
%TO.P,SW_25_2,1*%
%TO.N,RE1_1*%
X69890000Y-92860000D03*
%TD*%
D23*
%TO.P,SW_37_2,2*%
%TO.N,Net-(D27-Pad2)*%
X89620000Y-51760000D03*
%TO.P,SW_37_2,1*%
%TO.N,Net-(D25-Pad1)*%
X92160000Y-58210000D03*
%TD*%
D22*
%TO.P,SW_60_2,2*%
%TO.N,Net-(D64-Pad2)*%
X193940000Y-90320000D03*
%TO.P,SW_60_2,1*%
%TO.N,RE2_1*%
X187490000Y-92860000D03*
%TD*%
%TO.P,SW_90_2,1*%
%TO.N,RE5_1*%
X288290000Y-92860000D03*
%TO.P,SW_90_2,2*%
%TO.N,Net-(D99-Pad2)*%
X294740000Y-90320000D03*
%TD*%
D24*
%TO.N,GND*%
X31599983Y-27699991D03*
X46325000Y-17900000D03*
X68825000Y-17900000D03*
X96750000Y-17900000D03*
X130350000Y-17900000D03*
X163925000Y-17900000D03*
X197550000Y-17900000D03*
X231125000Y-17900000D03*
X285506284Y-31129050D03*
X287300000Y-73900000D03*
X97540501Y-40459511D03*
X76850000Y-17900000D03*
X260450002Y-17900000D03*
%TO.N,+5V*%
X121900000Y-50650000D03*
X106600000Y-58000000D03*
X108000000Y-59400000D03*
X122600000Y-76500000D03*
X77800000Y-62300000D03*
X75700000Y-60200000D03*
X119700038Y-63700000D03*
X112300010Y-63700002D03*
X137119490Y-50869490D03*
X266500000Y-26425000D03*
X70590501Y-27290501D03*
X78584499Y-27290501D03*
X48065501Y-27290501D03*
X165675000Y-26225000D03*
X199275000Y-26225000D03*
X232875000Y-26275000D03*
X98367657Y-26267653D03*
X133650000Y-24675000D03*
X121750000Y-53490000D03*
X107430000Y-43040000D03*
X103144446Y-43250004D03*
X96790023Y-48554012D03*
X98000000Y-47500000D03*
X111743938Y-51170843D03*
%TO.N,Net-(D1-Pad1)*%
X18900000Y-30200000D03*
X44067010Y-84632990D03*
%TO.N,pin1*%
X105700000Y-26600000D03*
X132675000Y-26600000D03*
X104825000Y-39900000D03*
%TO.N,Net-(D2-Pad1)*%
X20700000Y-27600000D03*
%TO.N,pin6*%
X131900000Y-27549996D03*
X104818987Y-28118987D03*
X104027643Y-39697614D03*
%TO.N,pin7*%
X85772999Y-50327001D03*
X130500000Y-49400000D03*
X130000000Y-61300000D03*
X86850000Y-63550000D03*
X85432999Y-56717001D03*
%TO.N,pin8*%
X98627001Y-66727001D03*
X101800006Y-60450000D03*
%TO.N,pin9*%
X105150000Y-83200000D03*
X103100000Y-59500000D03*
%TO.N,pin10*%
X120000000Y-98600000D03*
X108819917Y-57450000D03*
%TO.N,pin2*%
X83300000Y-47600000D03*
X84700004Y-63300000D03*
X126200000Y-50178980D03*
X122800001Y-62200001D03*
%TO.N,Net-(D11-Pad2)*%
X36800000Y-65800000D03*
%TO.N,pin3*%
X99200000Y-64700000D03*
X101149994Y-59750000D03*
%TO.N,pin4*%
X100242990Y-81192990D03*
X102427010Y-58977010D03*
%TO.N,pin5*%
X108907010Y-97592990D03*
X103800000Y-58950000D03*
%TO.N,Net-(D25-Pad1)*%
X87167001Y-51867001D03*
X92160000Y-63990000D03*
%TO.N,Net-(D27-Pad2)*%
X89950000Y-49400000D03*
%TO.N,Net-(D32-Pad2)*%
X125899997Y-49399997D03*
%TO.N,Net-(D36-Pad1)*%
X121100000Y-79400000D03*
%TO.N,Net-(D47-Pad1)*%
X154450000Y-94549992D03*
%TO.N,Net-(D70-Pad2)*%
X188600000Y-102500000D03*
X191400005Y-99597990D03*
%TO.N,RE1_1*%
X83700000Y-68600006D03*
X82300000Y-51200000D03*
X61000000Y-46599996D03*
X38050000Y-51000000D03*
%TO.N,VCC*%
X40300000Y-19400000D03*
X34999998Y-29050000D03*
%TO.N,LED*%
X70050000Y-28000000D03*
X99925000Y-27550000D03*
X105650000Y-41175000D03*
%TO.N,Net-(JP_LED2-Pad1)*%
X45675000Y-23125000D03*
%TO.N,Net-(JP_LED2-Pad2)*%
X79050000Y-23100000D03*
%TO.N,Net-(JP_LED2-Pad3)*%
X293100000Y-77000000D03*
X84925000Y-24400000D03*
X267625000Y-21350000D03*
X88475000Y-20800000D03*
%TO.N,D-*%
X40700000Y-26100000D03*
X54300000Y-42272037D03*
%TO.N,D+*%
X40550000Y-28550000D03*
X52700000Y-41600000D03*
%TO.N,RE1_A*%
X99600000Y-37800000D03*
X99025000Y-27997990D03*
%TO.N,RE1_B*%
X100400000Y-37725000D03*
X99900000Y-28650000D03*
X128775000Y-25390510D03*
%TO.N,RE3_B*%
X186800004Y-57200000D03*
%TO.N,RE3_A*%
X187100000Y-56400000D03*
X112096344Y-49789832D03*
X112370948Y-52679591D03*
%TO.N,RE4_B*%
X233200001Y-39600001D03*
X186800000Y-59200000D03*
X205900000Y-41000000D03*
%TO.N,RE4_A*%
X232235565Y-39554415D03*
X187106637Y-58006635D03*
X204896920Y-40381521D03*
%TO.N,RE5_A*%
X218700000Y-60025339D03*
X232700002Y-41700000D03*
X263500002Y-39800000D03*
%TO.N,RE5_B*%
X219500000Y-60300000D03*
X233582208Y-41704521D03*
X264400000Y-39800000D03*
%TO.N,RE2_1*%
X185300000Y-30200000D03*
%TO.N,RE3_1*%
X215100000Y-46700000D03*
%TO.N,RE4_1*%
X260900000Y-63000000D03*
X233100000Y-67600000D03*
%TO.N,RE5_1*%
X282900000Y-85000000D03*
X277025942Y-51874058D03*
X278300000Y-68500000D03*
%TO.N,Net-(D94-Pad1)*%
X281547001Y-68252999D03*
X289500000Y-94200000D03*
%TO.N,SCL*%
X130850000Y-51650000D03*
X120000000Y-54200000D03*
X112400004Y-47300000D03*
%TO.N,SDA*%
X119192412Y-54500000D03*
X131825001Y-51624999D03*
X111383872Y-47219697D03*
%TO.N,RE2_A*%
X162600000Y-56800000D03*
X118700000Y-56800006D03*
X113340831Y-49148706D03*
%TO.N,RE2_B*%
X163500000Y-56800000D03*
X117825000Y-57400000D03*
X112997952Y-50320957D03*
%TO.N,AUDIO*%
X77307304Y-63142696D03*
X73807324Y-59509490D03*
X38399999Y-59500001D03*
X29500000Y-30400000D03*
%TO.N,RESET*%
X100250000Y-59750000D03*
X107650000Y-34275000D03*
X106539510Y-43200000D03*
X106524998Y-40675000D03*
%TO.N,Net-(JP_LED1-Pad3)*%
X133275000Y-21350000D03*
%TO.N,Net-(JP_LED1-Pad2)*%
X48899999Y-19350001D03*
%TO.N,Net-(JP_LED1-Pad1)*%
X96736735Y-23413265D03*
%TD*%
D25*
%TO.N,GND*%
X30425000Y-20975000D02*
X30425000Y-22325000D01*
X36375000Y-20975000D02*
X36375000Y-22325000D01*
X30425000Y-26525008D02*
X31599983Y-27699991D01*
X30425000Y-22325000D02*
X30425000Y-26525008D01*
X46325000Y-21350000D02*
X46325000Y-17900000D01*
X68825000Y-21350000D02*
X68825000Y-17900000D01*
X96725000Y-17925000D02*
X96750000Y-17900000D01*
X96725000Y-21350000D02*
X96725000Y-17925000D01*
X130325000Y-17925000D02*
X130350000Y-17900000D01*
X130325000Y-21350000D02*
X130325000Y-17925000D01*
X163925000Y-21350000D02*
X163925000Y-17900000D01*
X197525000Y-17925000D02*
X197550000Y-17900000D01*
X197525000Y-21350000D02*
X197525000Y-17925000D01*
X231125000Y-21350000D02*
X231125000Y-17900000D01*
X285506284Y-72106284D02*
X287300000Y-73900000D01*
X285506284Y-31129050D02*
X285506284Y-72106284D01*
X76825000Y-21350000D02*
X76825000Y-17925000D01*
X76825000Y-17925000D02*
X76850000Y-17900000D01*
X46944000Y-23150000D02*
X46325000Y-22531000D01*
X48302902Y-23150000D02*
X46944000Y-23150000D01*
X46325000Y-22531000D02*
X46325000Y-21350000D01*
X49400000Y-31500000D02*
X49602902Y-31500000D01*
X49602902Y-31500000D02*
X50790501Y-30312401D01*
X50790501Y-30312401D02*
X50790501Y-25637599D01*
X50790501Y-25637599D02*
X48302902Y-23150000D01*
X264725000Y-21350000D02*
X263900002Y-21350000D01*
X263900002Y-21350000D02*
X260450002Y-17900000D01*
X198144000Y-23150000D02*
X197525000Y-22531000D01*
X197525000Y-22531000D02*
X197525000Y-21350000D01*
X200802902Y-31500000D02*
X201990501Y-30312401D01*
X199502902Y-23150000D02*
X198144000Y-23150000D01*
X201990501Y-25637599D02*
X199502902Y-23150000D01*
X201990501Y-30312401D02*
X201990501Y-25637599D01*
X200600000Y-31500000D02*
X200802902Y-31500000D01*
X234402902Y-31500000D02*
X234200000Y-31500000D01*
X235590501Y-30312401D02*
X234402902Y-31500000D01*
X235590501Y-25637599D02*
X235590501Y-30312401D01*
X233077902Y-23125000D02*
X235590501Y-25637599D01*
X231725000Y-23125000D02*
X233077902Y-23125000D01*
X231125000Y-22525000D02*
X231725000Y-23125000D01*
X231125000Y-21350000D02*
X231125000Y-22525000D01*
X269190501Y-30312401D02*
X268002902Y-31500000D01*
X268002902Y-31500000D02*
X267800000Y-31500000D01*
X269190501Y-25637599D02*
X269190501Y-30312401D01*
X266652902Y-23100000D02*
X269190501Y-25637599D01*
X265294000Y-23100000D02*
X266652902Y-23100000D01*
X264725000Y-22531000D02*
X265294000Y-23100000D01*
X264725000Y-21350000D02*
X264725000Y-22531000D01*
X163925000Y-22550000D02*
X163925000Y-21350000D01*
X168390501Y-25637599D02*
X165977902Y-23225000D01*
X168390501Y-30312401D02*
X168390501Y-25637599D01*
X165977902Y-23225000D02*
X164600000Y-23225000D01*
X167202902Y-31500000D02*
X168390501Y-30312401D01*
X164600000Y-23225000D02*
X163925000Y-22550000D01*
X167000000Y-31500000D02*
X167202902Y-31500000D01*
X96725000Y-21350000D02*
X96725000Y-22425000D01*
X97540501Y-23240501D02*
X97540501Y-40459511D01*
X96725000Y-22425000D02*
X97540501Y-23240501D01*
X131140501Y-23540501D02*
X130325000Y-22725000D01*
X131140501Y-38640501D02*
X131140501Y-23540501D01*
X132470000Y-39970000D02*
X131140501Y-38640501D01*
X130325000Y-22725000D02*
X130325000Y-21350000D01*
X132470000Y-42560000D02*
X132470000Y-39970000D01*
X28190000Y-18850000D02*
X29075000Y-17965000D01*
X23800000Y-18850000D02*
X28190000Y-18850000D01*
%TO.N,+5V*%
X106600000Y-58000000D02*
X108000000Y-59400000D01*
X77800000Y-62300000D02*
X75700000Y-60200000D01*
X108000000Y-59400000D02*
X112300002Y-63700002D01*
X112300002Y-63700002D02*
X112300010Y-63700002D01*
X138790501Y-43800501D02*
X137550000Y-42560000D01*
X138790501Y-49198479D02*
X138790501Y-43800501D01*
X137119490Y-50869490D02*
X138790501Y-49198479D01*
X266500000Y-24875000D02*
X266475000Y-24850000D01*
X266500000Y-26425000D02*
X266500000Y-24875000D01*
X70575000Y-27275000D02*
X70590501Y-27290501D01*
X70575000Y-24850000D02*
X70575000Y-27275000D01*
X78575000Y-27281002D02*
X78584499Y-27290501D01*
X78575000Y-24850000D02*
X78575000Y-27281002D01*
X48075000Y-24850000D02*
X48075000Y-27281002D01*
X48075000Y-27281002D02*
X48065501Y-27290501D01*
X165675000Y-24850000D02*
X165675000Y-26225000D01*
X199275000Y-24850000D02*
X199275000Y-26225000D01*
X232875000Y-24850000D02*
X232875000Y-26275000D01*
X98475000Y-24850000D02*
X98475000Y-26160310D01*
X98475000Y-26160310D02*
X98367657Y-26267653D01*
X133650000Y-38660000D02*
X133650000Y-24675000D01*
X137550000Y-42560000D02*
X133650000Y-38660000D01*
X132250000Y-24675000D02*
X133650000Y-24675000D01*
X132075000Y-24850000D02*
X132250000Y-24675000D01*
X119800000Y-63799962D02*
X119700038Y-63700000D01*
X119800000Y-67800000D02*
X119800000Y-63799962D01*
X122300000Y-70300000D02*
X119800000Y-67800000D01*
X122300000Y-76200000D02*
X122300000Y-70300000D01*
X122600000Y-76500000D02*
X122300000Y-76200000D01*
X121750000Y-50800000D02*
X121900000Y-50650000D01*
X121750000Y-53490000D02*
X121750000Y-50800000D01*
X119700038Y-55539962D02*
X121750000Y-53490000D01*
X119700038Y-63700000D02*
X119700038Y-55539962D01*
X98148455Y-38254013D02*
X103144446Y-43250004D01*
X107430000Y-43040000D02*
X106899499Y-42509499D01*
X98367657Y-26267653D02*
X98148455Y-26486855D01*
X98148455Y-26486855D02*
X98148455Y-38254013D01*
X103884951Y-42509499D02*
X103144446Y-43250004D01*
X106899499Y-42509499D02*
X103884951Y-42509499D01*
X98894450Y-47500000D02*
X98000000Y-47500000D01*
X97844035Y-47500000D02*
X98000000Y-47500000D01*
X96790023Y-48554012D02*
X97844035Y-47500000D01*
X103144446Y-43250004D02*
X98894450Y-47500000D01*
X107430000Y-46856905D02*
X111743938Y-51170843D01*
X107430000Y-43040000D02*
X107430000Y-46856905D01*
D26*
%TO.N,Net-(D1-Pad1)*%
X19967001Y-67782999D02*
X19967001Y-52337001D01*
X19967001Y-52337001D02*
X19490000Y-51860000D01*
X19490000Y-68260000D02*
X19967001Y-67782999D01*
X19967001Y-35937001D02*
X19490000Y-35460000D01*
X19967001Y-51382999D02*
X19967001Y-35937001D01*
X19490000Y-51860000D02*
X19967001Y-51382999D01*
X18900000Y-34800000D02*
X18900000Y-30200000D01*
X19490000Y-35390000D02*
X18900000Y-34800000D01*
X19490000Y-35460000D02*
X19490000Y-35390000D01*
X42900000Y-94450000D02*
X36290000Y-101060000D01*
X42900000Y-86400000D02*
X42900000Y-94450000D01*
X44067010Y-85232990D02*
X42900000Y-86400000D01*
X44067010Y-73497010D02*
X44067010Y-85232990D01*
X43910000Y-73340000D02*
X44067010Y-73497010D01*
%TO.N,pin1*%
X132675000Y-38431870D02*
X132675000Y-26600000D01*
X136300000Y-42056870D02*
X132675000Y-38431870D01*
X136300000Y-43850000D02*
X136300000Y-42056870D01*
X137550000Y-45100000D02*
X136300000Y-43850000D01*
X104982999Y-30387839D02*
X104982999Y-32612161D01*
X105271020Y-36032038D02*
X104528989Y-36774069D01*
X105700000Y-26600000D02*
X105700000Y-29670838D01*
X105700000Y-29670838D02*
X104982999Y-30387839D01*
X104825000Y-39617068D02*
X104825000Y-39900000D01*
X104982999Y-32612161D02*
X105271020Y-32900182D01*
X104528989Y-36774069D02*
X104528990Y-39321058D01*
X104528990Y-39321058D02*
X104825000Y-39617068D01*
X105271020Y-32900182D02*
X105271020Y-36032038D01*
%TO.N,Net-(D2-Pad1)*%
X23300000Y-27600000D02*
X23350000Y-27550000D01*
X20700000Y-27600000D02*
X23300000Y-27600000D01*
%TO.N,pin6*%
X131849996Y-27600000D02*
X131900000Y-27549996D01*
X131900000Y-38400000D02*
X131900000Y-27549996D01*
X135010000Y-41510000D02*
X131900000Y-38400000D01*
X135010000Y-42560000D02*
X135010000Y-41510000D01*
X104817008Y-33088240D02*
X104817008Y-35843982D01*
X104817008Y-35843982D02*
X104027643Y-36633347D01*
X104818987Y-28118987D02*
X104818987Y-29909783D01*
X104528988Y-30199782D02*
X104528988Y-32800218D01*
X104027643Y-36633347D02*
X104027643Y-39697614D01*
X104528988Y-32800218D02*
X104817008Y-33088240D01*
X104818987Y-29909783D02*
X104528988Y-30199782D01*
%TO.N,pin7*%
X130000000Y-52260990D02*
X130000000Y-61300000D01*
X130017010Y-52243980D02*
X130000000Y-52260990D01*
X130000000Y-49900000D02*
X130000000Y-51459010D01*
X130017010Y-51476020D02*
X130017010Y-52243980D01*
X130000000Y-51459010D02*
X130017010Y-51476020D01*
X130500000Y-49400000D02*
X130000000Y-49900000D01*
X85432999Y-62132999D02*
X86850000Y-63550000D01*
X85432999Y-50667001D02*
X85432999Y-62132999D01*
X85772999Y-50327001D02*
X85432999Y-50667001D01*
%TO.N,pin8*%
X101800006Y-63553996D02*
X101800006Y-60450000D01*
X98627001Y-66727001D02*
X101800006Y-63553996D01*
%TO.N,pin9*%
X103345990Y-68145990D02*
X103345990Y-59745990D01*
X103345990Y-59745990D02*
X103100000Y-59500000D01*
X105150000Y-69950000D02*
X103345990Y-68145990D01*
X105150000Y-83200000D02*
X105150000Y-69950000D01*
%TO.N,pin10*%
X120000000Y-90100000D02*
X113227005Y-83327005D01*
X113227005Y-61857088D02*
X108819917Y-57450000D01*
X120000000Y-98600000D02*
X120000000Y-90100000D01*
X113227005Y-83327005D02*
X113227005Y-61857088D01*
%TO.N,pin2*%
X83300000Y-47600000D02*
X83300000Y-51500000D01*
X84978988Y-53178988D02*
X84978988Y-56243050D01*
X83300000Y-51500000D02*
X84978988Y-53178988D01*
X84978988Y-56243050D02*
X84700004Y-56522034D01*
X84700004Y-56522034D02*
X84700004Y-63300000D01*
X126200000Y-58800002D02*
X122800001Y-62200001D01*
X126200000Y-50178980D02*
X126200000Y-58800002D01*
%TO.N,Net-(D11-Pad2)*%
X37100000Y-66100000D02*
X36800000Y-65800000D01*
X37100000Y-75520000D02*
X37100000Y-66100000D01*
X37460000Y-75880000D02*
X37100000Y-75520000D01*
%TO.N,pin3*%
X101149994Y-59750000D02*
X101149994Y-62750006D01*
X101149994Y-62750006D02*
X99200000Y-64700000D01*
%TO.N,pin4*%
X102427010Y-59754972D02*
X102427010Y-58977010D01*
X102867010Y-60194972D02*
X102427010Y-59754972D01*
X102867010Y-68132990D02*
X102867010Y-60194972D01*
X102000000Y-69000000D02*
X102867010Y-68132990D01*
X102000000Y-79435980D02*
X102000000Y-69000000D01*
X100242990Y-81192990D02*
X102000000Y-79435980D01*
%TO.N,pin5*%
X103800000Y-67900000D02*
X103800000Y-58950000D01*
X105650000Y-69750000D02*
X103800000Y-67900000D01*
X105650000Y-82120838D02*
X105650000Y-69750000D01*
X109617001Y-86087839D02*
X105650000Y-82120838D01*
X109617001Y-96882999D02*
X109617001Y-86087839D01*
X108907010Y-97592990D02*
X109617001Y-96882999D01*
%TO.N,Net-(D24-Pad2)*%
X76340000Y-90320000D02*
X76340000Y-98520000D01*
%TO.N,Net-(D25-Pad1)*%
X87167001Y-100582999D02*
X86690000Y-101060000D01*
X87167001Y-85137001D02*
X87167001Y-100582999D01*
X86690000Y-84660000D02*
X87167001Y-85137001D01*
X92160000Y-66990000D02*
X90890000Y-68260000D01*
X88452999Y-82897001D02*
X86690000Y-84660000D01*
X88452999Y-69443001D02*
X88452999Y-82897001D01*
X89636000Y-68260000D02*
X88452999Y-69443001D01*
X90890000Y-68260000D02*
X89636000Y-68260000D01*
X92160000Y-63990000D02*
X92160000Y-66990000D01*
X92160000Y-58210000D02*
X92160000Y-63990000D01*
X87167001Y-34982999D02*
X86690000Y-35460000D01*
X87167001Y-29437001D02*
X87167001Y-34982999D01*
X86690000Y-28960000D02*
X87167001Y-29437001D01*
X92160000Y-57460000D02*
X92160000Y-58210000D01*
X87167001Y-52467001D02*
X92160000Y-57460000D01*
X87167001Y-35937001D02*
X87167001Y-52467001D01*
X86690000Y-35460000D02*
X87167001Y-35937001D01*
%TO.N,Net-(D26-Pad2)*%
X93140000Y-32920000D02*
X93140000Y-26420000D01*
%TO.N,Net-(D27-Pad2)*%
X89620000Y-49730000D02*
X89950000Y-49400000D01*
X89620000Y-51760000D02*
X89620000Y-49730000D01*
%TO.N,Net-(D31-Pad2)*%
X109940000Y-26420000D02*
X109940000Y-32920000D01*
%TO.N,Net-(D32-Pad2)*%
X125500000Y-49799994D02*
X125899997Y-49399997D01*
X125500000Y-52300000D02*
X125500000Y-49799994D01*
X120780000Y-57020000D02*
X125500000Y-52300000D01*
X120780000Y-57040000D02*
X120780000Y-57020000D01*
%TO.N,Net-(D36-Pad1)*%
X103967001Y-29437001D02*
X103967001Y-34982999D01*
X103967001Y-34982999D02*
X103490000Y-35460000D01*
X103490000Y-28960000D02*
X103967001Y-29437001D01*
X120767001Y-100582999D02*
X120290000Y-101060000D01*
X120767001Y-85137001D02*
X120767001Y-100582999D01*
X120290000Y-84660000D02*
X120767001Y-85137001D01*
X129167001Y-67782999D02*
X128690000Y-68260000D01*
X129167001Y-52337001D02*
X129167001Y-67782999D01*
X128690000Y-51860000D02*
X129167001Y-52337001D01*
X129167001Y-68737001D02*
X128690000Y-68260000D01*
X129167001Y-71332999D02*
X129167001Y-68737001D01*
X121100000Y-79400000D02*
X129167001Y-71332999D01*
X121100000Y-83850000D02*
X121100000Y-79400000D01*
X120290000Y-84660000D02*
X121100000Y-83850000D01*
X121300000Y-39475000D02*
X128690000Y-46865000D01*
X128690000Y-46865000D02*
X128690000Y-51860000D01*
X121300000Y-36470000D02*
X121300000Y-39475000D01*
X120290000Y-35460000D02*
X121300000Y-36470000D01*
X120290000Y-28960000D02*
X120290000Y-30539599D01*
X120767010Y-31983391D02*
X120290000Y-32460401D01*
X120767010Y-31016609D02*
X120767010Y-31983391D01*
X120290000Y-32460401D02*
X120290000Y-35460000D01*
X120290000Y-30539599D02*
X120767010Y-31016609D01*
%TO.N,Net-(D37-Pad2)*%
X126740000Y-26420000D02*
X126740000Y-32920000D01*
%TO.N,Net-(D42-Pad2)*%
X143540000Y-26420000D02*
X143540000Y-32920000D01*
%TO.N,Net-(D47-Pad1)*%
X137567001Y-34982999D02*
X137090000Y-35460000D01*
X137567001Y-29437001D02*
X137567001Y-34982999D01*
X137090000Y-28960000D02*
X137567001Y-29437001D01*
X154450000Y-100500000D02*
X154450000Y-94549992D01*
X153890000Y-101060000D02*
X154450000Y-100500000D01*
X154450000Y-85220000D02*
X154450000Y-94549992D01*
X153890000Y-84660000D02*
X154450000Y-85220000D01*
X147025000Y-66725000D02*
X145490000Y-68260000D01*
X147025000Y-56125000D02*
X147025000Y-66725000D01*
X145967001Y-52337001D02*
X145967001Y-55067001D01*
X145967001Y-55067001D02*
X147025000Y-56125000D01*
X145490000Y-51860000D02*
X145967001Y-52337001D01*
X137850000Y-36220000D02*
X137090000Y-35460000D01*
X145490000Y-48490000D02*
X137850000Y-40850000D01*
X137850000Y-40850000D02*
X137850000Y-36220000D01*
X145490000Y-51860000D02*
X145490000Y-48490000D01*
X153890000Y-79090000D02*
X153890000Y-84660000D01*
X146150000Y-71350000D02*
X153890000Y-79090000D01*
X146150000Y-68920000D02*
X146150000Y-71350000D01*
X145490000Y-68260000D02*
X146150000Y-68920000D01*
%TO.N,Net-(D64-Pad2)*%
X193940000Y-90320000D02*
X193940000Y-98520000D01*
%TO.N,Net-(D70-Pad2)*%
X188600000Y-102500000D02*
X191400005Y-99699995D01*
X191400005Y-99699995D02*
X191400005Y-99597990D01*
%TO.N,RE1_1*%
X70367001Y-92382999D02*
X69890000Y-92860000D01*
X70367001Y-85137001D02*
X70367001Y-92382999D01*
X69890000Y-84660000D02*
X70367001Y-85137001D01*
X70367001Y-93337001D02*
X70367001Y-100582999D01*
X70367001Y-100582999D02*
X69890000Y-101060000D01*
X69890000Y-92860000D02*
X70367001Y-93337001D01*
X84500000Y-69400006D02*
X83700000Y-68600006D01*
X84500000Y-71829162D02*
X84500000Y-69400006D01*
X71669162Y-84660000D02*
X84500000Y-71829162D01*
X69890000Y-84660000D02*
X71669162Y-84660000D01*
X61000000Y-51370000D02*
X61000000Y-46599996D01*
X61490000Y-51860000D02*
X61000000Y-51370000D01*
X36767001Y-35937001D02*
X36290000Y-35460000D01*
X36767001Y-49717001D02*
X36767001Y-35937001D01*
X38050000Y-51000000D02*
X36767001Y-49717001D01*
X84500000Y-53400000D02*
X82300000Y-51200000D01*
X83400001Y-56529161D02*
X84500000Y-55429162D01*
X84500000Y-55429162D02*
X84500000Y-53400000D01*
X83400001Y-68300007D02*
X83400001Y-56529161D01*
X83700000Y-68600006D02*
X83400001Y-68300007D01*
%TO.N,Net-(D99-Pad2)*%
X294740000Y-98520000D02*
X294740000Y-90320000D01*
%TO.N,Net-(D102-Pad2)*%
X33825000Y-21360038D02*
X32975000Y-22210038D01*
X32975000Y-22210038D02*
X32975000Y-22325000D01*
X33825000Y-20975000D02*
X33825000Y-21360038D01*
D25*
%TO.N,VCC*%
X31275000Y-20975000D02*
X31275000Y-22325000D01*
X35525000Y-20975000D02*
X35525000Y-22325000D01*
X39853510Y-19846490D02*
X40300000Y-19400000D01*
X36193891Y-19846490D02*
X39853510Y-19846490D01*
X35525000Y-20515381D02*
X36193891Y-19846490D01*
X35525000Y-20975000D02*
X35525000Y-20515381D01*
X35269118Y-20259499D02*
X35525000Y-20515381D01*
X31530882Y-20259499D02*
X35269118Y-20259499D01*
X31275000Y-20515381D02*
X31530882Y-20259499D01*
X31275000Y-20975000D02*
X31275000Y-20515381D01*
X31275000Y-25325002D02*
X34999998Y-29050000D01*
X31275000Y-22325000D02*
X31275000Y-25325002D01*
D26*
%TO.N,LED*%
X70050000Y-28000000D02*
X68800000Y-26750000D01*
X68800000Y-24875000D02*
X68825000Y-24850000D01*
X68800000Y-26750000D02*
X68800000Y-24875000D01*
X99925000Y-27550000D02*
X101052999Y-28677999D01*
X101052999Y-38560161D02*
X103667838Y-41175000D01*
X101052999Y-28677999D02*
X101052999Y-38560161D01*
X103667838Y-41175000D02*
X105650000Y-41175000D01*
%TO.N,Net-(JP_LED2-Pad1)*%
X46325000Y-24850000D02*
X46325000Y-23775000D01*
X46325000Y-23775000D02*
X45675000Y-23125000D01*
%TO.N,Net-(JP_LED2-Pad2)*%
X78575000Y-21350000D02*
X78575000Y-22625000D01*
X78575000Y-22625000D02*
X79050000Y-23100000D01*
%TO.N,Net-(JP_LED2-Pad3)*%
X267550000Y-21350000D02*
X267625000Y-21350000D01*
X266475000Y-21350000D02*
X267550000Y-21350000D01*
X84925000Y-24400000D02*
X88475000Y-20850000D01*
X88475000Y-20850000D02*
X88475000Y-20800000D01*
X294550000Y-69550000D02*
X294550000Y-72000000D01*
X294550000Y-72000000D02*
X293100000Y-73450000D01*
X293187999Y-68187999D02*
X294550000Y-69550000D01*
X293187999Y-64712001D02*
X293187999Y-68187999D01*
X294417001Y-63482999D02*
X293187999Y-64712001D01*
X289700000Y-34436038D02*
X289700000Y-46300000D01*
X289700000Y-46300000D02*
X294417001Y-51017001D01*
X294417001Y-51017001D02*
X294417001Y-63482999D01*
X276613962Y-21350000D02*
X289700000Y-34436038D01*
X293100000Y-73450000D02*
X293100000Y-77000000D01*
X267625000Y-21350000D02*
X276613962Y-21350000D01*
%TO.N,D-*%
X45200000Y-33172037D02*
X54300000Y-42272037D01*
X45200000Y-32200000D02*
X45200000Y-33172037D01*
X40700000Y-27700000D02*
X45200000Y-32200000D01*
X40700000Y-26100000D02*
X40700000Y-27700000D01*
%TO.N,D+*%
X44520989Y-32520989D02*
X44520989Y-33420989D01*
X44520989Y-33420989D02*
X52700000Y-41600000D01*
X40550000Y-28550000D02*
X44520989Y-32520989D01*
%TO.N,RE1_A*%
X99025000Y-37225000D02*
X99025000Y-27997990D01*
X99600000Y-37800000D02*
X99025000Y-37225000D01*
%TO.N,RE1_B*%
X100400000Y-37725000D02*
X100400000Y-29150000D01*
X100400000Y-29150000D02*
X99900000Y-28650000D01*
X130347001Y-26962511D02*
X128775000Y-25390510D01*
X131200000Y-43031962D02*
X131200000Y-39600000D01*
X130347001Y-38747001D02*
X130347001Y-26962511D01*
X131200000Y-39600000D02*
X130347001Y-38747001D01*
X133760000Y-43850000D02*
X132018038Y-43850000D01*
X132018038Y-43850000D02*
X131200000Y-43031962D01*
X135010000Y-45100000D02*
X133760000Y-43850000D01*
%TO.N,RE3_B*%
X200600000Y-34000000D02*
X200600000Y-44115864D01*
X187515864Y-57200000D02*
X186800004Y-57200000D01*
X200600000Y-44115864D02*
X187515864Y-57200000D01*
%TO.N,RE3_A*%
X187673796Y-56400000D02*
X187100000Y-56400000D01*
X199200000Y-44873796D02*
X187673796Y-56400000D01*
X199200000Y-30400000D02*
X199200000Y-44873796D01*
X200600000Y-29000000D02*
X199200000Y-30400000D01*
X112370948Y-50488700D02*
X112370948Y-52679591D01*
X112096344Y-50214096D02*
X112370948Y-50488700D01*
X112096344Y-49789832D02*
X112096344Y-50214096D01*
%TO.N,RE4_B*%
X234200000Y-34000000D02*
X233200001Y-34999999D01*
X233200001Y-34999999D02*
X233200001Y-39600001D01*
X205000000Y-41000000D02*
X205900000Y-41000000D01*
X186800000Y-59200000D02*
X205000000Y-41000000D01*
%TO.N,RE4_A*%
X234200000Y-29000000D02*
X232235565Y-30964435D01*
X232235565Y-30964435D02*
X232235565Y-39554415D01*
X204896920Y-40461010D02*
X204896920Y-40381521D01*
X187351295Y-58006635D02*
X204896920Y-40461010D01*
X187106637Y-58006635D02*
X187351295Y-58006635D01*
%TO.N,RE5_A*%
X218700000Y-60025339D02*
X223099999Y-55625340D01*
X223099999Y-55625340D02*
X223099999Y-51300003D01*
X223099999Y-51300003D02*
X232700002Y-41700000D01*
X266300000Y-30500000D02*
X266300000Y-37000002D01*
X266300000Y-37000002D02*
X263500002Y-39800000D01*
X267800000Y-29000000D02*
X266300000Y-30500000D01*
%TO.N,RE5_B*%
X219500000Y-60300000D02*
X223599999Y-56200001D01*
X223599999Y-56200001D02*
X223599999Y-51686730D01*
X223599999Y-51686730D02*
X233582208Y-41704521D01*
X267800000Y-34000000D02*
X267800000Y-36400000D01*
X267800000Y-36400000D02*
X264400000Y-39800000D01*
%TO.N,RE2_1*%
X187967001Y-92382999D02*
X187490000Y-92860000D01*
X187967001Y-85137001D02*
X187967001Y-92382999D01*
X187490000Y-84660000D02*
X187967001Y-85137001D01*
X187967001Y-100582999D02*
X187490000Y-101060000D01*
X187967001Y-93337001D02*
X187967001Y-100582999D01*
X187490000Y-92860000D02*
X187967001Y-93337001D01*
X179567001Y-67782999D02*
X179090000Y-68260000D01*
X179567001Y-52337001D02*
X179567001Y-67782999D01*
X179090000Y-51860000D02*
X179567001Y-52337001D01*
X181500000Y-49450000D02*
X179090000Y-51860000D01*
X181500000Y-34000000D02*
X181500000Y-49450000D01*
X181500000Y-34000000D02*
X185300000Y-30200000D01*
X187490000Y-78690000D02*
X187490000Y-84660000D01*
X179567001Y-70767001D02*
X187490000Y-78690000D01*
X179567001Y-68737001D02*
X179567001Y-70767001D01*
X179090000Y-68260000D02*
X179567001Y-68737001D01*
%TO.N,RE3_1*%
X215100000Y-49450000D02*
X212690000Y-51860000D01*
X213167001Y-68737001D02*
X213167001Y-76737001D01*
X213167001Y-76737001D02*
X221090000Y-84660000D01*
X212690000Y-68260000D02*
X213167001Y-68737001D01*
X221567001Y-100582999D02*
X221090000Y-101060000D01*
X221567001Y-85137001D02*
X221567001Y-100582999D01*
X221090000Y-84660000D02*
X221567001Y-85137001D01*
X215100000Y-46700000D02*
X215100000Y-49450000D01*
X215100000Y-34000000D02*
X215100000Y-46700000D01*
X213200000Y-67750000D02*
X212690000Y-68260000D01*
X213200000Y-52370000D02*
X213200000Y-67750000D01*
X212690000Y-51860000D02*
X213200000Y-52370000D01*
%TO.N,RE4_1*%
X255640000Y-68260000D02*
X260900000Y-63000000D01*
X254690000Y-68260000D02*
X255640000Y-68260000D01*
X238367001Y-100582999D02*
X237890000Y-101060000D01*
X238367001Y-85137001D02*
X238367001Y-100582999D01*
X237890000Y-84660000D02*
X238367001Y-85137001D01*
X237890000Y-84660000D02*
X230900000Y-77670000D01*
X230900000Y-69800000D02*
X233100000Y-67600000D01*
X230900000Y-77670000D02*
X230900000Y-69800000D01*
X237432838Y-35460000D02*
X237890000Y-35460000D01*
X234300000Y-38592838D02*
X237432838Y-35460000D01*
X234300000Y-47050000D02*
X234300000Y-38592838D01*
X229490000Y-51860000D02*
X234300000Y-47050000D01*
X230300000Y-55200000D02*
X233100000Y-58000000D01*
X230300000Y-52670000D02*
X230300000Y-55200000D01*
X233100000Y-58000000D02*
X233100000Y-67600000D01*
X229490000Y-51860000D02*
X230300000Y-52670000D01*
%TO.N,RE5_1*%
X288767001Y-100582999D02*
X288290000Y-101060000D01*
X288767001Y-93337001D02*
X288767001Y-100582999D01*
X288290000Y-92860000D02*
X288767001Y-93337001D01*
X288290000Y-90390000D02*
X282900000Y-85000000D01*
X288290000Y-92860000D02*
X288290000Y-90390000D01*
X271967001Y-38560161D02*
X271967001Y-35937001D01*
X271422870Y-46270985D02*
X271422870Y-39104292D01*
X271422870Y-39104292D02*
X271967001Y-38560161D01*
X271967001Y-35937001D02*
X271490000Y-35460000D01*
X277025942Y-51874058D02*
X271422870Y-46270985D01*
X278300000Y-80400000D02*
X278300000Y-68500000D01*
X276612990Y-56516172D02*
X276612990Y-66812990D01*
X276612990Y-66812990D02*
X278300000Y-68500000D01*
X282900000Y-85000000D02*
X278300000Y-80400000D01*
X277617001Y-52465116D02*
X277617001Y-55512161D01*
X277617001Y-55512161D02*
X276612990Y-56516172D01*
X277025942Y-51874058D02*
X277617001Y-52465116D01*
%TO.N,Net-(D94-Pad1)*%
X288767001Y-51382999D02*
X288290000Y-51860000D01*
X288767001Y-35937001D02*
X288767001Y-51382999D01*
X288290000Y-35460000D02*
X288767001Y-35937001D01*
X281547001Y-77917001D02*
X288290000Y-84660000D01*
X281547001Y-53148999D02*
X281547001Y-77917001D01*
X282836000Y-51860000D02*
X281547001Y-53148999D01*
X284090000Y-51860000D02*
X282836000Y-51860000D01*
X289100000Y-91550000D02*
X289100000Y-85470000D01*
X289617010Y-92067010D02*
X289100000Y-91550000D01*
X289617010Y-94082990D02*
X289617010Y-92067010D01*
X289100000Y-85470000D02*
X288290000Y-84660000D01*
X289500000Y-94200000D02*
X289617010Y-94082990D01*
%TO.N,SCL*%
X130850000Y-51650000D02*
X131350000Y-51150000D01*
X131350000Y-46364030D02*
X126500000Y-41514030D01*
X131350000Y-51150000D02*
X131350000Y-46364030D01*
X121617010Y-28357010D02*
X115260000Y-22000000D01*
X121617010Y-29343980D02*
X121617010Y-28357010D01*
X121328988Y-29632002D02*
X121617010Y-29343980D01*
X126500000Y-35250000D02*
X125521012Y-34271012D01*
X126500000Y-41514030D02*
X126500000Y-35250000D01*
X121328988Y-32800218D02*
X121328988Y-29632002D01*
X125521012Y-34271012D02*
X122799781Y-34271011D01*
X122799781Y-34271011D02*
X121328988Y-32800218D01*
X117428988Y-51628988D02*
X115778586Y-51628987D01*
X120000000Y-54200000D02*
X117428988Y-51628988D01*
X115778586Y-51628987D02*
X114532990Y-50383391D01*
X114532990Y-50383391D02*
X114532990Y-48770835D01*
X114532990Y-48770835D02*
X113062155Y-47300000D01*
X113062155Y-47300000D02*
X112400004Y-47300000D01*
%TO.N,SDA*%
X121782999Y-32612161D02*
X122987839Y-33817001D01*
X126954011Y-41325973D02*
X131825001Y-46196963D01*
X117800000Y-22000000D02*
X122071021Y-26271021D01*
X122071021Y-26271021D02*
X122071021Y-29532037D01*
X122987839Y-33817001D02*
X125709068Y-33817002D01*
X126954010Y-35061942D02*
X126954011Y-41325973D01*
X121782999Y-29820059D02*
X121782999Y-32612161D01*
X131825001Y-46196963D02*
X131825001Y-51624999D01*
X125709068Y-33817002D02*
X126954010Y-35061942D01*
X122071021Y-29532037D02*
X121782999Y-29820059D01*
X115590528Y-52082997D02*
X114078979Y-50571448D01*
X116775410Y-52082998D02*
X115590528Y-52082997D01*
X112091177Y-47927002D02*
X111383872Y-47219697D01*
X113047089Y-47927002D02*
X112091177Y-47927002D01*
X114078979Y-48958892D02*
X113047089Y-47927002D01*
X114078979Y-50571448D02*
X114078979Y-48958892D01*
X119192412Y-54500000D02*
X116775410Y-52082998D01*
%TO.N,RE2_A*%
X163200000Y-56200000D02*
X162600000Y-56800000D01*
X163200000Y-53228770D02*
X163200000Y-56200000D01*
X165645989Y-50782781D02*
X163200000Y-53228770D01*
X165645989Y-30354011D02*
X165645989Y-50782781D01*
X167000000Y-29000000D02*
X165645989Y-30354011D01*
X113624968Y-53045870D02*
X113624968Y-49432843D01*
X113382999Y-55512161D02*
X113382999Y-53287839D01*
X118700000Y-56800006D02*
X118672993Y-56772999D01*
X113382999Y-53287839D02*
X113624968Y-53045870D01*
X114643837Y-56772999D02*
X113382999Y-55512161D01*
X113624968Y-49432843D02*
X113340831Y-49148706D01*
X118672993Y-56772999D02*
X114643837Y-56772999D01*
%TO.N,RE2_B*%
X163654011Y-53416827D02*
X163654011Y-56645989D01*
X167000000Y-50070838D02*
X163654011Y-53416827D01*
X163654011Y-56645989D02*
X163500000Y-56800000D01*
X167000000Y-34000000D02*
X167000000Y-50070838D01*
X117825000Y-57400000D02*
X114628770Y-57400000D01*
X112928988Y-53099782D02*
X112997952Y-53030818D01*
X114628770Y-57400000D02*
X112928988Y-55700218D01*
X112928988Y-55700218D02*
X112928988Y-53099782D01*
X112997952Y-53030818D02*
X112997952Y-50320957D01*
%TO.N,AUDIO*%
X77307304Y-63142696D02*
X73807324Y-59642716D01*
X73807324Y-59642716D02*
X73807324Y-59509490D01*
X33747001Y-34647001D02*
X33747001Y-54847003D01*
X33747001Y-54847003D02*
X38399999Y-59500001D01*
X29500000Y-30400000D02*
X33747001Y-34647001D01*
%TO.N,RESET*%
X106539510Y-53460490D02*
X106539510Y-43200000D01*
X100250000Y-59750000D02*
X106539510Y-53460490D01*
X104983000Y-36962126D02*
X104983000Y-39133002D01*
X104983000Y-39133002D02*
X106524998Y-40675000D01*
X107650000Y-34295126D02*
X104983000Y-36962126D01*
X107650000Y-34275000D02*
X107650000Y-34295126D01*
%TO.N,Net-(JP_LED1-Pad3)*%
X163925000Y-23650000D02*
X163925000Y-24850000D01*
X161625000Y-21350000D02*
X163925000Y-23650000D01*
X133275000Y-21350000D02*
X161625000Y-21350000D01*
X132075000Y-21350000D02*
X133275000Y-21350000D01*
%TO.N,Net-(JP_LED1-Pad2)*%
X48075000Y-20175000D02*
X48899999Y-19350001D01*
X48075000Y-21350000D02*
X48075000Y-20175000D01*
%TO.N,Net-(JP_LED1-Pad1)*%
X96725000Y-24850000D02*
X96725000Y-23425000D01*
X96725000Y-23425000D02*
X96736735Y-23413265D01*
%TO.N,Net-(L1-Pad1)*%
X75200000Y-24450000D02*
X75600000Y-24850000D01*
X72250000Y-24450000D02*
X75200000Y-24450000D01*
X75600000Y-24850000D02*
X76825000Y-24850000D01*
X70575000Y-22775000D02*
X72250000Y-24450000D01*
X70575000Y-21350000D02*
X70575000Y-22775000D01*
%TO.N,Net-(L4-Pad1)*%
X130325000Y-23600000D02*
X130325000Y-24850000D01*
X127547999Y-20822999D02*
X130325000Y-23600000D01*
X99777001Y-20822999D02*
X127547999Y-20822999D01*
X99250000Y-21350000D02*
X99777001Y-20822999D01*
X98475000Y-21350000D02*
X99250000Y-21350000D01*
%TO.N,Net-(L6-Pad1)*%
X165675000Y-21350000D02*
X195375000Y-21350000D01*
X197525000Y-23500000D02*
X197525000Y-24850000D01*
X195375000Y-21350000D02*
X197525000Y-23500000D01*
%TO.N,Net-(L7-Pad1)*%
X199275000Y-21350000D02*
X228950000Y-21350000D01*
X231125000Y-23525000D02*
X231125000Y-24850000D01*
X228950000Y-21350000D02*
X231125000Y-23525000D01*
%TO.N,Net-(L8-Pad1)*%
X232875000Y-21350000D02*
X262400000Y-21350000D01*
X264725000Y-23675000D02*
X264725000Y-24850000D01*
X262400000Y-21350000D02*
X264725000Y-23675000D01*
%TD*%
%TO.N,GND*%
X39673000Y-23971909D02*
X32100500Y-23907125D01*
X32100500Y-23285000D01*
X32219552Y-23285000D01*
X32405022Y-23248108D01*
X32550000Y-23188056D01*
X32694978Y-23248108D01*
X32880448Y-23285000D01*
X33069552Y-23285000D01*
X33255022Y-23248108D01*
X33400000Y-23188056D01*
X33544978Y-23248108D01*
X33730448Y-23285000D01*
X33919552Y-23285000D01*
X34105022Y-23248108D01*
X34250000Y-23188056D01*
X34394978Y-23248108D01*
X34580448Y-23285000D01*
X34769552Y-23285000D01*
X34955022Y-23248108D01*
X35100000Y-23188056D01*
X35244978Y-23248108D01*
X35430448Y-23285000D01*
X35619552Y-23285000D01*
X35805022Y-23248108D01*
X35950420Y-23187882D01*
X36089992Y-23246581D01*
X36275260Y-23284475D01*
X36464361Y-23285497D01*
X36650028Y-23249608D01*
X36825126Y-23178187D01*
X36834323Y-23173270D01*
X36847931Y-22977536D01*
X36452639Y-22582244D01*
X36485000Y-22419552D01*
X36485000Y-22230448D01*
X36484171Y-22226281D01*
X36568748Y-22310858D01*
X36554605Y-22325000D01*
X36656095Y-22426490D01*
X36675108Y-22471343D01*
X36806940Y-22665169D01*
X36974052Y-22829552D01*
X37170023Y-22958174D01*
X37387321Y-23046093D01*
X37414627Y-23046776D01*
X37598000Y-22921392D01*
X37598000Y-21472000D01*
X37852000Y-21472000D01*
X37852000Y-22921392D01*
X38035373Y-23046776D01*
X38062679Y-23046093D01*
X38279977Y-22958174D01*
X38475948Y-22829552D01*
X38643060Y-22665169D01*
X38774892Y-22471343D01*
X38866377Y-22255522D01*
X38914000Y-22026000D01*
X38914000Y-21472000D01*
X37852000Y-21472000D01*
X37598000Y-21472000D01*
X37578000Y-21472000D01*
X37578000Y-21218000D01*
X37598000Y-21218000D01*
X37598000Y-21198000D01*
X37852000Y-21198000D01*
X37852000Y-21218000D01*
X38914000Y-21218000D01*
X38914000Y-20671990D01*
X39673000Y-20671990D01*
X39673000Y-23971909D01*
%TA.AperFunction,Conductor*%
D27*
G36*
X39673000Y-23971909D02*
G01*
X32100500Y-23907125D01*
X32100500Y-23285000D01*
X32219552Y-23285000D01*
X32405022Y-23248108D01*
X32550000Y-23188056D01*
X32694978Y-23248108D01*
X32880448Y-23285000D01*
X33069552Y-23285000D01*
X33255022Y-23248108D01*
X33400000Y-23188056D01*
X33544978Y-23248108D01*
X33730448Y-23285000D01*
X33919552Y-23285000D01*
X34105022Y-23248108D01*
X34250000Y-23188056D01*
X34394978Y-23248108D01*
X34580448Y-23285000D01*
X34769552Y-23285000D01*
X34955022Y-23248108D01*
X35100000Y-23188056D01*
X35244978Y-23248108D01*
X35430448Y-23285000D01*
X35619552Y-23285000D01*
X35805022Y-23248108D01*
X35950420Y-23187882D01*
X36089992Y-23246581D01*
X36275260Y-23284475D01*
X36464361Y-23285497D01*
X36650028Y-23249608D01*
X36825126Y-23178187D01*
X36834323Y-23173270D01*
X36847931Y-22977536D01*
X36452639Y-22582244D01*
X36485000Y-22419552D01*
X36485000Y-22230448D01*
X36484171Y-22226281D01*
X36568748Y-22310858D01*
X36554605Y-22325000D01*
X36656095Y-22426490D01*
X36675108Y-22471343D01*
X36806940Y-22665169D01*
X36974052Y-22829552D01*
X37170023Y-22958174D01*
X37387321Y-23046093D01*
X37414627Y-23046776D01*
X37598000Y-22921392D01*
X37598000Y-21472000D01*
X37852000Y-21472000D01*
X37852000Y-22921392D01*
X38035373Y-23046776D01*
X38062679Y-23046093D01*
X38279977Y-22958174D01*
X38475948Y-22829552D01*
X38643060Y-22665169D01*
X38774892Y-22471343D01*
X38866377Y-22255522D01*
X38914000Y-22026000D01*
X38914000Y-21472000D01*
X37852000Y-21472000D01*
X37598000Y-21472000D01*
X37578000Y-21472000D01*
X37578000Y-21218000D01*
X37598000Y-21218000D01*
X37598000Y-21198000D01*
X37852000Y-21198000D01*
X37852000Y-21218000D01*
X38914000Y-21218000D01*
X38914000Y-20671990D01*
X39673000Y-20671990D01*
X39673000Y-23971909D01*
G37*
%TD.AperFunction*%
D26*
X36536000Y-17838000D02*
X37598000Y-17838000D01*
X37598000Y-17818000D01*
X37852000Y-17818000D01*
X37852000Y-17838000D01*
X38808230Y-17838000D01*
X38840934Y-17855389D01*
X38906737Y-17882511D01*
X38972102Y-17910526D01*
X38982572Y-17913768D01*
X39075990Y-17941973D01*
X39145776Y-17955791D01*
X39215383Y-17970586D01*
X39226284Y-17971732D01*
X39323401Y-17981254D01*
X39323406Y-17981254D01*
X39361439Y-17985000D01*
X39673000Y-17985000D01*
X39673000Y-18704710D01*
X39573738Y-18803972D01*
X39471414Y-18957111D01*
X39444955Y-19020990D01*
X38804714Y-19020990D01*
X38866377Y-18875522D01*
X38914000Y-18646000D01*
X38914000Y-18092000D01*
X37852000Y-18092000D01*
X37852000Y-18112000D01*
X37598000Y-18112000D01*
X37598000Y-18092000D01*
X36536000Y-18092000D01*
X36536000Y-18646000D01*
X36583623Y-18875522D01*
X36645286Y-19020990D01*
X36234441Y-19020990D01*
X36193891Y-19016996D01*
X36153340Y-19020990D01*
X36153338Y-19020990D01*
X36032065Y-19032934D01*
X35876457Y-19080137D01*
X35733048Y-19156791D01*
X35638849Y-19234098D01*
X35638846Y-19234101D01*
X35607350Y-19259949D01*
X35581501Y-19291446D01*
X35427358Y-19445590D01*
X35309671Y-19433999D01*
X35309668Y-19433999D01*
X35269118Y-19430005D01*
X35228568Y-19433999D01*
X31571432Y-19433999D01*
X31530882Y-19430005D01*
X31490331Y-19433999D01*
X31490329Y-19433999D01*
X31369056Y-19445943D01*
X31213448Y-19493146D01*
X31070040Y-19569800D01*
X30944341Y-19672958D01*
X30918488Y-19704460D01*
X30719960Y-19902988D01*
X30688460Y-19928840D01*
X30604012Y-20031739D01*
X30524740Y-20015525D01*
X30335639Y-20014503D01*
X30149972Y-20050392D01*
X30040748Y-20094944D01*
X29993060Y-20024831D01*
X29825948Y-19860448D01*
X29629977Y-19731826D01*
X29440096Y-19655000D01*
X29629977Y-19578174D01*
X29825948Y-19449552D01*
X29993060Y-19285169D01*
X30124892Y-19091343D01*
X30216377Y-18875522D01*
X30264000Y-18646000D01*
X30264000Y-18092000D01*
X29202000Y-18092000D01*
X29202000Y-19541392D01*
X29368151Y-19655000D01*
X29202000Y-19768608D01*
X29202000Y-21218000D01*
X29222000Y-21218000D01*
X29222000Y-21472000D01*
X29202000Y-21472000D01*
X29202000Y-22921392D01*
X29385373Y-23046776D01*
X29412679Y-23046093D01*
X29629977Y-22958174D01*
X29825948Y-22829552D01*
X29993060Y-22665169D01*
X30124892Y-22471343D01*
X30143905Y-22426490D01*
X30245395Y-22325000D01*
X30231253Y-22310858D01*
X30315829Y-22226281D01*
X30315000Y-22230448D01*
X30315000Y-22419552D01*
X30347361Y-22582244D01*
X29952069Y-22977536D01*
X29965677Y-23173270D01*
X30139992Y-23246581D01*
X30325260Y-23284475D01*
X30449500Y-23285146D01*
X30449500Y-23893001D01*
X26775559Y-23861570D01*
X26748054Y-21472000D01*
X27886000Y-21472000D01*
X27886000Y-22026000D01*
X27933623Y-22255522D01*
X28025108Y-22471343D01*
X28156940Y-22665169D01*
X28324052Y-22829552D01*
X28520023Y-22958174D01*
X28737321Y-23046093D01*
X28764627Y-23046776D01*
X28948000Y-22921392D01*
X28948000Y-21472000D01*
X27886000Y-21472000D01*
X26748054Y-21472000D01*
X26709147Y-18092000D01*
X27886000Y-18092000D01*
X27886000Y-18646000D01*
X27933623Y-18875522D01*
X28025108Y-19091343D01*
X28156940Y-19285169D01*
X28324052Y-19449552D01*
X28520023Y-19578174D01*
X28709904Y-19655000D01*
X28520023Y-19731826D01*
X28324052Y-19860448D01*
X28156940Y-20024831D01*
X28025108Y-20218657D01*
X27933623Y-20434478D01*
X27886000Y-20664000D01*
X27886000Y-21218000D01*
X28948000Y-21218000D01*
X28948000Y-19768608D01*
X28781849Y-19655000D01*
X28948000Y-19541392D01*
X28948000Y-18092000D01*
X27886000Y-18092000D01*
X26709147Y-18092000D01*
X26707915Y-17985000D01*
X27438561Y-17985000D01*
X27471695Y-17981736D01*
X27474637Y-17981757D01*
X27485545Y-17980688D01*
X27533317Y-17975667D01*
X27553887Y-17973641D01*
X27554573Y-17973433D01*
X27582593Y-17970488D01*
X27652309Y-17956178D01*
X27722176Y-17942849D01*
X27732669Y-17939682D01*
X27825888Y-17910826D01*
X27891507Y-17883242D01*
X27957449Y-17856599D01*
X27967119Y-17851458D01*
X27967122Y-17851457D01*
X27967124Y-17851455D01*
X27967127Y-17851454D01*
X27992009Y-17838000D01*
X28948000Y-17838000D01*
X28948000Y-17818000D01*
X29202000Y-17818000D01*
X29202000Y-17838000D01*
X30264000Y-17838000D01*
X30264000Y-17485000D01*
X36536000Y-17485000D01*
X36536000Y-17838000D01*
%TA.AperFunction,Conductor*%
D27*
G36*
X36536000Y-17838000D02*
G01*
X37598000Y-17838000D01*
X37598000Y-17818000D01*
X37852000Y-17818000D01*
X37852000Y-17838000D01*
X38808230Y-17838000D01*
X38840934Y-17855389D01*
X38906737Y-17882511D01*
X38972102Y-17910526D01*
X38982572Y-17913768D01*
X39075990Y-17941973D01*
X39145776Y-17955791D01*
X39215383Y-17970586D01*
X39226284Y-17971732D01*
X39323401Y-17981254D01*
X39323406Y-17981254D01*
X39361439Y-17985000D01*
X39673000Y-17985000D01*
X39673000Y-18704710D01*
X39573738Y-18803972D01*
X39471414Y-18957111D01*
X39444955Y-19020990D01*
X38804714Y-19020990D01*
X38866377Y-18875522D01*
X38914000Y-18646000D01*
X38914000Y-18092000D01*
X37852000Y-18092000D01*
X37852000Y-18112000D01*
X37598000Y-18112000D01*
X37598000Y-18092000D01*
X36536000Y-18092000D01*
X36536000Y-18646000D01*
X36583623Y-18875522D01*
X36645286Y-19020990D01*
X36234441Y-19020990D01*
X36193891Y-19016996D01*
X36153340Y-19020990D01*
X36153338Y-19020990D01*
X36032065Y-19032934D01*
X35876457Y-19080137D01*
X35733048Y-19156791D01*
X35638849Y-19234098D01*
X35638846Y-19234101D01*
X35607350Y-19259949D01*
X35581501Y-19291446D01*
X35427358Y-19445590D01*
X35309671Y-19433999D01*
X35309668Y-19433999D01*
X35269118Y-19430005D01*
X35228568Y-19433999D01*
X31571432Y-19433999D01*
X31530882Y-19430005D01*
X31490331Y-19433999D01*
X31490329Y-19433999D01*
X31369056Y-19445943D01*
X31213448Y-19493146D01*
X31070040Y-19569800D01*
X30944341Y-19672958D01*
X30918488Y-19704460D01*
X30719960Y-19902988D01*
X30688460Y-19928840D01*
X30604012Y-20031739D01*
X30524740Y-20015525D01*
X30335639Y-20014503D01*
X30149972Y-20050392D01*
X30040748Y-20094944D01*
X29993060Y-20024831D01*
X29825948Y-19860448D01*
X29629977Y-19731826D01*
X29440096Y-19655000D01*
X29629977Y-19578174D01*
X29825948Y-19449552D01*
X29993060Y-19285169D01*
X30124892Y-19091343D01*
X30216377Y-18875522D01*
X30264000Y-18646000D01*
X30264000Y-18092000D01*
X29202000Y-18092000D01*
X29202000Y-19541392D01*
X29368151Y-19655000D01*
X29202000Y-19768608D01*
X29202000Y-21218000D01*
X29222000Y-21218000D01*
X29222000Y-21472000D01*
X29202000Y-21472000D01*
X29202000Y-22921392D01*
X29385373Y-23046776D01*
X29412679Y-23046093D01*
X29629977Y-22958174D01*
X29825948Y-22829552D01*
X29993060Y-22665169D01*
X30124892Y-22471343D01*
X30143905Y-22426490D01*
X30245395Y-22325000D01*
X30231253Y-22310858D01*
X30315829Y-22226281D01*
X30315000Y-22230448D01*
X30315000Y-22419552D01*
X30347361Y-22582244D01*
X29952069Y-22977536D01*
X29965677Y-23173270D01*
X30139992Y-23246581D01*
X30325260Y-23284475D01*
X30449500Y-23285146D01*
X30449500Y-23893001D01*
X26775559Y-23861570D01*
X26748054Y-21472000D01*
X27886000Y-21472000D01*
X27886000Y-22026000D01*
X27933623Y-22255522D01*
X28025108Y-22471343D01*
X28156940Y-22665169D01*
X28324052Y-22829552D01*
X28520023Y-22958174D01*
X28737321Y-23046093D01*
X28764627Y-23046776D01*
X28948000Y-22921392D01*
X28948000Y-21472000D01*
X27886000Y-21472000D01*
X26748054Y-21472000D01*
X26709147Y-18092000D01*
X27886000Y-18092000D01*
X27886000Y-18646000D01*
X27933623Y-18875522D01*
X28025108Y-19091343D01*
X28156940Y-19285169D01*
X28324052Y-19449552D01*
X28520023Y-19578174D01*
X28709904Y-19655000D01*
X28520023Y-19731826D01*
X28324052Y-19860448D01*
X28156940Y-20024831D01*
X28025108Y-20218657D01*
X27933623Y-20434478D01*
X27886000Y-20664000D01*
X27886000Y-21218000D01*
X28948000Y-21218000D01*
X28948000Y-19768608D01*
X28781849Y-19655000D01*
X28948000Y-19541392D01*
X28948000Y-18092000D01*
X27886000Y-18092000D01*
X26709147Y-18092000D01*
X26707915Y-17985000D01*
X27438561Y-17985000D01*
X27471695Y-17981736D01*
X27474637Y-17981757D01*
X27485545Y-17980688D01*
X27533317Y-17975667D01*
X27553887Y-17973641D01*
X27554573Y-17973433D01*
X27582593Y-17970488D01*
X27652309Y-17956178D01*
X27722176Y-17942849D01*
X27732669Y-17939682D01*
X27825888Y-17910826D01*
X27891507Y-17883242D01*
X27957449Y-17856599D01*
X27967119Y-17851458D01*
X27967122Y-17851457D01*
X27967124Y-17851455D01*
X27967127Y-17851454D01*
X27992009Y-17838000D01*
X28948000Y-17838000D01*
X28948000Y-17818000D01*
X29202000Y-17818000D01*
X29202000Y-17838000D01*
X30264000Y-17838000D01*
X30264000Y-17485000D01*
X36536000Y-17485000D01*
X36536000Y-17838000D01*
G37*
%TD.AperFunction*%
D26*
X30315000Y-20880448D02*
X30315000Y-21069552D01*
X30315829Y-21073719D01*
X30264000Y-21021890D01*
X30264000Y-20928110D01*
X30315829Y-20876281D01*
X30315000Y-20880448D01*
%TA.AperFunction,Conductor*%
D27*
G36*
X30315000Y-20880448D02*
G01*
X30315000Y-21069552D01*
X30315829Y-21073719D01*
X30264000Y-21021890D01*
X30264000Y-20928110D01*
X30315829Y-20876281D01*
X30315000Y-20880448D01*
G37*
%TD.AperFunction*%
D26*
X36536000Y-20928110D02*
X36536000Y-21021890D01*
X36484171Y-21073719D01*
X36485000Y-21069552D01*
X36485000Y-20880448D01*
X36484171Y-20876281D01*
X36536000Y-20928110D01*
%TA.AperFunction,Conductor*%
D27*
G36*
X36536000Y-20928110D02*
G01*
X36536000Y-21021890D01*
X36484171Y-21073719D01*
X36485000Y-21069552D01*
X36485000Y-20880448D01*
X36484171Y-20876281D01*
X36536000Y-20928110D01*
G37*
%TD.AperFunction*%
%TD*%
M02*
