M48
; DRILL file {KiCad (5.1.9-0-10_14)} date Sunday, January 10, 2021 at 02:58:03 PM
; FORMAT={-:-/ absolute / metric / decimal}
; #@! TF.CreationDate,2021-01-10T14:58:03+09:00
; #@! TF.GenerationSoftware,Kicad,Pcbnew,(5.1.9-0-10_14)
FMAT,2
METRIC
T1C0.400
T2C0.500
T3C0.600
T4C0.813
T5C1.000
T6C1.500
T7C2.499
T8C2.499
T9C1.600
T10C1.680
T11C2.100
T12C2.140
T13C3.980
%
G90
G05
T1
X18.9Y-30.2
X20.9Y-25.4
X21.0Y-18.3
X25.35Y-25.4
X30.425Y-20.975
X30.425Y-22.325
X31.275Y-20.975
X31.275Y-22.325
X31.6Y-27.7
X32.125Y-20.975
X32.125Y-22.325
X32.975Y-20.975
X32.975Y-22.325
X33.825Y-20.975
X33.825Y-22.325
X34.675Y-20.975
X34.675Y-22.325
X35.0Y-29.05
X35.525Y-20.975
X35.525Y-22.325
X36.375Y-20.975
X36.375Y-22.325
X36.8Y-65.8
X38.05Y-51.0
X38.4Y-59.5
X40.3Y-19.4
X40.55Y-28.774
X41.05Y-27.0
X44.067Y-84.633
X46.3Y-18.0
X49.0Y-20.7
X51.5Y-25.6
X56.1Y-44.15
X58.2Y-44.8
X61.0Y-46.6
X66.1Y-18.9
X66.6Y-20.5
X73.807Y-59.509
X75.7Y-60.2
X77.307Y-63.143
X77.8Y-62.3
X81.214Y-18.473
X81.5Y-21.8
X82.3Y-51.2
X83.3Y-47.6
X83.7Y-68.6
X84.7Y-63.3
X85.773Y-50.327
X86.85Y-63.55
X87.167Y-51.867
X89.95Y-49.4
X92.16Y-63.99
X93.689Y-48.44
X96.8Y-48.3
X96.8Y-46.95
X97.0Y-19.8
X98.1Y-41.2
X98.627Y-66.727
X99.2Y-64.7
X99.4Y-46.95
X99.6Y-24.1
X100.243Y-81.193
X100.25Y-59.75
X100.3Y-25.5
X100.8Y-21.5
X100.973Y-26.7
X101.15Y-59.75
X101.6Y-19.1
X101.8Y-60.45
X102.427Y-58.977
X102.5Y-39.4
X102.664Y-40.451
X102.713Y-41.387
X102.9Y-51.7
X103.1Y-59.5
X103.8Y-58.95
X104.671Y-39.729
X104.819Y-27.881
X105.15Y-83.2
X105.264Y-40.266
X105.7Y-26.6
X106.6Y-58.0
X107.75Y-44.65
X107.819Y-41.978
X108.0Y-59.4
X108.7Y-44.8
X108.907Y-97.593
X109.7Y-58.3
X110.149Y-46.636
X111.8Y-47.4
X112.012Y-51.357
X112.3Y-48.1
X112.3Y-63.7
X112.491Y-48.899
X112.661Y-50.889
X113.107Y-49.409
X117.4Y-58.8
X117.6Y-57.9
X118.1Y-53.371
X118.6Y-52.7
X119.7Y-63.7
X120.0Y-98.6
X120.079Y-52.579
X120.5Y-61.3
X121.1Y-79.4
X121.9Y-50.65
X122.6Y-76.5
X125.9Y-49.4
X126.2Y-50.327
X130.0Y-61.3
X130.5Y-49.4
X155.6Y-96.0
X162.6Y-56.8
X163.5Y-56.8
X164.0Y-19.0
X167.05Y-20.7
X185.3Y-30.2
X196.6Y-57.5
X197.2Y-58.2
X200.0Y-98.6
X200.45Y-20.7
X208.7Y-58.6
X209.35Y-41.65
X209.5Y-59.3
X210.4Y-41.7
X215.1Y-46.7
X223.1Y-60.0
X223.8Y-60.7
X228.2Y-41.6
X229.2Y-41.6
X232.236Y-39.554
X233.1Y-67.6
X233.2Y-39.6
X233.95Y-20.7
X260.9Y-63.0
X265.193Y-40.52
X266.05Y-40.55
X267.5Y-20.7
X267.962Y-26.538
X272.9Y-30.3
X277.026Y-51.874
X278.633Y-68.267
X281.547Y-68.253
X282.9Y-85.0
X286.6Y-73.6
X286.6Y-76.1
X289.55Y-93.95
T2
X16.95Y-71.55
X16.958Y-75.9
X19.0Y-71.55
X19.0Y-75.9
X20.55Y-72.2
X20.55Y-75.2
X21.15Y-73.7
X38.5Y-45.1
X39.05Y-43.75
X39.05Y-46.4
X40.4Y-43.2
X40.4Y-47.0
X41.65Y-43.75
X41.65Y-46.45
X42.3Y-45.1
X142.2Y-62.35
X142.2Y-66.1
X143.4Y-62.35
X143.4Y-66.1
X144.6Y-62.35
X144.6Y-66.1
X204.5Y-104.25
X204.55Y-100.55
X205.7Y-104.25
X205.75Y-100.55
X206.9Y-104.25
X206.95Y-100.55
X274.05Y-43.25
X274.05Y-46.95
X275.25Y-43.25
X275.25Y-46.95
X276.45Y-43.233
X276.45Y-46.95
X294.25Y-73.7
X294.85Y-72.2
X294.85Y-75.2
X296.4Y-71.5
X296.4Y-75.85
X298.442Y-71.5
X298.45Y-75.85
T4
X111.89Y-19.8
X114.43Y-19.8
X116.97Y-19.8
X119.51Y-19.8
T5
X49.4Y-29.0
X49.4Y-31.5
X49.4Y-34.0
X63.9Y-29.0
X63.9Y-34.0
X167.0Y-29.0
X167.0Y-31.5
X167.0Y-34.0
X181.5Y-29.0
X181.5Y-34.0
X200.6Y-29.0
X200.6Y-31.5
X200.6Y-34.0
X215.1Y-29.0
X215.1Y-34.0
X234.2Y-29.0
X234.2Y-31.5
X234.2Y-34.0
X248.7Y-29.0
X248.7Y-34.0
X267.8Y-29.0
X267.8Y-31.5
X267.8Y-34.0
X282.3Y-29.0
X282.3Y-34.0
T8
X40.4Y-45.1
T10
X18.22Y-38.0
X18.22Y-54.4
X18.22Y-70.8
X18.22Y-87.2
X18.22Y-103.6
X18.8Y-38.0
X18.8Y-54.4
X18.8Y-70.8
X18.8Y-87.2
X18.8Y-103.6
X22.42Y-54.4
X22.42Y-70.8
X23.0Y-54.4
X23.0Y-70.8
X26.62Y-87.2
X26.62Y-103.6
X27.2Y-87.2
X27.2Y-103.6
X27.8Y-38.0
X27.8Y-54.4
X27.8Y-70.8
X27.8Y-87.2
X27.8Y-103.6
X28.38Y-38.0
X28.38Y-54.4
X28.38Y-70.8
X28.38Y-87.2
X28.38Y-103.6
X32.0Y-54.4
X32.0Y-70.8
X32.58Y-54.4
X32.58Y-70.8
X35.02Y-38.0
X35.02Y-54.4
X35.02Y-70.8
X35.02Y-87.2
X35.02Y-103.6
X35.6Y-38.0
X35.6Y-54.4
X35.6Y-70.8
X35.6Y-87.2
X35.6Y-103.6
X36.2Y-87.2
X36.2Y-103.6
X36.78Y-87.2
X36.78Y-103.6
X43.42Y-54.4
X43.42Y-70.8
X44.0Y-54.4
X44.0Y-70.8
X44.6Y-38.0
X44.6Y-54.4
X44.6Y-70.8
X44.6Y-87.2
X44.6Y-103.6
X45.18Y-38.0
X45.18Y-54.4
X45.18Y-70.8
X45.18Y-87.2
X45.18Y-103.6
X51.82Y-38.0
X51.82Y-54.4
X51.82Y-70.8
X51.82Y-87.2
X51.82Y-103.6
X52.4Y-38.0
X52.4Y-54.4
X52.4Y-70.8
X52.4Y-87.2
X52.4Y-103.6
X53.0Y-54.4
X53.0Y-70.8
X53.58Y-54.4
X53.58Y-70.8
X56.02Y-103.6
X56.6Y-103.6
X60.22Y-54.4
X60.22Y-70.8
X60.8Y-54.4
X60.8Y-70.8
X61.4Y-38.0
X61.4Y-54.4
X61.4Y-70.8
X61.4Y-87.2
X61.4Y-103.6
X61.98Y-38.0
X61.98Y-54.4
X61.98Y-70.8
X61.98Y-87.2
X61.98Y-103.6
X65.6Y-103.6
X66.18Y-103.6
X68.62Y-38.0
X68.62Y-54.4
X68.62Y-70.8
X68.62Y-87.2
X68.62Y-95.4
X68.62Y-103.6
X69.2Y-38.0
X69.2Y-54.4
X69.2Y-70.8
X69.2Y-87.2
X69.2Y-95.4
X69.2Y-103.6
X69.8Y-54.4
X69.8Y-70.8
X70.38Y-54.4
X70.38Y-70.8
X72.82Y-103.6
X73.4Y-103.6
X77.02Y-54.4
X77.02Y-70.8
X77.6Y-54.4
X77.6Y-70.8
X78.2Y-38.0
X78.2Y-54.4
X78.2Y-70.8
X78.2Y-87.2
X78.2Y-95.4
X78.2Y-103.6
X78.78Y-38.0
X78.78Y-54.4
X78.78Y-70.8
X78.78Y-87.2
X78.78Y-95.4
X78.78Y-103.6
X81.22Y-103.6
X81.8Y-103.6
X82.4Y-103.6
X82.98Y-103.6
X85.42Y-31.5
X85.42Y-38.0
X85.42Y-87.2
X85.42Y-103.6
X86.0Y-31.5
X86.0Y-38.0
X86.0Y-87.2
X86.0Y-103.6
X86.6Y-54.4
X86.6Y-70.8
X87.18Y-54.4
X87.18Y-70.8
X89.62Y-70.8
X90.2Y-70.8
X90.8Y-103.6
X91.38Y-103.6
X93.82Y-70.8
X93.82Y-87.2
X94.4Y-70.8
X94.4Y-87.2
X94.7Y-49.32
X94.7Y-49.9
X94.7Y-58.9
X94.7Y-59.48
X95.0Y-31.5
X95.0Y-38.0
X95.0Y-87.2
X95.0Y-103.6
X95.58Y-31.5
X95.58Y-38.0
X95.58Y-87.2
X95.58Y-103.6
X98.9Y-49.32
X98.9Y-49.9
X98.9Y-58.9
X98.9Y-59.48
X99.2Y-70.8
X99.78Y-70.8
X102.22Y-31.5
X102.22Y-38.0
X102.22Y-87.2
X102.22Y-103.6
X102.8Y-31.5
X102.8Y-38.0
X102.8Y-87.2
X102.8Y-103.6
X103.4Y-70.8
X103.4Y-87.2
X103.98Y-70.8
X103.98Y-87.2
X106.42Y-103.6
X107.0Y-103.6
X110.62Y-70.8
X110.62Y-103.6
X111.2Y-70.8
X111.2Y-103.6
X111.8Y-31.5
X111.8Y-38.0
X111.8Y-87.2
X111.8Y-103.6
X112.38Y-31.5
X112.38Y-38.0
X112.38Y-87.2
X112.38Y-103.6
X115.7Y-49.32
X115.7Y-49.9
X115.7Y-58.9
X115.7Y-59.48
X116.0Y-103.6
X116.58Y-103.6
X119.02Y-31.5
X119.02Y-38.0
X119.02Y-87.2
X119.02Y-103.6
X119.6Y-31.5
X119.6Y-38.0
X119.6Y-87.2
X119.6Y-103.6
X120.2Y-70.8
X120.2Y-103.6
X120.78Y-70.8
X120.78Y-103.6
X127.42Y-54.4
X127.42Y-70.8
X128.0Y-54.4
X128.0Y-70.8
X128.6Y-31.5
X128.6Y-38.0
X128.6Y-87.2
X128.6Y-103.6
X129.18Y-31.5
X129.18Y-38.0
X129.18Y-87.2
X129.18Y-103.6
X131.62Y-103.6
X132.2Y-103.6
X135.82Y-31.5
X135.82Y-38.0
X135.82Y-87.2
X135.82Y-103.6
X136.4Y-31.5
X136.4Y-38.0
X136.4Y-87.2
X136.4Y-103.6
X137.0Y-54.4
X137.0Y-70.8
X137.58Y-54.4
X137.58Y-70.8
X140.02Y-103.6
X140.6Y-103.6
X141.2Y-103.6
X141.78Y-103.6
X144.22Y-54.4
X144.22Y-70.8
X144.22Y-103.6
X144.8Y-54.4
X144.8Y-70.8
X144.8Y-103.6
X145.4Y-31.5
X145.4Y-38.0
X145.4Y-87.2
X145.4Y-103.6
X145.98Y-31.5
X145.98Y-38.0
X145.98Y-87.2
X145.98Y-103.6
X149.6Y-103.6
X150.18Y-103.6
X152.62Y-38.0
X152.62Y-87.2
X152.62Y-103.6
X153.2Y-38.0
X153.2Y-87.2
X153.2Y-103.6
X153.8Y-54.4
X153.8Y-70.8
X153.8Y-103.6
X154.38Y-54.4
X154.38Y-70.8
X154.38Y-103.6
X161.02Y-54.4
X161.02Y-70.8
X161.6Y-54.4
X161.6Y-70.8
X162.2Y-38.0
X162.2Y-87.2
X162.2Y-103.6
X162.78Y-38.0
X162.78Y-87.2
X162.78Y-103.6
X165.22Y-103.6
X165.8Y-103.6
X169.42Y-38.0
X169.42Y-87.2
X169.42Y-103.6
X170.0Y-38.0
X170.0Y-87.2
X170.0Y-103.6
X170.6Y-54.4
X170.6Y-70.8
X171.18Y-54.4
X171.18Y-70.8
X173.62Y-103.6
X174.2Y-103.6
X174.8Y-103.6
X175.38Y-103.6
X177.82Y-54.4
X177.82Y-70.8
X178.4Y-54.4
X178.4Y-70.8
X179.0Y-38.0
X179.0Y-87.2
X179.0Y-103.6
X179.58Y-38.0
X179.58Y-87.2
X179.58Y-103.6
X183.2Y-103.6
X183.78Y-103.6
X186.22Y-38.0
X186.22Y-87.2
X186.22Y-95.4
X186.22Y-103.6
X186.8Y-38.0
X186.8Y-87.2
X186.8Y-95.4
X186.8Y-103.6
X187.4Y-54.4
X187.4Y-70.8
X187.98Y-54.4
X187.98Y-70.8
X194.62Y-54.4
X194.62Y-70.8
X195.2Y-54.4
X195.2Y-70.8
X195.8Y-38.0
X195.8Y-87.2
X195.8Y-95.4
X195.8Y-103.6
X196.38Y-38.0
X196.38Y-87.2
X196.38Y-95.4
X196.38Y-103.6
X198.82Y-103.6
X199.4Y-103.6
X203.02Y-38.0
X203.02Y-87.2
X203.02Y-103.6
X203.6Y-38.0
X203.6Y-87.2
X203.6Y-103.6
X204.2Y-54.4
X204.2Y-70.8
X204.78Y-54.4
X204.78Y-70.8
X208.4Y-103.6
X208.98Y-103.6
X211.42Y-54.4
X211.42Y-70.8
X211.42Y-103.6
X212.0Y-54.4
X212.0Y-70.8
X212.0Y-103.6
X212.6Y-38.0
X212.6Y-87.2
X212.6Y-103.6
X213.18Y-38.0
X213.18Y-87.2
X213.18Y-103.6
X215.62Y-54.4
X215.62Y-70.8
X216.2Y-54.4
X216.2Y-70.8
X219.82Y-38.0
X219.82Y-87.2
X219.82Y-103.6
X220.4Y-38.0
X220.4Y-87.2
X220.4Y-103.6
X221.0Y-54.4
X221.0Y-70.8
X221.0Y-103.6
X221.58Y-54.4
X221.58Y-70.8
X221.58Y-103.6
X225.2Y-54.4
X225.2Y-70.8
X225.78Y-54.4
X225.78Y-70.8
X228.22Y-54.4
X228.22Y-70.8
X228.8Y-54.4
X228.8Y-70.8
X229.4Y-38.0
X229.4Y-87.2
X229.4Y-103.6
X229.98Y-38.0
X229.98Y-87.2
X229.98Y-103.6
X232.42Y-103.6
X233.0Y-103.6
X236.62Y-38.0
X236.62Y-54.4
X236.62Y-70.8
X236.62Y-87.2
X236.62Y-103.6
X237.2Y-38.0
X237.2Y-54.4
X237.2Y-70.8
X237.2Y-87.2
X237.2Y-103.6
X237.8Y-54.4
X237.8Y-70.8
X238.38Y-54.4
X238.38Y-70.8
X242.0Y-103.6
X242.58Y-103.6
X245.02Y-54.4
X245.02Y-70.8
X245.02Y-103.6
X245.6Y-54.4
X245.6Y-70.8
X245.6Y-103.6
X246.2Y-38.0
X246.2Y-54.4
X246.2Y-70.8
X246.2Y-87.2
X246.2Y-103.6
X246.78Y-38.0
X246.78Y-54.4
X246.78Y-70.8
X246.78Y-87.2
X246.78Y-103.6
X253.42Y-38.0
X253.42Y-54.4
X253.42Y-70.8
X253.42Y-87.2
X253.42Y-103.6
X254.0Y-38.0
X254.0Y-54.4
X254.0Y-70.8
X254.0Y-87.2
X254.0Y-103.6
X254.6Y-54.4
X254.6Y-70.8
X254.6Y-103.6
X255.18Y-54.4
X255.18Y-70.8
X255.18Y-103.6
X261.82Y-54.4
X261.82Y-70.8
X262.4Y-54.4
X262.4Y-70.8
X263.0Y-38.0
X263.0Y-54.4
X263.0Y-70.8
X263.0Y-87.2
X263.0Y-103.6
X263.58Y-38.0
X263.58Y-54.4
X263.58Y-70.8
X263.58Y-87.2
X263.58Y-103.6
X270.22Y-38.0
X270.22Y-54.4
X270.22Y-70.8
X270.22Y-87.2
X270.22Y-103.6
X270.8Y-38.0
X270.8Y-54.4
X270.8Y-70.8
X270.8Y-87.2
X270.8Y-103.6
X271.4Y-54.4
X271.4Y-70.8
X271.98Y-54.4
X271.98Y-70.8
X279.8Y-38.0
X279.8Y-54.4
X279.8Y-70.8
X279.8Y-87.2
X279.8Y-103.6
X280.38Y-38.0
X280.38Y-54.4
X280.38Y-70.8
X280.38Y-87.2
X280.38Y-103.6
X282.82Y-54.4
X282.82Y-70.8
X283.4Y-54.4
X283.4Y-70.8
X287.02Y-38.0
X287.02Y-54.4
X287.02Y-70.8
X287.02Y-87.2
X287.02Y-95.4
X287.02Y-103.6
X287.6Y-38.0
X287.6Y-54.4
X287.6Y-70.8
X287.6Y-87.2
X287.6Y-95.4
X287.6Y-103.6
X292.4Y-54.4
X292.4Y-70.8
X292.98Y-54.4
X292.98Y-70.8
X296.6Y-38.0
X296.6Y-54.4
X296.6Y-70.8
X296.6Y-87.2
X296.6Y-95.4
X296.6Y-103.6
X297.18Y-38.0
X297.18Y-54.4
X297.18Y-70.8
X297.18Y-87.2
X297.18Y-95.4
X297.18Y-103.6
T11
X56.9Y-31.5
X174.5Y-31.5
X208.1Y-31.5
X241.7Y-31.5
X275.3Y-31.5
T12
X17.4Y-19.7
X17.4Y-23.1
X17.4Y-27.3
X17.4Y-43.5
X17.4Y-109.3
X17.7Y-19.7
X17.7Y-23.1
X17.7Y-27.3
X17.7Y-43.5
X17.7Y-109.3
X18.0Y-19.7
X18.0Y-23.1
X18.0Y-27.3
X18.0Y-43.5
X18.0Y-109.3
X107.0Y-23.1
X107.3Y-23.1
X107.6Y-23.1
X207.8Y-23.1
X208.1Y-23.1
X208.4Y-23.1
X297.4Y-19.7
X297.4Y-23.1
X297.4Y-27.3
X297.4Y-43.5
X297.4Y-109.3
X297.7Y-19.7
X297.7Y-23.1
X297.7Y-27.3
X297.7Y-43.5
X297.7Y-109.3
X298.0Y-19.7
X298.0Y-23.1
X298.0Y-27.3
X298.0Y-43.5
X298.0Y-109.3
T13
X23.3Y-38.0
X23.3Y-54.4
X23.3Y-70.8
X23.3Y-87.2
X23.3Y-103.6
X27.5Y-54.4
X27.5Y-70.8
X31.7Y-87.2
X31.7Y-103.6
X40.1Y-38.0
X40.1Y-54.4
X40.1Y-70.8
X40.1Y-87.2
X40.1Y-103.6
X48.5Y-54.4
X48.5Y-70.8
X56.9Y-38.0
X56.9Y-54.4
X56.9Y-70.8
X56.9Y-87.2
X56.9Y-103.6
X61.1Y-103.6
X65.3Y-54.4
X65.3Y-70.8
X73.7Y-38.0
X73.7Y-54.4
X73.7Y-70.8
X73.7Y-87.2
X73.7Y-95.4
X73.7Y-103.6
X77.9Y-103.6
X82.1Y-54.4
X82.1Y-70.8
X86.3Y-103.6
X90.5Y-31.5
X90.5Y-38.0
X90.5Y-87.2
X90.5Y-103.6
X94.7Y-54.4
X94.7Y-70.8
X98.9Y-54.4
X98.9Y-70.8
X98.9Y-87.2
X107.3Y-31.5
X107.3Y-38.0
X107.3Y-87.2
X107.3Y-103.6
X111.5Y-103.6
X115.7Y-54.4
X115.7Y-70.8
X115.7Y-103.6
X124.1Y-31.5
X124.1Y-38.0
X124.1Y-87.2
X124.1Y-103.6
X132.5Y-54.4
X132.5Y-70.8
X136.7Y-103.6
X140.9Y-31.5
X140.9Y-38.0
X140.9Y-87.2
X140.9Y-103.6
X145.1Y-103.6
X149.3Y-54.4
X149.3Y-70.8
X149.3Y-103.6
X157.7Y-38.0
X157.7Y-87.2
X157.7Y-103.6
X166.1Y-54.4
X166.1Y-70.8
X170.3Y-103.6
X174.5Y-38.0
X174.5Y-87.2
X174.5Y-103.6
X178.7Y-103.6
X182.9Y-54.4
X182.9Y-70.8
X191.3Y-38.0
X191.3Y-87.2
X191.3Y-95.4
X191.3Y-103.6
X199.7Y-54.4
X199.7Y-70.8
X203.9Y-103.6
X208.1Y-38.0
X208.1Y-87.2
X208.1Y-103.6
X216.5Y-54.4
X216.5Y-70.8
X216.5Y-103.6
X220.7Y-54.4
X220.7Y-70.8
X224.9Y-38.0
X224.9Y-87.2
X224.9Y-103.6
X233.3Y-54.4
X233.3Y-70.8
X237.5Y-103.6
X241.7Y-38.0
X241.7Y-54.4
X241.7Y-70.8
X241.7Y-87.2
X241.7Y-103.6
X250.1Y-54.4
X250.1Y-70.8
X250.1Y-103.6
X258.5Y-38.0
X258.5Y-54.4
X258.5Y-70.8
X258.5Y-87.2
X258.5Y-103.6
X266.9Y-54.4
X266.9Y-70.8
X275.3Y-38.0
X275.3Y-54.4
X275.3Y-70.8
X275.3Y-87.2
X275.3Y-103.6
X287.9Y-54.4
X287.9Y-70.8
X292.1Y-38.0
X292.1Y-54.4
X292.1Y-70.8
X292.1Y-87.2
X292.1Y-95.4
X292.1Y-103.6
T1
G00X19.09Y-35.46
M15
G01X19.89Y-35.46
M16
G05
G00X19.09Y-51.86
M15
G01X19.89Y-51.86
M16
G05
G00X19.09Y-68.26
M15
G01X19.89Y-68.26
M16
G05
G00X19.09Y-84.66
M15
G01X19.89Y-84.66
M16
G05
G00X19.09Y-101.06
M15
G01X19.89Y-101.06
M16
G05
G00X23.29Y-51.86
M15
G01X24.09Y-51.86
M16
G05
G00X23.29Y-68.26
M15
G01X24.09Y-68.26
M16
G05
G00X25.44Y-32.92
M15
G01X26.44Y-32.92
M16
G05
G00X25.44Y-49.32
M15
G01X26.44Y-49.32
M16
G05
G00X25.44Y-65.72
M15
G01X26.44Y-65.72
M16
G05
G00X25.44Y-82.12
M15
G01X26.44Y-82.12
M16
G05
G00X25.44Y-98.52
M15
G01X26.44Y-98.52
M16
G05
G00X27.49Y-84.66
M15
G01X28.29Y-84.66
M16
G05
G00X27.49Y-101.06
M15
G01X28.29Y-101.06
M16
G05
G00X29.64Y-49.32
M15
G01X30.64Y-49.32
M16
G05
G00X29.64Y-65.72
M15
G01X30.64Y-65.72
M16
G05
G00X33.84Y-82.12
M15
G01X34.84Y-82.12
M16
G05
G00X33.84Y-98.52
M15
G01X34.84Y-98.52
M16
G05
G00X35.89Y-35.46
M15
G01X36.69Y-35.46
M16
G05
G00X35.89Y-51.86
M15
G01X36.69Y-51.86
M16
G05
G00X35.89Y-84.66
M15
G01X36.69Y-84.66
M16
G05
G00X35.89Y-101.06
M15
G01X36.69Y-101.06
M16
G05
G00X37.96Y-75.88
M15
G01X36.96Y-75.88
M16
G05
G00X42.24Y-32.92
M15
G01X43.24Y-32.92
M16
G05
G00X42.24Y-49.32
M15
G01X43.24Y-49.32
M16
G05
G00X42.24Y-82.12
M15
G01X43.24Y-82.12
M16
G05
G00X42.24Y-98.52
M15
G01X43.24Y-98.52
M16
G05
G00X44.31Y-73.34
M15
G01X43.51Y-73.34
M16
G05
G00X44.29Y-51.86
M15
G01X45.09Y-51.86
M16
G05
G00X46.36Y-75.88
M15
G01X45.36Y-75.88
M16
G05
G00X50.64Y-49.32
M15
G01X51.64Y-49.32
M16
G05
G00X52.71Y-73.34
M15
G01X51.91Y-73.34
M16
G05
G00X52.69Y-35.46
M15
G01X53.49Y-35.46
M16
G05
G00X52.69Y-51.86
M15
G01X53.49Y-51.86
M16
G05
G00X52.69Y-68.26
M15
G01X53.49Y-68.26
M16
G05
G00X52.69Y-84.66
M15
G01X53.49Y-84.66
M16
G05
G00X52.69Y-101.06
M15
G01X53.49Y-101.06
M16
G05
G00X56.89Y-101.06
M15
G01X57.69Y-101.06
M16
G05
G00X59.04Y-32.92
M15
G01X60.04Y-32.92
M16
G05
G00X59.04Y-49.32
M15
G01X60.04Y-49.32
M16
G05
G00X59.04Y-65.72
M15
G01X60.04Y-65.72
M16
G05
G00X59.04Y-82.12
M15
G01X60.04Y-82.12
M16
G05
G00X59.04Y-98.52
M15
G01X60.04Y-98.52
M16
G05
G00X61.09Y-51.86
M15
G01X61.89Y-51.86
M16
G05
G00X61.09Y-68.26
M15
G01X61.89Y-68.26
M16
G05
G00X63.24Y-98.52
M15
G01X64.24Y-98.52
M16
G05
G00X67.44Y-49.32
M15
G01X68.44Y-49.32
M16
G05
G00X67.44Y-65.72
M15
G01X68.44Y-65.72
M16
G05
G00X69.49Y-35.46
M15
G01X70.29Y-35.46
M16
G05
G00X69.49Y-51.86
M15
G01X70.29Y-51.86
M16
G05
G00X69.49Y-68.26
M15
G01X70.29Y-68.26
M16
G05
G00X69.49Y-84.66
M15
G01X70.29Y-84.66
M16
G05
G00X69.49Y-92.86
M15
G01X70.29Y-92.86
M16
G05
G00X69.49Y-101.06
M15
G01X70.29Y-101.06
M16
G05
G00X73.69Y-101.06
M15
G01X74.49Y-101.06
M16
G05
G00X75.84Y-32.92
M15
G01X76.84Y-32.92
M16
G05
G00X75.84Y-49.32
M15
G01X76.84Y-49.32
M16
G05
G00X75.84Y-65.72
M15
G01X76.84Y-65.72
M16
G05
G00X75.84Y-82.12
M15
G01X76.84Y-82.12
M16
G05
G00X75.84Y-90.32
M15
G01X76.84Y-90.32
M16
G05
G00X75.84Y-98.52
M15
G01X76.84Y-98.52
M16
G05
G00X77.89Y-51.86
M15
G01X78.69Y-51.86
M16
G05
G00X77.89Y-68.26
M15
G01X78.69Y-68.26
M16
G05
G00X80.04Y-98.52
M15
G01X81.04Y-98.52
M16
G05
G00X82.09Y-101.06
M15
G01X82.89Y-101.06
M16
G05
G00X84.24Y-49.32
M15
G01X85.24Y-49.32
M16
G05
G00X84.24Y-65.72
M15
G01X85.24Y-65.72
M16
G05
G00X86.29Y-28.96
M15
G01X87.09Y-28.96
M16
G05
G00X86.29Y-35.46
M15
G01X87.09Y-35.46
M16
G05
G00X86.29Y-84.66
M15
G01X87.09Y-84.66
M16
G05
G00X86.29Y-101.06
M15
G01X87.09Y-101.06
M16
G05
G00X88.44Y-98.52
M15
G01X89.44Y-98.52
M16
G05
G00X89.62Y-52.26
M15
G01X89.62Y-51.26
M16
G05
G00X90.49Y-68.26
M15
G01X91.29Y-68.26
M16
G05
G00X92.16Y-58.61
M15
G01X92.16Y-57.81
M16
G05
G00X92.64Y-26.42
M15
G01X93.64Y-26.42
M16
G05
G00X92.64Y-32.92
M15
G01X93.64Y-32.92
M16
G05
G00X92.64Y-82.12
M15
G01X93.64Y-82.12
M16
G05
G00X92.64Y-98.52
M15
G01X93.64Y-98.52
M16
G05
G00X93.82Y-52.26
M15
G01X93.82Y-51.26
M16
G05
G00X94.69Y-68.26
M15
G01X95.49Y-68.26
M16
G05
G00X94.69Y-84.66
M15
G01X95.49Y-84.66
M16
G05
G00X96.36Y-58.61
M15
G01X96.36Y-57.81
M16
G05
G00X96.84Y-65.72
M15
G01X97.84Y-65.72
M16
G05
G00X101.04Y-65.72
M15
G01X102.04Y-65.72
M16
G05
G00X101.04Y-82.12
M15
G01X102.04Y-82.12
M16
G05
G00X103.09Y-28.96
M15
G01X103.89Y-28.96
M16
G05
G00X103.09Y-35.46
M15
G01X103.89Y-35.46
M16
G05
G00X103.09Y-84.66
M15
G01X103.89Y-84.66
M16
G05
G00X103.09Y-101.06
M15
G01X103.89Y-101.06
M16
G05
G00X107.29Y-101.06
M15
G01X108.09Y-101.06
M16
G05
G00X109.44Y-26.42
M15
G01X110.44Y-26.42
M16
G05
G00X109.44Y-32.92
M15
G01X110.44Y-32.92
M16
G05
G00X109.44Y-82.12
M15
G01X110.44Y-82.12
M16
G05
G00X109.44Y-98.52
M15
G01X110.44Y-98.52
M16
G05
G00X111.49Y-68.26
M15
G01X112.29Y-68.26
M16
G05
G00X111.49Y-101.06
M15
G01X112.29Y-101.06
M16
G05
G00X113.64Y-98.52
M15
G01X114.64Y-98.52
M16
G05
G00X118.24Y-50.19
M15
G01X118.24Y-50.99
M16
G05
G00X117.84Y-65.72
M15
G01X118.84Y-65.72
M16
G05
G00X117.84Y-98.52
M15
G01X118.84Y-98.52
M16
G05
G00X119.89Y-28.96
M15
G01X120.69Y-28.96
M16
G05
G00X119.89Y-35.46
M15
G01X120.69Y-35.46
M16
G05
G00X119.89Y-84.66
M15
G01X120.69Y-84.66
M16
G05
G00X119.89Y-101.06
M15
G01X120.69Y-101.06
M16
G05
G00X120.78Y-56.54
M15
G01X120.78Y-57.54
M16
G05
G00X126.24Y-26.42
M15
G01X127.24Y-26.42
M16
G05
G00X126.24Y-32.92
M15
G01X127.24Y-32.92
M16
G05
G00X126.24Y-82.12
M15
G01X127.24Y-82.12
M16
G05
G00X126.24Y-98.52
M15
G01X127.24Y-98.52
M16
G05
G00X128.29Y-51.86
M15
G01X129.09Y-51.86
M16
G05
G00X128.29Y-68.26
M15
G01X129.09Y-68.26
M16
G05
G00X132.49Y-101.06
M15
G01X133.29Y-101.06
M16
G05
G00X134.64Y-49.32
M15
G01X135.64Y-49.32
M16
G05
G00X134.64Y-65.72
M15
G01X135.64Y-65.72
M16
G05
G00X136.69Y-28.96
M15
G01X137.49Y-28.96
M16
G05
G00X136.69Y-35.46
M15
G01X137.49Y-35.46
M16
G05
G00X136.69Y-84.66
M15
G01X137.49Y-84.66
M16
G05
G00X136.69Y-101.06
M15
G01X137.49Y-101.06
M16
G05
G00X138.84Y-98.52
M15
G01X139.84Y-98.52
M16
G05
G00X140.89Y-101.06
M15
G01X141.69Y-101.06
M16
G05
G00X143.04Y-26.42
M15
G01X144.04Y-26.42
M16
G05
G00X143.04Y-32.92
M15
G01X144.04Y-32.92
M16
G05
G00X143.04Y-82.12
M15
G01X144.04Y-82.12
M16
G05
G00X143.04Y-98.52
M15
G01X144.04Y-98.52
M16
G05
G00X145.09Y-51.86
M15
G01X145.89Y-51.86
M16
G05
G00X145.09Y-68.26
M15
G01X145.89Y-68.26
M16
G05
G00X145.09Y-101.06
M15
G01X145.89Y-101.06
M16
G05
G00X147.24Y-98.52
M15
G01X148.24Y-98.52
M16
G05
G00X151.44Y-49.32
M15
G01X152.44Y-49.32
M16
G05
G00X151.44Y-65.72
M15
G01X152.44Y-65.72
M16
G05
G00X151.44Y-98.52
M15
G01X152.44Y-98.52
M16
G05
G00X153.49Y-35.46
M15
G01X154.29Y-35.46
M16
G05
G00X153.49Y-84.66
M15
G01X154.29Y-84.66
M16
G05
G00X153.49Y-101.06
M15
G01X154.29Y-101.06
M16
G05
G00X159.84Y-32.92
M15
G01X160.84Y-32.92
M16
G05
G00X159.84Y-82.12
M15
G01X160.84Y-82.12
M16
G05
G00X159.84Y-98.52
M15
G01X160.84Y-98.52
M16
G05
G00X161.89Y-51.86
M15
G01X162.69Y-51.86
M16
G05
G00X161.89Y-68.26
M15
G01X162.69Y-68.26
M16
G05
G00X166.09Y-101.06
M15
G01X166.89Y-101.06
M16
G05
G00X168.24Y-49.32
M15
G01X169.24Y-49.32
M16
G05
G00X168.24Y-65.72
M15
G01X169.24Y-65.72
M16
G05
G00X170.29Y-35.46
M15
G01X171.09Y-35.46
M16
G05
G00X170.29Y-84.66
M15
G01X171.09Y-84.66
M16
G05
G00X170.29Y-101.06
M15
G01X171.09Y-101.06
M16
G05
G00X172.44Y-98.52
M15
G01X173.44Y-98.52
M16
G05
G00X174.49Y-101.06
M15
G01X175.29Y-101.06
M16
G05
G00X176.64Y-32.92
M15
G01X177.64Y-32.92
M16
G05
G00X176.64Y-82.12
M15
G01X177.64Y-82.12
M16
G05
G00X176.64Y-98.52
M15
G01X177.64Y-98.52
M16
G05
G00X178.69Y-51.86
M15
G01X179.49Y-51.86
M16
G05
G00X178.69Y-68.26
M15
G01X179.49Y-68.26
M16
G05
G00X180.84Y-98.52
M15
G01X181.84Y-98.52
M16
G05
G00X185.04Y-49.32
M15
G01X186.04Y-49.32
M16
G05
G00X185.04Y-65.72
M15
G01X186.04Y-65.72
M16
G05
G00X187.09Y-35.46
M15
G01X187.89Y-35.46
M16
G05
G00X187.09Y-84.66
M15
G01X187.89Y-84.66
M16
G05
G00X187.09Y-92.86
M15
G01X187.89Y-92.86
M16
G05
G00X187.09Y-101.06
M15
G01X187.89Y-101.06
M16
G05
G00X193.44Y-32.92
M15
G01X194.44Y-32.92
M16
G05
G00X193.44Y-82.12
M15
G01X194.44Y-82.12
M16
G05
G00X193.44Y-90.32
M15
G01X194.44Y-90.32
M16
G05
G00X193.44Y-98.52
M15
G01X194.44Y-98.52
M16
G05
G00X195.49Y-51.86
M15
G01X196.29Y-51.86
M16
G05
G00X195.49Y-68.26
M15
G01X196.29Y-68.26
M16
G05
G00X201.76Y-108.68
M15
G01X200.76Y-108.68
M16
G05
G00X201.84Y-49.32
M15
G01X202.84Y-49.32
M16
G05
G00X201.84Y-65.72
M15
G01X202.84Y-65.72
M16
G05
G00X203.89Y-35.46
M15
G01X204.69Y-35.46
M16
G05
G00X203.89Y-84.66
M15
G01X204.69Y-84.66
M16
G05
G00X205.96Y-108.68
M15
G01X204.96Y-108.68
M16
G05
G00X208.11Y-106.14
M15
G01X207.31Y-106.14
M16
G05
G00X210.24Y-32.92
M15
G01X211.24Y-32.92
M16
G05
G00X210.24Y-82.12
M15
G01X211.24Y-82.12
M16
G05
G00X212.31Y-106.14
M15
G01X211.51Y-106.14
M16
G05
G00X212.29Y-51.86
M15
G01X213.09Y-51.86
M16
G05
G00X212.29Y-68.26
M15
G01X213.09Y-68.26
M16
G05
G00X214.36Y-108.68
M15
G01X213.36Y-108.68
M16
G05
G00X216.49Y-51.86
M15
G01X217.29Y-51.86
M16
G05
G00X216.49Y-68.26
M15
G01X217.29Y-68.26
M16
G05
G00X218.64Y-49.32
M15
G01X219.64Y-49.32
M16
G05
G00X218.64Y-65.72
M15
G01X219.64Y-65.72
M16
G05
G00X220.71Y-106.14
M15
G01X219.91Y-106.14
M16
G05
G00X220.69Y-35.46
M15
G01X221.49Y-35.46
M16
G05
G00X220.69Y-84.66
M15
G01X221.49Y-84.66
M16
G05
G00X220.69Y-101.06
M15
G01X221.49Y-101.06
M16
G05
G00X222.84Y-49.32
M15
G01X223.84Y-49.32
M16
G05
G00X222.84Y-65.72
M15
G01X223.84Y-65.72
M16
G05
G00X227.04Y-32.92
M15
G01X228.04Y-32.92
M16
G05
G00X227.04Y-82.12
M15
G01X228.04Y-82.12
M16
G05
G00X227.04Y-98.52
M15
G01X228.04Y-98.52
M16
G05
G00X229.09Y-51.86
M15
G01X229.89Y-51.86
M16
G05
G00X229.09Y-68.26
M15
G01X229.89Y-68.26
M16
G05
G00X233.29Y-101.06
M15
G01X234.09Y-101.06
M16
G05
G00X235.44Y-49.32
M15
G01X236.44Y-49.32
M16
G05
G00X235.44Y-65.72
M15
G01X236.44Y-65.72
M16
G05
G00X237.49Y-35.46
M15
G01X238.29Y-35.46
M16
G05
G00X237.49Y-51.86
M15
G01X238.29Y-51.86
M16
G05
G00X237.49Y-68.26
M15
G01X238.29Y-68.26
M16
G05
G00X237.49Y-84.66
M15
G01X238.29Y-84.66
M16
G05
G00X237.49Y-101.06
M15
G01X238.29Y-101.06
M16
G05
G00X239.64Y-98.52
M15
G01X240.64Y-98.52
M16
G05
G00X243.84Y-32.92
M15
G01X244.84Y-32.92
M16
G05
G00X243.84Y-49.32
M15
G01X244.84Y-49.32
M16
G05
G00X243.84Y-65.72
M15
G01X244.84Y-65.72
M16
G05
G00X243.84Y-82.12
M15
G01X244.84Y-82.12
M16
G05
G00X243.84Y-98.52
M15
G01X244.84Y-98.52
M16
G05
G00X245.89Y-51.86
M15
G01X246.69Y-51.86
M16
G05
G00X245.89Y-68.26
M15
G01X246.69Y-68.26
M16
G05
G00X245.89Y-101.06
M15
G01X246.69Y-101.06
M16
G05
G00X252.24Y-49.32
M15
G01X253.24Y-49.32
M16
G05
G00X252.24Y-65.72
M15
G01X253.24Y-65.72
M16
G05
G00X252.24Y-98.52
M15
G01X253.24Y-98.52
M16
G05
G00X254.29Y-35.46
M15
G01X255.09Y-35.46
M16
G05
G00X254.29Y-51.86
M15
G01X255.09Y-51.86
M16
G05
G00X254.29Y-68.26
M15
G01X255.09Y-68.26
M16
G05
G00X254.29Y-84.66
M15
G01X255.09Y-84.66
M16
G05
G00X254.29Y-101.06
M15
G01X255.09Y-101.06
M16
G05
G00X260.64Y-32.92
M15
G01X261.64Y-32.92
M16
G05
G00X260.64Y-49.32
M15
G01X261.64Y-49.32
M16
G05
G00X260.64Y-65.72
M15
G01X261.64Y-65.72
M16
G05
G00X260.64Y-82.12
M15
G01X261.64Y-82.12
M16
G05
G00X260.64Y-98.52
M15
G01X261.64Y-98.52
M16
G05
G00X262.69Y-51.86
M15
G01X263.49Y-51.86
M16
G05
G00X262.69Y-68.26
M15
G01X263.49Y-68.26
M16
G05
G00X269.04Y-49.32
M15
G01X270.04Y-49.32
M16
G05
G00X269.04Y-65.72
M15
G01X270.04Y-65.72
M16
G05
G00X271.09Y-35.46
M15
G01X271.89Y-35.46
M16
G05
G00X271.09Y-51.86
M15
G01X271.89Y-51.86
M16
G05
G00X271.09Y-68.26
M15
G01X271.89Y-68.26
M16
G05
G00X271.09Y-84.66
M15
G01X271.89Y-84.66
M16
G05
G00X271.09Y-101.06
M15
G01X271.89Y-101.06
M16
G05
G00X277.44Y-32.92
M15
G01X278.44Y-32.92
M16
G05
G00X277.44Y-49.32
M15
G01X278.44Y-49.32
M16
G05
G00X277.44Y-65.72
M15
G01X278.44Y-65.72
M16
G05
G00X277.44Y-82.12
M15
G01X278.44Y-82.12
M16
G05
G00X277.44Y-98.52
M15
G01X278.44Y-98.52
M16
G05
G00X283.69Y-51.86
M15
G01X284.49Y-51.86
M16
G05
G00X283.69Y-68.26
M15
G01X284.49Y-68.26
M16
G05
G00X287.89Y-35.46
M15
G01X288.69Y-35.46
M16
G05
G00X287.89Y-51.86
M15
G01X288.69Y-51.86
M16
G05
G00X287.89Y-68.26
M15
G01X288.69Y-68.26
M16
G05
G00X287.89Y-84.66
M15
G01X288.69Y-84.66
M16
G05
G00X287.89Y-92.86
M15
G01X288.69Y-92.86
M16
G05
G00X287.89Y-101.06
M15
G01X288.69Y-101.06
M16
G05
G00X290.04Y-49.32
M15
G01X291.04Y-49.32
M16
G05
G00X290.04Y-65.72
M15
G01X291.04Y-65.72
M16
G05
G00X294.24Y-32.92
M15
G01X295.24Y-32.92
M16
G05
G00X294.24Y-49.32
M15
G01X295.24Y-49.32
M16
G05
G00X294.24Y-65.72
M15
G01X295.24Y-65.72
M16
G05
G00X294.24Y-82.12
M15
G01X295.24Y-82.12
M16
G05
G00X294.24Y-90.32
M15
G01X295.24Y-90.32
M16
G05
G00X294.24Y-98.52
M15
G01X295.24Y-98.52
M16
G05
T3
G00X29.075Y-17.565
M15
G01X29.075Y-18.365
M16
G05
G00X29.075Y-20.595
M15
G01X29.075Y-22.095
M16
G05
G00X37.725Y-17.565
M15
G01X37.725Y-18.365
M16
G05
G00X37.725Y-20.595
M15
G01X37.725Y-22.095
M16
G05
T6
G00X56.25Y-25.9
M15
G01X57.55Y-25.9
M16
G05
G00X56.25Y-37.1
M15
G01X57.55Y-37.1
M16
G05
G00X173.85Y-25.9
M15
G01X175.15Y-25.9
M16
G05
G00X173.85Y-37.1
M15
G01X175.15Y-37.1
M16
G05
G00X207.45Y-25.9
M15
G01X208.75Y-25.9
M16
G05
G00X207.45Y-37.1
M15
G01X208.75Y-37.1
M16
G05
G00X241.05Y-25.9
M15
G01X242.35Y-25.9
M16
G05
G00X241.05Y-37.1
M15
G01X242.35Y-37.1
M16
G05
G00X274.65Y-25.9
M15
G01X275.95Y-25.9
M16
G05
G00X274.65Y-37.1
M15
G01X275.95Y-37.1
M16
G05
T7
G00X142.149Y-64.2
M15
G01X144.651Y-64.2
M16
G05
G00X204.449Y-102.4
M15
G01X206.951Y-102.4
M16
G05
G00X273.999Y-45.1
M15
G01X276.501Y-45.1
M16
G05
T9
G00X52.25Y-31.5
M15
G01X52.55Y-31.5
M16
G05
G00X61.25Y-31.5
M15
G01X61.55Y-31.5
M16
G05
G00X169.85Y-31.5
M15
G01X170.15Y-31.5
M16
G05
G00X178.85Y-31.5
M15
G01X179.15Y-31.5
M16
G05
G00X203.45Y-31.5
M15
G01X203.75Y-31.5
M16
G05
G00X212.45Y-31.5
M15
G01X212.75Y-31.5
M16
G05
G00X237.05Y-31.5
M15
G01X237.35Y-31.5
M16
G05
G00X246.05Y-31.5
M15
G01X246.35Y-31.5
M16
G05
G00X270.65Y-31.5
M15
G01X270.95Y-31.5
M16
G05
G00X279.65Y-31.5
M15
G01X279.95Y-31.5
M16
G05
T0
M30
