%TF.GenerationSoftware,KiCad,Pcbnew,(5.1.8-0-10_14)*%
%TF.CreationDate,2020-12-29T07:16:28+09:00*%
%TF.ProjectId,Unison,556e6973-6f6e-42e6-9b69-6361645f7063,v01_1*%
%TF.SameCoordinates,Original*%
%TF.FileFunction,Legend,Bot*%
%TF.FilePolarity,Positive*%
%FSLAX46Y46*%
G04 Gerber Fmt 4.6, Leading zero omitted, Abs format (unit mm)*
G04 Created by KiCad (PCBNEW (5.1.8-0-10_14)) date 2020-12-29 07:16:28*
%MOMM*%
%LPD*%
G01*
G04 APERTURE LIST*
%ADD10C,0.200000*%
%ADD11C,0.203200*%
%ADD12C,0.254000*%
%ADD13C,0.120000*%
%ADD14C,0.150000*%
%ADD15C,0.050000*%
G04 APERTURE END LIST*
D10*
X295862857Y-17953571D02*
X295862857Y-19167857D01*
X295791428Y-19310714D01*
X295720000Y-19382142D01*
X295577142Y-19453571D01*
X295291428Y-19453571D01*
X295148571Y-19382142D01*
X295077142Y-19310714D01*
X295005714Y-19167857D01*
X295005714Y-17953571D01*
X294291428Y-18453571D02*
X294291428Y-19453571D01*
X294291428Y-18596428D02*
X294220000Y-18525000D01*
X294077142Y-18453571D01*
X293862857Y-18453571D01*
X293720000Y-18525000D01*
X293648571Y-18667857D01*
X293648571Y-19453571D01*
X292934285Y-19453571D02*
X292934285Y-18453571D01*
X292934285Y-17953571D02*
X293005714Y-18025000D01*
X292934285Y-18096428D01*
X292862857Y-18025000D01*
X292934285Y-17953571D01*
X292934285Y-18096428D01*
X292291428Y-19382142D02*
X292148571Y-19453571D01*
X291862857Y-19453571D01*
X291720000Y-19382142D01*
X291648571Y-19239285D01*
X291648571Y-19167857D01*
X291720000Y-19025000D01*
X291862857Y-18953571D01*
X292077142Y-18953571D01*
X292220000Y-18882142D01*
X292291428Y-18739285D01*
X292291428Y-18667857D01*
X292220000Y-18525000D01*
X292077142Y-18453571D01*
X291862857Y-18453571D01*
X291720000Y-18525000D01*
X290791428Y-19453571D02*
X290934285Y-19382142D01*
X291005714Y-19310714D01*
X291077142Y-19167857D01*
X291077142Y-18739285D01*
X291005714Y-18596428D01*
X290934285Y-18525000D01*
X290791428Y-18453571D01*
X290577142Y-18453571D01*
X290434285Y-18525000D01*
X290362857Y-18596428D01*
X290291428Y-18739285D01*
X290291428Y-19167857D01*
X290362857Y-19310714D01*
X290434285Y-19382142D01*
X290577142Y-19453571D01*
X290791428Y-19453571D01*
X289648571Y-18453571D02*
X289648571Y-19453571D01*
X289648571Y-18596428D02*
X289577142Y-18525000D01*
X289434285Y-18453571D01*
X289220000Y-18453571D01*
X289077142Y-18525000D01*
X289005714Y-18667857D01*
X289005714Y-19453571D01*
X287291428Y-18453571D02*
X286934285Y-19453571D01*
X286577142Y-18453571D01*
X285720000Y-17953571D02*
X285577142Y-17953571D01*
X285434285Y-18025000D01*
X285362857Y-18096428D01*
X285291428Y-18239285D01*
X285220000Y-18525000D01*
X285220000Y-18882142D01*
X285291428Y-19167857D01*
X285362857Y-19310714D01*
X285434285Y-19382142D01*
X285577142Y-19453571D01*
X285720000Y-19453571D01*
X285862857Y-19382142D01*
X285934285Y-19310714D01*
X286005714Y-19167857D01*
X286077142Y-18882142D01*
X286077142Y-18525000D01*
X286005714Y-18239285D01*
X285934285Y-18096428D01*
X285862857Y-18025000D01*
X285720000Y-17953571D01*
X283791428Y-19453571D02*
X284648571Y-19453571D01*
X284220000Y-19453571D02*
X284220000Y-17953571D01*
X284362857Y-18167857D01*
X284505714Y-18310714D01*
X284648571Y-18382142D01*
X294934285Y-21189285D02*
X295005714Y-21117857D01*
X295148571Y-21046428D01*
X295291428Y-21046428D01*
X295434285Y-21117857D01*
X295505714Y-21189285D01*
X295577142Y-21332142D01*
X295577142Y-21475000D01*
X295505714Y-21617857D01*
X295434285Y-21689285D01*
X295291428Y-21760714D01*
X295148571Y-21760714D01*
X295005714Y-21689285D01*
X294934285Y-21617857D01*
X294934285Y-21046428D02*
X294934285Y-21617857D01*
X294862857Y-21689285D01*
X294791428Y-21689285D01*
X294648571Y-21617857D01*
X294577142Y-21475000D01*
X294577142Y-21117857D01*
X294720000Y-20903571D01*
X294934285Y-20760714D01*
X295220000Y-20689285D01*
X295505714Y-20760714D01*
X295720000Y-20903571D01*
X295862857Y-21117857D01*
X295934285Y-21403571D01*
X295862857Y-21689285D01*
X295720000Y-21903571D01*
X295505714Y-22046428D01*
X295220000Y-22117857D01*
X294934285Y-22046428D01*
X294720000Y-21903571D01*
X293934285Y-20903571D02*
X293934285Y-22189285D01*
X294005714Y-22332142D01*
X294148571Y-22403571D01*
X294220000Y-22403571D01*
X293934285Y-20403571D02*
X294005714Y-20475000D01*
X293934285Y-20546428D01*
X293862857Y-20475000D01*
X293934285Y-20403571D01*
X293934285Y-20546428D01*
X293220000Y-20903571D02*
X293220000Y-22403571D01*
X293220000Y-20975000D02*
X293077142Y-20903571D01*
X292791428Y-20903571D01*
X292648571Y-20975000D01*
X292577142Y-21046428D01*
X292505714Y-21189285D01*
X292505714Y-21617857D01*
X292577142Y-21760714D01*
X292648571Y-21832142D01*
X292791428Y-21903571D01*
X293077142Y-21903571D01*
X293220000Y-21832142D01*
X291934285Y-21832142D02*
X291791428Y-21903571D01*
X291505714Y-21903571D01*
X291362857Y-21832142D01*
X291291428Y-21689285D01*
X291291428Y-21617857D01*
X291362857Y-21475000D01*
X291505714Y-21403571D01*
X291720000Y-21403571D01*
X291862857Y-21332142D01*
X291934285Y-21189285D01*
X291934285Y-21117857D01*
X291862857Y-20975000D01*
X291720000Y-20903571D01*
X291505714Y-20903571D01*
X291362857Y-20975000D01*
X290648571Y-21903571D02*
X290648571Y-20403571D01*
X290505714Y-21332142D02*
X290077142Y-21903571D01*
X290077142Y-20903571D02*
X290648571Y-21475000D01*
X288862857Y-21832142D02*
X289005714Y-21903571D01*
X289291428Y-21903571D01*
X289434285Y-21832142D01*
X289505714Y-21689285D01*
X289505714Y-21117857D01*
X289434285Y-20975000D01*
X289291428Y-20903571D01*
X289005714Y-20903571D01*
X288862857Y-20975000D01*
X288791428Y-21117857D01*
X288791428Y-21260714D01*
X289505714Y-21403571D01*
X288148571Y-20903571D02*
X288148571Y-21903571D01*
X288148571Y-21046428D02*
X288077142Y-20975000D01*
X287934285Y-20903571D01*
X287720000Y-20903571D01*
X287577142Y-20975000D01*
X287505714Y-21117857D01*
X287505714Y-21903571D01*
X286791428Y-20903571D02*
X286791428Y-21903571D01*
X286791428Y-21046428D02*
X286720000Y-20975000D01*
X286577142Y-20903571D01*
X286362857Y-20903571D01*
X286220000Y-20975000D01*
X286148571Y-21117857D01*
X286148571Y-21903571D01*
D11*
%TO.C,U1*%
X43700000Y-100200000D02*
X53300000Y-100200000D01*
X53300000Y-100200000D02*
X53300000Y-90600000D01*
X53300000Y-90600000D02*
X43700000Y-90600000D01*
X43700000Y-90600000D02*
X43700000Y-100200000D01*
D12*
X44782700Y-99400000D02*
G75*
G03*
X44782700Y-99400000I-282700J0D01*
G01*
D13*
%TO.C,Y1*%
X51450000Y-79200000D02*
X51450000Y-84600000D01*
X46950000Y-79200000D02*
X51450000Y-79200000D01*
D14*
%TO.C,L13*%
X224112786Y-17212061D02*
X223812786Y-16912061D01*
X223812786Y-16912061D02*
X224112786Y-16912061D01*
X224112786Y-16912061D02*
X224112786Y-17212061D01*
%TO.C,L5*%
X85012786Y-19662061D02*
X84712786Y-19362061D01*
X84712786Y-19362061D02*
X85012786Y-19362061D01*
X85012786Y-19362061D02*
X85012786Y-19662061D01*
D13*
%TO.C,D94*%
X282450000Y-100100000D02*
X286350000Y-100100000D01*
X282450000Y-98100000D02*
X286350000Y-98100000D01*
X282450000Y-100100000D02*
X282450000Y-98100000D01*
%TO.C,C1*%
X36065000Y-95661252D02*
X36065000Y-95138748D01*
X37535000Y-95661252D02*
X37535000Y-95138748D01*
%TO.C,C2*%
X49611252Y-78635000D02*
X49088748Y-78635000D01*
X49611252Y-77165000D02*
X49088748Y-77165000D01*
%TO.C,C3*%
X44765000Y-81961252D02*
X44765000Y-81438748D01*
X46235000Y-81961252D02*
X46235000Y-81438748D01*
%TO.C,C4*%
X44338748Y-84115000D02*
X44861252Y-84115000D01*
X44338748Y-85585000D02*
X44861252Y-85585000D01*
%TO.C,C5*%
X58638748Y-89665000D02*
X59161252Y-89665000D01*
X58638748Y-91135000D02*
X59161252Y-91135000D01*
%TO.C,C6*%
X39935000Y-95138748D02*
X39935000Y-95661252D01*
X38465000Y-95138748D02*
X38465000Y-95661252D01*
%TO.C,C7*%
X38561252Y-100535000D02*
X38038748Y-100535000D01*
X38561252Y-99065000D02*
X38038748Y-99065000D01*
%TO.C,D1*%
X19450000Y-31900000D02*
X23350000Y-31900000D01*
X19450000Y-29900000D02*
X23350000Y-29900000D01*
X19450000Y-31900000D02*
X19450000Y-29900000D01*
%TO.C,D2*%
X21000000Y-22550000D02*
X21000000Y-18650000D01*
X19000000Y-22550000D02*
X19000000Y-18650000D01*
X21000000Y-22550000D02*
X19000000Y-22550000D01*
%TO.C,D3*%
X19450000Y-34400000D02*
X23350000Y-34400000D01*
X19450000Y-32400000D02*
X23350000Y-32400000D01*
X19450000Y-34400000D02*
X19450000Y-32400000D01*
%TO.C,D4*%
X20050000Y-50800000D02*
X23950000Y-50800000D01*
X20050000Y-48800000D02*
X23950000Y-48800000D01*
X20050000Y-50800000D02*
X20050000Y-48800000D01*
%TO.C,D5*%
X20050000Y-67200000D02*
X23950000Y-67200000D01*
X20050000Y-65200000D02*
X23950000Y-65200000D01*
X20050000Y-67200000D02*
X20050000Y-65200000D01*
%TO.C,D6*%
X19450000Y-83600000D02*
X23350000Y-83600000D01*
X19450000Y-81600000D02*
X23350000Y-81600000D01*
X19450000Y-83600000D02*
X19450000Y-81600000D01*
%TO.C,D7*%
X23150000Y-109200000D02*
X27050000Y-109200000D01*
X23150000Y-107200000D02*
X27050000Y-107200000D01*
X23150000Y-109200000D02*
X23150000Y-107200000D01*
%TO.C,D8*%
X57650000Y-21400000D02*
X61550000Y-21400000D01*
X57650000Y-19400000D02*
X61550000Y-19400000D01*
X57650000Y-21400000D02*
X57650000Y-19400000D01*
%TO.C,D9*%
X36250000Y-34400000D02*
X40150000Y-34400000D01*
X36250000Y-32400000D02*
X40150000Y-32400000D01*
X36250000Y-34400000D02*
X36250000Y-32400000D01*
%TO.C,D10*%
X31650000Y-50900000D02*
X35550000Y-50900000D01*
X31650000Y-48900000D02*
X35550000Y-48900000D01*
X31650000Y-50900000D02*
X31650000Y-48900000D01*
%TO.C,D11*%
X31650000Y-67200000D02*
X35550000Y-67200000D01*
X31650000Y-65200000D02*
X35550000Y-65200000D01*
X31650000Y-67200000D02*
X31650000Y-65200000D01*
%TO.C,D12*%
X35750000Y-83600000D02*
X39650000Y-83600000D01*
X35750000Y-81600000D02*
X39650000Y-81600000D01*
X35750000Y-83600000D02*
X35750000Y-81600000D01*
%TO.C,D13*%
X38850000Y-109200000D02*
X42750000Y-109200000D01*
X38850000Y-107200000D02*
X42750000Y-107200000D01*
X38850000Y-109200000D02*
X38850000Y-107200000D01*
%TO.C,D14*%
X61650000Y-48300000D02*
X65550000Y-48300000D01*
X61650000Y-46300000D02*
X65550000Y-46300000D01*
X61650000Y-48300000D02*
X61650000Y-46300000D01*
%TO.C,D15*%
X53050000Y-34400000D02*
X56950000Y-34400000D01*
X53050000Y-32400000D02*
X56950000Y-32400000D01*
X53050000Y-34400000D02*
X53050000Y-32400000D01*
%TO.C,D16*%
X61650000Y-50800000D02*
X65550000Y-50800000D01*
X61650000Y-48800000D02*
X65550000Y-48800000D01*
X61650000Y-50800000D02*
X61650000Y-48800000D01*
%TO.C,D17*%
X53650000Y-67200000D02*
X57550000Y-67200000D01*
X53650000Y-65200000D02*
X57550000Y-65200000D01*
X53650000Y-67200000D02*
X53650000Y-65200000D01*
%TO.C,D18*%
X60950000Y-83600000D02*
X64850000Y-83600000D01*
X60950000Y-81600000D02*
X64850000Y-81600000D01*
X60950000Y-83600000D02*
X60950000Y-81600000D01*
%TO.C,D19*%
X57750000Y-109150000D02*
X61650000Y-109150000D01*
X57750000Y-107150000D02*
X61650000Y-107150000D01*
X57750000Y-109150000D02*
X57750000Y-107150000D01*
%TO.C,D20*%
X69850000Y-34400000D02*
X73750000Y-34400000D01*
X69850000Y-32400000D02*
X73750000Y-32400000D01*
X69850000Y-34400000D02*
X69850000Y-32400000D01*
%TO.C,D21*%
X70450000Y-50800000D02*
X74350000Y-50800000D01*
X70450000Y-48800000D02*
X74350000Y-48800000D01*
X70450000Y-50800000D02*
X70450000Y-48800000D01*
%TO.C,D22*%
X70450000Y-67200000D02*
X74350000Y-67200000D01*
X70450000Y-65200000D02*
X74350000Y-65200000D01*
X70450000Y-67200000D02*
X70450000Y-65200000D01*
%TO.C,D23*%
X69850000Y-83600000D02*
X73750000Y-83600000D01*
X69850000Y-81600000D02*
X73750000Y-81600000D01*
X69850000Y-83600000D02*
X69850000Y-81600000D01*
%TO.C,D24*%
X69850000Y-100000000D02*
X73750000Y-100000000D01*
X69850000Y-98000000D02*
X73750000Y-98000000D01*
X69850000Y-100000000D02*
X69850000Y-98000000D01*
%TO.C,D25*%
X70450000Y-64400000D02*
X74350000Y-64400000D01*
X70450000Y-62400000D02*
X74350000Y-62400000D01*
X70450000Y-64400000D02*
X70450000Y-62400000D01*
%TO.C,D26*%
X86650000Y-34400000D02*
X90550000Y-34400000D01*
X86650000Y-32400000D02*
X90550000Y-32400000D01*
X86650000Y-34400000D02*
X86650000Y-32400000D01*
%TO.C,D27*%
X91450000Y-50800000D02*
X95350000Y-50800000D01*
X91450000Y-48800000D02*
X95350000Y-48800000D01*
X91450000Y-50800000D02*
X91450000Y-48800000D01*
%TO.C,D28*%
X91450000Y-67200000D02*
X95350000Y-67200000D01*
X91450000Y-65200000D02*
X95350000Y-65200000D01*
X91450000Y-67200000D02*
X91450000Y-65200000D01*
%TO.C,D29*%
X86650000Y-83600000D02*
X90550000Y-83600000D01*
X86650000Y-81600000D02*
X90550000Y-81600000D01*
X86650000Y-83600000D02*
X86650000Y-81600000D01*
%TO.C,D30*%
X86650000Y-100000000D02*
X90550000Y-100000000D01*
X86650000Y-98000000D02*
X90550000Y-98000000D01*
X86650000Y-100000000D02*
X86650000Y-98000000D01*
%TO.C,D31*%
X103450000Y-34400000D02*
X107350000Y-34400000D01*
X103450000Y-32400000D02*
X107350000Y-32400000D01*
X103450000Y-34400000D02*
X103450000Y-32400000D01*
%TO.C,D32*%
X112050000Y-50800000D02*
X115950000Y-50800000D01*
X112050000Y-48800000D02*
X115950000Y-48800000D01*
X112050000Y-50800000D02*
X112050000Y-48800000D01*
%TO.C,D33*%
X111850000Y-67200000D02*
X115750000Y-67200000D01*
X111850000Y-65200000D02*
X115750000Y-65200000D01*
X111850000Y-67200000D02*
X111850000Y-65200000D01*
%TO.C,D34*%
X103450000Y-83600000D02*
X107350000Y-83600000D01*
X103450000Y-81600000D02*
X107350000Y-81600000D01*
X103450000Y-83600000D02*
X103450000Y-81600000D01*
%TO.C,D35*%
X104050000Y-100000000D02*
X107950000Y-100000000D01*
X104050000Y-98000000D02*
X107950000Y-98000000D01*
X104050000Y-100000000D02*
X104050000Y-98000000D01*
%TO.C,D36*%
X103450000Y-80800000D02*
X107350000Y-80800000D01*
X103450000Y-78800000D02*
X107350000Y-78800000D01*
X103450000Y-80800000D02*
X103450000Y-78800000D01*
%TO.C,D37*%
X120250000Y-34400000D02*
X124150000Y-34400000D01*
X120250000Y-32400000D02*
X124150000Y-32400000D01*
X120250000Y-34400000D02*
X120250000Y-32400000D01*
%TO.C,D38*%
X128850000Y-50800000D02*
X132750000Y-50800000D01*
X128850000Y-48800000D02*
X132750000Y-48800000D01*
X128850000Y-50800000D02*
X128850000Y-48800000D01*
%TO.C,D39*%
X128650000Y-67200000D02*
X132550000Y-67200000D01*
X128650000Y-65200000D02*
X132550000Y-65200000D01*
X128650000Y-67200000D02*
X128650000Y-65200000D01*
%TO.C,D40*%
X120250000Y-83600000D02*
X124150000Y-83600000D01*
X120250000Y-81600000D02*
X124150000Y-81600000D01*
X120250000Y-83600000D02*
X120250000Y-81600000D01*
%TO.C,D41*%
X120850000Y-100000000D02*
X124750000Y-100000000D01*
X120850000Y-98000000D02*
X124750000Y-98000000D01*
X120850000Y-100000000D02*
X120850000Y-98000000D01*
%TO.C,D42*%
X137050000Y-34400000D02*
X140950000Y-34400000D01*
X137050000Y-32400000D02*
X140950000Y-32400000D01*
X137050000Y-34400000D02*
X137050000Y-32400000D01*
%TO.C,D43*%
X145650000Y-50800000D02*
X149550000Y-50800000D01*
X145650000Y-48800000D02*
X149550000Y-48800000D01*
X145650000Y-50800000D02*
X145650000Y-48800000D01*
%TO.C,D44*%
X153250000Y-67200000D02*
X157150000Y-67200000D01*
X153250000Y-65200000D02*
X157150000Y-65200000D01*
X153250000Y-67200000D02*
X153250000Y-65200000D01*
%TO.C,D45*%
X137050000Y-83600000D02*
X140950000Y-83600000D01*
X137050000Y-81600000D02*
X140950000Y-81600000D01*
X137050000Y-83600000D02*
X137050000Y-81600000D01*
%TO.C,D46*%
X137650000Y-100000000D02*
X141550000Y-100000000D01*
X137650000Y-98000000D02*
X141550000Y-98000000D01*
X137650000Y-100000000D02*
X137650000Y-98000000D01*
%TO.C,D47*%
X137650000Y-97100000D02*
X141550000Y-97100000D01*
X137650000Y-95100000D02*
X141550000Y-95100000D01*
X137650000Y-97100000D02*
X137650000Y-95100000D01*
%TO.C,D48*%
X153850000Y-34400000D02*
X157750000Y-34400000D01*
X153850000Y-32400000D02*
X157750000Y-32400000D01*
X153850000Y-34400000D02*
X153850000Y-32400000D01*
%TO.C,D49*%
X162450000Y-50800000D02*
X166350000Y-50800000D01*
X162450000Y-48800000D02*
X166350000Y-48800000D01*
X162450000Y-50800000D02*
X162450000Y-48800000D01*
%TO.C,D50*%
X162250000Y-67200000D02*
X166150000Y-67200000D01*
X162250000Y-65200000D02*
X166150000Y-65200000D01*
X162250000Y-67200000D02*
X162250000Y-65200000D01*
%TO.C,D51*%
X153850000Y-83600000D02*
X157750000Y-83600000D01*
X153850000Y-81600000D02*
X157750000Y-81600000D01*
X153850000Y-83600000D02*
X153850000Y-81600000D01*
%TO.C,D52*%
X153850000Y-100000000D02*
X157750000Y-100000000D01*
X153850000Y-98000000D02*
X157750000Y-98000000D01*
X153850000Y-100000000D02*
X153850000Y-98000000D01*
%TO.C,D53*%
X166850000Y-21400000D02*
X170750000Y-21400000D01*
X166850000Y-19400000D02*
X170750000Y-19400000D01*
X166850000Y-21400000D02*
X166850000Y-19400000D01*
%TO.C,D54*%
X170650000Y-34400000D02*
X174550000Y-34400000D01*
X170650000Y-32400000D02*
X174550000Y-32400000D01*
X170650000Y-34400000D02*
X170650000Y-32400000D01*
%TO.C,D55*%
X179250000Y-50800000D02*
X183150000Y-50800000D01*
X179250000Y-48800000D02*
X183150000Y-48800000D01*
X179250000Y-50800000D02*
X179250000Y-48800000D01*
%TO.C,D56*%
X179050000Y-67200000D02*
X182950000Y-67200000D01*
X179050000Y-65200000D02*
X182950000Y-65200000D01*
X179050000Y-67200000D02*
X179050000Y-65200000D01*
%TO.C,D57*%
X170650000Y-83600000D02*
X174550000Y-83600000D01*
X170650000Y-81600000D02*
X174550000Y-81600000D01*
X170650000Y-83600000D02*
X170650000Y-81600000D01*
%TO.C,D58*%
X170650000Y-100000000D02*
X174550000Y-100000000D01*
X170650000Y-98000000D02*
X174550000Y-98000000D01*
X170650000Y-100000000D02*
X170650000Y-98000000D01*
%TO.C,D59*%
X181450000Y-34400000D02*
X185350000Y-34400000D01*
X181450000Y-32400000D02*
X185350000Y-32400000D01*
X181450000Y-34400000D02*
X181450000Y-32400000D01*
%TO.C,D60*%
X187450000Y-34400000D02*
X191350000Y-34400000D01*
X187450000Y-32400000D02*
X191350000Y-32400000D01*
X187450000Y-34400000D02*
X187450000Y-32400000D01*
%TO.C,D61*%
X196050000Y-50800000D02*
X199950000Y-50800000D01*
X196050000Y-48800000D02*
X199950000Y-48800000D01*
X196050000Y-50800000D02*
X196050000Y-48800000D01*
%TO.C,D62*%
X195850000Y-67200000D02*
X199750000Y-67200000D01*
X195850000Y-65200000D02*
X199750000Y-65200000D01*
X195850000Y-67200000D02*
X195850000Y-65200000D01*
%TO.C,D63*%
X187450000Y-83600000D02*
X191350000Y-83600000D01*
X187450000Y-81600000D02*
X191350000Y-81600000D01*
X187450000Y-83600000D02*
X187450000Y-81600000D01*
%TO.C,D64*%
X187450000Y-100000000D02*
X191350000Y-100000000D01*
X187450000Y-98000000D02*
X191350000Y-98000000D01*
X187450000Y-100000000D02*
X187450000Y-98000000D01*
%TO.C,D65*%
X200450000Y-21400000D02*
X204350000Y-21400000D01*
X200450000Y-19400000D02*
X204350000Y-19400000D01*
X200450000Y-21400000D02*
X200450000Y-19400000D01*
%TO.C,D66*%
X204250000Y-34400000D02*
X208150000Y-34400000D01*
X204250000Y-32400000D02*
X208150000Y-32400000D01*
X204250000Y-34400000D02*
X204250000Y-32400000D01*
%TO.C,D67*%
X212650000Y-50800000D02*
X216550000Y-50800000D01*
X212650000Y-48800000D02*
X216550000Y-48800000D01*
X212650000Y-50800000D02*
X212650000Y-48800000D01*
%TO.C,D68*%
X212650000Y-67200000D02*
X216550000Y-67200000D01*
X212650000Y-65200000D02*
X216550000Y-65200000D01*
X212650000Y-67200000D02*
X212650000Y-65200000D01*
%TO.C,D69*%
X204250000Y-83600000D02*
X208150000Y-83600000D01*
X204250000Y-81600000D02*
X208150000Y-81600000D01*
X204250000Y-83600000D02*
X204250000Y-81600000D01*
%TO.C,D70*%
X197050000Y-100000000D02*
X200950000Y-100000000D01*
X197050000Y-98000000D02*
X200950000Y-98000000D01*
X197050000Y-100000000D02*
X197050000Y-98000000D01*
%TO.C,D71*%
X223150000Y-50800000D02*
X227050000Y-50800000D01*
X223150000Y-48800000D02*
X227050000Y-48800000D01*
X223150000Y-50800000D02*
X223150000Y-48800000D01*
%TO.C,D72*%
X221050000Y-34400000D02*
X224950000Y-34400000D01*
X221050000Y-32400000D02*
X224950000Y-32400000D01*
X221050000Y-34400000D02*
X221050000Y-32400000D01*
%TO.C,D73*%
X229450000Y-50800000D02*
X233350000Y-50800000D01*
X229450000Y-48800000D02*
X233350000Y-48800000D01*
X229450000Y-50800000D02*
X229450000Y-48800000D01*
%TO.C,D74*%
X229450000Y-67200000D02*
X233350000Y-67200000D01*
X229450000Y-65200000D02*
X233350000Y-65200000D01*
X229450000Y-67200000D02*
X229450000Y-65200000D01*
%TO.C,D75*%
X221050000Y-83600000D02*
X224950000Y-83600000D01*
X221050000Y-81600000D02*
X224950000Y-81600000D01*
X221050000Y-83600000D02*
X221050000Y-81600000D01*
%TO.C,D76*%
X215250000Y-100000000D02*
X219150000Y-100000000D01*
X215250000Y-98000000D02*
X219150000Y-98000000D01*
X215250000Y-100000000D02*
X215250000Y-98000000D01*
%TO.C,D77*%
X234050000Y-21400000D02*
X237950000Y-21400000D01*
X234050000Y-19400000D02*
X237950000Y-19400000D01*
X234050000Y-21400000D02*
X234050000Y-19400000D01*
%TO.C,D78*%
X237850000Y-34400000D02*
X241750000Y-34400000D01*
X237850000Y-32400000D02*
X241750000Y-32400000D01*
X237850000Y-34400000D02*
X237850000Y-32400000D01*
%TO.C,D79*%
X246250000Y-50800000D02*
X250150000Y-50800000D01*
X246250000Y-48800000D02*
X250150000Y-48800000D01*
X246250000Y-50800000D02*
X246250000Y-48800000D01*
%TO.C,D80*%
X246250000Y-67200000D02*
X250150000Y-67200000D01*
X246250000Y-65200000D02*
X250150000Y-65200000D01*
X246250000Y-67200000D02*
X246250000Y-65200000D01*
%TO.C,D81*%
X237850000Y-83600000D02*
X241750000Y-83600000D01*
X237850000Y-81600000D02*
X241750000Y-81600000D01*
X237850000Y-83600000D02*
X237850000Y-81600000D01*
%TO.C,D82*%
X232050000Y-100000000D02*
X235950000Y-100000000D01*
X232050000Y-98000000D02*
X235950000Y-98000000D01*
X232050000Y-100000000D02*
X232050000Y-98000000D01*
%TO.C,D83*%
X257750000Y-67200000D02*
X261650000Y-67200000D01*
X257750000Y-65200000D02*
X261650000Y-65200000D01*
X257750000Y-67200000D02*
X257750000Y-65200000D01*
%TO.C,D84*%
X254650000Y-34400000D02*
X258550000Y-34400000D01*
X254650000Y-32400000D02*
X258550000Y-32400000D01*
X254650000Y-34400000D02*
X254650000Y-32400000D01*
%TO.C,D85*%
X263650000Y-50800000D02*
X267550000Y-50800000D01*
X263650000Y-48800000D02*
X267550000Y-48800000D01*
X263650000Y-50800000D02*
X263650000Y-48800000D01*
%TO.C,D86*%
X263650000Y-67200000D02*
X267550000Y-67200000D01*
X263650000Y-65200000D02*
X267550000Y-65200000D01*
X263650000Y-67200000D02*
X263650000Y-65200000D01*
%TO.C,D87*%
X254650000Y-83600000D02*
X258550000Y-83600000D01*
X254650000Y-81600000D02*
X258550000Y-81600000D01*
X254650000Y-83600000D02*
X254650000Y-81600000D01*
%TO.C,D88*%
X253050000Y-100000000D02*
X256950000Y-100000000D01*
X253050000Y-98000000D02*
X256950000Y-98000000D01*
X253050000Y-100000000D02*
X253050000Y-98000000D01*
%TO.C,D89*%
X267650000Y-21400000D02*
X271550000Y-21400000D01*
X267650000Y-19400000D02*
X271550000Y-19400000D01*
X267650000Y-21400000D02*
X267650000Y-19400000D01*
%TO.C,D90*%
X271450000Y-34400000D02*
X275350000Y-34400000D01*
X271450000Y-32400000D02*
X275350000Y-32400000D01*
X271450000Y-34400000D02*
X271450000Y-32400000D01*
%TO.C,D91*%
X271450000Y-83600000D02*
X275350000Y-83600000D01*
X271450000Y-81600000D02*
X275350000Y-81600000D01*
X271450000Y-83600000D02*
X271450000Y-81600000D01*
%TO.C,D92*%
X271450000Y-100000000D02*
X275350000Y-100000000D01*
X271450000Y-98000000D02*
X275350000Y-98000000D01*
X271450000Y-100000000D02*
X271450000Y-98000000D01*
%TO.C,D93*%
X280750000Y-83600000D02*
X284650000Y-83600000D01*
X280750000Y-81600000D02*
X284650000Y-81600000D01*
X280750000Y-83600000D02*
X280750000Y-81600000D01*
%TO.C,D95*%
X288250000Y-34400000D02*
X292150000Y-34400000D01*
X288250000Y-32400000D02*
X292150000Y-32400000D01*
X288250000Y-34400000D02*
X288250000Y-32400000D01*
%TO.C,D96*%
X284650000Y-50800000D02*
X288550000Y-50800000D01*
X284650000Y-48800000D02*
X288550000Y-48800000D01*
X284650000Y-50800000D02*
X284650000Y-48800000D01*
%TO.C,D97*%
X284650000Y-67200000D02*
X288550000Y-67200000D01*
X284650000Y-65200000D02*
X288550000Y-65200000D01*
X284650000Y-67200000D02*
X284650000Y-65200000D01*
%TO.C,D98*%
X288250000Y-83600000D02*
X292150000Y-83600000D01*
X288250000Y-81600000D02*
X292150000Y-81600000D01*
X288250000Y-83600000D02*
X288250000Y-81600000D01*
%TO.C,D99*%
X288450000Y-100000000D02*
X292350000Y-100000000D01*
X288450000Y-98000000D02*
X292350000Y-98000000D01*
X288450000Y-100000000D02*
X288450000Y-98000000D01*
%TO.C,D100*%
X133250000Y-21400000D02*
X137150000Y-21400000D01*
X133250000Y-19400000D02*
X137150000Y-19400000D01*
X133250000Y-21400000D02*
X133250000Y-19400000D01*
%TO.C,D102*%
X34575000Y-27525000D02*
X31625000Y-27525000D01*
X32175000Y-24425000D02*
X34575000Y-24425000D01*
%TO.C,F1*%
X41502064Y-27610000D02*
X40297936Y-27610000D01*
X41502064Y-25790000D02*
X40297936Y-25790000D01*
%TO.C,J2*%
X276970000Y-76030000D02*
X278300000Y-76030000D01*
X276970000Y-74700000D02*
X276970000Y-76030000D01*
X279570000Y-76030000D02*
X282170000Y-76030000D01*
X279570000Y-73430000D02*
X279570000Y-76030000D01*
X276970000Y-73430000D02*
X279570000Y-73430000D01*
X282170000Y-76030000D02*
X282170000Y-73370000D01*
X276970000Y-73430000D02*
X276970000Y-73370000D01*
X276970000Y-73370000D02*
X282170000Y-73370000D01*
%TO.C,JP1*%
X27700000Y-27700000D02*
X27700000Y-24900000D01*
X27700000Y-24900000D02*
X25700000Y-24900000D01*
X25700000Y-24900000D02*
X25700000Y-27700000D01*
X25700000Y-27700000D02*
X27700000Y-27700000D01*
%TO.C,JP_LED1*%
X60225000Y-23250000D02*
X60225000Y-27350000D01*
X60225000Y-27350000D02*
X62225000Y-27350000D01*
X62225000Y-27350000D02*
X62225000Y-23250000D01*
X62225000Y-23250000D02*
X60225000Y-23250000D01*
%TO.C,JP_LED2*%
X116550000Y-18900000D02*
X116550000Y-23000000D01*
X116550000Y-23000000D02*
X118550000Y-23000000D01*
X118550000Y-23000000D02*
X118550000Y-18900000D01*
X118550000Y-18900000D02*
X116550000Y-18900000D01*
D14*
%TO.C,L1*%
X69012786Y-19662061D02*
X68712786Y-19362061D01*
X68712786Y-19362061D02*
X69012786Y-19362061D01*
X69012786Y-19362061D02*
X69012786Y-19662061D01*
%TO.C,L2*%
X73012786Y-19662061D02*
X72712786Y-19362061D01*
X72712786Y-19362061D02*
X73012786Y-19362061D01*
X73012786Y-19362061D02*
X73012786Y-19662061D01*
%TO.C,L3*%
X77012786Y-19662061D02*
X76712786Y-19362061D01*
X76712786Y-19362061D02*
X77012786Y-19362061D01*
X77012786Y-19362061D02*
X77012786Y-19662061D01*
%TO.C,L4*%
X81012786Y-19662061D02*
X80712786Y-19362061D01*
X80712786Y-19362061D02*
X81012786Y-19362061D01*
X81012786Y-19362061D02*
X81012786Y-19662061D01*
%TO.C,L6*%
X100062061Y-17887214D02*
X99762061Y-18187214D01*
X99762061Y-18187214D02*
X99762061Y-17887214D01*
X99762061Y-17887214D02*
X100062061Y-17887214D01*
%TO.C,L7*%
X100062061Y-21687214D02*
X99762061Y-21987214D01*
X99762061Y-21987214D02*
X99762061Y-21687214D01*
X99762061Y-21687214D02*
X100062061Y-21687214D01*
%TO.C,L8*%
X100062061Y-25487214D02*
X99762061Y-25787214D01*
X99762061Y-25787214D02*
X99762061Y-25487214D01*
X99762061Y-25487214D02*
X100062061Y-25487214D01*
%TO.C,L9*%
X47712786Y-17212061D02*
X47412786Y-16912061D01*
X47412786Y-16912061D02*
X47712786Y-16912061D01*
X47712786Y-16912061D02*
X47712786Y-17212061D01*
%TO.C,L10*%
X123312786Y-17212061D02*
X123012786Y-16912061D01*
X123012786Y-16912061D02*
X123312786Y-16912061D01*
X123312786Y-16912061D02*
X123312786Y-17212061D01*
%TO.C,L11*%
X156912786Y-17212061D02*
X156612786Y-16912061D01*
X156612786Y-16912061D02*
X156912786Y-16912061D01*
X156912786Y-16912061D02*
X156912786Y-17212061D01*
%TO.C,L12*%
X190512786Y-17212061D02*
X190212786Y-16912061D01*
X190212786Y-16912061D02*
X190512786Y-16912061D01*
X190512786Y-16912061D02*
X190512786Y-17212061D01*
%TO.C,L14*%
X257712786Y-17212061D02*
X257412786Y-16912061D01*
X257412786Y-16912061D02*
X257712786Y-16912061D01*
X257712786Y-16912061D02*
X257712786Y-17212061D01*
D13*
%TO.C,R1*%
X23327064Y-26135000D02*
X22872936Y-26135000D01*
X23327064Y-24665000D02*
X22872936Y-24665000D01*
%TO.C,R4*%
X34172936Y-62565000D02*
X34627064Y-62565000D01*
X34172936Y-64035000D02*
X34627064Y-64035000D01*
%TO.C,R5*%
X24772936Y-18165000D02*
X25227064Y-18165000D01*
X24772936Y-19635000D02*
X25227064Y-19635000D01*
%TO.C,R6*%
X24772936Y-20465000D02*
X25227064Y-20465000D01*
X24772936Y-21935000D02*
X25227064Y-21935000D01*
%TO.C,R7*%
X35915000Y-26252064D02*
X35915000Y-25797936D01*
X37385000Y-26252064D02*
X37385000Y-25797936D01*
%TO.C,R8*%
X29365000Y-26252064D02*
X29365000Y-25797936D01*
X30835000Y-26252064D02*
X30835000Y-25797936D01*
%TO.C,R9*%
X62572936Y-100740000D02*
X63027064Y-100740000D01*
X62572936Y-102210000D02*
X63027064Y-102210000D01*
%TO.C,ResetSW1*%
X42550000Y-62480000D02*
X43040000Y-62970000D01*
X39650000Y-62480000D02*
X42550000Y-62480000D01*
X39650000Y-62480000D02*
X39160000Y-62970000D01*
X39650000Y-67920000D02*
X42550000Y-67920000D01*
X39650000Y-67920000D02*
X39160000Y-67430000D01*
X43820000Y-64160000D02*
X43820000Y-66240000D01*
X42550000Y-67920000D02*
X43040000Y-67430000D01*
X38380000Y-64160000D02*
X38380000Y-66240000D01*
D10*
%TO.C,J1*%
X37875000Y-16225000D02*
X37875000Y-16575000D01*
X28925000Y-16225000D02*
X37875000Y-16225000D01*
X28925000Y-16575000D02*
X28925000Y-16225000D01*
X28925000Y-22885000D02*
X37875000Y-22885000D01*
%TO.C,U1*%
D15*
X46092666Y-102647333D02*
X46092666Y-103780666D01*
X46026000Y-103914000D01*
X45959333Y-103980666D01*
X45826000Y-104047333D01*
X45559333Y-104047333D01*
X45426000Y-103980666D01*
X45359333Y-103914000D01*
X45292666Y-103780666D01*
X45292666Y-102647333D01*
X43892666Y-104047333D02*
X44692666Y-104047333D01*
X44292666Y-104047333D02*
X44292666Y-102647333D01*
X44426000Y-102847333D01*
X44559333Y-102980666D01*
X44692666Y-103047333D01*
X54750000Y-87507233D02*
X54083333Y-87507233D01*
X54883333Y-87907233D02*
X54416666Y-86507233D01*
X53950000Y-87907233D01*
X53683333Y-86507233D02*
X52883333Y-86507233D01*
X53283333Y-87907233D02*
X53283333Y-86507233D01*
X52416666Y-87907233D02*
X52416666Y-86973900D01*
X52416666Y-87107233D02*
X52350000Y-87040566D01*
X52216666Y-86973900D01*
X52016666Y-86973900D01*
X51883333Y-87040566D01*
X51816666Y-87173900D01*
X51816666Y-87907233D01*
X51816666Y-87173900D02*
X51750000Y-87040566D01*
X51616666Y-86973900D01*
X51416666Y-86973900D01*
X51283333Y-87040566D01*
X51216666Y-87173900D01*
X51216666Y-87907233D01*
X50016666Y-87840566D02*
X50150000Y-87907233D01*
X50416666Y-87907233D01*
X50550000Y-87840566D01*
X50616666Y-87707233D01*
X50616666Y-87173900D01*
X50550000Y-87040566D01*
X50416666Y-86973900D01*
X50150000Y-86973900D01*
X50016666Y-87040566D01*
X49950000Y-87173900D01*
X49950000Y-87307233D01*
X50616666Y-87440566D01*
X48750000Y-86973900D02*
X48750000Y-88107233D01*
X48816666Y-88240566D01*
X48883333Y-88307233D01*
X49016666Y-88373900D01*
X49216666Y-88373900D01*
X49350000Y-88307233D01*
X48750000Y-87840566D02*
X48883333Y-87907233D01*
X49150000Y-87907233D01*
X49283333Y-87840566D01*
X49350000Y-87773900D01*
X49416666Y-87640566D01*
X49416666Y-87240566D01*
X49350000Y-87107233D01*
X49283333Y-87040566D01*
X49150000Y-86973900D01*
X48883333Y-86973900D01*
X48750000Y-87040566D01*
X47483333Y-87907233D02*
X47483333Y-87173900D01*
X47550000Y-87040566D01*
X47683333Y-86973900D01*
X47950000Y-86973900D01*
X48083333Y-87040566D01*
X47483333Y-87840566D02*
X47616666Y-87907233D01*
X47950000Y-87907233D01*
X48083333Y-87840566D01*
X48150000Y-87707233D01*
X48150000Y-87573900D01*
X48083333Y-87440566D01*
X47950000Y-87373900D01*
X47616666Y-87373900D01*
X47483333Y-87307233D01*
X46950000Y-86507233D02*
X46083333Y-86507233D01*
X46550000Y-87040566D01*
X46350000Y-87040566D01*
X46216666Y-87107233D01*
X46150000Y-87173900D01*
X46083333Y-87307233D01*
X46083333Y-87640566D01*
X46150000Y-87773900D01*
X46216666Y-87840566D01*
X46350000Y-87907233D01*
X46750000Y-87907233D01*
X46883333Y-87840566D01*
X46950000Y-87773900D01*
X45550000Y-86640566D02*
X45483333Y-86573900D01*
X45350000Y-86507233D01*
X45016666Y-86507233D01*
X44883333Y-86573900D01*
X44816666Y-86640566D01*
X44750000Y-86773900D01*
X44750000Y-86907233D01*
X44816666Y-87107233D01*
X45616666Y-87907233D01*
X44750000Y-87907233D01*
X44150000Y-86507233D02*
X44150000Y-87640566D01*
X44083333Y-87773900D01*
X44016666Y-87840566D01*
X43883333Y-87907233D01*
X43616666Y-87907233D01*
X43483333Y-87840566D01*
X43416666Y-87773900D01*
X43350000Y-87640566D01*
X43350000Y-86507233D01*
X42083333Y-86973900D02*
X42083333Y-87907233D01*
X42416666Y-86440566D02*
X42750000Y-87440566D01*
X41883333Y-87440566D01*
X41350000Y-87373900D02*
X40283333Y-87373900D01*
X39616666Y-87907233D02*
X39616666Y-86507233D01*
X39150000Y-87507233D01*
X38683333Y-86507233D01*
X38683333Y-87907233D01*
X38016666Y-86507233D02*
X38016666Y-87640566D01*
X37950000Y-87773900D01*
X37883333Y-87840566D01*
X37750000Y-87907233D01*
X37483333Y-87907233D01*
X37350000Y-87840566D01*
X37283333Y-87773900D01*
X37216666Y-87640566D01*
X37216666Y-86507233D01*
%TO.C,Y1*%
D14*
X46126190Y-82723809D02*
X46602380Y-82723809D01*
X45602380Y-82390476D02*
X46126190Y-82723809D01*
X45602380Y-83057142D01*
X46602380Y-83914285D02*
X46602380Y-83342857D01*
X46602380Y-83628571D02*
X45602380Y-83628571D01*
X45745238Y-83533333D01*
X45840476Y-83438095D01*
X45888095Y-83342857D01*
%TO.C,D94*%
X285914285Y-101552380D02*
X285914285Y-100552380D01*
X285676190Y-100552380D01*
X285533333Y-100600000D01*
X285438095Y-100695238D01*
X285390476Y-100790476D01*
X285342857Y-100980952D01*
X285342857Y-101123809D01*
X285390476Y-101314285D01*
X285438095Y-101409523D01*
X285533333Y-101504761D01*
X285676190Y-101552380D01*
X285914285Y-101552380D01*
X284866666Y-101552380D02*
X284676190Y-101552380D01*
X284580952Y-101504761D01*
X284533333Y-101457142D01*
X284438095Y-101314285D01*
X284390476Y-101123809D01*
X284390476Y-100742857D01*
X284438095Y-100647619D01*
X284485714Y-100600000D01*
X284580952Y-100552380D01*
X284771428Y-100552380D01*
X284866666Y-100600000D01*
X284914285Y-100647619D01*
X284961904Y-100742857D01*
X284961904Y-100980952D01*
X284914285Y-101076190D01*
X284866666Y-101123809D01*
X284771428Y-101171428D01*
X284580952Y-101171428D01*
X284485714Y-101123809D01*
X284438095Y-101076190D01*
X284390476Y-100980952D01*
X283533333Y-100885714D02*
X283533333Y-101552380D01*
X283771428Y-100504761D02*
X284009523Y-101219047D01*
X283390476Y-101219047D01*
%TO.C,C1*%
X35457142Y-95233333D02*
X35504761Y-95185714D01*
X35552380Y-95042857D01*
X35552380Y-94947619D01*
X35504761Y-94804761D01*
X35409523Y-94709523D01*
X35314285Y-94661904D01*
X35123809Y-94614285D01*
X34980952Y-94614285D01*
X34790476Y-94661904D01*
X34695238Y-94709523D01*
X34600000Y-94804761D01*
X34552380Y-94947619D01*
X34552380Y-95042857D01*
X34600000Y-95185714D01*
X34647619Y-95233333D01*
X35552380Y-96185714D02*
X35552380Y-95614285D01*
X35552380Y-95900000D02*
X34552380Y-95900000D01*
X34695238Y-95804761D01*
X34790476Y-95709523D01*
X34838095Y-95614285D01*
%TO.C,C2*%
X49516666Y-76577142D02*
X49564285Y-76624761D01*
X49707142Y-76672380D01*
X49802380Y-76672380D01*
X49945238Y-76624761D01*
X50040476Y-76529523D01*
X50088095Y-76434285D01*
X50135714Y-76243809D01*
X50135714Y-76100952D01*
X50088095Y-75910476D01*
X50040476Y-75815238D01*
X49945238Y-75720000D01*
X49802380Y-75672380D01*
X49707142Y-75672380D01*
X49564285Y-75720000D01*
X49516666Y-75767619D01*
X49135714Y-75767619D02*
X49088095Y-75720000D01*
X48992857Y-75672380D01*
X48754761Y-75672380D01*
X48659523Y-75720000D01*
X48611904Y-75767619D01*
X48564285Y-75862857D01*
X48564285Y-75958095D01*
X48611904Y-76100952D01*
X49183333Y-76672380D01*
X48564285Y-76672380D01*
%TO.C,C3*%
X44257142Y-80033333D02*
X44304761Y-79985714D01*
X44352380Y-79842857D01*
X44352380Y-79747619D01*
X44304761Y-79604761D01*
X44209523Y-79509523D01*
X44114285Y-79461904D01*
X43923809Y-79414285D01*
X43780952Y-79414285D01*
X43590476Y-79461904D01*
X43495238Y-79509523D01*
X43400000Y-79604761D01*
X43352380Y-79747619D01*
X43352380Y-79842857D01*
X43400000Y-79985714D01*
X43447619Y-80033333D01*
X43352380Y-80366666D02*
X43352380Y-80985714D01*
X43733333Y-80652380D01*
X43733333Y-80795238D01*
X43780952Y-80890476D01*
X43828571Y-80938095D01*
X43923809Y-80985714D01*
X44161904Y-80985714D01*
X44257142Y-80938095D01*
X44304761Y-80890476D01*
X44352380Y-80795238D01*
X44352380Y-80509523D01*
X44304761Y-80414285D01*
X44257142Y-80366666D01*
%TO.C,C4*%
X44766666Y-86887142D02*
X44814285Y-86934761D01*
X44957142Y-86982380D01*
X45052380Y-86982380D01*
X45195238Y-86934761D01*
X45290476Y-86839523D01*
X45338095Y-86744285D01*
X45385714Y-86553809D01*
X45385714Y-86410952D01*
X45338095Y-86220476D01*
X45290476Y-86125238D01*
X45195238Y-86030000D01*
X45052380Y-85982380D01*
X44957142Y-85982380D01*
X44814285Y-86030000D01*
X44766666Y-86077619D01*
X43909523Y-86315714D02*
X43909523Y-86982380D01*
X44147619Y-85934761D02*
X44385714Y-86649047D01*
X43766666Y-86649047D01*
%TO.C,C5*%
X61866666Y-90657142D02*
X61914285Y-90704761D01*
X62057142Y-90752380D01*
X62152380Y-90752380D01*
X62295238Y-90704761D01*
X62390476Y-90609523D01*
X62438095Y-90514285D01*
X62485714Y-90323809D01*
X62485714Y-90180952D01*
X62438095Y-89990476D01*
X62390476Y-89895238D01*
X62295238Y-89800000D01*
X62152380Y-89752380D01*
X62057142Y-89752380D01*
X61914285Y-89800000D01*
X61866666Y-89847619D01*
X60961904Y-89752380D02*
X61438095Y-89752380D01*
X61485714Y-90228571D01*
X61438095Y-90180952D01*
X61342857Y-90133333D01*
X61104761Y-90133333D01*
X61009523Y-90180952D01*
X60961904Y-90228571D01*
X60914285Y-90323809D01*
X60914285Y-90561904D01*
X60961904Y-90657142D01*
X61009523Y-90704761D01*
X61104761Y-90752380D01*
X61342857Y-90752380D01*
X61438095Y-90704761D01*
X61485714Y-90657142D01*
%TO.C,C6*%
X37877142Y-95233333D02*
X37924761Y-95185714D01*
X37972380Y-95042857D01*
X37972380Y-94947619D01*
X37924761Y-94804761D01*
X37829523Y-94709523D01*
X37734285Y-94661904D01*
X37543809Y-94614285D01*
X37400952Y-94614285D01*
X37210476Y-94661904D01*
X37115238Y-94709523D01*
X37020000Y-94804761D01*
X36972380Y-94947619D01*
X36972380Y-95042857D01*
X37020000Y-95185714D01*
X37067619Y-95233333D01*
X36972380Y-96090476D02*
X36972380Y-95900000D01*
X37020000Y-95804761D01*
X37067619Y-95757142D01*
X37210476Y-95661904D01*
X37400952Y-95614285D01*
X37781904Y-95614285D01*
X37877142Y-95661904D01*
X37924761Y-95709523D01*
X37972380Y-95804761D01*
X37972380Y-95995238D01*
X37924761Y-96090476D01*
X37877142Y-96138095D01*
X37781904Y-96185714D01*
X37543809Y-96185714D01*
X37448571Y-96138095D01*
X37400952Y-96090476D01*
X37353333Y-95995238D01*
X37353333Y-95804761D01*
X37400952Y-95709523D01*
X37448571Y-95661904D01*
X37543809Y-95614285D01*
%TO.C,C7*%
X38466666Y-98477142D02*
X38514285Y-98524761D01*
X38657142Y-98572380D01*
X38752380Y-98572380D01*
X38895238Y-98524761D01*
X38990476Y-98429523D01*
X39038095Y-98334285D01*
X39085714Y-98143809D01*
X39085714Y-98000952D01*
X39038095Y-97810476D01*
X38990476Y-97715238D01*
X38895238Y-97620000D01*
X38752380Y-97572380D01*
X38657142Y-97572380D01*
X38514285Y-97620000D01*
X38466666Y-97667619D01*
X38133333Y-97572380D02*
X37466666Y-97572380D01*
X37895238Y-98572380D01*
%TO.C,D1*%
X18938095Y-31252380D02*
X18938095Y-30252380D01*
X18700000Y-30252380D01*
X18557142Y-30300000D01*
X18461904Y-30395238D01*
X18414285Y-30490476D01*
X18366666Y-30680952D01*
X18366666Y-30823809D01*
X18414285Y-31014285D01*
X18461904Y-31109523D01*
X18557142Y-31204761D01*
X18700000Y-31252380D01*
X18938095Y-31252380D01*
X17414285Y-31252380D02*
X17985714Y-31252380D01*
X17700000Y-31252380D02*
X17700000Y-30252380D01*
X17795238Y-30395238D01*
X17890476Y-30490476D01*
X17985714Y-30538095D01*
%TO.C,D2*%
X22452380Y-19561904D02*
X21452380Y-19561904D01*
X21452380Y-19800000D01*
X21500000Y-19942857D01*
X21595238Y-20038095D01*
X21690476Y-20085714D01*
X21880952Y-20133333D01*
X22023809Y-20133333D01*
X22214285Y-20085714D01*
X22309523Y-20038095D01*
X22404761Y-19942857D01*
X22452380Y-19800000D01*
X22452380Y-19561904D01*
X21547619Y-20514285D02*
X21500000Y-20561904D01*
X21452380Y-20657142D01*
X21452380Y-20895238D01*
X21500000Y-20990476D01*
X21547619Y-21038095D01*
X21642857Y-21085714D01*
X21738095Y-21085714D01*
X21880952Y-21038095D01*
X22452380Y-20466666D01*
X22452380Y-21085714D01*
%TO.C,D3*%
X22438095Y-35852380D02*
X22438095Y-34852380D01*
X22200000Y-34852380D01*
X22057142Y-34900000D01*
X21961904Y-34995238D01*
X21914285Y-35090476D01*
X21866666Y-35280952D01*
X21866666Y-35423809D01*
X21914285Y-35614285D01*
X21961904Y-35709523D01*
X22057142Y-35804761D01*
X22200000Y-35852380D01*
X22438095Y-35852380D01*
X21533333Y-34852380D02*
X20914285Y-34852380D01*
X21247619Y-35233333D01*
X21104761Y-35233333D01*
X21009523Y-35280952D01*
X20961904Y-35328571D01*
X20914285Y-35423809D01*
X20914285Y-35661904D01*
X20961904Y-35757142D01*
X21009523Y-35804761D01*
X21104761Y-35852380D01*
X21390476Y-35852380D01*
X21485714Y-35804761D01*
X21533333Y-35757142D01*
%TO.C,D4*%
X23038095Y-52252380D02*
X23038095Y-51252380D01*
X22800000Y-51252380D01*
X22657142Y-51300000D01*
X22561904Y-51395238D01*
X22514285Y-51490476D01*
X22466666Y-51680952D01*
X22466666Y-51823809D01*
X22514285Y-52014285D01*
X22561904Y-52109523D01*
X22657142Y-52204761D01*
X22800000Y-52252380D01*
X23038095Y-52252380D01*
X21609523Y-51585714D02*
X21609523Y-52252380D01*
X21847619Y-51204761D02*
X22085714Y-51919047D01*
X21466666Y-51919047D01*
%TO.C,D5*%
X23038095Y-68652380D02*
X23038095Y-67652380D01*
X22800000Y-67652380D01*
X22657142Y-67700000D01*
X22561904Y-67795238D01*
X22514285Y-67890476D01*
X22466666Y-68080952D01*
X22466666Y-68223809D01*
X22514285Y-68414285D01*
X22561904Y-68509523D01*
X22657142Y-68604761D01*
X22800000Y-68652380D01*
X23038095Y-68652380D01*
X21561904Y-67652380D02*
X22038095Y-67652380D01*
X22085714Y-68128571D01*
X22038095Y-68080952D01*
X21942857Y-68033333D01*
X21704761Y-68033333D01*
X21609523Y-68080952D01*
X21561904Y-68128571D01*
X21514285Y-68223809D01*
X21514285Y-68461904D01*
X21561904Y-68557142D01*
X21609523Y-68604761D01*
X21704761Y-68652380D01*
X21942857Y-68652380D01*
X22038095Y-68604761D01*
X22085714Y-68557142D01*
%TO.C,D6*%
X22438095Y-85052380D02*
X22438095Y-84052380D01*
X22200000Y-84052380D01*
X22057142Y-84100000D01*
X21961904Y-84195238D01*
X21914285Y-84290476D01*
X21866666Y-84480952D01*
X21866666Y-84623809D01*
X21914285Y-84814285D01*
X21961904Y-84909523D01*
X22057142Y-85004761D01*
X22200000Y-85052380D01*
X22438095Y-85052380D01*
X21009523Y-84052380D02*
X21200000Y-84052380D01*
X21295238Y-84100000D01*
X21342857Y-84147619D01*
X21438095Y-84290476D01*
X21485714Y-84480952D01*
X21485714Y-84861904D01*
X21438095Y-84957142D01*
X21390476Y-85004761D01*
X21295238Y-85052380D01*
X21104761Y-85052380D01*
X21009523Y-85004761D01*
X20961904Y-84957142D01*
X20914285Y-84861904D01*
X20914285Y-84623809D01*
X20961904Y-84528571D01*
X21009523Y-84480952D01*
X21104761Y-84433333D01*
X21295238Y-84433333D01*
X21390476Y-84480952D01*
X21438095Y-84528571D01*
X21485714Y-84623809D01*
%TO.C,D7*%
X26138095Y-110652380D02*
X26138095Y-109652380D01*
X25900000Y-109652380D01*
X25757142Y-109700000D01*
X25661904Y-109795238D01*
X25614285Y-109890476D01*
X25566666Y-110080952D01*
X25566666Y-110223809D01*
X25614285Y-110414285D01*
X25661904Y-110509523D01*
X25757142Y-110604761D01*
X25900000Y-110652380D01*
X26138095Y-110652380D01*
X25233333Y-109652380D02*
X24566666Y-109652380D01*
X24995238Y-110652380D01*
%TO.C,D8*%
X60638095Y-22852380D02*
X60638095Y-21852380D01*
X60400000Y-21852380D01*
X60257142Y-21900000D01*
X60161904Y-21995238D01*
X60114285Y-22090476D01*
X60066666Y-22280952D01*
X60066666Y-22423809D01*
X60114285Y-22614285D01*
X60161904Y-22709523D01*
X60257142Y-22804761D01*
X60400000Y-22852380D01*
X60638095Y-22852380D01*
X59495238Y-22280952D02*
X59590476Y-22233333D01*
X59638095Y-22185714D01*
X59685714Y-22090476D01*
X59685714Y-22042857D01*
X59638095Y-21947619D01*
X59590476Y-21900000D01*
X59495238Y-21852380D01*
X59304761Y-21852380D01*
X59209523Y-21900000D01*
X59161904Y-21947619D01*
X59114285Y-22042857D01*
X59114285Y-22090476D01*
X59161904Y-22185714D01*
X59209523Y-22233333D01*
X59304761Y-22280952D01*
X59495238Y-22280952D01*
X59590476Y-22328571D01*
X59638095Y-22376190D01*
X59685714Y-22471428D01*
X59685714Y-22661904D01*
X59638095Y-22757142D01*
X59590476Y-22804761D01*
X59495238Y-22852380D01*
X59304761Y-22852380D01*
X59209523Y-22804761D01*
X59161904Y-22757142D01*
X59114285Y-22661904D01*
X59114285Y-22471428D01*
X59161904Y-22376190D01*
X59209523Y-22328571D01*
X59304761Y-22280952D01*
%TO.C,D9*%
X39238095Y-35852380D02*
X39238095Y-34852380D01*
X39000000Y-34852380D01*
X38857142Y-34900000D01*
X38761904Y-34995238D01*
X38714285Y-35090476D01*
X38666666Y-35280952D01*
X38666666Y-35423809D01*
X38714285Y-35614285D01*
X38761904Y-35709523D01*
X38857142Y-35804761D01*
X39000000Y-35852380D01*
X39238095Y-35852380D01*
X38190476Y-35852380D02*
X38000000Y-35852380D01*
X37904761Y-35804761D01*
X37857142Y-35757142D01*
X37761904Y-35614285D01*
X37714285Y-35423809D01*
X37714285Y-35042857D01*
X37761904Y-34947619D01*
X37809523Y-34900000D01*
X37904761Y-34852380D01*
X38095238Y-34852380D01*
X38190476Y-34900000D01*
X38238095Y-34947619D01*
X38285714Y-35042857D01*
X38285714Y-35280952D01*
X38238095Y-35376190D01*
X38190476Y-35423809D01*
X38095238Y-35471428D01*
X37904761Y-35471428D01*
X37809523Y-35423809D01*
X37761904Y-35376190D01*
X37714285Y-35280952D01*
%TO.C,D10*%
X35114285Y-52352380D02*
X35114285Y-51352380D01*
X34876190Y-51352380D01*
X34733333Y-51400000D01*
X34638095Y-51495238D01*
X34590476Y-51590476D01*
X34542857Y-51780952D01*
X34542857Y-51923809D01*
X34590476Y-52114285D01*
X34638095Y-52209523D01*
X34733333Y-52304761D01*
X34876190Y-52352380D01*
X35114285Y-52352380D01*
X33590476Y-52352380D02*
X34161904Y-52352380D01*
X33876190Y-52352380D02*
X33876190Y-51352380D01*
X33971428Y-51495238D01*
X34066666Y-51590476D01*
X34161904Y-51638095D01*
X32971428Y-51352380D02*
X32876190Y-51352380D01*
X32780952Y-51400000D01*
X32733333Y-51447619D01*
X32685714Y-51542857D01*
X32638095Y-51733333D01*
X32638095Y-51971428D01*
X32685714Y-52161904D01*
X32733333Y-52257142D01*
X32780952Y-52304761D01*
X32876190Y-52352380D01*
X32971428Y-52352380D01*
X33066666Y-52304761D01*
X33114285Y-52257142D01*
X33161904Y-52161904D01*
X33209523Y-51971428D01*
X33209523Y-51733333D01*
X33161904Y-51542857D01*
X33114285Y-51447619D01*
X33066666Y-51400000D01*
X32971428Y-51352380D01*
%TO.C,D11*%
X35114285Y-68652380D02*
X35114285Y-67652380D01*
X34876190Y-67652380D01*
X34733333Y-67700000D01*
X34638095Y-67795238D01*
X34590476Y-67890476D01*
X34542857Y-68080952D01*
X34542857Y-68223809D01*
X34590476Y-68414285D01*
X34638095Y-68509523D01*
X34733333Y-68604761D01*
X34876190Y-68652380D01*
X35114285Y-68652380D01*
X33590476Y-68652380D02*
X34161904Y-68652380D01*
X33876190Y-68652380D02*
X33876190Y-67652380D01*
X33971428Y-67795238D01*
X34066666Y-67890476D01*
X34161904Y-67938095D01*
X32638095Y-68652380D02*
X33209523Y-68652380D01*
X32923809Y-68652380D02*
X32923809Y-67652380D01*
X33019047Y-67795238D01*
X33114285Y-67890476D01*
X33209523Y-67938095D01*
%TO.C,D12*%
X39214285Y-85052380D02*
X39214285Y-84052380D01*
X38976190Y-84052380D01*
X38833333Y-84100000D01*
X38738095Y-84195238D01*
X38690476Y-84290476D01*
X38642857Y-84480952D01*
X38642857Y-84623809D01*
X38690476Y-84814285D01*
X38738095Y-84909523D01*
X38833333Y-85004761D01*
X38976190Y-85052380D01*
X39214285Y-85052380D01*
X37690476Y-85052380D02*
X38261904Y-85052380D01*
X37976190Y-85052380D02*
X37976190Y-84052380D01*
X38071428Y-84195238D01*
X38166666Y-84290476D01*
X38261904Y-84338095D01*
X37309523Y-84147619D02*
X37261904Y-84100000D01*
X37166666Y-84052380D01*
X36928571Y-84052380D01*
X36833333Y-84100000D01*
X36785714Y-84147619D01*
X36738095Y-84242857D01*
X36738095Y-84338095D01*
X36785714Y-84480952D01*
X37357142Y-85052380D01*
X36738095Y-85052380D01*
%TO.C,D13*%
X42314285Y-110652380D02*
X42314285Y-109652380D01*
X42076190Y-109652380D01*
X41933333Y-109700000D01*
X41838095Y-109795238D01*
X41790476Y-109890476D01*
X41742857Y-110080952D01*
X41742857Y-110223809D01*
X41790476Y-110414285D01*
X41838095Y-110509523D01*
X41933333Y-110604761D01*
X42076190Y-110652380D01*
X42314285Y-110652380D01*
X40790476Y-110652380D02*
X41361904Y-110652380D01*
X41076190Y-110652380D02*
X41076190Y-109652380D01*
X41171428Y-109795238D01*
X41266666Y-109890476D01*
X41361904Y-109938095D01*
X40457142Y-109652380D02*
X39838095Y-109652380D01*
X40171428Y-110033333D01*
X40028571Y-110033333D01*
X39933333Y-110080952D01*
X39885714Y-110128571D01*
X39838095Y-110223809D01*
X39838095Y-110461904D01*
X39885714Y-110557142D01*
X39933333Y-110604761D01*
X40028571Y-110652380D01*
X40314285Y-110652380D01*
X40409523Y-110604761D01*
X40457142Y-110557142D01*
%TO.C,D14*%
X65114285Y-49752380D02*
X65114285Y-48752380D01*
X64876190Y-48752380D01*
X64733333Y-48800000D01*
X64638095Y-48895238D01*
X64590476Y-48990476D01*
X64542857Y-49180952D01*
X64542857Y-49323809D01*
X64590476Y-49514285D01*
X64638095Y-49609523D01*
X64733333Y-49704761D01*
X64876190Y-49752380D01*
X65114285Y-49752380D01*
X63590476Y-49752380D02*
X64161904Y-49752380D01*
X63876190Y-49752380D02*
X63876190Y-48752380D01*
X63971428Y-48895238D01*
X64066666Y-48990476D01*
X64161904Y-49038095D01*
X62733333Y-49085714D02*
X62733333Y-49752380D01*
X62971428Y-48704761D02*
X63209523Y-49419047D01*
X62590476Y-49419047D01*
%TO.C,D15*%
X56514285Y-35852380D02*
X56514285Y-34852380D01*
X56276190Y-34852380D01*
X56133333Y-34900000D01*
X56038095Y-34995238D01*
X55990476Y-35090476D01*
X55942857Y-35280952D01*
X55942857Y-35423809D01*
X55990476Y-35614285D01*
X56038095Y-35709523D01*
X56133333Y-35804761D01*
X56276190Y-35852380D01*
X56514285Y-35852380D01*
X54990476Y-35852380D02*
X55561904Y-35852380D01*
X55276190Y-35852380D02*
X55276190Y-34852380D01*
X55371428Y-34995238D01*
X55466666Y-35090476D01*
X55561904Y-35138095D01*
X54085714Y-34852380D02*
X54561904Y-34852380D01*
X54609523Y-35328571D01*
X54561904Y-35280952D01*
X54466666Y-35233333D01*
X54228571Y-35233333D01*
X54133333Y-35280952D01*
X54085714Y-35328571D01*
X54038095Y-35423809D01*
X54038095Y-35661904D01*
X54085714Y-35757142D01*
X54133333Y-35804761D01*
X54228571Y-35852380D01*
X54466666Y-35852380D01*
X54561904Y-35804761D01*
X54609523Y-35757142D01*
%TO.C,D16*%
X65114285Y-52252380D02*
X65114285Y-51252380D01*
X64876190Y-51252380D01*
X64733333Y-51300000D01*
X64638095Y-51395238D01*
X64590476Y-51490476D01*
X64542857Y-51680952D01*
X64542857Y-51823809D01*
X64590476Y-52014285D01*
X64638095Y-52109523D01*
X64733333Y-52204761D01*
X64876190Y-52252380D01*
X65114285Y-52252380D01*
X63590476Y-52252380D02*
X64161904Y-52252380D01*
X63876190Y-52252380D02*
X63876190Y-51252380D01*
X63971428Y-51395238D01*
X64066666Y-51490476D01*
X64161904Y-51538095D01*
X62733333Y-51252380D02*
X62923809Y-51252380D01*
X63019047Y-51300000D01*
X63066666Y-51347619D01*
X63161904Y-51490476D01*
X63209523Y-51680952D01*
X63209523Y-52061904D01*
X63161904Y-52157142D01*
X63114285Y-52204761D01*
X63019047Y-52252380D01*
X62828571Y-52252380D01*
X62733333Y-52204761D01*
X62685714Y-52157142D01*
X62638095Y-52061904D01*
X62638095Y-51823809D01*
X62685714Y-51728571D01*
X62733333Y-51680952D01*
X62828571Y-51633333D01*
X63019047Y-51633333D01*
X63114285Y-51680952D01*
X63161904Y-51728571D01*
X63209523Y-51823809D01*
%TO.C,D17*%
X57114285Y-68652380D02*
X57114285Y-67652380D01*
X56876190Y-67652380D01*
X56733333Y-67700000D01*
X56638095Y-67795238D01*
X56590476Y-67890476D01*
X56542857Y-68080952D01*
X56542857Y-68223809D01*
X56590476Y-68414285D01*
X56638095Y-68509523D01*
X56733333Y-68604761D01*
X56876190Y-68652380D01*
X57114285Y-68652380D01*
X55590476Y-68652380D02*
X56161904Y-68652380D01*
X55876190Y-68652380D02*
X55876190Y-67652380D01*
X55971428Y-67795238D01*
X56066666Y-67890476D01*
X56161904Y-67938095D01*
X55257142Y-67652380D02*
X54590476Y-67652380D01*
X55019047Y-68652380D01*
%TO.C,D18*%
X64414285Y-85052380D02*
X64414285Y-84052380D01*
X64176190Y-84052380D01*
X64033333Y-84100000D01*
X63938095Y-84195238D01*
X63890476Y-84290476D01*
X63842857Y-84480952D01*
X63842857Y-84623809D01*
X63890476Y-84814285D01*
X63938095Y-84909523D01*
X64033333Y-85004761D01*
X64176190Y-85052380D01*
X64414285Y-85052380D01*
X62890476Y-85052380D02*
X63461904Y-85052380D01*
X63176190Y-85052380D02*
X63176190Y-84052380D01*
X63271428Y-84195238D01*
X63366666Y-84290476D01*
X63461904Y-84338095D01*
X62319047Y-84480952D02*
X62414285Y-84433333D01*
X62461904Y-84385714D01*
X62509523Y-84290476D01*
X62509523Y-84242857D01*
X62461904Y-84147619D01*
X62414285Y-84100000D01*
X62319047Y-84052380D01*
X62128571Y-84052380D01*
X62033333Y-84100000D01*
X61985714Y-84147619D01*
X61938095Y-84242857D01*
X61938095Y-84290476D01*
X61985714Y-84385714D01*
X62033333Y-84433333D01*
X62128571Y-84480952D01*
X62319047Y-84480952D01*
X62414285Y-84528571D01*
X62461904Y-84576190D01*
X62509523Y-84671428D01*
X62509523Y-84861904D01*
X62461904Y-84957142D01*
X62414285Y-85004761D01*
X62319047Y-85052380D01*
X62128571Y-85052380D01*
X62033333Y-85004761D01*
X61985714Y-84957142D01*
X61938095Y-84861904D01*
X61938095Y-84671428D01*
X61985714Y-84576190D01*
X62033333Y-84528571D01*
X62128571Y-84480952D01*
%TO.C,D19*%
X61214285Y-110602380D02*
X61214285Y-109602380D01*
X60976190Y-109602380D01*
X60833333Y-109650000D01*
X60738095Y-109745238D01*
X60690476Y-109840476D01*
X60642857Y-110030952D01*
X60642857Y-110173809D01*
X60690476Y-110364285D01*
X60738095Y-110459523D01*
X60833333Y-110554761D01*
X60976190Y-110602380D01*
X61214285Y-110602380D01*
X59690476Y-110602380D02*
X60261904Y-110602380D01*
X59976190Y-110602380D02*
X59976190Y-109602380D01*
X60071428Y-109745238D01*
X60166666Y-109840476D01*
X60261904Y-109888095D01*
X59214285Y-110602380D02*
X59023809Y-110602380D01*
X58928571Y-110554761D01*
X58880952Y-110507142D01*
X58785714Y-110364285D01*
X58738095Y-110173809D01*
X58738095Y-109792857D01*
X58785714Y-109697619D01*
X58833333Y-109650000D01*
X58928571Y-109602380D01*
X59119047Y-109602380D01*
X59214285Y-109650000D01*
X59261904Y-109697619D01*
X59309523Y-109792857D01*
X59309523Y-110030952D01*
X59261904Y-110126190D01*
X59214285Y-110173809D01*
X59119047Y-110221428D01*
X58928571Y-110221428D01*
X58833333Y-110173809D01*
X58785714Y-110126190D01*
X58738095Y-110030952D01*
%TO.C,D20*%
X73314285Y-35852380D02*
X73314285Y-34852380D01*
X73076190Y-34852380D01*
X72933333Y-34900000D01*
X72838095Y-34995238D01*
X72790476Y-35090476D01*
X72742857Y-35280952D01*
X72742857Y-35423809D01*
X72790476Y-35614285D01*
X72838095Y-35709523D01*
X72933333Y-35804761D01*
X73076190Y-35852380D01*
X73314285Y-35852380D01*
X72361904Y-34947619D02*
X72314285Y-34900000D01*
X72219047Y-34852380D01*
X71980952Y-34852380D01*
X71885714Y-34900000D01*
X71838095Y-34947619D01*
X71790476Y-35042857D01*
X71790476Y-35138095D01*
X71838095Y-35280952D01*
X72409523Y-35852380D01*
X71790476Y-35852380D01*
X71171428Y-34852380D02*
X71076190Y-34852380D01*
X70980952Y-34900000D01*
X70933333Y-34947619D01*
X70885714Y-35042857D01*
X70838095Y-35233333D01*
X70838095Y-35471428D01*
X70885714Y-35661904D01*
X70933333Y-35757142D01*
X70980952Y-35804761D01*
X71076190Y-35852380D01*
X71171428Y-35852380D01*
X71266666Y-35804761D01*
X71314285Y-35757142D01*
X71361904Y-35661904D01*
X71409523Y-35471428D01*
X71409523Y-35233333D01*
X71361904Y-35042857D01*
X71314285Y-34947619D01*
X71266666Y-34900000D01*
X71171428Y-34852380D01*
%TO.C,D21*%
X73914285Y-52252380D02*
X73914285Y-51252380D01*
X73676190Y-51252380D01*
X73533333Y-51300000D01*
X73438095Y-51395238D01*
X73390476Y-51490476D01*
X73342857Y-51680952D01*
X73342857Y-51823809D01*
X73390476Y-52014285D01*
X73438095Y-52109523D01*
X73533333Y-52204761D01*
X73676190Y-52252380D01*
X73914285Y-52252380D01*
X72961904Y-51347619D02*
X72914285Y-51300000D01*
X72819047Y-51252380D01*
X72580952Y-51252380D01*
X72485714Y-51300000D01*
X72438095Y-51347619D01*
X72390476Y-51442857D01*
X72390476Y-51538095D01*
X72438095Y-51680952D01*
X73009523Y-52252380D01*
X72390476Y-52252380D01*
X71438095Y-52252380D02*
X72009523Y-52252380D01*
X71723809Y-52252380D02*
X71723809Y-51252380D01*
X71819047Y-51395238D01*
X71914285Y-51490476D01*
X72009523Y-51538095D01*
%TO.C,D22*%
X73914285Y-68652380D02*
X73914285Y-67652380D01*
X73676190Y-67652380D01*
X73533333Y-67700000D01*
X73438095Y-67795238D01*
X73390476Y-67890476D01*
X73342857Y-68080952D01*
X73342857Y-68223809D01*
X73390476Y-68414285D01*
X73438095Y-68509523D01*
X73533333Y-68604761D01*
X73676190Y-68652380D01*
X73914285Y-68652380D01*
X72961904Y-67747619D02*
X72914285Y-67700000D01*
X72819047Y-67652380D01*
X72580952Y-67652380D01*
X72485714Y-67700000D01*
X72438095Y-67747619D01*
X72390476Y-67842857D01*
X72390476Y-67938095D01*
X72438095Y-68080952D01*
X73009523Y-68652380D01*
X72390476Y-68652380D01*
X72009523Y-67747619D02*
X71961904Y-67700000D01*
X71866666Y-67652380D01*
X71628571Y-67652380D01*
X71533333Y-67700000D01*
X71485714Y-67747619D01*
X71438095Y-67842857D01*
X71438095Y-67938095D01*
X71485714Y-68080952D01*
X72057142Y-68652380D01*
X71438095Y-68652380D01*
%TO.C,D23*%
X73314285Y-85052380D02*
X73314285Y-84052380D01*
X73076190Y-84052380D01*
X72933333Y-84100000D01*
X72838095Y-84195238D01*
X72790476Y-84290476D01*
X72742857Y-84480952D01*
X72742857Y-84623809D01*
X72790476Y-84814285D01*
X72838095Y-84909523D01*
X72933333Y-85004761D01*
X73076190Y-85052380D01*
X73314285Y-85052380D01*
X72361904Y-84147619D02*
X72314285Y-84100000D01*
X72219047Y-84052380D01*
X71980952Y-84052380D01*
X71885714Y-84100000D01*
X71838095Y-84147619D01*
X71790476Y-84242857D01*
X71790476Y-84338095D01*
X71838095Y-84480952D01*
X72409523Y-85052380D01*
X71790476Y-85052380D01*
X71457142Y-84052380D02*
X70838095Y-84052380D01*
X71171428Y-84433333D01*
X71028571Y-84433333D01*
X70933333Y-84480952D01*
X70885714Y-84528571D01*
X70838095Y-84623809D01*
X70838095Y-84861904D01*
X70885714Y-84957142D01*
X70933333Y-85004761D01*
X71028571Y-85052380D01*
X71314285Y-85052380D01*
X71409523Y-85004761D01*
X71457142Y-84957142D01*
%TO.C,D24*%
X73314285Y-101452380D02*
X73314285Y-100452380D01*
X73076190Y-100452380D01*
X72933333Y-100500000D01*
X72838095Y-100595238D01*
X72790476Y-100690476D01*
X72742857Y-100880952D01*
X72742857Y-101023809D01*
X72790476Y-101214285D01*
X72838095Y-101309523D01*
X72933333Y-101404761D01*
X73076190Y-101452380D01*
X73314285Y-101452380D01*
X72361904Y-100547619D02*
X72314285Y-100500000D01*
X72219047Y-100452380D01*
X71980952Y-100452380D01*
X71885714Y-100500000D01*
X71838095Y-100547619D01*
X71790476Y-100642857D01*
X71790476Y-100738095D01*
X71838095Y-100880952D01*
X72409523Y-101452380D01*
X71790476Y-101452380D01*
X70933333Y-100785714D02*
X70933333Y-101452380D01*
X71171428Y-100404761D02*
X71409523Y-101119047D01*
X70790476Y-101119047D01*
%TO.C,D25*%
X73914285Y-65852380D02*
X73914285Y-64852380D01*
X73676190Y-64852380D01*
X73533333Y-64900000D01*
X73438095Y-64995238D01*
X73390476Y-65090476D01*
X73342857Y-65280952D01*
X73342857Y-65423809D01*
X73390476Y-65614285D01*
X73438095Y-65709523D01*
X73533333Y-65804761D01*
X73676190Y-65852380D01*
X73914285Y-65852380D01*
X72961904Y-64947619D02*
X72914285Y-64900000D01*
X72819047Y-64852380D01*
X72580952Y-64852380D01*
X72485714Y-64900000D01*
X72438095Y-64947619D01*
X72390476Y-65042857D01*
X72390476Y-65138095D01*
X72438095Y-65280952D01*
X73009523Y-65852380D01*
X72390476Y-65852380D01*
X71485714Y-64852380D02*
X71961904Y-64852380D01*
X72009523Y-65328571D01*
X71961904Y-65280952D01*
X71866666Y-65233333D01*
X71628571Y-65233333D01*
X71533333Y-65280952D01*
X71485714Y-65328571D01*
X71438095Y-65423809D01*
X71438095Y-65661904D01*
X71485714Y-65757142D01*
X71533333Y-65804761D01*
X71628571Y-65852380D01*
X71866666Y-65852380D01*
X71961904Y-65804761D01*
X72009523Y-65757142D01*
%TO.C,D26*%
X90114285Y-35852380D02*
X90114285Y-34852380D01*
X89876190Y-34852380D01*
X89733333Y-34900000D01*
X89638095Y-34995238D01*
X89590476Y-35090476D01*
X89542857Y-35280952D01*
X89542857Y-35423809D01*
X89590476Y-35614285D01*
X89638095Y-35709523D01*
X89733333Y-35804761D01*
X89876190Y-35852380D01*
X90114285Y-35852380D01*
X89161904Y-34947619D02*
X89114285Y-34900000D01*
X89019047Y-34852380D01*
X88780952Y-34852380D01*
X88685714Y-34900000D01*
X88638095Y-34947619D01*
X88590476Y-35042857D01*
X88590476Y-35138095D01*
X88638095Y-35280952D01*
X89209523Y-35852380D01*
X88590476Y-35852380D01*
X87733333Y-34852380D02*
X87923809Y-34852380D01*
X88019047Y-34900000D01*
X88066666Y-34947619D01*
X88161904Y-35090476D01*
X88209523Y-35280952D01*
X88209523Y-35661904D01*
X88161904Y-35757142D01*
X88114285Y-35804761D01*
X88019047Y-35852380D01*
X87828571Y-35852380D01*
X87733333Y-35804761D01*
X87685714Y-35757142D01*
X87638095Y-35661904D01*
X87638095Y-35423809D01*
X87685714Y-35328571D01*
X87733333Y-35280952D01*
X87828571Y-35233333D01*
X88019047Y-35233333D01*
X88114285Y-35280952D01*
X88161904Y-35328571D01*
X88209523Y-35423809D01*
%TO.C,D27*%
X94914285Y-52252380D02*
X94914285Y-51252380D01*
X94676190Y-51252380D01*
X94533333Y-51300000D01*
X94438095Y-51395238D01*
X94390476Y-51490476D01*
X94342857Y-51680952D01*
X94342857Y-51823809D01*
X94390476Y-52014285D01*
X94438095Y-52109523D01*
X94533333Y-52204761D01*
X94676190Y-52252380D01*
X94914285Y-52252380D01*
X93961904Y-51347619D02*
X93914285Y-51300000D01*
X93819047Y-51252380D01*
X93580952Y-51252380D01*
X93485714Y-51300000D01*
X93438095Y-51347619D01*
X93390476Y-51442857D01*
X93390476Y-51538095D01*
X93438095Y-51680952D01*
X94009523Y-52252380D01*
X93390476Y-52252380D01*
X93057142Y-51252380D02*
X92390476Y-51252380D01*
X92819047Y-52252380D01*
%TO.C,D28*%
X94914285Y-68652380D02*
X94914285Y-67652380D01*
X94676190Y-67652380D01*
X94533333Y-67700000D01*
X94438095Y-67795238D01*
X94390476Y-67890476D01*
X94342857Y-68080952D01*
X94342857Y-68223809D01*
X94390476Y-68414285D01*
X94438095Y-68509523D01*
X94533333Y-68604761D01*
X94676190Y-68652380D01*
X94914285Y-68652380D01*
X93961904Y-67747619D02*
X93914285Y-67700000D01*
X93819047Y-67652380D01*
X93580952Y-67652380D01*
X93485714Y-67700000D01*
X93438095Y-67747619D01*
X93390476Y-67842857D01*
X93390476Y-67938095D01*
X93438095Y-68080952D01*
X94009523Y-68652380D01*
X93390476Y-68652380D01*
X92819047Y-68080952D02*
X92914285Y-68033333D01*
X92961904Y-67985714D01*
X93009523Y-67890476D01*
X93009523Y-67842857D01*
X92961904Y-67747619D01*
X92914285Y-67700000D01*
X92819047Y-67652380D01*
X92628571Y-67652380D01*
X92533333Y-67700000D01*
X92485714Y-67747619D01*
X92438095Y-67842857D01*
X92438095Y-67890476D01*
X92485714Y-67985714D01*
X92533333Y-68033333D01*
X92628571Y-68080952D01*
X92819047Y-68080952D01*
X92914285Y-68128571D01*
X92961904Y-68176190D01*
X93009523Y-68271428D01*
X93009523Y-68461904D01*
X92961904Y-68557142D01*
X92914285Y-68604761D01*
X92819047Y-68652380D01*
X92628571Y-68652380D01*
X92533333Y-68604761D01*
X92485714Y-68557142D01*
X92438095Y-68461904D01*
X92438095Y-68271428D01*
X92485714Y-68176190D01*
X92533333Y-68128571D01*
X92628571Y-68080952D01*
%TO.C,D29*%
X90114285Y-85052380D02*
X90114285Y-84052380D01*
X89876190Y-84052380D01*
X89733333Y-84100000D01*
X89638095Y-84195238D01*
X89590476Y-84290476D01*
X89542857Y-84480952D01*
X89542857Y-84623809D01*
X89590476Y-84814285D01*
X89638095Y-84909523D01*
X89733333Y-85004761D01*
X89876190Y-85052380D01*
X90114285Y-85052380D01*
X89161904Y-84147619D02*
X89114285Y-84100000D01*
X89019047Y-84052380D01*
X88780952Y-84052380D01*
X88685714Y-84100000D01*
X88638095Y-84147619D01*
X88590476Y-84242857D01*
X88590476Y-84338095D01*
X88638095Y-84480952D01*
X89209523Y-85052380D01*
X88590476Y-85052380D01*
X88114285Y-85052380D02*
X87923809Y-85052380D01*
X87828571Y-85004761D01*
X87780952Y-84957142D01*
X87685714Y-84814285D01*
X87638095Y-84623809D01*
X87638095Y-84242857D01*
X87685714Y-84147619D01*
X87733333Y-84100000D01*
X87828571Y-84052380D01*
X88019047Y-84052380D01*
X88114285Y-84100000D01*
X88161904Y-84147619D01*
X88209523Y-84242857D01*
X88209523Y-84480952D01*
X88161904Y-84576190D01*
X88114285Y-84623809D01*
X88019047Y-84671428D01*
X87828571Y-84671428D01*
X87733333Y-84623809D01*
X87685714Y-84576190D01*
X87638095Y-84480952D01*
%TO.C,D30*%
X90114285Y-101452380D02*
X90114285Y-100452380D01*
X89876190Y-100452380D01*
X89733333Y-100500000D01*
X89638095Y-100595238D01*
X89590476Y-100690476D01*
X89542857Y-100880952D01*
X89542857Y-101023809D01*
X89590476Y-101214285D01*
X89638095Y-101309523D01*
X89733333Y-101404761D01*
X89876190Y-101452380D01*
X90114285Y-101452380D01*
X89209523Y-100452380D02*
X88590476Y-100452380D01*
X88923809Y-100833333D01*
X88780952Y-100833333D01*
X88685714Y-100880952D01*
X88638095Y-100928571D01*
X88590476Y-101023809D01*
X88590476Y-101261904D01*
X88638095Y-101357142D01*
X88685714Y-101404761D01*
X88780952Y-101452380D01*
X89066666Y-101452380D01*
X89161904Y-101404761D01*
X89209523Y-101357142D01*
X87971428Y-100452380D02*
X87876190Y-100452380D01*
X87780952Y-100500000D01*
X87733333Y-100547619D01*
X87685714Y-100642857D01*
X87638095Y-100833333D01*
X87638095Y-101071428D01*
X87685714Y-101261904D01*
X87733333Y-101357142D01*
X87780952Y-101404761D01*
X87876190Y-101452380D01*
X87971428Y-101452380D01*
X88066666Y-101404761D01*
X88114285Y-101357142D01*
X88161904Y-101261904D01*
X88209523Y-101071428D01*
X88209523Y-100833333D01*
X88161904Y-100642857D01*
X88114285Y-100547619D01*
X88066666Y-100500000D01*
X87971428Y-100452380D01*
%TO.C,D31*%
X106914285Y-35852380D02*
X106914285Y-34852380D01*
X106676190Y-34852380D01*
X106533333Y-34900000D01*
X106438095Y-34995238D01*
X106390476Y-35090476D01*
X106342857Y-35280952D01*
X106342857Y-35423809D01*
X106390476Y-35614285D01*
X106438095Y-35709523D01*
X106533333Y-35804761D01*
X106676190Y-35852380D01*
X106914285Y-35852380D01*
X106009523Y-34852380D02*
X105390476Y-34852380D01*
X105723809Y-35233333D01*
X105580952Y-35233333D01*
X105485714Y-35280952D01*
X105438095Y-35328571D01*
X105390476Y-35423809D01*
X105390476Y-35661904D01*
X105438095Y-35757142D01*
X105485714Y-35804761D01*
X105580952Y-35852380D01*
X105866666Y-35852380D01*
X105961904Y-35804761D01*
X106009523Y-35757142D01*
X104438095Y-35852380D02*
X105009523Y-35852380D01*
X104723809Y-35852380D02*
X104723809Y-34852380D01*
X104819047Y-34995238D01*
X104914285Y-35090476D01*
X105009523Y-35138095D01*
%TO.C,D32*%
X115514285Y-52252380D02*
X115514285Y-51252380D01*
X115276190Y-51252380D01*
X115133333Y-51300000D01*
X115038095Y-51395238D01*
X114990476Y-51490476D01*
X114942857Y-51680952D01*
X114942857Y-51823809D01*
X114990476Y-52014285D01*
X115038095Y-52109523D01*
X115133333Y-52204761D01*
X115276190Y-52252380D01*
X115514285Y-52252380D01*
X114609523Y-51252380D02*
X113990476Y-51252380D01*
X114323809Y-51633333D01*
X114180952Y-51633333D01*
X114085714Y-51680952D01*
X114038095Y-51728571D01*
X113990476Y-51823809D01*
X113990476Y-52061904D01*
X114038095Y-52157142D01*
X114085714Y-52204761D01*
X114180952Y-52252380D01*
X114466666Y-52252380D01*
X114561904Y-52204761D01*
X114609523Y-52157142D01*
X113609523Y-51347619D02*
X113561904Y-51300000D01*
X113466666Y-51252380D01*
X113228571Y-51252380D01*
X113133333Y-51300000D01*
X113085714Y-51347619D01*
X113038095Y-51442857D01*
X113038095Y-51538095D01*
X113085714Y-51680952D01*
X113657142Y-52252380D01*
X113038095Y-52252380D01*
%TO.C,D33*%
X115314285Y-68652380D02*
X115314285Y-67652380D01*
X115076190Y-67652380D01*
X114933333Y-67700000D01*
X114838095Y-67795238D01*
X114790476Y-67890476D01*
X114742857Y-68080952D01*
X114742857Y-68223809D01*
X114790476Y-68414285D01*
X114838095Y-68509523D01*
X114933333Y-68604761D01*
X115076190Y-68652380D01*
X115314285Y-68652380D01*
X114409523Y-67652380D02*
X113790476Y-67652380D01*
X114123809Y-68033333D01*
X113980952Y-68033333D01*
X113885714Y-68080952D01*
X113838095Y-68128571D01*
X113790476Y-68223809D01*
X113790476Y-68461904D01*
X113838095Y-68557142D01*
X113885714Y-68604761D01*
X113980952Y-68652380D01*
X114266666Y-68652380D01*
X114361904Y-68604761D01*
X114409523Y-68557142D01*
X113457142Y-67652380D02*
X112838095Y-67652380D01*
X113171428Y-68033333D01*
X113028571Y-68033333D01*
X112933333Y-68080952D01*
X112885714Y-68128571D01*
X112838095Y-68223809D01*
X112838095Y-68461904D01*
X112885714Y-68557142D01*
X112933333Y-68604761D01*
X113028571Y-68652380D01*
X113314285Y-68652380D01*
X113409523Y-68604761D01*
X113457142Y-68557142D01*
%TO.C,D34*%
X106914285Y-85052380D02*
X106914285Y-84052380D01*
X106676190Y-84052380D01*
X106533333Y-84100000D01*
X106438095Y-84195238D01*
X106390476Y-84290476D01*
X106342857Y-84480952D01*
X106342857Y-84623809D01*
X106390476Y-84814285D01*
X106438095Y-84909523D01*
X106533333Y-85004761D01*
X106676190Y-85052380D01*
X106914285Y-85052380D01*
X106009523Y-84052380D02*
X105390476Y-84052380D01*
X105723809Y-84433333D01*
X105580952Y-84433333D01*
X105485714Y-84480952D01*
X105438095Y-84528571D01*
X105390476Y-84623809D01*
X105390476Y-84861904D01*
X105438095Y-84957142D01*
X105485714Y-85004761D01*
X105580952Y-85052380D01*
X105866666Y-85052380D01*
X105961904Y-85004761D01*
X106009523Y-84957142D01*
X104533333Y-84385714D02*
X104533333Y-85052380D01*
X104771428Y-84004761D02*
X105009523Y-84719047D01*
X104390476Y-84719047D01*
%TO.C,D35*%
X107514285Y-101452380D02*
X107514285Y-100452380D01*
X107276190Y-100452380D01*
X107133333Y-100500000D01*
X107038095Y-100595238D01*
X106990476Y-100690476D01*
X106942857Y-100880952D01*
X106942857Y-101023809D01*
X106990476Y-101214285D01*
X107038095Y-101309523D01*
X107133333Y-101404761D01*
X107276190Y-101452380D01*
X107514285Y-101452380D01*
X106609523Y-100452380D02*
X105990476Y-100452380D01*
X106323809Y-100833333D01*
X106180952Y-100833333D01*
X106085714Y-100880952D01*
X106038095Y-100928571D01*
X105990476Y-101023809D01*
X105990476Y-101261904D01*
X106038095Y-101357142D01*
X106085714Y-101404761D01*
X106180952Y-101452380D01*
X106466666Y-101452380D01*
X106561904Y-101404761D01*
X106609523Y-101357142D01*
X105085714Y-100452380D02*
X105561904Y-100452380D01*
X105609523Y-100928571D01*
X105561904Y-100880952D01*
X105466666Y-100833333D01*
X105228571Y-100833333D01*
X105133333Y-100880952D01*
X105085714Y-100928571D01*
X105038095Y-101023809D01*
X105038095Y-101261904D01*
X105085714Y-101357142D01*
X105133333Y-101404761D01*
X105228571Y-101452380D01*
X105466666Y-101452380D01*
X105561904Y-101404761D01*
X105609523Y-101357142D01*
%TO.C,D36*%
X106914285Y-82252380D02*
X106914285Y-81252380D01*
X106676190Y-81252380D01*
X106533333Y-81300000D01*
X106438095Y-81395238D01*
X106390476Y-81490476D01*
X106342857Y-81680952D01*
X106342857Y-81823809D01*
X106390476Y-82014285D01*
X106438095Y-82109523D01*
X106533333Y-82204761D01*
X106676190Y-82252380D01*
X106914285Y-82252380D01*
X106009523Y-81252380D02*
X105390476Y-81252380D01*
X105723809Y-81633333D01*
X105580952Y-81633333D01*
X105485714Y-81680952D01*
X105438095Y-81728571D01*
X105390476Y-81823809D01*
X105390476Y-82061904D01*
X105438095Y-82157142D01*
X105485714Y-82204761D01*
X105580952Y-82252380D01*
X105866666Y-82252380D01*
X105961904Y-82204761D01*
X106009523Y-82157142D01*
X104533333Y-81252380D02*
X104723809Y-81252380D01*
X104819047Y-81300000D01*
X104866666Y-81347619D01*
X104961904Y-81490476D01*
X105009523Y-81680952D01*
X105009523Y-82061904D01*
X104961904Y-82157142D01*
X104914285Y-82204761D01*
X104819047Y-82252380D01*
X104628571Y-82252380D01*
X104533333Y-82204761D01*
X104485714Y-82157142D01*
X104438095Y-82061904D01*
X104438095Y-81823809D01*
X104485714Y-81728571D01*
X104533333Y-81680952D01*
X104628571Y-81633333D01*
X104819047Y-81633333D01*
X104914285Y-81680952D01*
X104961904Y-81728571D01*
X105009523Y-81823809D01*
%TO.C,D37*%
X123714285Y-35852380D02*
X123714285Y-34852380D01*
X123476190Y-34852380D01*
X123333333Y-34900000D01*
X123238095Y-34995238D01*
X123190476Y-35090476D01*
X123142857Y-35280952D01*
X123142857Y-35423809D01*
X123190476Y-35614285D01*
X123238095Y-35709523D01*
X123333333Y-35804761D01*
X123476190Y-35852380D01*
X123714285Y-35852380D01*
X122809523Y-34852380D02*
X122190476Y-34852380D01*
X122523809Y-35233333D01*
X122380952Y-35233333D01*
X122285714Y-35280952D01*
X122238095Y-35328571D01*
X122190476Y-35423809D01*
X122190476Y-35661904D01*
X122238095Y-35757142D01*
X122285714Y-35804761D01*
X122380952Y-35852380D01*
X122666666Y-35852380D01*
X122761904Y-35804761D01*
X122809523Y-35757142D01*
X121857142Y-34852380D02*
X121190476Y-34852380D01*
X121619047Y-35852380D01*
%TO.C,D38*%
X132314285Y-52252380D02*
X132314285Y-51252380D01*
X132076190Y-51252380D01*
X131933333Y-51300000D01*
X131838095Y-51395238D01*
X131790476Y-51490476D01*
X131742857Y-51680952D01*
X131742857Y-51823809D01*
X131790476Y-52014285D01*
X131838095Y-52109523D01*
X131933333Y-52204761D01*
X132076190Y-52252380D01*
X132314285Y-52252380D01*
X131409523Y-51252380D02*
X130790476Y-51252380D01*
X131123809Y-51633333D01*
X130980952Y-51633333D01*
X130885714Y-51680952D01*
X130838095Y-51728571D01*
X130790476Y-51823809D01*
X130790476Y-52061904D01*
X130838095Y-52157142D01*
X130885714Y-52204761D01*
X130980952Y-52252380D01*
X131266666Y-52252380D01*
X131361904Y-52204761D01*
X131409523Y-52157142D01*
X130219047Y-51680952D02*
X130314285Y-51633333D01*
X130361904Y-51585714D01*
X130409523Y-51490476D01*
X130409523Y-51442857D01*
X130361904Y-51347619D01*
X130314285Y-51300000D01*
X130219047Y-51252380D01*
X130028571Y-51252380D01*
X129933333Y-51300000D01*
X129885714Y-51347619D01*
X129838095Y-51442857D01*
X129838095Y-51490476D01*
X129885714Y-51585714D01*
X129933333Y-51633333D01*
X130028571Y-51680952D01*
X130219047Y-51680952D01*
X130314285Y-51728571D01*
X130361904Y-51776190D01*
X130409523Y-51871428D01*
X130409523Y-52061904D01*
X130361904Y-52157142D01*
X130314285Y-52204761D01*
X130219047Y-52252380D01*
X130028571Y-52252380D01*
X129933333Y-52204761D01*
X129885714Y-52157142D01*
X129838095Y-52061904D01*
X129838095Y-51871428D01*
X129885714Y-51776190D01*
X129933333Y-51728571D01*
X130028571Y-51680952D01*
%TO.C,D39*%
X132114285Y-68652380D02*
X132114285Y-67652380D01*
X131876190Y-67652380D01*
X131733333Y-67700000D01*
X131638095Y-67795238D01*
X131590476Y-67890476D01*
X131542857Y-68080952D01*
X131542857Y-68223809D01*
X131590476Y-68414285D01*
X131638095Y-68509523D01*
X131733333Y-68604761D01*
X131876190Y-68652380D01*
X132114285Y-68652380D01*
X131209523Y-67652380D02*
X130590476Y-67652380D01*
X130923809Y-68033333D01*
X130780952Y-68033333D01*
X130685714Y-68080952D01*
X130638095Y-68128571D01*
X130590476Y-68223809D01*
X130590476Y-68461904D01*
X130638095Y-68557142D01*
X130685714Y-68604761D01*
X130780952Y-68652380D01*
X131066666Y-68652380D01*
X131161904Y-68604761D01*
X131209523Y-68557142D01*
X130114285Y-68652380D02*
X129923809Y-68652380D01*
X129828571Y-68604761D01*
X129780952Y-68557142D01*
X129685714Y-68414285D01*
X129638095Y-68223809D01*
X129638095Y-67842857D01*
X129685714Y-67747619D01*
X129733333Y-67700000D01*
X129828571Y-67652380D01*
X130019047Y-67652380D01*
X130114285Y-67700000D01*
X130161904Y-67747619D01*
X130209523Y-67842857D01*
X130209523Y-68080952D01*
X130161904Y-68176190D01*
X130114285Y-68223809D01*
X130019047Y-68271428D01*
X129828571Y-68271428D01*
X129733333Y-68223809D01*
X129685714Y-68176190D01*
X129638095Y-68080952D01*
%TO.C,D40*%
X123714285Y-85052380D02*
X123714285Y-84052380D01*
X123476190Y-84052380D01*
X123333333Y-84100000D01*
X123238095Y-84195238D01*
X123190476Y-84290476D01*
X123142857Y-84480952D01*
X123142857Y-84623809D01*
X123190476Y-84814285D01*
X123238095Y-84909523D01*
X123333333Y-85004761D01*
X123476190Y-85052380D01*
X123714285Y-85052380D01*
X122285714Y-84385714D02*
X122285714Y-85052380D01*
X122523809Y-84004761D02*
X122761904Y-84719047D01*
X122142857Y-84719047D01*
X121571428Y-84052380D02*
X121476190Y-84052380D01*
X121380952Y-84100000D01*
X121333333Y-84147619D01*
X121285714Y-84242857D01*
X121238095Y-84433333D01*
X121238095Y-84671428D01*
X121285714Y-84861904D01*
X121333333Y-84957142D01*
X121380952Y-85004761D01*
X121476190Y-85052380D01*
X121571428Y-85052380D01*
X121666666Y-85004761D01*
X121714285Y-84957142D01*
X121761904Y-84861904D01*
X121809523Y-84671428D01*
X121809523Y-84433333D01*
X121761904Y-84242857D01*
X121714285Y-84147619D01*
X121666666Y-84100000D01*
X121571428Y-84052380D01*
%TO.C,D41*%
X124314285Y-101452380D02*
X124314285Y-100452380D01*
X124076190Y-100452380D01*
X123933333Y-100500000D01*
X123838095Y-100595238D01*
X123790476Y-100690476D01*
X123742857Y-100880952D01*
X123742857Y-101023809D01*
X123790476Y-101214285D01*
X123838095Y-101309523D01*
X123933333Y-101404761D01*
X124076190Y-101452380D01*
X124314285Y-101452380D01*
X122885714Y-100785714D02*
X122885714Y-101452380D01*
X123123809Y-100404761D02*
X123361904Y-101119047D01*
X122742857Y-101119047D01*
X121838095Y-101452380D02*
X122409523Y-101452380D01*
X122123809Y-101452380D02*
X122123809Y-100452380D01*
X122219047Y-100595238D01*
X122314285Y-100690476D01*
X122409523Y-100738095D01*
%TO.C,D42*%
X140514285Y-35852380D02*
X140514285Y-34852380D01*
X140276190Y-34852380D01*
X140133333Y-34900000D01*
X140038095Y-34995238D01*
X139990476Y-35090476D01*
X139942857Y-35280952D01*
X139942857Y-35423809D01*
X139990476Y-35614285D01*
X140038095Y-35709523D01*
X140133333Y-35804761D01*
X140276190Y-35852380D01*
X140514285Y-35852380D01*
X139085714Y-35185714D02*
X139085714Y-35852380D01*
X139323809Y-34804761D02*
X139561904Y-35519047D01*
X138942857Y-35519047D01*
X138609523Y-34947619D02*
X138561904Y-34900000D01*
X138466666Y-34852380D01*
X138228571Y-34852380D01*
X138133333Y-34900000D01*
X138085714Y-34947619D01*
X138038095Y-35042857D01*
X138038095Y-35138095D01*
X138085714Y-35280952D01*
X138657142Y-35852380D01*
X138038095Y-35852380D01*
%TO.C,D43*%
X149114285Y-52252380D02*
X149114285Y-51252380D01*
X148876190Y-51252380D01*
X148733333Y-51300000D01*
X148638095Y-51395238D01*
X148590476Y-51490476D01*
X148542857Y-51680952D01*
X148542857Y-51823809D01*
X148590476Y-52014285D01*
X148638095Y-52109523D01*
X148733333Y-52204761D01*
X148876190Y-52252380D01*
X149114285Y-52252380D01*
X147685714Y-51585714D02*
X147685714Y-52252380D01*
X147923809Y-51204761D02*
X148161904Y-51919047D01*
X147542857Y-51919047D01*
X147257142Y-51252380D02*
X146638095Y-51252380D01*
X146971428Y-51633333D01*
X146828571Y-51633333D01*
X146733333Y-51680952D01*
X146685714Y-51728571D01*
X146638095Y-51823809D01*
X146638095Y-52061904D01*
X146685714Y-52157142D01*
X146733333Y-52204761D01*
X146828571Y-52252380D01*
X147114285Y-52252380D01*
X147209523Y-52204761D01*
X147257142Y-52157142D01*
%TO.C,D44*%
X156714285Y-68652380D02*
X156714285Y-67652380D01*
X156476190Y-67652380D01*
X156333333Y-67700000D01*
X156238095Y-67795238D01*
X156190476Y-67890476D01*
X156142857Y-68080952D01*
X156142857Y-68223809D01*
X156190476Y-68414285D01*
X156238095Y-68509523D01*
X156333333Y-68604761D01*
X156476190Y-68652380D01*
X156714285Y-68652380D01*
X155285714Y-67985714D02*
X155285714Y-68652380D01*
X155523809Y-67604761D02*
X155761904Y-68319047D01*
X155142857Y-68319047D01*
X154333333Y-67985714D02*
X154333333Y-68652380D01*
X154571428Y-67604761D02*
X154809523Y-68319047D01*
X154190476Y-68319047D01*
%TO.C,D45*%
X140514285Y-85052380D02*
X140514285Y-84052380D01*
X140276190Y-84052380D01*
X140133333Y-84100000D01*
X140038095Y-84195238D01*
X139990476Y-84290476D01*
X139942857Y-84480952D01*
X139942857Y-84623809D01*
X139990476Y-84814285D01*
X140038095Y-84909523D01*
X140133333Y-85004761D01*
X140276190Y-85052380D01*
X140514285Y-85052380D01*
X139085714Y-84385714D02*
X139085714Y-85052380D01*
X139323809Y-84004761D02*
X139561904Y-84719047D01*
X138942857Y-84719047D01*
X138085714Y-84052380D02*
X138561904Y-84052380D01*
X138609523Y-84528571D01*
X138561904Y-84480952D01*
X138466666Y-84433333D01*
X138228571Y-84433333D01*
X138133333Y-84480952D01*
X138085714Y-84528571D01*
X138038095Y-84623809D01*
X138038095Y-84861904D01*
X138085714Y-84957142D01*
X138133333Y-85004761D01*
X138228571Y-85052380D01*
X138466666Y-85052380D01*
X138561904Y-85004761D01*
X138609523Y-84957142D01*
%TO.C,D46*%
X141114285Y-101452380D02*
X141114285Y-100452380D01*
X140876190Y-100452380D01*
X140733333Y-100500000D01*
X140638095Y-100595238D01*
X140590476Y-100690476D01*
X140542857Y-100880952D01*
X140542857Y-101023809D01*
X140590476Y-101214285D01*
X140638095Y-101309523D01*
X140733333Y-101404761D01*
X140876190Y-101452380D01*
X141114285Y-101452380D01*
X139685714Y-100785714D02*
X139685714Y-101452380D01*
X139923809Y-100404761D02*
X140161904Y-101119047D01*
X139542857Y-101119047D01*
X138733333Y-100452380D02*
X138923809Y-100452380D01*
X139019047Y-100500000D01*
X139066666Y-100547619D01*
X139161904Y-100690476D01*
X139209523Y-100880952D01*
X139209523Y-101261904D01*
X139161904Y-101357142D01*
X139114285Y-101404761D01*
X139019047Y-101452380D01*
X138828571Y-101452380D01*
X138733333Y-101404761D01*
X138685714Y-101357142D01*
X138638095Y-101261904D01*
X138638095Y-101023809D01*
X138685714Y-100928571D01*
X138733333Y-100880952D01*
X138828571Y-100833333D01*
X139019047Y-100833333D01*
X139114285Y-100880952D01*
X139161904Y-100928571D01*
X139209523Y-101023809D01*
%TO.C,D47*%
X141114285Y-98552380D02*
X141114285Y-97552380D01*
X140876190Y-97552380D01*
X140733333Y-97600000D01*
X140638095Y-97695238D01*
X140590476Y-97790476D01*
X140542857Y-97980952D01*
X140542857Y-98123809D01*
X140590476Y-98314285D01*
X140638095Y-98409523D01*
X140733333Y-98504761D01*
X140876190Y-98552380D01*
X141114285Y-98552380D01*
X139685714Y-97885714D02*
X139685714Y-98552380D01*
X139923809Y-97504761D02*
X140161904Y-98219047D01*
X139542857Y-98219047D01*
X139257142Y-97552380D02*
X138590476Y-97552380D01*
X139019047Y-98552380D01*
%TO.C,D48*%
X157314285Y-35852380D02*
X157314285Y-34852380D01*
X157076190Y-34852380D01*
X156933333Y-34900000D01*
X156838095Y-34995238D01*
X156790476Y-35090476D01*
X156742857Y-35280952D01*
X156742857Y-35423809D01*
X156790476Y-35614285D01*
X156838095Y-35709523D01*
X156933333Y-35804761D01*
X157076190Y-35852380D01*
X157314285Y-35852380D01*
X155885714Y-35185714D02*
X155885714Y-35852380D01*
X156123809Y-34804761D02*
X156361904Y-35519047D01*
X155742857Y-35519047D01*
X155219047Y-35280952D02*
X155314285Y-35233333D01*
X155361904Y-35185714D01*
X155409523Y-35090476D01*
X155409523Y-35042857D01*
X155361904Y-34947619D01*
X155314285Y-34900000D01*
X155219047Y-34852380D01*
X155028571Y-34852380D01*
X154933333Y-34900000D01*
X154885714Y-34947619D01*
X154838095Y-35042857D01*
X154838095Y-35090476D01*
X154885714Y-35185714D01*
X154933333Y-35233333D01*
X155028571Y-35280952D01*
X155219047Y-35280952D01*
X155314285Y-35328571D01*
X155361904Y-35376190D01*
X155409523Y-35471428D01*
X155409523Y-35661904D01*
X155361904Y-35757142D01*
X155314285Y-35804761D01*
X155219047Y-35852380D01*
X155028571Y-35852380D01*
X154933333Y-35804761D01*
X154885714Y-35757142D01*
X154838095Y-35661904D01*
X154838095Y-35471428D01*
X154885714Y-35376190D01*
X154933333Y-35328571D01*
X155028571Y-35280952D01*
%TO.C,D49*%
X165914285Y-52252380D02*
X165914285Y-51252380D01*
X165676190Y-51252380D01*
X165533333Y-51300000D01*
X165438095Y-51395238D01*
X165390476Y-51490476D01*
X165342857Y-51680952D01*
X165342857Y-51823809D01*
X165390476Y-52014285D01*
X165438095Y-52109523D01*
X165533333Y-52204761D01*
X165676190Y-52252380D01*
X165914285Y-52252380D01*
X164485714Y-51585714D02*
X164485714Y-52252380D01*
X164723809Y-51204761D02*
X164961904Y-51919047D01*
X164342857Y-51919047D01*
X163914285Y-52252380D02*
X163723809Y-52252380D01*
X163628571Y-52204761D01*
X163580952Y-52157142D01*
X163485714Y-52014285D01*
X163438095Y-51823809D01*
X163438095Y-51442857D01*
X163485714Y-51347619D01*
X163533333Y-51300000D01*
X163628571Y-51252380D01*
X163819047Y-51252380D01*
X163914285Y-51300000D01*
X163961904Y-51347619D01*
X164009523Y-51442857D01*
X164009523Y-51680952D01*
X163961904Y-51776190D01*
X163914285Y-51823809D01*
X163819047Y-51871428D01*
X163628571Y-51871428D01*
X163533333Y-51823809D01*
X163485714Y-51776190D01*
X163438095Y-51680952D01*
%TO.C,D50*%
X165714285Y-68652380D02*
X165714285Y-67652380D01*
X165476190Y-67652380D01*
X165333333Y-67700000D01*
X165238095Y-67795238D01*
X165190476Y-67890476D01*
X165142857Y-68080952D01*
X165142857Y-68223809D01*
X165190476Y-68414285D01*
X165238095Y-68509523D01*
X165333333Y-68604761D01*
X165476190Y-68652380D01*
X165714285Y-68652380D01*
X164238095Y-67652380D02*
X164714285Y-67652380D01*
X164761904Y-68128571D01*
X164714285Y-68080952D01*
X164619047Y-68033333D01*
X164380952Y-68033333D01*
X164285714Y-68080952D01*
X164238095Y-68128571D01*
X164190476Y-68223809D01*
X164190476Y-68461904D01*
X164238095Y-68557142D01*
X164285714Y-68604761D01*
X164380952Y-68652380D01*
X164619047Y-68652380D01*
X164714285Y-68604761D01*
X164761904Y-68557142D01*
X163571428Y-67652380D02*
X163476190Y-67652380D01*
X163380952Y-67700000D01*
X163333333Y-67747619D01*
X163285714Y-67842857D01*
X163238095Y-68033333D01*
X163238095Y-68271428D01*
X163285714Y-68461904D01*
X163333333Y-68557142D01*
X163380952Y-68604761D01*
X163476190Y-68652380D01*
X163571428Y-68652380D01*
X163666666Y-68604761D01*
X163714285Y-68557142D01*
X163761904Y-68461904D01*
X163809523Y-68271428D01*
X163809523Y-68033333D01*
X163761904Y-67842857D01*
X163714285Y-67747619D01*
X163666666Y-67700000D01*
X163571428Y-67652380D01*
%TO.C,D51*%
X157314285Y-85052380D02*
X157314285Y-84052380D01*
X157076190Y-84052380D01*
X156933333Y-84100000D01*
X156838095Y-84195238D01*
X156790476Y-84290476D01*
X156742857Y-84480952D01*
X156742857Y-84623809D01*
X156790476Y-84814285D01*
X156838095Y-84909523D01*
X156933333Y-85004761D01*
X157076190Y-85052380D01*
X157314285Y-85052380D01*
X155838095Y-84052380D02*
X156314285Y-84052380D01*
X156361904Y-84528571D01*
X156314285Y-84480952D01*
X156219047Y-84433333D01*
X155980952Y-84433333D01*
X155885714Y-84480952D01*
X155838095Y-84528571D01*
X155790476Y-84623809D01*
X155790476Y-84861904D01*
X155838095Y-84957142D01*
X155885714Y-85004761D01*
X155980952Y-85052380D01*
X156219047Y-85052380D01*
X156314285Y-85004761D01*
X156361904Y-84957142D01*
X154838095Y-85052380D02*
X155409523Y-85052380D01*
X155123809Y-85052380D02*
X155123809Y-84052380D01*
X155219047Y-84195238D01*
X155314285Y-84290476D01*
X155409523Y-84338095D01*
%TO.C,D52*%
X157314285Y-101452380D02*
X157314285Y-100452380D01*
X157076190Y-100452380D01*
X156933333Y-100500000D01*
X156838095Y-100595238D01*
X156790476Y-100690476D01*
X156742857Y-100880952D01*
X156742857Y-101023809D01*
X156790476Y-101214285D01*
X156838095Y-101309523D01*
X156933333Y-101404761D01*
X157076190Y-101452380D01*
X157314285Y-101452380D01*
X155838095Y-100452380D02*
X156314285Y-100452380D01*
X156361904Y-100928571D01*
X156314285Y-100880952D01*
X156219047Y-100833333D01*
X155980952Y-100833333D01*
X155885714Y-100880952D01*
X155838095Y-100928571D01*
X155790476Y-101023809D01*
X155790476Y-101261904D01*
X155838095Y-101357142D01*
X155885714Y-101404761D01*
X155980952Y-101452380D01*
X156219047Y-101452380D01*
X156314285Y-101404761D01*
X156361904Y-101357142D01*
X155409523Y-100547619D02*
X155361904Y-100500000D01*
X155266666Y-100452380D01*
X155028571Y-100452380D01*
X154933333Y-100500000D01*
X154885714Y-100547619D01*
X154838095Y-100642857D01*
X154838095Y-100738095D01*
X154885714Y-100880952D01*
X155457142Y-101452380D01*
X154838095Y-101452380D01*
%TO.C,D53*%
X170314285Y-22852380D02*
X170314285Y-21852380D01*
X170076190Y-21852380D01*
X169933333Y-21900000D01*
X169838095Y-21995238D01*
X169790476Y-22090476D01*
X169742857Y-22280952D01*
X169742857Y-22423809D01*
X169790476Y-22614285D01*
X169838095Y-22709523D01*
X169933333Y-22804761D01*
X170076190Y-22852380D01*
X170314285Y-22852380D01*
X168838095Y-21852380D02*
X169314285Y-21852380D01*
X169361904Y-22328571D01*
X169314285Y-22280952D01*
X169219047Y-22233333D01*
X168980952Y-22233333D01*
X168885714Y-22280952D01*
X168838095Y-22328571D01*
X168790476Y-22423809D01*
X168790476Y-22661904D01*
X168838095Y-22757142D01*
X168885714Y-22804761D01*
X168980952Y-22852380D01*
X169219047Y-22852380D01*
X169314285Y-22804761D01*
X169361904Y-22757142D01*
X168457142Y-21852380D02*
X167838095Y-21852380D01*
X168171428Y-22233333D01*
X168028571Y-22233333D01*
X167933333Y-22280952D01*
X167885714Y-22328571D01*
X167838095Y-22423809D01*
X167838095Y-22661904D01*
X167885714Y-22757142D01*
X167933333Y-22804761D01*
X168028571Y-22852380D01*
X168314285Y-22852380D01*
X168409523Y-22804761D01*
X168457142Y-22757142D01*
%TO.C,D54*%
X174114285Y-35852380D02*
X174114285Y-34852380D01*
X173876190Y-34852380D01*
X173733333Y-34900000D01*
X173638095Y-34995238D01*
X173590476Y-35090476D01*
X173542857Y-35280952D01*
X173542857Y-35423809D01*
X173590476Y-35614285D01*
X173638095Y-35709523D01*
X173733333Y-35804761D01*
X173876190Y-35852380D01*
X174114285Y-35852380D01*
X172638095Y-34852380D02*
X173114285Y-34852380D01*
X173161904Y-35328571D01*
X173114285Y-35280952D01*
X173019047Y-35233333D01*
X172780952Y-35233333D01*
X172685714Y-35280952D01*
X172638095Y-35328571D01*
X172590476Y-35423809D01*
X172590476Y-35661904D01*
X172638095Y-35757142D01*
X172685714Y-35804761D01*
X172780952Y-35852380D01*
X173019047Y-35852380D01*
X173114285Y-35804761D01*
X173161904Y-35757142D01*
X171733333Y-35185714D02*
X171733333Y-35852380D01*
X171971428Y-34804761D02*
X172209523Y-35519047D01*
X171590476Y-35519047D01*
%TO.C,D55*%
X182714285Y-52252380D02*
X182714285Y-51252380D01*
X182476190Y-51252380D01*
X182333333Y-51300000D01*
X182238095Y-51395238D01*
X182190476Y-51490476D01*
X182142857Y-51680952D01*
X182142857Y-51823809D01*
X182190476Y-52014285D01*
X182238095Y-52109523D01*
X182333333Y-52204761D01*
X182476190Y-52252380D01*
X182714285Y-52252380D01*
X181238095Y-51252380D02*
X181714285Y-51252380D01*
X181761904Y-51728571D01*
X181714285Y-51680952D01*
X181619047Y-51633333D01*
X181380952Y-51633333D01*
X181285714Y-51680952D01*
X181238095Y-51728571D01*
X181190476Y-51823809D01*
X181190476Y-52061904D01*
X181238095Y-52157142D01*
X181285714Y-52204761D01*
X181380952Y-52252380D01*
X181619047Y-52252380D01*
X181714285Y-52204761D01*
X181761904Y-52157142D01*
X180285714Y-51252380D02*
X180761904Y-51252380D01*
X180809523Y-51728571D01*
X180761904Y-51680952D01*
X180666666Y-51633333D01*
X180428571Y-51633333D01*
X180333333Y-51680952D01*
X180285714Y-51728571D01*
X180238095Y-51823809D01*
X180238095Y-52061904D01*
X180285714Y-52157142D01*
X180333333Y-52204761D01*
X180428571Y-52252380D01*
X180666666Y-52252380D01*
X180761904Y-52204761D01*
X180809523Y-52157142D01*
%TO.C,D56*%
X182514285Y-68652380D02*
X182514285Y-67652380D01*
X182276190Y-67652380D01*
X182133333Y-67700000D01*
X182038095Y-67795238D01*
X181990476Y-67890476D01*
X181942857Y-68080952D01*
X181942857Y-68223809D01*
X181990476Y-68414285D01*
X182038095Y-68509523D01*
X182133333Y-68604761D01*
X182276190Y-68652380D01*
X182514285Y-68652380D01*
X181038095Y-67652380D02*
X181514285Y-67652380D01*
X181561904Y-68128571D01*
X181514285Y-68080952D01*
X181419047Y-68033333D01*
X181180952Y-68033333D01*
X181085714Y-68080952D01*
X181038095Y-68128571D01*
X180990476Y-68223809D01*
X180990476Y-68461904D01*
X181038095Y-68557142D01*
X181085714Y-68604761D01*
X181180952Y-68652380D01*
X181419047Y-68652380D01*
X181514285Y-68604761D01*
X181561904Y-68557142D01*
X180133333Y-67652380D02*
X180323809Y-67652380D01*
X180419047Y-67700000D01*
X180466666Y-67747619D01*
X180561904Y-67890476D01*
X180609523Y-68080952D01*
X180609523Y-68461904D01*
X180561904Y-68557142D01*
X180514285Y-68604761D01*
X180419047Y-68652380D01*
X180228571Y-68652380D01*
X180133333Y-68604761D01*
X180085714Y-68557142D01*
X180038095Y-68461904D01*
X180038095Y-68223809D01*
X180085714Y-68128571D01*
X180133333Y-68080952D01*
X180228571Y-68033333D01*
X180419047Y-68033333D01*
X180514285Y-68080952D01*
X180561904Y-68128571D01*
X180609523Y-68223809D01*
%TO.C,D57*%
X174114285Y-85052380D02*
X174114285Y-84052380D01*
X173876190Y-84052380D01*
X173733333Y-84100000D01*
X173638095Y-84195238D01*
X173590476Y-84290476D01*
X173542857Y-84480952D01*
X173542857Y-84623809D01*
X173590476Y-84814285D01*
X173638095Y-84909523D01*
X173733333Y-85004761D01*
X173876190Y-85052380D01*
X174114285Y-85052380D01*
X172638095Y-84052380D02*
X173114285Y-84052380D01*
X173161904Y-84528571D01*
X173114285Y-84480952D01*
X173019047Y-84433333D01*
X172780952Y-84433333D01*
X172685714Y-84480952D01*
X172638095Y-84528571D01*
X172590476Y-84623809D01*
X172590476Y-84861904D01*
X172638095Y-84957142D01*
X172685714Y-85004761D01*
X172780952Y-85052380D01*
X173019047Y-85052380D01*
X173114285Y-85004761D01*
X173161904Y-84957142D01*
X172257142Y-84052380D02*
X171590476Y-84052380D01*
X172019047Y-85052380D01*
%TO.C,D58*%
X174114285Y-101452380D02*
X174114285Y-100452380D01*
X173876190Y-100452380D01*
X173733333Y-100500000D01*
X173638095Y-100595238D01*
X173590476Y-100690476D01*
X173542857Y-100880952D01*
X173542857Y-101023809D01*
X173590476Y-101214285D01*
X173638095Y-101309523D01*
X173733333Y-101404761D01*
X173876190Y-101452380D01*
X174114285Y-101452380D01*
X172638095Y-100452380D02*
X173114285Y-100452380D01*
X173161904Y-100928571D01*
X173114285Y-100880952D01*
X173019047Y-100833333D01*
X172780952Y-100833333D01*
X172685714Y-100880952D01*
X172638095Y-100928571D01*
X172590476Y-101023809D01*
X172590476Y-101261904D01*
X172638095Y-101357142D01*
X172685714Y-101404761D01*
X172780952Y-101452380D01*
X173019047Y-101452380D01*
X173114285Y-101404761D01*
X173161904Y-101357142D01*
X172019047Y-100880952D02*
X172114285Y-100833333D01*
X172161904Y-100785714D01*
X172209523Y-100690476D01*
X172209523Y-100642857D01*
X172161904Y-100547619D01*
X172114285Y-100500000D01*
X172019047Y-100452380D01*
X171828571Y-100452380D01*
X171733333Y-100500000D01*
X171685714Y-100547619D01*
X171638095Y-100642857D01*
X171638095Y-100690476D01*
X171685714Y-100785714D01*
X171733333Y-100833333D01*
X171828571Y-100880952D01*
X172019047Y-100880952D01*
X172114285Y-100928571D01*
X172161904Y-100976190D01*
X172209523Y-101071428D01*
X172209523Y-101261904D01*
X172161904Y-101357142D01*
X172114285Y-101404761D01*
X172019047Y-101452380D01*
X171828571Y-101452380D01*
X171733333Y-101404761D01*
X171685714Y-101357142D01*
X171638095Y-101261904D01*
X171638095Y-101071428D01*
X171685714Y-100976190D01*
X171733333Y-100928571D01*
X171828571Y-100880952D01*
%TO.C,D59*%
X184914285Y-35852380D02*
X184914285Y-34852380D01*
X184676190Y-34852380D01*
X184533333Y-34900000D01*
X184438095Y-34995238D01*
X184390476Y-35090476D01*
X184342857Y-35280952D01*
X184342857Y-35423809D01*
X184390476Y-35614285D01*
X184438095Y-35709523D01*
X184533333Y-35804761D01*
X184676190Y-35852380D01*
X184914285Y-35852380D01*
X183438095Y-34852380D02*
X183914285Y-34852380D01*
X183961904Y-35328571D01*
X183914285Y-35280952D01*
X183819047Y-35233333D01*
X183580952Y-35233333D01*
X183485714Y-35280952D01*
X183438095Y-35328571D01*
X183390476Y-35423809D01*
X183390476Y-35661904D01*
X183438095Y-35757142D01*
X183485714Y-35804761D01*
X183580952Y-35852380D01*
X183819047Y-35852380D01*
X183914285Y-35804761D01*
X183961904Y-35757142D01*
X182914285Y-35852380D02*
X182723809Y-35852380D01*
X182628571Y-35804761D01*
X182580952Y-35757142D01*
X182485714Y-35614285D01*
X182438095Y-35423809D01*
X182438095Y-35042857D01*
X182485714Y-34947619D01*
X182533333Y-34900000D01*
X182628571Y-34852380D01*
X182819047Y-34852380D01*
X182914285Y-34900000D01*
X182961904Y-34947619D01*
X183009523Y-35042857D01*
X183009523Y-35280952D01*
X182961904Y-35376190D01*
X182914285Y-35423809D01*
X182819047Y-35471428D01*
X182628571Y-35471428D01*
X182533333Y-35423809D01*
X182485714Y-35376190D01*
X182438095Y-35280952D01*
%TO.C,D60*%
X190914285Y-35852380D02*
X190914285Y-34852380D01*
X190676190Y-34852380D01*
X190533333Y-34900000D01*
X190438095Y-34995238D01*
X190390476Y-35090476D01*
X190342857Y-35280952D01*
X190342857Y-35423809D01*
X190390476Y-35614285D01*
X190438095Y-35709523D01*
X190533333Y-35804761D01*
X190676190Y-35852380D01*
X190914285Y-35852380D01*
X189485714Y-34852380D02*
X189676190Y-34852380D01*
X189771428Y-34900000D01*
X189819047Y-34947619D01*
X189914285Y-35090476D01*
X189961904Y-35280952D01*
X189961904Y-35661904D01*
X189914285Y-35757142D01*
X189866666Y-35804761D01*
X189771428Y-35852380D01*
X189580952Y-35852380D01*
X189485714Y-35804761D01*
X189438095Y-35757142D01*
X189390476Y-35661904D01*
X189390476Y-35423809D01*
X189438095Y-35328571D01*
X189485714Y-35280952D01*
X189580952Y-35233333D01*
X189771428Y-35233333D01*
X189866666Y-35280952D01*
X189914285Y-35328571D01*
X189961904Y-35423809D01*
X188771428Y-34852380D02*
X188676190Y-34852380D01*
X188580952Y-34900000D01*
X188533333Y-34947619D01*
X188485714Y-35042857D01*
X188438095Y-35233333D01*
X188438095Y-35471428D01*
X188485714Y-35661904D01*
X188533333Y-35757142D01*
X188580952Y-35804761D01*
X188676190Y-35852380D01*
X188771428Y-35852380D01*
X188866666Y-35804761D01*
X188914285Y-35757142D01*
X188961904Y-35661904D01*
X189009523Y-35471428D01*
X189009523Y-35233333D01*
X188961904Y-35042857D01*
X188914285Y-34947619D01*
X188866666Y-34900000D01*
X188771428Y-34852380D01*
%TO.C,D61*%
X199514285Y-52252380D02*
X199514285Y-51252380D01*
X199276190Y-51252380D01*
X199133333Y-51300000D01*
X199038095Y-51395238D01*
X198990476Y-51490476D01*
X198942857Y-51680952D01*
X198942857Y-51823809D01*
X198990476Y-52014285D01*
X199038095Y-52109523D01*
X199133333Y-52204761D01*
X199276190Y-52252380D01*
X199514285Y-52252380D01*
X198085714Y-51252380D02*
X198276190Y-51252380D01*
X198371428Y-51300000D01*
X198419047Y-51347619D01*
X198514285Y-51490476D01*
X198561904Y-51680952D01*
X198561904Y-52061904D01*
X198514285Y-52157142D01*
X198466666Y-52204761D01*
X198371428Y-52252380D01*
X198180952Y-52252380D01*
X198085714Y-52204761D01*
X198038095Y-52157142D01*
X197990476Y-52061904D01*
X197990476Y-51823809D01*
X198038095Y-51728571D01*
X198085714Y-51680952D01*
X198180952Y-51633333D01*
X198371428Y-51633333D01*
X198466666Y-51680952D01*
X198514285Y-51728571D01*
X198561904Y-51823809D01*
X197038095Y-52252380D02*
X197609523Y-52252380D01*
X197323809Y-52252380D02*
X197323809Y-51252380D01*
X197419047Y-51395238D01*
X197514285Y-51490476D01*
X197609523Y-51538095D01*
%TO.C,D62*%
X199314285Y-68652380D02*
X199314285Y-67652380D01*
X199076190Y-67652380D01*
X198933333Y-67700000D01*
X198838095Y-67795238D01*
X198790476Y-67890476D01*
X198742857Y-68080952D01*
X198742857Y-68223809D01*
X198790476Y-68414285D01*
X198838095Y-68509523D01*
X198933333Y-68604761D01*
X199076190Y-68652380D01*
X199314285Y-68652380D01*
X197885714Y-67652380D02*
X198076190Y-67652380D01*
X198171428Y-67700000D01*
X198219047Y-67747619D01*
X198314285Y-67890476D01*
X198361904Y-68080952D01*
X198361904Y-68461904D01*
X198314285Y-68557142D01*
X198266666Y-68604761D01*
X198171428Y-68652380D01*
X197980952Y-68652380D01*
X197885714Y-68604761D01*
X197838095Y-68557142D01*
X197790476Y-68461904D01*
X197790476Y-68223809D01*
X197838095Y-68128571D01*
X197885714Y-68080952D01*
X197980952Y-68033333D01*
X198171428Y-68033333D01*
X198266666Y-68080952D01*
X198314285Y-68128571D01*
X198361904Y-68223809D01*
X197409523Y-67747619D02*
X197361904Y-67700000D01*
X197266666Y-67652380D01*
X197028571Y-67652380D01*
X196933333Y-67700000D01*
X196885714Y-67747619D01*
X196838095Y-67842857D01*
X196838095Y-67938095D01*
X196885714Y-68080952D01*
X197457142Y-68652380D01*
X196838095Y-68652380D01*
%TO.C,D63*%
X190914285Y-85052380D02*
X190914285Y-84052380D01*
X190676190Y-84052380D01*
X190533333Y-84100000D01*
X190438095Y-84195238D01*
X190390476Y-84290476D01*
X190342857Y-84480952D01*
X190342857Y-84623809D01*
X190390476Y-84814285D01*
X190438095Y-84909523D01*
X190533333Y-85004761D01*
X190676190Y-85052380D01*
X190914285Y-85052380D01*
X189485714Y-84052380D02*
X189676190Y-84052380D01*
X189771428Y-84100000D01*
X189819047Y-84147619D01*
X189914285Y-84290476D01*
X189961904Y-84480952D01*
X189961904Y-84861904D01*
X189914285Y-84957142D01*
X189866666Y-85004761D01*
X189771428Y-85052380D01*
X189580952Y-85052380D01*
X189485714Y-85004761D01*
X189438095Y-84957142D01*
X189390476Y-84861904D01*
X189390476Y-84623809D01*
X189438095Y-84528571D01*
X189485714Y-84480952D01*
X189580952Y-84433333D01*
X189771428Y-84433333D01*
X189866666Y-84480952D01*
X189914285Y-84528571D01*
X189961904Y-84623809D01*
X189057142Y-84052380D02*
X188438095Y-84052380D01*
X188771428Y-84433333D01*
X188628571Y-84433333D01*
X188533333Y-84480952D01*
X188485714Y-84528571D01*
X188438095Y-84623809D01*
X188438095Y-84861904D01*
X188485714Y-84957142D01*
X188533333Y-85004761D01*
X188628571Y-85052380D01*
X188914285Y-85052380D01*
X189009523Y-85004761D01*
X189057142Y-84957142D01*
%TO.C,D64*%
X190914285Y-101452380D02*
X190914285Y-100452380D01*
X190676190Y-100452380D01*
X190533333Y-100500000D01*
X190438095Y-100595238D01*
X190390476Y-100690476D01*
X190342857Y-100880952D01*
X190342857Y-101023809D01*
X190390476Y-101214285D01*
X190438095Y-101309523D01*
X190533333Y-101404761D01*
X190676190Y-101452380D01*
X190914285Y-101452380D01*
X189485714Y-100452380D02*
X189676190Y-100452380D01*
X189771428Y-100500000D01*
X189819047Y-100547619D01*
X189914285Y-100690476D01*
X189961904Y-100880952D01*
X189961904Y-101261904D01*
X189914285Y-101357142D01*
X189866666Y-101404761D01*
X189771428Y-101452380D01*
X189580952Y-101452380D01*
X189485714Y-101404761D01*
X189438095Y-101357142D01*
X189390476Y-101261904D01*
X189390476Y-101023809D01*
X189438095Y-100928571D01*
X189485714Y-100880952D01*
X189580952Y-100833333D01*
X189771428Y-100833333D01*
X189866666Y-100880952D01*
X189914285Y-100928571D01*
X189961904Y-101023809D01*
X188533333Y-100785714D02*
X188533333Y-101452380D01*
X188771428Y-100404761D02*
X189009523Y-101119047D01*
X188390476Y-101119047D01*
%TO.C,D65*%
X203914285Y-22852380D02*
X203914285Y-21852380D01*
X203676190Y-21852380D01*
X203533333Y-21900000D01*
X203438095Y-21995238D01*
X203390476Y-22090476D01*
X203342857Y-22280952D01*
X203342857Y-22423809D01*
X203390476Y-22614285D01*
X203438095Y-22709523D01*
X203533333Y-22804761D01*
X203676190Y-22852380D01*
X203914285Y-22852380D01*
X202485714Y-21852380D02*
X202676190Y-21852380D01*
X202771428Y-21900000D01*
X202819047Y-21947619D01*
X202914285Y-22090476D01*
X202961904Y-22280952D01*
X202961904Y-22661904D01*
X202914285Y-22757142D01*
X202866666Y-22804761D01*
X202771428Y-22852380D01*
X202580952Y-22852380D01*
X202485714Y-22804761D01*
X202438095Y-22757142D01*
X202390476Y-22661904D01*
X202390476Y-22423809D01*
X202438095Y-22328571D01*
X202485714Y-22280952D01*
X202580952Y-22233333D01*
X202771428Y-22233333D01*
X202866666Y-22280952D01*
X202914285Y-22328571D01*
X202961904Y-22423809D01*
X201485714Y-21852380D02*
X201961904Y-21852380D01*
X202009523Y-22328571D01*
X201961904Y-22280952D01*
X201866666Y-22233333D01*
X201628571Y-22233333D01*
X201533333Y-22280952D01*
X201485714Y-22328571D01*
X201438095Y-22423809D01*
X201438095Y-22661904D01*
X201485714Y-22757142D01*
X201533333Y-22804761D01*
X201628571Y-22852380D01*
X201866666Y-22852380D01*
X201961904Y-22804761D01*
X202009523Y-22757142D01*
%TO.C,D66*%
X207714285Y-35852380D02*
X207714285Y-34852380D01*
X207476190Y-34852380D01*
X207333333Y-34900000D01*
X207238095Y-34995238D01*
X207190476Y-35090476D01*
X207142857Y-35280952D01*
X207142857Y-35423809D01*
X207190476Y-35614285D01*
X207238095Y-35709523D01*
X207333333Y-35804761D01*
X207476190Y-35852380D01*
X207714285Y-35852380D01*
X206285714Y-34852380D02*
X206476190Y-34852380D01*
X206571428Y-34900000D01*
X206619047Y-34947619D01*
X206714285Y-35090476D01*
X206761904Y-35280952D01*
X206761904Y-35661904D01*
X206714285Y-35757142D01*
X206666666Y-35804761D01*
X206571428Y-35852380D01*
X206380952Y-35852380D01*
X206285714Y-35804761D01*
X206238095Y-35757142D01*
X206190476Y-35661904D01*
X206190476Y-35423809D01*
X206238095Y-35328571D01*
X206285714Y-35280952D01*
X206380952Y-35233333D01*
X206571428Y-35233333D01*
X206666666Y-35280952D01*
X206714285Y-35328571D01*
X206761904Y-35423809D01*
X205333333Y-34852380D02*
X205523809Y-34852380D01*
X205619047Y-34900000D01*
X205666666Y-34947619D01*
X205761904Y-35090476D01*
X205809523Y-35280952D01*
X205809523Y-35661904D01*
X205761904Y-35757142D01*
X205714285Y-35804761D01*
X205619047Y-35852380D01*
X205428571Y-35852380D01*
X205333333Y-35804761D01*
X205285714Y-35757142D01*
X205238095Y-35661904D01*
X205238095Y-35423809D01*
X205285714Y-35328571D01*
X205333333Y-35280952D01*
X205428571Y-35233333D01*
X205619047Y-35233333D01*
X205714285Y-35280952D01*
X205761904Y-35328571D01*
X205809523Y-35423809D01*
%TO.C,D67*%
X216114285Y-52252380D02*
X216114285Y-51252380D01*
X215876190Y-51252380D01*
X215733333Y-51300000D01*
X215638095Y-51395238D01*
X215590476Y-51490476D01*
X215542857Y-51680952D01*
X215542857Y-51823809D01*
X215590476Y-52014285D01*
X215638095Y-52109523D01*
X215733333Y-52204761D01*
X215876190Y-52252380D01*
X216114285Y-52252380D01*
X214685714Y-51252380D02*
X214876190Y-51252380D01*
X214971428Y-51300000D01*
X215019047Y-51347619D01*
X215114285Y-51490476D01*
X215161904Y-51680952D01*
X215161904Y-52061904D01*
X215114285Y-52157142D01*
X215066666Y-52204761D01*
X214971428Y-52252380D01*
X214780952Y-52252380D01*
X214685714Y-52204761D01*
X214638095Y-52157142D01*
X214590476Y-52061904D01*
X214590476Y-51823809D01*
X214638095Y-51728571D01*
X214685714Y-51680952D01*
X214780952Y-51633333D01*
X214971428Y-51633333D01*
X215066666Y-51680952D01*
X215114285Y-51728571D01*
X215161904Y-51823809D01*
X214257142Y-51252380D02*
X213590476Y-51252380D01*
X214019047Y-52252380D01*
%TO.C,D68*%
X216114285Y-68652380D02*
X216114285Y-67652380D01*
X215876190Y-67652380D01*
X215733333Y-67700000D01*
X215638095Y-67795238D01*
X215590476Y-67890476D01*
X215542857Y-68080952D01*
X215542857Y-68223809D01*
X215590476Y-68414285D01*
X215638095Y-68509523D01*
X215733333Y-68604761D01*
X215876190Y-68652380D01*
X216114285Y-68652380D01*
X214685714Y-67652380D02*
X214876190Y-67652380D01*
X214971428Y-67700000D01*
X215019047Y-67747619D01*
X215114285Y-67890476D01*
X215161904Y-68080952D01*
X215161904Y-68461904D01*
X215114285Y-68557142D01*
X215066666Y-68604761D01*
X214971428Y-68652380D01*
X214780952Y-68652380D01*
X214685714Y-68604761D01*
X214638095Y-68557142D01*
X214590476Y-68461904D01*
X214590476Y-68223809D01*
X214638095Y-68128571D01*
X214685714Y-68080952D01*
X214780952Y-68033333D01*
X214971428Y-68033333D01*
X215066666Y-68080952D01*
X215114285Y-68128571D01*
X215161904Y-68223809D01*
X214019047Y-68080952D02*
X214114285Y-68033333D01*
X214161904Y-67985714D01*
X214209523Y-67890476D01*
X214209523Y-67842857D01*
X214161904Y-67747619D01*
X214114285Y-67700000D01*
X214019047Y-67652380D01*
X213828571Y-67652380D01*
X213733333Y-67700000D01*
X213685714Y-67747619D01*
X213638095Y-67842857D01*
X213638095Y-67890476D01*
X213685714Y-67985714D01*
X213733333Y-68033333D01*
X213828571Y-68080952D01*
X214019047Y-68080952D01*
X214114285Y-68128571D01*
X214161904Y-68176190D01*
X214209523Y-68271428D01*
X214209523Y-68461904D01*
X214161904Y-68557142D01*
X214114285Y-68604761D01*
X214019047Y-68652380D01*
X213828571Y-68652380D01*
X213733333Y-68604761D01*
X213685714Y-68557142D01*
X213638095Y-68461904D01*
X213638095Y-68271428D01*
X213685714Y-68176190D01*
X213733333Y-68128571D01*
X213828571Y-68080952D01*
%TO.C,D69*%
X207714285Y-85052380D02*
X207714285Y-84052380D01*
X207476190Y-84052380D01*
X207333333Y-84100000D01*
X207238095Y-84195238D01*
X207190476Y-84290476D01*
X207142857Y-84480952D01*
X207142857Y-84623809D01*
X207190476Y-84814285D01*
X207238095Y-84909523D01*
X207333333Y-85004761D01*
X207476190Y-85052380D01*
X207714285Y-85052380D01*
X206285714Y-84052380D02*
X206476190Y-84052380D01*
X206571428Y-84100000D01*
X206619047Y-84147619D01*
X206714285Y-84290476D01*
X206761904Y-84480952D01*
X206761904Y-84861904D01*
X206714285Y-84957142D01*
X206666666Y-85004761D01*
X206571428Y-85052380D01*
X206380952Y-85052380D01*
X206285714Y-85004761D01*
X206238095Y-84957142D01*
X206190476Y-84861904D01*
X206190476Y-84623809D01*
X206238095Y-84528571D01*
X206285714Y-84480952D01*
X206380952Y-84433333D01*
X206571428Y-84433333D01*
X206666666Y-84480952D01*
X206714285Y-84528571D01*
X206761904Y-84623809D01*
X205714285Y-85052380D02*
X205523809Y-85052380D01*
X205428571Y-85004761D01*
X205380952Y-84957142D01*
X205285714Y-84814285D01*
X205238095Y-84623809D01*
X205238095Y-84242857D01*
X205285714Y-84147619D01*
X205333333Y-84100000D01*
X205428571Y-84052380D01*
X205619047Y-84052380D01*
X205714285Y-84100000D01*
X205761904Y-84147619D01*
X205809523Y-84242857D01*
X205809523Y-84480952D01*
X205761904Y-84576190D01*
X205714285Y-84623809D01*
X205619047Y-84671428D01*
X205428571Y-84671428D01*
X205333333Y-84623809D01*
X205285714Y-84576190D01*
X205238095Y-84480952D01*
%TO.C,D70*%
X200514285Y-101452380D02*
X200514285Y-100452380D01*
X200276190Y-100452380D01*
X200133333Y-100500000D01*
X200038095Y-100595238D01*
X199990476Y-100690476D01*
X199942857Y-100880952D01*
X199942857Y-101023809D01*
X199990476Y-101214285D01*
X200038095Y-101309523D01*
X200133333Y-101404761D01*
X200276190Y-101452380D01*
X200514285Y-101452380D01*
X199609523Y-100452380D02*
X198942857Y-100452380D01*
X199371428Y-101452380D01*
X198371428Y-100452380D02*
X198276190Y-100452380D01*
X198180952Y-100500000D01*
X198133333Y-100547619D01*
X198085714Y-100642857D01*
X198038095Y-100833333D01*
X198038095Y-101071428D01*
X198085714Y-101261904D01*
X198133333Y-101357142D01*
X198180952Y-101404761D01*
X198276190Y-101452380D01*
X198371428Y-101452380D01*
X198466666Y-101404761D01*
X198514285Y-101357142D01*
X198561904Y-101261904D01*
X198609523Y-101071428D01*
X198609523Y-100833333D01*
X198561904Y-100642857D01*
X198514285Y-100547619D01*
X198466666Y-100500000D01*
X198371428Y-100452380D01*
%TO.C,D71*%
X226614285Y-52252380D02*
X226614285Y-51252380D01*
X226376190Y-51252380D01*
X226233333Y-51300000D01*
X226138095Y-51395238D01*
X226090476Y-51490476D01*
X226042857Y-51680952D01*
X226042857Y-51823809D01*
X226090476Y-52014285D01*
X226138095Y-52109523D01*
X226233333Y-52204761D01*
X226376190Y-52252380D01*
X226614285Y-52252380D01*
X225709523Y-51252380D02*
X225042857Y-51252380D01*
X225471428Y-52252380D01*
X224138095Y-52252380D02*
X224709523Y-52252380D01*
X224423809Y-52252380D02*
X224423809Y-51252380D01*
X224519047Y-51395238D01*
X224614285Y-51490476D01*
X224709523Y-51538095D01*
%TO.C,D72*%
X224514285Y-35852380D02*
X224514285Y-34852380D01*
X224276190Y-34852380D01*
X224133333Y-34900000D01*
X224038095Y-34995238D01*
X223990476Y-35090476D01*
X223942857Y-35280952D01*
X223942857Y-35423809D01*
X223990476Y-35614285D01*
X224038095Y-35709523D01*
X224133333Y-35804761D01*
X224276190Y-35852380D01*
X224514285Y-35852380D01*
X223609523Y-34852380D02*
X222942857Y-34852380D01*
X223371428Y-35852380D01*
X222609523Y-34947619D02*
X222561904Y-34900000D01*
X222466666Y-34852380D01*
X222228571Y-34852380D01*
X222133333Y-34900000D01*
X222085714Y-34947619D01*
X222038095Y-35042857D01*
X222038095Y-35138095D01*
X222085714Y-35280952D01*
X222657142Y-35852380D01*
X222038095Y-35852380D01*
%TO.C,D73*%
X232914285Y-52252380D02*
X232914285Y-51252380D01*
X232676190Y-51252380D01*
X232533333Y-51300000D01*
X232438095Y-51395238D01*
X232390476Y-51490476D01*
X232342857Y-51680952D01*
X232342857Y-51823809D01*
X232390476Y-52014285D01*
X232438095Y-52109523D01*
X232533333Y-52204761D01*
X232676190Y-52252380D01*
X232914285Y-52252380D01*
X232009523Y-51252380D02*
X231342857Y-51252380D01*
X231771428Y-52252380D01*
X231057142Y-51252380D02*
X230438095Y-51252380D01*
X230771428Y-51633333D01*
X230628571Y-51633333D01*
X230533333Y-51680952D01*
X230485714Y-51728571D01*
X230438095Y-51823809D01*
X230438095Y-52061904D01*
X230485714Y-52157142D01*
X230533333Y-52204761D01*
X230628571Y-52252380D01*
X230914285Y-52252380D01*
X231009523Y-52204761D01*
X231057142Y-52157142D01*
%TO.C,D74*%
X232914285Y-68652380D02*
X232914285Y-67652380D01*
X232676190Y-67652380D01*
X232533333Y-67700000D01*
X232438095Y-67795238D01*
X232390476Y-67890476D01*
X232342857Y-68080952D01*
X232342857Y-68223809D01*
X232390476Y-68414285D01*
X232438095Y-68509523D01*
X232533333Y-68604761D01*
X232676190Y-68652380D01*
X232914285Y-68652380D01*
X232009523Y-67652380D02*
X231342857Y-67652380D01*
X231771428Y-68652380D01*
X230533333Y-67985714D02*
X230533333Y-68652380D01*
X230771428Y-67604761D02*
X231009523Y-68319047D01*
X230390476Y-68319047D01*
%TO.C,D75*%
X224514285Y-85052380D02*
X224514285Y-84052380D01*
X224276190Y-84052380D01*
X224133333Y-84100000D01*
X224038095Y-84195238D01*
X223990476Y-84290476D01*
X223942857Y-84480952D01*
X223942857Y-84623809D01*
X223990476Y-84814285D01*
X224038095Y-84909523D01*
X224133333Y-85004761D01*
X224276190Y-85052380D01*
X224514285Y-85052380D01*
X223609523Y-84052380D02*
X222942857Y-84052380D01*
X223371428Y-85052380D01*
X222085714Y-84052380D02*
X222561904Y-84052380D01*
X222609523Y-84528571D01*
X222561904Y-84480952D01*
X222466666Y-84433333D01*
X222228571Y-84433333D01*
X222133333Y-84480952D01*
X222085714Y-84528571D01*
X222038095Y-84623809D01*
X222038095Y-84861904D01*
X222085714Y-84957142D01*
X222133333Y-85004761D01*
X222228571Y-85052380D01*
X222466666Y-85052380D01*
X222561904Y-85004761D01*
X222609523Y-84957142D01*
%TO.C,D76*%
X218714285Y-101452380D02*
X218714285Y-100452380D01*
X218476190Y-100452380D01*
X218333333Y-100500000D01*
X218238095Y-100595238D01*
X218190476Y-100690476D01*
X218142857Y-100880952D01*
X218142857Y-101023809D01*
X218190476Y-101214285D01*
X218238095Y-101309523D01*
X218333333Y-101404761D01*
X218476190Y-101452380D01*
X218714285Y-101452380D01*
X217809523Y-100452380D02*
X217142857Y-100452380D01*
X217571428Y-101452380D01*
X216333333Y-100452380D02*
X216523809Y-100452380D01*
X216619047Y-100500000D01*
X216666666Y-100547619D01*
X216761904Y-100690476D01*
X216809523Y-100880952D01*
X216809523Y-101261904D01*
X216761904Y-101357142D01*
X216714285Y-101404761D01*
X216619047Y-101452380D01*
X216428571Y-101452380D01*
X216333333Y-101404761D01*
X216285714Y-101357142D01*
X216238095Y-101261904D01*
X216238095Y-101023809D01*
X216285714Y-100928571D01*
X216333333Y-100880952D01*
X216428571Y-100833333D01*
X216619047Y-100833333D01*
X216714285Y-100880952D01*
X216761904Y-100928571D01*
X216809523Y-101023809D01*
%TO.C,D77*%
X237514285Y-22852380D02*
X237514285Y-21852380D01*
X237276190Y-21852380D01*
X237133333Y-21900000D01*
X237038095Y-21995238D01*
X236990476Y-22090476D01*
X236942857Y-22280952D01*
X236942857Y-22423809D01*
X236990476Y-22614285D01*
X237038095Y-22709523D01*
X237133333Y-22804761D01*
X237276190Y-22852380D01*
X237514285Y-22852380D01*
X236609523Y-21852380D02*
X235942857Y-21852380D01*
X236371428Y-22852380D01*
X235657142Y-21852380D02*
X234990476Y-21852380D01*
X235419047Y-22852380D01*
%TO.C,D78*%
X241314285Y-35852380D02*
X241314285Y-34852380D01*
X241076190Y-34852380D01*
X240933333Y-34900000D01*
X240838095Y-34995238D01*
X240790476Y-35090476D01*
X240742857Y-35280952D01*
X240742857Y-35423809D01*
X240790476Y-35614285D01*
X240838095Y-35709523D01*
X240933333Y-35804761D01*
X241076190Y-35852380D01*
X241314285Y-35852380D01*
X240409523Y-34852380D02*
X239742857Y-34852380D01*
X240171428Y-35852380D01*
X239219047Y-35280952D02*
X239314285Y-35233333D01*
X239361904Y-35185714D01*
X239409523Y-35090476D01*
X239409523Y-35042857D01*
X239361904Y-34947619D01*
X239314285Y-34900000D01*
X239219047Y-34852380D01*
X239028571Y-34852380D01*
X238933333Y-34900000D01*
X238885714Y-34947619D01*
X238838095Y-35042857D01*
X238838095Y-35090476D01*
X238885714Y-35185714D01*
X238933333Y-35233333D01*
X239028571Y-35280952D01*
X239219047Y-35280952D01*
X239314285Y-35328571D01*
X239361904Y-35376190D01*
X239409523Y-35471428D01*
X239409523Y-35661904D01*
X239361904Y-35757142D01*
X239314285Y-35804761D01*
X239219047Y-35852380D01*
X239028571Y-35852380D01*
X238933333Y-35804761D01*
X238885714Y-35757142D01*
X238838095Y-35661904D01*
X238838095Y-35471428D01*
X238885714Y-35376190D01*
X238933333Y-35328571D01*
X239028571Y-35280952D01*
%TO.C,D79*%
X249714285Y-52252380D02*
X249714285Y-51252380D01*
X249476190Y-51252380D01*
X249333333Y-51300000D01*
X249238095Y-51395238D01*
X249190476Y-51490476D01*
X249142857Y-51680952D01*
X249142857Y-51823809D01*
X249190476Y-52014285D01*
X249238095Y-52109523D01*
X249333333Y-52204761D01*
X249476190Y-52252380D01*
X249714285Y-52252380D01*
X248809523Y-51252380D02*
X248142857Y-51252380D01*
X248571428Y-52252380D01*
X247714285Y-52252380D02*
X247523809Y-52252380D01*
X247428571Y-52204761D01*
X247380952Y-52157142D01*
X247285714Y-52014285D01*
X247238095Y-51823809D01*
X247238095Y-51442857D01*
X247285714Y-51347619D01*
X247333333Y-51300000D01*
X247428571Y-51252380D01*
X247619047Y-51252380D01*
X247714285Y-51300000D01*
X247761904Y-51347619D01*
X247809523Y-51442857D01*
X247809523Y-51680952D01*
X247761904Y-51776190D01*
X247714285Y-51823809D01*
X247619047Y-51871428D01*
X247428571Y-51871428D01*
X247333333Y-51823809D01*
X247285714Y-51776190D01*
X247238095Y-51680952D01*
%TO.C,D80*%
X249714285Y-68652380D02*
X249714285Y-67652380D01*
X249476190Y-67652380D01*
X249333333Y-67700000D01*
X249238095Y-67795238D01*
X249190476Y-67890476D01*
X249142857Y-68080952D01*
X249142857Y-68223809D01*
X249190476Y-68414285D01*
X249238095Y-68509523D01*
X249333333Y-68604761D01*
X249476190Y-68652380D01*
X249714285Y-68652380D01*
X248571428Y-68080952D02*
X248666666Y-68033333D01*
X248714285Y-67985714D01*
X248761904Y-67890476D01*
X248761904Y-67842857D01*
X248714285Y-67747619D01*
X248666666Y-67700000D01*
X248571428Y-67652380D01*
X248380952Y-67652380D01*
X248285714Y-67700000D01*
X248238095Y-67747619D01*
X248190476Y-67842857D01*
X248190476Y-67890476D01*
X248238095Y-67985714D01*
X248285714Y-68033333D01*
X248380952Y-68080952D01*
X248571428Y-68080952D01*
X248666666Y-68128571D01*
X248714285Y-68176190D01*
X248761904Y-68271428D01*
X248761904Y-68461904D01*
X248714285Y-68557142D01*
X248666666Y-68604761D01*
X248571428Y-68652380D01*
X248380952Y-68652380D01*
X248285714Y-68604761D01*
X248238095Y-68557142D01*
X248190476Y-68461904D01*
X248190476Y-68271428D01*
X248238095Y-68176190D01*
X248285714Y-68128571D01*
X248380952Y-68080952D01*
X247571428Y-67652380D02*
X247476190Y-67652380D01*
X247380952Y-67700000D01*
X247333333Y-67747619D01*
X247285714Y-67842857D01*
X247238095Y-68033333D01*
X247238095Y-68271428D01*
X247285714Y-68461904D01*
X247333333Y-68557142D01*
X247380952Y-68604761D01*
X247476190Y-68652380D01*
X247571428Y-68652380D01*
X247666666Y-68604761D01*
X247714285Y-68557142D01*
X247761904Y-68461904D01*
X247809523Y-68271428D01*
X247809523Y-68033333D01*
X247761904Y-67842857D01*
X247714285Y-67747619D01*
X247666666Y-67700000D01*
X247571428Y-67652380D01*
%TO.C,D81*%
X241314285Y-85052380D02*
X241314285Y-84052380D01*
X241076190Y-84052380D01*
X240933333Y-84100000D01*
X240838095Y-84195238D01*
X240790476Y-84290476D01*
X240742857Y-84480952D01*
X240742857Y-84623809D01*
X240790476Y-84814285D01*
X240838095Y-84909523D01*
X240933333Y-85004761D01*
X241076190Y-85052380D01*
X241314285Y-85052380D01*
X240171428Y-84480952D02*
X240266666Y-84433333D01*
X240314285Y-84385714D01*
X240361904Y-84290476D01*
X240361904Y-84242857D01*
X240314285Y-84147619D01*
X240266666Y-84100000D01*
X240171428Y-84052380D01*
X239980952Y-84052380D01*
X239885714Y-84100000D01*
X239838095Y-84147619D01*
X239790476Y-84242857D01*
X239790476Y-84290476D01*
X239838095Y-84385714D01*
X239885714Y-84433333D01*
X239980952Y-84480952D01*
X240171428Y-84480952D01*
X240266666Y-84528571D01*
X240314285Y-84576190D01*
X240361904Y-84671428D01*
X240361904Y-84861904D01*
X240314285Y-84957142D01*
X240266666Y-85004761D01*
X240171428Y-85052380D01*
X239980952Y-85052380D01*
X239885714Y-85004761D01*
X239838095Y-84957142D01*
X239790476Y-84861904D01*
X239790476Y-84671428D01*
X239838095Y-84576190D01*
X239885714Y-84528571D01*
X239980952Y-84480952D01*
X238838095Y-85052380D02*
X239409523Y-85052380D01*
X239123809Y-85052380D02*
X239123809Y-84052380D01*
X239219047Y-84195238D01*
X239314285Y-84290476D01*
X239409523Y-84338095D01*
%TO.C,D82*%
X235514285Y-101452380D02*
X235514285Y-100452380D01*
X235276190Y-100452380D01*
X235133333Y-100500000D01*
X235038095Y-100595238D01*
X234990476Y-100690476D01*
X234942857Y-100880952D01*
X234942857Y-101023809D01*
X234990476Y-101214285D01*
X235038095Y-101309523D01*
X235133333Y-101404761D01*
X235276190Y-101452380D01*
X235514285Y-101452380D01*
X234371428Y-100880952D02*
X234466666Y-100833333D01*
X234514285Y-100785714D01*
X234561904Y-100690476D01*
X234561904Y-100642857D01*
X234514285Y-100547619D01*
X234466666Y-100500000D01*
X234371428Y-100452380D01*
X234180952Y-100452380D01*
X234085714Y-100500000D01*
X234038095Y-100547619D01*
X233990476Y-100642857D01*
X233990476Y-100690476D01*
X234038095Y-100785714D01*
X234085714Y-100833333D01*
X234180952Y-100880952D01*
X234371428Y-100880952D01*
X234466666Y-100928571D01*
X234514285Y-100976190D01*
X234561904Y-101071428D01*
X234561904Y-101261904D01*
X234514285Y-101357142D01*
X234466666Y-101404761D01*
X234371428Y-101452380D01*
X234180952Y-101452380D01*
X234085714Y-101404761D01*
X234038095Y-101357142D01*
X233990476Y-101261904D01*
X233990476Y-101071428D01*
X234038095Y-100976190D01*
X234085714Y-100928571D01*
X234180952Y-100880952D01*
X233609523Y-100547619D02*
X233561904Y-100500000D01*
X233466666Y-100452380D01*
X233228571Y-100452380D01*
X233133333Y-100500000D01*
X233085714Y-100547619D01*
X233038095Y-100642857D01*
X233038095Y-100738095D01*
X233085714Y-100880952D01*
X233657142Y-101452380D01*
X233038095Y-101452380D01*
%TO.C,D83*%
X261214285Y-68652380D02*
X261214285Y-67652380D01*
X260976190Y-67652380D01*
X260833333Y-67700000D01*
X260738095Y-67795238D01*
X260690476Y-67890476D01*
X260642857Y-68080952D01*
X260642857Y-68223809D01*
X260690476Y-68414285D01*
X260738095Y-68509523D01*
X260833333Y-68604761D01*
X260976190Y-68652380D01*
X261214285Y-68652380D01*
X260071428Y-68080952D02*
X260166666Y-68033333D01*
X260214285Y-67985714D01*
X260261904Y-67890476D01*
X260261904Y-67842857D01*
X260214285Y-67747619D01*
X260166666Y-67700000D01*
X260071428Y-67652380D01*
X259880952Y-67652380D01*
X259785714Y-67700000D01*
X259738095Y-67747619D01*
X259690476Y-67842857D01*
X259690476Y-67890476D01*
X259738095Y-67985714D01*
X259785714Y-68033333D01*
X259880952Y-68080952D01*
X260071428Y-68080952D01*
X260166666Y-68128571D01*
X260214285Y-68176190D01*
X260261904Y-68271428D01*
X260261904Y-68461904D01*
X260214285Y-68557142D01*
X260166666Y-68604761D01*
X260071428Y-68652380D01*
X259880952Y-68652380D01*
X259785714Y-68604761D01*
X259738095Y-68557142D01*
X259690476Y-68461904D01*
X259690476Y-68271428D01*
X259738095Y-68176190D01*
X259785714Y-68128571D01*
X259880952Y-68080952D01*
X259357142Y-67652380D02*
X258738095Y-67652380D01*
X259071428Y-68033333D01*
X258928571Y-68033333D01*
X258833333Y-68080952D01*
X258785714Y-68128571D01*
X258738095Y-68223809D01*
X258738095Y-68461904D01*
X258785714Y-68557142D01*
X258833333Y-68604761D01*
X258928571Y-68652380D01*
X259214285Y-68652380D01*
X259309523Y-68604761D01*
X259357142Y-68557142D01*
%TO.C,D84*%
X258114285Y-35852380D02*
X258114285Y-34852380D01*
X257876190Y-34852380D01*
X257733333Y-34900000D01*
X257638095Y-34995238D01*
X257590476Y-35090476D01*
X257542857Y-35280952D01*
X257542857Y-35423809D01*
X257590476Y-35614285D01*
X257638095Y-35709523D01*
X257733333Y-35804761D01*
X257876190Y-35852380D01*
X258114285Y-35852380D01*
X256971428Y-35280952D02*
X257066666Y-35233333D01*
X257114285Y-35185714D01*
X257161904Y-35090476D01*
X257161904Y-35042857D01*
X257114285Y-34947619D01*
X257066666Y-34900000D01*
X256971428Y-34852380D01*
X256780952Y-34852380D01*
X256685714Y-34900000D01*
X256638095Y-34947619D01*
X256590476Y-35042857D01*
X256590476Y-35090476D01*
X256638095Y-35185714D01*
X256685714Y-35233333D01*
X256780952Y-35280952D01*
X256971428Y-35280952D01*
X257066666Y-35328571D01*
X257114285Y-35376190D01*
X257161904Y-35471428D01*
X257161904Y-35661904D01*
X257114285Y-35757142D01*
X257066666Y-35804761D01*
X256971428Y-35852380D01*
X256780952Y-35852380D01*
X256685714Y-35804761D01*
X256638095Y-35757142D01*
X256590476Y-35661904D01*
X256590476Y-35471428D01*
X256638095Y-35376190D01*
X256685714Y-35328571D01*
X256780952Y-35280952D01*
X255733333Y-35185714D02*
X255733333Y-35852380D01*
X255971428Y-34804761D02*
X256209523Y-35519047D01*
X255590476Y-35519047D01*
%TO.C,D85*%
X267114285Y-52252380D02*
X267114285Y-51252380D01*
X266876190Y-51252380D01*
X266733333Y-51300000D01*
X266638095Y-51395238D01*
X266590476Y-51490476D01*
X266542857Y-51680952D01*
X266542857Y-51823809D01*
X266590476Y-52014285D01*
X266638095Y-52109523D01*
X266733333Y-52204761D01*
X266876190Y-52252380D01*
X267114285Y-52252380D01*
X265971428Y-51680952D02*
X266066666Y-51633333D01*
X266114285Y-51585714D01*
X266161904Y-51490476D01*
X266161904Y-51442857D01*
X266114285Y-51347619D01*
X266066666Y-51300000D01*
X265971428Y-51252380D01*
X265780952Y-51252380D01*
X265685714Y-51300000D01*
X265638095Y-51347619D01*
X265590476Y-51442857D01*
X265590476Y-51490476D01*
X265638095Y-51585714D01*
X265685714Y-51633333D01*
X265780952Y-51680952D01*
X265971428Y-51680952D01*
X266066666Y-51728571D01*
X266114285Y-51776190D01*
X266161904Y-51871428D01*
X266161904Y-52061904D01*
X266114285Y-52157142D01*
X266066666Y-52204761D01*
X265971428Y-52252380D01*
X265780952Y-52252380D01*
X265685714Y-52204761D01*
X265638095Y-52157142D01*
X265590476Y-52061904D01*
X265590476Y-51871428D01*
X265638095Y-51776190D01*
X265685714Y-51728571D01*
X265780952Y-51680952D01*
X264685714Y-51252380D02*
X265161904Y-51252380D01*
X265209523Y-51728571D01*
X265161904Y-51680952D01*
X265066666Y-51633333D01*
X264828571Y-51633333D01*
X264733333Y-51680952D01*
X264685714Y-51728571D01*
X264638095Y-51823809D01*
X264638095Y-52061904D01*
X264685714Y-52157142D01*
X264733333Y-52204761D01*
X264828571Y-52252380D01*
X265066666Y-52252380D01*
X265161904Y-52204761D01*
X265209523Y-52157142D01*
%TO.C,D86*%
X267114285Y-68652380D02*
X267114285Y-67652380D01*
X266876190Y-67652380D01*
X266733333Y-67700000D01*
X266638095Y-67795238D01*
X266590476Y-67890476D01*
X266542857Y-68080952D01*
X266542857Y-68223809D01*
X266590476Y-68414285D01*
X266638095Y-68509523D01*
X266733333Y-68604761D01*
X266876190Y-68652380D01*
X267114285Y-68652380D01*
X265971428Y-68080952D02*
X266066666Y-68033333D01*
X266114285Y-67985714D01*
X266161904Y-67890476D01*
X266161904Y-67842857D01*
X266114285Y-67747619D01*
X266066666Y-67700000D01*
X265971428Y-67652380D01*
X265780952Y-67652380D01*
X265685714Y-67700000D01*
X265638095Y-67747619D01*
X265590476Y-67842857D01*
X265590476Y-67890476D01*
X265638095Y-67985714D01*
X265685714Y-68033333D01*
X265780952Y-68080952D01*
X265971428Y-68080952D01*
X266066666Y-68128571D01*
X266114285Y-68176190D01*
X266161904Y-68271428D01*
X266161904Y-68461904D01*
X266114285Y-68557142D01*
X266066666Y-68604761D01*
X265971428Y-68652380D01*
X265780952Y-68652380D01*
X265685714Y-68604761D01*
X265638095Y-68557142D01*
X265590476Y-68461904D01*
X265590476Y-68271428D01*
X265638095Y-68176190D01*
X265685714Y-68128571D01*
X265780952Y-68080952D01*
X264733333Y-67652380D02*
X264923809Y-67652380D01*
X265019047Y-67700000D01*
X265066666Y-67747619D01*
X265161904Y-67890476D01*
X265209523Y-68080952D01*
X265209523Y-68461904D01*
X265161904Y-68557142D01*
X265114285Y-68604761D01*
X265019047Y-68652380D01*
X264828571Y-68652380D01*
X264733333Y-68604761D01*
X264685714Y-68557142D01*
X264638095Y-68461904D01*
X264638095Y-68223809D01*
X264685714Y-68128571D01*
X264733333Y-68080952D01*
X264828571Y-68033333D01*
X265019047Y-68033333D01*
X265114285Y-68080952D01*
X265161904Y-68128571D01*
X265209523Y-68223809D01*
%TO.C,D87*%
X258114285Y-85052380D02*
X258114285Y-84052380D01*
X257876190Y-84052380D01*
X257733333Y-84100000D01*
X257638095Y-84195238D01*
X257590476Y-84290476D01*
X257542857Y-84480952D01*
X257542857Y-84623809D01*
X257590476Y-84814285D01*
X257638095Y-84909523D01*
X257733333Y-85004761D01*
X257876190Y-85052380D01*
X258114285Y-85052380D01*
X256971428Y-84480952D02*
X257066666Y-84433333D01*
X257114285Y-84385714D01*
X257161904Y-84290476D01*
X257161904Y-84242857D01*
X257114285Y-84147619D01*
X257066666Y-84100000D01*
X256971428Y-84052380D01*
X256780952Y-84052380D01*
X256685714Y-84100000D01*
X256638095Y-84147619D01*
X256590476Y-84242857D01*
X256590476Y-84290476D01*
X256638095Y-84385714D01*
X256685714Y-84433333D01*
X256780952Y-84480952D01*
X256971428Y-84480952D01*
X257066666Y-84528571D01*
X257114285Y-84576190D01*
X257161904Y-84671428D01*
X257161904Y-84861904D01*
X257114285Y-84957142D01*
X257066666Y-85004761D01*
X256971428Y-85052380D01*
X256780952Y-85052380D01*
X256685714Y-85004761D01*
X256638095Y-84957142D01*
X256590476Y-84861904D01*
X256590476Y-84671428D01*
X256638095Y-84576190D01*
X256685714Y-84528571D01*
X256780952Y-84480952D01*
X256257142Y-84052380D02*
X255590476Y-84052380D01*
X256019047Y-85052380D01*
%TO.C,D88*%
X256514285Y-101452380D02*
X256514285Y-100452380D01*
X256276190Y-100452380D01*
X256133333Y-100500000D01*
X256038095Y-100595238D01*
X255990476Y-100690476D01*
X255942857Y-100880952D01*
X255942857Y-101023809D01*
X255990476Y-101214285D01*
X256038095Y-101309523D01*
X256133333Y-101404761D01*
X256276190Y-101452380D01*
X256514285Y-101452380D01*
X255371428Y-100880952D02*
X255466666Y-100833333D01*
X255514285Y-100785714D01*
X255561904Y-100690476D01*
X255561904Y-100642857D01*
X255514285Y-100547619D01*
X255466666Y-100500000D01*
X255371428Y-100452380D01*
X255180952Y-100452380D01*
X255085714Y-100500000D01*
X255038095Y-100547619D01*
X254990476Y-100642857D01*
X254990476Y-100690476D01*
X255038095Y-100785714D01*
X255085714Y-100833333D01*
X255180952Y-100880952D01*
X255371428Y-100880952D01*
X255466666Y-100928571D01*
X255514285Y-100976190D01*
X255561904Y-101071428D01*
X255561904Y-101261904D01*
X255514285Y-101357142D01*
X255466666Y-101404761D01*
X255371428Y-101452380D01*
X255180952Y-101452380D01*
X255085714Y-101404761D01*
X255038095Y-101357142D01*
X254990476Y-101261904D01*
X254990476Y-101071428D01*
X255038095Y-100976190D01*
X255085714Y-100928571D01*
X255180952Y-100880952D01*
X254419047Y-100880952D02*
X254514285Y-100833333D01*
X254561904Y-100785714D01*
X254609523Y-100690476D01*
X254609523Y-100642857D01*
X254561904Y-100547619D01*
X254514285Y-100500000D01*
X254419047Y-100452380D01*
X254228571Y-100452380D01*
X254133333Y-100500000D01*
X254085714Y-100547619D01*
X254038095Y-100642857D01*
X254038095Y-100690476D01*
X254085714Y-100785714D01*
X254133333Y-100833333D01*
X254228571Y-100880952D01*
X254419047Y-100880952D01*
X254514285Y-100928571D01*
X254561904Y-100976190D01*
X254609523Y-101071428D01*
X254609523Y-101261904D01*
X254561904Y-101357142D01*
X254514285Y-101404761D01*
X254419047Y-101452380D01*
X254228571Y-101452380D01*
X254133333Y-101404761D01*
X254085714Y-101357142D01*
X254038095Y-101261904D01*
X254038095Y-101071428D01*
X254085714Y-100976190D01*
X254133333Y-100928571D01*
X254228571Y-100880952D01*
%TO.C,D89*%
X271114285Y-22852380D02*
X271114285Y-21852380D01*
X270876190Y-21852380D01*
X270733333Y-21900000D01*
X270638095Y-21995238D01*
X270590476Y-22090476D01*
X270542857Y-22280952D01*
X270542857Y-22423809D01*
X270590476Y-22614285D01*
X270638095Y-22709523D01*
X270733333Y-22804761D01*
X270876190Y-22852380D01*
X271114285Y-22852380D01*
X269971428Y-22280952D02*
X270066666Y-22233333D01*
X270114285Y-22185714D01*
X270161904Y-22090476D01*
X270161904Y-22042857D01*
X270114285Y-21947619D01*
X270066666Y-21900000D01*
X269971428Y-21852380D01*
X269780952Y-21852380D01*
X269685714Y-21900000D01*
X269638095Y-21947619D01*
X269590476Y-22042857D01*
X269590476Y-22090476D01*
X269638095Y-22185714D01*
X269685714Y-22233333D01*
X269780952Y-22280952D01*
X269971428Y-22280952D01*
X270066666Y-22328571D01*
X270114285Y-22376190D01*
X270161904Y-22471428D01*
X270161904Y-22661904D01*
X270114285Y-22757142D01*
X270066666Y-22804761D01*
X269971428Y-22852380D01*
X269780952Y-22852380D01*
X269685714Y-22804761D01*
X269638095Y-22757142D01*
X269590476Y-22661904D01*
X269590476Y-22471428D01*
X269638095Y-22376190D01*
X269685714Y-22328571D01*
X269780952Y-22280952D01*
X269114285Y-22852380D02*
X268923809Y-22852380D01*
X268828571Y-22804761D01*
X268780952Y-22757142D01*
X268685714Y-22614285D01*
X268638095Y-22423809D01*
X268638095Y-22042857D01*
X268685714Y-21947619D01*
X268733333Y-21900000D01*
X268828571Y-21852380D01*
X269019047Y-21852380D01*
X269114285Y-21900000D01*
X269161904Y-21947619D01*
X269209523Y-22042857D01*
X269209523Y-22280952D01*
X269161904Y-22376190D01*
X269114285Y-22423809D01*
X269019047Y-22471428D01*
X268828571Y-22471428D01*
X268733333Y-22423809D01*
X268685714Y-22376190D01*
X268638095Y-22280952D01*
%TO.C,D90*%
X274914285Y-35852380D02*
X274914285Y-34852380D01*
X274676190Y-34852380D01*
X274533333Y-34900000D01*
X274438095Y-34995238D01*
X274390476Y-35090476D01*
X274342857Y-35280952D01*
X274342857Y-35423809D01*
X274390476Y-35614285D01*
X274438095Y-35709523D01*
X274533333Y-35804761D01*
X274676190Y-35852380D01*
X274914285Y-35852380D01*
X273866666Y-35852380D02*
X273676190Y-35852380D01*
X273580952Y-35804761D01*
X273533333Y-35757142D01*
X273438095Y-35614285D01*
X273390476Y-35423809D01*
X273390476Y-35042857D01*
X273438095Y-34947619D01*
X273485714Y-34900000D01*
X273580952Y-34852380D01*
X273771428Y-34852380D01*
X273866666Y-34900000D01*
X273914285Y-34947619D01*
X273961904Y-35042857D01*
X273961904Y-35280952D01*
X273914285Y-35376190D01*
X273866666Y-35423809D01*
X273771428Y-35471428D01*
X273580952Y-35471428D01*
X273485714Y-35423809D01*
X273438095Y-35376190D01*
X273390476Y-35280952D01*
X272771428Y-34852380D02*
X272676190Y-34852380D01*
X272580952Y-34900000D01*
X272533333Y-34947619D01*
X272485714Y-35042857D01*
X272438095Y-35233333D01*
X272438095Y-35471428D01*
X272485714Y-35661904D01*
X272533333Y-35757142D01*
X272580952Y-35804761D01*
X272676190Y-35852380D01*
X272771428Y-35852380D01*
X272866666Y-35804761D01*
X272914285Y-35757142D01*
X272961904Y-35661904D01*
X273009523Y-35471428D01*
X273009523Y-35233333D01*
X272961904Y-35042857D01*
X272914285Y-34947619D01*
X272866666Y-34900000D01*
X272771428Y-34852380D01*
%TO.C,D91*%
X274914285Y-85052380D02*
X274914285Y-84052380D01*
X274676190Y-84052380D01*
X274533333Y-84100000D01*
X274438095Y-84195238D01*
X274390476Y-84290476D01*
X274342857Y-84480952D01*
X274342857Y-84623809D01*
X274390476Y-84814285D01*
X274438095Y-84909523D01*
X274533333Y-85004761D01*
X274676190Y-85052380D01*
X274914285Y-85052380D01*
X273866666Y-85052380D02*
X273676190Y-85052380D01*
X273580952Y-85004761D01*
X273533333Y-84957142D01*
X273438095Y-84814285D01*
X273390476Y-84623809D01*
X273390476Y-84242857D01*
X273438095Y-84147619D01*
X273485714Y-84100000D01*
X273580952Y-84052380D01*
X273771428Y-84052380D01*
X273866666Y-84100000D01*
X273914285Y-84147619D01*
X273961904Y-84242857D01*
X273961904Y-84480952D01*
X273914285Y-84576190D01*
X273866666Y-84623809D01*
X273771428Y-84671428D01*
X273580952Y-84671428D01*
X273485714Y-84623809D01*
X273438095Y-84576190D01*
X273390476Y-84480952D01*
X272438095Y-85052380D02*
X273009523Y-85052380D01*
X272723809Y-85052380D02*
X272723809Y-84052380D01*
X272819047Y-84195238D01*
X272914285Y-84290476D01*
X273009523Y-84338095D01*
%TO.C,D92*%
X274914285Y-101452380D02*
X274914285Y-100452380D01*
X274676190Y-100452380D01*
X274533333Y-100500000D01*
X274438095Y-100595238D01*
X274390476Y-100690476D01*
X274342857Y-100880952D01*
X274342857Y-101023809D01*
X274390476Y-101214285D01*
X274438095Y-101309523D01*
X274533333Y-101404761D01*
X274676190Y-101452380D01*
X274914285Y-101452380D01*
X273866666Y-101452380D02*
X273676190Y-101452380D01*
X273580952Y-101404761D01*
X273533333Y-101357142D01*
X273438095Y-101214285D01*
X273390476Y-101023809D01*
X273390476Y-100642857D01*
X273438095Y-100547619D01*
X273485714Y-100500000D01*
X273580952Y-100452380D01*
X273771428Y-100452380D01*
X273866666Y-100500000D01*
X273914285Y-100547619D01*
X273961904Y-100642857D01*
X273961904Y-100880952D01*
X273914285Y-100976190D01*
X273866666Y-101023809D01*
X273771428Y-101071428D01*
X273580952Y-101071428D01*
X273485714Y-101023809D01*
X273438095Y-100976190D01*
X273390476Y-100880952D01*
X273009523Y-100547619D02*
X272961904Y-100500000D01*
X272866666Y-100452380D01*
X272628571Y-100452380D01*
X272533333Y-100500000D01*
X272485714Y-100547619D01*
X272438095Y-100642857D01*
X272438095Y-100738095D01*
X272485714Y-100880952D01*
X273057142Y-101452380D01*
X272438095Y-101452380D01*
%TO.C,D93*%
X284214285Y-85052380D02*
X284214285Y-84052380D01*
X283976190Y-84052380D01*
X283833333Y-84100000D01*
X283738095Y-84195238D01*
X283690476Y-84290476D01*
X283642857Y-84480952D01*
X283642857Y-84623809D01*
X283690476Y-84814285D01*
X283738095Y-84909523D01*
X283833333Y-85004761D01*
X283976190Y-85052380D01*
X284214285Y-85052380D01*
X283166666Y-85052380D02*
X282976190Y-85052380D01*
X282880952Y-85004761D01*
X282833333Y-84957142D01*
X282738095Y-84814285D01*
X282690476Y-84623809D01*
X282690476Y-84242857D01*
X282738095Y-84147619D01*
X282785714Y-84100000D01*
X282880952Y-84052380D01*
X283071428Y-84052380D01*
X283166666Y-84100000D01*
X283214285Y-84147619D01*
X283261904Y-84242857D01*
X283261904Y-84480952D01*
X283214285Y-84576190D01*
X283166666Y-84623809D01*
X283071428Y-84671428D01*
X282880952Y-84671428D01*
X282785714Y-84623809D01*
X282738095Y-84576190D01*
X282690476Y-84480952D01*
X282357142Y-84052380D02*
X281738095Y-84052380D01*
X282071428Y-84433333D01*
X281928571Y-84433333D01*
X281833333Y-84480952D01*
X281785714Y-84528571D01*
X281738095Y-84623809D01*
X281738095Y-84861904D01*
X281785714Y-84957142D01*
X281833333Y-85004761D01*
X281928571Y-85052380D01*
X282214285Y-85052380D01*
X282309523Y-85004761D01*
X282357142Y-84957142D01*
%TO.C,D95*%
X291714285Y-35852380D02*
X291714285Y-34852380D01*
X291476190Y-34852380D01*
X291333333Y-34900000D01*
X291238095Y-34995238D01*
X291190476Y-35090476D01*
X291142857Y-35280952D01*
X291142857Y-35423809D01*
X291190476Y-35614285D01*
X291238095Y-35709523D01*
X291333333Y-35804761D01*
X291476190Y-35852380D01*
X291714285Y-35852380D01*
X290666666Y-35852380D02*
X290476190Y-35852380D01*
X290380952Y-35804761D01*
X290333333Y-35757142D01*
X290238095Y-35614285D01*
X290190476Y-35423809D01*
X290190476Y-35042857D01*
X290238095Y-34947619D01*
X290285714Y-34900000D01*
X290380952Y-34852380D01*
X290571428Y-34852380D01*
X290666666Y-34900000D01*
X290714285Y-34947619D01*
X290761904Y-35042857D01*
X290761904Y-35280952D01*
X290714285Y-35376190D01*
X290666666Y-35423809D01*
X290571428Y-35471428D01*
X290380952Y-35471428D01*
X290285714Y-35423809D01*
X290238095Y-35376190D01*
X290190476Y-35280952D01*
X289285714Y-34852380D02*
X289761904Y-34852380D01*
X289809523Y-35328571D01*
X289761904Y-35280952D01*
X289666666Y-35233333D01*
X289428571Y-35233333D01*
X289333333Y-35280952D01*
X289285714Y-35328571D01*
X289238095Y-35423809D01*
X289238095Y-35661904D01*
X289285714Y-35757142D01*
X289333333Y-35804761D01*
X289428571Y-35852380D01*
X289666666Y-35852380D01*
X289761904Y-35804761D01*
X289809523Y-35757142D01*
%TO.C,D96*%
X288114285Y-52252380D02*
X288114285Y-51252380D01*
X287876190Y-51252380D01*
X287733333Y-51300000D01*
X287638095Y-51395238D01*
X287590476Y-51490476D01*
X287542857Y-51680952D01*
X287542857Y-51823809D01*
X287590476Y-52014285D01*
X287638095Y-52109523D01*
X287733333Y-52204761D01*
X287876190Y-52252380D01*
X288114285Y-52252380D01*
X287066666Y-52252380D02*
X286876190Y-52252380D01*
X286780952Y-52204761D01*
X286733333Y-52157142D01*
X286638095Y-52014285D01*
X286590476Y-51823809D01*
X286590476Y-51442857D01*
X286638095Y-51347619D01*
X286685714Y-51300000D01*
X286780952Y-51252380D01*
X286971428Y-51252380D01*
X287066666Y-51300000D01*
X287114285Y-51347619D01*
X287161904Y-51442857D01*
X287161904Y-51680952D01*
X287114285Y-51776190D01*
X287066666Y-51823809D01*
X286971428Y-51871428D01*
X286780952Y-51871428D01*
X286685714Y-51823809D01*
X286638095Y-51776190D01*
X286590476Y-51680952D01*
X285733333Y-51252380D02*
X285923809Y-51252380D01*
X286019047Y-51300000D01*
X286066666Y-51347619D01*
X286161904Y-51490476D01*
X286209523Y-51680952D01*
X286209523Y-52061904D01*
X286161904Y-52157142D01*
X286114285Y-52204761D01*
X286019047Y-52252380D01*
X285828571Y-52252380D01*
X285733333Y-52204761D01*
X285685714Y-52157142D01*
X285638095Y-52061904D01*
X285638095Y-51823809D01*
X285685714Y-51728571D01*
X285733333Y-51680952D01*
X285828571Y-51633333D01*
X286019047Y-51633333D01*
X286114285Y-51680952D01*
X286161904Y-51728571D01*
X286209523Y-51823809D01*
%TO.C,D97*%
X288114285Y-68652380D02*
X288114285Y-67652380D01*
X287876190Y-67652380D01*
X287733333Y-67700000D01*
X287638095Y-67795238D01*
X287590476Y-67890476D01*
X287542857Y-68080952D01*
X287542857Y-68223809D01*
X287590476Y-68414285D01*
X287638095Y-68509523D01*
X287733333Y-68604761D01*
X287876190Y-68652380D01*
X288114285Y-68652380D01*
X287066666Y-68652380D02*
X286876190Y-68652380D01*
X286780952Y-68604761D01*
X286733333Y-68557142D01*
X286638095Y-68414285D01*
X286590476Y-68223809D01*
X286590476Y-67842857D01*
X286638095Y-67747619D01*
X286685714Y-67700000D01*
X286780952Y-67652380D01*
X286971428Y-67652380D01*
X287066666Y-67700000D01*
X287114285Y-67747619D01*
X287161904Y-67842857D01*
X287161904Y-68080952D01*
X287114285Y-68176190D01*
X287066666Y-68223809D01*
X286971428Y-68271428D01*
X286780952Y-68271428D01*
X286685714Y-68223809D01*
X286638095Y-68176190D01*
X286590476Y-68080952D01*
X286257142Y-67652380D02*
X285590476Y-67652380D01*
X286019047Y-68652380D01*
%TO.C,D98*%
X291714285Y-85052380D02*
X291714285Y-84052380D01*
X291476190Y-84052380D01*
X291333333Y-84100000D01*
X291238095Y-84195238D01*
X291190476Y-84290476D01*
X291142857Y-84480952D01*
X291142857Y-84623809D01*
X291190476Y-84814285D01*
X291238095Y-84909523D01*
X291333333Y-85004761D01*
X291476190Y-85052380D01*
X291714285Y-85052380D01*
X290666666Y-85052380D02*
X290476190Y-85052380D01*
X290380952Y-85004761D01*
X290333333Y-84957142D01*
X290238095Y-84814285D01*
X290190476Y-84623809D01*
X290190476Y-84242857D01*
X290238095Y-84147619D01*
X290285714Y-84100000D01*
X290380952Y-84052380D01*
X290571428Y-84052380D01*
X290666666Y-84100000D01*
X290714285Y-84147619D01*
X290761904Y-84242857D01*
X290761904Y-84480952D01*
X290714285Y-84576190D01*
X290666666Y-84623809D01*
X290571428Y-84671428D01*
X290380952Y-84671428D01*
X290285714Y-84623809D01*
X290238095Y-84576190D01*
X290190476Y-84480952D01*
X289619047Y-84480952D02*
X289714285Y-84433333D01*
X289761904Y-84385714D01*
X289809523Y-84290476D01*
X289809523Y-84242857D01*
X289761904Y-84147619D01*
X289714285Y-84100000D01*
X289619047Y-84052380D01*
X289428571Y-84052380D01*
X289333333Y-84100000D01*
X289285714Y-84147619D01*
X289238095Y-84242857D01*
X289238095Y-84290476D01*
X289285714Y-84385714D01*
X289333333Y-84433333D01*
X289428571Y-84480952D01*
X289619047Y-84480952D01*
X289714285Y-84528571D01*
X289761904Y-84576190D01*
X289809523Y-84671428D01*
X289809523Y-84861904D01*
X289761904Y-84957142D01*
X289714285Y-85004761D01*
X289619047Y-85052380D01*
X289428571Y-85052380D01*
X289333333Y-85004761D01*
X289285714Y-84957142D01*
X289238095Y-84861904D01*
X289238095Y-84671428D01*
X289285714Y-84576190D01*
X289333333Y-84528571D01*
X289428571Y-84480952D01*
%TO.C,D99*%
X291914285Y-101452380D02*
X291914285Y-100452380D01*
X291676190Y-100452380D01*
X291533333Y-100500000D01*
X291438095Y-100595238D01*
X291390476Y-100690476D01*
X291342857Y-100880952D01*
X291342857Y-101023809D01*
X291390476Y-101214285D01*
X291438095Y-101309523D01*
X291533333Y-101404761D01*
X291676190Y-101452380D01*
X291914285Y-101452380D01*
X290866666Y-101452380D02*
X290676190Y-101452380D01*
X290580952Y-101404761D01*
X290533333Y-101357142D01*
X290438095Y-101214285D01*
X290390476Y-101023809D01*
X290390476Y-100642857D01*
X290438095Y-100547619D01*
X290485714Y-100500000D01*
X290580952Y-100452380D01*
X290771428Y-100452380D01*
X290866666Y-100500000D01*
X290914285Y-100547619D01*
X290961904Y-100642857D01*
X290961904Y-100880952D01*
X290914285Y-100976190D01*
X290866666Y-101023809D01*
X290771428Y-101071428D01*
X290580952Y-101071428D01*
X290485714Y-101023809D01*
X290438095Y-100976190D01*
X290390476Y-100880952D01*
X289914285Y-101452380D02*
X289723809Y-101452380D01*
X289628571Y-101404761D01*
X289580952Y-101357142D01*
X289485714Y-101214285D01*
X289438095Y-101023809D01*
X289438095Y-100642857D01*
X289485714Y-100547619D01*
X289533333Y-100500000D01*
X289628571Y-100452380D01*
X289819047Y-100452380D01*
X289914285Y-100500000D01*
X289961904Y-100547619D01*
X290009523Y-100642857D01*
X290009523Y-100880952D01*
X289961904Y-100976190D01*
X289914285Y-101023809D01*
X289819047Y-101071428D01*
X289628571Y-101071428D01*
X289533333Y-101023809D01*
X289485714Y-100976190D01*
X289438095Y-100880952D01*
%TO.C,D100*%
X137190476Y-22852380D02*
X137190476Y-21852380D01*
X136952380Y-21852380D01*
X136809523Y-21900000D01*
X136714285Y-21995238D01*
X136666666Y-22090476D01*
X136619047Y-22280952D01*
X136619047Y-22423809D01*
X136666666Y-22614285D01*
X136714285Y-22709523D01*
X136809523Y-22804761D01*
X136952380Y-22852380D01*
X137190476Y-22852380D01*
X135666666Y-22852380D02*
X136238095Y-22852380D01*
X135952380Y-22852380D02*
X135952380Y-21852380D01*
X136047619Y-21995238D01*
X136142857Y-22090476D01*
X136238095Y-22138095D01*
X135047619Y-21852380D02*
X134952380Y-21852380D01*
X134857142Y-21900000D01*
X134809523Y-21947619D01*
X134761904Y-22042857D01*
X134714285Y-22233333D01*
X134714285Y-22471428D01*
X134761904Y-22661904D01*
X134809523Y-22757142D01*
X134857142Y-22804761D01*
X134952380Y-22852380D01*
X135047619Y-22852380D01*
X135142857Y-22804761D01*
X135190476Y-22757142D01*
X135238095Y-22661904D01*
X135285714Y-22471428D01*
X135285714Y-22233333D01*
X135238095Y-22042857D01*
X135190476Y-21947619D01*
X135142857Y-21900000D01*
X135047619Y-21852380D01*
X134095238Y-21852380D02*
X134000000Y-21852380D01*
X133904761Y-21900000D01*
X133857142Y-21947619D01*
X133809523Y-22042857D01*
X133761904Y-22233333D01*
X133761904Y-22471428D01*
X133809523Y-22661904D01*
X133857142Y-22757142D01*
X133904761Y-22804761D01*
X134000000Y-22852380D01*
X134095238Y-22852380D01*
X134190476Y-22804761D01*
X134238095Y-22757142D01*
X134285714Y-22661904D01*
X134333333Y-22471428D01*
X134333333Y-22233333D01*
X134285714Y-22042857D01*
X134238095Y-21947619D01*
X134190476Y-21900000D01*
X134095238Y-21852380D01*
%TO.C,D102*%
X35085476Y-28807380D02*
X35085476Y-27807380D01*
X34847380Y-27807380D01*
X34704523Y-27855000D01*
X34609285Y-27950238D01*
X34561666Y-28045476D01*
X34514047Y-28235952D01*
X34514047Y-28378809D01*
X34561666Y-28569285D01*
X34609285Y-28664523D01*
X34704523Y-28759761D01*
X34847380Y-28807380D01*
X35085476Y-28807380D01*
X33561666Y-28807380D02*
X34133095Y-28807380D01*
X33847380Y-28807380D02*
X33847380Y-27807380D01*
X33942619Y-27950238D01*
X34037857Y-28045476D01*
X34133095Y-28093095D01*
X32942619Y-27807380D02*
X32847380Y-27807380D01*
X32752142Y-27855000D01*
X32704523Y-27902619D01*
X32656904Y-27997857D01*
X32609285Y-28188333D01*
X32609285Y-28426428D01*
X32656904Y-28616904D01*
X32704523Y-28712142D01*
X32752142Y-28759761D01*
X32847380Y-28807380D01*
X32942619Y-28807380D01*
X33037857Y-28759761D01*
X33085476Y-28712142D01*
X33133095Y-28616904D01*
X33180714Y-28426428D01*
X33180714Y-28188333D01*
X33133095Y-27997857D01*
X33085476Y-27902619D01*
X33037857Y-27855000D01*
X32942619Y-27807380D01*
X32228333Y-27902619D02*
X32180714Y-27855000D01*
X32085476Y-27807380D01*
X31847380Y-27807380D01*
X31752142Y-27855000D01*
X31704523Y-27902619D01*
X31656904Y-27997857D01*
X31656904Y-28093095D01*
X31704523Y-28235952D01*
X32275952Y-28807380D01*
X31656904Y-28807380D01*
%TO.C,F1*%
X41233333Y-24808571D02*
X41566666Y-24808571D01*
X41566666Y-25332380D02*
X41566666Y-24332380D01*
X41090476Y-24332380D01*
X40185714Y-25332380D02*
X40757142Y-25332380D01*
X40471428Y-25332380D02*
X40471428Y-24332380D01*
X40566666Y-24475238D01*
X40661904Y-24570476D01*
X40757142Y-24618095D01*
%TO.C,J2*%
X279903333Y-76482380D02*
X279903333Y-77196666D01*
X279950952Y-77339523D01*
X280046190Y-77434761D01*
X280189047Y-77482380D01*
X280284285Y-77482380D01*
X279474761Y-76577619D02*
X279427142Y-76530000D01*
X279331904Y-76482380D01*
X279093809Y-76482380D01*
X278998571Y-76530000D01*
X278950952Y-76577619D01*
X278903333Y-76672857D01*
X278903333Y-76768095D01*
X278950952Y-76910952D01*
X279522380Y-77482380D01*
X278903333Y-77482380D01*
X283352380Y-73176190D02*
X282876190Y-72842857D01*
X283352380Y-72604761D02*
X282352380Y-72604761D01*
X282352380Y-72985714D01*
X282400000Y-73080952D01*
X282447619Y-73128571D01*
X282542857Y-73176190D01*
X282685714Y-73176190D01*
X282780952Y-73128571D01*
X282828571Y-73080952D01*
X282876190Y-72985714D01*
X282876190Y-72604761D01*
X283352380Y-73747619D02*
X283304761Y-73652380D01*
X283257142Y-73604761D01*
X283161904Y-73557142D01*
X282876190Y-73557142D01*
X282780952Y-73604761D01*
X282733333Y-73652380D01*
X282685714Y-73747619D01*
X282685714Y-73890476D01*
X282733333Y-73985714D01*
X282780952Y-74033333D01*
X282876190Y-74080952D01*
X283161904Y-74080952D01*
X283257142Y-74033333D01*
X283304761Y-73985714D01*
X283352380Y-73890476D01*
X283352380Y-73747619D01*
X282685714Y-74414285D02*
X283352380Y-74604761D01*
X282876190Y-74795238D01*
X283352380Y-74985714D01*
X282685714Y-75176190D01*
X282352380Y-76223809D02*
X282352380Y-76842857D01*
X282733333Y-76509523D01*
X282733333Y-76652380D01*
X282780952Y-76747619D01*
X282828571Y-76795238D01*
X282923809Y-76842857D01*
X283161904Y-76842857D01*
X283257142Y-76795238D01*
X283304761Y-76747619D01*
X283352380Y-76652380D01*
X283352380Y-76366666D01*
X283304761Y-76271428D01*
X283257142Y-76223809D01*
X276457142Y-73238095D02*
X276504761Y-73190476D01*
X276552380Y-73047619D01*
X276552380Y-72952380D01*
X276504761Y-72809523D01*
X276409523Y-72714285D01*
X276314285Y-72666666D01*
X276123809Y-72619047D01*
X275980952Y-72619047D01*
X275790476Y-72666666D01*
X275695238Y-72714285D01*
X275600000Y-72809523D01*
X275552380Y-72952380D01*
X275552380Y-73047619D01*
X275600000Y-73190476D01*
X275647619Y-73238095D01*
X276552380Y-73809523D02*
X276504761Y-73714285D01*
X276457142Y-73666666D01*
X276361904Y-73619047D01*
X276076190Y-73619047D01*
X275980952Y-73666666D01*
X275933333Y-73714285D01*
X275885714Y-73809523D01*
X275885714Y-73952380D01*
X275933333Y-74047619D01*
X275980952Y-74095238D01*
X276076190Y-74142857D01*
X276361904Y-74142857D01*
X276457142Y-74095238D01*
X276504761Y-74047619D01*
X276552380Y-73952380D01*
X276552380Y-73809523D01*
X276552380Y-74714285D02*
X276504761Y-74619047D01*
X276409523Y-74571428D01*
X275552380Y-74571428D01*
X276552380Y-75904761D02*
X276552380Y-76095238D01*
X276504761Y-76190476D01*
X276457142Y-76238095D01*
X276314285Y-76333333D01*
X276123809Y-76380952D01*
X275742857Y-76380952D01*
X275647619Y-76333333D01*
X275600000Y-76285714D01*
X275552380Y-76190476D01*
X275552380Y-76000000D01*
X275600000Y-75904761D01*
X275647619Y-75857142D01*
X275742857Y-75809523D01*
X275980952Y-75809523D01*
X276076190Y-75857142D01*
X276123809Y-75904761D01*
X276171428Y-76000000D01*
X276171428Y-76190476D01*
X276123809Y-76285714D01*
X276076190Y-76333333D01*
X275980952Y-76380952D01*
X282123809Y-78452380D02*
X282457142Y-77976190D01*
X282695238Y-78452380D02*
X282695238Y-77452380D01*
X282314285Y-77452380D01*
X282219047Y-77500000D01*
X282171428Y-77547619D01*
X282123809Y-77642857D01*
X282123809Y-77785714D01*
X282171428Y-77880952D01*
X282219047Y-77928571D01*
X282314285Y-77976190D01*
X282695238Y-77976190D01*
X281314285Y-78404761D02*
X281409523Y-78452380D01*
X281600000Y-78452380D01*
X281695238Y-78404761D01*
X281742857Y-78309523D01*
X281742857Y-77928571D01*
X281695238Y-77833333D01*
X281600000Y-77785714D01*
X281409523Y-77785714D01*
X281314285Y-77833333D01*
X281266666Y-77928571D01*
X281266666Y-78023809D01*
X281742857Y-78119047D01*
X280885714Y-78404761D02*
X280790476Y-78452380D01*
X280600000Y-78452380D01*
X280504761Y-78404761D01*
X280457142Y-78309523D01*
X280457142Y-78261904D01*
X280504761Y-78166666D01*
X280600000Y-78119047D01*
X280742857Y-78119047D01*
X280838095Y-78071428D01*
X280885714Y-77976190D01*
X280885714Y-77928571D01*
X280838095Y-77833333D01*
X280742857Y-77785714D01*
X280600000Y-77785714D01*
X280504761Y-77833333D01*
X279647619Y-78404761D02*
X279742857Y-78452380D01*
X279933333Y-78452380D01*
X280028571Y-78404761D01*
X280076190Y-78309523D01*
X280076190Y-77928571D01*
X280028571Y-77833333D01*
X279933333Y-77785714D01*
X279742857Y-77785714D01*
X279647619Y-77833333D01*
X279600000Y-77928571D01*
X279600000Y-78023809D01*
X280076190Y-78119047D01*
X279171428Y-78452380D02*
X279171428Y-77785714D01*
X279171428Y-77976190D02*
X279123809Y-77880952D01*
X279076190Y-77833333D01*
X278980952Y-77785714D01*
X278885714Y-77785714D01*
X278647619Y-77785714D02*
X278409523Y-78452380D01*
X278171428Y-77785714D01*
X277409523Y-78404761D02*
X277504761Y-78452380D01*
X277695238Y-78452380D01*
X277790476Y-78404761D01*
X277838095Y-78309523D01*
X277838095Y-77928571D01*
X277790476Y-77833333D01*
X277695238Y-77785714D01*
X277504761Y-77785714D01*
X277409523Y-77833333D01*
X277361904Y-77928571D01*
X277361904Y-78023809D01*
X277838095Y-78119047D01*
X276504761Y-78452380D02*
X276504761Y-77452380D01*
X276504761Y-78404761D02*
X276600000Y-78452380D01*
X276790476Y-78452380D01*
X276885714Y-78404761D01*
X276933333Y-78357142D01*
X276980952Y-78261904D01*
X276980952Y-77976190D01*
X276933333Y-77880952D01*
X276885714Y-77833333D01*
X276790476Y-77785714D01*
X276600000Y-77785714D01*
X276504761Y-77833333D01*
%TO.C,JP1*%
X27952380Y-25466666D02*
X28666666Y-25466666D01*
X28809523Y-25419047D01*
X28904761Y-25323809D01*
X28952380Y-25180952D01*
X28952380Y-25085714D01*
X28952380Y-25942857D02*
X27952380Y-25942857D01*
X27952380Y-26323809D01*
X28000000Y-26419047D01*
X28047619Y-26466666D01*
X28142857Y-26514285D01*
X28285714Y-26514285D01*
X28380952Y-26466666D01*
X28428571Y-26419047D01*
X28476190Y-26323809D01*
X28476190Y-25942857D01*
X28952380Y-27466666D02*
X28952380Y-26895238D01*
X28952380Y-27180952D02*
X27952380Y-27180952D01*
X28095238Y-27085714D01*
X28190476Y-26990476D01*
X28238095Y-26895238D01*
X27833333Y-29004761D02*
X27690476Y-29052380D01*
X27452380Y-29052380D01*
X27357142Y-29004761D01*
X27309523Y-28957142D01*
X27261904Y-28861904D01*
X27261904Y-28766666D01*
X27309523Y-28671428D01*
X27357142Y-28623809D01*
X27452380Y-28576190D01*
X27642857Y-28528571D01*
X27738095Y-28480952D01*
X27785714Y-28433333D01*
X27833333Y-28338095D01*
X27833333Y-28242857D01*
X27785714Y-28147619D01*
X27738095Y-28100000D01*
X27642857Y-28052380D01*
X27404761Y-28052380D01*
X27261904Y-28100000D01*
X26833333Y-29052380D02*
X26833333Y-28385714D01*
X26833333Y-28052380D02*
X26880952Y-28100000D01*
X26833333Y-28147619D01*
X26785714Y-28100000D01*
X26833333Y-28052380D01*
X26833333Y-28147619D01*
X26357142Y-29052380D02*
X26357142Y-28385714D01*
X26357142Y-28480952D02*
X26309523Y-28433333D01*
X26214285Y-28385714D01*
X26071428Y-28385714D01*
X25976190Y-28433333D01*
X25928571Y-28528571D01*
X25928571Y-29052380D01*
X25928571Y-28528571D02*
X25880952Y-28433333D01*
X25785714Y-28385714D01*
X25642857Y-28385714D01*
X25547619Y-28433333D01*
X25500000Y-28528571D01*
X25500000Y-29052380D01*
X24595238Y-28385714D02*
X24595238Y-29052380D01*
X25023809Y-28385714D02*
X25023809Y-28909523D01*
X24976190Y-29004761D01*
X24880952Y-29052380D01*
X24738095Y-29052380D01*
X24642857Y-29004761D01*
X24595238Y-28957142D01*
X23976190Y-29052380D02*
X24071428Y-29004761D01*
X24119047Y-28909523D01*
X24119047Y-28052380D01*
X23738095Y-28385714D02*
X23357142Y-28385714D01*
X23595238Y-28052380D02*
X23595238Y-28909523D01*
X23547619Y-29004761D01*
X23452380Y-29052380D01*
X23357142Y-29052380D01*
X22595238Y-29052380D02*
X22595238Y-28528571D01*
X22642857Y-28433333D01*
X22738095Y-28385714D01*
X22928571Y-28385714D01*
X23023809Y-28433333D01*
X22595238Y-29004761D02*
X22690476Y-29052380D01*
X22928571Y-29052380D01*
X23023809Y-29004761D01*
X23071428Y-28909523D01*
X23071428Y-28814285D01*
X23023809Y-28719047D01*
X22928571Y-28671428D01*
X22690476Y-28671428D01*
X22595238Y-28623809D01*
X22119047Y-28385714D02*
X22119047Y-29052380D01*
X22119047Y-28480952D02*
X22071428Y-28433333D01*
X21976190Y-28385714D01*
X21833333Y-28385714D01*
X21738095Y-28433333D01*
X21690476Y-28528571D01*
X21690476Y-29052380D01*
X20833333Y-29004761D02*
X20928571Y-29052380D01*
X21119047Y-29052380D01*
X21214285Y-29004761D01*
X21261904Y-28909523D01*
X21261904Y-28528571D01*
X21214285Y-28433333D01*
X21119047Y-28385714D01*
X20928571Y-28385714D01*
X20833333Y-28433333D01*
X20785714Y-28528571D01*
X20785714Y-28623809D01*
X21261904Y-28719047D01*
X20214285Y-29052380D02*
X20309523Y-29004761D01*
X20357142Y-28957142D01*
X20404761Y-28861904D01*
X20404761Y-28576190D01*
X20357142Y-28480952D01*
X20309523Y-28433333D01*
X20214285Y-28385714D01*
X20071428Y-28385714D01*
X19976190Y-28433333D01*
X19928571Y-28480952D01*
X19880952Y-28576190D01*
X19880952Y-28861904D01*
X19928571Y-28957142D01*
X19976190Y-29004761D01*
X20071428Y-29052380D01*
X20214285Y-29052380D01*
X19023809Y-28385714D02*
X19023809Y-29052380D01*
X19452380Y-28385714D02*
X19452380Y-28909523D01*
X19404761Y-29004761D01*
X19309523Y-29052380D01*
X19166666Y-29052380D01*
X19071428Y-29004761D01*
X19023809Y-28957142D01*
X18595238Y-29004761D02*
X18500000Y-29052380D01*
X18309523Y-29052380D01*
X18214285Y-29004761D01*
X18166666Y-28909523D01*
X18166666Y-28861904D01*
X18214285Y-28766666D01*
X18309523Y-28719047D01*
X18452380Y-28719047D01*
X18547619Y-28671428D01*
X18595238Y-28576190D01*
X18595238Y-28528571D01*
X18547619Y-28433333D01*
X18452380Y-28385714D01*
X18309523Y-28385714D01*
X18214285Y-28433333D01*
X27833333Y-30066666D02*
X27357142Y-30066666D01*
X27928571Y-30352380D02*
X27595238Y-29352380D01*
X27261904Y-30352380D01*
X26500000Y-29685714D02*
X26500000Y-30352380D01*
X26928571Y-29685714D02*
X26928571Y-30209523D01*
X26880952Y-30304761D01*
X26785714Y-30352380D01*
X26642857Y-30352380D01*
X26547619Y-30304761D01*
X26500000Y-30257142D01*
X25595238Y-30352380D02*
X25595238Y-29352380D01*
X25595238Y-30304761D02*
X25690476Y-30352380D01*
X25880952Y-30352380D01*
X25976190Y-30304761D01*
X26023809Y-30257142D01*
X26071428Y-30161904D01*
X26071428Y-29876190D01*
X26023809Y-29780952D01*
X25976190Y-29733333D01*
X25880952Y-29685714D01*
X25690476Y-29685714D01*
X25595238Y-29733333D01*
X25119047Y-30352380D02*
X25119047Y-29685714D01*
X25119047Y-29352380D02*
X25166666Y-29400000D01*
X25119047Y-29447619D01*
X25071428Y-29400000D01*
X25119047Y-29352380D01*
X25119047Y-29447619D01*
X24500000Y-30352380D02*
X24595238Y-30304761D01*
X24642857Y-30257142D01*
X24690476Y-30161904D01*
X24690476Y-29876190D01*
X24642857Y-29780952D01*
X24595238Y-29733333D01*
X24500000Y-29685714D01*
X24357142Y-29685714D01*
X24261904Y-29733333D01*
X24214285Y-29780952D01*
X24166666Y-29876190D01*
X24166666Y-30161904D01*
X24214285Y-30257142D01*
X24261904Y-30304761D01*
X24357142Y-30352380D01*
X24500000Y-30352380D01*
%TO.C,JP_LED1*%
X64521428Y-27802380D02*
X64521428Y-28516666D01*
X64569047Y-28659523D01*
X64664285Y-28754761D01*
X64807142Y-28802380D01*
X64902380Y-28802380D01*
X64045238Y-28802380D02*
X64045238Y-27802380D01*
X63664285Y-27802380D01*
X63569047Y-27850000D01*
X63521428Y-27897619D01*
X63473809Y-27992857D01*
X63473809Y-28135714D01*
X63521428Y-28230952D01*
X63569047Y-28278571D01*
X63664285Y-28326190D01*
X64045238Y-28326190D01*
X63283333Y-28897619D02*
X62521428Y-28897619D01*
X61807142Y-28802380D02*
X62283333Y-28802380D01*
X62283333Y-27802380D01*
X61473809Y-28278571D02*
X61140476Y-28278571D01*
X60997619Y-28802380D02*
X61473809Y-28802380D01*
X61473809Y-27802380D01*
X60997619Y-27802380D01*
X60569047Y-28802380D02*
X60569047Y-27802380D01*
X60330952Y-27802380D01*
X60188095Y-27850000D01*
X60092857Y-27945238D01*
X60045238Y-28040476D01*
X59997619Y-28230952D01*
X59997619Y-28373809D01*
X60045238Y-28564285D01*
X60092857Y-28659523D01*
X60188095Y-28754761D01*
X60330952Y-28802380D01*
X60569047Y-28802380D01*
X59045238Y-28802380D02*
X59616666Y-28802380D01*
X59330952Y-28802380D02*
X59330952Y-27802380D01*
X59426190Y-27945238D01*
X59521428Y-28040476D01*
X59616666Y-28088095D01*
X59492857Y-23903571D02*
X59826190Y-23903571D01*
X59826190Y-24427380D02*
X59826190Y-23427380D01*
X59350000Y-23427380D01*
X58969047Y-24427380D02*
X58969047Y-23760714D01*
X58969047Y-23951190D02*
X58921428Y-23855952D01*
X58873809Y-23808333D01*
X58778571Y-23760714D01*
X58683333Y-23760714D01*
X58207142Y-24427380D02*
X58302380Y-24379761D01*
X58350000Y-24332142D01*
X58397619Y-24236904D01*
X58397619Y-23951190D01*
X58350000Y-23855952D01*
X58302380Y-23808333D01*
X58207142Y-23760714D01*
X58064285Y-23760714D01*
X57969047Y-23808333D01*
X57921428Y-23855952D01*
X57873809Y-23951190D01*
X57873809Y-24236904D01*
X57921428Y-24332142D01*
X57969047Y-24379761D01*
X58064285Y-24427380D01*
X58207142Y-24427380D01*
X57445238Y-23760714D02*
X57445238Y-24427380D01*
X57445238Y-23855952D02*
X57397619Y-23808333D01*
X57302380Y-23760714D01*
X57159523Y-23760714D01*
X57064285Y-23808333D01*
X57016666Y-23903571D01*
X57016666Y-24427380D01*
X56683333Y-23760714D02*
X56302380Y-23760714D01*
X56540476Y-23427380D02*
X56540476Y-24284523D01*
X56492857Y-24379761D01*
X56397619Y-24427380D01*
X56302380Y-24427380D01*
X55969047Y-24046428D02*
X55207142Y-24046428D01*
X55588095Y-24427380D02*
X55588095Y-23665476D01*
X54730952Y-23427380D02*
X54730952Y-24236904D01*
X54683333Y-24332142D01*
X54635714Y-24379761D01*
X54540476Y-24427380D01*
X54350000Y-24427380D01*
X54254761Y-24379761D01*
X54207142Y-24332142D01*
X54159523Y-24236904D01*
X54159523Y-23427380D01*
X53683333Y-23760714D02*
X53683333Y-24427380D01*
X53683333Y-23855952D02*
X53635714Y-23808333D01*
X53540476Y-23760714D01*
X53397619Y-23760714D01*
X53302380Y-23808333D01*
X53254761Y-23903571D01*
X53254761Y-24427380D01*
X52350000Y-24427380D02*
X52350000Y-23427380D01*
X52350000Y-24379761D02*
X52445238Y-24427380D01*
X52635714Y-24427380D01*
X52730952Y-24379761D01*
X52778571Y-24332142D01*
X52826190Y-24236904D01*
X52826190Y-23951190D01*
X52778571Y-23855952D01*
X52730952Y-23808333D01*
X52635714Y-23760714D01*
X52445238Y-23760714D01*
X52350000Y-23808333D01*
X51492857Y-24379761D02*
X51588095Y-24427380D01*
X51778571Y-24427380D01*
X51873809Y-24379761D01*
X51921428Y-24284523D01*
X51921428Y-23903571D01*
X51873809Y-23808333D01*
X51778571Y-23760714D01*
X51588095Y-23760714D01*
X51492857Y-23808333D01*
X51445238Y-23903571D01*
X51445238Y-23998809D01*
X51921428Y-24094047D01*
X51016666Y-24427380D02*
X51016666Y-23760714D01*
X51016666Y-23951190D02*
X50969047Y-23855952D01*
X50921428Y-23808333D01*
X50826190Y-23760714D01*
X50730952Y-23760714D01*
X59807142Y-26102380D02*
X59807142Y-26911904D01*
X59759523Y-27007142D01*
X59711904Y-27054761D01*
X59616666Y-27102380D01*
X59426190Y-27102380D01*
X59330952Y-27054761D01*
X59283333Y-27007142D01*
X59235714Y-26911904D01*
X59235714Y-26102380D01*
X58759523Y-26435714D02*
X58759523Y-27102380D01*
X58759523Y-26530952D02*
X58711904Y-26483333D01*
X58616666Y-26435714D01*
X58473809Y-26435714D01*
X58378571Y-26483333D01*
X58330952Y-26578571D01*
X58330952Y-27102380D01*
X57426190Y-27102380D02*
X57426190Y-26102380D01*
X57426190Y-27054761D02*
X57521428Y-27102380D01*
X57711904Y-27102380D01*
X57807142Y-27054761D01*
X57854761Y-27007142D01*
X57902380Y-26911904D01*
X57902380Y-26626190D01*
X57854761Y-26530952D01*
X57807142Y-26483333D01*
X57711904Y-26435714D01*
X57521428Y-26435714D01*
X57426190Y-26483333D01*
X56569047Y-27054761D02*
X56664285Y-27102380D01*
X56854761Y-27102380D01*
X56950000Y-27054761D01*
X56997619Y-26959523D01*
X56997619Y-26578571D01*
X56950000Y-26483333D01*
X56854761Y-26435714D01*
X56664285Y-26435714D01*
X56569047Y-26483333D01*
X56521428Y-26578571D01*
X56521428Y-26673809D01*
X56997619Y-26769047D01*
X56092857Y-27102380D02*
X56092857Y-26435714D01*
X56092857Y-26626190D02*
X56045238Y-26530952D01*
X55997619Y-26483333D01*
X55902380Y-26435714D01*
X55807142Y-26435714D01*
X54569047Y-27102380D02*
X54664285Y-27054761D01*
X54711904Y-27007142D01*
X54759523Y-26911904D01*
X54759523Y-26626190D01*
X54711904Y-26530952D01*
X54664285Y-26483333D01*
X54569047Y-26435714D01*
X54426190Y-26435714D01*
X54330952Y-26483333D01*
X54283333Y-26530952D01*
X54235714Y-26626190D01*
X54235714Y-26911904D01*
X54283333Y-27007142D01*
X54330952Y-27054761D01*
X54426190Y-27102380D01*
X54569047Y-27102380D01*
X53807142Y-26435714D02*
X53807142Y-27102380D01*
X53807142Y-26530952D02*
X53759523Y-26483333D01*
X53664285Y-26435714D01*
X53521428Y-26435714D01*
X53426190Y-26483333D01*
X53378571Y-26578571D01*
X53378571Y-27102380D01*
X52759523Y-27102380D02*
X52854761Y-27054761D01*
X52902380Y-26959523D01*
X52902380Y-26102380D01*
X52473809Y-26435714D02*
X52235714Y-27102380D01*
X51997619Y-26435714D02*
X52235714Y-27102380D01*
X52330952Y-27340476D01*
X52378571Y-27388095D01*
X52473809Y-27435714D01*
%TO.C,JP_LED2*%
X118852380Y-18378571D02*
X119566666Y-18378571D01*
X119709523Y-18330952D01*
X119804761Y-18235714D01*
X119852380Y-18092857D01*
X119852380Y-17997619D01*
X119852380Y-18854761D02*
X118852380Y-18854761D01*
X118852380Y-19235714D01*
X118900000Y-19330952D01*
X118947619Y-19378571D01*
X119042857Y-19426190D01*
X119185714Y-19426190D01*
X119280952Y-19378571D01*
X119328571Y-19330952D01*
X119376190Y-19235714D01*
X119376190Y-18854761D01*
X119947619Y-19616666D02*
X119947619Y-20378571D01*
X119852380Y-21092857D02*
X119852380Y-20616666D01*
X118852380Y-20616666D01*
X119328571Y-21426190D02*
X119328571Y-21759523D01*
X119852380Y-21902380D02*
X119852380Y-21426190D01*
X118852380Y-21426190D01*
X118852380Y-21902380D01*
X119852380Y-22330952D02*
X118852380Y-22330952D01*
X118852380Y-22569047D01*
X118900000Y-22711904D01*
X118995238Y-22807142D01*
X119090476Y-22854761D01*
X119280952Y-22902380D01*
X119423809Y-22902380D01*
X119614285Y-22854761D01*
X119709523Y-22807142D01*
X119804761Y-22711904D01*
X119852380Y-22569047D01*
X119852380Y-22330952D01*
X118947619Y-23283333D02*
X118900000Y-23330952D01*
X118852380Y-23426190D01*
X118852380Y-23664285D01*
X118900000Y-23759523D01*
X118947619Y-23807142D01*
X119042857Y-23854761D01*
X119138095Y-23854761D01*
X119280952Y-23807142D01*
X119852380Y-23235714D01*
X119852380Y-23854761D01*
X114157142Y-21552380D02*
X114490476Y-21076190D01*
X114728571Y-21552380D02*
X114728571Y-20552380D01*
X114347619Y-20552380D01*
X114252380Y-20600000D01*
X114204761Y-20647619D01*
X114157142Y-20742857D01*
X114157142Y-20885714D01*
X114204761Y-20980952D01*
X114252380Y-21028571D01*
X114347619Y-21076190D01*
X114728571Y-21076190D01*
X113728571Y-21028571D02*
X113395238Y-21028571D01*
X113252380Y-21552380D02*
X113728571Y-21552380D01*
X113728571Y-20552380D01*
X113252380Y-20552380D01*
X112871428Y-20647619D02*
X112823809Y-20600000D01*
X112728571Y-20552380D01*
X112490476Y-20552380D01*
X112395238Y-20600000D01*
X112347619Y-20647619D01*
X112300000Y-20742857D01*
X112300000Y-20838095D01*
X112347619Y-20980952D01*
X112919047Y-21552380D01*
X112300000Y-21552380D01*
X110633333Y-21552380D02*
X111109523Y-21552380D01*
X111109523Y-20552380D01*
X110300000Y-21028571D02*
X109966666Y-21028571D01*
X109823809Y-21552380D02*
X110300000Y-21552380D01*
X110300000Y-20552380D01*
X109823809Y-20552380D01*
X109395238Y-21552380D02*
X109395238Y-20552380D01*
X109157142Y-20552380D01*
X109014285Y-20600000D01*
X108919047Y-20695238D01*
X108871428Y-20790476D01*
X108823809Y-20980952D01*
X108823809Y-21123809D01*
X108871428Y-21314285D01*
X108919047Y-21409523D01*
X109014285Y-21504761D01*
X109157142Y-21552380D01*
X109395238Y-21552380D01*
X116161904Y-19428571D02*
X115828571Y-19428571D01*
X115685714Y-19952380D02*
X116161904Y-19952380D01*
X116161904Y-18952380D01*
X115685714Y-18952380D01*
X115257142Y-19285714D02*
X115257142Y-19952380D01*
X115257142Y-19380952D02*
X115209523Y-19333333D01*
X115114285Y-19285714D01*
X114971428Y-19285714D01*
X114876190Y-19333333D01*
X114828571Y-19428571D01*
X114828571Y-19952380D01*
X113923809Y-19952380D02*
X113923809Y-19428571D01*
X113971428Y-19333333D01*
X114066666Y-19285714D01*
X114257142Y-19285714D01*
X114352380Y-19333333D01*
X113923809Y-19904761D02*
X114019047Y-19952380D01*
X114257142Y-19952380D01*
X114352380Y-19904761D01*
X114400000Y-19809523D01*
X114400000Y-19714285D01*
X114352380Y-19619047D01*
X114257142Y-19571428D01*
X114019047Y-19571428D01*
X113923809Y-19523809D01*
X113447619Y-19952380D02*
X113447619Y-18952380D01*
X113447619Y-19333333D02*
X113352380Y-19285714D01*
X113161904Y-19285714D01*
X113066666Y-19333333D01*
X113019047Y-19380952D01*
X112971428Y-19476190D01*
X112971428Y-19761904D01*
X113019047Y-19857142D01*
X113066666Y-19904761D01*
X113161904Y-19952380D01*
X113352380Y-19952380D01*
X113447619Y-19904761D01*
X112400000Y-19952380D02*
X112495238Y-19904761D01*
X112542857Y-19809523D01*
X112542857Y-18952380D01*
X111638095Y-19904761D02*
X111733333Y-19952380D01*
X111923809Y-19952380D01*
X112019047Y-19904761D01*
X112066666Y-19809523D01*
X112066666Y-19428571D01*
X112019047Y-19333333D01*
X111923809Y-19285714D01*
X111733333Y-19285714D01*
X111638095Y-19333333D01*
X111590476Y-19428571D01*
X111590476Y-19523809D01*
X112066666Y-19619047D01*
X116200000Y-22952380D02*
X116200000Y-21952380D01*
X115961904Y-21952380D01*
X115819047Y-22000000D01*
X115723809Y-22095238D01*
X115676190Y-22190476D01*
X115628571Y-22380952D01*
X115628571Y-22523809D01*
X115676190Y-22714285D01*
X115723809Y-22809523D01*
X115819047Y-22904761D01*
X115961904Y-22952380D01*
X116200000Y-22952380D01*
X115200000Y-22952380D02*
X115200000Y-22285714D01*
X115200000Y-21952380D02*
X115247619Y-22000000D01*
X115200000Y-22047619D01*
X115152380Y-22000000D01*
X115200000Y-21952380D01*
X115200000Y-22047619D01*
X114771428Y-22904761D02*
X114676190Y-22952380D01*
X114485714Y-22952380D01*
X114390476Y-22904761D01*
X114342857Y-22809523D01*
X114342857Y-22761904D01*
X114390476Y-22666666D01*
X114485714Y-22619047D01*
X114628571Y-22619047D01*
X114723809Y-22571428D01*
X114771428Y-22476190D01*
X114771428Y-22428571D01*
X114723809Y-22333333D01*
X114628571Y-22285714D01*
X114485714Y-22285714D01*
X114390476Y-22333333D01*
X113485714Y-22952380D02*
X113485714Y-22428571D01*
X113533333Y-22333333D01*
X113628571Y-22285714D01*
X113819047Y-22285714D01*
X113914285Y-22333333D01*
X113485714Y-22904761D02*
X113580952Y-22952380D01*
X113819047Y-22952380D01*
X113914285Y-22904761D01*
X113961904Y-22809523D01*
X113961904Y-22714285D01*
X113914285Y-22619047D01*
X113819047Y-22571428D01*
X113580952Y-22571428D01*
X113485714Y-22523809D01*
X113009523Y-22952380D02*
X113009523Y-21952380D01*
X113009523Y-22333333D02*
X112914285Y-22285714D01*
X112723809Y-22285714D01*
X112628571Y-22333333D01*
X112580952Y-22380952D01*
X112533333Y-22476190D01*
X112533333Y-22761904D01*
X112580952Y-22857142D01*
X112628571Y-22904761D01*
X112723809Y-22952380D01*
X112914285Y-22952380D01*
X113009523Y-22904761D01*
X111961904Y-22952380D02*
X112057142Y-22904761D01*
X112104761Y-22809523D01*
X112104761Y-21952380D01*
X111200000Y-22904761D02*
X111295238Y-22952380D01*
X111485714Y-22952380D01*
X111580952Y-22904761D01*
X111628571Y-22809523D01*
X111628571Y-22428571D01*
X111580952Y-22333333D01*
X111485714Y-22285714D01*
X111295238Y-22285714D01*
X111200000Y-22333333D01*
X111152380Y-22428571D01*
X111152380Y-22523809D01*
X111628571Y-22619047D01*
%TO.C,L15*%
X290388095Y-80786666D02*
X289588095Y-80520000D01*
X290388095Y-80253333D01*
X289664285Y-79529523D02*
X289626190Y-79567619D01*
X289588095Y-79681904D01*
X289588095Y-79758095D01*
X289626190Y-79872380D01*
X289702380Y-79948571D01*
X289778571Y-79986666D01*
X289930952Y-80024761D01*
X290045238Y-80024761D01*
X290197619Y-79986666D01*
X290273809Y-79948571D01*
X290350000Y-79872380D01*
X290388095Y-79758095D01*
X290388095Y-79681904D01*
X290350000Y-79567619D01*
X290311904Y-79529523D01*
X289664285Y-78729523D02*
X289626190Y-78767619D01*
X289588095Y-78881904D01*
X289588095Y-78958095D01*
X289626190Y-79072380D01*
X289702380Y-79148571D01*
X289778571Y-79186666D01*
X289930952Y-79224761D01*
X290045238Y-79224761D01*
X290197619Y-79186666D01*
X290273809Y-79148571D01*
X290350000Y-79072380D01*
X290388095Y-78958095D01*
X290388095Y-78881904D01*
X290350000Y-78767619D01*
X290311904Y-78729523D01*
X289588095Y-77484285D02*
X289588095Y-77865238D01*
X290388095Y-77865238D01*
X290007142Y-77217619D02*
X290007142Y-76950952D01*
X289588095Y-76836666D02*
X289588095Y-77217619D01*
X290388095Y-77217619D01*
X290388095Y-76836666D01*
X289588095Y-76493809D02*
X290388095Y-76493809D01*
X290388095Y-76303333D01*
X290350000Y-76189047D01*
X290273809Y-76112857D01*
X290197619Y-76074761D01*
X290045238Y-76036666D01*
X289930952Y-76036666D01*
X289778571Y-76074761D01*
X289702380Y-76112857D01*
X289626190Y-76189047D01*
X289588095Y-76303333D01*
X289588095Y-76493809D01*
X290350000Y-75079523D02*
X290388095Y-75155714D01*
X290388095Y-75270000D01*
X290350000Y-75384285D01*
X290273809Y-75460476D01*
X290197619Y-75498571D01*
X290045238Y-75536666D01*
X289930952Y-75536666D01*
X289778571Y-75498571D01*
X289702380Y-75460476D01*
X289626190Y-75384285D01*
X289588095Y-75270000D01*
X289588095Y-75193809D01*
X289626190Y-75079523D01*
X289664285Y-75041428D01*
X289930952Y-75041428D01*
X289930952Y-75193809D01*
X289588095Y-74698571D02*
X290388095Y-74698571D01*
X289588095Y-74241428D01*
X290388095Y-74241428D01*
X289588095Y-73860476D02*
X290388095Y-73860476D01*
X290388095Y-73670000D01*
X290350000Y-73555714D01*
X290273809Y-73479523D01*
X290197619Y-73441428D01*
X290045238Y-73403333D01*
X289930952Y-73403333D01*
X289778571Y-73441428D01*
X289702380Y-73479523D01*
X289626190Y-73555714D01*
X289588095Y-73670000D01*
X289588095Y-73860476D01*
X292688095Y-79298571D02*
X292688095Y-79679523D01*
X293488095Y-79679523D01*
X293107142Y-79031904D02*
X293107142Y-78765238D01*
X292688095Y-78650952D02*
X292688095Y-79031904D01*
X293488095Y-79031904D01*
X293488095Y-78650952D01*
X292688095Y-78308095D02*
X293488095Y-78308095D01*
X293488095Y-78117619D01*
X293450000Y-78003333D01*
X293373809Y-77927142D01*
X293297619Y-77889047D01*
X293145238Y-77850952D01*
X293030952Y-77850952D01*
X292878571Y-77889047D01*
X292802380Y-77927142D01*
X292726190Y-78003333D01*
X292688095Y-78117619D01*
X292688095Y-78308095D01*
X292726190Y-76936666D02*
X292688095Y-76822380D01*
X292688095Y-76631904D01*
X292726190Y-76555714D01*
X292764285Y-76517619D01*
X292840476Y-76479523D01*
X292916666Y-76479523D01*
X292992857Y-76517619D01*
X293030952Y-76555714D01*
X293069047Y-76631904D01*
X293107142Y-76784285D01*
X293145238Y-76860476D01*
X293183333Y-76898571D01*
X293259523Y-76936666D01*
X293335714Y-76936666D01*
X293411904Y-76898571D01*
X293450000Y-76860476D01*
X293488095Y-76784285D01*
X293488095Y-76593809D01*
X293450000Y-76479523D01*
X293221428Y-76250952D02*
X293221428Y-75946190D01*
X293488095Y-76136666D02*
X292802380Y-76136666D01*
X292726190Y-76098571D01*
X292688095Y-76022380D01*
X292688095Y-75946190D01*
X292688095Y-75679523D02*
X293221428Y-75679523D01*
X293069047Y-75679523D02*
X293145238Y-75641428D01*
X293183333Y-75603333D01*
X293221428Y-75527142D01*
X293221428Y-75450952D01*
X292688095Y-75184285D02*
X293221428Y-75184285D01*
X293488095Y-75184285D02*
X293450000Y-75222380D01*
X293411904Y-75184285D01*
X293450000Y-75146190D01*
X293488095Y-75184285D01*
X293411904Y-75184285D01*
X293221428Y-74803333D02*
X292421428Y-74803333D01*
X293183333Y-74803333D02*
X293221428Y-74727142D01*
X293221428Y-74574761D01*
X293183333Y-74498571D01*
X293145238Y-74460476D01*
X293069047Y-74422380D01*
X292840476Y-74422380D01*
X292764285Y-74460476D01*
X292726190Y-74498571D01*
X292688095Y-74574761D01*
X292688095Y-74727142D01*
X292726190Y-74803333D01*
%TO.C,R1*%
X23266666Y-24202380D02*
X23600000Y-23726190D01*
X23838095Y-24202380D02*
X23838095Y-23202380D01*
X23457142Y-23202380D01*
X23361904Y-23250000D01*
X23314285Y-23297619D01*
X23266666Y-23392857D01*
X23266666Y-23535714D01*
X23314285Y-23630952D01*
X23361904Y-23678571D01*
X23457142Y-23726190D01*
X23838095Y-23726190D01*
X22314285Y-24202380D02*
X22885714Y-24202380D01*
X22600000Y-24202380D02*
X22600000Y-23202380D01*
X22695238Y-23345238D01*
X22790476Y-23440476D01*
X22885714Y-23488095D01*
%TO.C,R4*%
X34566666Y-65402380D02*
X34900000Y-64926190D01*
X35138095Y-65402380D02*
X35138095Y-64402380D01*
X34757142Y-64402380D01*
X34661904Y-64450000D01*
X34614285Y-64497619D01*
X34566666Y-64592857D01*
X34566666Y-64735714D01*
X34614285Y-64830952D01*
X34661904Y-64878571D01*
X34757142Y-64926190D01*
X35138095Y-64926190D01*
X33709523Y-64735714D02*
X33709523Y-65402380D01*
X33947619Y-64354761D02*
X34185714Y-65069047D01*
X33566666Y-65069047D01*
%TO.C,R5*%
X25166666Y-17952380D02*
X25500000Y-17476190D01*
X25738095Y-17952380D02*
X25738095Y-16952380D01*
X25357142Y-16952380D01*
X25261904Y-17000000D01*
X25214285Y-17047619D01*
X25166666Y-17142857D01*
X25166666Y-17285714D01*
X25214285Y-17380952D01*
X25261904Y-17428571D01*
X25357142Y-17476190D01*
X25738095Y-17476190D01*
X24261904Y-16952380D02*
X24738095Y-16952380D01*
X24785714Y-17428571D01*
X24738095Y-17380952D01*
X24642857Y-17333333D01*
X24404761Y-17333333D01*
X24309523Y-17380952D01*
X24261904Y-17428571D01*
X24214285Y-17523809D01*
X24214285Y-17761904D01*
X24261904Y-17857142D01*
X24309523Y-17904761D01*
X24404761Y-17952380D01*
X24642857Y-17952380D01*
X24738095Y-17904761D01*
X24785714Y-17857142D01*
%TO.C,R6*%
X25166666Y-23302380D02*
X25500000Y-22826190D01*
X25738095Y-23302380D02*
X25738095Y-22302380D01*
X25357142Y-22302380D01*
X25261904Y-22350000D01*
X25214285Y-22397619D01*
X25166666Y-22492857D01*
X25166666Y-22635714D01*
X25214285Y-22730952D01*
X25261904Y-22778571D01*
X25357142Y-22826190D01*
X25738095Y-22826190D01*
X24309523Y-22302380D02*
X24500000Y-22302380D01*
X24595238Y-22350000D01*
X24642857Y-22397619D01*
X24738095Y-22540476D01*
X24785714Y-22730952D01*
X24785714Y-23111904D01*
X24738095Y-23207142D01*
X24690476Y-23254761D01*
X24595238Y-23302380D01*
X24404761Y-23302380D01*
X24309523Y-23254761D01*
X24261904Y-23207142D01*
X24214285Y-23111904D01*
X24214285Y-22873809D01*
X24261904Y-22778571D01*
X24309523Y-22730952D01*
X24404761Y-22683333D01*
X24595238Y-22683333D01*
X24690476Y-22730952D01*
X24738095Y-22778571D01*
X24785714Y-22873809D01*
%TO.C,R7*%
X37552380Y-28633333D02*
X37076190Y-28300000D01*
X37552380Y-28061904D02*
X36552380Y-28061904D01*
X36552380Y-28442857D01*
X36600000Y-28538095D01*
X36647619Y-28585714D01*
X36742857Y-28633333D01*
X36885714Y-28633333D01*
X36980952Y-28585714D01*
X37028571Y-28538095D01*
X37076190Y-28442857D01*
X37076190Y-28061904D01*
X36552380Y-28966666D02*
X36552380Y-29633333D01*
X37552380Y-29204761D01*
%TO.C,R8*%
X30652380Y-28633333D02*
X30176190Y-28300000D01*
X30652380Y-28061904D02*
X29652380Y-28061904D01*
X29652380Y-28442857D01*
X29700000Y-28538095D01*
X29747619Y-28585714D01*
X29842857Y-28633333D01*
X29985714Y-28633333D01*
X30080952Y-28585714D01*
X30128571Y-28538095D01*
X30176190Y-28442857D01*
X30176190Y-28061904D01*
X30080952Y-29204761D02*
X30033333Y-29109523D01*
X29985714Y-29061904D01*
X29890476Y-29014285D01*
X29842857Y-29014285D01*
X29747619Y-29061904D01*
X29700000Y-29109523D01*
X29652380Y-29204761D01*
X29652380Y-29395238D01*
X29700000Y-29490476D01*
X29747619Y-29538095D01*
X29842857Y-29585714D01*
X29890476Y-29585714D01*
X29985714Y-29538095D01*
X30033333Y-29490476D01*
X30080952Y-29395238D01*
X30080952Y-29204761D01*
X30128571Y-29109523D01*
X30176190Y-29061904D01*
X30271428Y-29014285D01*
X30461904Y-29014285D01*
X30557142Y-29061904D01*
X30604761Y-29109523D01*
X30652380Y-29204761D01*
X30652380Y-29395238D01*
X30604761Y-29490476D01*
X30557142Y-29538095D01*
X30461904Y-29585714D01*
X30271428Y-29585714D01*
X30176190Y-29538095D01*
X30128571Y-29490476D01*
X30080952Y-29395238D01*
%TO.C,R9*%
X62966666Y-103577380D02*
X63300000Y-103101190D01*
X63538095Y-103577380D02*
X63538095Y-102577380D01*
X63157142Y-102577380D01*
X63061904Y-102625000D01*
X63014285Y-102672619D01*
X62966666Y-102767857D01*
X62966666Y-102910714D01*
X63014285Y-103005952D01*
X63061904Y-103053571D01*
X63157142Y-103101190D01*
X63538095Y-103101190D01*
X62490476Y-103577380D02*
X62300000Y-103577380D01*
X62204761Y-103529761D01*
X62157142Y-103482142D01*
X62061904Y-103339285D01*
X62014285Y-103148809D01*
X62014285Y-102767857D01*
X62061904Y-102672619D01*
X62109523Y-102625000D01*
X62204761Y-102577380D01*
X62395238Y-102577380D01*
X62490476Y-102625000D01*
X62538095Y-102672619D01*
X62585714Y-102767857D01*
X62585714Y-103005952D01*
X62538095Y-103101190D01*
X62490476Y-103148809D01*
X62395238Y-103196428D01*
X62204761Y-103196428D01*
X62109523Y-103148809D01*
X62061904Y-103101190D01*
X62014285Y-103005952D01*
%TO.C,ResetSW1*%
X43861904Y-61752380D02*
X44195238Y-61276190D01*
X44433333Y-61752380D02*
X44433333Y-60752380D01*
X44052380Y-60752380D01*
X43957142Y-60800000D01*
X43909523Y-60847619D01*
X43861904Y-60942857D01*
X43861904Y-61085714D01*
X43909523Y-61180952D01*
X43957142Y-61228571D01*
X44052380Y-61276190D01*
X44433333Y-61276190D01*
X43052380Y-61704761D02*
X43147619Y-61752380D01*
X43338095Y-61752380D01*
X43433333Y-61704761D01*
X43480952Y-61609523D01*
X43480952Y-61228571D01*
X43433333Y-61133333D01*
X43338095Y-61085714D01*
X43147619Y-61085714D01*
X43052380Y-61133333D01*
X43004761Y-61228571D01*
X43004761Y-61323809D01*
X43480952Y-61419047D01*
X42623809Y-61704761D02*
X42528571Y-61752380D01*
X42338095Y-61752380D01*
X42242857Y-61704761D01*
X42195238Y-61609523D01*
X42195238Y-61561904D01*
X42242857Y-61466666D01*
X42338095Y-61419047D01*
X42480952Y-61419047D01*
X42576190Y-61371428D01*
X42623809Y-61276190D01*
X42623809Y-61228571D01*
X42576190Y-61133333D01*
X42480952Y-61085714D01*
X42338095Y-61085714D01*
X42242857Y-61133333D01*
X41385714Y-61704761D02*
X41480952Y-61752380D01*
X41671428Y-61752380D01*
X41766666Y-61704761D01*
X41814285Y-61609523D01*
X41814285Y-61228571D01*
X41766666Y-61133333D01*
X41671428Y-61085714D01*
X41480952Y-61085714D01*
X41385714Y-61133333D01*
X41338095Y-61228571D01*
X41338095Y-61323809D01*
X41814285Y-61419047D01*
X41052380Y-61085714D02*
X40671428Y-61085714D01*
X40909523Y-60752380D02*
X40909523Y-61609523D01*
X40861904Y-61704761D01*
X40766666Y-61752380D01*
X40671428Y-61752380D01*
X40385714Y-61704761D02*
X40242857Y-61752380D01*
X40004761Y-61752380D01*
X39909523Y-61704761D01*
X39861904Y-61657142D01*
X39814285Y-61561904D01*
X39814285Y-61466666D01*
X39861904Y-61371428D01*
X39909523Y-61323809D01*
X40004761Y-61276190D01*
X40195238Y-61228571D01*
X40290476Y-61180952D01*
X40338095Y-61133333D01*
X40385714Y-61038095D01*
X40385714Y-60942857D01*
X40338095Y-60847619D01*
X40290476Y-60800000D01*
X40195238Y-60752380D01*
X39957142Y-60752380D01*
X39814285Y-60800000D01*
X39480952Y-60752380D02*
X39242857Y-61752380D01*
X39052380Y-61038095D01*
X38861904Y-61752380D01*
X38623809Y-60752380D01*
X37719047Y-61752380D02*
X38290476Y-61752380D01*
X38004761Y-61752380D02*
X38004761Y-60752380D01*
X38100000Y-60895238D01*
X38195238Y-60990476D01*
X38290476Y-61038095D01*
%TO.C,J1*%
X33633333Y-23152380D02*
X33633333Y-23866666D01*
X33680952Y-24009523D01*
X33776190Y-24104761D01*
X33919047Y-24152380D01*
X34014285Y-24152380D01*
X32633333Y-24152380D02*
X33204761Y-24152380D01*
X32919047Y-24152380D02*
X32919047Y-23152380D01*
X33014285Y-23295238D01*
X33109523Y-23390476D01*
X33204761Y-23438095D01*
%TD*%
M02*
