%TF.GenerationSoftware,KiCad,Pcbnew,(5.1.9-0-10_14)*%
%TF.CreationDate,2021-01-10T14:58:04+09:00*%
%TF.ProjectId,Unison,556e6973-6f6e-42e6-9b69-6361645f7063,v01_1AU*%
%TF.SameCoordinates,Original*%
%TF.FileFunction,Soldermask,Bot*%
%TF.FilePolarity,Negative*%
%FSLAX46Y46*%
G04 Gerber Fmt 4.6, Leading zero omitted, Abs format (unit mm)*
G04 Created by KiCad (PCBNEW (5.1.9-0-10_14)) date 2021-01-10 14:58:04*
%MOMM*%
%LPD*%
G01*
G04 APERTURE LIST*
%ADD10C,1.500000*%
%ADD11O,2.000000X1.200000*%
%ADD12C,1.680000*%
%ADD13C,3.980000*%
%ADD14C,2.140000*%
%ADD15O,1.200000X2.000000*%
%ADD16R,1.400000X1.000000*%
%ADD17R,1.400000X1.200000*%
%ADD18C,0.100000*%
%ADD19R,0.820000X1.800000*%
%ADD20R,0.820000X1.600000*%
%ADD21R,0.620000X0.400000*%
%ADD22R,0.900000X1.200000*%
%ADD23C,1.000000*%
%ADD24C,5.000000*%
%ADD25O,7.000240X5.000000*%
%ADD26R,1.200000X0.900000*%
%ADD27R,1.500000X1.000000*%
%ADD28R,1.524000X1.524000*%
%ADD29C,1.397000*%
%ADD30R,1.800000X1.100000*%
%ADD31O,1.108000X2.216000*%
%ADD32C,0.650000*%
%ADD33O,1.900000X1.600000*%
%ADD34C,2.100000*%
%ADD35R,2.000000X2.000000*%
%ADD36C,2.000000*%
%ADD37R,3.200000X2.000000*%
G04 APERTURE END LIST*
D10*
%TO.C,REF\u002A\u002A*%
X300150000Y-71550000D02*
X296350000Y-71550000D01*
X300200000Y-75850000D02*
X296400000Y-75850000D01*
X15250000Y-75850000D02*
X19050000Y-75850000D01*
X15200000Y-71550000D02*
X19000000Y-71550000D01*
X294250000Y-73700000D02*
G75*
G03*
X296400000Y-75850000I2150000J0D01*
G01*
X294250000Y-73700000D02*
G75*
G02*
X296400000Y-71550000I2150000J0D01*
G01*
X21150000Y-73700000D02*
G75*
G02*
X19000000Y-75850000I-2150000J0D01*
G01*
X21150000Y-73700000D02*
G75*
G03*
X19000000Y-71550000I-2150000J0D01*
G01*
%TD*%
D11*
%TO.C,SW_89*%
X254690000Y-84660000D03*
X261140000Y-82120000D03*
D12*
X254000000Y-87200000D03*
X263000000Y-87200000D03*
D13*
X258500000Y-87200000D03*
D12*
X253420000Y-87200000D03*
X263580000Y-87200000D03*
%TD*%
D14*
%TO.C,*%
X298000000Y-109300000D03*
%TD*%
%TO.C,*%
X297700000Y-109300000D03*
%TD*%
%TO.C,*%
X297400000Y-109300000D03*
%TD*%
%TO.C,*%
X18000000Y-109300000D03*
%TD*%
%TO.C,*%
X17700000Y-109300000D03*
%TD*%
%TO.C,*%
X17400000Y-109300000D03*
%TD*%
%TO.C,*%
X17400000Y-27300000D03*
%TD*%
%TO.C,*%
X17700000Y-27300000D03*
%TD*%
%TO.C,*%
X18000000Y-27300000D03*
%TD*%
%TO.C,*%
X297400000Y-27300000D03*
%TD*%
%TO.C,*%
X297700000Y-27300000D03*
%TD*%
%TO.C,*%
X298000000Y-27300000D03*
%TD*%
D15*
%TO.C,SW_37_2*%
X92160000Y-58210000D03*
X89620000Y-51760000D03*
D12*
X94700000Y-58900000D03*
X94700000Y-49900000D03*
D13*
X94700000Y-54400000D03*
D12*
X94700000Y-59480000D03*
X94700000Y-49320000D03*
%TD*%
D14*
%TO.C,*%
X18000000Y-43500000D03*
%TD*%
%TO.C,*%
X17400000Y-43500000D03*
%TD*%
%TO.C,*%
X17700000Y-43500000D03*
%TD*%
%TO.C,*%
X18000000Y-19700000D03*
%TD*%
%TO.C,*%
X17400000Y-19700000D03*
%TD*%
%TO.C,*%
X17700000Y-19700000D03*
%TD*%
%TO.C,*%
X298000000Y-19700000D03*
%TD*%
%TO.C,*%
X297400000Y-19700000D03*
%TD*%
%TO.C,*%
X297700000Y-19700000D03*
%TD*%
%TO.C,*%
X297700000Y-43500000D03*
%TD*%
%TO.C,*%
X297400000Y-43500000D03*
%TD*%
%TO.C,*%
X297400000Y-23100000D03*
%TD*%
%TO.C,*%
X18000000Y-23100000D03*
%TD*%
%TO.C,*%
X207800000Y-23100000D03*
%TD*%
%TO.C,*%
X208100000Y-23100000D03*
%TD*%
%TO.C,*%
X208400000Y-23100000D03*
%TD*%
%TO.C,*%
X107000000Y-23100000D03*
%TD*%
%TO.C,*%
X107300000Y-23100000D03*
%TD*%
%TO.C,*%
X107600000Y-23100000D03*
%TD*%
%TO.C,*%
X298000000Y-43500000D03*
%TD*%
%TO.C,R7*%
G36*
G01*
X37900000Y-25649999D02*
X37900000Y-26550001D01*
G75*
G02*
X37650001Y-26800000I-249999J0D01*
G01*
X36949999Y-26800000D01*
G75*
G02*
X36700000Y-26550001I0J249999D01*
G01*
X36700000Y-25649999D01*
G75*
G02*
X36949999Y-25400000I249999J0D01*
G01*
X37650001Y-25400000D01*
G75*
G02*
X37900000Y-25649999I0J-249999D01*
G01*
G37*
G36*
G01*
X39900000Y-25649999D02*
X39900000Y-26550001D01*
G75*
G02*
X39650001Y-26800000I-249999J0D01*
G01*
X38949999Y-26800000D01*
G75*
G02*
X38700000Y-26550001I0J249999D01*
G01*
X38700000Y-25649999D01*
G75*
G02*
X38949999Y-25400000I249999J0D01*
G01*
X39650001Y-25400000D01*
G75*
G02*
X39900000Y-25649999I0J-249999D01*
G01*
G37*
%TD*%
D16*
%TO.C,D102*%
X35200000Y-27900000D03*
X35200000Y-26000000D03*
X33000000Y-26000000D03*
D17*
X33000000Y-27720000D03*
%TD*%
D11*
%TO.C,SW_43*%
X111890000Y-68260000D03*
X118340000Y-65720000D03*
D12*
X111200000Y-70800000D03*
X120200000Y-70800000D03*
D13*
X115700000Y-70800000D03*
D12*
X110620000Y-70800000D03*
X120780000Y-70800000D03*
%TD*%
%TO.C,C3*%
G36*
G01*
X111586827Y-42284924D02*
X110915076Y-41613173D01*
G75*
G02*
X110915076Y-41259619I176777J176777D01*
G01*
X111392373Y-40782322D01*
G75*
G02*
X111745927Y-40782322I176777J-176777D01*
G01*
X112417678Y-41454073D01*
G75*
G02*
X112417678Y-41807627I-176777J-176777D01*
G01*
X111940381Y-42284924D01*
G75*
G02*
X111586827Y-42284924I-176777J176777D01*
G01*
G37*
G36*
G01*
X113054073Y-40817678D02*
X112382322Y-40145927D01*
G75*
G02*
X112382322Y-39792373I176777J176777D01*
G01*
X112859619Y-39315076D01*
G75*
G02*
X113213173Y-39315076I176777J-176777D01*
G01*
X113884924Y-39986827D01*
G75*
G02*
X113884924Y-40340381I-176777J-176777D01*
G01*
X113407627Y-40817678D01*
G75*
G02*
X113054073Y-40817678I-176777J176777D01*
G01*
G37*
%TD*%
%TO.C,U1*%
G36*
G01*
X99451115Y-47761523D02*
X99804669Y-47407969D01*
G75*
G02*
X100087511Y-47407969I141421J-141421D01*
G01*
X101148171Y-48468629D01*
G75*
G02*
X101148171Y-48751471I-141421J-141421D01*
G01*
X100794617Y-49105025D01*
G75*
G02*
X100511775Y-49105025I-141421J141421D01*
G01*
X99451115Y-48044365D01*
G75*
G02*
X99451115Y-47761523I141421J141421D01*
G01*
G37*
G36*
G01*
X100016800Y-47195838D02*
X100370354Y-46842284D01*
G75*
G02*
X100653196Y-46842284I141421J-141421D01*
G01*
X101713856Y-47902944D01*
G75*
G02*
X101713856Y-48185786I-141421J-141421D01*
G01*
X101360302Y-48539340D01*
G75*
G02*
X101077460Y-48539340I-141421J141421D01*
G01*
X100016800Y-47478680D01*
G75*
G02*
X100016800Y-47195838I141421J141421D01*
G01*
G37*
G36*
G01*
X100582486Y-46630152D02*
X100936040Y-46276598D01*
G75*
G02*
X101218882Y-46276598I141421J-141421D01*
G01*
X102279542Y-47337258D01*
G75*
G02*
X102279542Y-47620100I-141421J-141421D01*
G01*
X101925988Y-47973654D01*
G75*
G02*
X101643146Y-47973654I-141421J141421D01*
G01*
X100582486Y-46912994D01*
G75*
G02*
X100582486Y-46630152I141421J141421D01*
G01*
G37*
G36*
G01*
X101148171Y-46064467D02*
X101501725Y-45710913D01*
G75*
G02*
X101784567Y-45710913I141421J-141421D01*
G01*
X102845227Y-46771573D01*
G75*
G02*
X102845227Y-47054415I-141421J-141421D01*
G01*
X102491673Y-47407969D01*
G75*
G02*
X102208831Y-47407969I-141421J141421D01*
G01*
X101148171Y-46347309D01*
G75*
G02*
X101148171Y-46064467I141421J141421D01*
G01*
G37*
G36*
G01*
X101713857Y-45498781D02*
X102067411Y-45145227D01*
G75*
G02*
X102350253Y-45145227I141421J-141421D01*
G01*
X103410913Y-46205887D01*
G75*
G02*
X103410913Y-46488729I-141421J-141421D01*
G01*
X103057359Y-46842283D01*
G75*
G02*
X102774517Y-46842283I-141421J141421D01*
G01*
X101713857Y-45781623D01*
G75*
G02*
X101713857Y-45498781I141421J141421D01*
G01*
G37*
G36*
G01*
X102279542Y-44933096D02*
X102633096Y-44579542D01*
G75*
G02*
X102915938Y-44579542I141421J-141421D01*
G01*
X103976598Y-45640202D01*
G75*
G02*
X103976598Y-45923044I-141421J-141421D01*
G01*
X103623044Y-46276598D01*
G75*
G02*
X103340202Y-46276598I-141421J141421D01*
G01*
X102279542Y-45215938D01*
G75*
G02*
X102279542Y-44933096I141421J141421D01*
G01*
G37*
G36*
G01*
X102845227Y-44367411D02*
X103198781Y-44013857D01*
G75*
G02*
X103481623Y-44013857I141421J-141421D01*
G01*
X104542283Y-45074517D01*
G75*
G02*
X104542283Y-45357359I-141421J-141421D01*
G01*
X104188729Y-45710913D01*
G75*
G02*
X103905887Y-45710913I-141421J141421D01*
G01*
X102845227Y-44650253D01*
G75*
G02*
X102845227Y-44367411I141421J141421D01*
G01*
G37*
G36*
G01*
X103410913Y-43801725D02*
X103764467Y-43448171D01*
G75*
G02*
X104047309Y-43448171I141421J-141421D01*
G01*
X105107969Y-44508831D01*
G75*
G02*
X105107969Y-44791673I-141421J-141421D01*
G01*
X104754415Y-45145227D01*
G75*
G02*
X104471573Y-45145227I-141421J141421D01*
G01*
X103410913Y-44084567D01*
G75*
G02*
X103410913Y-43801725I141421J141421D01*
G01*
G37*
G36*
G01*
X103976598Y-43236040D02*
X104330152Y-42882486D01*
G75*
G02*
X104612994Y-42882486I141421J-141421D01*
G01*
X105673654Y-43943146D01*
G75*
G02*
X105673654Y-44225988I-141421J-141421D01*
G01*
X105320100Y-44579542D01*
G75*
G02*
X105037258Y-44579542I-141421J141421D01*
G01*
X103976598Y-43518882D01*
G75*
G02*
X103976598Y-43236040I141421J141421D01*
G01*
G37*
G36*
G01*
X104542284Y-42670354D02*
X104895838Y-42316800D01*
G75*
G02*
X105178680Y-42316800I141421J-141421D01*
G01*
X106239340Y-43377460D01*
G75*
G02*
X106239340Y-43660302I-141421J-141421D01*
G01*
X105885786Y-44013856D01*
G75*
G02*
X105602944Y-44013856I-141421J141421D01*
G01*
X104542284Y-42953196D01*
G75*
G02*
X104542284Y-42670354I141421J141421D01*
G01*
G37*
G36*
G01*
X105107969Y-42104669D02*
X105461523Y-41751115D01*
G75*
G02*
X105744365Y-41751115I141421J-141421D01*
G01*
X106805025Y-42811775D01*
G75*
G02*
X106805025Y-43094617I-141421J-141421D01*
G01*
X106451471Y-43448171D01*
G75*
G02*
X106168629Y-43448171I-141421J141421D01*
G01*
X105107969Y-42387511D01*
G75*
G02*
X105107969Y-42104669I141421J141421D01*
G01*
G37*
G36*
G01*
X107794975Y-42811775D02*
X108855635Y-41751115D01*
G75*
G02*
X109138477Y-41751115I141421J-141421D01*
G01*
X109492031Y-42104669D01*
G75*
G02*
X109492031Y-42387511I-141421J-141421D01*
G01*
X108431371Y-43448171D01*
G75*
G02*
X108148529Y-43448171I-141421J141421D01*
G01*
X107794975Y-43094617D01*
G75*
G02*
X107794975Y-42811775I141421J141421D01*
G01*
G37*
G36*
G01*
X108360660Y-43377460D02*
X109421320Y-42316800D01*
G75*
G02*
X109704162Y-42316800I141421J-141421D01*
G01*
X110057716Y-42670354D01*
G75*
G02*
X110057716Y-42953196I-141421J-141421D01*
G01*
X108997056Y-44013856D01*
G75*
G02*
X108714214Y-44013856I-141421J141421D01*
G01*
X108360660Y-43660302D01*
G75*
G02*
X108360660Y-43377460I141421J141421D01*
G01*
G37*
G36*
G01*
X108926346Y-43943146D02*
X109987006Y-42882486D01*
G75*
G02*
X110269848Y-42882486I141421J-141421D01*
G01*
X110623402Y-43236040D01*
G75*
G02*
X110623402Y-43518882I-141421J-141421D01*
G01*
X109562742Y-44579542D01*
G75*
G02*
X109279900Y-44579542I-141421J141421D01*
G01*
X108926346Y-44225988D01*
G75*
G02*
X108926346Y-43943146I141421J141421D01*
G01*
G37*
G36*
G01*
X109492031Y-44508831D02*
X110552691Y-43448171D01*
G75*
G02*
X110835533Y-43448171I141421J-141421D01*
G01*
X111189087Y-43801725D01*
G75*
G02*
X111189087Y-44084567I-141421J-141421D01*
G01*
X110128427Y-45145227D01*
G75*
G02*
X109845585Y-45145227I-141421J141421D01*
G01*
X109492031Y-44791673D01*
G75*
G02*
X109492031Y-44508831I141421J141421D01*
G01*
G37*
G36*
G01*
X110057717Y-45074517D02*
X111118377Y-44013857D01*
G75*
G02*
X111401219Y-44013857I141421J-141421D01*
G01*
X111754773Y-44367411D01*
G75*
G02*
X111754773Y-44650253I-141421J-141421D01*
G01*
X110694113Y-45710913D01*
G75*
G02*
X110411271Y-45710913I-141421J141421D01*
G01*
X110057717Y-45357359D01*
G75*
G02*
X110057717Y-45074517I141421J141421D01*
G01*
G37*
G36*
G01*
X110623402Y-45640202D02*
X111684062Y-44579542D01*
G75*
G02*
X111966904Y-44579542I141421J-141421D01*
G01*
X112320458Y-44933096D01*
G75*
G02*
X112320458Y-45215938I-141421J-141421D01*
G01*
X111259798Y-46276598D01*
G75*
G02*
X110976956Y-46276598I-141421J141421D01*
G01*
X110623402Y-45923044D01*
G75*
G02*
X110623402Y-45640202I141421J141421D01*
G01*
G37*
G36*
G01*
X111189087Y-46205887D02*
X112249747Y-45145227D01*
G75*
G02*
X112532589Y-45145227I141421J-141421D01*
G01*
X112886143Y-45498781D01*
G75*
G02*
X112886143Y-45781623I-141421J-141421D01*
G01*
X111825483Y-46842283D01*
G75*
G02*
X111542641Y-46842283I-141421J141421D01*
G01*
X111189087Y-46488729D01*
G75*
G02*
X111189087Y-46205887I141421J141421D01*
G01*
G37*
G36*
G01*
X111754773Y-46771573D02*
X112815433Y-45710913D01*
G75*
G02*
X113098275Y-45710913I141421J-141421D01*
G01*
X113451829Y-46064467D01*
G75*
G02*
X113451829Y-46347309I-141421J-141421D01*
G01*
X112391169Y-47407969D01*
G75*
G02*
X112108327Y-47407969I-141421J141421D01*
G01*
X111754773Y-47054415D01*
G75*
G02*
X111754773Y-46771573I141421J141421D01*
G01*
G37*
G36*
G01*
X112320458Y-47337258D02*
X113381118Y-46276598D01*
G75*
G02*
X113663960Y-46276598I141421J-141421D01*
G01*
X114017514Y-46630152D01*
G75*
G02*
X114017514Y-46912994I-141421J-141421D01*
G01*
X112956854Y-47973654D01*
G75*
G02*
X112674012Y-47973654I-141421J141421D01*
G01*
X112320458Y-47620100D01*
G75*
G02*
X112320458Y-47337258I141421J141421D01*
G01*
G37*
G36*
G01*
X112886144Y-47902944D02*
X113946804Y-46842284D01*
G75*
G02*
X114229646Y-46842284I141421J-141421D01*
G01*
X114583200Y-47195838D01*
G75*
G02*
X114583200Y-47478680I-141421J-141421D01*
G01*
X113522540Y-48539340D01*
G75*
G02*
X113239698Y-48539340I-141421J141421D01*
G01*
X112886144Y-48185786D01*
G75*
G02*
X112886144Y-47902944I141421J141421D01*
G01*
G37*
G36*
G01*
X113451829Y-48468629D02*
X114512489Y-47407969D01*
G75*
G02*
X114795331Y-47407969I141421J-141421D01*
G01*
X115148885Y-47761523D01*
G75*
G02*
X115148885Y-48044365I-141421J-141421D01*
G01*
X114088225Y-49105025D01*
G75*
G02*
X113805383Y-49105025I-141421J141421D01*
G01*
X113451829Y-48751471D01*
G75*
G02*
X113451829Y-48468629I141421J141421D01*
G01*
G37*
G36*
G01*
X113451829Y-50448529D02*
X113805383Y-50094975D01*
G75*
G02*
X114088225Y-50094975I141421J-141421D01*
G01*
X115148885Y-51155635D01*
G75*
G02*
X115148885Y-51438477I-141421J-141421D01*
G01*
X114795331Y-51792031D01*
G75*
G02*
X114512489Y-51792031I-141421J141421D01*
G01*
X113451829Y-50731371D01*
G75*
G02*
X113451829Y-50448529I141421J141421D01*
G01*
G37*
G36*
G01*
X112886144Y-51014214D02*
X113239698Y-50660660D01*
G75*
G02*
X113522540Y-50660660I141421J-141421D01*
G01*
X114583200Y-51721320D01*
G75*
G02*
X114583200Y-52004162I-141421J-141421D01*
G01*
X114229646Y-52357716D01*
G75*
G02*
X113946804Y-52357716I-141421J141421D01*
G01*
X112886144Y-51297056D01*
G75*
G02*
X112886144Y-51014214I141421J141421D01*
G01*
G37*
G36*
G01*
X112320458Y-51579900D02*
X112674012Y-51226346D01*
G75*
G02*
X112956854Y-51226346I141421J-141421D01*
G01*
X114017514Y-52287006D01*
G75*
G02*
X114017514Y-52569848I-141421J-141421D01*
G01*
X113663960Y-52923402D01*
G75*
G02*
X113381118Y-52923402I-141421J141421D01*
G01*
X112320458Y-51862742D01*
G75*
G02*
X112320458Y-51579900I141421J141421D01*
G01*
G37*
G36*
G01*
X111754773Y-52145585D02*
X112108327Y-51792031D01*
G75*
G02*
X112391169Y-51792031I141421J-141421D01*
G01*
X113451829Y-52852691D01*
G75*
G02*
X113451829Y-53135533I-141421J-141421D01*
G01*
X113098275Y-53489087D01*
G75*
G02*
X112815433Y-53489087I-141421J141421D01*
G01*
X111754773Y-52428427D01*
G75*
G02*
X111754773Y-52145585I141421J141421D01*
G01*
G37*
G36*
G01*
X111189087Y-52711271D02*
X111542641Y-52357717D01*
G75*
G02*
X111825483Y-52357717I141421J-141421D01*
G01*
X112886143Y-53418377D01*
G75*
G02*
X112886143Y-53701219I-141421J-141421D01*
G01*
X112532589Y-54054773D01*
G75*
G02*
X112249747Y-54054773I-141421J141421D01*
G01*
X111189087Y-52994113D01*
G75*
G02*
X111189087Y-52711271I141421J141421D01*
G01*
G37*
G36*
G01*
X110623402Y-53276956D02*
X110976956Y-52923402D01*
G75*
G02*
X111259798Y-52923402I141421J-141421D01*
G01*
X112320458Y-53984062D01*
G75*
G02*
X112320458Y-54266904I-141421J-141421D01*
G01*
X111966904Y-54620458D01*
G75*
G02*
X111684062Y-54620458I-141421J141421D01*
G01*
X110623402Y-53559798D01*
G75*
G02*
X110623402Y-53276956I141421J141421D01*
G01*
G37*
G36*
G01*
X110057717Y-53842641D02*
X110411271Y-53489087D01*
G75*
G02*
X110694113Y-53489087I141421J-141421D01*
G01*
X111754773Y-54549747D01*
G75*
G02*
X111754773Y-54832589I-141421J-141421D01*
G01*
X111401219Y-55186143D01*
G75*
G02*
X111118377Y-55186143I-141421J141421D01*
G01*
X110057717Y-54125483D01*
G75*
G02*
X110057717Y-53842641I141421J141421D01*
G01*
G37*
G36*
G01*
X109492031Y-54408327D02*
X109845585Y-54054773D01*
G75*
G02*
X110128427Y-54054773I141421J-141421D01*
G01*
X111189087Y-55115433D01*
G75*
G02*
X111189087Y-55398275I-141421J-141421D01*
G01*
X110835533Y-55751829D01*
G75*
G02*
X110552691Y-55751829I-141421J141421D01*
G01*
X109492031Y-54691169D01*
G75*
G02*
X109492031Y-54408327I141421J141421D01*
G01*
G37*
G36*
G01*
X108926346Y-54974012D02*
X109279900Y-54620458D01*
G75*
G02*
X109562742Y-54620458I141421J-141421D01*
G01*
X110623402Y-55681118D01*
G75*
G02*
X110623402Y-55963960I-141421J-141421D01*
G01*
X110269848Y-56317514D01*
G75*
G02*
X109987006Y-56317514I-141421J141421D01*
G01*
X108926346Y-55256854D01*
G75*
G02*
X108926346Y-54974012I141421J141421D01*
G01*
G37*
G36*
G01*
X108360660Y-55539698D02*
X108714214Y-55186144D01*
G75*
G02*
X108997056Y-55186144I141421J-141421D01*
G01*
X110057716Y-56246804D01*
G75*
G02*
X110057716Y-56529646I-141421J-141421D01*
G01*
X109704162Y-56883200D01*
G75*
G02*
X109421320Y-56883200I-141421J141421D01*
G01*
X108360660Y-55822540D01*
G75*
G02*
X108360660Y-55539698I141421J141421D01*
G01*
G37*
G36*
G01*
X107794975Y-56105383D02*
X108148529Y-55751829D01*
G75*
G02*
X108431371Y-55751829I141421J-141421D01*
G01*
X109492031Y-56812489D01*
G75*
G02*
X109492031Y-57095331I-141421J-141421D01*
G01*
X109138477Y-57448885D01*
G75*
G02*
X108855635Y-57448885I-141421J141421D01*
G01*
X107794975Y-56388225D01*
G75*
G02*
X107794975Y-56105383I141421J141421D01*
G01*
G37*
G36*
G01*
X105107969Y-56812489D02*
X106168629Y-55751829D01*
G75*
G02*
X106451471Y-55751829I141421J-141421D01*
G01*
X106805025Y-56105383D01*
G75*
G02*
X106805025Y-56388225I-141421J-141421D01*
G01*
X105744365Y-57448885D01*
G75*
G02*
X105461523Y-57448885I-141421J141421D01*
G01*
X105107969Y-57095331D01*
G75*
G02*
X105107969Y-56812489I141421J141421D01*
G01*
G37*
G36*
G01*
X104542284Y-56246804D02*
X105602944Y-55186144D01*
G75*
G02*
X105885786Y-55186144I141421J-141421D01*
G01*
X106239340Y-55539698D01*
G75*
G02*
X106239340Y-55822540I-141421J-141421D01*
G01*
X105178680Y-56883200D01*
G75*
G02*
X104895838Y-56883200I-141421J141421D01*
G01*
X104542284Y-56529646D01*
G75*
G02*
X104542284Y-56246804I141421J141421D01*
G01*
G37*
G36*
G01*
X103976598Y-55681118D02*
X105037258Y-54620458D01*
G75*
G02*
X105320100Y-54620458I141421J-141421D01*
G01*
X105673654Y-54974012D01*
G75*
G02*
X105673654Y-55256854I-141421J-141421D01*
G01*
X104612994Y-56317514D01*
G75*
G02*
X104330152Y-56317514I-141421J141421D01*
G01*
X103976598Y-55963960D01*
G75*
G02*
X103976598Y-55681118I141421J141421D01*
G01*
G37*
G36*
G01*
X103410913Y-55115433D02*
X104471573Y-54054773D01*
G75*
G02*
X104754415Y-54054773I141421J-141421D01*
G01*
X105107969Y-54408327D01*
G75*
G02*
X105107969Y-54691169I-141421J-141421D01*
G01*
X104047309Y-55751829D01*
G75*
G02*
X103764467Y-55751829I-141421J141421D01*
G01*
X103410913Y-55398275D01*
G75*
G02*
X103410913Y-55115433I141421J141421D01*
G01*
G37*
G36*
G01*
X102845227Y-54549747D02*
X103905887Y-53489087D01*
G75*
G02*
X104188729Y-53489087I141421J-141421D01*
G01*
X104542283Y-53842641D01*
G75*
G02*
X104542283Y-54125483I-141421J-141421D01*
G01*
X103481623Y-55186143D01*
G75*
G02*
X103198781Y-55186143I-141421J141421D01*
G01*
X102845227Y-54832589D01*
G75*
G02*
X102845227Y-54549747I141421J141421D01*
G01*
G37*
G36*
G01*
X102279542Y-53984062D02*
X103340202Y-52923402D01*
G75*
G02*
X103623044Y-52923402I141421J-141421D01*
G01*
X103976598Y-53276956D01*
G75*
G02*
X103976598Y-53559798I-141421J-141421D01*
G01*
X102915938Y-54620458D01*
G75*
G02*
X102633096Y-54620458I-141421J141421D01*
G01*
X102279542Y-54266904D01*
G75*
G02*
X102279542Y-53984062I141421J141421D01*
G01*
G37*
G36*
G01*
X101713857Y-53418377D02*
X102774517Y-52357717D01*
G75*
G02*
X103057359Y-52357717I141421J-141421D01*
G01*
X103410913Y-52711271D01*
G75*
G02*
X103410913Y-52994113I-141421J-141421D01*
G01*
X102350253Y-54054773D01*
G75*
G02*
X102067411Y-54054773I-141421J141421D01*
G01*
X101713857Y-53701219D01*
G75*
G02*
X101713857Y-53418377I141421J141421D01*
G01*
G37*
G36*
G01*
X101148171Y-52852691D02*
X102208831Y-51792031D01*
G75*
G02*
X102491673Y-51792031I141421J-141421D01*
G01*
X102845227Y-52145585D01*
G75*
G02*
X102845227Y-52428427I-141421J-141421D01*
G01*
X101784567Y-53489087D01*
G75*
G02*
X101501725Y-53489087I-141421J141421D01*
G01*
X101148171Y-53135533D01*
G75*
G02*
X101148171Y-52852691I141421J141421D01*
G01*
G37*
G36*
G01*
X100582486Y-52287006D02*
X101643146Y-51226346D01*
G75*
G02*
X101925988Y-51226346I141421J-141421D01*
G01*
X102279542Y-51579900D01*
G75*
G02*
X102279542Y-51862742I-141421J-141421D01*
G01*
X101218882Y-52923402D01*
G75*
G02*
X100936040Y-52923402I-141421J141421D01*
G01*
X100582486Y-52569848D01*
G75*
G02*
X100582486Y-52287006I141421J141421D01*
G01*
G37*
G36*
G01*
X100016800Y-51721320D02*
X101077460Y-50660660D01*
G75*
G02*
X101360302Y-50660660I141421J-141421D01*
G01*
X101713856Y-51014214D01*
G75*
G02*
X101713856Y-51297056I-141421J-141421D01*
G01*
X100653196Y-52357716D01*
G75*
G02*
X100370354Y-52357716I-141421J141421D01*
G01*
X100016800Y-52004162D01*
G75*
G02*
X100016800Y-51721320I141421J141421D01*
G01*
G37*
G36*
G01*
X99451115Y-51155635D02*
X100511775Y-50094975D01*
G75*
G02*
X100794617Y-50094975I141421J-141421D01*
G01*
X101148171Y-50448529D01*
G75*
G02*
X101148171Y-50731371I-141421J-141421D01*
G01*
X100087511Y-51792031D01*
G75*
G02*
X99804669Y-51792031I-141421J141421D01*
G01*
X99451115Y-51438477D01*
G75*
G02*
X99451115Y-51155635I141421J141421D01*
G01*
G37*
%TD*%
D11*
%TO.C,SW_10_2*%
X27890000Y-101060000D03*
X34340000Y-98520000D03*
D12*
X27200000Y-103600000D03*
X36200000Y-103600000D03*
D13*
X31700000Y-103600000D03*
D12*
X26620000Y-103600000D03*
X36780000Y-103600000D03*
%TD*%
D11*
%TO.C,SW_12_1*%
X36290000Y-51860000D03*
X42740000Y-49320000D03*
D12*
X35600000Y-54400000D03*
X44600000Y-54400000D03*
D13*
X40100000Y-54400000D03*
D12*
X35020000Y-54400000D03*
X45180000Y-54400000D03*
%TD*%
D18*
%TO.C,Y1*%
G36*
X118817336Y-43718198D02*
G01*
X117544544Y-44990990D01*
X116059620Y-43506066D01*
X117332412Y-42233274D01*
X118817336Y-43718198D01*
G37*
G36*
X116766726Y-41667588D02*
G01*
X115493934Y-42940380D01*
X114009010Y-41455456D01*
X115281802Y-40182664D01*
X116766726Y-41667588D01*
G37*
G36*
X115140380Y-43293934D02*
G01*
X113867588Y-44566726D01*
X112382664Y-43081802D01*
X113655456Y-41809010D01*
X115140380Y-43293934D01*
G37*
G36*
X117190990Y-45344544D02*
G01*
X115918198Y-46617336D01*
X114433274Y-45132412D01*
X115706066Y-43859620D01*
X117190990Y-45344544D01*
G37*
%TD*%
D14*
%TO.C,*%
X298000000Y-23100000D03*
%TD*%
%TO.C,*%
X17700000Y-23100000D03*
%TD*%
%TO.C,*%
X297700000Y-23100000D03*
%TD*%
D11*
%TO.C,SW_25_2*%
X69890000Y-92860000D03*
X76340000Y-90320000D03*
D12*
X69200000Y-95400000D03*
X78200000Y-95400000D03*
D13*
X73700000Y-95400000D03*
D12*
X68620000Y-95400000D03*
X78780000Y-95400000D03*
%TD*%
D11*
%TO.C,SW_19_2*%
X27890000Y-84660000D03*
X34340000Y-82120000D03*
D12*
X27200000Y-87200000D03*
X36200000Y-87200000D03*
D13*
X31700000Y-87200000D03*
D12*
X26620000Y-87200000D03*
X36780000Y-87200000D03*
%TD*%
D11*
%TO.C,SW_39_2*%
X95090000Y-84660000D03*
X101540000Y-82120000D03*
D12*
X94400000Y-87200000D03*
X103400000Y-87200000D03*
D13*
X98900000Y-87200000D03*
D12*
X93820000Y-87200000D03*
X103980000Y-87200000D03*
%TD*%
%TO.C,SW_17_2*%
X32580000Y-54400000D03*
X22420000Y-54400000D03*
D13*
X27500000Y-54400000D03*
D12*
X32000000Y-54400000D03*
X23000000Y-54400000D03*
D11*
X30140000Y-49320000D03*
X23690000Y-51860000D03*
%TD*%
D12*
%TO.C,SW_18_2*%
X32580000Y-70800000D03*
X22420000Y-70800000D03*
D13*
X27500000Y-70800000D03*
D12*
X32000000Y-70800000D03*
X23000000Y-70800000D03*
D11*
X30140000Y-65720000D03*
X23690000Y-68260000D03*
%TD*%
D12*
%TO.C,SW_38_2*%
X99780000Y-70800000D03*
X89620000Y-70800000D03*
D13*
X94700000Y-70800000D03*
D12*
X99200000Y-70800000D03*
X90200000Y-70800000D03*
D11*
X97340000Y-65720000D03*
X90890000Y-68260000D03*
%TD*%
D12*
%TO.C,SW_7_2*%
X292980000Y-54400000D03*
X282820000Y-54400000D03*
D13*
X287900000Y-54400000D03*
D12*
X292400000Y-54400000D03*
X283400000Y-54400000D03*
D11*
X290540000Y-49320000D03*
X284090000Y-51860000D03*
%TD*%
D12*
%TO.C,SW_8_2*%
X292980000Y-70800000D03*
X282820000Y-70800000D03*
D13*
X287900000Y-70800000D03*
D12*
X292400000Y-70800000D03*
X283400000Y-70800000D03*
D11*
X290540000Y-65720000D03*
X284090000Y-68260000D03*
%TD*%
%TO.C,SW_21*%
X36290000Y-35460000D03*
X42740000Y-32920000D03*
D12*
X35600000Y-38000000D03*
X44600000Y-38000000D03*
D13*
X40100000Y-38000000D03*
D12*
X35020000Y-38000000D03*
X45180000Y-38000000D03*
%TD*%
D19*
%TO.C,L7*%
X231250000Y-20600000D03*
X232750000Y-25600000D03*
X231250000Y-25600000D03*
D18*
G36*
X232960000Y-19700001D02*
G01*
X233159999Y-19900000D01*
X232960000Y-20099999D01*
X232760001Y-19900000D01*
X232960000Y-19700001D01*
G37*
D20*
X232750000Y-20700000D03*
D21*
X232650000Y-19900000D03*
%TD*%
D11*
%TO.C,SW_26*%
X53090000Y-35460000D03*
X59540000Y-32920000D03*
D12*
X52400000Y-38000000D03*
X61400000Y-38000000D03*
D13*
X56900000Y-38000000D03*
D12*
X51820000Y-38000000D03*
X61980000Y-38000000D03*
%TD*%
D22*
%TO.C,D94*%
X281250000Y-95800000D03*
X284550000Y-95800000D03*
%TD*%
D14*
%TO.C,*%
X17400000Y-23100000D03*
%TD*%
D23*
%TO.C,REF\u002A\u002A*%
X298442035Y-71500000D03*
X298450000Y-75850000D03*
X294850000Y-75200000D03*
X296400000Y-71500000D03*
X296400000Y-75850000D03*
X294250000Y-73700000D03*
X294850000Y-72200000D03*
X20550000Y-75200000D03*
D24*
X40400000Y-45100000D03*
D25*
X143400000Y-64200000D03*
X205700000Y-102400000D03*
X275250000Y-45100000D03*
D23*
X40400000Y-43200000D03*
X38500000Y-45100000D03*
X42300000Y-45100000D03*
X40400000Y-47000000D03*
X39050000Y-43750000D03*
X41650000Y-43750000D03*
X39050000Y-46400000D03*
X41650000Y-46450000D03*
X275250000Y-43250000D03*
X275250000Y-46950000D03*
X276450000Y-46950000D03*
X274050000Y-46950000D03*
X274050000Y-43250000D03*
X276450000Y-43233000D03*
X205750000Y-100550000D03*
X205700000Y-104250000D03*
X206950000Y-100550000D03*
X204550000Y-100550000D03*
X204500000Y-104250000D03*
X206900000Y-104250000D03*
X143400000Y-62350000D03*
X144600000Y-62350000D03*
X142200000Y-62350000D03*
X143400000Y-66100000D03*
X142200000Y-66100000D03*
X144600000Y-66100000D03*
X21150000Y-73700000D03*
X19000000Y-71550000D03*
X19000000Y-75900000D03*
X20550000Y-72200000D03*
X16950000Y-71550000D03*
X16957965Y-75900000D03*
%TD*%
%TO.C,C1*%
G36*
G01*
X120025000Y-50050000D02*
X120975000Y-50050000D01*
G75*
G02*
X121225000Y-50300000I0J-250000D01*
G01*
X121225000Y-50975000D01*
G75*
G02*
X120975000Y-51225000I-250000J0D01*
G01*
X120025000Y-51225000D01*
G75*
G02*
X119775000Y-50975000I0J250000D01*
G01*
X119775000Y-50300000D01*
G75*
G02*
X120025000Y-50050000I250000J0D01*
G01*
G37*
G36*
G01*
X120025000Y-47975000D02*
X120975000Y-47975000D01*
G75*
G02*
X121225000Y-48225000I0J-250000D01*
G01*
X121225000Y-48900000D01*
G75*
G02*
X120975000Y-49150000I-250000J0D01*
G01*
X120025000Y-49150000D01*
G75*
G02*
X119775000Y-48900000I0J250000D01*
G01*
X119775000Y-48225000D01*
G75*
G02*
X120025000Y-47975000I250000J0D01*
G01*
G37*
%TD*%
%TO.C,C2*%
G36*
G01*
X119154073Y-46317678D02*
X118482322Y-45645927D01*
G75*
G02*
X118482322Y-45292373I176777J176777D01*
G01*
X118959619Y-44815076D01*
G75*
G02*
X119313173Y-44815076I176777J-176777D01*
G01*
X119984924Y-45486827D01*
G75*
G02*
X119984924Y-45840381I-176777J-176777D01*
G01*
X119507627Y-46317678D01*
G75*
G02*
X119154073Y-46317678I-176777J176777D01*
G01*
G37*
G36*
G01*
X117686827Y-47784924D02*
X117015076Y-47113173D01*
G75*
G02*
X117015076Y-46759619I176777J176777D01*
G01*
X117492373Y-46282322D01*
G75*
G02*
X117845927Y-46282322I176777J-176777D01*
G01*
X118517678Y-46954073D01*
G75*
G02*
X118517678Y-47307627I-176777J-176777D01*
G01*
X118040381Y-47784924D01*
G75*
G02*
X117686827Y-47784924I-176777J176777D01*
G01*
G37*
%TD*%
%TO.C,C4*%
G36*
G01*
X106082322Y-60454073D02*
X106754073Y-59782322D01*
G75*
G02*
X107107627Y-59782322I176777J-176777D01*
G01*
X107584924Y-60259619D01*
G75*
G02*
X107584924Y-60613173I-176777J-176777D01*
G01*
X106913173Y-61284924D01*
G75*
G02*
X106559619Y-61284924I-176777J176777D01*
G01*
X106082322Y-60807627D01*
G75*
G02*
X106082322Y-60454073I176777J176777D01*
G01*
G37*
G36*
G01*
X104615076Y-58986827D02*
X105286827Y-58315076D01*
G75*
G02*
X105640381Y-58315076I176777J-176777D01*
G01*
X106117678Y-58792373D01*
G75*
G02*
X106117678Y-59145927I-176777J-176777D01*
G01*
X105445927Y-59817678D01*
G75*
G02*
X105092373Y-59817678I-176777J176777D01*
G01*
X104615076Y-59340381D01*
G75*
G02*
X104615076Y-58986827I176777J176777D01*
G01*
G37*
%TD*%
%TO.C,C5*%
G36*
G01*
X101954073Y-42917678D02*
X101282322Y-42245927D01*
G75*
G02*
X101282322Y-41892373I176777J176777D01*
G01*
X101759619Y-41415076D01*
G75*
G02*
X102113173Y-41415076I176777J-176777D01*
G01*
X102784924Y-42086827D01*
G75*
G02*
X102784924Y-42440381I-176777J-176777D01*
G01*
X102307627Y-42917678D01*
G75*
G02*
X101954073Y-42917678I-176777J176777D01*
G01*
G37*
G36*
G01*
X100486827Y-44384924D02*
X99815076Y-43713173D01*
G75*
G02*
X99815076Y-43359619I176777J176777D01*
G01*
X100292373Y-42882322D01*
G75*
G02*
X100645927Y-42882322I176777J-176777D01*
G01*
X101317678Y-43554073D01*
G75*
G02*
X101317678Y-43907627I-176777J-176777D01*
G01*
X100840381Y-44384924D01*
G75*
G02*
X100486827Y-44384924I-176777J176777D01*
G01*
G37*
%TD*%
%TO.C,C6*%
G36*
G01*
X99145927Y-41382322D02*
X99817678Y-42054073D01*
G75*
G02*
X99817678Y-42407627I-176777J-176777D01*
G01*
X99340381Y-42884924D01*
G75*
G02*
X98986827Y-42884924I-176777J176777D01*
G01*
X98315076Y-42213173D01*
G75*
G02*
X98315076Y-41859619I176777J176777D01*
G01*
X98792373Y-41382322D01*
G75*
G02*
X99145927Y-41382322I176777J-176777D01*
G01*
G37*
G36*
G01*
X100613173Y-39915076D02*
X101284924Y-40586827D01*
G75*
G02*
X101284924Y-40940381I-176777J-176777D01*
G01*
X100807627Y-41417678D01*
G75*
G02*
X100454073Y-41417678I-176777J176777D01*
G01*
X99782322Y-40745927D01*
G75*
G02*
X99782322Y-40392373I176777J176777D01*
G01*
X100259619Y-39915076D01*
G75*
G02*
X100613173Y-39915076I176777J-176777D01*
G01*
G37*
%TD*%
%TO.C,C7*%
G36*
G01*
X97275000Y-50150000D02*
X96325000Y-50150000D01*
G75*
G02*
X96075000Y-49900000I0J250000D01*
G01*
X96075000Y-49225000D01*
G75*
G02*
X96325000Y-48975000I250000J0D01*
G01*
X97275000Y-48975000D01*
G75*
G02*
X97525000Y-49225000I0J-250000D01*
G01*
X97525000Y-49900000D01*
G75*
G02*
X97275000Y-50150000I-250000J0D01*
G01*
G37*
G36*
G01*
X97275000Y-52225000D02*
X96325000Y-52225000D01*
G75*
G02*
X96075000Y-51975000I0J250000D01*
G01*
X96075000Y-51300000D01*
G75*
G02*
X96325000Y-51050000I250000J0D01*
G01*
X97275000Y-51050000D01*
G75*
G02*
X97525000Y-51300000I0J-250000D01*
G01*
X97525000Y-51975000D01*
G75*
G02*
X97275000Y-52225000I-250000J0D01*
G01*
G37*
%TD*%
D22*
%TO.C,D1*%
X23350000Y-30200000D03*
X20050000Y-30200000D03*
%TD*%
D26*
%TO.C,D2*%
X21000000Y-19350000D03*
X21000000Y-22650000D03*
%TD*%
D22*
%TO.C,D3*%
X23350000Y-33000000D03*
X20050000Y-33000000D03*
%TD*%
%TO.C,D4*%
X23150000Y-49400000D03*
X19850000Y-49400000D03*
%TD*%
%TO.C,D5*%
X23150000Y-65800000D03*
X19850000Y-65800000D03*
%TD*%
%TO.C,D6*%
X22950000Y-82200000D03*
X19650000Y-82200000D03*
%TD*%
%TO.C,D7*%
X23150000Y-98600000D03*
X19850000Y-98600000D03*
%TD*%
%TO.C,D9*%
X39950000Y-33000000D03*
X36650000Y-33000000D03*
%TD*%
%TO.C,D10*%
X38950000Y-49400000D03*
X35650000Y-49400000D03*
%TD*%
%TO.C,D11*%
X35750000Y-65800000D03*
X32450000Y-65800000D03*
%TD*%
%TO.C,D12*%
X40150000Y-82200000D03*
X36850000Y-82200000D03*
%TD*%
%TO.C,D13*%
X40150000Y-98600000D03*
X36850000Y-98600000D03*
%TD*%
%TO.C,D14*%
X65350000Y-46600000D03*
X62050000Y-46600000D03*
%TD*%
%TO.C,D15*%
X55550000Y-33600000D03*
X52250000Y-33600000D03*
%TD*%
%TO.C,D16*%
X65350000Y-49400000D03*
X62050000Y-49400000D03*
%TD*%
%TO.C,D17*%
X56750000Y-65800000D03*
X53450000Y-65800000D03*
%TD*%
%TO.C,D18*%
X56750000Y-82200000D03*
X53450000Y-82200000D03*
%TD*%
%TO.C,D19*%
X56750000Y-98600000D03*
X53450000Y-98600000D03*
%TD*%
%TO.C,D20*%
X73550000Y-33000000D03*
X70250000Y-33000000D03*
%TD*%
%TO.C,D21*%
X73750000Y-49400000D03*
X70450000Y-49400000D03*
%TD*%
%TO.C,D22*%
X73750000Y-65800000D03*
X70450000Y-65800000D03*
%TD*%
%TO.C,D23*%
X73350000Y-82200000D03*
X70050000Y-82200000D03*
%TD*%
%TO.C,D24*%
X72550000Y-98900000D03*
X69250000Y-98900000D03*
%TD*%
%TO.C,D25*%
X73750000Y-63000000D03*
X70450000Y-63000000D03*
%TD*%
%TO.C,D26*%
X90550000Y-26400000D03*
X87250000Y-26400000D03*
%TD*%
%TO.C,D27*%
X91150000Y-49400000D03*
X87850000Y-49400000D03*
%TD*%
%TO.C,D28*%
X94350000Y-65800000D03*
X91050000Y-65800000D03*
%TD*%
%TO.C,D29*%
X90150000Y-82200000D03*
X86850000Y-82200000D03*
%TD*%
%TO.C,D30*%
X86450000Y-98600000D03*
X83150000Y-98600000D03*
%TD*%
%TO.C,D31*%
X107350000Y-26600000D03*
X104050000Y-26600000D03*
%TD*%
%TO.C,D32*%
X127150000Y-49400000D03*
X123850000Y-49400000D03*
%TD*%
%TO.C,D33*%
X115350000Y-65800000D03*
X112050000Y-65800000D03*
%TD*%
%TO.C,D34*%
X107350000Y-82200000D03*
X104050000Y-82200000D03*
%TD*%
%TO.C,D35*%
X106950000Y-98600000D03*
X103650000Y-98600000D03*
%TD*%
%TO.C,D36*%
X123350000Y-79400000D03*
X120050000Y-79400000D03*
%TD*%
%TO.C,D37*%
X123950000Y-26600000D03*
X120650000Y-26600000D03*
%TD*%
%TO.C,D38*%
X132550000Y-49400000D03*
X129250000Y-49400000D03*
%TD*%
%TO.C,D39*%
X132150000Y-65800000D03*
X128850000Y-65800000D03*
%TD*%
%TO.C,D40*%
X123350000Y-82200000D03*
X120050000Y-82200000D03*
%TD*%
%TO.C,D41*%
X124150000Y-98600000D03*
X120850000Y-98600000D03*
%TD*%
%TO.C,D42*%
X140750000Y-26600000D03*
X137450000Y-26600000D03*
%TD*%
%TO.C,D43*%
X149150000Y-49400000D03*
X145850000Y-49400000D03*
%TD*%
%TO.C,D44*%
X157950000Y-65800000D03*
X154650000Y-65800000D03*
%TD*%
%TO.C,D45*%
X140550000Y-82200000D03*
X137250000Y-82200000D03*
%TD*%
%TO.C,D46*%
X136350000Y-98600000D03*
X133050000Y-98600000D03*
%TD*%
%TO.C,D47*%
X157750000Y-96000000D03*
X154450000Y-96000000D03*
%TD*%
%TO.C,D48*%
X157550000Y-33000000D03*
X154250000Y-33000000D03*
%TD*%
%TO.C,D49*%
X165950000Y-49400000D03*
X162650000Y-49400000D03*
%TD*%
%TO.C,D50*%
X165750000Y-65800000D03*
X162450000Y-65800000D03*
%TD*%
%TO.C,D51*%
X157350000Y-82200000D03*
X154050000Y-82200000D03*
%TD*%
%TO.C,D52*%
X157750000Y-98600000D03*
X154450000Y-98600000D03*
%TD*%
%TO.C,D54*%
X173250000Y-33400000D03*
X169950000Y-33400000D03*
%TD*%
%TO.C,D55*%
X182750000Y-49400000D03*
X179450000Y-49400000D03*
%TD*%
%TO.C,D56*%
X182750000Y-65800000D03*
X179450000Y-65800000D03*
%TD*%
%TO.C,D57*%
X174350000Y-82200000D03*
X171050000Y-82200000D03*
%TD*%
%TO.C,D58*%
X169950000Y-98600000D03*
X166650000Y-98600000D03*
%TD*%
%TO.C,D59*%
X191150000Y-30200000D03*
X187850000Y-30200000D03*
%TD*%
%TO.C,D60*%
X191150000Y-33000000D03*
X187850000Y-33000000D03*
%TD*%
%TO.C,D61*%
X199550000Y-49400000D03*
X196250000Y-49400000D03*
%TD*%
%TO.C,D62*%
X199550000Y-65800000D03*
X196250000Y-65800000D03*
%TD*%
%TO.C,D63*%
X191150000Y-82200000D03*
X187850000Y-82200000D03*
%TD*%
%TO.C,D64*%
X189550000Y-98600000D03*
X186250000Y-98600000D03*
%TD*%
%TO.C,D66*%
X206850000Y-33400000D03*
X203550000Y-33400000D03*
%TD*%
%TO.C,D67*%
X216350000Y-49400000D03*
X213050000Y-49400000D03*
%TD*%
%TO.C,D68*%
X216350000Y-65800000D03*
X213050000Y-65800000D03*
%TD*%
%TO.C,D69*%
X207950000Y-82200000D03*
X204650000Y-82200000D03*
%TD*%
%TO.C,D70*%
X201150000Y-98600000D03*
X197850000Y-98600000D03*
%TD*%
%TO.C,D71*%
X232950000Y-46600000D03*
X229650000Y-46600000D03*
%TD*%
%TO.C,D72*%
X224750000Y-33000000D03*
X221450000Y-33000000D03*
%TD*%
%TO.C,D73*%
X232950000Y-49400000D03*
X229650000Y-49400000D03*
%TD*%
%TO.C,D74*%
X233150000Y-65800000D03*
X229850000Y-65800000D03*
%TD*%
%TO.C,D75*%
X224750000Y-82200000D03*
X221450000Y-82200000D03*
%TD*%
%TO.C,D76*%
X224550000Y-98600000D03*
X221250000Y-98600000D03*
%TD*%
%TO.C,D78*%
X240550000Y-33400000D03*
X237250000Y-33400000D03*
%TD*%
%TO.C,D79*%
X250150000Y-49400000D03*
X246850000Y-49400000D03*
%TD*%
%TO.C,D80*%
X250150000Y-65800000D03*
X246850000Y-65800000D03*
%TD*%
%TO.C,D81*%
X241750000Y-82200000D03*
X238450000Y-82200000D03*
%TD*%
%TO.C,D82*%
X237150000Y-98600000D03*
X233850000Y-98600000D03*
%TD*%
%TO.C,D83*%
X266950000Y-63000000D03*
X263650000Y-63000000D03*
%TD*%
%TO.C,D84*%
X258350000Y-33000000D03*
X255050000Y-33000000D03*
%TD*%
%TO.C,D85*%
X266950000Y-49400000D03*
X263650000Y-49400000D03*
%TD*%
%TO.C,D86*%
X266950000Y-65800000D03*
X263650000Y-65800000D03*
%TD*%
%TO.C,D87*%
X258350000Y-82200000D03*
X255050000Y-82200000D03*
%TD*%
%TO.C,D88*%
X258650000Y-98600000D03*
X255350000Y-98600000D03*
%TD*%
%TO.C,D90*%
X274050000Y-33400000D03*
X270750000Y-33400000D03*
%TD*%
%TO.C,D91*%
X275150000Y-82200000D03*
X271850000Y-82200000D03*
%TD*%
%TO.C,D92*%
X274950000Y-98600000D03*
X271650000Y-98600000D03*
%TD*%
%TO.C,D93*%
X285150000Y-85000000D03*
X281850000Y-85000000D03*
%TD*%
%TO.C,D95*%
X287750000Y-33000000D03*
X284450000Y-33000000D03*
%TD*%
%TO.C,D96*%
X287750000Y-49400000D03*
X284450000Y-49400000D03*
%TD*%
%TO.C,D97*%
X287550000Y-65800000D03*
X284250000Y-65800000D03*
%TD*%
%TO.C,D98*%
X285150000Y-82200000D03*
X281850000Y-82200000D03*
%TD*%
%TO.C,D99*%
X284550000Y-98600000D03*
X281250000Y-98600000D03*
%TD*%
%TO.C,F1*%
G36*
G01*
X42675000Y-20075000D02*
X41425000Y-20075000D01*
G75*
G02*
X41175000Y-19825000I0J250000D01*
G01*
X41175000Y-18900000D01*
G75*
G02*
X41425000Y-18650000I250000J0D01*
G01*
X42675000Y-18650000D01*
G75*
G02*
X42925000Y-18900000I0J-250000D01*
G01*
X42925000Y-19825000D01*
G75*
G02*
X42675000Y-20075000I-250000J0D01*
G01*
G37*
G36*
G01*
X42675000Y-23050000D02*
X41425000Y-23050000D01*
G75*
G02*
X41175000Y-22800000I0J250000D01*
G01*
X41175000Y-21875000D01*
G75*
G02*
X41425000Y-21625000I250000J0D01*
G01*
X42675000Y-21625000D01*
G75*
G02*
X42925000Y-21875000I0J-250000D01*
G01*
X42925000Y-22800000D01*
G75*
G02*
X42675000Y-23050000I-250000J0D01*
G01*
G37*
%TD*%
D27*
%TO.C,JP_LED2*%
X83200000Y-21800000D03*
X83200000Y-23100000D03*
X83200000Y-24400000D03*
%TD*%
D19*
%TO.C,L1*%
X67700000Y-20600000D03*
X69200000Y-25600000D03*
X67700000Y-25600000D03*
D18*
G36*
X69410000Y-19700001D02*
G01*
X69609999Y-19900000D01*
X69410000Y-20099999D01*
X69210001Y-19900000D01*
X69410000Y-19700001D01*
G37*
D20*
X69200000Y-20700000D03*
D21*
X69100000Y-19900000D03*
%TD*%
D19*
%TO.C,L2*%
X72950000Y-20600000D03*
X74450000Y-25600000D03*
X72950000Y-25600000D03*
D18*
G36*
X74660000Y-19700001D02*
G01*
X74859999Y-19900000D01*
X74660000Y-20099999D01*
X74460001Y-19900000D01*
X74660000Y-19700001D01*
G37*
D20*
X74450000Y-20700000D03*
D21*
X74350000Y-19900000D03*
%TD*%
D19*
%TO.C,L3*%
X78200000Y-20600000D03*
X79700000Y-25600000D03*
X78200000Y-25600000D03*
D18*
G36*
X79910000Y-19700001D02*
G01*
X80109999Y-19900000D01*
X79910000Y-20099999D01*
X79710001Y-19900000D01*
X79910000Y-19700001D01*
G37*
D20*
X79700000Y-20700000D03*
D21*
X79600000Y-19900000D03*
%TD*%
D19*
%TO.C,L4*%
X46450000Y-20600000D03*
X47950000Y-25600000D03*
X46450000Y-25600000D03*
D18*
G36*
X48160000Y-19700001D02*
G01*
X48359999Y-19900000D01*
X48160000Y-20099999D01*
X47960001Y-19900000D01*
X48160000Y-19700001D01*
G37*
D20*
X47950000Y-20700000D03*
D21*
X47850000Y-19900000D03*
%TD*%
D19*
%TO.C,L5*%
X164050000Y-20600000D03*
X165550000Y-25600000D03*
X164050000Y-25600000D03*
D18*
G36*
X165760000Y-19700001D02*
G01*
X165959999Y-19900000D01*
X165760000Y-20099999D01*
X165560001Y-19900000D01*
X165760000Y-19700001D01*
G37*
D20*
X165550000Y-20700000D03*
D21*
X165450000Y-19900000D03*
%TD*%
D19*
%TO.C,L6*%
X197650000Y-20600000D03*
X199150000Y-25600000D03*
X197650000Y-25600000D03*
D18*
G36*
X199360000Y-19700001D02*
G01*
X199559999Y-19900000D01*
X199360000Y-20099999D01*
X199160001Y-19900000D01*
X199360000Y-19700001D01*
G37*
D20*
X199150000Y-20700000D03*
D21*
X199050000Y-19900000D03*
%TD*%
D28*
%TO.C,L15*%
X291450000Y-74470000D03*
X291450000Y-77010000D03*
X291450000Y-79550000D03*
%TD*%
D29*
%TO.C,OL1*%
X111890000Y-19800000D03*
X114430000Y-19800000D03*
X116970000Y-19800000D03*
X119510000Y-19800000D03*
%TD*%
%TO.C,R1*%
G36*
G01*
X22700000Y-24949999D02*
X22700000Y-25850001D01*
G75*
G02*
X22450001Y-26100000I-249999J0D01*
G01*
X21749999Y-26100000D01*
G75*
G02*
X21500000Y-25850001I0J249999D01*
G01*
X21500000Y-24949999D01*
G75*
G02*
X21749999Y-24700000I249999J0D01*
G01*
X22450001Y-24700000D01*
G75*
G02*
X22700000Y-24949999I0J-249999D01*
G01*
G37*
G36*
G01*
X24700000Y-24949999D02*
X24700000Y-25850001D01*
G75*
G02*
X24450001Y-26100000I-249999J0D01*
G01*
X23749999Y-26100000D01*
G75*
G02*
X23500000Y-25850001I0J249999D01*
G01*
X23500000Y-24949999D01*
G75*
G02*
X23749999Y-24700000I249999J0D01*
G01*
X24450001Y-24700000D01*
G75*
G02*
X24700000Y-24949999I0J-249999D01*
G01*
G37*
%TD*%
%TO.C,R4*%
G36*
G01*
X34500000Y-63750001D02*
X34500000Y-62849999D01*
G75*
G02*
X34749999Y-62600000I249999J0D01*
G01*
X35450001Y-62600000D01*
G75*
G02*
X35700000Y-62849999I0J-249999D01*
G01*
X35700000Y-63750001D01*
G75*
G02*
X35450001Y-64000000I-249999J0D01*
G01*
X34749999Y-64000000D01*
G75*
G02*
X34500000Y-63750001I0J249999D01*
G01*
G37*
G36*
G01*
X32500000Y-63750001D02*
X32500000Y-62849999D01*
G75*
G02*
X32749999Y-62600000I249999J0D01*
G01*
X33450001Y-62600000D01*
G75*
G02*
X33700000Y-62849999I0J-249999D01*
G01*
X33700000Y-63750001D01*
G75*
G02*
X33450001Y-64000000I-249999J0D01*
G01*
X32749999Y-64000000D01*
G75*
G02*
X32500000Y-63750001I0J249999D01*
G01*
G37*
%TD*%
%TO.C,R5*%
G36*
G01*
X25400000Y-19350001D02*
X25400000Y-18449999D01*
G75*
G02*
X25649999Y-18200000I249999J0D01*
G01*
X26350001Y-18200000D01*
G75*
G02*
X26600000Y-18449999I0J-249999D01*
G01*
X26600000Y-19350001D01*
G75*
G02*
X26350001Y-19600000I-249999J0D01*
G01*
X25649999Y-19600000D01*
G75*
G02*
X25400000Y-19350001I0J249999D01*
G01*
G37*
G36*
G01*
X23400000Y-19350001D02*
X23400000Y-18449999D01*
G75*
G02*
X23649999Y-18200000I249999J0D01*
G01*
X24350001Y-18200000D01*
G75*
G02*
X24600000Y-18449999I0J-249999D01*
G01*
X24600000Y-19350001D01*
G75*
G02*
X24350001Y-19600000I-249999J0D01*
G01*
X23649999Y-19600000D01*
G75*
G02*
X23400000Y-19350001I0J249999D01*
G01*
G37*
%TD*%
%TO.C,R6*%
G36*
G01*
X25400000Y-21650001D02*
X25400000Y-20749999D01*
G75*
G02*
X25649999Y-20500000I249999J0D01*
G01*
X26350001Y-20500000D01*
G75*
G02*
X26600000Y-20749999I0J-249999D01*
G01*
X26600000Y-21650001D01*
G75*
G02*
X26350001Y-21900000I-249999J0D01*
G01*
X25649999Y-21900000D01*
G75*
G02*
X25400000Y-21650001I0J249999D01*
G01*
G37*
G36*
G01*
X23400000Y-21650001D02*
X23400000Y-20749999D01*
G75*
G02*
X23649999Y-20500000I249999J0D01*
G01*
X24350001Y-20500000D01*
G75*
G02*
X24600000Y-20749999I0J-249999D01*
G01*
X24600000Y-21650001D01*
G75*
G02*
X24350001Y-21900000I-249999J0D01*
G01*
X23649999Y-21900000D01*
G75*
G02*
X23400000Y-21650001I0J249999D01*
G01*
G37*
%TD*%
%TO.C,R8*%
G36*
G01*
X37900000Y-27899999D02*
X37900000Y-28800001D01*
G75*
G02*
X37650001Y-29050000I-249999J0D01*
G01*
X36949999Y-29050000D01*
G75*
G02*
X36700000Y-28800001I0J249999D01*
G01*
X36700000Y-27899999D01*
G75*
G02*
X36949999Y-27650000I249999J0D01*
G01*
X37650001Y-27650000D01*
G75*
G02*
X37900000Y-27899999I0J-249999D01*
G01*
G37*
G36*
G01*
X39900000Y-27899999D02*
X39900000Y-28800001D01*
G75*
G02*
X39650001Y-29050000I-249999J0D01*
G01*
X38949999Y-29050000D01*
G75*
G02*
X38700000Y-28800001I0J249999D01*
G01*
X38700000Y-27899999D01*
G75*
G02*
X38949999Y-27650000I249999J0D01*
G01*
X39650001Y-27650000D01*
G75*
G02*
X39900000Y-27899999I0J-249999D01*
G01*
G37*
%TD*%
%TO.C,R9*%
G36*
G01*
X104557537Y-61893935D02*
X105193935Y-61257537D01*
G75*
G02*
X105547487Y-61257537I176776J-176776D01*
G01*
X106042463Y-61752513D01*
G75*
G02*
X106042463Y-62106065I-176776J-176776D01*
G01*
X105406065Y-62742463D01*
G75*
G02*
X105052513Y-62742463I-176776J176776D01*
G01*
X104557537Y-62247487D01*
G75*
G02*
X104557537Y-61893935I176776J176776D01*
G01*
G37*
G36*
G01*
X103143323Y-60479721D02*
X103779721Y-59843323D01*
G75*
G02*
X104133273Y-59843323I176776J-176776D01*
G01*
X104628249Y-60338299D01*
G75*
G02*
X104628249Y-60691851I-176776J-176776D01*
G01*
X103991851Y-61328249D01*
G75*
G02*
X103638299Y-61328249I-176776J176776D01*
G01*
X103143323Y-60833273D01*
G75*
G02*
X103143323Y-60479721I176776J176776D01*
G01*
G37*
%TD*%
D30*
%TO.C,ResetSW1*%
X44200000Y-63350000D03*
X38000000Y-63350000D03*
X44200000Y-67050000D03*
X38000000Y-67050000D03*
%TD*%
D11*
%TO.C,SW_6*%
X288290000Y-35460000D03*
X294740000Y-32920000D03*
D12*
X287600000Y-38000000D03*
X296600000Y-38000000D03*
D13*
X292100000Y-38000000D03*
D12*
X287020000Y-38000000D03*
X297180000Y-38000000D03*
%TD*%
D11*
%TO.C,SW_9*%
X288290000Y-84660000D03*
X294740000Y-82120000D03*
D12*
X287600000Y-87200000D03*
X296600000Y-87200000D03*
D13*
X292100000Y-87200000D03*
D12*
X287020000Y-87200000D03*
X297180000Y-87200000D03*
%TD*%
D11*
%TO.C,SW_14*%
X36290000Y-84660000D03*
X42740000Y-82120000D03*
D12*
X35600000Y-87200000D03*
X44600000Y-87200000D03*
D13*
X40100000Y-87200000D03*
D12*
X35020000Y-87200000D03*
X45180000Y-87200000D03*
%TD*%
D11*
%TO.C,SW_15*%
X36290000Y-101060000D03*
X42740000Y-98520000D03*
D12*
X35600000Y-103600000D03*
X44600000Y-103600000D03*
D13*
X40100000Y-103600000D03*
D12*
X35020000Y-103600000D03*
X45180000Y-103600000D03*
%TD*%
D11*
%TO.C,SW_16*%
X19490000Y-35460000D03*
X25940000Y-32920000D03*
D12*
X18800000Y-38000000D03*
X27800000Y-38000000D03*
D13*
X23300000Y-38000000D03*
D12*
X18220000Y-38000000D03*
X28380000Y-38000000D03*
%TD*%
D11*
%TO.C,SW_29*%
X53090000Y-84660000D03*
X59540000Y-82120000D03*
D12*
X52400000Y-87200000D03*
X61400000Y-87200000D03*
D13*
X56900000Y-87200000D03*
D12*
X51820000Y-87200000D03*
X61980000Y-87200000D03*
%TD*%
D11*
%TO.C,SW_30_1*%
X86690000Y-101060000D03*
X93140000Y-98520000D03*
D12*
X86000000Y-103600000D03*
X95000000Y-103600000D03*
D13*
X90500000Y-103600000D03*
D12*
X85420000Y-103600000D03*
X95580000Y-103600000D03*
%TD*%
D11*
%TO.C,SW_31*%
X69890000Y-35460000D03*
X76340000Y-32920000D03*
D12*
X69200000Y-38000000D03*
X78200000Y-38000000D03*
D13*
X73700000Y-38000000D03*
D12*
X68620000Y-38000000D03*
X78780000Y-38000000D03*
%TD*%
D11*
%TO.C,SW_34*%
X103490000Y-84660000D03*
X109940000Y-82120000D03*
D12*
X102800000Y-87200000D03*
X111800000Y-87200000D03*
D13*
X107300000Y-87200000D03*
D12*
X102220000Y-87200000D03*
X112380000Y-87200000D03*
%TD*%
D11*
%TO.C,SW_36_1*%
X86690000Y-35460000D03*
X93140000Y-32920000D03*
D12*
X86000000Y-38000000D03*
X95000000Y-38000000D03*
D13*
X90500000Y-38000000D03*
D12*
X85420000Y-38000000D03*
X95580000Y-38000000D03*
%TD*%
D11*
%TO.C,SW_41_1*%
X103490000Y-35460000D03*
X109940000Y-32920000D03*
D12*
X102800000Y-38000000D03*
X111800000Y-38000000D03*
D13*
X107300000Y-38000000D03*
D12*
X102220000Y-38000000D03*
X112380000Y-38000000D03*
%TD*%
D15*
%TO.C,SW_42*%
X118240000Y-50590000D03*
X120780000Y-57040000D03*
D12*
X115700000Y-49900000D03*
X115700000Y-58900000D03*
D13*
X115700000Y-54400000D03*
D12*
X115700000Y-49320000D03*
X115700000Y-59480000D03*
%TD*%
D11*
%TO.C,SW_46_1*%
X120290000Y-35460000D03*
X126740000Y-32920000D03*
D12*
X119600000Y-38000000D03*
X128600000Y-38000000D03*
D13*
X124100000Y-38000000D03*
D12*
X119020000Y-38000000D03*
X129180000Y-38000000D03*
%TD*%
D11*
%TO.C,SW_47*%
X128690000Y-51860000D03*
X135140000Y-49320000D03*
D12*
X128000000Y-54400000D03*
X137000000Y-54400000D03*
D13*
X132500000Y-54400000D03*
D12*
X127420000Y-54400000D03*
X137580000Y-54400000D03*
%TD*%
D11*
%TO.C,SW_48*%
X128690000Y-68260000D03*
X135140000Y-65720000D03*
D12*
X128000000Y-70800000D03*
X137000000Y-70800000D03*
D13*
X132500000Y-70800000D03*
D12*
X127420000Y-70800000D03*
X137580000Y-70800000D03*
%TD*%
D11*
%TO.C,SW_49*%
X120290000Y-84660000D03*
X126740000Y-82120000D03*
D12*
X119600000Y-87200000D03*
X128600000Y-87200000D03*
D13*
X124100000Y-87200000D03*
D12*
X119020000Y-87200000D03*
X129180000Y-87200000D03*
%TD*%
D11*
%TO.C,SW_50*%
X153890000Y-101060000D03*
X160340000Y-98520000D03*
D12*
X153200000Y-103600000D03*
X162200000Y-103600000D03*
D13*
X157700000Y-103600000D03*
D12*
X152620000Y-103600000D03*
X162780000Y-103600000D03*
%TD*%
D11*
%TO.C,SW_51_1*%
X137090000Y-35460000D03*
X143540000Y-32920000D03*
D12*
X136400000Y-38000000D03*
X145400000Y-38000000D03*
D13*
X140900000Y-38000000D03*
D12*
X135820000Y-38000000D03*
X145980000Y-38000000D03*
%TD*%
D11*
%TO.C,SW_52*%
X145490000Y-51860000D03*
X151940000Y-49320000D03*
D12*
X144800000Y-54400000D03*
X153800000Y-54400000D03*
D13*
X149300000Y-54400000D03*
D12*
X144220000Y-54400000D03*
X154380000Y-54400000D03*
%TD*%
D11*
%TO.C,SW_53*%
X145490000Y-68260000D03*
X151940000Y-65720000D03*
D12*
X144800000Y-70800000D03*
X153800000Y-70800000D03*
D13*
X149300000Y-70800000D03*
D12*
X144220000Y-70800000D03*
X154380000Y-70800000D03*
%TD*%
D11*
%TO.C,SW_54*%
X137090000Y-84660000D03*
X143540000Y-82120000D03*
D12*
X136400000Y-87200000D03*
X145400000Y-87200000D03*
D13*
X140900000Y-87200000D03*
D12*
X135820000Y-87200000D03*
X145980000Y-87200000D03*
%TD*%
D11*
%TO.C,SW_56*%
X153890000Y-35460000D03*
X160340000Y-32920000D03*
D12*
X153200000Y-38000000D03*
X162200000Y-38000000D03*
D13*
X157700000Y-38000000D03*
D12*
X152620000Y-38000000D03*
X162780000Y-38000000D03*
%TD*%
D11*
%TO.C,SW_57*%
X162290000Y-51860000D03*
X168740000Y-49320000D03*
D12*
X161600000Y-54400000D03*
X170600000Y-54400000D03*
D13*
X166100000Y-54400000D03*
D12*
X161020000Y-54400000D03*
X171180000Y-54400000D03*
%TD*%
D11*
%TO.C,SW_58*%
X162290000Y-68260000D03*
X168740000Y-65720000D03*
D12*
X161600000Y-70800000D03*
X170600000Y-70800000D03*
D13*
X166100000Y-70800000D03*
D12*
X161020000Y-70800000D03*
X171180000Y-70800000D03*
%TD*%
D11*
%TO.C,SW_59*%
X153890000Y-84660000D03*
X160340000Y-82120000D03*
D12*
X153200000Y-87200000D03*
X162200000Y-87200000D03*
D13*
X157700000Y-87200000D03*
D12*
X152620000Y-87200000D03*
X162780000Y-87200000D03*
%TD*%
D11*
%TO.C,SW_61*%
X170690000Y-35460000D03*
X177140000Y-32920000D03*
D12*
X170000000Y-38000000D03*
X179000000Y-38000000D03*
D13*
X174500000Y-38000000D03*
D12*
X169420000Y-38000000D03*
X179580000Y-38000000D03*
%TD*%
D11*
%TO.C,SW_62*%
X179090000Y-51860000D03*
X185540000Y-49320000D03*
D12*
X178400000Y-54400000D03*
X187400000Y-54400000D03*
D13*
X182900000Y-54400000D03*
D12*
X177820000Y-54400000D03*
X187980000Y-54400000D03*
%TD*%
D11*
%TO.C,SW_63*%
X179090000Y-68260000D03*
X185540000Y-65720000D03*
D12*
X178400000Y-70800000D03*
X187400000Y-70800000D03*
D13*
X182900000Y-70800000D03*
D12*
X177820000Y-70800000D03*
X187980000Y-70800000D03*
%TD*%
D11*
%TO.C,SW_64*%
X170690000Y-84660000D03*
X177140000Y-82120000D03*
D12*
X170000000Y-87200000D03*
X179000000Y-87200000D03*
D13*
X174500000Y-87200000D03*
D12*
X169420000Y-87200000D03*
X179580000Y-87200000D03*
%TD*%
D11*
%TO.C,SW_65_1*%
X170690000Y-101060000D03*
X177140000Y-98520000D03*
D12*
X170000000Y-103600000D03*
X179000000Y-103600000D03*
D13*
X174500000Y-103600000D03*
D12*
X169420000Y-103600000D03*
X179580000Y-103600000D03*
%TD*%
D11*
%TO.C,SW_67*%
X195890000Y-51860000D03*
X202340000Y-49320000D03*
D12*
X195200000Y-54400000D03*
X204200000Y-54400000D03*
D13*
X199700000Y-54400000D03*
D12*
X194620000Y-54400000D03*
X204780000Y-54400000D03*
%TD*%
D11*
%TO.C,SW_68*%
X195890000Y-68260000D03*
X202340000Y-65720000D03*
D12*
X195200000Y-70800000D03*
X204200000Y-70800000D03*
D13*
X199700000Y-70800000D03*
D12*
X194620000Y-70800000D03*
X204780000Y-70800000D03*
%TD*%
D11*
%TO.C,SW_69*%
X187490000Y-84660000D03*
X193940000Y-82120000D03*
D12*
X186800000Y-87200000D03*
X195800000Y-87200000D03*
D13*
X191300000Y-87200000D03*
D12*
X186220000Y-87200000D03*
X196380000Y-87200000D03*
%TD*%
D11*
%TO.C,SW_71*%
X204290000Y-35460000D03*
X210740000Y-32920000D03*
D12*
X203600000Y-38000000D03*
X212600000Y-38000000D03*
D13*
X208100000Y-38000000D03*
D12*
X203020000Y-38000000D03*
X213180000Y-38000000D03*
%TD*%
D11*
%TO.C,SW_72_1*%
X212690000Y-51860000D03*
X219140000Y-49320000D03*
D12*
X212000000Y-54400000D03*
X221000000Y-54400000D03*
D13*
X216500000Y-54400000D03*
D12*
X211420000Y-54400000D03*
X221580000Y-54400000D03*
%TD*%
D11*
%TO.C,SW_73_1*%
X212690000Y-68260000D03*
X219140000Y-65720000D03*
D12*
X212000000Y-70800000D03*
X221000000Y-70800000D03*
D13*
X216500000Y-70800000D03*
D12*
X211420000Y-70800000D03*
X221580000Y-70800000D03*
%TD*%
D11*
%TO.C,SW_74*%
X204290000Y-84660000D03*
X210740000Y-82120000D03*
D12*
X203600000Y-87200000D03*
X212600000Y-87200000D03*
D13*
X208100000Y-87200000D03*
D12*
X203020000Y-87200000D03*
X213180000Y-87200000D03*
%TD*%
D11*
%TO.C,SW_76*%
X187490000Y-35460000D03*
X193940000Y-32920000D03*
D12*
X186800000Y-38000000D03*
X195800000Y-38000000D03*
D13*
X191300000Y-38000000D03*
D12*
X186220000Y-38000000D03*
X196380000Y-38000000D03*
%TD*%
D11*
%TO.C,SW_78_1*%
X229490000Y-68260000D03*
X235940000Y-65720000D03*
D12*
X228800000Y-70800000D03*
X237800000Y-70800000D03*
D13*
X233300000Y-70800000D03*
D12*
X228220000Y-70800000D03*
X238380000Y-70800000D03*
%TD*%
D11*
%TO.C,SW_79*%
X221090000Y-84660000D03*
X227540000Y-82120000D03*
D12*
X220400000Y-87200000D03*
X229400000Y-87200000D03*
D13*
X224900000Y-87200000D03*
D12*
X219820000Y-87200000D03*
X229980000Y-87200000D03*
%TD*%
D11*
%TO.C,SW_81*%
X237890000Y-35460000D03*
X244340000Y-32920000D03*
D12*
X237200000Y-38000000D03*
X246200000Y-38000000D03*
D13*
X241700000Y-38000000D03*
D12*
X236620000Y-38000000D03*
X246780000Y-38000000D03*
%TD*%
D11*
%TO.C,SW_82_1*%
X246290000Y-51860000D03*
X252740000Y-49320000D03*
D12*
X245600000Y-54400000D03*
X254600000Y-54400000D03*
D13*
X250100000Y-54400000D03*
D12*
X245020000Y-54400000D03*
X255180000Y-54400000D03*
%TD*%
D11*
%TO.C,SW_83_1*%
X246290000Y-68260000D03*
X252740000Y-65720000D03*
D12*
X245600000Y-70800000D03*
X254600000Y-70800000D03*
D13*
X250100000Y-70800000D03*
D12*
X245020000Y-70800000D03*
X255180000Y-70800000D03*
%TD*%
D11*
%TO.C,SW_84*%
X237890000Y-84660000D03*
X244340000Y-82120000D03*
D12*
X237200000Y-87200000D03*
X246200000Y-87200000D03*
D13*
X241700000Y-87200000D03*
D12*
X236620000Y-87200000D03*
X246780000Y-87200000D03*
%TD*%
D11*
%TO.C,SW_86*%
X221090000Y-35460000D03*
X227540000Y-32920000D03*
D12*
X220400000Y-38000000D03*
X229400000Y-38000000D03*
D13*
X224900000Y-38000000D03*
D12*
X219820000Y-38000000D03*
X229980000Y-38000000D03*
%TD*%
D11*
%TO.C,SW_87_1*%
X229490000Y-51860000D03*
X235940000Y-49320000D03*
D12*
X228800000Y-54400000D03*
X237800000Y-54400000D03*
D13*
X233300000Y-54400000D03*
D12*
X228220000Y-54400000D03*
X238380000Y-54400000D03*
%TD*%
D11*
%TO.C,SW_90_1*%
X288290000Y-101060000D03*
X294740000Y-98520000D03*
D12*
X287600000Y-103600000D03*
X296600000Y-103600000D03*
D13*
X292100000Y-103600000D03*
D12*
X287020000Y-103600000D03*
X297180000Y-103600000D03*
%TD*%
D11*
%TO.C,SW_91*%
X271490000Y-35460000D03*
X277940000Y-32920000D03*
D12*
X270800000Y-38000000D03*
X279800000Y-38000000D03*
D13*
X275300000Y-38000000D03*
D12*
X270220000Y-38000000D03*
X280380000Y-38000000D03*
%TD*%
D11*
%TO.C,SW_94*%
X271490000Y-84660000D03*
X277940000Y-82120000D03*
D12*
X270800000Y-87200000D03*
X279800000Y-87200000D03*
D13*
X275300000Y-87200000D03*
D12*
X270220000Y-87200000D03*
X280380000Y-87200000D03*
%TD*%
D11*
%TO.C,SW_95*%
X271490000Y-101060000D03*
X277940000Y-98520000D03*
D12*
X270800000Y-103600000D03*
X279800000Y-103600000D03*
D13*
X275300000Y-103600000D03*
D12*
X270220000Y-103600000D03*
X280380000Y-103600000D03*
%TD*%
D11*
%TO.C,SW_96*%
X254690000Y-35460000D03*
X261140000Y-32920000D03*
D12*
X254000000Y-38000000D03*
X263000000Y-38000000D03*
D13*
X258500000Y-38000000D03*
D12*
X253420000Y-38000000D03*
X263580000Y-38000000D03*
%TD*%
D11*
%TO.C,SW_10_1*%
X19490000Y-101060000D03*
X25940000Y-98520000D03*
D12*
X18800000Y-103600000D03*
X27800000Y-103600000D03*
D13*
X23300000Y-103600000D03*
D12*
X18220000Y-103600000D03*
X28380000Y-103600000D03*
%TD*%
D11*
%TO.C,SW_12_2*%
X44690000Y-51860000D03*
X51140000Y-49320000D03*
D12*
X44000000Y-54400000D03*
X53000000Y-54400000D03*
D13*
X48500000Y-54400000D03*
D12*
X43420000Y-54400000D03*
X53580000Y-54400000D03*
%TD*%
D11*
%TO.C,SW_13_1*%
X43910000Y-73340000D03*
X37460000Y-75880000D03*
D12*
X44600000Y-70800000D03*
X35600000Y-70800000D03*
D13*
X40100000Y-70800000D03*
D12*
X45180000Y-70800000D03*
X35020000Y-70800000D03*
%TD*%
D11*
%TO.C,SW_13_2*%
X52310000Y-73340000D03*
X45860000Y-75880000D03*
D12*
X53000000Y-70800000D03*
X44000000Y-70800000D03*
D13*
X48500000Y-70800000D03*
D12*
X53580000Y-70800000D03*
X43420000Y-70800000D03*
%TD*%
D11*
%TO.C,SW_17_1*%
X19490000Y-51860000D03*
X25940000Y-49320000D03*
D12*
X18800000Y-54400000D03*
X27800000Y-54400000D03*
D13*
X23300000Y-54400000D03*
D12*
X18220000Y-54400000D03*
X28380000Y-54400000D03*
%TD*%
D11*
%TO.C,SW_18_1*%
X19490000Y-68260000D03*
X25940000Y-65720000D03*
D12*
X18800000Y-70800000D03*
X27800000Y-70800000D03*
D13*
X23300000Y-70800000D03*
D12*
X18220000Y-70800000D03*
X28380000Y-70800000D03*
%TD*%
D11*
%TO.C,SW_19_1*%
X19490000Y-84660000D03*
X25940000Y-82120000D03*
D12*
X18800000Y-87200000D03*
X27800000Y-87200000D03*
D13*
X23300000Y-87200000D03*
D12*
X18220000Y-87200000D03*
X28380000Y-87200000D03*
%TD*%
D11*
%TO.C,SW_20_1*%
X53090000Y-101060000D03*
X59540000Y-98520000D03*
D12*
X52400000Y-103600000D03*
X61400000Y-103600000D03*
D13*
X56900000Y-103600000D03*
D12*
X51820000Y-103600000D03*
X61980000Y-103600000D03*
%TD*%
D11*
%TO.C,SW_23_1*%
X69890000Y-68260000D03*
X76340000Y-65720000D03*
D12*
X69200000Y-70800000D03*
X78200000Y-70800000D03*
D13*
X73700000Y-70800000D03*
D12*
X68620000Y-70800000D03*
X78780000Y-70800000D03*
%TD*%
D11*
%TO.C,SW_24_1*%
X69890000Y-84660000D03*
X76340000Y-82120000D03*
D12*
X69200000Y-87200000D03*
X78200000Y-87200000D03*
D13*
X73700000Y-87200000D03*
D12*
X68620000Y-87200000D03*
X78780000Y-87200000D03*
%TD*%
D11*
%TO.C,SW_25_1*%
X69890000Y-101060000D03*
X76340000Y-98520000D03*
D12*
X69200000Y-103600000D03*
X78200000Y-103600000D03*
D13*
X73700000Y-103600000D03*
D12*
X68620000Y-103600000D03*
X78780000Y-103600000D03*
%TD*%
D11*
%TO.C,SW_27_1*%
X53090000Y-51860000D03*
X59540000Y-49320000D03*
D12*
X52400000Y-54400000D03*
X61400000Y-54400000D03*
D13*
X56900000Y-54400000D03*
D12*
X51820000Y-54400000D03*
X61980000Y-54400000D03*
%TD*%
D11*
%TO.C,SW_27_2*%
X61490000Y-51860000D03*
X67940000Y-49320000D03*
D12*
X60800000Y-54400000D03*
X69800000Y-54400000D03*
D13*
X65300000Y-54400000D03*
D12*
X60220000Y-54400000D03*
X70380000Y-54400000D03*
%TD*%
D11*
%TO.C,SW_28_1*%
X53090000Y-68260000D03*
X59540000Y-65720000D03*
D12*
X52400000Y-70800000D03*
X61400000Y-70800000D03*
D13*
X56900000Y-70800000D03*
D12*
X51820000Y-70800000D03*
X61980000Y-70800000D03*
%TD*%
D11*
%TO.C,SW_28_2*%
X61490000Y-68260000D03*
X67940000Y-65720000D03*
D12*
X60800000Y-70800000D03*
X69800000Y-70800000D03*
D13*
X65300000Y-70800000D03*
D12*
X60220000Y-70800000D03*
X70380000Y-70800000D03*
%TD*%
D11*
%TO.C,SW_32_1*%
X69890000Y-51860000D03*
X76340000Y-49320000D03*
D12*
X69200000Y-54400000D03*
X78200000Y-54400000D03*
D13*
X73700000Y-54400000D03*
D12*
X68620000Y-54400000D03*
X78780000Y-54400000D03*
%TD*%
D11*
%TO.C,SW_35_1*%
X103490000Y-101060000D03*
X109940000Y-98520000D03*
D12*
X102800000Y-103600000D03*
X111800000Y-103600000D03*
D13*
X107300000Y-103600000D03*
D12*
X102220000Y-103600000D03*
X112380000Y-103600000D03*
%TD*%
D15*
%TO.C,SW_37_1*%
X96360000Y-58210000D03*
X93820000Y-51760000D03*
D12*
X98900000Y-58900000D03*
X98900000Y-49900000D03*
D13*
X98900000Y-54400000D03*
D12*
X98900000Y-59480000D03*
X98900000Y-49320000D03*
%TD*%
D11*
%TO.C,SW_38_1*%
X95090000Y-68260000D03*
X101540000Y-65720000D03*
D12*
X94400000Y-70800000D03*
X103400000Y-70800000D03*
D13*
X98900000Y-70800000D03*
D12*
X93820000Y-70800000D03*
X103980000Y-70800000D03*
%TD*%
D11*
%TO.C,SW_39_1*%
X86690000Y-84660000D03*
X93140000Y-82120000D03*
D12*
X86000000Y-87200000D03*
X95000000Y-87200000D03*
D13*
X90500000Y-87200000D03*
D12*
X85420000Y-87200000D03*
X95580000Y-87200000D03*
%TD*%
D11*
%TO.C,SW_40_1*%
X120290000Y-101060000D03*
X126740000Y-98520000D03*
D12*
X119600000Y-103600000D03*
X128600000Y-103600000D03*
D13*
X124100000Y-103600000D03*
D12*
X119020000Y-103600000D03*
X129180000Y-103600000D03*
%TD*%
D11*
%TO.C,SW_45_1*%
X137090000Y-101060000D03*
X143540000Y-98520000D03*
D12*
X136400000Y-103600000D03*
X145400000Y-103600000D03*
D13*
X140900000Y-103600000D03*
D12*
X135820000Y-103600000D03*
X145980000Y-103600000D03*
%TD*%
D11*
%TO.C,SW_60_1*%
X187490000Y-101060000D03*
X193940000Y-98520000D03*
D12*
X186800000Y-103600000D03*
X195800000Y-103600000D03*
D13*
X191300000Y-103600000D03*
D12*
X186220000Y-103600000D03*
X196380000Y-103600000D03*
%TD*%
D11*
%TO.C,SW_70_1*%
X221090000Y-101060000D03*
X227540000Y-98520000D03*
D12*
X220400000Y-103600000D03*
X229400000Y-103600000D03*
D13*
X224900000Y-103600000D03*
D12*
X219820000Y-103600000D03*
X229980000Y-103600000D03*
%TD*%
D11*
%TO.C,SW_75_1*%
X211910000Y-106140000D03*
X205460000Y-108680000D03*
D12*
X212600000Y-103600000D03*
X203600000Y-103600000D03*
D13*
X208100000Y-103600000D03*
D12*
X213180000Y-103600000D03*
X203020000Y-103600000D03*
%TD*%
D11*
%TO.C,SW_7_1*%
X288290000Y-51860000D03*
X294740000Y-49320000D03*
D12*
X287600000Y-54400000D03*
X296600000Y-54400000D03*
D13*
X292100000Y-54400000D03*
D12*
X287020000Y-54400000D03*
X297180000Y-54400000D03*
%TD*%
D11*
%TO.C,SW_80_1*%
X254690000Y-101060000D03*
X261140000Y-98520000D03*
D12*
X254000000Y-103600000D03*
X263000000Y-103600000D03*
D13*
X258500000Y-103600000D03*
D12*
X253420000Y-103600000D03*
X263580000Y-103600000D03*
%TD*%
D11*
%TO.C,SW_85_1*%
X237890000Y-101060000D03*
X244340000Y-98520000D03*
D12*
X237200000Y-103600000D03*
X246200000Y-103600000D03*
D13*
X241700000Y-103600000D03*
D12*
X236620000Y-103600000D03*
X246780000Y-103600000D03*
%TD*%
D11*
%TO.C,SW_8_1*%
X288290000Y-68260000D03*
X294740000Y-65720000D03*
D12*
X287600000Y-70800000D03*
X296600000Y-70800000D03*
D13*
X292100000Y-70800000D03*
D12*
X287020000Y-70800000D03*
X297180000Y-70800000D03*
%TD*%
D11*
%TO.C,SW_97_1*%
X263090000Y-51860000D03*
X269540000Y-49320000D03*
D12*
X262400000Y-54400000D03*
X271400000Y-54400000D03*
D13*
X266900000Y-54400000D03*
D12*
X261820000Y-54400000D03*
X271980000Y-54400000D03*
%TD*%
D11*
%TO.C,SW_98_1*%
X263090000Y-68260000D03*
X269540000Y-65720000D03*
D12*
X262400000Y-70800000D03*
X271400000Y-70800000D03*
D13*
X266900000Y-70800000D03*
D12*
X261820000Y-70800000D03*
X271980000Y-70800000D03*
%TD*%
D31*
%TO.C,J1*%
X29075000Y-17965000D03*
X37725000Y-17965000D03*
X37725000Y-21345000D03*
X29075000Y-21345000D03*
D32*
X30425000Y-20975000D03*
X31275000Y-20975000D03*
X32125000Y-20975000D03*
X32975000Y-20975000D03*
X33825000Y-20975000D03*
X34675000Y-20975000D03*
X35525000Y-20975000D03*
X36375000Y-20975000D03*
X36375000Y-22325000D03*
X35525000Y-22325000D03*
X34675000Y-22325000D03*
X33825000Y-22325000D03*
X32975000Y-22325000D03*
X32125000Y-22325000D03*
X31275000Y-22325000D03*
X30425000Y-22325000D03*
%TD*%
D11*
%TO.C,SW_23_2*%
X78290000Y-68260000D03*
X84740000Y-65720000D03*
D12*
X77600000Y-70800000D03*
X86600000Y-70800000D03*
D13*
X82100000Y-70800000D03*
D12*
X77020000Y-70800000D03*
X87180000Y-70800000D03*
%TD*%
D11*
%TO.C,SW_32_2*%
X78290000Y-51860000D03*
X84740000Y-49320000D03*
D12*
X77600000Y-54400000D03*
X86600000Y-54400000D03*
D13*
X82100000Y-54400000D03*
D12*
X77020000Y-54400000D03*
X87180000Y-54400000D03*
%TD*%
%TO.C,SW_20_2*%
X66180000Y-103600000D03*
X56020000Y-103600000D03*
D13*
X61100000Y-103600000D03*
D12*
X65600000Y-103600000D03*
X56600000Y-103600000D03*
D11*
X63740000Y-98520000D03*
X57290000Y-101060000D03*
%TD*%
D12*
%TO.C,SW_25_3*%
X82980000Y-103600000D03*
X72820000Y-103600000D03*
D13*
X77900000Y-103600000D03*
D12*
X82400000Y-103600000D03*
X73400000Y-103600000D03*
D11*
X80540000Y-98520000D03*
X74090000Y-101060000D03*
%TD*%
D12*
%TO.C,SW_36_2*%
X95580000Y-31500000D03*
X85420000Y-31500000D03*
D13*
X90500000Y-31500000D03*
D12*
X95000000Y-31500000D03*
X86000000Y-31500000D03*
D11*
X93140000Y-26420000D03*
X86690000Y-28960000D03*
%TD*%
%TO.C,SW_30_2*%
X82490000Y-101060000D03*
X88940000Y-98520000D03*
D12*
X81800000Y-103600000D03*
X90800000Y-103600000D03*
D13*
X86300000Y-103600000D03*
D12*
X81220000Y-103600000D03*
X91380000Y-103600000D03*
%TD*%
D11*
%TO.C,SW_35_2*%
X111890000Y-101060000D03*
X118340000Y-98520000D03*
D12*
X111200000Y-103600000D03*
X120200000Y-103600000D03*
D13*
X115700000Y-103600000D03*
D12*
X110620000Y-103600000D03*
X120780000Y-103600000D03*
%TD*%
D11*
%TO.C,SW_35_3*%
X107690000Y-101060000D03*
X114140000Y-98520000D03*
D12*
X107000000Y-103600000D03*
X116000000Y-103600000D03*
D13*
X111500000Y-103600000D03*
D12*
X106420000Y-103600000D03*
X116580000Y-103600000D03*
%TD*%
D11*
%TO.C,SW_41_2*%
X103490000Y-28960000D03*
X109940000Y-26420000D03*
D12*
X102800000Y-31500000D03*
X111800000Y-31500000D03*
D13*
X107300000Y-31500000D03*
D12*
X102220000Y-31500000D03*
X112380000Y-31500000D03*
%TD*%
D11*
%TO.C,SW_45_2*%
X145490000Y-101060000D03*
X151940000Y-98520000D03*
D12*
X144800000Y-103600000D03*
X153800000Y-103600000D03*
D13*
X149300000Y-103600000D03*
D12*
X144220000Y-103600000D03*
X154380000Y-103600000D03*
%TD*%
%TO.C,SW_45_3*%
X150180000Y-103600000D03*
X140020000Y-103600000D03*
D13*
X145100000Y-103600000D03*
D12*
X149600000Y-103600000D03*
X140600000Y-103600000D03*
D11*
X147740000Y-98520000D03*
X141290000Y-101060000D03*
%TD*%
D12*
%TO.C,SW_45_4*%
X141780000Y-103600000D03*
X131620000Y-103600000D03*
D13*
X136700000Y-103600000D03*
D12*
X141200000Y-103600000D03*
X132200000Y-103600000D03*
D11*
X139340000Y-98520000D03*
X132890000Y-101060000D03*
%TD*%
D12*
%TO.C,SW_46_2*%
X129180000Y-31500000D03*
X119020000Y-31500000D03*
D13*
X124100000Y-31500000D03*
D12*
X128600000Y-31500000D03*
X119600000Y-31500000D03*
D11*
X126740000Y-26420000D03*
X120290000Y-28960000D03*
%TD*%
%TO.C,SW_51_2*%
X137090000Y-28960000D03*
X143540000Y-26420000D03*
D12*
X136400000Y-31500000D03*
X145400000Y-31500000D03*
D13*
X140900000Y-31500000D03*
D12*
X135820000Y-31500000D03*
X145980000Y-31500000D03*
%TD*%
%TO.C,SW_60_2*%
X196380000Y-95400000D03*
X186220000Y-95400000D03*
D13*
X191300000Y-95400000D03*
D12*
X195800000Y-95400000D03*
X186800000Y-95400000D03*
D11*
X193940000Y-90320000D03*
X187490000Y-92860000D03*
%TD*%
%TO.C,SW_65_2*%
X174890000Y-101060000D03*
X181340000Y-98520000D03*
D12*
X174200000Y-103600000D03*
X183200000Y-103600000D03*
D13*
X178700000Y-103600000D03*
D12*
X173620000Y-103600000D03*
X183780000Y-103600000D03*
%TD*%
D11*
%TO.C,SW_65_3*%
X166490000Y-101060000D03*
X172940000Y-98520000D03*
D12*
X165800000Y-103600000D03*
X174800000Y-103600000D03*
D13*
X170300000Y-103600000D03*
D12*
X165220000Y-103600000D03*
X175380000Y-103600000D03*
%TD*%
%TO.C,SW_72_2*%
X225780000Y-54400000D03*
X215620000Y-54400000D03*
D13*
X220700000Y-54400000D03*
D12*
X225200000Y-54400000D03*
X216200000Y-54400000D03*
D11*
X223340000Y-49320000D03*
X216890000Y-51860000D03*
%TD*%
%TO.C,SW_73_2*%
X216890000Y-68260000D03*
X223340000Y-65720000D03*
D12*
X216200000Y-70800000D03*
X225200000Y-70800000D03*
D13*
X220700000Y-70800000D03*
D12*
X215620000Y-70800000D03*
X225780000Y-70800000D03*
%TD*%
%TO.C,SW_75_2*%
X198820000Y-103600000D03*
X208980000Y-103600000D03*
D13*
X203900000Y-103600000D03*
D12*
X199400000Y-103600000D03*
X208400000Y-103600000D03*
D11*
X201260000Y-108680000D03*
X207710000Y-106140000D03*
%TD*%
D12*
%TO.C,SW_75_3*%
X211420000Y-103600000D03*
X221580000Y-103600000D03*
D13*
X216500000Y-103600000D03*
D12*
X212000000Y-103600000D03*
X221000000Y-103600000D03*
D11*
X213860000Y-108680000D03*
X220310000Y-106140000D03*
%TD*%
%TO.C,SW_78_2*%
X237890000Y-68260000D03*
X244340000Y-65720000D03*
D12*
X237200000Y-70800000D03*
X246200000Y-70800000D03*
D13*
X241700000Y-70800000D03*
D12*
X236620000Y-70800000D03*
X246780000Y-70800000D03*
%TD*%
D11*
%TO.C,SW_82_2*%
X254690000Y-51860000D03*
X261140000Y-49320000D03*
D12*
X254000000Y-54400000D03*
X263000000Y-54400000D03*
D13*
X258500000Y-54400000D03*
D12*
X253420000Y-54400000D03*
X263580000Y-54400000D03*
%TD*%
%TO.C,SW_83_2*%
X263580000Y-70800000D03*
X253420000Y-70800000D03*
D13*
X258500000Y-70800000D03*
D12*
X263000000Y-70800000D03*
X254000000Y-70800000D03*
D11*
X261140000Y-65720000D03*
X254690000Y-68260000D03*
%TD*%
D12*
%TO.C,SW_85_2*%
X255180000Y-103600000D03*
X245020000Y-103600000D03*
D13*
X250100000Y-103600000D03*
D12*
X254600000Y-103600000D03*
X245600000Y-103600000D03*
D11*
X252740000Y-98520000D03*
X246290000Y-101060000D03*
%TD*%
%TO.C,SW_85_3*%
X233690000Y-101060000D03*
X240140000Y-98520000D03*
D12*
X233000000Y-103600000D03*
X242000000Y-103600000D03*
D13*
X237500000Y-103600000D03*
D12*
X232420000Y-103600000D03*
X242580000Y-103600000D03*
%TD*%
%TO.C,SW_87_2*%
X246780000Y-54400000D03*
X236620000Y-54400000D03*
D13*
X241700000Y-54400000D03*
D12*
X246200000Y-54400000D03*
X237200000Y-54400000D03*
D11*
X244340000Y-49320000D03*
X237890000Y-51860000D03*
%TD*%
%TO.C,SW_90_2*%
X288290000Y-92860000D03*
X294740000Y-90320000D03*
D12*
X287600000Y-95400000D03*
X296600000Y-95400000D03*
D13*
X292100000Y-95400000D03*
D12*
X287020000Y-95400000D03*
X297180000Y-95400000D03*
%TD*%
%TO.C,SW_97_2*%
X280380000Y-54400000D03*
X270220000Y-54400000D03*
D13*
X275300000Y-54400000D03*
D12*
X279800000Y-54400000D03*
X270800000Y-54400000D03*
D11*
X277940000Y-49320000D03*
X271490000Y-51860000D03*
%TD*%
%TO.C,SW_98_2*%
X271490000Y-68260000D03*
X277940000Y-65720000D03*
D12*
X270800000Y-70800000D03*
X279800000Y-70800000D03*
D13*
X275300000Y-70800000D03*
D12*
X270220000Y-70800000D03*
X280380000Y-70800000D03*
%TD*%
D21*
%TO.C,L8*%
X266250000Y-19900000D03*
D20*
X266350000Y-20700000D03*
D18*
G36*
X266560000Y-19700001D02*
G01*
X266759999Y-19900000D01*
X266560000Y-20099999D01*
X266360001Y-19900000D01*
X266560000Y-19700001D01*
G37*
D19*
X264850000Y-25600000D03*
X266350000Y-25600000D03*
X264850000Y-20600000D03*
%TD*%
D33*
%TO.C,SW_RE1*%
X61400000Y-31500000D03*
X52400000Y-31500000D03*
D34*
X56900000Y-31500000D03*
D35*
X49400000Y-29000000D03*
D36*
X49400000Y-31500000D03*
X49400000Y-34000000D03*
D37*
X56900000Y-25900000D03*
X56900000Y-37100000D03*
D36*
X63900000Y-29000000D03*
X63900000Y-34000000D03*
%TD*%
%TO.C,SW_RE2*%
X181500000Y-34000000D03*
X181500000Y-29000000D03*
D37*
X174500000Y-37100000D03*
X174500000Y-25900000D03*
D36*
X167000000Y-34000000D03*
X167000000Y-31500000D03*
D35*
X167000000Y-29000000D03*
D34*
X174500000Y-31500000D03*
D33*
X170000000Y-31500000D03*
X179000000Y-31500000D03*
%TD*%
D36*
%TO.C,SW_RE3*%
X215100000Y-34000000D03*
X215100000Y-29000000D03*
D37*
X208100000Y-37100000D03*
X208100000Y-25900000D03*
D36*
X200600000Y-34000000D03*
X200600000Y-31500000D03*
D35*
X200600000Y-29000000D03*
D34*
X208100000Y-31500000D03*
D33*
X203600000Y-31500000D03*
X212600000Y-31500000D03*
%TD*%
%TO.C,SW_RE4*%
X246200000Y-31500000D03*
X237200000Y-31500000D03*
D34*
X241700000Y-31500000D03*
D35*
X234200000Y-29000000D03*
D36*
X234200000Y-31500000D03*
X234200000Y-34000000D03*
D37*
X241700000Y-25900000D03*
X241700000Y-37100000D03*
D36*
X248700000Y-29000000D03*
X248700000Y-34000000D03*
%TD*%
%TO.C,SW_RE5*%
X282300000Y-34000000D03*
X282300000Y-29000000D03*
D37*
X275300000Y-37100000D03*
X275300000Y-25900000D03*
D36*
X267800000Y-34000000D03*
X267800000Y-31500000D03*
D35*
X267800000Y-29000000D03*
D34*
X275300000Y-31500000D03*
D33*
X270800000Y-31500000D03*
X279800000Y-31500000D03*
%TD*%
M02*
