%TF.GenerationSoftware,KiCad,Pcbnew,(5.1.9-0-10_14)*%
%TF.CreationDate,2021-01-10T14:58:04+09:00*%
%TF.ProjectId,Unison,556e6973-6f6e-42e6-9b69-6361645f7063,v01_1AU*%
%TF.SameCoordinates,Original*%
%TF.FileFunction,Profile,NP*%
%FSLAX46Y46*%
G04 Gerber Fmt 4.6, Leading zero omitted, Abs format (unit mm)*
G04 Created by KiCad (PCBNEW (5.1.9-0-10_14)) date 2021-01-10 14:58:04*
%MOMM*%
%LPD*%
G01*
G04 APERTURE LIST*
%TA.AperFunction,Profile*%
%ADD10C,0.050000*%
%TD*%
%TA.AperFunction,Profile*%
%ADD11C,0.120000*%
%TD*%
%TA.AperFunction,Profile*%
%ADD12C,0.300000*%
%TD*%
G04 APERTURE END LIST*
D10*
X160525001Y-108225001D02*
G75*
G02*
X160524999Y-110374999I-25001J-1074999D01*
G01*
X154900000Y-110375000D02*
G75*
G02*
X154900000Y-108225000I0J1075000D01*
G01*
X154900000Y-110375000D02*
X160524999Y-110374999D01*
X154900000Y-108225000D02*
X160525001Y-108225001D01*
X160525001Y-26225001D02*
G75*
G02*
X160524999Y-28374999I-25001J-1074999D01*
G01*
X154900000Y-28375000D02*
G75*
G02*
X154900000Y-26225000I0J1075000D01*
G01*
X154900000Y-26225000D02*
X160525001Y-26225001D01*
X154900000Y-28375000D02*
X160524999Y-28374999D01*
X154900000Y-24175000D02*
X160524999Y-24174999D01*
X154900000Y-22025000D02*
X160525001Y-22025001D01*
X154900000Y-24175000D02*
G75*
G02*
X154900000Y-22025000I0J1075000D01*
G01*
X160525001Y-22025001D02*
G75*
G02*
X160524999Y-24174999I-25001J-1074999D01*
G01*
X154900000Y-44575000D02*
X160524999Y-44574999D01*
X154900000Y-42425000D02*
X160525001Y-42425001D01*
X154900000Y-44575000D02*
G75*
G02*
X154900000Y-42425000I0J1075000D01*
G01*
X160525001Y-42425001D02*
G75*
G02*
X160524999Y-44574999I-25001J-1074999D01*
G01*
X160525001Y-18625001D02*
G75*
G02*
X160524999Y-20774999I-25001J-1074999D01*
G01*
X154900000Y-20775000D02*
G75*
G02*
X154900000Y-18625000I0J1075000D01*
G01*
X154900000Y-20775000D02*
X160524999Y-20774999D01*
X154900000Y-18625000D02*
X160525001Y-18625001D01*
D11*
%TO.C,L7*%
X230500000Y-24800000D02*
X230500000Y-21400000D01*
X233500000Y-24800000D02*
X230500000Y-24800000D01*
X233500000Y-21400000D02*
X233500000Y-24800000D01*
X230500000Y-21400000D02*
X233500000Y-21400000D01*
D12*
%TO.C,REF\u002A\u002A*%
X298200000Y-17200000D02*
X39400000Y-17200000D01*
X15200000Y-109800000D02*
X15200000Y-75100000D01*
X15200000Y-75100000D02*
X19000000Y-75100000D01*
X19000000Y-72300000D02*
X15200000Y-72300000D01*
X15200000Y-72300000D02*
X15200000Y-19200000D01*
X300200000Y-75100000D02*
X300200000Y-109800000D01*
X300200000Y-72300000D02*
X300200000Y-19200000D01*
X296400000Y-75100000D02*
X300200000Y-75100000D01*
X296400000Y-72300000D02*
X300200000Y-72300000D01*
X27900000Y-16700000D02*
X38900000Y-16700000D01*
X17200000Y-17200000D02*
X27400000Y-17200000D01*
X298200000Y-111800000D02*
X17200000Y-111800000D01*
X38900000Y-16700000D02*
G75*
G03*
X39400000Y-17200000I500000J0D01*
G01*
X27400000Y-17200000D02*
G75*
G03*
X27900000Y-16700000I0J500000D01*
G01*
X19000000Y-75100000D02*
G75*
G03*
X20400000Y-73700000I0J1400000D01*
G01*
X296400000Y-75100000D02*
G75*
G02*
X295000000Y-73700000I0J1400000D01*
G01*
X295000000Y-73700000D02*
G75*
G02*
X296400000Y-72300000I1400000J0D01*
G01*
X20400000Y-73700000D02*
G75*
G03*
X19000000Y-72300000I-1400000J0D01*
G01*
X300200000Y-19200000D02*
G75*
G03*
X298200000Y-17200000I-2000000J0D01*
G01*
X298200000Y-111800000D02*
G75*
G03*
X300200000Y-109800000I0J2000000D01*
G01*
X15200000Y-109800000D02*
G75*
G03*
X17200000Y-111800000I2000000J0D01*
G01*
X17200000Y-17200000D02*
G75*
G03*
X15200000Y-19200000I0J-2000000D01*
G01*
D11*
%TO.C,L1*%
X66950000Y-24800000D02*
X66950000Y-21400000D01*
X69950000Y-24800000D02*
X66950000Y-24800000D01*
X69950000Y-21400000D02*
X69950000Y-24800000D01*
X66950000Y-21400000D02*
X69950000Y-21400000D01*
%TO.C,L2*%
X72200000Y-24800000D02*
X72200000Y-21400000D01*
X75200000Y-24800000D02*
X72200000Y-24800000D01*
X75200000Y-21400000D02*
X75200000Y-24800000D01*
X72200000Y-21400000D02*
X75200000Y-21400000D01*
%TO.C,L3*%
X77450000Y-24800000D02*
X77450000Y-21400000D01*
X80450000Y-24800000D02*
X77450000Y-24800000D01*
X80450000Y-21400000D02*
X80450000Y-24800000D01*
X77450000Y-21400000D02*
X80450000Y-21400000D01*
%TO.C,L4*%
X45700000Y-24800000D02*
X45700000Y-21400000D01*
X48700000Y-24800000D02*
X45700000Y-24800000D01*
X48700000Y-21400000D02*
X48700000Y-24800000D01*
X45700000Y-21400000D02*
X48700000Y-21400000D01*
%TO.C,L5*%
X163300000Y-24800000D02*
X163300000Y-21400000D01*
X166300000Y-24800000D02*
X163300000Y-24800000D01*
X166300000Y-21400000D02*
X166300000Y-24800000D01*
X163300000Y-21400000D02*
X166300000Y-21400000D01*
%TO.C,L6*%
X196900000Y-24800000D02*
X196900000Y-21400000D01*
X199900000Y-24800000D02*
X196900000Y-24800000D01*
X199900000Y-21400000D02*
X199900000Y-24800000D01*
X196900000Y-21400000D02*
X199900000Y-21400000D01*
%TO.C,L8*%
X264100000Y-21400000D02*
X267100000Y-21400000D01*
X267100000Y-21400000D02*
X267100000Y-24800000D01*
X267100000Y-24800000D02*
X264100000Y-24800000D01*
X264100000Y-24800000D02*
X264100000Y-21400000D01*
%TD*%
M02*
