%TF.GenerationSoftware,KiCad,Pcbnew,(5.1.9-0-10_14)*%
%TF.CreationDate,2021-02-02T05:51:32+09:00*%
%TF.ProjectId,Unison,556e6973-6f6e-42e6-9b69-6361645f7063,v01_1AU*%
%TF.SameCoordinates,Original*%
%TF.FileFunction,Profile,NP*%
%FSLAX46Y46*%
G04 Gerber Fmt 4.6, Leading zero omitted, Abs format (unit mm)*
G04 Created by KiCad (PCBNEW (5.1.9-0-10_14)) date 2021-02-02 05:51:32*
%MOMM*%
%LPD*%
G01*
G04 APERTURE LIST*
%TA.AperFunction,Profile*%
%ADD10C,0.300000*%
%TD*%
G04 APERTURE END LIST*
D10*
%TO.C,REF\u002A\u002A*%
X298200000Y-17200000D02*
X39400000Y-17200000D01*
X15200000Y-109800000D02*
X15200000Y-75500000D01*
X15600000Y-75100000D02*
X19000000Y-75100000D01*
X19000000Y-72300000D02*
X15600000Y-72300000D01*
X15200000Y-71900000D02*
X15200000Y-19200000D01*
X300200000Y-75500000D02*
X300200000Y-109800000D01*
X300200000Y-71900000D02*
X300200000Y-19200000D01*
X296400000Y-75100000D02*
X299800000Y-75100000D01*
X296400000Y-72300000D02*
X299800000Y-72300000D01*
X27900000Y-16700000D02*
X38900000Y-16700000D01*
X17200000Y-17200000D02*
X27400000Y-17200000D01*
X298200000Y-111800000D02*
X17200000Y-111800000D01*
X299800000Y-75100000D02*
G75*
G02*
X300200000Y-75500000I0J-400000D01*
G01*
X300200000Y-71900000D02*
G75*
G02*
X299800000Y-72300000I-400000J0D01*
G01*
X15200000Y-75500000D02*
G75*
G02*
X15600000Y-75100000I400000J0D01*
G01*
X15600000Y-72300000D02*
G75*
G02*
X15200000Y-71900000I0J400000D01*
G01*
X17200000Y-17200000D02*
G75*
G03*
X15200000Y-19200000I0J-2000000D01*
G01*
X15200000Y-109800000D02*
G75*
G03*
X17200000Y-111800000I2000000J0D01*
G01*
X298200000Y-111800000D02*
G75*
G03*
X300200000Y-109800000I0J2000000D01*
G01*
X300200000Y-19200000D02*
G75*
G03*
X298200000Y-17200000I-2000000J0D01*
G01*
X20400000Y-73700000D02*
G75*
G03*
X19000000Y-72300000I-1400000J0D01*
G01*
X295000000Y-73700000D02*
G75*
G02*
X296400000Y-72300000I1400000J0D01*
G01*
X296400000Y-75100000D02*
G75*
G02*
X295000000Y-73700000I0J1400000D01*
G01*
X19000000Y-75100000D02*
G75*
G03*
X20400000Y-73700000I0J1400000D01*
G01*
X27400000Y-17200000D02*
G75*
G03*
X27900000Y-16700000I0J500000D01*
G01*
X38900000Y-16700000D02*
G75*
G03*
X39400000Y-17200000I500000J0D01*
G01*
%TD*%
M02*
